<svg width="142" height="52" viewBox="0 0 142 52" fill="none" xmlns="http://www.w3.org/2000/svg">
<path d="M21.7766 15.9057C22.3846 15.8277 22.8291 15.387 22.7694 14.9214C22.7096 14.4558 22.1683 14.1416 21.5602 14.2196C20.9522 14.2976 20.5077 14.7383 20.5674 15.2039C20.6272 15.6695 21.1685 15.9837 21.7766 15.9057Z" fill="#EE6361"/>
<path d="M29.1267 14.1469C29.1067 14.0569 29.0967 13.9569 29.1067 13.8669C28.9367 13.8169 28.7567 13.7969 28.5567 13.8269C27.9467 13.9069 27.5067 14.3469 27.5667 14.8169C27.6267 15.2869 28.1667 15.5969 28.7767 15.5169C29.0567 15.4769 29.3067 15.3669 29.4767 15.2069C29.3267 14.8669 29.2167 14.5169 29.1267 14.1469Z" fill="#EE6361"/>
<path d="M18.7167 32.7369C18.7167 32.7369 11.3467 33.0669 10.4467 33.5169C9.54671 33.9669 6.25671 36.2369 5.39671 39.1869C4.53671 42.1369 4.16671 42.7369 8.12671 42.8669C12.0867 42.9969 19.5167 44.4969 19.5167 44.4969C19.5167 44.4969 30.9067 45.7369 33.6267 44.1569C36.3467 42.5769 35.9367 41.0369 39.2067 40.7869C42.4767 40.5269 46.2767 39.4969 43.8167 37.7869C41.3567 36.0769 37.7867 36.1369 37.7867 36.1369L35.4867 28.5569L31.8567 26.0469L30.8367 28.1169C30.8367 28.1169 32.2567 35.4269 31.8567 36.8669C31.4567 38.3069 27.9867 39.8669 27.9867 39.8669L22.3967 40.7669C22.3967 40.7669 20.7067 33.1169 18.7167 32.7269V32.7369Z" fill="#EE6361"/>
<path d="M30.0767 27.2269C29.5667 28.0269 27.8167 27.5069 27.1367 26.9469C26.7667 26.4569 26.6467 24.7269 27.3167 24.5669C28.5467 24.3369 30.5767 23.5969 30.7267 25.5269C31.8067 24.3469 29.1867 22.2069 31.4567 23.5769C31.7467 23.8669 31.6867 24.3669 31.7467 24.7269C31.8367 25.5369 31.2067 25.8869 31.4867 26.0669C32.4667 26.2769 32.9067 24.9269 32.7967 24.1069C32.4667 21.9269 29.9967 21.8469 28.1267 21.9669C26.4467 22.1369 24.4767 22.5969 22.9967 21.5269C21.8867 20.8769 21.9267 20.0869 20.4767 19.8869C19.7067 19.5269 19.2367 20.5469 18.6167 20.6369C18.1867 19.4169 20.3767 18.7169 21.3267 19.3569C22.5767 19.7569 23.2067 21.3169 24.6767 21.3669C27.6367 21.7869 32.0167 19.9169 33.6567 23.6969C34.4967 22.6369 35.8267 22.2569 37.1367 22.3369C37.1167 21.8969 38.1167 21.7169 38.3767 21.5569C39.6367 21.0469 40.6467 19.9869 41.5467 18.9969C42.3667 18.0669 42.6567 16.6669 43.2767 15.6069C44.2767 13.5469 45.6767 14.3369 45.8467 12.4969C45.7567 12.3369 45.5767 11.9269 45.6767 11.7469C45.4367 11.3269 44.6967 11.3169 44.3067 11.5669C43.9167 11.8169 43.9567 11.7769 43.4867 12.2869C41.7167 14.0069 38.9667 12.5869 37.0967 13.9369C36.8667 14.1469 37.1767 14.6769 36.6867 14.8669C35.6067 14.5069 36.4367 13.1569 37.3267 13.0369C40.4967 12.1369 39.8767 13.0769 41.9567 12.3069C40.7067 11.9069 38.8467 12.6669 37.7067 12.0169C37.3467 11.0969 40.5767 11.7169 41.2267 11.4969C41.7767 11.5269 42.4267 11.5369 42.9667 11.4269C43.4267 11.3569 43.2067 11.3369 43.7567 11.0369C44.3667 10.7169 45.1567 10.9269 45.1367 10.7769C44.9567 7.5869 44.7467 3.7469 40.6467 3.4169C40.1567 3.3169 39.5667 3.6369 39.1767 3.2369C38.4967 3.0469 38.9167 2.5269 39.0467 2.1769C38.7867 1.7069 37.3867 1.3769 37.0867 2.0069C36.8067 3.0569 37.6467 2.5569 38.2467 2.6669C39.4967 3.7469 32.9767 3.8969 32.0467 5.6669C30.1167 8.0769 33.6867 10.0569 31.0867 10.7669C31.4367 11.8169 32.7967 10.8769 33.4867 11.3669C34.2067 11.1369 35.4767 9.9669 36.2367 11.1869C36.7667 12.5169 35.5567 12.6869 35.4767 11.3369C34.8267 11.3569 33.5467 12.1269 34.0367 12.8469C36.3367 14.5269 34.6967 17.5569 32.8067 18.8269C31.6167 19.5269 30.2867 19.8069 28.4667 20.1169C27.5167 20.2769 26.9067 20.0469 25.9867 20.2069C25.5467 20.4669 25.8267 21.2669 25.7067 21.2669C25.3567 21.2069 24.8167 21.4269 24.8667 20.8369C24.8467 18.7969 26.8367 19.0969 27.8867 17.8069C29.0367 16.3869 29.0767 14.9669 28.2767 13.5769C28.0267 13.7669 27.6667 14.0969 27.2067 13.8969C27.5167 14.6369 27.7667 16.3269 26.3767 15.4469C26.3067 15.3569 25.9967 15.1269 26.1567 15.0169C28.0967 15.4169 24.5967 11.8869 26.1467 11.9469C26.5467 12.1069 26.4067 12.6769 26.8067 13.2269C27.0367 13.0769 27.1867 12.9569 27.5667 13.2269C27.9367 12.9969 27.7767 12.4969 27.6967 12.1469C27.4367 11.1369 29.0167 10.8069 28.1567 9.3069C27.8667 8.5169 26.1767 8.8869 25.9867 8.4669C26.0867 7.3169 25.1967 6.1469 23.9267 6.1269C23.3667 6.2969 22.8667 6.8169 22.5667 7.3169C22.5667 7.5769 22.6067 7.9569 22.3167 8.0869C22.1167 8.0369 21.8067 7.9469 21.6667 8.1669C21.1267 8.0069 20.7067 7.7069 20.5367 7.1369C19.3467 6.3169 17.6567 7.1969 17.6567 8.5769C17.4867 9.1869 18.1367 9.0769 18.4967 9.0969C19.8967 9.2069 19.0867 10.7169 18.0367 10.1569C17.3467 9.6269 16.4867 10.1569 15.9967 10.7269C15.0167 11.9369 16.3467 11.3969 16.7567 12.1469C16.5867 13.1169 13.6567 11.8669 14.1067 13.9369C14.3367 14.6469 14.8367 14.6669 15.4167 14.6269C16.6467 15.0269 13.3067 16.1869 15.2667 17.7269C15.9767 17.7869 15.9467 16.5869 17.0367 17.7869C17.0567 19.1269 18.0767 18.2669 18.8067 18.6369C19.1567 19.1169 18.2167 19.6469 17.8167 19.3969C16.8467 18.8569 16.7067 19.1969 16.0367 18.4669C15.1867 18.3769 13.9167 17.9469 13.8767 16.7669C13.9167 16.0869 14.0467 15.8769 14.3367 15.2569C13.4767 14.7569 12.6767 13.8369 13.4967 12.8669C14.1867 11.9369 14.8967 11.9169 14.8767 11.7469C14.5167 10.6869 15.8067 9.7969 16.7467 9.4169C16.6967 6.5269 19.2167 5.1869 21.6967 6.7969C22.8967 4.9469 25.8967 5.0769 26.5667 7.2669C27.0667 9.6069 29.9467 7.1669 29.1367 11.0569C29.0467 11.4869 28.7367 12.4869 28.9067 12.9069C29.9167 15.4669 30.4767 17.4469 26.8167 19.5369C26.8167 19.5169 28.1867 19.5569 28.2067 19.5569C31.0067 18.9569 35.1167 18.0069 33.9767 14.5669C33.5767 13.6869 32.9067 13.0669 33.0367 11.9569C32.5967 11.9069 31.4367 12.0669 31.0467 11.7669C30.4567 11.5469 29.7367 10.3569 30.6067 10.0469C30.8167 9.9569 31.3967 9.9369 31.2767 9.5769C30.2267 7.7769 30.6067 5.0969 32.6667 4.2569C33.7667 3.5769 35.2167 3.3169 36.4767 3.0769C35.1567 0.386898 40.0967 0.366899 39.8067 2.6869C44.3367 2.4769 46.1067 6.4669 45.8967 10.3169C46.0067 10.6669 48.1567 10.9369 48.2167 11.8569C48.2567 12.2969 46.9067 13.0569 46.5667 13.1669C46.2867 13.2569 46.7267 13.3069 46.3367 13.6269C45.7067 14.1569 46.1467 14.0269 45.7967 14.3369C45.7367 14.6269 45.2767 14.7669 45.0667 14.8869C44.0267 15.4369 43.7167 16.7569 43.2467 17.7569C42.4467 20.0569 39.7767 21.8569 37.9867 22.5269C40.5667 23.1769 41.1467 26.8469 39.3067 28.5669C38.6167 29.3269 37.3667 29.3269 36.5167 29.6269C37.3567 31.4969 37.2967 33.9669 38.1367 35.7269C38.7167 35.6769 39.5767 35.7169 40.1667 35.7569C41.4567 35.7569 42.9267 35.9269 44.0367 36.6569C46.6867 38.4869 45.7567 41.0169 42.5167 40.5469C41.3767 40.2269 39.9267 39.8069 38.7167 39.9369C38.2567 39.7469 34.9567 41.3769 36.3567 41.0369C38.4167 40.0169 41.2467 39.8969 42.6467 42.0169C44.0067 46.3969 37.0767 49.7269 33.9067 46.8469C32.0167 45.2569 34.0167 43.3969 31.8167 43.6769C31.3567 44.2269 29.4167 44.0069 28.7167 44.1969C26.1067 44.5069 23.3367 44.3069 20.7367 44.1269C15.9967 43.8069 20.2967 44.0669 17.0867 46.7269C15.2967 47.8469 12.8767 48.6669 10.7467 48.6569C7.12671 48.4669 6.57671 45.0169 9.19671 42.9069C9.20671 42.5569 8.15671 42.7369 7.87671 42.6469C2.20671 42.3369 6.50671 36.8869 8.70671 34.8869C8.88671 34.3969 11.1967 32.8569 10.0767 33.0269C4.13671 32.2069 7.51671 28.4369 11.6567 28.8469C14.5167 29.6169 12.6467 29.4669 13.6267 27.8169C14.2167 26.7869 14.6167 25.6169 15.1267 24.5369C15.5767 23.5769 14.8767 24.6069 14.4967 24.2269C14.1867 24.1669 13.9367 23.8669 13.6267 23.8469C12.5467 24.5369 10.7267 24.4169 10.2467 23.0769C9.20671 23.3969 7.23671 23.8269 6.86671 22.2969C7.10671 20.8969 6.13671 21.8469 5.35671 21.7969C3.76671 22.3269 1.87671 20.3769 3.83671 19.2969C4.80671 18.4369 6.10671 18.1769 7.33671 18.1069C9.69671 17.9269 12.1167 18.1069 14.3967 18.7769C15.3467 19.0669 16.2867 19.4569 17.0767 20.0669C17.8167 20.6469 17.3467 21.3269 16.5867 20.4369C14.4967 19.0069 11.7567 18.6969 9.28671 18.6269C7.58671 18.6269 5.67671 18.4969 4.30671 19.6969C3.79671 20.0869 3.07671 20.6869 4.13671 21.0269C5.15671 21.3769 4.18671 21.1569 5.21671 21.0969C5.81671 21.1469 9.08671 19.8069 7.94671 21.4569C7.70671 21.6169 7.46671 21.9769 7.59671 22.2769C7.93671 23.0369 10.0967 22.8969 9.86671 21.9469C9.79671 21.5769 9.81671 21.0969 10.0867 20.7769C10.6567 19.2069 12.9967 20.1869 11.7667 21.5969C9.92671 23.1369 11.7467 24.2069 13.3167 23.2169C12.7167 22.0269 14.4467 19.8069 15.0267 21.5669C15.2767 22.9569 13.5767 23.3569 15.1367 23.8169L15.2567 24.0569C15.5667 23.5869 15.3567 22.8769 15.5067 22.4369C15.7767 22.4369 15.9867 22.4469 16.0067 22.1369C16.5867 21.8669 16.7267 22.8269 16.6267 23.2369C16.5167 24.8169 15.6867 26.4169 14.9667 27.8069C14.1567 29.0569 15.1267 30.0769 16.2667 30.6169C17.7567 31.7569 20.0067 31.7669 20.8167 33.6969C21.7667 35.8569 21.7867 38.2769 23.0867 40.2769C23.8367 40.6269 25.3267 40.2769 26.1467 40.0669C27.3967 39.8769 32.5067 37.8969 28.5367 37.7569C27.2267 36.8969 27.6767 34.6769 27.1367 33.3069C26.5967 30.9469 24.4167 29.7169 22.3967 28.7669C22.2167 28.2269 22.3667 28.0869 21.6867 27.6569C21.1367 27.0269 20.4867 26.2569 19.9967 25.5669C19.8567 25.0969 18.2567 22.8569 19.3567 23.1469C19.8767 23.1969 20.5067 24.7169 20.6867 25.0569C21.4267 26.0369 22.1067 27.1569 23.1667 27.8269C24.5767 28.6869 26.2167 28.7269 27.7767 28.4169C29.9867 28.1969 30.7667 29.8369 31.2367 26.8069L30.8767 26.6269C29.4867 27.1869 30.3567 24.9869 29.4767 24.9669C29.4967 25.4269 29.2467 26.1769 28.8667 26.5869C29.4567 26.9769 29.9767 26.3569 30.1367 27.2569L30.0767 27.2269ZM47.0667 11.8569C47.5367 11.5169 46.4467 11.2669 46.2067 11.3269L46.5067 12.1169C46.4867 12.2569 46.4867 12.2569 46.5367 12.1169L47.0667 11.8569ZM11.0967 21.1669C11.8967 19.9469 10.0767 20.9869 10.5167 21.9069L11.0967 21.1669ZM36.5667 28.5669C38.4067 28.5969 36.3867 28.2969 36.4067 27.1869C36.0867 25.8569 36.3567 23.8569 37.8167 23.3669C33.6567 21.9369 32.3467 27.8569 36.5667 28.5669ZM39.0667 27.3569C39.6967 26.4469 39.3767 25.4369 38.9467 24.4669C36.2967 22.8569 36.9367 29.8369 39.0667 27.3569ZM28.2267 26.3169C28.4067 25.9769 28.8867 25.3769 28.5367 25.0069C28.1667 24.7169 27.7067 26.1569 28.2267 26.3169ZM35.0467 36.4869C37.1167 35.9669 36.5567 35.4869 36.3367 33.6669C36.0967 32.7569 36.1767 31.4169 35.4467 30.8369C35.4767 30.5669 35.5167 30.1469 35.3367 29.9069C34.8467 28.4869 33.0567 28.0869 32.8567 26.4669C29.6467 27.8569 35.4767 27.6969 32.6667 37.8969C33.3767 37.2369 34.2167 36.9069 35.0467 36.4769V36.4869ZM31.3967 32.8869C31.7367 31.7569 31.6267 30.1469 31.2867 29.1269C30.2967 29.7469 29.0367 29.0469 27.9967 29.1769C28.8867 29.6669 29.6367 30.4469 30.0767 31.3569C30.3567 31.8569 31.3767 35.2569 31.3867 32.8769L31.3967 32.8869ZM31.0467 36.7969C31.0667 35.9669 31.3367 35.4169 31.2667 34.5169C28.6567 34.2269 30.9667 29.4869 24.9167 29.2369C27.6467 30.9069 28.1167 33.6769 28.5667 36.5469C28.8067 37.7269 29.4867 36.5469 30.9467 37.7869L31.0467 36.7969ZM15.5267 32.3369C15.8667 32.3369 17.5467 32.3869 17.8467 32.3069C17.1867 31.9969 16.4267 31.6669 15.8567 31.2069C15.2267 30.7469 15.8867 31.4869 14.7667 30.7869C13.8167 30.2269 12.7067 29.7669 11.6367 29.5369C9.18671 29.2869 5.00671 31.2969 9.79671 32.2269C11.4767 32.3969 13.8367 32.3469 15.5267 32.3369ZM28.1067 43.2969C29.1067 43.2869 30.1667 43.0269 31.1567 42.9669C29.9467 39.1369 32.4467 40.8069 26.0567 41.9969C25.0867 42.3369 24.1867 42.2469 24.1667 41.1169C23.6067 41.1469 22.8067 41.2269 22.4067 40.7669C21.5867 39.4769 21.1267 37.8469 20.7567 36.3769C20.3267 35.0069 20.2667 32.6669 18.2567 33.1569C15.1467 32.9969 11.2167 33.0069 9.06671 35.6969C7.91671 37.0169 5.83671 38.7769 6.37671 40.6869C6.65671 40.8369 6.86671 41.1469 6.91671 41.4369C7.89671 41.9369 9.33671 41.7469 10.4567 41.8769C12.0667 41.9769 13.5767 42.3669 15.1567 42.5069C19.4267 42.9869 23.7667 43.7869 28.0967 43.2969H28.1067ZM34.2667 40.1869C38.1367 37.4969 41.5367 40.3269 43.9567 39.0069C45.0767 37.2769 41.2667 36.9669 40.1467 36.8769C38.6267 36.8769 37.0067 37.1869 35.5567 37.6269C34.1367 37.9969 32.7167 38.8569 32.0867 40.1969C31.5367 40.9969 31.2567 42.9469 32.5667 42.8769C32.5967 42.8769 32.6767 42.7469 32.6467 42.7369C31.8267 42.1169 33.7767 40.6669 34.2667 40.1869ZM39.3367 45.9169C41.8467 44.8069 41.3067 41.1869 38.3767 41.4069C36.4467 41.5069 33.4967 43.3569 35.1267 45.4869C35.9267 46.7769 38.1567 46.5369 39.3467 45.9169H39.3367ZM16.5067 44.8569C17.5167 43.7269 15.9167 43.6369 15.0967 43.6069C14.6767 46.3969 9.14671 46.1269 11.8367 43.1669C9.42671 42.2069 7.35671 47.0069 10.3367 47.4269C12.5567 47.7569 15.1467 46.5969 16.5067 44.8669V44.8569ZM12.7067 44.5069C13.1267 44.2969 13.5467 44.0869 13.8167 43.6969C13.4267 43.5569 11.8467 44.3169 12.7067 44.5069Z" fill="black"/>
<path d="M18.7367 17.5069C17.0367 17.6269 15.9567 14.4869 18.0867 14.4169C18.8067 14.4869 19.7067 15.1969 19.9767 14.3169C20.2067 13.0569 19.5767 13.2169 19.2067 12.2969C18.7267 10.4369 21.3067 11.2669 20.0367 11.6769C19.7267 12.1969 20.1967 12.8069 20.7067 12.9269C21.9267 13.3769 22.0367 11.1969 22.3467 10.7869C23.5567 11.8369 21.9167 13.6769 20.7767 13.6569C21.1367 16.0669 19.2967 15.1169 17.8967 15.1269C17.2667 15.4969 17.8767 16.7669 18.3667 16.8169C18.6167 16.6669 18.9867 16.3869 19.2867 16.4969C19.1267 18.0169 20.8967 17.4669 20.9367 18.5969C20.1167 18.4569 19.2167 18.2269 18.7367 17.5269V17.5069Z" fill="black"/>
<path d="M24.5067 12.1469C23.6467 12.8369 22.1867 10.2469 23.5267 10.3369C23.7867 11.1369 23.6267 11.8669 24.7967 11.5569C26.2167 11.1169 26.5267 9.6569 25.2367 8.9869C25.9967 8.7269 26.3567 9.8269 27.0267 9.9769C28.1467 10.8769 27.9167 12.0469 26.7667 10.5469C26.2167 10.7569 25.7967 12.2669 24.4967 12.1569L24.5067 12.1469Z" fill="black"/>
<path d="M24.8967 17.0669C24.3067 17.7269 21.3067 16.6869 22.4067 15.9269C22.9267 15.9069 22.8367 16.3169 23.6567 16.5269C24.3267 16.6769 26.2767 15.8369 24.8967 17.0669Z" fill="black"/>
<path d="M23.9667 15.2669C23.5567 15.4169 22.4167 14.7969 22.7667 14.3869C22.9867 14.1269 23.3267 14.5769 23.7967 14.6069C24.5467 14.7269 24.5567 13.0769 24.5667 13.0969C25.7267 13.5269 24.9367 15.1669 23.9567 15.2669H23.9667Z" fill="black"/>
<path d="M37.7267 45.4069C34.9267 45.4569 37.6167 41.6669 39.0667 43.3369C39.5867 44.4569 38.6667 45.1269 37.7267 45.4069Z" fill="black"/>
<path d="M26.1567 51.0469C34.557 51.0469 41.3667 50.6171 41.3667 50.0869C41.3667 49.5567 34.557 49.1269 26.1567 49.1269C17.7565 49.1269 10.9467 49.5567 10.9467 50.0869C10.9467 50.6171 17.7565 51.0469 26.1567 51.0469Z" fill="#231F20"/>
<path d="M63.79 37.9389L64.35 37.2689C64.74 37.5889 65.14 37.7889 65.64 37.7889C66.03 37.7889 66.26 37.6389 66.26 37.3789C66.26 37.1289 66.11 36.9989 65.39 36.8189C64.52 36.5989 63.96 36.3589 63.96 35.4989C63.96 34.7089 64.59 34.1889 65.47 34.1889C66.1 34.1889 66.63 34.3889 67.07 34.7389L66.58 35.4489C66.2 35.1889 65.82 35.0289 65.46 35.0289C65.1 35.0289 64.91 35.1989 64.91 35.4089C64.91 35.7089 65.09 35.7989 65.84 35.9889C66.71 36.2189 67.21 36.5289 67.21 37.2789C67.21 38.1489 66.56 38.6289 65.63 38.6289C64.98 38.6289 64.32 38.3989 63.8 37.9389H63.79Z" fill="#231F20"/>
<path d="M69.2 36.7189V34.2589H70.15V36.6989C70.15 37.3989 70.5 37.7689 71.08 37.7689C71.66 37.7689 72.01 37.4189 72.01 36.7389V34.2689H72.96V36.6989C72.96 38.0089 72.23 38.6489 71.07 38.6489C69.91 38.6489 69.2 37.9989 69.2 36.7289V36.7189Z" fill="#231F20"/>
<path d="M75.16 34.2489H77.13C77.68 34.2489 78.1 34.3989 78.39 34.6889C78.63 34.9289 78.76 35.2689 78.76 35.6789C78.76 36.3889 78.38 36.8289 77.84 37.0289L78.89 38.5689H77.78L76.86 37.1889H76.11V38.5689H75.16V34.2589V34.2489ZM77.07 36.3489C77.53 36.3489 77.8 36.0989 77.8 35.7389C77.8 35.3189 77.52 35.1089 77.05 35.1089H76.11V36.3489H77.07Z" fill="#231F20"/>
<path d="M80.85 34.2489H82.61C83.64 34.2489 84.26 34.8589 84.26 35.7389C84.26 36.7489 83.48 37.2689 82.52 37.2689H81.8V38.5589H80.85V34.2489ZM82.55 36.4289C83.02 36.4289 83.3 36.1489 83.3 35.7789C83.3 35.3389 83 35.1089 82.53 35.1089H81.8V36.4289H82.55Z" fill="#231F20"/>
<path d="M86.19 34.2489H88.16C88.71 34.2489 89.13 34.3989 89.42 34.6889C89.66 34.9289 89.79 35.2689 89.79 35.6789C89.79 36.3889 89.41 36.8289 88.87 37.0289L89.92 38.5689H88.81L87.89 37.1889H87.14V38.5689H86.19V34.2589V34.2489ZM88.1 36.3489C88.56 36.3489 88.83 36.0989 88.83 35.7389C88.83 35.3189 88.55 35.1089 88.08 35.1089H87.14V36.3489H88.1Z" fill="#231F20"/>
<path d="M91.93 34.2489H92.88V38.5589H91.93V34.2489Z" fill="#231F20"/>
<path d="M94.89 37.9389L95.45 37.2689C95.84 37.5889 96.24 37.7889 96.74 37.7889C97.13 37.7889 97.36 37.6389 97.36 37.3789C97.36 37.1289 97.21 36.9989 96.49 36.8189C95.62 36.5989 95.06 36.3589 95.06 35.4989C95.06 34.7089 95.69 34.1889 96.57 34.1889C97.2 34.1889 97.73 34.3889 98.17 34.7389L97.68 35.4489C97.3 35.1889 96.92 35.0289 96.56 35.0289C96.2 35.0289 96.01 35.1989 96.01 35.4089C96.01 35.7089 96.19 35.7989 96.94 35.9889C97.81 36.2189 98.31 36.5289 98.31 37.2789C98.31 38.1489 97.66 38.6289 96.73 38.6289C96.08 38.6289 95.42 38.3989 94.9 37.9389H94.89Z" fill="#231F20"/>
<path d="M100.36 34.2489H103.61V35.0889H101.3V35.9589H103.33V36.7989H101.3V37.7089H103.64V38.5489H100.36V34.2389V34.2489Z" fill="#231F20"/>
<path d="M108.81 34.2489H109.76V37.6989H111.91V38.5589H108.81V34.2489Z" fill="#231F20"/>
<path d="M115.33 34.2189H116.2L118.05 38.5589H117.06L116.67 37.5889H114.85L114.46 38.5589H113.49L115.34 34.2189H115.33ZM116.33 36.7589L115.76 35.3589L115.19 36.7589H116.34H116.33Z" fill="#231F20"/>
<path d="M119.95 34.2489H121.95C122.44 34.2489 122.83 34.3889 123.08 34.6289C123.28 34.8289 123.38 35.0689 123.38 35.3589C123.38 35.8589 123.12 36.1289 122.81 36.2989C123.31 36.4889 123.62 36.7789 123.62 37.3589C123.62 38.1589 122.98 38.5589 122.01 38.5589H119.96V34.2489H119.95ZM122.44 35.5289C122.44 35.2489 122.22 35.0889 121.82 35.0889H120.88V35.9989H121.75C122.17 35.9989 122.43 35.8589 122.43 35.5389L122.44 35.5289ZM121.97 36.7889H120.87V37.7389H122C122.42 37.7389 122.67 37.5889 122.67 37.2689C122.67 36.9689 122.45 36.7889 121.97 36.7889Z" fill="#231F20"/>
<path d="M49.86 28.8189C49.88 28.4589 50.56 28.5689 50.98 28.3289C51.41 28.0689 51.68 27.3989 52.04 23.5589C52.25 21.3089 52.21 20.4189 52.19 19.6389H50.77C49.99 19.6389 49.39 19.7489 49.09 20.2789C48.58 21.1889 48.67 21.5489 48.11 21.5489H48L48.45 18.7689L48.66 18.7489C49.25 18.9189 49.85 18.9789 50.63 18.9789H55.85C56.51 18.9789 57.02 18.9189 57.67 18.7489L57.88 18.7689L57.43 21.5489H57.26C56.75 21.5489 57.01 20.6989 56.84 20.2789C56.63 19.7689 56.14 19.6389 55.35 19.6389H53.87C53.66 20.3589 53.45 21.5089 53.26 23.5589C52.9 27.3989 53.05 28.0589 53.45 28.3289C53.83 28.5789 54.51 28.4589 54.49 28.8189L54.47 29.0089H49.84L49.86 28.8189Z" fill="#231F20"/>
<path d="M58.32 29.2289C58.02 29.2289 57.73 29.1189 57.73 28.7889C57.73 28.5089 57.94 28.0889 58.07 27.8589C58.33 28.0089 58.6 28.0689 58.85 28.0689C59.8 28.0689 60.72 26.7089 60.72 24.8489C60.72 24.0689 60.51 23.7489 60.08 23.7489C59.21 23.7489 57.77 25.6989 56.92 27.2889C56.79 27.7589 56.67 28.2189 56.58 28.6089C56.49 29.0089 55.86 29.2189 55.46 29.2189C55.23 29.2189 55.08 29.1589 55.14 29.0089C55.93 27.0589 56.48 25.3789 56.84 24.2789C57.46 22.3289 58.28 19.6989 58.28 18.5089C58.28 18.0689 58.17 17.7889 57.69 17.7889C57.43 17.7889 57.2 17.8689 57.2 17.5789V17.3689L59.96 17.0089C60.21 16.9689 60.38 17.0689 60.3 17.2189C59.58 18.8989 58.75 21.5489 58.18 23.2689C58.03 23.7389 57.76 24.5189 57.5 25.3889H57.54C58.79 23.4789 59.94 22.5089 60.87 22.5089C61.8 22.5089 61.89 23.3589 61.89 23.8889C61.89 25.9089 60.09 29.2089 58.31 29.2089L58.32 29.2289Z" fill="#231F20"/>
<path d="M61.46 27.3189C61.46 25.0289 62.92 22.5289 65.05 22.5289C65.77 22.5289 66.45 22.7789 66.45 23.5289C66.45 24.5489 64.88 25.3989 62.72 25.7789C62.66 26.0789 62.64 26.3989 62.64 26.7289C62.64 27.5389 62.87 28.1889 63.66 28.1889C64.17 28.1889 64.79 27.9289 65.42 27.2589C65.57 27.3389 65.74 27.5189 65.55 27.7689C64.79 28.7489 63.85 29.2289 62.94 29.2289C61.86 29.2289 61.45 28.3589 61.45 27.3189H61.46ZM65.15 23.7689C65.15 23.4489 64.96 23.1989 64.54 23.1989C63.78 23.1989 63.16 24.0489 62.86 25.1689C64.47 24.8489 65.15 24.3789 65.15 23.7689Z" fill="#231F20"/>
<path d="M77.11 23.8389C77.11 26.9689 75.34 29.0289 71.4 29.0289H67.37V18.9489H71.39C75 18.9489 77.12 20.5789 77.12 23.8389H77.11ZM74.26 23.9889C74.26 22.4489 73.4 21.1889 71.39 21.1889H70.17V26.7689H71.42C73.38 26.7689 74.26 25.7889 74.26 23.9889Z" fill="#231F20"/>
<path d="M87.5 18.9489H90.3V26.7689H93.78V29.0289H87.5V18.9489Z" fill="#231F20" stroke="#231F20" stroke-width="0.17" stroke-miterlimit="10"/>
<path d="M93.33 23.8989C93.33 20.4489 95.32 18.7489 98.48 18.7489C101.64 18.7489 103.67 20.4889 103.67 23.8389C103.67 27.1889 101.61 29.2289 98.43 29.2289C95.25 29.2289 93.33 27.4089 93.33 23.8989ZM100.79 23.8789C100.79 21.9389 99.97 21.0389 98.5 21.0389C97.03 21.0389 96.21 21.9389 96.21 23.8989C96.21 25.8589 97.08 26.9189 98.49 26.9189C99.9 26.9189 100.8 25.8689 100.8 23.8789H100.79Z" fill="#231F20"/>
<path d="M102.75 18.9489H105.61L107.93 24.1289L110.19 18.9489H113.06L108.28 29.2289H107.55L102.75 18.9489Z" fill="#231F20"/>
<path d="M122.02 18.9489H125.44C128.83 18.9489 130.21 20.2289 130.21 22.5089C130.21 24.3689 129.28 25.4589 127.78 25.9289C128.51 26.4489 129.57 26.8189 130.79 26.8489L130.64 29.2189C126.77 29.1889 125.67 27.6789 125.05 26.2289H124.82V29.0389H122.02V18.9589V18.9489ZM125.4 24.0389C126.75 24.0389 127.34 23.6889 127.34 22.6489C127.34 21.7489 126.88 21.2089 125.55 21.2089H124.82V24.0389H125.4Z" fill="#231F20"/>
<path d="M132.99 24.8489L129.34 18.9489H132.46L134.48 22.2989L136.57 18.9489H139.43L135.78 24.8489V29.0389H133V24.8489H132.99Z" fill="#231F20"/>
<path d="M86.07 20.5789C85.24 19.5289 83.9 18.9489 82.28 18.9489C79.09 18.9489 77.11 20.9489 77.11 24.1589C77.11 27.3689 79.08 29.2089 82.67 29.2089C84.67 29.2089 85.91 28.6589 86.62 28.1789L86.01 26.0889C85.22 26.4889 84.5 26.6489 83.56 26.6489C82.52 26.6489 81.26 26.4689 80.83 25.0589L80.76 24.8289H86.82C87.19 23.1689 86.92 21.6589 86.07 20.5789ZM84.1 22.9889H80.68L80.71 22.7889C80.88 21.6589 81.46 21.0889 82.42 21.0889C83.43 21.0889 84.1 21.7889 84.1 22.8189V22.9989V22.9889Z" fill="black"/>
<path d="M120.61 20.5789C119.78 19.5289 118.44 18.9489 116.82 18.9489C113.63 18.9489 111.65 20.9489 111.65 24.1589C111.65 27.3689 113.62 29.2089 117.21 29.2089C119.21 29.2089 120.45 28.6589 121.16 28.1789L120.55 26.0889C119.76 26.4889 119.04 26.6489 118.1 26.6489C117.06 26.6489 115.8 26.4689 115.37 25.0589L115.3 24.8289H121.36C121.73 23.1689 121.46 21.6589 120.61 20.5789ZM118.64 22.9889H115.22L115.25 22.7889C115.42 21.6589 116 21.0889 116.96 21.0889C117.97 21.0889 118.64 21.7889 118.64 22.8189V22.9989V22.9889Z" fill="black"/>
</svg>
