<?xml version="1.0" encoding="UTF-8"?>
<svg id="Capa_2" data-name="Capa 2" xmlns="http://www.w3.org/2000/svg" xmlns:xlink="http://www.w3.org/1999/xlink" viewBox="0 0 91.43 75.41">
  <defs>
    <style>
      .cls-1 {
        fill: #ee6361;
      }

      .cls-2, .cls-3 {
        fill: none;
      }

      .cls-4 {
        fill: url(#USGS_8_Sewage_Disposal);
      }

      .cls-5 {
        stroke-miterlimit: 10;
        stroke-width: .17px;
      }

      .cls-5, .cls-6 {
        fill: #231f20;
      }

      .cls-5, .cls-3 {
        stroke: #231f20;
      }

      .cls-3 {
        stroke-linecap: square;
        stroke-width: .3px;
      }
    </style>
    <pattern id="USGS_8_Sewage_Disposal" data-name="USGS 8 Sewage Disposal" x="0" y="0" width="72" height="74.8" patternTransform="translate(-3574.04 -3980.91) scale(.56)" patternUnits="userSpaceOnUse" viewBox="0 0 72 74.8">
      <g>
        <rect class="cls-2" y="0" width="72" height="74.8"/>
        <g>
          <line class="cls-3" x1="72" y1="73.95" x2="144" y2="73.95"/>
          <line class="cls-3" x1="72" y1="72.25" x2="144" y2="72.25"/>
          <line class="cls-3" x1="72" y1="70.55" x2="144" y2="70.55"/>
          <line class="cls-3" x1="72" y1="68.85" x2="144" y2="68.85"/>
          <line class="cls-3" x1="72" y1="67.15" x2="144" y2="67.15"/>
          <line class="cls-3" x1="72" y1="65.45" x2="144" y2="65.45"/>
          <line class="cls-3" x1="72" y1="63.75" x2="144" y2="63.75"/>
          <line class="cls-3" x1="72" y1="62.05" x2="144" y2="62.05"/>
          <line class="cls-3" x1="72" y1="60.35" x2="144" y2="60.35"/>
          <line class="cls-3" x1="72" y1="58.65" x2="144" y2="58.65"/>
          <line class="cls-3" x1="72" y1="56.95" x2="144" y2="56.95"/>
          <line class="cls-3" x1="72" y1="55.25" x2="144" y2="55.25"/>
          <line class="cls-3" x1="72" y1="53.55" x2="144" y2="53.55"/>
          <line class="cls-3" x1="72" y1="51.85" x2="144" y2="51.85"/>
          <line class="cls-3" x1="72" y1="50.15" x2="144" y2="50.15"/>
          <line class="cls-3" x1="72" y1="48.45" x2="144" y2="48.45"/>
          <line class="cls-3" x1="72" y1="46.75" x2="144" y2="46.75"/>
          <line class="cls-3" x1="72" y1="45.05" x2="144" y2="45.05"/>
          <line class="cls-3" x1="72" y1="43.35" x2="144" y2="43.35"/>
          <line class="cls-3" x1="72" y1="41.65" x2="144" y2="41.65"/>
          <line class="cls-3" x1="72" y1="39.95" x2="144" y2="39.95"/>
          <line class="cls-3" x1="72" y1="38.25" x2="144" y2="38.25"/>
          <line class="cls-3" x1="72" y1="36.55" x2="144" y2="36.55"/>
          <line class="cls-3" x1="72" y1="34.85" x2="144" y2="34.85"/>
          <line class="cls-3" x1="72" y1="33.15" x2="144" y2="33.15"/>
          <line class="cls-3" x1="72" y1="31.45" x2="144" y2="31.45"/>
          <line class="cls-3" x1="72" y1="29.75" x2="144" y2="29.75"/>
          <line class="cls-3" x1="72" y1="28.05" x2="144" y2="28.05"/>
          <line class="cls-3" x1="72" y1="26.35" x2="144" y2="26.35"/>
          <line class="cls-3" x1="72" y1="24.65" x2="144" y2="24.65"/>
          <line class="cls-3" x1="72" y1="22.95" x2="144" y2="22.95"/>
          <line class="cls-3" x1="72" y1="21.25" x2="144" y2="21.25"/>
          <line class="cls-3" x1="72" y1="19.55" x2="144" y2="19.55"/>
          <line class="cls-3" x1="72" y1="17.85" x2="144" y2="17.85"/>
          <line class="cls-3" x1="72" y1="16.15" x2="144" y2="16.15"/>
          <line class="cls-3" x1="72" y1="14.45" x2="144" y2="14.45"/>
          <line class="cls-3" x1="72" y1="12.75" x2="144" y2="12.75"/>
          <line class="cls-3" x1="72" y1="11.05" x2="144" y2="11.05"/>
          <line class="cls-3" x1="72" y1="9.35" x2="144" y2="9.35"/>
          <line class="cls-3" x1="72" y1="7.65" x2="144" y2="7.65"/>
          <line class="cls-3" x1="72" y1="5.95" x2="144" y2="5.95"/>
          <line class="cls-3" x1="72" y1="4.25" x2="144" y2="4.25"/>
          <line class="cls-3" x1="72" y1="2.55" x2="144" y2="2.55"/>
          <line class="cls-3" x1="72" y1=".85" x2="144" y2=".85"/>
        </g>
        <g>
          <line class="cls-3" x1="0" y1="73.95" x2="72" y2="73.95"/>
          <line class="cls-3" x1="0" y1="72.25" x2="72" y2="72.25"/>
          <line class="cls-3" x1="0" y1="70.55" x2="72" y2="70.55"/>
          <line class="cls-3" x1="0" y1="68.85" x2="72" y2="68.85"/>
          <line class="cls-3" x1="0" y1="67.15" x2="72" y2="67.15"/>
          <line class="cls-3" x1="0" y1="65.45" x2="72" y2="65.45"/>
          <line class="cls-3" x1="0" y1="63.75" x2="72" y2="63.75"/>
          <line class="cls-3" x1="0" y1="62.05" x2="72" y2="62.05"/>
          <line class="cls-3" x1="0" y1="60.35" x2="72" y2="60.35"/>
          <line class="cls-3" x1="0" y1="58.65" x2="72" y2="58.65"/>
          <line class="cls-3" x1="0" y1="56.95" x2="72" y2="56.95"/>
          <line class="cls-3" x1="0" y1="55.25" x2="72" y2="55.25"/>
          <line class="cls-3" x1="0" y1="53.55" x2="72" y2="53.55"/>
          <line class="cls-3" x1="0" y1="51.85" x2="72" y2="51.85"/>
          <line class="cls-3" x1="0" y1="50.15" x2="72" y2="50.15"/>
          <line class="cls-3" x1="0" y1="48.45" x2="72" y2="48.45"/>
          <line class="cls-3" x1="0" y1="46.75" x2="72" y2="46.75"/>
          <line class="cls-3" x1="0" y1="45.05" x2="72" y2="45.05"/>
          <line class="cls-3" x1="0" y1="43.35" x2="72" y2="43.35"/>
          <line class="cls-3" x1="0" y1="41.65" x2="72" y2="41.65"/>
          <line class="cls-3" x1="0" y1="39.95" x2="72" y2="39.95"/>
          <line class="cls-3" x1="0" y1="38.25" x2="72" y2="38.25"/>
          <line class="cls-3" x1="0" y1="36.55" x2="72" y2="36.55"/>
          <line class="cls-3" x1="0" y1="34.85" x2="72" y2="34.85"/>
          <line class="cls-3" x1="0" y1="33.15" x2="72" y2="33.15"/>
          <line class="cls-3" x1="0" y1="31.45" x2="72" y2="31.45"/>
          <line class="cls-3" x1="0" y1="29.75" x2="72" y2="29.75"/>
          <line class="cls-3" x1="0" y1="28.05" x2="72" y2="28.05"/>
          <line class="cls-3" x1="0" y1="26.35" x2="72" y2="26.35"/>
          <line class="cls-3" x1="0" y1="24.65" x2="72" y2="24.65"/>
          <line class="cls-3" x1="0" y1="22.95" x2="72" y2="22.95"/>
          <line class="cls-3" x1="0" y1="21.25" x2="72" y2="21.25"/>
          <line class="cls-3" x1="0" y1="19.55" x2="72" y2="19.55"/>
          <line class="cls-3" x1="0" y1="17.85" x2="72" y2="17.85"/>
          <line class="cls-3" x1="0" y1="16.15" x2="72" y2="16.15"/>
          <line class="cls-3" x1="0" y1="14.45" x2="72" y2="14.45"/>
          <line class="cls-3" x1="0" y1="12.75" x2="72" y2="12.75"/>
          <line class="cls-3" x1="0" y1="11.05" x2="72" y2="11.05"/>
          <line class="cls-3" x1="0" y1="9.35" x2="72" y2="9.35"/>
          <line class="cls-3" x1="0" y1="7.65" x2="72" y2="7.65"/>
          <line class="cls-3" x1="0" y1="5.95" x2="72" y2="5.95"/>
          <line class="cls-3" x1="0" y1="4.25" x2="72" y2="4.25"/>
          <line class="cls-3" x1="0" y1="2.55" x2="72" y2="2.55"/>
          <line class="cls-3" x1="0" y1=".85" x2="72" y2=".85"/>
        </g>
        <g>
          <line class="cls-3" x1="-72" y1="73.95" x2="0" y2="73.95"/>
          <line class="cls-3" x1="-72" y1="72.25" x2="0" y2="72.25"/>
          <line class="cls-3" x1="-72" y1="70.55" x2="0" y2="70.55"/>
          <line class="cls-3" x1="-72" y1="68.85" x2="0" y2="68.85"/>
          <line class="cls-3" x1="-72" y1="67.15" x2="0" y2="67.15"/>
          <line class="cls-3" x1="-72" y1="65.45" x2="0" y2="65.45"/>
          <line class="cls-3" x1="-72" y1="63.75" x2="0" y2="63.75"/>
          <line class="cls-3" x1="-72" y1="62.05" x2="0" y2="62.05"/>
          <line class="cls-3" x1="-72" y1="60.35" x2="0" y2="60.35"/>
          <line class="cls-3" x1="-72" y1="58.65" x2="0" y2="58.65"/>
          <line class="cls-3" x1="-72" y1="56.95" x2="0" y2="56.95"/>
          <line class="cls-3" x1="-72" y1="55.25" x2="0" y2="55.25"/>
          <line class="cls-3" x1="-72" y1="53.55" x2="0" y2="53.55"/>
          <line class="cls-3" x1="-72" y1="51.85" x2="0" y2="51.85"/>
          <line class="cls-3" x1="-72" y1="50.15" x2="0" y2="50.15"/>
          <line class="cls-3" x1="-72" y1="48.45" x2="0" y2="48.45"/>
          <line class="cls-3" x1="-72" y1="46.75" x2="0" y2="46.75"/>
          <line class="cls-3" x1="-72" y1="45.05" x2="0" y2="45.05"/>
          <line class="cls-3" x1="-72" y1="43.35" x2="0" y2="43.35"/>
          <line class="cls-3" x1="-72" y1="41.65" x2="0" y2="41.65"/>
          <line class="cls-3" x1="-72" y1="39.95" x2="0" y2="39.95"/>
          <line class="cls-3" x1="-72" y1="38.25" x2="0" y2="38.25"/>
          <line class="cls-3" x1="-72" y1="36.55" x2="0" y2="36.55"/>
          <line class="cls-3" x1="-72" y1="34.85" x2="0" y2="34.85"/>
          <line class="cls-3" x1="-72" y1="33.15" x2="0" y2="33.15"/>
          <line class="cls-3" x1="-72" y1="31.45" x2="0" y2="31.45"/>
          <line class="cls-3" x1="-72" y1="29.75" x2="0" y2="29.75"/>
          <line class="cls-3" x1="-72" y1="28.05" x2="0" y2="28.05"/>
          <line class="cls-3" x1="-72" y1="26.35" x2="0" y2="26.35"/>
          <line class="cls-3" x1="-72" y1="24.65" x2="0" y2="24.65"/>
          <line class="cls-3" x1="-72" y1="22.95" x2="0" y2="22.95"/>
          <line class="cls-3" x1="-72" y1="21.25" x2="0" y2="21.25"/>
          <line class="cls-3" x1="-72" y1="19.55" x2="0" y2="19.55"/>
          <line class="cls-3" x1="-72" y1="17.85" x2="0" y2="17.85"/>
          <line class="cls-3" x1="-72" y1="16.15" x2="0" y2="16.15"/>
          <line class="cls-3" x1="-72" y1="14.45" x2="0" y2="14.45"/>
          <line class="cls-3" x1="-72" y1="12.75" x2="0" y2="12.75"/>
          <line class="cls-3" x1="-72" y1="11.05" x2="0" y2="11.05"/>
          <line class="cls-3" x1="-72" y1="9.35" x2="0" y2="9.35"/>
          <line class="cls-3" x1="-72" y1="7.65" x2="0" y2="7.65"/>
          <line class="cls-3" x1="-72" y1="5.95" x2="0" y2="5.95"/>
          <line class="cls-3" x1="-72" y1="4.25" x2="0" y2="4.25"/>
          <line class="cls-3" x1="-72" y1="2.55" x2="0" y2="2.55"/>
          <line class="cls-3" x1="-72" y1=".85" x2="0" y2=".85"/>
        </g>
      </g>
    </pattern>
  </defs>
  <g id="Layer_1" data-name="Layer 1">
    <g>
      <g>
        <g>
          <path class="cls-4" d="M38.82,16.81c.18.44-.3.99-.76.87-.46-.13-.71-.73-1.18-.76-.17-.01-.33.05-.49.08-.47.09-.96-.14-1.26-.51s-.39-.88-.33-1.35c.03-.21.09-.43-.01-.61-.06-.11-.16-.18-.25-.25-.34-.26-.68-.53-1-.82-.1-.08-.19-.17-.24-.29-.06-.15-.02-.32.01-.48.15-.65.37-1.39.97-1.67.21-.1.46-.13.65-.28.23-.19.29-.51.37-.8.1-.4.26-.79.47-1.14.11-.19.24-.37.42-.49.16-.1.35-.14.52-.23.75-.38.78-1.47,1.39-2.05.43-.4,1.09-.48,1.66-.35s1.08.46,1.57.79c.1.06.2.13.31.15.36.07.64-.28.94-.5.73-.54,1.43-1.33,2.3-1.06.54.17,1.43,1.4,1.77,1.85.15.2.25.45.45.6.25.18.6.18.84.37.33.25.35.72.32,1.13-.02.39-.06.78-.1,1.17-.6.03-1.21-.28-1.54-.78-.86,0-1.3,1.42-2.14,1.26-.46-.08-.77-.64-1.24-.61-.52.03-.7.69-.96,1.14-.24.41-.64.71-1.1.82-.42.1-.97.11-1.14.51-.18.45.31,1.03,0,1.41-.13.17-.37.2-.58.21-.3,0-.61-.02-.91.05s-.59.25-.68.54c-.09.29.04.61.25.83s.47.38.7.57c.31.24.57.52.79.84.14.21.26.45.26.7s-.18.52-.43.54-.5-.28-.36-.49"/>
          <ellipse class="cls-1" cx="41.81" cy="14.08" rx="1.11" ry=".85" transform="translate(-1.45 5.43) rotate(-7.31)"/>
          <path class="cls-1" d="M49.27,13.16c-.02-.09-.03-.19-.02-.28-.17-.05-.35-.07-.55-.04-.61.08-1.05.52-.99.99.06.47.6.78,1.21.7.28-.04.53-.15.7-.31-.15-.34-.26-.69-.35-1.06Z"/>
          <path class="cls-1" d="M38.86,31.75s-7.37.33-8.27.78-4.19,2.72-5.05,5.67-1.23,3.55,2.73,3.68,11.39,1.63,11.39,1.63c0,0,11.39,1.24,14.11-.34s2.31-3.12,5.58-3.37c3.27-.26,7.07-1.29,4.61-3s-6.03-1.65-6.03-1.65l-2.3-7.58-3.63-2.51-1.02,2.07s1.42,7.31,1.02,8.75-3.87,3-3.87,3l-5.59.9s-1.69-7.65-3.68-8.04Z"/>
          <g>
            <path d="M50.22,26.24c-.51.8-2.26.28-2.94-.28-.37-.49-.49-2.22.18-2.38,1.23-.23,3.26-.97,3.41.96,1.08-1.18-1.54-3.32.73-1.95.29.29.23.79.29,1.15.09.81-.54,1.16-.26,1.34.98.21,1.42-1.14,1.31-1.96-.33-2.18-2.8-2.26-4.67-2.14-1.68.17-3.65.63-5.13-.44-1.11-.65-1.07-1.44-2.52-1.64-.77-.36-1.24.66-1.86.75-.43-1.22,1.76-1.92,2.71-1.28,1.25.4,1.88,1.96,3.35,2.01,2.96.42,7.34-1.45,8.98,2.33.84-1.06,2.17-1.44,3.48-1.36-.02-.44.98-.62,1.24-.78,1.26-.51,2.27-1.57,3.17-2.56.82-.93,1.11-2.33,1.73-3.39,1-2.06,2.4-1.27,2.57-3.11-.09-.16-.27-.57-.17-.75-.24-.42-.98-.43-1.37-.18s-.35.21-.82.72c-1.77,1.72-4.52.3-6.39,1.65-.23.21.08.74-.41.93-1.08-.36-.25-1.71.64-1.83,3.17-.9,2.55.04,4.63-.73-1.25-.4-3.11.36-4.25-.29-.36-.92,2.87-.3,3.52-.52.55.03,1.2.04,1.74-.07.46-.07.24-.09.79-.39.61-.32,1.4-.11,1.38-.26-.18-3.19-.39-7.03-4.49-7.36-.49-.1-1.08.22-1.47-.18-.68-.19-.26-.71-.13-1.06-.26-.47-1.66-.8-1.96-.17-.28,1.05.56.55,1.16.66,1.25,1.08-5.27,1.23-6.2,3-1.93,2.41,1.64,4.39-.96,5.1.35,1.05,1.71.11,2.4.6.72-.23,1.99-1.4,2.75-.18.53,1.33-.68,1.5-.76.15-.65.02-1.93.79-1.44,1.51,2.3,1.68.66,4.71-1.23,5.98-1.19.7-2.52.98-4.34,1.29-.95.16-1.56-.07-2.48.09-.44.26-.16,1.06-.28,1.06-.35-.06-.89.16-.84-.43-.02-2.04,1.97-1.74,3.02-3.03,1.15-1.42,1.19-2.84.39-4.23-.25.19-.61.52-1.07.32.31.74.56,2.43-.83,1.55-.07-.09-.38-.32-.22-.43,1.94.4-1.56-3.13-.01-3.07.4.16.26.73.66,1.28.23-.15.38-.27.76,0,.37-.23.21-.73.13-1.08-.26-1.01,1.32-1.34.46-2.84-.29-.79-1.98-.42-2.17-.84.1-1.15-.79-2.32-2.06-2.34-.56.17-1.06.69-1.36,1.19,0,.26.04.64-.25.77-.2-.05-.51-.14-.65.08-.54-.16-.96-.46-1.13-1.03-1.19-.82-2.88.06-2.88,1.44-.17.61.48.5.84.52,1.4.11.59,1.62-.46,1.06-.69-.53-1.55,0-2.04.57-.98,1.21.35.67.76,1.42-.17.97-3.1-.28-2.65,1.79.23.71.73.73,1.31.69,1.23.4-2.11,1.56-.15,3.1.71.06.68-1.14,1.77.06.02,1.34,1.04.48,1.77.85.35.48-.59,1.01-.99.76-.97-.54-1.11-.2-1.78-.93-.85-.09-2.12-.52-2.16-1.7.04-.68.17-.89.46-1.51-.86-.5-1.66-1.42-.84-2.39.69-.93,1.4-.95,1.38-1.12-.36-1.06.93-1.95,1.87-2.33-.05-2.89,2.47-4.23,4.95-2.62,1.2-1.85,4.2-1.72,4.87.47.5,2.34,3.38-.1,2.57,3.79-.09.43-.4,1.43-.23,1.85,1.01,2.56,1.57,4.54-2.09,6.63,0-.02,1.37.02,1.39.02,2.8-.6,6.91-1.55,5.77-4.99-.4-.88-1.07-1.5-.94-2.61-.44-.05-1.6.11-1.99-.19-.59-.22-1.31-1.41-.44-1.72.21-.09.79-.11.67-.47-1.05-1.8-.67-4.48,1.39-5.32,1.1-.68,2.55-.94,3.81-1.18-1.32-2.69,3.62-2.71,3.33-.39,4.53-.21,6.3,3.78,6.09,7.63.11.35,2.26.62,2.32,1.54.04.44-1.31,1.2-1.65,1.31-.28.09.16.14-.23.46-.63.53-.19.4-.54.71-.06.29-.52.43-.73.55-1.04.55-1.35,1.87-1.82,2.87-.8,2.3-3.47,4.1-5.26,4.77,2.58.65,3.16,4.32,1.32,6.04-.69.76-1.94.76-2.79,1.06.84,1.87.78,4.34,1.62,6.1.58-.05,1.44-.01,2.03.03,1.29,0,2.76.17,3.87.9,2.65,1.83,1.72,4.36-1.52,3.89-1.14-.32-2.59-.74-3.8-.61-.46-.19-3.76,1.44-2.36,1.1,2.06-1.02,4.89-1.14,6.29.98,1.36,4.38-5.57,7.71-8.74,4.83-1.89-1.59.11-3.45-2.09-3.17-.46.55-2.4.33-3.1.52-2.61.31-5.38.11-7.98-.07-4.74-.32-.44-.06-3.65,2.6-1.79,1.12-4.21,1.94-6.34,1.93-3.62-.19-4.17-3.64-1.55-5.75.01-.35-1.04-.17-1.32-.26-5.67-.31-1.37-5.76.83-7.76.18-.49,2.49-2.03,1.37-1.86-5.94-.82-2.56-4.59,1.58-4.18,2.86.77.99.62,1.97-1.03.59-1.03.99-2.2,1.5-3.28.45-.96-.25.07-.63-.31-.31-.06-.56-.36-.87-.38-1.08.69-2.9.57-3.38-.77-1.04.32-3.01.75-3.38-.78.24-1.4-.73-.45-1.51-.5-1.59.53-3.48-1.42-1.52-2.5.97-.86,2.27-1.12,3.5-1.19,2.36-.18,4.78,0,7.06.67.95.29,1.89.68,2.68,1.29.74.58.27,1.26-.49.37-2.09-1.43-4.83-1.74-7.3-1.81-1.7,0-3.61-.13-4.98,1.07-.51.39-1.23.99-.17,1.33,1.02.35.05.13,1.08.07.6.05,3.87-1.29,2.73.36-.24.16-.48.52-.35.82.34.76,2.5.62,2.27-.33-.07-.37-.05-.85.22-1.17.57-1.57,2.91-.59,1.68.82-1.84,1.54-.02,2.61,1.55,1.62-.6-1.19,1.13-3.41,1.71-1.65.25,1.39-1.45,1.79.11,2.25,0,0,.12.24.12.24.31-.47.1-1.18.25-1.62.27,0,.48.01.5-.3.58-.27.72.69.62,1.1-.11,1.58-.94,3.18-1.66,4.57-.81,1.25.16,2.27,1.3,2.81,1.49,1.14,3.74,1.15,4.55,3.08.95,2.16.97,4.58,2.27,6.58.75.35,2.24,0,3.06-.21,1.25-.19,6.36-2.17,2.39-2.31-1.31-.86-.86-3.08-1.4-4.45-.54-2.36-2.72-3.59-4.74-4.54-.18-.54-.03-.68-.71-1.11-.55-.63-1.2-1.4-1.69-2.09-.14-.47-1.74-2.71-.64-2.42.52.05,1.15,1.57,1.33,1.91.74.98,1.42,2.1,2.48,2.77,1.41.86,3.05.9,4.61.59,2.21-.22,2.99,1.42,3.46-1.61,0,0-.36-.18-.36-.18-1.39.56-.52-1.64-1.4-1.66.02.46-.23,1.21-.61,1.62.59.39,1.11-.23,1.27.67ZM67.21,10.87c.47-.34-.62-.59-.86-.53l.3.79c-.02.14-.02.14.03,0l.53-.26ZM31.24,20.18c.8-1.22-1.02-.18-.58.74l.58-.74ZM56.71,27.58c1.84.03-.18-.27-.16-1.38-.32-1.33-.05-3.33,1.41-3.82-4.16-1.43-5.47,4.49-1.25,5.2ZM59.21,26.37c.63-.91.31-1.92-.12-2.89-2.65-1.61-2.01,5.37.12,2.89ZM48.37,25.33c.18-.34.66-.94.31-1.31-.37-.29-.83,1.15-.31,1.31ZM55.19,35.5c2.07-.52,1.51-1,1.29-2.82-.24-.91-.16-2.25-.89-2.83.03-.27.07-.69-.11-.93-.49-1.42-2.28-1.82-2.48-3.44-3.21,1.39,2.62,1.23-.19,11.43.71-.66,1.55-.99,2.38-1.42ZM51.54,31.9c.34-1.13.23-2.74-.11-3.76-.99.62-2.25-.08-3.29.05.89.49,1.64,1.27,2.08,2.18.28.5,1.3,3.9,1.31,1.52ZM51.19,35.81c.02-.83.29-1.38.22-2.28-2.61-.29-.3-5.03-6.35-5.28,2.73,1.67,3.2,4.44,3.65,7.31.24,1.18.92,0,2.38,1.24l.1-.99ZM35.67,31.35c.34,0,2.02.05,2.32-.03-.66-.31-1.42-.64-1.99-1.1-.63-.46.03.28-1.09-.42-.95-.56-2.06-1.02-3.13-1.25-2.45-.25-6.63,1.76-1.84,2.69,1.68.17,4.04.12,5.73.11ZM48.25,42.31c1-.01,2.06-.27,3.05-.33-1.21-3.83,1.29-2.16-5.1-.97-.97.34-1.87.25-1.89-.88-.56.03-1.36.11-1.76-.35-.82-1.29-1.28-2.92-1.65-4.39-.43-1.37-.49-3.71-2.5-3.22-3.11-.16-7.04-.15-9.19,2.54-1.15,1.32-3.23,3.08-2.69,4.99.28.15.49.46.54.75.98.5,2.42.31,3.54.44,1.61.1,3.12.49,4.7.63,4.27.48,8.61,1.28,12.94.79ZM54.41,39.2c3.87-2.69,7.27.14,9.69-1.18,1.12-1.73-2.69-2.04-3.81-2.13-1.52,0-3.14.31-4.59.75-1.42.37-2.84,1.23-3.47,2.57-.55.8-.83,2.75.48,2.68.03,0,.11-.13.08-.14-.82-.62,1.13-2.07,1.62-2.55ZM59.48,44.93c2.51-1.11,1.97-4.73-.96-4.51-1.93.1-4.88,1.95-3.25,4.08.8,1.29,3.03,1.05,4.22.43ZM36.65,43.87c1.01-1.13-.59-1.22-1.41-1.25-.42,2.79-5.95,2.52-3.26-.44-2.41-.96-4.48,3.84-1.5,4.26,2.22.33,4.81-.83,6.17-2.56ZM32.85,43.52c.42-.21.84-.42,1.11-.81-.39-.14-1.97.62-1.11.81Z"/>
            <path d="M38.88,16.52c-1.7.12-2.78-3.02-.65-3.09.72.07,1.62.78,1.89-.1.23-1.26-.4-1.1-.77-2.02-.48-1.86,2.1-1.03.83-.62-.31.52.16,1.13.67,1.25,1.22.45,1.33-1.73,1.64-2.14,1.21,1.05-.43,2.89-1.57,2.87.36,2.41-1.48,1.46-2.88,1.47-.63.37-.02,1.64.47,1.69.25-.15.62-.43.92-.32-.16,1.52,1.61.97,1.65,2.1-.82-.14-1.72-.37-2.2-1.07Z"/>
            <path d="M44.65,11.16c-.86.69-2.32-1.9-.98-1.81.26.8.1,1.53,1.27,1.22,1.42-.44,1.73-1.9.44-2.57.76-.26,1.12.84,1.79.99,1.12.9.89,2.07-.26.57-.55.21-.97,1.72-2.27,1.61Z"/>
            <path d="M45.04,16.08c-.59.66-3.59-.38-2.49-1.14.52-.02.43.39,1.25.6.67.15,2.62-.69,1.24.54Z"/>
            <path d="M44.11,14.28c-.41.15-1.55-.47-1.2-.88.22-.26.56.19,1.03.22.75.12.76-1.53.77-1.51,1.16.43.37,2.07-.61,2.17Z"/>
            <path d="M57.87,44.42c-2.8.05-.11-3.74,1.34-2.07.52,1.12-.4,1.79-1.34,2.07Z"/>
          </g>
          <path class="cls-4" d="M57.93,3.19s-1.55,1.86-1.89,4.77-1.25,2.38-1.25,2.38c0,0-3.91.77-3.5,0s.89-1.68.89-1.68c0,0-2.75-3.44-.42-4.72s4.83-1.87,4.83-1.87c0,0,3.96.18,1.35,1.11Z"/>
        </g>
        <ellipse class="cls-6" cx="46.3" cy="49.1" rx="15.21" ry=".96"/>
      </g>
      <g>
        <path class="cls-6" d="M15.8,74.72l.56-.67c.39.32.79.52,1.29.52.39,0,.62-.15.62-.41h0c0-.25-.15-.38-.87-.56-.87-.22-1.43-.46-1.43-1.32h0c0-.79.63-1.31,1.51-1.31.63,0,1.16.2,1.6.55l-.49.71c-.38-.26-.76-.42-1.12-.42s-.55.17-.55.38h0c0,.3.18.39.93.58.87.23,1.37.54,1.37,1.29h0c0,.87-.65,1.35-1.58,1.35-.65,0-1.31-.23-1.83-.69Z"/>
        <path class="cls-6" d="M21.21,73.5v-2.46h.95v2.44c0,.7.35,1.07.93,1.07s.93-.35.93-1.03v-2.47h.95v2.43c0,1.31-.73,1.95-1.89,1.95s-1.87-.65-1.87-1.92Z"/>
        <path class="cls-6" d="M27.17,71.03h1.97c.55,0,.97.15,1.26.44.24.24.37.58.37.99h0c0,.71-.38,1.15-.92,1.35l1.05,1.54h-1.11l-.92-1.38h-.75v1.38h-.95v-4.31ZM29.08,73.13c.46,0,.73-.25.73-.61h0c0-.42-.28-.63-.75-.63h-.94v1.24h.96Z"/>
        <path class="cls-6" d="M32.86,71.03h1.76c1.03,0,1.65.61,1.65,1.49h0c0,1.01-.78,1.53-1.74,1.53h-.72v1.29h-.95v-4.31ZM34.56,73.21c.47,0,.75-.28.75-.65h0c0-.44-.3-.67-.77-.67h-.73v1.32h.75Z"/>
        <path class="cls-6" d="M38.2,71.03h1.97c.55,0,.97.15,1.26.44.24.24.37.58.37.99h0c0,.71-.38,1.15-.92,1.35l1.05,1.54h-1.11l-.92-1.38h-.75v1.38h-.95v-4.31ZM40.11,73.13c.46,0,.73-.25.73-.61h0c0-.42-.28-.63-.75-.63h-.94v1.24h.96Z"/>
        <path class="cls-6" d="M43.94,71.03h.95v4.31h-.95v-4.31Z"/>
        <path class="cls-6" d="M46.9,74.72l.56-.67c.39.32.79.52,1.29.52.39,0,.62-.15.62-.41h0c0-.25-.15-.38-.87-.56-.87-.22-1.43-.46-1.43-1.32h0c0-.79.63-1.31,1.51-1.31.63,0,1.16.2,1.6.55l-.49.71c-.38-.26-.76-.42-1.12-.42s-.55.17-.55.38h0c0,.3.18.39.93.58.87.23,1.37.54,1.37,1.29h0c0,.87-.65,1.35-1.58,1.35-.65,0-1.31-.23-1.83-.69Z"/>
        <path class="cls-6" d="M52.37,71.03h3.25v.84h-2.31v.87h2.03v.84h-2.03v.91h2.34v.84h-3.28v-4.31Z"/>
        <path class="cls-6" d="M60.82,71.03h.95v3.45h2.15v.86h-3.1v-4.31Z"/>
        <path class="cls-6" d="M67.34,71h.87l1.85,4.34h-.99l-.39-.97h-1.82l-.39.97h-.97l1.85-4.34ZM68.34,73.54l-.57-1.4-.57,1.4h1.15Z"/>
        <path class="cls-6" d="M71.96,71.03h2c.49,0,.88.14,1.13.38.2.2.3.44.3.73h0c0,.5-.26.77-.57.94.5.19.81.48.81,1.06h0c0,.8-.64,1.2-1.61,1.2h-2.05v-4.31ZM74.45,72.31c0-.28-.22-.44-.62-.44h-.94v.91h.87c.42,0,.68-.14.68-.46h0ZM73.98,73.57h-1.1v.95h1.13c.42,0,.67-.15.67-.47h0c0-.3-.22-.48-.7-.48Z"/>
      </g>
      <g>
        <g>
          <path class="cls-6" d="M1.87,65.6c.02-.36.7-.25,1.12-.49.43-.26.7-.93,1.06-4.77.21-2.25.17-3.14.15-3.92h-1.42c-.78,0-1.38.11-1.68.64-.51.91-.42,1.27-.98,1.27h-.11l.45-2.78.21-.02c.59.17,1.19.23,1.97.23h5.22c.66,0,1.17-.06,1.82-.23l.21.02-.45,2.78h-.17c-.51,0-.25-.85-.42-1.27-.21-.51-.7-.64-1.49-.64h-1.48c-.21.72-.42,1.87-.61,3.92-.36,3.84-.21,4.5.19,4.77.38.25,1.06.13,1.04.49l-.02.19H1.85l.02-.19Z"/>
          <path class="cls-6" d="M10.33,66.01c-.3,0-.59-.11-.59-.44,0-.28.21-.7.34-.93.26.15.53.21.78.21.95,0,1.87-1.36,1.87-3.22,0-.78-.21-1.1-.64-1.1-.87,0-2.31,1.95-3.16,3.54-.13.47-.25.93-.34,1.32-.09.4-.72.61-1.12.61-.23,0-.38-.06-.32-.21.79-1.95,1.34-3.63,1.7-4.73.62-1.95,1.44-4.58,1.44-5.77,0-.44-.11-.72-.59-.72-.26,0-.49.08-.49-.21v-.21l2.76-.36c.25-.04.42.06.34.21-.72,1.68-1.55,4.33-2.12,6.05-.15.47-.42,1.25-.68,2.12h.04c1.25-1.91,2.4-2.88,3.33-2.88s1.02.85,1.02,1.38c0,2.02-1.8,5.32-3.58,5.32Z"/>
          <path class="cls-6" d="M13.47,64.1c0-2.29,1.46-4.79,3.59-4.79.72,0,1.4.25,1.4,1,0,1.02-1.57,1.87-3.73,2.25-.06.3-.08.62-.08.95,0,.81.23,1.46,1.02,1.46.51,0,1.13-.26,1.76-.93.15.08.32.26.13.51-.76.98-1.7,1.46-2.61,1.46-1.08,0-1.49-.87-1.49-1.91ZM17.16,60.55c0-.32-.19-.57-.61-.57-.76,0-1.38.85-1.68,1.97,1.61-.32,2.29-.79,2.29-1.4Z"/>
        </g>
        <g>
          <path class="cls-6" d="M29.12,60.62c0,3.13-1.77,5.19-5.71,5.19h-4.03v-10.08h4.02c3.61,0,5.73,1.63,5.73,4.89ZM26.27,60.77c0-1.54-.86-2.8-2.87-2.8h-1.22v5.58h1.25c1.96,0,2.84-.98,2.84-2.78Z"/>
          <path class="cls-5" d="M39.51,55.73h2.8v7.82h3.48v2.26h-6.28v-10.08Z"/>
          <path class="cls-6" d="M45.34,60.68c0-3.45,1.99-5.15,5.15-5.15s5.19,1.74,5.19,5.09-2.06,5.39-5.24,5.39-5.1-1.82-5.1-5.33ZM52.8,60.66c0-1.94-.82-2.84-2.29-2.84s-2.29.9-2.29,2.86.87,3.02,2.28,3.02,2.31-1.05,2.31-3.04Z"/>
          <path class="cls-6" d="M54.76,55.73h2.86l2.32,5.18,2.26-5.18h2.87l-4.78,10.28h-.73l-4.8-10.28Z"/>
          <path class="cls-6" d="M74.03,55.73h3.42c3.39,0,4.77,1.28,4.77,3.56,0,1.86-.93,2.95-2.43,3.42.73.52,1.79.89,3.01.92l-.15,2.37c-3.87-.03-4.97-1.54-5.59-2.99h-.23v2.81h-2.8v-10.08ZM77.41,60.82c1.35,0,1.94-.35,1.94-1.39,0-.9-.46-1.44-1.79-1.44h-.73v2.83h.58Z"/>
          <path class="cls-6" d="M85,61.63l-3.65-5.9h3.12l2.02,3.35,2.09-3.35h2.86l-3.65,5.9v4.19h-2.78v-4.19Z"/>
          <path d="M38.08,57.36c-.83-1.05-2.17-1.63-3.79-1.63-3.19,0-5.17,2-5.17,5.21s1.97,5.05,5.56,5.05c2,0,3.24-.55,3.95-1.03l-.61-2.09c-.79.4-1.51.56-2.45.56-1.04,0-2.3-.18-2.73-1.59l-.07-.23h6.06c.37-1.66.1-3.17-.75-4.25ZM36.11,59.77h-3.42l.03-.2c.17-1.13.75-1.7,1.71-1.7,1.01,0,1.68.7,1.68,1.73v.18Z"/>
          <path d="M72.62,57.36c-.83-1.05-2.17-1.63-3.79-1.63-3.19,0-5.17,2-5.17,5.21s1.97,5.05,5.56,5.05c2,0,3.24-.55,3.95-1.03l-.61-2.09c-.79.4-1.51.56-2.45.56-1.04,0-2.3-.18-2.73-1.59l-.07-.23h6.06c.37-1.66.1-3.17-.75-4.25ZM70.65,59.77h-3.42l.03-.2c.17-1.13.75-1.7,1.71-1.7,1.01,0,1.68.7,1.68,1.73v.18Z"/>
        </g>
      </g>
    </g>
  </g>
</svg>