<?xml version="1.0" encoding="UTF-8"?>
<svg id="Capa_2" data-name="Capa 2" xmlns="http://www.w3.org/2000/svg" xmlns:xlink="http://www.w3.org/1999/xlink" viewBox="0 0 244.86 250">
  <defs>
    <style>
      .cls-1 {
        fill: url(#Degradado_sin_nombre_5);
      }

      .cls-2 {
        fill: #353a59;
      }

      .cls-3 {
        fill: #8e9aae;
      }

      .cls-4, .cls-5 {
        fill: #fff;
      }

      .cls-6 {
        fill: #2b2d43;
      }

      .cls-7 {
        fill: #e87782;
      }

      .cls-8 {
        fill: url(#Degradado_sin_nombre_9);
      }

      .cls-9 {
        fill: url(#Degradado_sin_nombre_10);
      }

      .cls-5 {
        font-family: PlusJakartaSans-SemiBold, 'Plus Jakarta Sans';
        font-size: 36px;
        font-weight: 600;
        letter-spacing: .05em;
      }

      .cls-10 {
        fill: url(#Degradado_sin_nombre_5-2);
      }
    </style>
    <linearGradient id="Degradado_sin_nombre_10" data-name="Degradado sin nombre 10" x1="76.23" y1="154.16" x2="35.65" y2="39.66" gradientTransform="translate(0 252) scale(1 -1)" gradientUnits="userSpaceOnUse">
      <stop offset="0" stop-color="#353a59"/>
      <stop offset="1" stop-color="#8e9aae"/>
    </linearGradient>
    <linearGradient id="Degradado_sin_nombre_9" data-name="Degradado sin nombre 9" x1="145.45" y1="62.45" x2="75.77" y2="25.87" gradientTransform="translate(0 252) scale(1 -1)" gradientUnits="userSpaceOnUse">
      <stop offset="0" stop-color="#e87782"/>
      <stop offset="1" stop-color="#fff"/>
    </linearGradient>
    <linearGradient id="Degradado_sin_nombre_5" data-name="Degradado sin nombre 5" x1="173.15" y1="190.08" x2="203.13" y2="199.41" gradientTransform="translate(0 252) scale(1 -1)" gradientUnits="userSpaceOnUse">
      <stop offset="0" stop-color="#2b2d43"/>
      <stop offset="1" stop-color="#353a59"/>
    </linearGradient>
    <linearGradient id="Degradado_sin_nombre_5-2" data-name="Degradado sin nombre 5" x1="124.02" y1="155.92" x2="104.02" y2="161.97" xlink:href="#Degradado_sin_nombre_5"/>
  </defs>
  <g id="ICONS">
    <g>
      <g>
        <path class="cls-2" d="M83.5,15.76c8.13-8.87,9.75-4.31,16.87-8.76,10.06-6.29,8.92-11.3,23.3-1.4,6.75-.45,19.6-.27,20.05,8.6.39,7.72-4.67,11.46-5.88,19.21l-.55.6c-1.27,1.37-2.92,3.14-4.51,4.13-4.74,2.94-13.95,3.16-12.25,11.04,3.37.53,6.46-2.57,10.23-4.12,2.99.64,7.96,1.57,10.71,2.41,4.94-5.07,12.13-4.11,17.64-.63l.88-.49c-.89-4.08,4.13-14.63,6.69-17.79,1.92-2.32,4.92-6.61,8.09-6.45,7.97.4,21.09,6.27,24.67,13.55.93,3.55,2.26,8.9,3.9,12.13,3.9,19.11-5.62,15.22-19.14,15.32,2.34,5.19,4.5,8.81,5.35,14.5l.88.88c7.02-1.63,23.43-4.62,29.96-1.23,3.12,4.05-3.13,12.83-6.24,14.85-1.51,1.84-3.02,3.43-3.97,5.62.83,2.41,1.47,3.44.9,5.91-1.43,2.38-2.31,2.67-4.91,3.32-1.65.42-3.32.79-5,1.1-5.16,6.38,4.17,13.86-1.19,21.25-3.42,4.73-10.25,4.9-15.43,4.64-7.71,7.35-15.15,10.57-24.55,3.77-11.29,17.44,21.42,52.57,15.6,82.32l-.75-.2c-1.4,3.94-2.14,5.78-4.3,9.43l-1.72,1.43-1.18-.59c-1.17-2-1.78-3.53-3.72-4.75-2.38.13-1.78.26-4.06,2.27-3.6,3.69-5.52,4.85-9.85,7.74,4.15-.1,2.46-.47,6.28,1.85,1.96,4.1-1.38,6.28-4.17,9.17-8.95,3.44-46.36,4.49-56.31,2.86-11.34-.86-28.59-7.56-33.14-18.96-8.35-11.78-4.32-40.87.73-53.3,7.72-18.96,8.37-18.98,7.4-39.94l-3.29-3.62c-6.16.08-12.29.27-18.35-.99-3.34-.69-6.5-2.04-9.87-2.6-18.2-2.58-4.88-12.46,1.54-19.73-8.75.19-15.33-3.49-22.9-7.34-9.27-2.31-22.65-6.87-16.33-18.88-4.22-8.92,8.9-12.53,15.38-13.33,6.88-1.91,11.32-2.93,18.36-2.18l2.05-2.56c.13-2.97-1.35-4.04-3.36-6.77-3.36-3.83-3.43-4.31-3.32-9.44-.06-3.85.33-6.22,1.51-9.83-.46-.4-.92-.81-1.38-1.23-10.32-9.43,6.33-14.41,14.73-13.45,3.55,1.61,2.48,1.33,6.46.35,7.46-1.83,10.92-2.71,17.78,1.25,1.09,3.7,2.17,9.29,4.59,11.83,3.39.94,6.87-1.09,8.47-4.09.18-2.2-1.01-3.59-2.16-5.58-.26-3.1,2.44-6.82,2.74-13.12Z"/>
        <path class="cls-2" d="M83.5,15.76c8.13-8.87,9.75-4.31,16.87-8.76,10.06-6.29,8.92-11.3,23.3-1.4,6.75-.45,19.6-.27,20.05,8.6.39,7.72-4.67,11.46-5.88,19.21l-.55.6c-1.27,1.37-2.92,3.14-4.51,4.13-4.74,2.94-13.95,3.16-12.25,11.04,3.37.53,6.46-2.57,10.23-4.12,2.99.64,7.96,1.57,10.71,2.41l.89.53c1.11-.63,2.01-1.14,3.17-1.69,2.03,1.33,1.31.46,2.18,2.76-.31,2.07.21,1.47-.99,2.4l.42.15c-.84.58-3.94,2.76-4.68,2.79-9.82.41-13.71-4.09-16.98,9.11-.74,1.8-1.51,3.37-1.85,5.29l1.91,1.66-1.78,1.62c-3.52-.64-3.39-1.09-4.58-3.93-2.82-3.82-4.82-8.44-9.77-6.35,4.43,5.27,1.59,6.64-1.05,12.49,1.78,3.84,3.95,7.56,1.1,11.49,1.15,3.27,1.31,3.79,1.42,7.24.51,4.73.62,6.22.28,10.97l-.57,2c-1.63,2.02-1.44,2.15-1.64,4.68l.13,2.09c-.88,2.87-.71,4.19-2.76,5.71l-1.96-.87-.95,1.41c.7,3.03,1.44,6.1,2.1,9.14l-5.19-5.03c-1.35,3.7-1.25,4.41-4.7,6.12l1.65,1.93-.28,1.57c-2.7.6-2.69.14-4.39,1.72-1.19,1.04-2.06,1.7-3.09,2.91-2.99-1.24-4.49-1.75-7.67-1.95.94,7.6,1.44,10.59.26,18.17-.67,2.4-1.39,4.69-1.45,7.18.61,1.55.64.82.36,2.25l-.69.92c-4.41,10.5-8.93,23.54-11.67,34.58-.34,4.79-.5,8.59-.5,13.38-1.41,2,.43,7.57,1.06,10.05l-.7.76-.61-.89c-2.63.16-2.86.09-5.17,1.22l-.8,1.27c.62,1.72,1.19,3.16,1.89,4.85l-.53,1.02-.59.1c-8.35-11.78-4.32-40.87.73-53.3,7.72-18.96,8.37-18.98,7.4-39.94l-3.29-3.62c-6.16.08-12.29.27-18.35-.99-3.34-.69-6.5-2.04-9.87-2.6-18.2-2.58-4.88-12.46,1.54-19.73-8.75.19-15.33-3.49-22.9-7.34-9.27-2.31-22.65-6.87-16.33-18.88-4.22-8.92,8.9-12.53,15.38-13.33,6.88-1.91,11.32-2.93,18.36-2.18l2.05-2.56c.13-2.97-1.35-4.04-3.36-6.77-3.36-3.83-3.43-4.31-3.32-9.44-.06-3.85.33-6.22,1.51-9.83-.46-.4-.92-.81-1.38-1.23-10.32-9.43,6.33-14.41,14.73-13.45,3.55,1.61,2.48,1.33,6.46.35,7.46-1.83,10.92-2.71,17.78,1.25,1.09,3.7,2.17,9.29,4.59,11.83,3.39.94,6.87-1.09,8.47-4.09.18-2.2-1.01-3.59-2.16-5.58-.26-3.1,2.44-6.82,2.74-13.12Z"/>
        <path class="cls-9" d="M63.04,97.85c1.48.32,2.25.57,3.78.61,2.52.84,5.03,1.71,7.53,2.63,2.02-1.25,3.86-2.73,6.18-2.8.64.45,1.69,1.05,2.05,1.61-1.13,3.13,4.16,9.83,6.51,11.93,4.97,4,7.04,6.52,11.23,11.3-1.35,3.7-1.25,4.41-4.7,6.12l1.65,1.93-.28,1.57c-2.7.6-2.69.14-4.39,1.72-1.19,1.04-2.06,1.7-3.09,2.91-2.99-1.24-4.49-1.75-7.67-1.95.94,7.6,1.44,10.59.26,18.17-.67,2.4-1.39,4.69-1.45,7.18.61,1.55.64.82.36,2.25l-.69.92c-4.41,10.5-8.93,23.54-11.67,34.58-.34,4.79-.5,8.59-.5,13.38-1.41,2,.43,7.57,1.06,10.05l-.7.76-.61-.89c-2.63.16-2.86.09-5.17,1.22l-.8,1.27c.62,1.72,1.19,3.16,1.89,4.85l-.53,1.02-.59.1c-8.35-11.78-4.32-40.87.73-53.3,7.72-18.96,8.37-18.98,7.4-39.94l-3.29-3.62c-6.16.08-12.29.27-18.35-.99-3.34-.69-6.5-2.04-9.87-2.6-18.2-2.58-4.88-12.46,1.54-19.73l.95-3.44c-.58-1.43-1.73-2.02-2.99-2.92,1.77-.38,3.26-.64,5.05-.93l8.91-3.49.26-.85.92.13c.22,1.83.2,2.18.09,4.04,1.42,1.68.53,1.2,2.78,1.42.55-.33,1.91-1.2,2.45-1.41-.93-1.34-.99-1.24-1.21-2.83,3.23-.28,2.07-.02,4.95-1.99Z"/>
        <path class="cls-4" d="M53.05,98.48l.92.13c.22,1.83.2,2.18.09,4.04,1.42,1.68.53,1.2,2.78,1.42.55-.33,1.91-1.2,2.45-1.41l.76.35c1.99,1.22,2.33,1.91,1.91,4.44l6.51,2.66c5.01,1.18,7.2,1.85,11.87,4.49-9.08,6.43-14.77,11.87-26.61,10.69-2.21-.22-8.55-1.18-10.16-1.15l-.57.7c-2.58-.14-3.2-.2-5.61.67l-.47.91c.89,2.59.2,1.44,2.39,3.42-18.2-2.58-4.88-12.46,1.54-19.73l.95-3.44c-.58-1.43-1.73-2.02-2.99-2.92,1.77-.38,3.26-.64,5.05-.93l8.91-3.49.26-.85Z"/>
        <path class="cls-2" d="M53.05,98.48l.92.13c.22,1.83.2,2.18.09,4.04,1.42,1.68.53,1.2,2.78,1.42.55-.33,1.91-1.2,2.45-1.41l.76.35c1.99,1.22,2.33,1.91,1.91,4.44-4.87.67-8.15,2.94-11.02,6.97l-.86.25c-3.42,2.36-5.65,3.53-7.53,7.16.19,1.79-.1,1.02,1.04,2.3l-.57.7c-2.58-.14-3.2-.2-5.61.67l-.47.91c.89,2.59.2,1.44,2.39,3.42-18.2-2.58-4.88-12.46,1.54-19.73l.95-3.44c-.58-1.43-1.73-2.02-2.99-2.92,1.77-.38,3.26-.64,5.05-.93l8.91-3.49.26-.85Z"/>
        <path class="cls-2" d="M43.89,102.82l8.91-3.49c-.15,3.47.44,4.13-2.95,5.97-3.66-.71-5.19,1.36-8.02,1.36-.58-1.43-1.73-2.02-2.99-2.92,1.77-.38,3.26-.64,5.05-.93Z"/>
        <path class="cls-2" d="M53.05,98.48l.92.13c.22,1.83.2,2.18.09,4.04,1.42,1.68.53,1.2,2.78,1.42.55-.33,1.91-1.2,2.45-1.41l.76.35c-2.65,2.61-5.85,4.77-9.73,3.78-.59-1.1-.52-.58-.48-1.48,3.39-1.85,2.8-2.5,2.95-5.97l.26-.85Z"/>
        <path class="cls-2" d="M50.08,114.67l.86-.25c2.87-4.03,6.15-6.3,11.02-6.97l6.51,2.66c.42,2.65-.18,5-2.06,6.88-6.42,6.43-12.1,2.94-16.34-2.31Z"/>
        <path class="cls-6" d="M75.53,133.61c2.65-.92,2.99-.82,5.86-.78l.94.7-.49,1.89c.94,7.6,1.44,10.59.26,18.17-.67,2.4-1.39,4.69-1.45,7.18.61,1.55.64.82.36,2.25l-.69.92c-.22-2.38-.43-2.5-1.44-4.59l.41-4.22c0,.1-.13-2.02-.13-1.88.22-9.4-4.94-9.68-3.63-19.64Z"/>
        <path class="cls-2" d="M75.53,133.61c.35,6.89,7.72,4.98,3.76,21.51,0,.1-.13-2.02-.13-1.88.22-9.4-4.94-9.68-3.63-19.64Z"/>
        <path class="cls-6" d="M78.88,159.35c1.01,2.1,1.22,2.22,1.44,4.59-4.41,10.5-8.93,23.54-11.67,34.58-.52-.08-.16.02-.86-.72,2.47-17.03,4.41-22.39,11.09-38.46Z"/>
        <path class="cls-2" d="M94.41,129.74l1.2-.5,1.65,1.93-.28,1.57c-2.7.6-2.69.14-4.39,1.72-1.19,1.04-2.06,1.7-3.09,2.91-2.99-1.24-4.49-1.75-7.67-1.95l.49-1.89c7.56-.93,6.61-2.19,12.08-3.79Z"/>
        <path class="cls-2" d="M85.86,126.59l3.66.71c1.37.68,3.63,1.72,4.88,2.44-5.48,1.6-4.52,2.86-12.08,3.79l-.94-.7c2.57-1.44,3.47-.56,6.22-1.41,1.12-1.9.89-.91.74-3.08l-1.98-.82-.51-.93Z"/>
        <path class="cls-7" d="M85.86,126.59c-1.91-.88-3.3-1.11-4.27-2.57,2.85-1.68,6.32-.47,8.2,2.14l-.26,1.14-3.66-.71Z"/>
        <path class="cls-4" d="M85.42,53.21c4,1.14,7.88,4,11.44,6.29l6.76-1.7c1.88,1.35,3.84,2.81,5.8,4.01,4.43,5.27,1.59,6.64-1.05,12.49,1.78,3.84,3.95,7.56,1.1,11.49,1.15,3.27,1.31,3.79,1.42,7.24.51,4.73.62,6.22.28,10.97l-.57,2c-1.63,2.02-1.44,2.15-1.64,4.68l.13,2.09c-.88,2.87-.71,4.19-2.76,5.71l-1.96-.87-.95,1.41c.7,3.03,1.44,6.1,2.1,9.14l-5.19-5.03c-4.19-4.79-6.26-7.3-11.23-11.3-2.35-2.1-7.64-8.8-6.51-11.93-.36-.56-1.41-1.16-2.05-1.61-2.31.07-4.15,1.55-6.18,2.8-2.5-.92-5.01-1.79-7.53-2.63-1.53-.04-2.3-.29-3.78-.61-1.27-7.55,2.84-7.37,1.59-14.64l-.91-.55-.46-.49c-10.09-10.47,4.55-12.2,10.29-15.15,8.05-4.13.55-9.15,11.87-13.81Z"/>
        <path class="cls-2" d="M102.33,89.47l7.14-3.69c1.15,3.27,1.31,3.79,1.42,7.24.51,4.73.62,6.22.28,10.97l-.57,2c-1.63,2.02-1.44,2.15-1.64,4.68l.13,2.09c-.88,2.87-.71,4.19-2.76,5.71l-1.96-.87-.95,1.41c.7,3.03,1.44,6.1,2.1,9.14l-5.19-5.03c-4.19-4.79-6.26-7.3-11.23-11.3-2.35-2.1-7.64-8.8-6.51-11.93,2.71,1.94,8.52,4.82,11.47,2.77,5.98-4.14,1.83-9.31,8.28-13.19Z"/>
        <path class="cls-2" d="M102.33,89.47l7.14-3.69c1.15,3.27,1.31,3.79,1.42,7.24.51,4.73.62,6.22.28,10.97l-.57,2c-1.63,2.02-1.44,2.15-1.64,4.68-1.33,2.05-1.62,2.6-3.88,2.3-2.12-2.14-3.87-7.3-5.22-10.4.67-4,2.6-9.71,2.48-13.11Z"/>
        <path class="cls-7" d="M110.59,106c-2.01-3.15-2.62-9.99.29-12.97.51,4.73.62,6.22.28,10.97l-.57,2Z"/>
        <path class="cls-4" d="M89.08,111.82c2.8-.84,7.86-2.86,10.24-2.39,2.22,1.76,3.14,6.55,4.08,9.59.7,3.03,1.44,6.1,2.1,9.14l-5.19-5.03c-4.19-4.79-6.26-7.3-11.23-11.3Z"/>
        <path class="cls-2" d="M64.63,83.21c2.51,1.98,2.15,1.09,2.71,3.63-1.09,3.35-2.72,5.71-2.49,8.75.76,1.25,1.04,1.76,1.97,2.87-1.53-.04-2.3-.29-3.78-.61-1.27-7.55,2.84-7.37,1.59-14.64Z"/>
        <path class="cls-2" d="M87.87,73.17c11.2.3,5.03,8.05-.7,11.55-3.47-.1-5.48-.69-5.99-4.34,1.5-4.24,2.75-4.84,6.69-7.21Z"/>
        <path class="cls-7" d="M17.02,70.56c6.88-1.91,11.32-2.93,18.36-2.18,5.58,1.65,14.68,6.99,16.11,7.27l1.82.52c.95,1.94,1.89,7.73,1.31,9.69l-.81,1.93c-2.06.16-1.23.2-3.32-.81-4.11.35-8.14-4.16-14.32-3.04-4.21,5.33,12.43,13.39,16.89,14.54l-.26.85-8.91,3.49c-1.79.29-3.28.55-5.05.93,1.26.9,2.41,1.48,2.99,2.92l-.95,3.44c-8.75.19-15.33-3.49-22.9-7.34-9.27-2.31-22.65-6.87-16.33-18.88-4.22-8.92,8.9-12.53,15.38-13.33Z"/>
        <path class="cls-2" d="M17.02,70.56c6.88-1.91,11.32-2.93,18.36-2.18,5.58,1.65,14.68,6.99,16.11,7.27l1.82.52c.95,1.94,1.89,7.73,1.31,9.69l-.81,1.93c-2.06.16-1.23.2-3.32-.81l-6.14-5.09c-5.6-3.41-6.88-4.28-13.58-5.09-9.76,1.06-10.85,0-20.45,4.19l-.87.03c-2.08,4.73-2.51,2.95-6.82,3.4l-.97-.53c-4.22-8.92,8.9-12.53,15.38-13.33Z"/>
        <path class="cls-3" d="M1.64,83.89c-4.22-8.92,8.9-12.53,15.38-13.33l.64.12c3.8.7,7.08.06,9.67,1.34l.21,1.08c-1.57,1.2-2.39,1.78-4.07,2.82,2.71,1.3,4.84,0,7.29.86-9.76,1.06-10.85,0-20.45,4.19l-.87.03c-2.08,4.73-2.51,2.95-6.82,3.4l-.97-.53Z"/>
        <path class="cls-2" d="M44.34,81.88c3.85-1.1,6.94,1.84,10.27,3.98l-.81,1.93c-2.06.16-1.23.2-3.32-.81l-6.14-5.09Z"/>
        <path class="cls-2" d="M2.61,84.41c4.32-.45,4.75,1.33,6.82-3.4l.87-.03c7.01,13.16,18.81,20.69,33.58,21.84-1.79.29-3.28.55-5.05.93,1.26.9,2.41,1.48,2.99,2.92l-.95,3.44c-8.75.19-15.33-3.49-22.9-7.34-9.27-2.31-22.65-6.87-16.33-18.88l.97.53Z"/>
        <path class="cls-7" d="M1.64,83.89l.97.53c6.11,10.28,9.9,11.17,15.36,18.35-9.27-2.31-22.65-6.87-16.33-18.88Z"/>
        <path class="cls-2" d="M30.76,49.62c2.56-4.37,3.56-3.32,8.56-3.35-1.3,2.71-1.41,1.97-1.25,4.63,4.3,3.17,12.38-1.49,17.18-2.44,4.75,2.83,5.5,1.2,9.69,1.73,1.74,3.22,2.2,3.6,4.94,6.06-3.16,2.7-3.28,2.78-6.98,4.34l-1.17,1.53c-4.14,1.6-5.4,2.52-9.1,4.93-.87,3.64-1.24,4.8-1.14,8.6-1.43-.28-10.53-5.62-16.11-7.27l2.05-2.56c.13-2.97-1.35-4.04-3.36-6.77-3.36-3.83-3.43-4.31-3.32-9.44Z"/>
        <path class="cls-7" d="M34.08,59.06c3.62.62,7.34.97,10.98.37,2.28,2.35,5.17,5.51,7.57,7.62-.87,3.64-1.24,4.8-1.14,8.6-1.43-.28-10.53-5.62-16.11-7.27l2.05-2.56c.13-2.97-1.35-4.04-3.36-6.77Z"/>
        <path class="cls-4" d="M57.5,55.41c2.3,1.87,3.37,2.99,5.4,5.18l-1.17,1.53c-4.14,1.6-5.4,2.52-9.1,4.93-2.4-2.11-5.29-5.27-7.57-7.62,4.39-1.59,7.95-2.73,12.44-4.01Z"/>
        <path class="cls-7" d="M43.45,33.93c6.93.09,15.56-5.08,19.85-1.03,3.44,6.54-2.62,12.69-8.06,15.55-4.79.95-12.88,5.61-17.18,2.44-.15-2.66-.05-1.92,1.25-4.63.09-5.24,1.69-7.86,4.12-12.33Z"/>
        <path class="cls-2" d="M59.56,34.23l1.54.43c1.52,1.63,1.12.69,1.21,2.93-1.62,3.63-3.48,5.17-6.93,7.05-2.22-1.5-2.39-1.24-2.73-3.64,1.13-3.36,3.96-4.85,6.9-6.78Z"/>
        <path class="cls-7" d="M32.27,39.79c-.46-.4-.92-.81-1.38-1.23-10.32-9.43,6.33-14.41,14.73-13.45l-.88.64c-8.3,5.96-8.51,3.3-12.48,14.04Z"/>
        <path class="cls-2" d="M62.41,68.74l4.9-1.35c13.89-3.72,7.08-17.14,18.55-14.89l-.45.71c-11.32,4.66-3.82,9.68-11.87,13.81-5.74,2.95-20.38,4.67-10.29,15.15l.46.49c-9.55.59-4.21-9.98-1.3-13.92Z"/>
        <path class="cls-2" d="M71.63,52.64c1.54-.7,2.44-1.15,4.06-1.7-.07,3.48-4.22,8.05-6.26,10.84-1.83,2.5-5.45,1.43-7.7.34l1.17-1.53c3.7-1.56,3.82-1.64,6.98-4.34.7-1.25,1.16-2.31,1.76-3.61Z"/>
        <path class="cls-4" d="M64.93,50.18c2.82-2.05,5.85-4.41,8.86-6.09l-2.16,8.55c-.6,1.3-1.06,2.35-1.76,3.61-2.74-2.46-3.21-2.85-4.94-6.06Z"/>
        <path class="cls-2" d="M119.19,68.15c-.19-2.03-.59-3.94.03-5.83,2.25,1.8,1.8,5.52,4.42,6.48l1.91,1.66-1.78,1.62c-3.52-.64-3.39-1.09-4.58-3.93Z"/>
        <path class="cls-7" d="M104.56,14.12c5.47-6.63,7.12-9.68,14.27-2.51,5.44,4.7,13.89-1.23,17.52,5.13-.4,3.7-3.45,5.52-6.18,7.66-.83,3.44-1.38,6.23-2.76,9.52-6.59,1.31-17.89,2.64-24.4,1.16-9.43-7.65-20.59-18.62.4-20.14l1.14-.82Z"/>
        <path class="cls-4" d="M106.49,23.8l-1.44-.18-.72-1.09c1.27-6.03,11.76-7.3,14.93-2.67.11,1.96.32,2.08-.54,3.77-3.6,3-8.37,2.31-12.23.16Z"/>
        <path class="cls-2" d="M106.49,23.8c4.21-3.41,7.85-4.08,12.23-.16-3.6,3-8.37,2.31-12.23.16Z"/>
        <path class="cls-4" d="M86.51,41.84c4.2-.07,11.53-.85,14.82,1.59,1.57,1.17,1.58,3.79,1.81,5.73-6.33-.09-12.52-2.36-16.63-7.32Z"/>
        <path class="cls-8" d="M112.57,168.39c13.77-.63,22.08-1.62,35.29-5.65,1.6,3.12,4,8.11,5.89,10.88,5.78,11.55,8.43,17.28,10.43,30.09l-.1,1.01c-.02,2.62-.22,9.39.09,11.65,1.48,1.3,1.21,1.64,1.95,3.78-.34,3.59.16,5.59,2.26,8.46l2.19.66-1.72,1.43-1.18-.59c-1.17-2-1.78-3.53-3.72-4.75-2.38.13-1.78.26-4.06,2.27-3.6,3.69-5.52,4.85-9.85,7.74,4.15-.1,2.46-.47,6.28,1.85,1.96,4.1-1.38,6.28-4.17,9.17-8.95,3.44-46.36,4.49-56.31,2.86-11.34-.86-28.59-7.56-33.14-18.96l.59-.1.53-1.02c-.7-1.69-1.28-3.14-1.89-4.85l.8-1.27c2.31-1.14,2.53-1.07,5.17-1.22l.61.89.7-.76c-.63-2.48-2.47-8.05-1.06-10.05,0-4.79.17-8.6.5-13.38,2.74-11.04,7.26-24.08,11.67-34.58l.69-.92c3.68.72,9.03,1.89,12.69,2.33,3.37,1.05,14.76,2.41,18.88,3.04Z"/>
        <path class="cls-4" d="M112.57,168.39c13.77-.63,22.08-1.62,35.29-5.65,1.6,3.12,4,8.11,5.89,10.88,5.78,11.55,8.43,17.28,10.43,30.09l-.1,1.01c-.02,2.62-.22,9.39.09,11.65l-2.12.47c-9.15-9.17-35.34,1.57-43.95-1.34-3.8-1.21-4.77-2.24-7.66-4.83l-.92-.83c-1.92.08-5.7,3.26-8.31,4.7l-.9-.32-.7-1.85c1.06-2.07,2.24-5.36,3.13-7.6-4.42-5.56-4.58-2.1-8.54-5.05,6.31-6.4,16.2-5.14,19.26-14.94,1.03-1.52.45-2.36.17-4.78l.29-.85c-1.41-.35-2.12-.72-3.44-1.27,3.49-4.01,3.02-4.22,2.09-9.48Z"/>
        <path class="cls-2" d="M69.21,221.96c-.63-2.48-2.47-8.05-1.06-10.05.37,2.08.43,4.13,2.65,5.18,22.45,10.64,69.71,11.27,91.26-.25l2.12-.47c1.48,1.3,1.21,1.64,1.95,3.78-.34,3.59.16,5.59,2.26,8.46l2.19.66-1.72,1.43-1.18-.59c-1.17-2-1.78-3.53-3.72-4.75-2.38.13-1.78.26-4.06,2.27-3.6,3.69-5.52,4.85-9.85,7.74,4.15-.1,2.46-.47,6.28,1.85,1.96,4.1-1.38,6.28-4.17,9.17-8.95,3.44-46.36,4.49-56.31,2.86-11.34-.86-28.59-7.56-33.14-18.96l.59-.1.53-1.02c-.7-1.69-1.28-3.14-1.89-4.85l.8-1.27c2.31-1.14,2.53-1.07,5.17-1.22l.61.89.7-.76Z"/>
        <path class="cls-2" d="M62.71,230.29l.59-.1.53-1.02c-.7-1.69-1.28-3.14-1.89-4.85l.8-1.27c2.31-1.14,2.53-1.07,5.17-1.22l.61.89.7-.76c2.3,2.2,1.33,4.45,3.96,6.03l.86-.27c8.32,13.3,37.06,11.84,51.32,11.79,9.89-.95,16.21-2.96,24.7-4.13,4.15-.1,2.46-.47,6.28,1.85,1.96,4.1-1.38,6.28-4.17,9.17-8.95,3.44-46.36,4.49-56.31,2.86-11.34-.86-28.59-7.56-33.14-18.96Z"/>
        <path class="cls-2" d="M150.05,235.37c4.15-.1,2.46-.47,6.28,1.85,1.96,4.1-1.38,6.28-4.17,9.17-8.95,3.44-46.36,4.49-56.31,2.86,7.06-.86,18.87.69,24.42-.93.26-6.26-.69-6.83,5.08-8.82,9.89-.95,16.21-2.96,24.7-4.13Z"/>
        <path class="cls-4" d="M74.03,227.72c22.08,7.84,45.91,9.4,68.82,4.5,6.05-1.24,12.12-3.58,17.05-4.59-3.6,3.69-5.52,4.85-9.85,7.74-8.49,1.17-14.81,3.18-24.7,4.13-14.27.06-43,1.52-51.32-11.79Z"/>
        <path class="cls-4" d="M118.1,215.5l-.91,1.04c-2-.75-4.61-2.15-6.51-3.28-1.8-1.06.91-1.45-1.89-2.57-3.28,3.12-8.69,8.51-13.06,4.85-3.01-2.52-5.29-3.85-6.19-7.83.35-2.6,3.13-5.54,4.66-8,3.96,2.95,4.12-.51,8.54,5.05-.89,2.24-2.07,5.53-3.13,7.6l.7,1.85.9.32c2.61-1.44,6.39-4.62,8.31-4.7l.92.83c2.89,2.59,3.85,3.62,7.66,4.83Z"/>
        <path class="cls-4" d="M105.61,180.92c1.77-1.68,2.49-2.58,4.87-3.05,1.32.56,2.04.93,3.44,1.27l-.29.85c.27,2.41.86,3.25-.17,4.78l-.2-1.94-.76-.08-2.65,4.34c-5.25,2.55-8.37,2.75-13.21,4.93.92.77,4.09.38,5.66.35l.9.53.25-.17c-4.38,2.09-6.44,2.97-9.91-1.16-.42-2.08-.6-1.15.45-2.91,1.56.48,1.54.6,3.11.34,1.78-1.76,2.68-5.29,3.55-7.79,2.37-1.09.54.6,4.46.83l.49-1.13Z"/>
        <path class="cls-7" d="M105.61,180.92c1.77-1.68,2.49-2.58,4.87-3.05,1.32.56,2.04.93,3.44,1.27l-.29.85c-2.03,2.59-2.93,3.91-5.8,5.66l-1.07-.17c.35-1.7,0-.93,1.03-2.33l-2.18-2.24Z"/>
        <path class="cls-4" d="M105.61,180.92c1.77-1.68,2.49-2.58,4.87-3.05,1.32.56,2.04.93,3.44,1.27-4.13.61-3.66.37-6.13,4.01l-2.18-2.24Z"/>
        <path class="cls-7" d="M95.77,178.34c1.26.35.71.02,1.62,1.04-.32,3.1-1.63,5.61-2.85,8.51-3.17-4.17-1.96-6.09,1.23-9.55Z"/>
        <path class="cls-2" d="M111.17,104l.49-.43c1.95-1.77,2.17-1.99,3.63-4.13-.53,1.34-.79,1.74-.54,3.17,3.37,1.78,3.81,2.45,5.93,5.62v1.14s.72.54.72.54c-.31,5.21-.69,10.59-.84,15.79l.72.83.92-.14,1.28-2.59c1.86,2.96,5.04,4.55,7.57,7.22,2.65,2.8,6.53,5.64,10.41,3.22,3.37-.97,5.43-2,8.7-.98l.82.84-1.27-.53.86,1.7-1.24.85c-1.11-.43-.58-.32-1.59-.39-.51,6.98-1.66,11.97-1.9,19.4,1.62,2.84,1.6,4.42,2.05,7.61-13.21,4.04-21.52,5.03-35.29,5.65-4.12-.63-15.51-1.99-18.88-3.04-3.65-.44-9-1.61-12.69-2.33.28-1.44.25-.7-.36-2.25.06-2.5.78-4.79,1.45-7.18,1.18-7.58.68-10.57-.26-18.17,3.18.19,4.68.71,7.67,1.95,1.03-1.21,1.9-1.87,3.09-2.91,1.7-1.57,1.69-1.12,4.39-1.72l.28-1.57-1.65-1.93c3.45-1.71,3.35-2.42,4.7-6.12l5.19,5.03c-.66-3.03-1.4-6.11-2.1-9.14l.95-1.41,1.96.87c2.05-1.52,1.88-2.83,2.76-5.71l-.13-2.09c.2-2.53.01-2.66,1.64-4.68l.57-2Z"/>
        <path class="cls-6" d="M111.17,104l.49-.43c1.95-1.77,2.17-1.99,3.63-4.13-.53,1.34-.79,1.74-.54,3.17,3.37,1.78,3.81,2.45,5.93,5.62v1.14s.72.54.72.54c-.31,5.21-.69,10.59-.84,15.79l.72.83.92-.14,1.28-2.59c1.86,2.96,5.04,4.55,7.57,7.22,2.65,2.8,6.53,5.64,10.41,3.22,3.37-.97,5.43-2,8.7-.98l.82.84-1.27-.53.86,1.7-1.24.85c-1.11-.43-.58-.32-1.59-.39-10.14,3.72-24.73,6.35-35.57,6.07-7.92-.25-15.36-1.18-22.64-4.43,1.03-1.21,1.9-1.87,3.09-2.91,1.7-1.57,1.69-1.12,4.39-1.72l.28-1.57-1.65-1.93c3.45-1.71,3.35-2.42,4.7-6.12l5.19,5.03c-.66-3.03-1.4-6.11-2.1-9.14l.95-1.41,1.96.87c2.05-1.52,1.88-2.83,2.76-5.71l-.13-2.09c.2-2.53.01-2.66,1.64-4.68l.57-2Z"/>
        <path class="cls-6" d="M111.17,104l.49-.43c1.95-1.77,2.17-1.99,3.63-4.13-.53,1.34-.79,1.74-.54,3.17,3.37,1.78,3.81,2.45,5.93,5.62v1.14s.72.54.72.54c-.31,5.21-.69,10.59-.84,15.79.15,5.11-1.77,6.27-5.3,10.21-1.03-13.11-7.15-9.1-6.17-23.13l-.13-2.09c.2-2.53.01-2.66,1.64-4.68l.57-2Z"/>
        <path class="cls-6" d="M97.26,131.17c3.94-.13,13.48-1,16.23,1.22-.58,2.8-3.91,3.51-6.42,4.52-6.07-1.68-8.22-2.65-14.48-2.46,1.7-1.57,1.69-1.12,4.39-1.72l.28-1.57Z"/>
        <path class="cls-4" d="M147.71,135.72c-.51,6.98-1.66,11.97-1.9,19.4-13.29,2.58-21.43,4.37-35.08,4.19,1.55-6.31,2.72-11.08,1.41-17.52,10.84.29,25.43-2.35,35.57-6.07Z"/>
        <path class="cls-7" d="M81.84,135.42c3.18.19,4.68.71,7.67,1.95,7.27,3.24,14.72,4.17,22.64,4.43,1.31,6.44.14,11.21-1.41,17.52-5.13-.53-25.73-2.75-28.64-5.73,1.18-7.58.68-10.57-.26-18.17Z"/>
        <path class="cls-2" d="M80.65,160.77c4.61.96,6.8,1.36,11.16,2.95l2.29.81.19.47-.6.35c-3.65-.44-9-1.61-12.69-2.33.28-1.44.25-.7-.36-2.25Z"/>
        <path class="cls-7" d="M166.7,28.55c1.92-2.32,4.92-6.61,8.09-6.45,7.97.4,21.09,6.27,24.67,13.55.93,3.55,2.26,8.9,3.9,12.13,3.9,19.11-5.62,15.22-19.14,15.32-3.69-1.57-5.87-.71-8.83,1.8-.81,3.23-1.37,5.7-1.94,9.02-2.16.66-1.2.78-3.01.01l-.44-1.8c-.64,3.19.53,3.65-1.07,6.83-1.99,1.13-7.14-.05-9.4-.76-6.05-1.74-7.93-2.62-12.56,2.21l-.32-.05c-4.94-.74-8.62-2.48-13.24-4.36l-3.25-1.2-4.62-4.36-1.91-1.66c.35-1.92,1.11-3.49,1.85-5.29,3.27-13.2,7.16-8.7,16.98-9.11.74-.03,3.84-2.21,4.68-2.79l-.42-.15c1.2-.93.69-.33.99-2.4-.87-2.31-.15-1.43-2.18-2.76-1.16.55-2.05,1.06-3.17,1.69l-.89-.53c4.94-5.07,12.13-4.11,17.64-.63l.88-.49c-.89-4.08,4.13-14.63,6.69-17.79Z"/>
        <path class="cls-7" d="M166.7,28.55c1.92-2.32,4.92-6.61,8.09-6.45,7.97.4,21.09,6.27,24.67,13.55.93,3.55,2.26,8.9,3.9,12.13,3.9,19.11-5.62,15.22-19.14,15.32-3.69-1.57-5.87-.71-8.83,1.8l-1.87-.41c-1.17-2.35-.26-4.44.58-6.74,1.76-.84,3.41-2.9,4.86-4.42-3.11-2.03-4.47-3.08-7.29-5.45-3.22.93-3.7.52-7.08-.52-1.73.48-1.18.13-2.41,1.43-.94-1.27-1.06-1.33-2.18-2.45-.89-4.08,4.13-14.63,6.69-17.79Z"/>
        <path class="cls-2" d="M166.7,28.55c1.92-2.32,4.92-6.61,8.09-6.45,7.97.4,21.09,6.27,24.67,13.55-5.88-1.62-4.18-3.65-10.8-1.86-1.28,2.61-.34,1.76-2.52,3-3.67.07-3.07-.52-5.45,1.28-3.89-1.6-5.54-2.78-9.42-1.23-2.94,3.64-1.32,7.02.42,11.05-3.22.93-3.7.52-7.08-.52-1.73.48-1.18.13-2.41,1.43-.94-1.27-1.06-1.33-2.18-2.45-.89-4.08,4.13-14.63,6.69-17.79Z"/>
        <path class="cls-7" d="M166.7,28.55c1.92-2.32,4.92-6.61,8.09-6.45,7.97.4,21.09,6.27,24.67,13.55-5.88-1.62-4.18-3.65-10.8-1.86l-2.65-1.54c-3.37-2.24-4.26-2.43-8.26-3.37-3.48-.57-7.48-.36-11.05-.32Z"/>
        <path class="cls-2" d="M177.75,28.88c4,.94,4.89,1.13,8.26,3.37l-1.35,1.13c-3.76.32-6.37-.6-6.91-4.5Z"/>
        <path class="cls-1" d="M193.67,46.94l.69.92-.15.04,1.36.88c.02-.94.07-1.87.14-2.8l.92-.49c3.55,1.38,2.46,2.2,6.74,2.29,3.9,19.11-5.62,15.22-19.14,15.32-3.69-1.57-5.87-.71-8.83,1.8l-1.87-.41c-1.17-2.35-.26-4.44.58-6.74,1.76-.84,3.41-2.9,4.86-4.42,2.01,1.01,4.09,1.88,6.23,2.61,3.41,1.17,8.92,2.39,12.23.77,2.51-4.66-2.3-2.81-3.75-9.77Z"/>
        <path class="cls-2" d="M188.66,33.79c6.62-1.79,4.93.24,10.8,1.86.93,3.55,2.26,8.9,3.9,12.13-4.28-.09-3.18-.91-6.74-2.29l-.92.49c-.06.94-.11,1.86-.14,2.8l-1.36-.88.15-.04-.69-.92c.05-1.56.13-2.64-.19-4.11-1.1-5.1-6.35-1.76-9.7-2.63,0,0-2.78-1.92-3.09-2.13,2.38-1.8,1.78-1.21,5.45-1.28,2.18-1.24,1.24-.4,2.52-3Z"/>
        <path class="cls-2" d="M141.49,47.46c4.94-5.07,12.13-4.11,17.64-.63l.88-.49c1.12,1.12,1.24,1.19,2.18,2.45,1.23-1.29.69-.95,2.41-1.43,3.38,1.04,3.86,1.45,7.08.52,2.82,2.37,4.18,3.42,7.29,5.45-1.45,1.51-3.1,3.58-4.86,4.42-.84,2.3-1.75,4.39-.58,6.74l1.87.41c-.81,3.23-1.37,5.7-1.94,9.02-2.16.66-1.2.78-3.01.01l-.44-1.8c-.64,3.19.53,3.65-1.07,6.83-1.99,1.13-7.14-.05-9.4-.76,14.77-6.7-1.55-18.57-7.57-26.04l-4.83-.54-.42-.15c1.2-.93.69-.33.99-2.4-.87-2.31-.15-1.43-2.18-2.76-1.16.55-2.05,1.06-3.17,1.69l-.89-.53Z"/>
        <path class="cls-6" d="M141.49,47.46c4.94-5.07,12.13-4.11,17.64-.63,1.27,2.24,2.14,3.36,3.7,5.43-4.65.41-6.19.31-10.85-.1l-4.83-.54-.42-.15c1.2-.93.69-.33.99-2.4-.87-2.31-.15-1.43-2.18-2.76-1.16.55-2.05,1.06-3.17,1.69l-.89-.53Z"/>
        <path class="cls-2" d="M170.01,72.13c.24-3.21,1.88-7.12.92-9.85-.57-1.62-.52-.3-.07-2.33l.67.31c.43,1.49.83,2.94,1.06,4.47l.94-.22,1.87.41c-.81,3.23-1.37,5.7-1.94,9.02-2.16.66-1.2.78-3.01.01l-.44-1.8Z"/>
        <path class="cls-2" d="M160.01,46.34c1.12,1.12,1.24,1.19,2.18,2.45,2.08,3.02,2.48,3.73,5.43,5.79l-.79.68c-1.96-.21-2.2-1.17-4-3-1.56-2.07-2.43-3.19-3.7-5.43l.88-.49Z"/>
        <path class="cls-2" d="M125.49,63.51c5.03,4.13,6.59,4.38,4.68,11.3l-4.62-4.36-1.91-1.66c.35-1.92,1.11-3.49,1.85-5.29Z"/>
        <path class="cls-4" d="M144.52,58.63c6.23.61,10.49,5.21,5.43,11.06-9.41,2.11-10.38-5.22-5.43-11.06Z"/>
        <path class="cls-4" d="M162.83,88.4c2.55-1.37,5.72-3.75,8.16-5.46,8.26,6.02,5.21,9.78,9.96,14.05,3.1,2.78,11.6-1.52,10.42,9.05,1.82-.61,2.93-5.5,6.5-6.67,2.47.5,1.58.1,3.48,2.46-.02,1.94.02,4.32-.15,6.21-5.16,6.38,4.17,13.86-1.19,21.25-3.42,4.73-10.25,4.9-15.43,4.64-7.71,7.35-15.15,10.57-24.55,3.77.07-.41-.04-1.47-.06-1.94-1.5-1.59-2.49-2.85-3.85-4.58,1.27-.17,2.4-.27,3.68-.4-.86-1.38-.71-.86-2.73-1.75,2.45-.06,3.81.43,6.17.98-3.35-3.17-3.84-7.37-5.2-8.55-5.52-4.75-12.31-3.14-9.25-13.32.46-1.53-1.18-2.92-2.3-4.18l.11-1.41c5.66-5.68.2-10.03,4.07-15.23,3.82-1.35,8.35.05,12.17,1.05Z"/>
        <path class="cls-2" d="M191.37,106.04c1.82-.61,2.93-5.5,6.5-6.67,2.47.5,1.58.1,3.48,2.46-.02,1.94.02,4.32-.15,6.21-5.16,6.38,4.17,13.86-1.19,21.25-3.42,4.73-10.25,4.9-15.43,4.64-7.71,7.35-15.15,10.57-24.55,3.77.07-.41-.04-1.47-.06-1.94-1.5-1.59-2.49-2.85-3.85-4.58,1.27-.17,2.4-.27,3.68-.4-.86-1.38-.71-.86-2.73-1.75,2.45-.06,3.81.43,6.17.98,8.88,5.67,11.32,2.13,17.3-4.89,15.4,3.54,15.19-2.46,6.55-12.59,1.45-2.61,2.21-4.29,4.29-6.5Z"/>
        <path class="cls-2" d="M167.02,102.15c6.44.63,12.08,6.72,5.38,12.39-6.46-1.56-11.16-6.51-5.38-12.39Z"/>
        <path class="cls-10" d="M109.42,61.8c4.95-2.09,6.96,2.53,9.77,6.35,1.19,2.84,1.07,3.29,4.58,3.93l1.78-1.62,4.62,4.36,3.25,1.2c4.63,1.87,8.3,3.61,13.24,4.36l.32.05c-.43,1.78-2.79,5.97-3.98,7.12-.5-.75-.14-.37-1.29-.9l-2.23,1.89c-2.39,3.92-4.86,6.54-4.14,10.99.14.85-.13,1.02-.57,1.9-3,3.44-5.48,9.04-7.3,13.26-1.41,2.92-3.08,6.06-4.01,9.12l-1.28,2.59-.92.14-.72-.83c.15-5.2.54-10.58.84-15.79l-.73-.54v-1.14c-2.11-3.17-2.55-3.84-5.92-5.62-.25-1.43,0-1.83.54-3.17-1.46,2.14-1.67,2.36-3.63,4.13l-.49.43c.33-4.75.23-6.24-.28-10.97-.11-3.45-.26-3.97-1.42-7.24,2.86-3.93.69-7.65-1.1-11.49,2.64-5.85,5.47-7.22,1.05-12.49Z"/>
        <path class="cls-4" d="M124.98,99.61c1.58-3.77,7.67-13.88,11.65-14.31l1.44,1.38,1.42,1.85c-2.39,3.92-4.86,6.54-4.14,10.99.14.85-.13,1.02-.57,1.9-3,3.44-5.48,9.04-7.3,13.26-1.41,2.92-3.08,6.06-4.01,9.12l-1.28,2.59-.92.14-.72-.83c.15-5.2.54-10.58.84-15.79.1-.14,3.21-9.27,3.58-10.3Z"/>
        <path class="cls-2" d="M131.02,80.47c1.54-2.84.19-2.58,2.4-4.46,4.63,1.87,8.3,3.61,13.24,4.36l.32.05c-.43,1.78-2.79,5.97-3.98,7.12-.5-.75-.14-.37-1.29-.9l-2.23,1.89-1.42-1.85-1.44-1.38c-3.98.43-10.07,10.54-11.65,14.31-1.62-.6-1.16-.33-2.57-1.32-.99-4.8,3.75-7.85-.1-11.33,1.75-1.45,4.04-4.18,5.64-5.95,1.48-.6,1.39-.41,3.07-.53Z"/>
        <path class="cls-2" d="M131.02,80.47c1.54-2.84.19-2.58,2.4-4.46,4.63,1.87,8.3,3.61,13.24,4.36l.32.05c-.43,1.78-2.79,5.97-3.98,7.12-.5-.75-.14-.37-1.29-.9l-2.23,1.89-1.42-1.85c1.91-1.36,2.06-.57,4.76-2.13l.16-1.01c-2.71-2.67-7.64-3.47-11.25-2.25l-.72-.82Z"/>
        <path class="cls-2" d="M125.55,70.45l4.62,4.36,3.25,1.2c-2.21,1.89-.86,1.63-2.4,4.46-1.68.12-1.6-.07-3.07.53-1.84-1.88-3.77-3.65-5.7-5.45,1.71-1.54.99-.59,1.52-3.48l1.78-1.62Z"/>
        <path class="cls-7" d="M122.25,75.56c1.92,1.8,3.86,3.57,5.7,5.45-1.6,1.77-3.89,4.5-5.64,5.95-.11-3.8-.12-7.6-.06-11.4Z"/>
        <path class="cls-2" d="M127.48,114.67c1.81-4.22,4.3-9.82,7.3-13.26,2.21,3.88,1.75,5.57,3.27,9.04l1.72-1.68c2.24,3.21,5.91,10.94,6.49,14.72-2.16,2.96-2.29.09-4.54,3.6l.49.53c1.81-.24,3.37-.79,4.71-.15-.45,3.13-2.11,3.64-4.74,5.14l-.74,1.62c-3.88,2.42-7.76-.42-10.41-3.22-2.53-2.67-5.7-4.26-7.57-7.22.93-3.07,2.6-6.2,4.01-9.12Z"/>
        <path class="cls-2" d="M127.48,114.67c1.81-4.22,4.3-9.82,7.3-13.26,2.21,3.88,1.75,5.57,3.27,9.04l-.03.86c-1.94,2.69-6,10.93-6.58,14.05-1.33-.34-1.65-.21-3.03-.13-1.88-.96-1.14-.28-2.24-2.19.74-2.89,1.39-5.38,1.31-8.37Z"/>
        <path class="cls-4" d="M131.44,125.37c.58-3.12,4.63-11.36,6.58-14.05,1.14,4.69.83,4.98-1.65,9.37-.85,1.5-3.06,4.47-4.59,5.03l-.34-.35Z"/>
        <path class="cls-7" d="M175.4,64.9c2.96-2.51,5.14-3.37,8.83-1.8,2.34,5.19,4.5,8.81,5.35,14.5l.88.88c-.48,1.3-3.84,2.97-5.35,3.91-2.73-1.97-9.75-6.44-11.65-8.47.58-3.31,1.14-5.78,1.94-9.02Z"/>
        <path class="cls-6" d="M139.48,88.53l2.23-1.89c1.15.53.79.15,1.29.9-2.23,7.94-4.31,12.92-3.23,21.25l-1.72,1.68c-1.53-3.47-1.06-5.16-3.27-9.04.43-.89.7-1.05.57-1.9-.72-4.44,1.76-7.07,4.14-10.99Z"/>
        <path class="cls-2" d="M169.41,219.71c2.14,1.45,1.06,1.3,3.28.87l1.46-2.38c.67,1.23.47.67.73,1.63-1.4,3.94-2.14,5.78-4.3,9.43l-2.19-.66c-2.1-2.86-2.61-4.86-2.26-8.46l1.09-.05.94-1.45,1.26,1.06Z"/>
        <path class="cls-2" d="M153.75,173.62c4.92,1.79,13.61,23.46,10.43,30.09-1.99-12.81-4.65-18.55-10.43-30.09Z"/>
        <path class="cls-7" d="M207.55,83.82c2.43-.06,1.44-.42,3.24.6.4,4.17-8.16,9.55-11.71,10.39-2.52-1.96-4.25-3.93-6.43-6.23,5.77-2.93,8.58-3.77,14.9-4.75Z"/>
        <path class="cls-6" d="M174.88,219.84l.75.2c-3.23,11.89-11.16,22.86-23.47,26.35,2.78-2.88,6.13-5.06,4.17-9.17-3.82-2.32-2.13-1.95-6.28-1.85,4.33-2.88,6.25-4.05,9.85-7.74,2.28-2.01,1.67-2.14,4.06-2.27,1.94,1.22,2.55,2.74,3.72,4.75l1.18.59,1.72-1.43c2.16-3.64,2.91-5.49,4.3-9.43Z"/>
      </g>
      <g>
        <path class="cls-6" d="M220.48,208.11h-44.02c-6.53,0-11.82-5.29-11.82-11.82v-26.37c0-6.53,5.29-11.82,11.82-11.82h44.02c6.53,0,11.82,5.29,11.82,11.82v26.37c0,6.53-5.29,11.82-11.82,11.82Z"/>
        <text class="cls-5" transform="translate(183.83 196.74)"><tspan x="0" y="0">G</tspan></text>
      </g>
    </g>
  </g>
</svg>