<?xml version="1.0" encoding="UTF-8"?>
<svg id="Capa_2" data-name="Capa 2" xmlns="http://www.w3.org/2000/svg" xmlns:xlink="http://www.w3.org/1999/xlink" viewBox="0 0 241.15 220">
  <defs>
    <style>
      .cls-1 {
        fill: #353a59;
      }

      .cls-2 {
        fill: #2b2d43;
      }

      .cls-3 {
        fill: #e87782;
      }

      .cls-4 {
        fill: #d9042a;
      }

      .cls-5 {
        fill: url(#Degradado_sin_nombre_17);
      }

      .cls-6 {
        fill: url(#Degradado_sin_nombre_22);
      }

      .cls-7 {
        fill: #f9f2eb;
      }
    </style>
    <linearGradient id="Degradado_sin_nombre_22" data-name="Degradado sin nombre 22" x1="1525.74" y1="-1219.14" x2="1450.8" y2="-1256.11" gradientTransform="translate(-863.28 -589.4) scale(.62 -.62)" gradientUnits="userSpaceOnUse">
      <stop offset="0" stop-color="#e87782"/>
      <stop offset="1" stop-color="#f9f2eb"/>
    </linearGradient>
    <linearGradient id="Degradado_sin_nombre_17" data-name="Degradado sin nombre 17" x1="1402.46" y1="-1131.99" x2="1430.45" y2="-1132.48" gradientTransform="translate(-863.28 -589.4) scale(.62 -.62)" gradientUnits="userSpaceOnUse">
      <stop offset="0" stop-color="#353a59"/>
      <stop offset="1" stop-color="#d9042a"/>
    </linearGradient>
  </defs>
  <g id="ICONS">
    <g>
      <path class="cls-3" d="M115.42.02c20.46,1.76,49.83,7.29,61.55,26.02,18.29,18.29,27.02,31.81,29.73,57.55,2.21,4.87.65,26.07-2.8,30.78,1.43,2.4,2.04,3.21,1.4,6.07.88,1.64.98,2.03,2.35,3.23,3.28,3.04,6.62,6.21,9.95,9.18-.65,3.55.82,3.47.85,6.07,1,.98,2.62,2.36,3.2,3.52l2.48.16c1.99-1.1,1.91-2.21,4.94-2.76l.64-.74,3.06,1.22c10.64,8.97,9.98,20.43,4.58,31.85-2.13,5.91-10.88,12.68-15.55,18.64-12.01,19.86-21.72,19.3-43.34,25.96-5.39,1.66-15.7,2.85-21.13,2.63-10.9,1.23-26.59.59-37.42-1.9-1.66-.38-7.35-3.39-9.15-4.33-.72-.22-5.27-2.47-6.09-2.85-9.51-4.46-10.62-5.4-20.72-5.42l-5.32-.13c-3.65-.07-6.74-.67-10.18-1.8-3.43-.83-4.12-.98-7.17-2.69-1.58-1.07-3.27-2.04-4.91-3.02-3.93,1.62-5.58,1.29-8.84-1.2-1.69-1.82-3.06-2.18-5.33-3.08-4.61.99-6.55.95-9.9-2.39-2.3-.93-6.88-1.89-10.13-3.1l-2.35-1.52c-4.61-2.82-16.15-10.49-18.83-14.87l-.95-3.72c2.91-10.04,10.88-4.07,12.72-11.91-1.05-.97-2.68-2.95-2.99-4.18-3.64-14.31-3.32-63.51,1.65-75.48.31-7.01,1.63-10.55,4.08-16.96,4.52-14.96,8.23-13.88,13.28-24.71,1.05-5.46,16.5-14.87,21.72-17.83,1.27-.72,6.1-1.47,7.74-1.72,5.57-9.72,10-10.33,20.3-7.71,3.56-2.25,6.04-3.69,9.79-5.57,2.57.26,5.61.5,8.12.93l2.69.9C105.97.76,108.21-.13,115.42.02Z"/>
      <path class="cls-2" d="M115.42.02c20.46,1.76,49.83,7.29,61.55,26.02-1.07,2.63-1.25,3.48-1.8,6.22-2.81-2.42-3.3-2.83-6.67-4.3-1.5-.53-2.76-3.05-3.07-3.07-4.04-.28-3.1,2.07-8.33,1.05l-1.38,2.29c-1.35.32-2.15.44-3.41,1.06l-.26,1.49c-1.33.19-3.51.09-4.94.07,2.29,1.03,3.71,1.16,4.84,2.97-1.48,1.18-3.55,1.28-5.5,1.62-8.49,5.22-17.93,3.18-22.71,10.96l-3.29-.24c3.28,3.18,4.15,2.94,3.77,7.78l-.1,1.45-1.36.12c-.4.88-1.43,1.3-2.33.96-7.54,3.41-14.57,7.84-20.89,13.18-8.79,8.97-11.86,14.06-16.25,26.27-1.75,6.2-1.84,8.99-2.77,15.18l-.23,6.47-.47,2.06-.46,12.07,2.03,2.06c1.04-.5,1.2-.55,2.11-1.26l-.08,3.87c.2,3.61.77,10.42.69,13.79.06.91.19,2.21.11,3.07-.03,2.73-.09,5.46-.03,8.18l1.37,3.04c1.07.31,1.27.33,2.39.43,3.47,4.1-.09,6.27,6.6,6.14-1.47,1.56-2.17,1.76-2.48,3.61-1.94,3.15-5.75,10.11-9.17,11.21-.88-.46-1.12-.5-1.86-1.14l.53,4.29c1.05,3.6,1.86,6.43,4.59,9.18,1.49,1.47,3.13,3.37,4.97,4.2l.39,1.72c-2.04,1.38-4.76.38-7.59.81l-5.32-.13c-3.65-.07-6.74-.67-10.18-1.8-3.43-.83-4.12-.98-7.17-2.69-1.58-1.07-3.27-2.04-4.91-3.02-3.93,1.62-5.58,1.29-8.84-1.2-1.69-1.82-3.06-2.18-5.33-3.08-4.61.99-6.55.95-9.9-2.39-2.3-.93-6.88-1.89-10.13-3.1l-2.35-1.52c-4.61-2.82-16.15-10.49-18.83-14.87l-.95-3.72c2.91-10.04,10.88-4.07,12.72-11.91-1.05-.97-2.68-2.95-2.99-4.18-3.64-14.31-3.32-63.51,1.65-75.48.31-7.01,1.63-10.55,4.08-16.96,4.52-14.96,8.23-13.88,13.28-24.71,1.05-5.46,16.5-14.87,21.72-17.83,1.27-.72,6.1-1.47,7.74-1.72,5.57-9.72,10-10.33,20.3-7.71,3.56-2.25,6.04-3.69,9.79-5.57,2.57.26,5.61.5,8.12.93l2.69.9C105.97.76,108.21-.13,115.42.02Z"/>
      <path class="cls-6" d="M12.72,155.47l.95.08c3.49,2.01,5.12,2.67,8.93,4.11l1.95,3.31c.62,2.02.87,2.7,3.1,3.9.76.39,1.52.77,2.3,1.13,3.42,1.22,5.13,1.99,8.82,1.2l2.6-.41c7.2,12.34,18.73,7.97,28.26,14.22,3.97.81,8.41,1.09,11.4,1.71l.53,4.29c1.05,3.6,1.86,6.43,4.59,9.18,1.49,1.47,3.13,3.37,4.97,4.2l.39,1.72c-2.04,1.38-4.76.38-7.59.81l-5.32-.13c-3.65-.07-6.74-.67-10.18-1.8-3.43-.83-4.12-.98-7.17-2.69-1.58-1.07-3.27-2.04-4.91-3.02-3.93,1.62-5.58,1.29-8.84-1.2-1.69-1.82-3.06-2.18-5.33-3.08-4.61.99-6.55.95-9.9-2.39-2.3-.93-6.88-1.89-10.13-3.1l-2.35-1.52c-4.61-2.82-16.15-10.49-18.83-14.87l-.95-3.72c2.91-10.04,10.88-4.07,12.72-11.91Z"/>
      <path class="cls-7" d="M86.14,198.17c1.49,1.47,3.13,3.37,4.97,4.2l.39,1.72c-2.04,1.38-4.76.38-7.59.81l-5.32-.13c1.94-.28,2.95-.37,4.8-.97-.34-1.5-1.35-1.75-2.92-2.86,4.14-.86,3.32-.03,5.66-2.77Z"/>
      <path class="cls-7" d="M80.47,200.94c1.57,1.11,2.58,1.35,2.92,2.86-1.85.59-2.86.69-4.8.97-3.65-.07-6.74-.67-10.18-1.8l1.55-1.09,10.51-.93Z"/>
      <path class="cls-1" d="M61.24,200.28c2.51-2.47,5.4-3.8,8.7-1.68.75,2.04.71,1.15.03,3.28l-1.55,1.09c-3.43-.83-4.12-.98-7.17-2.69Z"/>
      <path class="cls-1" d="M47.49,196.05c1.17-1.94,1.33-2.19,3.41-3.05,2.69.12,1.7-.04,4.4,1.66,1.3,2.64.07,2.26,1.02,2.59-3.93,1.62-5.58,1.29-8.84-1.2Z"/>
      <path class="cls-1" d="M19.79,185.97c.84-3.07.15-2.28,2.28-3.51,2.19-.18,2.44-.12,4.41.89l.88,1.43c-.99,2.45-2.74,2.37-5.22,2.7l-2.35-1.52Z"/>
      <path class="cls-1" d="M32.26,190.59c2.34-1.06,2.72-1.28,5.26-1.35,2.1.8,2.35.93,3.72,2.7l.07.77.85.27c-4.61.99-6.55.95-9.9-2.39Z"/>
      <path class="cls-1" d="M0,167.38c2.31-.52,2.94-.83,5.02.18l.96,1.06c-.33,1.74.08.97-1.63,2.19l-3.41.28-.95-3.72Z"/>
      <path class="cls-1" d="M8.91,174.65c2.46-.1,3.39-.29,5.67.8,1.7,2.02,1.27,1.03,1.53,3.77-3.51-.3-5.95-1.05-7.2-4.57Z"/>
      <path class="cls-5" d="M62.61,61.51c2.78-3.43,6.4-8.33,11.17-8.32,2.22,1.03,1.72,1.08,3.01,3.58-.3,3.84-1.29,5.89-4.27,8.46-.84.71-1.7,1.38-2.58,2.03-4.77,12.14-9.77,25.59-11.41,38.66-.19,2.7-.33,4.99-.34,7.7l-.31,33.28c-.05,3.54-.51,10.84-.33,13.98-.28,3.11-.11,7.48-1.66,9.72-1.52,1.02-1.63.97-3.54.99-3.68-3.04-3.29-4.06-3.35-8.59l.32-.93c-.09-.71.88-11.36.93-13.28.37-13.62-.09-59.8,3.89-70.6.9-5.88,4.97-11.96,8.47-16.67Z"/>
      <path class="cls-1" d="M69.24,67.18l.71.07c-4.77,12.14-9.77,25.59-11.41,38.66l-.81-1.5c-.67-1.84-.71-1.92-.68-3.85l.38,1.36c.57-2.96.09-11.96,1.11-12.92l1.81,1.49.88-.47c.48-2.32-1.25-3-1.21-4.99.17-6.87,5.01-12.88,9.23-17.86Z"/>
      <path class="cls-7" d="M76.79,56.77c-.3,3.84-1.29,5.89-4.27,8.46-.84.71-1.7,1.38-2.58,2.03l-.71-.07-.16-.53c.37-1.68,6.51-8.97,7.72-9.89Z"/>
      <path class="cls-3" d="M62.61,61.51c.2,2.47-6.56,14.88-8.47,16.67.9-5.88,4.97-11.96,8.47-16.67Z"/>
      <path class="cls-7" d="M49.32,162.06l.93-1.03c1.56,2.26,1.23,5.65,2.7,9.03l-.59,1.51c-3.68-3.04-3.29-4.06-3.35-8.59l.32-.93Z"/>
      <path class="cls-4" d="M57.72,104.42l.81,1.5c-.19,2.7-.33,4.99-.34,7.7l-.86-2.69c-1.18-.04-1.8-.77-2.76-1.55.26-2.11,1.59-3.05,3.15-4.96Z"/>
      <path class="cls-4" d="M54.05,147.08c.91-.31,1.9.15,2.24,1.05.34.9-.1,1.9-.99,2.27-.6.24-1.28.14-1.78-.26-.5-.4-.75-1.05-.64-1.69.11-.63.56-1.16,1.17-1.37Z"/>
      <path class="cls-2" d="M108.34,13.22l2.79-.47c.55,2.06.64,2.32,1.96,3.98,2.3.73,2.5.58,4.81-.71-.57,1.81-1.27,2.97-.12,4.64l.55.64c.16,2.19.07,3.04,1.05,5,4.46-1.66,5-2.8,8.95.11,1.84.88,4.07,1.97,6.04,2.46,2.37.59,5.76-.32,7.69.96l-.08,1.41c-1.04.43-10.87,2.61-12.55,2.98-9.19,2.01-14.51,4.54-22.62,8.89-4.64-2.21-9.57-3.75-14.22-6.31-6.56-3.61-12.64-7.58-19.29-11.04,7.87-4.73,19.59-9.65,28.73-10.81l6.3-1.74Z"/>
      <path class="cls-2" d="M108.34,13.22l2.79-.47c.55,2.06.64,2.32,1.96,3.98,2.3.73,2.5.58,4.81-.71-.57,1.81-1.27,2.97-.12,4.64l.55.64c.16,2.19.07,3.04,1.05,5-.38-.12-2.63-.88-2.85-1.06-4.21-3.59-8.95-6.4-13.96-8.78-.18-.5-.36-1-.54-1.5l6.3-1.74Z"/>
      <path class="cls-1" d="M108.34,13.22l2.79-.47c.55,2.06.64,2.32,1.96,3.98,2.3.73,2.5.58,4.81-.71-.57,1.81-1.27,2.97-.12,4.64-2.34.38-7.44-.75-8.95-2.79-1.4-1.88-.81-2.47-.49-4.65Z"/>
      <path class="cls-2" d="M93.02,24.02c2.69-.06,5.55-.36,7.69,1.16.74,2.17.61,1.32-.48,4-3.2-.07-6.02.24-8.47-1.66-.23-2.03-.19-1.34,1.26-3.5Z"/>
      <path class="cls-2" d="M113.66,26.92c1.43.82,1.35.84,2.1,2.21-.76,1.93-1.54,2.09-3.32,3.52-1.05-1.04-1.21-1.33-2.03-2.51.56-1.89,1.31-1.88,3.25-3.23Z"/>
      <path class="cls-1" d="M104.86,51.86c7.91,1.67,10.95-4.3,15.57-5.71,3.28,3.18,4.15,2.94,3.77,7.78l-.1,1.45-1.36.12c-.4.88-1.43,1.3-2.33.96-7.54,3.41-14.57,7.84-20.89,13.18-8.79,8.97-11.86,14.06-16.25,26.27-1.75,6.2-1.84,8.99-2.77,15.18l-.23,6.47-.47,2.06c-3.25.66-3.43.78-6.62-.08l-1.34-.45c-1.7,2.07-1.29,4.16-1.46,7.26-.67-3.17-1.14-15.54.1-18.6.77-5.31.94-6.85,2.97-11.85-.06-.28.04-1,.07-1.33,2.14-9.97,8.27-21.14,14.85-29-.47.7,12.52-10.95,13.5-11.89,1.08-1.19,1.52-1.24,2.99-1.81Z"/>
      <path class="cls-1" d="M83.27,95.91c-.16-2.33.34-3.96.91-6.22-1.21.2-1.16.24-2.33-.06,9.65-9.23,2.58-19.38,17.67-19.99-8.79,8.97-11.86,14.06-16.25,26.27Z"/>
      <path class="cls-7" d="M88.37,65.56l.76.73c-4.25,7.46-8.9,15.23-12.47,23.03-.92,2.01-1.39,5.33-2.7,5.88l-.45-.64c2.14-9.97,8.27-21.14,14.85-29Z"/>
      <path class="cls-1" d="M71.84,119.09c3.43-3,4.31-7.35,7.49-8.81l1.18.81-.23,6.47-.47,2.06c-3.25.66-3.43.78-6.62-.08l-1.34-.45Z"/>
      <path class="cls-1" d="M88.37,65.56c-.47.7,12.52-10.95,13.5-11.89-.84,4.02-6.92,9.64-9.68,14.57-2.36-.27-1.23-.93-3.06-1.94l-.76-.73Z"/>
      <path class="cls-4" d="M73.44,95.89c.91,2.63-.9,10.38-2.97,11.85.77-5.31.94-6.85,2.97-11.85Z"/>
      <path class="cls-1" d="M120.41,56.46c-.71-.27-1.18-.94-1.19-1.7-.01-.76.44-1.44,1.14-1.73.7-.29,1.51-.12,2.03.43.53.55.66,1.36.35,2.05-.4.88-1.43,1.3-2.33.96Z"/>
      <path class="cls-4" d="M15.46,58.86c1.37,2.51,1.21,3.36,3.33,4.7l.16.48,1.61.04c-.82,3.57-2.43,9.53-2.4,12.99l-.88,3.32c-.3,4.01-1.1,8.4-1.33,12.2.38,4.26-1.12,19.55.14,20.62-.24,10.13.84,27.66,5,37.09l-1.97,2.02c-1.75,2.39-3.41.7-5.48,3.24l-.95-.08c-1.05-.97-2.68-2.95-2.99-4.18-3.64-14.31-3.32-63.51,1.65-75.48.31-7.01,1.63-10.55,4.08-16.96Z"/>
      <path class="cls-3" d="M19.15,152.3c-5.12-4.47-3.35-20.98-4.5-27.27-1.24-1.15-1.48-1.36-2.93-2.24l-.34-.2c.84-2.69,3.43-8.25,1.6-10.39-.97,1.14-1.15,1.69-2.42,2.17-.31-2.07,1.22-12.88,1.6-15.89.75-5.91-.4-13.68,1.57-18.68.45,4.57-1.42,8.44,1.06,12.16l1.18.63c.38,4.26-1.12,19.55.14,20.62-.24,10.13.84,27.66,5,37.09l-1.97,2.02Z"/>
      <path class="cls-2" d="M18.96,64.03l1.61.04c-.82,3.57-2.43,9.53-2.4,12.99l-.88,3.32c-.3,4.01-1.1,8.4-1.33,12.2l-1.18-.63c-2.48-3.71-.61-7.59-1.06-12.16,2.41-3.65,3.71-10.31,4.58-14.68l.65-1.08Z"/>
      <path class="cls-4" d="M15.46,58.86c1.37,2.51,1.21,3.36,3.33,4.7l.16.48-.65,1.08c-4.6,3.64-1.93,6.46-5.87,11.37l-1.06-.67c.31-7.01,1.63-10.55,4.08-16.96Z"/>
      <path class="cls-2" d="M71.84,119.09l1.34.45c3.19.86,3.37.74,6.62.08l-.46,12.07,2.03,2.06c1.04-.5,1.2-.55,2.11-1.26l-.08,3.87c.2,3.61.77,10.42.69,13.79.06.91.19,2.21.11,3.07-.03,2.73-.09,5.46-.03,8.18.29,4.87,1.04,5.8-2.42,9.32.2,1.46.34,1.95,1,3.26l-.27,2.16c-1.78.87-5.9.14-8.07-.17-1.79-.49-2.12-.99-2.92-2.51,0-2.78-.17-5.56-.3-8.33-.34-5.52-.57-9.9-.47-15.44l-.27-15.42c.63-2.56.3-4.18.02-6.76l-.09-1.17c.17-3.1-.24-5.19,1.46-7.26Z"/>
      <path class="cls-4" d="M71.84,119.09l1.34.45c3.19.86,3.37.74,6.62.08l-.46,12.07c.15,8.12.21,16.24.17,24.36-1.05-.67-6.8-3.26-8.11-3.7l-.69-2.66-.27-15.42c.63-2.56.3-4.18.02-6.76l-.09-1.17c.17-3.1-.24-5.19,1.46-7.26Z"/>
      <path class="cls-4" d="M71.22,127.47c2.31.08,3.35,1.22,5.25,2.65l.52,1.19c-.62.64-1.15,1.19-1.8,1.79.87.58,2.54,1.64,3.27,2.27l-.68.74c-3.6-.32-2.61.2-5.37-1.93l-1.96.11c.63-2.56.3-4.18.02-6.76l.75-.05Z"/>
      <path class="cls-1" d="M71.84,119.09l1.34.45c-.48,2.25-.66,1.41.6,3.35.24.37.49.75.74,1.12-.96,1.43-.98,1.34-2.48,2.01l-.82,1.45-.75.05-.09-1.17c.17-3.1-.24-5.19,1.46-7.26Z"/>
      <path class="cls-4" d="M76.34,139.73c.9-.47,2.01-.11,2.48.79s.1,2.01-.8,2.47c-.9.46-2,.1-2.47-.8-.46-.9-.11-2,.79-2.47Z"/>
      <path class="cls-1" d="M70.72,149.69l.69,2.66c1.3.43,7.05,3.03,8.11,3.7-.22,2.49-.37,4.99-.92,7.43l-1.06-1.33c-3.59.76-.77,2.52-6.35,2.98-.34-5.52-.57-9.9-.47-15.44Z"/>
      <path class="cls-4" d="M71.19,165.13c5.57-.45,2.76-2.22,6.35-2.98l1.06,1.33c-.13,4.98.36,6.9-2.43,10.89l-1.75,1.59c-1.79-.49-2.12-.99-2.92-2.51,0-2.78-.17-5.56-.3-8.33Z"/>
      <path class="cls-4" d="M71.49,173.46l1.98-.61c.26-1.32.17-1.71.09-3.03,1.3-1.19,1.43-1.16,3.2-1.59l.82.51c-.7,3.79-2.1-1.45-1.41,5.63l-1.75,1.59c-1.79-.49-2.12-.99-2.92-2.51Z"/>
      <path class="cls-4" d="M81.75,170.72c-2.41-3.19.18-14.37,2.45-17.5-.03,2.73-.09,5.46-.03,8.18.29,4.87,1.04,5.8-2.42,9.32Z"/>
      <path class="cls-4" d="M84.09,150.15c-2.3-2.58-2.83-10.91-.69-13.79.2,3.61.77,10.42.69,13.79Z"/>
      <path class="cls-1" d="M33.08,105.06c1.54,6.74-.24,12.56.47,19.29.25,2.44,3.99,6.22,3.84,7.49-.57,4.76-1.52,3.52-.48,8.81-.7,4.94-1.9,12.8-.02,17.48l-1.63.8v.8c4.5,4.24.84,7.11,6.1,9.05l-2.6.41c-3.69.78-5.4.01-8.82-1.2-.77-.36-1.54-.73-2.3-1.13-2.23-1.19-2.48-1.88-3.1-3.9l-1.95-3.31c-3.8-1.43-5.43-2.09-8.93-4.11,2.07-2.55,3.73-.85,5.48-3.24l1.97-2.02.86-.95c1.13,1.91,1.43,3.16,3.59,3.5,6.05-5.03.41-25.79,6.8-39.85.78-2.18.65-5.5.72-7.92Z"/>
      <path class="cls-2" d="M21.97,149.33c1.13,1.91,1.43,3.16,3.59,3.5,6.05-5.03.41-25.79,6.8-39.85-.14,9.65-.45,19.3-.94,28.94-.1,2.43-.23,10.61-.51,12.5-.09,2.11-.53,12.13-.99,13.56-.77-.36-1.54-.73-2.3-1.13-2.23-1.19-2.48-1.88-3.1-3.9l-1.95-3.31c-3.8-1.43-5.43-2.09-8.93-4.11,2.07-2.55,3.73-.85,5.48-3.24l1.97-2.02.86-.95Z"/>
      <path class="cls-1" d="M24.08,157.18l.7-1.74,1.9-.26c2.06,1.07,1.44,1.06,2.76,3.47l.07-.06-.11-1.41,1.32-.78c-.06-.61-.05-.25.09-1.18l.12-.8c-.09,2.11-.53,12.13-.99,13.56-.77-.36-1.54-.73-2.3-1.13-2.23-1.19-2.48-1.88-3.1-3.9l-1.95-3.31c.4-.52,1.12-1.84,1.49-2.47Z"/>
      <path class="cls-2" d="M24.08,157.18c1.71,2.04,2.52,2.33,2.91,4.65-1.13.91-1.03.95-2.45,1.12l-1.95-3.31c.4-.52,1.12-1.84,1.49-2.47Z"/>
      <path class="cls-2" d="M35.26,159.73c4.49,4.24.84,7.11,6.1,9.05l-2.6.41c-1.43,0-1.7-.15-3.06-.52-.45-.83-.19-6.52-.43-8.93Z"/>
      <path class="cls-4" d="M138.73,13l3.62,1.26c3.04-.09,3.49-.04,6.44.74l.78.98c1.03.57,2.11,1.39,3.15,1.41,1.13,4.26,1.22,5.36,4.37,8.54l-1.38,2.29c-1.35.32-2.15.44-3.41,1.06l-.26,1.49c-1.33.19-3.51.09-4.94.07l-5.12.41.08-1.41c-1.93-1.29-5.32-.38-7.69-.96-1.97-.49-4.2-1.58-6.04-2.46-3.95-2.91-4.49-1.77-8.95-.11-.98-1.95-.89-2.81-1.05-5l-.55-.64c-1.15-1.67-.45-2.83.12-4.64,2.16-.25.76.43,3.16.9,2.68-1.91,3.14-1.94,6.41-2.25l.42-.43c4.92-1.87,5.3,3.95,10.83-1.24Z"/>
      <path class="cls-1" d="M121.06,16.93c2.68-1.91,3.14-1.94,6.41-2.25l1.4,3.65-.62,1.41-.94,1.41-1.46.03-.4.75c.74,1.19,2.33,3.44,2.89,4.5-3.95-2.91-4.49-1.77-8.95-.11-.98-1.95-.89-2.81-1.05-5l-.55-.64c-1.15-1.67-.45-2.83.12-4.64,2.16-.25.76.43,3.16.9Z"/>
      <path class="cls-2" d="M121.06,16.93c2.68-1.91,3.14-1.94,6.41-2.25l1.4,3.65-.62,1.41c-1.09.55-2.67,1.41-3.81,1.71l-3.37-4.53Z"/>
      <path class="cls-1" d="M117.9,16.03c2.16-.25.76.43,3.16.9l3.37,4.53-6.1-.15-.55-.64c-1.15-1.67-.45-2.83.12-4.64Z"/>
      <path class="cls-1" d="M128.33,26.42c-.56-1.05-2.14-3.31-2.89-4.5l.4-.75,1.46-.03c4.42,6.22,8.11.83,12.9,5.17,1.33,1.2,5.37,3.99,6.9,4.53l-5.12.41.08-1.41c-1.93-1.29-5.32-.38-7.69-.96-1.97-.49-4.2-1.58-6.04-2.46Z"/>
      <path class="cls-4" d="M138.73,13l3.62,1.26-.06,1.91-2.7-1.16c-3.26,1.97-6.87,3.47-10.72,3.32l-1.4-3.65.42-.43c4.92-1.87,5.3,3.95,10.83-1.24Z"/>
      <path class="cls-2" d="M142.35,14.26c3.04-.09,3.49-.04,6.44.74l.78.98c-.51,1.28,0,1.87-1.06,3.13-2.05.83-2.14.93-4.18.39-1.9-1.81-1.41-.92-2.04-3.32l.06-1.91Z"/>
      <path class="cls-1" d="M78.5,6.89c3.56-2.25,6.04-3.69,9.79-5.57l-.21,4.79-.72-.35-2.7,1.4-2.81,1.76-1.65,1.6-.47-.05c-.39-.16-4.68-.51-5.4-.59l-2.39,1.46c-5.46,1.86-6.3,1.87-9.06,6.74-.71,2.12-.91,3.6-2.66,4.87-1.54-.99-1.08-.97-1.69-3.39-5.12,3.72-10.51,5.16-12.58,10.04-1.45,2.24-2.64,4.01-4.26,6.14l-.75-.45c-3.45-.46-5.64-.2-8.98,1.05l-2.21,2.1c-.17-1.24-.69-3.05-1.01-4.3,1.05-5.46,16.5-14.87,21.72-17.83,1.27-.72,6.1-1.47,7.74-1.72,5.57-9.72,10-10.33,20.3-7.71Z"/>
      <path class="cls-7" d="M58.42,18.42l.11,1.15c-5.12,3.72-10.51,5.16-12.58,10.04-1.45,2.24-2.64,4.01-4.26,6.14l-.75-.45c-3.45-.46-5.64-.2-8.98,1.05,2.43-5.23,9.02-9.09,13.45-12.58,4.75-3.75,7.28-4.08,13-5.35Z"/>
      <path class="cls-7" d="M58.42,18.42c6.39-4.64,6.22-11.56,15.91-8.54l-2.39,1.46c-5.46,1.86-6.3,1.87-9.06,6.74-.71,2.12-.91,3.6-2.66,4.87-1.54-.99-1.08-.97-1.69-3.39l-.11-1.15Z"/>
      <path class="cls-7" d="M81.85,8.91l.54-1.65c1.65-1.71,1.75-2.02,3.96-2.41l1.01.9-2.7,1.4-2.81,1.76Z"/>
      <path class="cls-1" d="M28.75,34.15c.31,1.26.83,3.07,1.01,4.3l2.21-2.1c3.35-1.25,5.53-1.52,8.98-1.05-.61,1.3-1.12,2.73-2.15,3.66.73,1.74,1.75,2.99,2.41,4.57-3.66,3.61-3.65,6.92-6.88,8.18-1.75,1.71-2.05,3.08-2.92,5.37l-1.41,3.11c-1.68-2.59-.76-1.78-3.43-3.15-4.78.51-4.92,2.99-5.99,7.05l-1.61-.04-.16-.48c-2.13-1.34-1.96-2.19-3.33-4.7,4.52-14.96,8.23-13.88,13.28-24.71Z"/>
      <path class="cls-4" d="M31.97,36.35c3.35-1.25,5.53-1.52,8.98-1.05-.61,1.3-1.12,2.73-2.15,3.66.73,1.74,1.75,2.99,2.41,4.57-3.66,3.61-3.65,6.92-6.88,8.18-1.75,1.71-2.05,3.08-2.92,5.37-.83-.55-.9-.73-1.59-1.45l.63-1.87c-.5-.56-.74-.59-1.43-.99l-2.15,1.17c.91-2.74,1.79-4.98,2.07-7.87l1.16-1.04,1.42-2.12c-2.2-1.58-2.83-1.52-4.99-1.21l3.22-3.24,2.21-2.1Z"/>
      <path class="cls-1" d="M31.97,36.35c3.35-1.25,5.53-1.52,8.98-1.05-.61,1.3-1.12,2.73-2.15,3.66l-.46-.12c-2.83.47-4.91,1.98-6.82,4.07-2.2-1.58-2.83-1.52-4.99-1.21l3.22-3.24,2.21-2.1Z"/>
      <path class="cls-7" d="M31.52,42.9c1.91-2.1,3.99-3.6,6.82-4.07-.84,3.29-4.95,6.1-8.24,6.2l1.42-2.12Z"/>
      <path class="cls-7" d="M30.45,53.75c.83-1.21,1.64-2.43,2.41-3.68l.98.03.49,1.61c-1.75,1.71-2.05,3.08-2.92,5.37-.83-.55-.9-.73-1.59-1.45l.63-1.87Z"/>
      <path class="cls-1" d="M28.75,34.15c.31,1.26.83,3.07,1.01,4.3l-3.22,3.24-1.89,3.51c-2,6-4.19,12.27-5.85,18.35-2.13-1.34-1.96-2.19-3.33-4.7,4.52-14.96,8.23-13.88,13.28-24.71Z"/>
      <path class="cls-2" d="M26.53,41.69c2.16-.31,2.79-.37,4.99,1.21l-1.42,2.12-1.16,1.04-2.7,2.88-1.6-3.75,1.89-3.51Z"/>
      <path class="cls-7" d="M28.94,46.06c-.28,2.89-1.16,5.13-2.07,7.87-1.01,1.62-1.07,1.94-2.64,2.89l-.54-.84c.22-3.13,1.06-4.29,2.56-7.04l2.7-2.88Z"/>
      <path class="cls-1" d="M20.57,64.08c1.07-4.06,1.21-6.53,5.99-7.05,2.67,1.37,1.75.56,3.43,3.15-1.52,3.51-3.12,8.88-4.32,11.47-.21,1.52-2.32,20.97-2.2,20.64-3.79,8.32.76,12.66-3.13,15.64-1.95-1.01-2.14-1.35-2.45-3.62-.38,1.89-1.16,7.96-1.77,8.89-1.27-1.07.24-16.36-.14-20.62.23-3.8,1.03-8.19,1.33-12.2l.88-3.32c-.04-3.45,1.57-9.42,2.4-12.99Z"/>
      <path class="cls-1" d="M20.57,64.08c1.07-4.06,1.21-6.53,5.99-7.05,2.67,1.37,1.75.56,3.43,3.15-1.52,3.51-3.12,8.88-4.32,11.47l-.74-.42c.54-1.71.84-2.39.91-4.16-1.37-2.03-1.11-2.33-3.14-3.24-2.43,1.99-2.7,7.09-3.24,10.46l.22,1.9-1.5.89c-.04-3.45,1.57-9.42,2.4-12.99Z"/>
      <path class="cls-4" d="M19.46,74.28l1.58-.82c1.87,3.31-.64,5.85-3.74,6.93l.88-3.32,1.5-.89-.22-1.9Z"/>
      <path class="cls-1" d="M99.1,3.14C105.97.76,108.21-.13,115.42.02l-1.51,1.75c1.38.47,4.06,1.51,5.38,1.58l4.17,2.02c2.26,1.63,3.16,2.18,5.63,3.45-9.42.02-21.75.04-30.51,3.42-1.38-1.34-2.19-2.25-3.42-3.73-2.48-1.06-6.76-.62-10.5-1.36l2.7-1.4.72.35.21-4.79c2.57.26,5.61.5,8.12.93l2.69.9Z"/>
      <path class="cls-1" d="M112.21,2.4c.35-.31,1.17-.47,1.7-.63,1.38.47,4.06,1.51,5.38,1.58l4.17,2.02c-2.99,3.48-4.45,3.04-8.77,1.3-.68-2.1-1.11-2.46-2.48-4.27Z"/>
      <path class="cls-1" d="M99.1,3.14C105.97.76,108.21-.13,115.42.02l-1.51,1.75c-.53.16-1.35.33-1.7.63l-5.32,2.13-.44-.89c-.73.36-1.52.72-2.2,1.15-1.44-1.64-2.59-1.34-5.15-1.65Z"/>
      <path class="cls-2" d="M96.41,2.24l2.69.9c2.56.31,3.71,0,5.15,1.65-4.6,3.06-6.2,2.24-11.15.79l3.31-3.34Z"/>
      <path class="cls-1" d="M88.29,1.31c2.57.26,5.61.5,8.12.93l-3.31,3.34c-1.62.89-3.19,1.32-5.02.51l.21-4.79Z"/>
      <path class="cls-2" d="M112.21,2.4c1.37,1.8,1.8,2.16,2.48,4.27-2.37.7-3.1.98-5.62.97-2-1.25-1.37-.49-2.17-3.11l5.32-2.13Z"/>
      <path class="cls-2" d="M115.42.02c20.46,1.76,49.83,7.29,61.55,26.02-1.07,2.63-1.25,3.48-1.8,6.22-2.81-2.42-3.3-2.83-6.67-4.3-1.5-.53-2.76-3.05-3.07-3.07-4.04-.28-3.1,2.07-8.33,1.05-3.15-3.18-3.24-4.28-4.37-8.54,7.21,3.29,8.36,3.14,16.27,4.58,1.84.33,2.79,2.34,4.86,3.06l.02-1.38c-4.03-7.1-29.89-17.86-38.39-18.38-3.35-.21-7.06-.66-10.45-.99-2.53-.24-3.13-1.85-5.75-.93-1.33-.07-4.01-1.11-5.38-1.58l1.51-1.75Z"/>
      <path class="cls-1" d="M16.12,113.2c.61-.94,1.39-7.01,1.77-8.89.31,2.27.5,2.61,2.45,3.62,3.89-2.98-.66-7.31,3.13-15.64-.99,19-1.49,38.02-1.5,57.04l-.86.95c-4.16-9.43-5.24-26.96-5-37.09Z"/>
      <path class="cls-1" d="M33.87,89.95c1.48,2.16,1.53,2.99,3.63,4.02,1.31-.66,1.72-.78,2.72-1.91-.96,13.96-.84,35.46-3.31,48.59-1.04-5.29-.09-4.05.48-8.81.15-1.28-3.59-5.06-3.84-7.49-.7-6.74,1.07-12.56-.47-19.29-.41-2.72-.07-9.62,0-12.67l.78-2.44Z"/>
      <path class="cls-1" d="M38.4,62.61c1.18-.27,1.76-.5,2.8-1.12,3.17,1.2,2.14,2.29,5.62,3.92-4.99,11.6-5.47,14.04-6.6,26.65-1,1.12-1.41,1.24-2.72,1.91-2.1-1.03-2.16-1.86-3.63-4.02-.01-12.73,1.42-9.51,4.23-20.77-.55-1.77-.67-2.22-.79-4.08l-.02-.42,1.11-2.07Z"/>
      <path class="cls-2" d="M61.67,52.23c3.47-3.01,6.17-4.55,10.62-5.82l1.31.63c.04,2.47-10.28,6.83-13.33,8.8-3.48,5.74-6.42,10.59-8.75,16.9-.59,1.59-1.81,5.22-2.94,6.03l-.85-.75c.01-1.75.55-3.55.55-4.74.62-5.1,3.87-8.47,3.25-11l-2.11-.9.79-1.45c.97-1.15,1.99-2.14,3.05-3.21l2.27-2.64,4.03-4.43c.67.83,1.39,1.8,2.11,2.57Z"/>
      <path class="cls-2" d="M53.26,56.73c1.76.46,3.09.33,4.84.67-1.76,2.96-7.97,14.45-9.82,15.88.62-5.1,3.87-8.47,3.25-11l-2.11-.9.79-1.45c.97-1.15,1.99-2.14,3.05-3.21Z"/>
      <path class="cls-2" d="M59.56,49.66c.67.83,1.39,1.8,2.11,2.57-1.36,1.76-2,3.01-4.06,3.72-1.67-.64-.92-.14-2.08-1.87l4.03-4.43Z"/>
      <path class="cls-2" d="M52.35,171.58c1.9-.02,2.02.03,3.54-.99,1.55-2.24,1.38-6.61,1.66-9.72.1,2.84-.21,8.59.98,10.69,2.12,1.02,2.48,1.62,3.76,3.58-.9,1.31-1.26,1.46-2.52,2.35l.19.85c3.41.17,5.73.14,8.59,2.28l.4-3.35c1.07,1.45.66,3.54.67,5.72-9.53-6.25-21.06-1.88-28.26-14.22,2.51-.06,3.64.26,5.16-1.25-.08-1.59-.29-2.69.33-4.15l2.16-.39c.06,4.53-.33,5.55,3.35,8.59Z"/>
      <path class="cls-2" d="M74.33,9.88c.72.08,5.01.43,5.4.59l.47.05,1.98,3,.18,1.76c-5.13,2.33-13.38,5.79-17.87,8.71,1.42-3.36.53-3.49-1.61-5.9,2.75-4.87,3.6-4.88,9.06-6.74l2.39-1.46Z"/>
      <path class="cls-3" d="M74.33,9.88c.72.08,5.01.43,5.4.59-2.44,2.23-4.82,1.61-7.79.87l2.39-1.46Z"/>
      <path class="cls-2" d="M72.01,13c.91.92,1.48,1.28,1.69,2.55-1.52,2.59-2.94,2.79-5.89,4.56-1.52-1.58-1.28-.87-1.4-2.75,1.29-2.11,3.45-3.11,5.59-4.36Z"/>
      <path class="cls-4" d="M44.14,52.84c3.09-3.03,6.96-6.93,11.18-7.78,2.2.71,1.42.16,2.78,2.44l1.46,2.16-4.03,4.43-2.27,2.64c-1.06,1.07-2.07,2.06-3.05,3.21-1.02-1.17-2.37-1.9-3.69-2.74l-1.12-.31c-.39-1.74-.61-2.38-1.26-4.04Z"/>
      <path class="cls-7" d="M58.11,47.51l1.46,2.16-4.03,4.43-2.27,2.64c-1.06,1.07-2.07,2.06-3.05,3.21-1.02-1.17-2.37-1.9-3.69-2.74,4.82-3.73,4.25-5.64,11.59-9.69Z"/>
      <path class="cls-1" d="M58.53,19.56c.61,2.42.15,2.4,1.69,3.39,1.75-1.27,1.95-2.76,2.66-4.87,2.14,2.41,3.03,2.53,1.61,5.9-5,1.79-8.48,3.35-12.41,7.05l-1.2.09-.44-.99c-2.06-.34-1.31-.49-3.1.28l-1.4-.81c2.07-4.88,7.46-6.32,12.58-10.04Z"/>
      <path class="cls-2" d="M104.86,51.86c13.7-7.66,25.39-14.39,41.57-16.42-8.49,5.22-17.93,3.18-22.71,10.96l-3.29-.24c-4.62,1.41-7.67,7.38-15.57,5.71Z"/>
      <path class="cls-4" d="M111.13,12.75c7.37.24,21.8-1.83,27.6.25-5.53,5.19-5.91-.63-10.83,1.24l-.42.43c-3.27.31-3.74.34-6.41,2.25-2.4-.47-1-1.15-3.16-.9-2.31,1.29-2.51,1.44-4.81.71-1.33-1.66-1.41-1.92-1.96-3.98Z"/>
      <path class="cls-1" d="M40.95,35.29l.75.45c1.61-2.13,2.8-3.9,4.26-6.14l1.4.81c1.79-.77,1.04-.62,3.1-.28l.44.99,1.2-.09c-3.84,4.44-5.49,9.03-10.87,12.49-.65-1.58-1.67-2.83-2.41-4.57,1.03-.93,1.54-2.36,2.15-3.66Z"/>
      <path class="cls-2" d="M37.29,64.68l.02.42c.11,1.86.24,2.31.79,4.08-2.81,11.26-4.24,8.05-4.23,20.77l-.78,2.44c.75-7.74-5.74-23.15,4.2-27.71Z"/>
      <path class="cls-4" d="M44.14,52.84c.65,1.67.87,2.3,1.26,4.04l1.12.31c1.32.84,2.67,1.57,3.69,2.74l-.79,1.45c-.81,1.24-1.88,2.78-2.6,4.03-3.48-1.63-2.45-2.72-5.62-3.92-1.04.62-1.62.85-2.8,1.12,1.45-4.15,3.04-6.38,5.75-9.77Z"/>
      <path class="cls-2" d="M81.85,8.91l2.81-1.76c3.75.74,8.03.3,10.5,1.36-2.35,3.07-8.61,3.88-12.99,5l-1.98-3,1.65-1.6Z"/>
      <path class="cls-2" d="M95.16,8.51c1.23,1.48,2.04,2.39,3.42,3.73-5.41.39-10.99,1.59-16.23,3.02l-.18-1.76c4.38-1.12,10.64-1.93,12.99-5Z"/>
      <path class="cls-2" d="M157.09,25.93c5.23,1.02,4.29-1.33,8.33-1.05.31.02,1.57,2.54,3.07,3.07,3.37,1.47,3.86,1.88,6.67,4.3.55-2.74.73-3.59,1.8-6.22,18.29,18.29,27.02,31.81,29.73,57.55,2.21,4.87.65,26.07-2.8,30.78,1.43,2.4,2.04,3.21,1.4,6.07.88,1.64.98,2.03,2.35,3.23.61,3.57.59,3.97-1.59,6.69-3.04-2.27-6.1-5.03-9.34-7.45l-3.3-.25c-4.09-.58-4.64-.65-7.66,2.49l-1.5.48-1.52-.88c-1.52-2.97-5.92-5.65-6.97-7.71-.97-1.9-1.19-4.1-.62-6.17-1.25-3.43-.51-5.1-1.74-8.01-1.49-.35-1.79-.35-3.08-1.27-.61-2.33.93-5.6.96-9.07-2.27-2.8-1.92-6.97-2.1-10.54-.63-12.28-18.59-9.49-24.52-14.89-.41-.69-1.79-2.45-2.33-3.19-1.66-.74-3.19-1.77-4.75-2.73l-3.29,1.45,2.27,2.77c-14.76,6.6-26.97,13.62-34.12,28.92-1.79,3.84-.62,6.59-1.5,9.72-1.93,4.6,2.73,5.59,2.12,9.48-1.45,1.41-.81.99-3.16,1.28l-3.54-1.78c-1.28,1.13-.88.76-1.35,2.74-7.31,7.21-.07,10.6.65,15.87l.19,6.85-.02.59c-.26,7.48-2.83,9.56-.34,16.84l1.36,1.6-.46,2.73c1.65,1.57,3.16,3.07,4.52,4.9l-1.38.02c1.07.52,1.06.59,2.23.68,2.87-.02,6.46.05,9.25-.13,1.64,3.01,1.45,1.77,1.15,4.81-2.17,3.47-9.28,3.79-12.28,2.18-1.96-2.57-2.39-2.22-5.33-1.69-6.69.13-3.13-2.04-6.6-6.14-1.12-.11-1.32-.12-2.39-.43l-1.37-3.04c-.06-2.73,0-5.46.03-8.18.09-.86-.05-2.16-.11-3.07.08-3.37-.49-10.18-.69-13.79l.08-3.87c-.9.71-1.06.76-2.11,1.26l-2.03-2.06.46-12.07.47-2.06.23-6.47c.93-6.19,1.02-8.98,2.77-15.18,4.39-12.21,7.46-17.3,16.25-26.27,6.33-5.33,13.36-9.77,20.89-13.18.91.35,1.93-.07,2.33-.96l1.36-.12.1-1.45c.38-4.84-.49-4.6-3.77-7.78l3.29.24c4.78-7.77,14.23-5.74,22.71-10.96,1.96-.34,4.02-.44,5.5-1.62-1.12-1.81-2.55-1.95-4.84-2.97,1.42.01,3.6.12,4.94-.07l.26-1.49c1.27-.61,2.07-.74,3.41-1.06l1.38-2.29Z"/>
      <path class="cls-7" d="M200.06,87.75c-.65-3.34-1.44-10.89-.03-13.89,5.52,3.67.93,5.26,4.31,9.07.7.21,1.67.53,2.36.66,2.21,4.87.65,26.07-2.8,30.78,1.43,2.4,2.04,3.21,1.4,6.07.88,1.64.98,2.03,2.35,3.23.61,3.57.59,3.97-1.59,6.69-3.04-2.27-6.1-5.03-9.34-7.45l-3.3-.25c-4.09-.58-4.64-.65-7.66,2.49l-1.5.48-1.52-.88c-1.52-2.97-5.92-5.65-6.97-7.71-.97-1.9-1.19-4.1-.62-6.17,3.92-4.36,2.73-7.8,1.34-13.46.15-.28.98-1.07,1.25-1.34,2.45-.41,1.43-.48,3.93.49l1.21,4.85c2.53-.02,6.53-.57,8.62-2.07l1.57-.5.52.26,1.21.93c1.7-.99,1.8-2.22,2.76-4.31l.69.16c1.2-2.2,1.45-5.54,1.83-8.14Z"/>
      <path class="cls-2" d="M200.06,87.75c-.65-3.34-1.44-10.89-.03-13.89,5.52,3.67.93,5.26,4.31,9.07.7.21,1.67.53,2.36.66,2.21,4.87.65,26.07-2.8,30.78-3.05-.07-2.7.46-4.4-1.14-.39-7.15-1.9-3.27-2.76-7.66.59-1.91,1.2-7.42,1.5-9.68,1.2-2.2,1.45-5.54,1.83-8.14Z"/>
      <path class="cls-1" d="M193.57,99.1l1.21.93c1.7-.99,1.8-2.22,2.76-4.31l.69.16c-.3,2.26-.91,7.77-1.5,9.68.86,4.39,2.37.51,2.76,7.66l-.67,4.28c-3.33-1.99-8.82-5.23-11.34-7.94l-.32-.35c-2.58-2.76-2.95-4.15-4.3-7.79,2.53-.02,6.53-.57,8.62-2.07l1.57-.5.52.26Z"/>
      <path class="cls-7" d="M193.57,99.1l1.21.93c1.7-.99,1.8-2.22,2.76-4.31l.69.16c-.3,2.26-.91,7.77-1.5,9.68-2.48.43-1.47.63-3.77-.89-1.44-2.31-1.52-2.61-1.48-5.34l1.57-.5.52.26Z"/>
      <path class="cls-1" d="M199.49,113.22c1.7,1.6,1.35,1.07,4.4,1.14,1.43,2.4,2.04,3.21,1.4,6.07-1.79-.93-4.55-2.08-6.47-2.93l.67-4.28Z"/>
      <path class="cls-1" d="M157.09,25.93c5.23,1.02,4.29-1.33,8.33-1.05.31.02,1.57,2.54,3.07,3.07l-.03,2.3c1.99.29,3.5,2.13,4.75,3.74l2.51,2.56-4.41-.07-.51.64,3.01,3.57c2.49.24,3.33.87,5.53,2.01-3.08,2.96-1.28,2.91-1.83,6.84l-4.15-1.51c-2.25,2.6-2.67,2.85-6.03,3.45-1.87-.65-3.5-1.15-5.4-1.69l-.14-.48c-5.14-1.2-13.85-1.72-19.12-1.28-6.79.49-13.27,3.05-18.57,7.33l.1-1.45c.38-4.84-.49-4.6-3.77-7.78l3.29.24c4.78-7.77,14.23-5.74,22.71-10.96,1.96-.34,4.02-.44,5.5-1.62-1.12-1.81-2.55-1.95-4.84-2.97,1.42.01,3.6.12,4.94-.07l.26-1.49c1.27-.61,2.07-.74,3.41-1.06l1.38-2.29Z"/>
      <path class="cls-1" d="M157.09,25.93c5.23,1.02,4.29-1.33,8.33-1.05.31.02,1.57,2.54,3.07,3.07l-.03,2.3c1.99.29,3.5,2.13,4.75,3.74l2.51,2.56-4.41-.07-.51.64,3.01,3.57c-1.95-.32-6.2-1.51-8.36-2.03-2.94-.75-5.81-1.78-8.69-2.75-1.19.34-1.32.23-2.58.12l-.56-1.04c1.65-.44,2.24-.55,3.76-1.3l-.19-1.12-5.17-1.82.26-1.49c1.27-.61,2.07-.74,3.41-1.06l1.38-2.29Z"/>
      <path class="cls-4" d="M157.09,25.93c5.23,1.02,4.29-1.33,8.33-1.05.31.02,1.57,2.54,3.07,3.07l-.03,2.3-.38.02c-2.72.14-8.86-1.07-10.38.2l.48,1.54-.97.57-5.17-1.82.26-1.49c1.27-.61,2.07-.74,3.41-1.06l1.38-2.29Z"/>
      <path class="cls-4" d="M173.21,34l2.51,2.56-4.41-.07-.51.64,3.01,3.57c-1.95-.32-6.2-1.51-8.36-2.03-2.94-.75-5.81-1.78-8.69-2.75,2.63-1.62,11.39,1.17,16.43-1.93Z"/>
      <path class="cls-1" d="M123.72,46.39l-.16.56c4.15.08,7.66-6.87,9.91-3.39,3.47,5.38,2.96,3.36,9.2,4.5-6.79.49-13.27,3.05-18.57,7.33l.1-1.45c.38-4.84-.49-4.6-3.77-7.78l3.29.24Z"/>
      <path class="cls-1" d="M165.47,38.67c2.16.52,6.41,1.71,8.36,2.03,2.49.24,3.33.87,5.53,2.01-3.08,2.96-1.28,2.91-1.83,6.84l-4.15-1.51h-1.88c-1.84-.61-1.98-.86-3.48-2.17-.03-2.16.17-1.7,1.59-3.9l1.51-.21c-1.16-1.07-3.65-1.45-5.63-3.1Z"/>
      <path class="cls-1" d="M161.8,49.33c.54-1.86,1.11-4.45,2.99-5.13,1.74,2.09,2.98,3.35,5.43,4.55l1.28-.69h1.88c-2.25,2.59-2.67,2.84-6.03,3.44-1.87-.65-3.5-1.15-5.4-1.69l-.14-.48Z"/>
      <path class="cls-4" d="M163.14,59.58c2.78,1.34,6.75,3.11,9.2,4.77.26,7.77,3.93,8.59,4.14,13.11,1.08,4.74,3.79,4.63,4.07,10.61.41,2.2.78,5.22,1.74,7.15l-.64,1.34c-2.5-.98-1.48-.91-3.93-.49-.26.27-1.09,1.05-1.25,1.34,1.39,5.66,2.58,9.1-1.34,13.46-1.25-3.43-.51-5.1-1.74-8.01-1.49-.35-1.79-.35-3.08-1.27-.61-2.33.93-5.6.96-9.07-2.27-2.8-1.92-6.97-2.1-10.54-.63-12.28-18.59-9.49-24.52-14.89.3-1.09.84-1.82,1.42-2.79,3.74-1.96,6.07-1.15,9.79-.57.41-.51,5.67-3.04,7.28-4.16Z"/>
      <path class="cls-2" d="M163.14,59.58c2.78,1.34,6.75,3.11,9.2,4.77.26,7.77,3.93,8.59,4.14,13.11-6.57-7.89-10.23-12.32-20.62-13.72.41-.51,5.67-3.04,7.28-4.16Z"/>
      <path class="cls-3" d="M176.47,97.4c-3.01-3.71-5.49-6.36-3.33-11.29,3.11-2.4,5.14-.94,7.42,1.96.41,2.2.78,5.22,1.74,7.15l-.64,1.34c-2.5-.98-1.48-.91-3.93-.49-.26.27-1.09,1.05-1.25,1.34Z"/>
      <path class="cls-4" d="M175.17,32.25c.55-2.74.73-3.59,1.8-6.22,18.29,18.29,27.02,31.81,29.73,57.55-.69-.13-1.66-.45-2.36-.66-3.38-3.81,1.21-5.4-4.31-9.07l-1.01-1.53,2.71-1.53.3-1.41c-.51-2.51-2.36-3.62-4.4-5.38l-.71.77-.69.07c-1.87-2.15-2.92-6.5-4.98-9.76-2.33.49-2.91.48-5.17-.29-1.51.71-1.12.77-2.05,2.73-3.37-3.15-4.4-3.95-6.52-7.97.55-3.93-1.25-3.88,1.83-6.84-2.2-1.14-3.04-1.77-5.53-2.01l-3.01-3.57.51-.64,4.41.07-2.51-2.56c-1.25-1.61-2.76-3.45-4.75-3.74l.03-2.3c3.37,1.47,3.86,1.88,6.67,4.3Z"/>
      <path class="cls-4" d="M177.52,49.56c.55-3.93-1.25-3.88,1.83-6.84,2.34,1.68,4.7,3.32,7.09,4.93,1.53-.04.89.22,2.01-.74,1.61,1.33,2.23,2.71,2.36,4.83l-.05.87.5,2.47c-2.33.49-2.91.48-5.17-.29-1.51.71-1.12.77-2.05,2.73-3.37-3.15-4.4-3.95-6.52-7.97Z"/>
      <path class="cls-1" d="M188.45,46.91c1.61,1.33,2.23,2.71,2.36,4.83-1.94-.18-2.33-.34-4.2-.95-.92-1.76-.8-.94-.17-3.15,1.53-.04.89.22,2.01-.74Z"/>
      <path class="cls-2" d="M173.83,40.7l-3.01-3.57.51-.64,4.41.07,2.17,1.38c4.95,2.05,7.26,4.67,10.56,8.97-1.12.96-.48.7-2.01.74-2.39-1.61-4.75-3.25-7.09-4.93-2.2-1.14-3.04-1.77-5.53-2.01Z"/>
      <path class="cls-7" d="M168.5,27.96c3.37,1.47,3.86,1.88,6.67,4.3,1.28,1.76,3.35,3.57,2.73,5.68l-2.17-1.38-2.51-2.56c-1.25-1.61-2.76-3.45-4.75-3.74l.03-2.3Z"/>
      <path class="cls-7" d="M190.77,52.61c2.86,3.64,5.36,7.38,5.48,12.23-1.87-2.15-2.92-6.5-4.98-9.76l-.5-2.47Z"/>
      <path class="cls-2" d="M173.38,48.05l4.15,1.51c2.12,4.01,3.15,4.82,6.52,7.97.93-1.95.55-2.01,2.05-2.73,2.26.76,2.84.78,5.17.29,2.06,3.26,3.11,7.61,4.98,9.76l.69-.07.71-.77c2.04,1.77,3.88,2.88,4.4,5.38l-.3,1.41-2.71,1.53,1.01,1.53c-1.41,3-.61,10.54.03,13.89-.38,2.6-.63,5.94-1.83,8.14l-.69-.16c-.96,2.09-1.06,3.32-2.76,4.31l-1.21-.93-.52-.26-1.57.5c-2.08,1.51-6.09,2.05-8.62,2.07l-1.21-4.85.64-1.34,2.29,1.72c1.68-.25,1.64-.33,2.99-1.25l1.5.58c.94,1.45,1.87,1.64,3.43,1.36.46-.79.55-.93.63-1.85,1.12-13.64-2.29-22.99-11.12-33.13-4.73-5.43-7.08-10.27-14.67-11.15,3.36-.61,3.79-.85,6.03-3.45Z"/>
      <path class="cls-1" d="M193.05,98.84c1.81-2.75,2.99-21.31.1-24.93-.93-1.16-2.58-3.45-2.61-4.76,2.78-.17,3.67,2.48,6.22,1.89.72.55,1.44.93,2.26,1.29l1.01,1.53c-1.41,3-.61,10.54.03,13.89-.38,2.6-.63,5.94-1.83,8.14l-.69-.16c-.96,2.09-1.06,3.32-2.76,4.31l-1.21-.93-.52-.26Z"/>
      <path class="cls-1" d="M193.57,99.1c1.38-2.4,1.75-8.64,3.46-11.06.4-.56,2.1-.31,3.03-.3-.38,2.6-.63,5.94-1.83,8.14l-.69-.16c-.96,2.09-1.06,3.32-2.76,4.31l-1.21-.93Z"/>
      <path class="cls-1" d="M184.04,57.52c.93-1.95.55-2.01,2.05-2.73,2.26.76,2.84.78,5.17.29,2.06,3.26,3.11,7.61,4.98,9.76l.69-.07c-5.45,4.62-9.61-3.37-12.89-7.25Z"/>
      <path class="cls-2" d="M142.67,48.06c5.27-.44,13.98.08,19.12,1.28l.14.48c-5,.67-16.03-1.55-20.36-.43-15.17,3.93-32.98,15.47-44.17,26.48-2.28,2.44-4.16,10.87-7.75,15.69-.85,3.68-1.39,6.4-1.91,10.13-.68,6.73-2.04,13.3-3.06,19.99-.49,3.21-.42,7.47-.99,10.43l-.21.39c-.9.71-1.06.76-2.11,1.26l-2.03-2.06.46-12.07.47-2.06.23-6.47c.93-6.19,1.02-8.98,2.77-15.18,4.39-12.21,7.46-17.3,16.25-26.27,6.33-5.33,13.36-9.77,20.89-13.18.91.35,1.93-.07,2.33-.96l1.36-.12c5.3-4.28,11.78-6.83,18.57-7.33Z"/>
      <path class="cls-2" d="M80.28,117.56c-.05,4.74-.04,7.77,3.29,11.5l.12,3.04-.21.39c-.9.71-1.06.76-2.11,1.26l-2.03-2.06.46-12.07.47-2.06Z"/>
      <path class="cls-2" d="M87.74,101.68l-.73.46-.6-.85c.12-3.07.98-7.24,2.47-9.92l.77.18c-.85,3.68-1.39,6.4-1.91,10.13Z"/>
      <path class="cls-2" d="M90.73,154c-3.1-5.38-.55-36.8,2.9-43.95.47-.97,1.5.94,3.47.98,3.98-4.78-1.51-6.28.64-12.69,5.77-17.16,19.81-28.8,36.53-35.71l2.27,2.77c-14.76,6.6-26.97,13.62-34.12,28.92-1.79,3.84-.62,6.59-1.5,9.72-1.93,4.6,2.73,5.59,2.12,9.48-1.45,1.41-.81.99-3.16,1.28l-3.54-1.78c-1.28,1.13-.88.76-1.35,2.74-7.31,7.21-.07,10.6.65,15.87l.19,6.85-.02.59c-.26,7.48-2.83,9.56-.34,16.84-2.01-1.07-2.54-1.4-4.75-1.91Z"/>
      <path class="cls-2" d="M172.35,64.35c4.04,3.19,6.88,7.56,10.3,9.95,3.52,10.71,4.79,10.18,6.42,21.97l-1.5-.58c-1.34.91-1.31,1-2.99,1.25l-2.29-1.72c-.96-1.93-1.33-4.94-1.74-7.15-.28-5.99-2.99-5.87-4.07-10.61-.21-4.52-3.88-5.34-4.14-13.11Z"/>
      <path class="cls-2" d="M137.57,61.18c6.22-3.26,18.89-3.8,25.58-1.6-1.61,1.12-6.87,3.65-7.28,4.16-3.72-.57-6.05-1.39-9.79.57-.59.97-1.12,1.69-1.42,2.79-.41-.69-1.79-2.45-2.33-3.19-1.66-.74-3.19-1.77-4.75-2.73Z"/>
      <path class="cls-2" d="M90.73,154c2.2.51,2.74.84,4.75,1.91l1.36,1.6-.46,2.73c1.65,1.57,3.16,3.07,4.52,4.9l-1.38.02c1.07.52,1.06.59,2.23.68-4.47.74-7.06-.44-9.47.09-1.82-1.01-1.21-.5-2.24-2.6.54-2.21,3.18-2.58,5.97-4.59-.58-2.07-3.32-3.52-5.26-4.75Z"/>
      <path class="cls-4" d="M229.69,139.09l3.06,1.22c10.64,8.97,9.98,20.43,4.58,31.85-2.13,5.91-10.88,12.68-15.55,18.64-12.01,19.86-21.72,19.3-43.34,25.96-5.39,1.66-15.7,2.85-21.13,2.63-10.9,1.23-26.59.59-37.42-1.9-1.66-.38-7.35-3.39-9.15-4.33-.72-.22-5.27-2.47-6.09-2.85-9.51-4.46-10.62-5.4-20.72-5.42,2.83-.43,5.54.57,7.59-.81l-.39-1.72c4.11-.51,3.24,2.82,6.25-2.27,4.59,3.01,9.02,5.11,14.06,7.27,21.51,9.2,89.33,11.59,99.33-14.59-1.98,1.35-2.3,2.11-4.26,1.92-.89-3.86.43-8.83,1.18-12.84.49-2.4,1.25-5.16,1.85-7.57,1.78-2,3.46-3.68,4.6-6.1.85-4.87,2.21-6.86,6.65-9.11,2.77-5.45,2.1-10.94.86-16.65l2.48.16c1.99-1.1,1.91-2.21,4.94-2.76l.64-.74Z"/>
      <path class="cls-7" d="M221.63,142.42l2.48.16c3.44,2.83,4.35,3.92,6.44,7.98,4.48,15.39-4.95,15.03-7.77,25.33-3.63,3.03-5.71,11.73-8.88,15.28-.25.29-2.23.78-3.14,1.6-1.98,1.35-2.3,2.11-4.26,1.92-.89-3.86.43-8.83,1.18-12.84.49-2.4,1.25-5.16,1.85-7.57,1.78-2,3.46-3.68,4.6-6.1.85-4.87,2.21-6.86,6.65-9.11,2.77-5.45,2.1-10.94.86-16.65Z"/>
      <path class="cls-3" d="M230.55,150.56c.52-.32,2.32-1.03,2.98-1.32,2.17,3.78,2.94,10.18,4.42,10.99-2.21,7.62-7.27,11.33-14.13,15.1-.34.19-.69.38-1.04.56,2.82-10.3,12.25-9.94,7.77-25.33Z"/>
      <path class="cls-7" d="M229.69,139.09l3.06,1.22c4.7,8.6,6.3,10.09,5.19,19.93-1.47-.81-2.24-7.21-4.42-10.99-.66.28-2.46,1-2.98,1.32-2.09-4.06-3-5.15-6.44-7.98,1.99-1.1,1.91-2.21,4.94-2.76l.64-.74Z"/>
      <path class="cls-3" d="M224.11,142.59c1.99-1.1,1.91-2.21,4.94-2.76.94,1.92,3.91,7.69,4.48,9.42-.66.28-2.46,1-2.98,1.32-2.09-4.06-3-5.15-6.44-7.98Z"/>
      <path class="cls-3" d="M110.73,213.16c3.1-1,8.02,1.48,11.59,2.55,6.59,1.97,30.23.83,34.98,3.68-10.9,1.23-26.59.59-37.42-1.9-1.66-.38-7.35-3.39-9.15-4.33Z"/>
      <path class="cls-3" d="M221.78,190.8c.71-3.5,3.62-9.59,5.91-12.35l.31-.37c2.14-2.57,6.1-5.21,9.33-5.92-2.13,5.91-10.88,12.68-15.55,18.64Z"/>
      <path class="cls-3" d="M207.64,123.66c3.28,3.04,6.62,6.21,9.95,9.18-.65,3.55.82,3.47.85,6.07,1,.98,2.62,2.36,3.2,3.52,1.24,5.72,1.91,11.21-.86,16.65-4.44,2.25-5.79,4.24-6.65,9.11-1.14,2.43-2.83,4.1-4.6,6.1-.6,2.4-1.36,5.17-1.85,7.57-.75,4.02-2.07,8.99-1.18,12.84-3.19-.14-8.25,4.26-11.48,5.74-2.61,1.19-4.57,2.09-7.34,3.03l-.64-1.42c-3.76,1.85-16.93,3.74-21.19,3.66-8.72-.92-12.23,2.17-14.64-7.01,8.51-3.41,13.3-3.99,22.05-6.23,5.02-2.16,20.43-14.72,20.59-21.1.02-.97,1.89-2.79,2.56-3.58.12-.08.24-.17.36-.25,2.75-5.05,6.08-4.49,6.7-10.47l-.36-.67c-.66-4.6,2.04-6.27,1.9-10.83-.08-2.65.64-2.69,2.72-3.84l-1.64.15c-4.29-2.32-1.28-6.42-1.85-9.4l1.8-2.15c2.18-2.72,2.21-3.13,1.59-6.69Z"/>
      <path class="cls-7" d="M207.64,123.66c3.28,3.04,6.62,6.21,9.95,9.18-.65,3.55.82,3.47.85,6.07-2.95,3-.64,7.65-4.57,8.4-3.59-2.69-2.72-5.1-6.14-5.55l-1.64.15c-4.29-2.32-1.28-6.42-1.85-9.4l1.8-2.15c2.18-2.72,2.21-3.13,1.59-6.69Z"/>
      <path class="cls-7" d="M207.68,181.86c-.75,4.02-2.07,8.99-1.18,12.84-3.19-.14-8.25,4.26-11.48,5.74-2.61,1.19-4.57,2.09-7.34,3.03l-.64-1.42c10.75-7.01,9.53-10.62,15.51-20.61l.28-.46c1.87.72,3.02,1.46,4.84.87Z"/>
      <path class="cls-3" d="M214.13,168.19c.29-3.88-2.19-10.59,1.17-12.48,2.41.2,3.59,1.69,5.48,3.37-4.44,2.25-5.79,4.24-6.65,9.11Z"/>
      <path class="cls-3" d="M202.83,180.99c1.07-2.88,1.83-7.27,4.8-8.25l1.88,1.56c-.6,2.4-1.36,5.17-1.85,7.57-1.82.59-2.97-.15-4.84-.87Z"/>
      <path class="cls-2" d="M95.83,138.47l2.96-.1c-.31,2.99-.99,5.86.58,8.16,3.74,1.3.57-.73,4.04.28,2.08,6.48,4.23,5.84,10.97,4.73,6.27,5.38,4.11,1.55,10.86,3.88,5.25-1.31,16.74-4.29,20.03,1.52l-.28,1.77c.34,6.8-.94,10.05-7.12,13.64-5.23.13-11.16,3.48-16.57,4.9-3.45.91-6.88,1.18-9.86,1.95-2.86.78-4.65.94-6.33,3.5-1.85-.47-4.2-.82-6.12-1.17-2.31-2.32-3.45.18-6.38-5.66l-.58-1.24c.31-1.85,1.01-2.05,2.48-3.61,2.93-.53,3.37-.89,5.33,1.69,3,1.61,10.12,1.29,12.28-2.18.3-3.05.49-1.8-1.15-4.81-2.79.18-6.38.11-9.25.13-1.17-.09-1.15-.16-2.23-.68l1.38-.02c-1.36-1.83-2.87-3.34-4.52-4.9l.46-2.73-1.36-1.6c-2.49-7.29.08-9.36.34-16.84l.02-.59Z"/>
      <path class="cls-4" d="M95.83,138.47l2.96-.1c-.31,2.99-.99,5.86.58,8.16,3.74,1.3.57-.73,4.04.28,2.08,6.48,4.23,5.84,10.97,4.73,6.27,5.38,4.11,1.55,10.86,3.88-10.88,5.5-14.8,2.31-26.56,2.49-1,.02-.89.03-1.85-.41l-1.36-1.6c-2.49-7.29.08-9.36.34-16.84l.02-.59Z"/>
      <path class="cls-2" d="M130.32,160.37c1.96-.53,3.52-1.25,5.35-.64.24,1.98-.79,2.52-2.16,3.98-4.07,5-9.85,4.78-15.93,5.82-1.35-.81-5.4-3.36-6.6-3.82l.03-.47c2.59-2.39,15.61-5.61,19.3-4.87Z"/>
      <path class="cls-1" d="M130.32,160.37c1.96-.53,3.52-1.25,5.35-.64.24,1.98-.79,2.52-2.16,3.98-4.61-.28-12.64,2.48-15.11,1,3.86-2.29,7.92-1.81,11.91-4.34Z"/>
      <path class="cls-1" d="M94.53,171.02c2.93-.53,3.37-.89,5.33,1.69l1.12,1.99c3.17,5.2,5.16,3.2,10.47,4.51-2.86.78-4.65.94-6.33,3.5-1.85-.47-4.2-.82-6.12-1.17-2.31-2.32-3.45.18-6.38-5.66l-.58-1.24c.31-1.85,1.01-2.05,2.48-3.61Z"/>
      <path class="cls-2" d="M94.53,171.02c2.93-.53,3.37-.89,5.33,1.69l1.12,1.99c-2.6.5-3.25.84-5.38,2.43-1.46-.44-1.67-.57-2.97-1.25l-.58-1.24c.31-1.85,1.01-2.05,2.48-3.61Z"/>
      <path class="cls-7" d="M126.83,187.55c2.47-.74,5.35-1.24,8.04-1.95,7.31-1.93,12.47-5.53,20.05-5.05,6.58,4.27,17.08,2.3,18.34,11.94-8.75,2.24-13.55,2.82-22.05,6.23-5.96,1.52-22.19,1.12-26.09-4.01-.26-2.57.8-4.65,1.71-7.14Z"/>
      <path class="cls-7" d="M103.42,146.81c-.11-2.66-.46-4.3.87-6.5,1.88.7,1.75,1.2,3.06,3.09l.73.04c6.58.32,20.09-1.9,25.06.35,1.16,1.38.81.61,1.1,2.39l3.9.45c7.64-.24,16.36,4.25,16.16,13.24-.03,1.22-.51,2.12-1.31,3.01-2.52.19-4.13-2.87-7.99-4.17l.28-1.77c-3.29-5.81-14.79-2.83-20.03-1.52-6.75-2.33-4.59,1.5-10.86-3.88-6.75,1.11-8.9,1.75-10.97-4.73Z"/>
      <path class="cls-7" d="M103.42,146.81c-.11-2.66-.46-4.3.87-6.5,1.88.7,1.75,1.2,3.06,3.09l.73.04c6.58.32,20.09-1.9,25.06.35,1.16,1.38.81.61,1.1,2.39l3.9.45c-7.15.08-10.7,3.41-18.75,3.81-6.51.32-10.82-3.09-13.88-2.48l-.26,1.08c2.93,4.08,6.38-.44,9.14,2.5-6.75,1.11-8.9,1.75-10.97-4.73Z"/>
      <path class="cls-3" d="M107.35,143.41l.73.04c6.58.32,20.09-1.9,25.06.35,1.16,1.38.81.61,1.1,2.39-.25-.13-2.89-1.56-2.91-1.56-8.15-.6-18.55,9.42-23.99-1.21Z"/>
      <path class="cls-2" d="M99.88,114.79c2.35-.3,1.71.13,3.16-1.28.61-3.88-4.05-4.88-2.12-9.48,1.07,11.51,23.47,4.89,28.18,14.05-.75,5.9-6.03,4.05-9.11,5.3-7.75,3.12-9.94,0-17.4-.69l-.43-.04c-3.38.05-2.42-.38-4.89,1.07-1.59,2.2-1.52,5.17-1.63,7.91-.72-5.27-7.96-8.66-.65-15.87.47-1.99.07-1.62,1.35-2.74l3.54,1.78Z"/>
      <path class="cls-1" d="M95,115.76c.47-1.99.07-1.62,1.35-2.74l3.54,1.78.4.18,1.4,5.25c-2.84.29-6.27,1.88-8.11,1.15-.49-2.07.52-3.57,1.42-5.63Z"/>
      <path class="cls-2" d="M100.29,114.98c2.31.26,2.62.64,4.43,2.17l.63,1.52c-1,1.44-1.82,1.44-3.66,1.56l-1.4-5.25Z"/>
      <path class="cls-3" d="M185.74,125.14c3.02-3.14,3.57-3.07,7.66-2.49l3.3.25c3.24,2.42,6.3,5.18,9.34,7.45l-1.8,2.15-.37-.06c-2.29,4.28.53,8.99-3.63,11.36-1.1.63-4.97-.7-6.18-1.69l-.08-.76c-2.86.39-8.48-2.83-10.68-4.66.3-2.16.81-2.19,2.32-4.06.39-3.09-1.14-5.35-2.89-7.89l1.52.88,1.5-.48Z"/>
      <path class="cls-7" d="M185.74,125.14c3.02-3.14,3.57-3.07,7.66-2.49l3.3.25c-1.86,1.76-1.37.88-1.9,3.32-1.12,2.17-.45,1.57-2.43,2.78l-2.79-.07c-2.54-1.57-1.43-1.87-5.34-3.3l1.5-.48Z"/>
      <path class="cls-7" d="M185.74,125.14c3.02-3.14,3.57-3.07,7.66-2.49-1.27,1.83-1.65,2.85-3.74,3.47-1.89-.25-2.19-.25-3.92-.98Z"/>
      <path class="cls-3" d="M193.98,141.34l1.56-.44,1.42.96,1.06-.34.35-1.51,1.55.04c1.32-1.37.91-.56,1.13-2.58-.82-1.65-1.36-2.36-1.44-4.15,1.98-1.25,1.54-.84,4.27-.88-2.29,4.28.53,8.99-3.63,11.36-1.1.63-4.97-.7-6.18-1.69l-.08-.76Z"/>
      <path class="cls-3" d="M194.8,126.22l1.88,3.3c.94,1.67,1.13,3.8.17,5.51-3.56.95-6.2-3.25-7.26-6.11l2.79.07c1.97-1.21,1.31-.6,2.43-2.78Z"/>
      <path class="cls-3" d="M92.05,174.63l.58,1.24c2.93,5.84,4.06,3.34,6.38,5.66l-.88.3c-2.21.33-2.32.3-3.85,1.82-1.78,4.8,3.51,10.27,6.38,14.17-3.63-.73-2.9-1.33-6.93-.15l3.63,2.42c-3.01,5.08-2.14,1.75-6.25,2.27-1.84-.83-3.48-2.73-4.97-4.2-2.73-2.75-3.54-5.57-4.59-9.18l-.53-4.29c.75.64.98.68,1.86,1.14,3.42-1.1,7.23-8.05,9.17-11.21Z"/>
      <path class="cls-4" d="M81.55,188.99c5.24,2.92,2.54,5.26,5.16,4.52.71-2.22.71-2.8.81-5.15,3,4.08,2.21,5.21,6.23,9.31l3.63,2.42c-3.01,5.08-2.14,1.75-6.25,2.27-1.84-.83-3.48-2.73-4.97-4.2-2.73-2.75-3.54-5.57-4.59-9.18Z"/>
      <path class="cls-3" d="M154.92,180.54l1.1-.17.85-1.65c2.02-1.27,3.5-2.55,5.33-4.06l.85.15-.03,1.23c-1.13,1.75-2.78,2.07-4.81,2.87l-.41.97c1.77,1.72,3.53,1.99,5.81,2.73,3.07,1,1.65-1.05,3.98-2.12l.64.71c-3.49,5.02,4.24,3.38,8.1,8.36l1.11-.82c-.22-.24-.43-.48-.64-.73-1.65-1.94-2.12-2.71-1.95-4.93l1.28-1.07c3.51-.74,3.79-.29,5.41,2.52l.82.14c.25-7.58,2.16-9.91,1.85-20.01-1.6.99.14,1.72-2.96,2.86l-.75-.44,1.64-2.32-1.09-1.34.12-.8c2.22-.58,2.47-.79,4.51-.03,1.36,1.5,1.23,2.38,1.38,4.44l.05.75.58-.68c-.26-1.47-.57-2.41-.13-3.83l.6.22c1.21,2.69,2.07,4.33,2.65,7.24-.83,1.15-1.38,1.63-1.4,3.05l1.61,1.44c2.84-1.66-.43-5.05,5.4-7.4-.67.79-2.54,2.62-2.56,3.58-.16,6.38-15.57,18.93-20.59,21.1-1.25-9.63-11.75-7.67-18.34-11.94Z"/>
      <path class="cls-3" d="M203.87,132.44l.37.06c.56,2.98-2.45,7.07,1.85,9.4l1.64-.15c-2.07,1.14-2.8,1.19-2.72,3.84.14,4.56-2.57,6.23-1.9,10.83-1.01-1.09-1.53-2.34-2.79-3.67l-2.12.9c-1.61-1.83,1.44-5.45-1.7-7.98-2.7.08-3.32.75-5.66,2.29-1.68,1-4.73,2.84-6.64,2.09l.42-1,2.42-.67.24-.92c-1.68.19-2.34.38-3.98.83-.42-2.21-.48-2.52.12-4.68,3.46-3.44,4.12-.44,9.98-1.39l.66-.11c1.21.99,5.08,2.32,6.18,1.69,4.16-2.36,1.35-7.08,3.63-11.36Z"/>
      <path class="cls-7" d="M190.83,147.95c2.34-1.53,2.96-2.21,5.66-2.29,3.15,2.53.1,6.15,1.7,7.98l2.12-.9c1.26,1.33,1.78,2.58,2.79,3.67l.36.67c-2.05,1.78-6.28,4.58-8.67,2.6-1.67-9.28-4.84-3.6-7.58-8.02,1.8-1.12,2.02-1.49,3.28-3.23l.34-.48Z"/>
      <path class="cls-2" d="M95.65,131.63c.11-2.74.04-5.72,1.63-7.91,2.46-1.45,1.5-1.01,4.89-1.07-1.73,5.43,2.16,12.45-3.37,15.73l-2.96.1-.19-6.85Z"/>
      <path class="cls-7" d="M100.66,197.83c-2.87-3.9-8.15-9.37-6.38-14.17,1.53-1.52,1.64-1.49,3.85-1.82,1.13,10.47,2.31,4.25,6.55,10.72.31,2.53.22,1.73-.84,4.37-1.72,1.18-.95.88-3.18.89Z"/>
      <path class="cls-4" d="M111.46,179.21c2.98-.77,6.41-1.05,9.86-1.95,5.41-1.42,11.33-4.77,16.57-4.9-4.99,4.16-17.33,8.76-23.76,9.61-2.72.36-6.48.18-9,.74,1.67-2.56,3.47-2.72,6.33-3.5Z"/>
      <path class="cls-7" d="M165.85,205.71c4.26.08,17.43-1.81,21.19-3.66l.64,1.42c-7.06,2.94-22.22,6.13-29.5,4.63l.09-.66c3.21-1.69,3.93-1.61,7.58-1.72Z"/>
      <path class="cls-2" d="M137.57,61.18c1.56.96,3.09,1.98,4.75,2.73-1.63.78-4.13,2.46-5.77,1.49l-2.27-2.77,3.29-1.45Z"/>
      <path class="cls-7" d="M146.23,72.27c.29.14,1.03,1.13,1.29,1.46l-.18,1.2c-11.27,4.37-25.56,15.98-35.23,18.96l-1.05-.28-.14-1c2.14-2.55,4.23-5.13,6.28-7.75,7.39-1.86,13.83-12.16,29.02-12.59Z"/>
      <path class="cls-3" d="M165.94,125.91c1,.39.54.17,1.34,1.13-.17,3.55-2.7,5.31-5.29,7.7l-1.6-.52c-2.59-3.81,2.73-6.58,5.55-8.31Z"/>
      <path class="cls-3" d="M180.63,150.46c2.53.85,8.31,3.4,7.47,6.8l-.57-.68c-2-4.12-3.48-.32-7.17-1.87-.64-1.91-.38-2.2.27-4.25Z"/>
      <path class="cls-3" d="M159.78,118.33l3.04.35c1.46,1.26,1.01.93,1.64,3.12-3.48-.29-3.45-.42-4.68-3.47Z"/>
      <path class="cls-7" d="M217.58,132.84c4.2,2,8.14,3.78,12.11,6.25l-.64.74c-3.04.54-2.95,1.66-4.94,2.76l-2.48-.16c-.57-1.16-2.2-2.54-3.2-3.52-.04-2.59-1.5-2.51-.85-6.07Z"/>
    </g>
  </g>
</svg>