<?xml version="1.0" encoding="UTF-8"?>
<svg id="Capa_2" data-name="Capa 2" xmlns="http://www.w3.org/2000/svg" viewBox="0 0 235.99 250">
  <defs>
    <style>
      .cls-1 {
        fill: #353a59;
      }

      .cls-2, .cls-3 {
        fill: #fff;
      }

      .cls-4 {
        fill: #2b2d43;
      }

      .cls-5 {
        fill: #e87782;
      }

      .cls-6 {
        letter-spacing: .02em;
      }

      .cls-3 {
        font-family: PlusJakartaSans-SemiBold, 'Plus Jakarta Sans';
        font-size: 28px;
        font-weight: 600;
      }

      .cls-7 {
        letter-spacing: .02em;
      }

      .cls-8 {
        letter-spacing: .03em;
      }
    </style>
  </defs>
  <g id="ICONS">
    <g>
      <g>
        <path class="cls-1" d="M82.67.06c2.72-.14,5.7.66,7.7.49,15.76-1.89,27.78,1.28,42.41,6.55,62.46,22.64,75.55,123.37,20.59,160.83-14.63,9.98-25.13,10.22-39.7,16.66,2.6,5.57,9.23,16.66,5.34,21.86-5.32,2.83-11.31,1.6-17.46,1.14,3.64,14.94,5.31,26.24-5.67,38.63-2.93,1.89-8.28,5.96-11.29,2.3.15-6.95,4.3-5,8.72-12.83,5.43-9.62,1.71-17.71-.88-27.69-6.18-.19-15.95,1.93-20.28-1.68-1.92-4.06,3.65-15.8,5.28-22.31-15.34-3.58-29.82-8.12-42.75-17.5-18.15-13.2-30.19-33.19-33.37-55.41C-6.31,59.42,19.42,12.95,71.6,1.93c3.71-.78,7.33-1.35,11.08-1.87Z"/>
        <path class="cls-2" d="M71.99,10.49c23.32-6.38,48.25-2.53,68.57,10.57.47.03.94.06,1.41.09,32.41,15.84,46.53,68.25,36.7,98.73-7.87,24.42-19.51,36.89-36.88,46.22-23.39,12.3-50.71,14.82-75.95,6.99C-11.38,149.5-12.23,41,61.13,12.45c3.34-1.3,7.45-3.1,10.87-1.96Z"/>
        <path class="cls-4" d="M140.56,21.07c.47.03.94.06,1.41.09,32.41,15.84,46.53,68.25,36.7,98.73-7.87,24.42-19.51,36.89-36.88,46.22-23.39,12.3-50.71,14.82-75.95,6.99C-11.38,149.5-12.23,41,61.13,12.45c3.34-1.3,7.45-3.1,10.87-1.96C33.25,21.09,7.18,57.33,9.47,97.43c2.29,40.1,32.3,73.15,72,79.27,39.7,6.12,78.27-16.35,92.53-53.9,14.26-37.55.32-79.96-33.44-101.73Z"/>
        <path class="cls-1" d="M111.34,136.48c-6.48-12.88,4.03-18.66,15.86-17.56,10.59,2.18,20.34,4.22,25.75,14.73.28,7.23-1.3,12.1-7.37,16.55-7.34,7.91-19.36,12.56-28.51,3.83-5.32-5.08-5.53-10.64-5.73-17.54Z"/>
        <path class="cls-5" d="M111.34,136.48c-6.48-12.88,4.03-18.66,15.86-17.56l1.18,3.03c-9.49,1.66-13.96,5.15-17.04,14.53Z"/>
        <path class="cls-5" d="M127.19,118.92c10.59,2.18,20.34,4.22,25.75,14.73l-5.48,2.74c-3.26-10.4-9-13.14-19.09-14.44l-1.18-3.03Z"/>
        <path class="cls-5" d="M147.47,136.39l5.48-2.74c.28,7.23-1.3,12.1-7.37,16.55l.78-3.18c1.22-5,1.22-5.6,1.11-10.63Z"/>
        <path class="cls-5" d="M126.37,129.16c6.05-1.76,12.38,1.7,14.16,7.74,1.78,6.04-1.66,12.39-7.7,14.19-6.06,1.81-12.44-1.65-14.23-7.72-1.79-6.07,1.69-12.44,7.76-14.21Z"/>
        <path class="cls-1" d="M45.15,138.59c-2.65-1-5.05-2.56-7.02-4.59-3.66-3.68-5.43-7.97-5.14-13.18.22-4.86,2.44-9.41,6.13-12.59,5.83-5.01,11.53-4.59,18.52-3.9,15.92.18,21.6,14.05,14.81,27.38-6.78,11.23-15.45,17.01-27.28,6.88Z"/>
        <path class="cls-5" d="M57.63,104.33c15.92.18,21.6,14.05,14.81,27.38l-3.31-2.21c3.59-12.13-.25-19.74-11.49-25.17Z"/>
        <path class="cls-5" d="M45.15,138.59c10.39.99,17.92.54,23.97-9.09l3.31,2.21c-6.78,11.23-15.45,17.01-27.28,6.88Z"/>
        <path class="cls-5" d="M49.27,111.07c5.81-1.1,11.46,2.57,12.81,8.32,1.36,5.75-2.06,11.56-7.75,13.17-3.91,1.11-8.11-.02-10.94-2.94s-3.83-7.15-2.6-11.03c1.23-3.87,4.48-6.76,8.48-7.52Z"/>
        <path class="cls-1" d="M39.29,61.62c-23.53-21.36,21.41-47.86,34.5-24.99,2.73,4.77,1.19,10.05-.58,14.78-6.96,15.83-19.1,19.48-33.92,10.21Z"/>
        <path class="cls-5" d="M39.29,61.62c-23.53-21.36,21.41-47.86,34.5-24.99,2.73,4.77,1.19,10.05-.58,14.78-1.01-6.96-1.37-12.05-7.47-16.62-8.61-6.45-21.36-3.36-27.02,5.31-4.74,7.25-1.53,12.46,1.68,19.4-.37.7-.74,1.41-1.1,2.11Z"/>
        <path class="cls-5" d="M52.87,37.91c14.72-.02,18.82,14.4,3.86,22-15.52-.19-19.18-15.51-3.86-22Z"/>
        <path class="cls-1" d="M138.92,78.06c7.85-1.66,8.95-2.95,17.15-1.54,17.65,2.5,16.22,26.11,3.79,34.18-4.44,2.88-6.7,2.25-11.72,1.83-3.99-1.02-6.94-2.06-9.99-4.89-3.99-3.67-6.32-8.81-6.44-14.23-.17-6.7,2.76-10.88,7.21-15.35Z"/>
        <path class="cls-1" d="M156.07,76.52c17.65,2.5,16.22,26.11,3.79,34.18-4.44,2.88-6.7,2.25-11.72,1.83,11.36-8.39,19.78-5.2,18.44-24.06-3.39-6.17-5.61-7.14-10.51-11.96Z"/>
        <path class="cls-5" d="M149.3,81.98c14.3,2.25,18.2,18.57,3.24,23.5-16.87-2.02-18.67-20.02-3.24-23.5Z"/>
        <path class="cls-1" d="M92.89,68.46c8.23-2.22,16.71,2.63,18.97,10.85,2.26,8.22-2.54,16.72-10.75,19.03-8.27,2.32-16.85-2.53-19.12-10.81-2.28-8.28,2.61-16.83,10.91-19.07Z"/>
        <path class="cls-5" d="M89.28,86.32l-.43.34-.84-.58c-1.23-6.96,2.81-13.51,10.14-12.33,2.14,1.44,1.51.5,2.56,2.55,3.24,1.68,4.97,5.32,4.23,8.89-.74,3.58-3.76,6.22-7.4,6.49-3.64.26-7.01-1.92-8.26-5.36Z"/>
        <path class="cls-4" d="M89.28,86.32l-.43.34-.84-.58c-1.23-6.96,2.81-13.51,10.14-12.33,2.14,1.44,1.51.5,2.56,2.55-2.98-1.55-6.62-1.12-9.15,1.1-2.53,2.22-3.44,5.76-2.29,8.92Z"/>
        <path class="cls-1" d="M121.85,28.13c6.8-1.38,13.44,2.98,14.86,9.77,1.43,6.79-2.9,13.46-9.68,14.93-6.84,1.48-13.58-2.89-15.02-9.74-1.44-6.85,2.97-13.56,9.83-14.96Z"/>
        <path class="cls-2" d="M121.12,36.4c1.46-1.21,3.46-1.53,5.23-.85,1.77.68,3.03,2.27,3.29,4.15.27,1.88-.5,3.75-2.01,4.9-2.27,1.73-5.5,1.33-7.28-.91-1.77-2.23-1.43-5.48.76-7.29Z"/>
        <path class="cls-1" d="M84.41,146.12c3.48-1.17,7.26.67,8.48,4.14,1.22,3.46-.56,7.27-4.01,8.55-2.28.84-4.83.39-6.68-1.17-1.85-1.57-2.72-4.01-2.26-6.4.46-2.38,2.16-4.34,4.46-5.11Z"/>
        <path class="cls-1" d="M25.57,78.06c2.99-1.37,6.53-.06,7.9,2.93,1.37,2.99.05,6.53-2.94,7.9-2.99,1.37-6.53.05-7.89-2.94-1.37-2.99-.06-6.52,2.93-7.9Z"/>
        <path class="cls-2" d="M88.31,185.64c4.95.19,10.18,0,15.16-.09,2.57,4.76,4.17,8.54,6.28,13.54l-8.07-1c-8.57-.83-11.39-.32-19.84,1.23,2.31-5.51,3.34-8.55,6.47-13.68Z"/>
      </g>
      <g>
        <path class="cls-4" d="M218.65,222.14h-77.33c-9.57,0-17.33-7.76-17.33-17.33v-30.33c0-9.57,7.76-17.33,17.33-17.33h77.33c9.57,0,17.33,7.76,17.33,17.33v30.33c0,9.57-7.76,17.33-17.33,17.33Z"/>
        <text class="cls-3" transform="translate(136.25 188.24)"><tspan class="cls-8"><tspan x="0" y="0">HELIO</tspan></tspan><tspan class="cls-7" x="18.58" y="24">2</tspan><tspan class="cls-6" x="35.74" y="24">4”</tspan></text>
      </g>
    </g>
  </g>
</svg>