<?xml version="1.0" encoding="UTF-8"?>
<svg id="Capa_2" data-name="Capa 2" xmlns="http://www.w3.org/2000/svg" viewBox="0 0 220 258.72">
  <defs>
    <style>
      .cls-1 {
        fill: #fdf9ef;
      }

      .cls-2 {
        fill: #e87782;
      }

      .cls-3 {
        fill: #31375d;
      }

      .cls-4 {
        fill: #f0253e;
      }
    </style>
  </defs>
  <g id="ICONS">
    <g>
      <path class="cls-3" d="M37.69.26c7.72-1.16,26.81,1.21,26.51,15.2-.05,2.47-1.14,5.88-.82,8.4,1.11,8.64,3.2,9.63-2.38,16.91,1.01,7.44,5.58,48.51,7.27,51.28,11.34,18.55,16.79,15.75,17.36,45.15.62,32.16,1.43,68.33-1.34,100.59-.09,1.04-2.32,3.67-2.99,4.55-8.35,9.9-20.69,11.69-31.91,11.8-13.8-1.74-35.39,1.28-44.42-15.35-6.26-11.52-3.73-33.72-3.95-47.46-.4-24.53-2.68-49.87,1.36-74.15,1.58-10.74,14.05-21.04,16.78-29.97,3.77-12.32,4.17-31.88,5.84-45.38-6.03-6.62-4.56-11.76-.42-18.79C16.91,7.78,26.78,2.39,37.69.26Z"/>
      <path class="cls-1" d="M8.37,134.9c3.6,1.1,8.5,3.9,13.1,5.34,12.83,4.04,27.17,3.93,40.06.37,3.51-.97,12.95-5.41,15.42-5.09,1.63,4.94,2.66,45.87.97,50.53-2.78,3.03-9.23,5.13-13.01,5.87-16.27,3.17-42.24,3.97-56.15-7.14.57-17.04-2.35-32.99-.39-49.89Z"/>
      <path class="cls-4" d="M11.59,144.69c3.22-.37,4.79.07,7.76,1.34,12.32,5.3,25.22,5.95,38.06,3.3,3.17-.66,9.49-1.72,12.34-.07,4.54,5.12,3.49,25.87-.26,31.58-15.23,5.13-33.48,5.61-48.94,1.27-11.39-3.2-10.01-11.4-10.47-22.86-.19-4.76-1.19-10.73,1.51-14.56Z"/>
      <path class="cls-1" d="M33.73,49.42c.94.25,1.05.49,1.85,1.17,1.48,4.3.69,18.39.24,23.48-1.29,14.43-4.29,24.7-13.8,34-1.59-.75-.99-.13-1.81-2,.5-3.18,6.96-10.96,9.18-17.49,2.98-8.76,2.44-34.25,4.33-39.16Z"/>
      <path class="cls-4" d="M38.09,9.96c3.25-.39,6.53-.35,9.77.11,2.83.41,6.22,1.63,8.04,4.37.11,5.08-6.22,4.9-9.54,5.35-5.02.39-15.98-1.28-18.45-6.78l.92-1.39c2.89-1.84,5.84-1.42,9.26-1.66Z"/>
      <path class="cls-1" d="M17.41,213.23c7.97,1.6,8.21,16.46,3.14,22.43-7.92-2.73-9.75-17.14-3.14-22.43Z"/>
      <path class="cls-1" d="M32.48,27.94c7.65,1.77,20.01-.03,22.9,2.28l-.03,1.37-1.64,1.41c-5.29.85-19.05,4.14-22.77-1.01-.09-2.49-.17-1.59,1.55-4.06Z"/>
      <path class="cls-1" d="M14.41,201.1c3.5.38,7.69.23,10.08,3.12.38,2.35.38,1.44-.84,4-4.92,1.01-11.21.83-9.23-7.12Z"/>
      <path class="cls-1" d="M15.64,108.87c.91.09,1.9.34,2.81.53,1.57,1.55,1.13.59,1.41,2.95-.76,2.78-1.85,3.87-3.5,5.97-.82.28-1.39.26-2.24.34-2.91-2.52-.08-7.11,1.52-9.79Z"/>
      <path class="cls-3" d="M154.88,79.53c11.78-1.44,46.42-.21,54.98,11.62,2.07,2.87.2,7.87-.86,11.17,2.97,3.33,5.81,6.75,8.54,10.28,2.44,27.69,1.24,57.54,1.52,85.37.08,7.38,1.93,27.67.25,33.66-4.8,17.12-23.98,25.63-40.39,26.47-8.69.91-17.46.78-26.13-.37-19.09-2.57-29-10.2-35.3-29.48-1.94-6.58-.56-15.25-1.6-21.58-2.1-12.74-.7-23.67-.53-36.29.25-19.02-.03-38.29,1.71-57.26.69-7.63,6.94-12.37,12.56-16.48.43-3.11.79-6.77,2.63-9.37,4.04-5.72,15.95-7.03,22.63-7.75Z"/>
      <path class="cls-1" d="M127.24,119.87c25.64,9.25,54.33,10.67,80.34,2.11.05.39.1.78.15,1.16,1.2,21.89,2.24,43.74,1.22,65.67-.47,10.31,3.47,34.95-2.98,42.87-10.94,7.16-28.28,7.53-41.07,6.57-10.04-.75-29.16-2.48-35.64-10.88-5.87-7.6-4.02-96.12-2.03-107.5Z"/>
      <path class="cls-2" d="M133.6,153.42c4.76-.22,12.36,3.2,17.7,4.66,4.91,1.31,9.95,2.09,15.02,2.34,4.75.25,8.69.09,13.4-.33,6.18-.54,17.55-4.57,23.16-3.01,4.72,4.06,2.12,34.05-1.68,39.74-14.95,10.53-49.74,9.1-65.17-.78-6.21-3.97-4.4-14.42-4.16-20.93.21-5.89-1.78-17.17,1.74-21.7Z"/>
      <path class="cls-1" d="M157.01,85.66c7.58-1.39,47.88.17,45.95,11.12-3.72,4.15-13.89,4.82-19.3,5.31-7.46.92-50.66-.19-46.07-11.6,4.06-3.38,14.2-4.47,19.43-4.83Z"/>
      <path class="cls-3" d="M163.63,90.21c5.55-1.08,19.01-.39,22.39,4.64l-.54,1.49c-2.2,1.7-3.27,1.77-5.91,2.35-3.23.08-6.44.12-9.67.13-4.19-.02-10.78-.23-13.84-3.31-.56-4.41,4.32-4.76,7.57-5.3Z"/>
      <path class="cls-1" d="M138.77,105c14.09,6.08,27.39,8.22,42.49,7.02,3.69-.29,11-1.66,12.42,2.34-1.44,2.75-4.78,3.13-7.53,3.51-7.77,4.23-45.43,2.07-53.3-4.83-1.04-.92-.75-1.98-.67-3.19,1.28-2.36,4.16-3.53,6.59-4.84Z"/>
      <path class="cls-1" d="M138.06,240.76c10.46-.84,29.12,6.01,41.37,3.49,2.18-.45,13.22-1.75,14.46-1.07l.18,1.38c-7.88,5.83-20.99,4.11-30.34,3.44-8.98-.64-18.96-.6-25.68-7.23Z"/>
    </g>
  </g>
</svg>