<?xml version="1.0" encoding="UTF-8"?>
<svg id="Capa_2" data-name="Capa 2" xmlns="http://www.w3.org/2000/svg" xmlns:xlink="http://www.w3.org/1999/xlink" viewBox="0 0 247.06 220">
  <defs>
    <style>
      .cls-1 {
        fill: url(#Degradado_sin_nombre_5);
      }

      .cls-2 {
        fill: #353a59;
      }

      .cls-3 {
        fill: url(#Degradado_sin_nombre_19);
      }

      .cls-4 {
        fill: #2b2d43;
      }

      .cls-5 {
        fill: #e87782;
      }

      .cls-6 {
        fill: #d9042a;
      }

      .cls-7 {
        fill: url(#Degradado_sin_nombre_17);
      }

      .cls-8 {
        fill: #fff;
        font-family: PlusJakartaSans-SemiBold, 'Plus Jakarta Sans';
        font-size: 36px;
        font-weight: 600;
        letter-spacing: .05em;
      }

      .cls-9 {
        fill: #f9f2eb;
      }
    </style>
    <linearGradient id="Degradado_sin_nombre_5" data-name="Degradado sin nombre 5" x1="1470.62" y1="-311.62" x2="1496" y2="-316.74" gradientTransform="translate(-999.24 -25.99) scale(.62 -.62)" gradientUnits="userSpaceOnUse">
      <stop offset="0" stop-color="#2b2d43"/>
      <stop offset="1" stop-color="#353a59"/>
    </linearGradient>
    <linearGradient id="Degradado_sin_nombre_17" data-name="Degradado sin nombre 17" x1="1603.4" y1="-337.42" x2="1619.79" y2="-323.66" gradientTransform="translate(-999.24 -25.99) scale(.62 -.62)" gradientUnits="userSpaceOnUse">
      <stop offset="0" stop-color="#353a59"/>
      <stop offset="1" stop-color="#d9042a"/>
    </linearGradient>
    <linearGradient id="Degradado_sin_nombre_19" data-name="Degradado sin nombre 19" x1="1696.71" y1="-465.03" x2="1707.89" y2="-454.15" gradientTransform="translate(-999.24 -25.99) scale(.62 -.62)" gradientUnits="userSpaceOnUse">
      <stop offset="0" stop-color="#353a59"/>
      <stop offset="1" stop-color="#2b2d43"/>
    </linearGradient>
  </defs>
  <g id="ICONS">
    <g>
      <g>
        <path class="cls-9" d="M64.46,12.37C73.75,4.49,80.29.06,92.8.04c5.68-.18,7.81.3,13.26,1.94,19.28-5.42,36.52,3.54,53.87,11.34,3.23,1.45,9.02,5.73,11.47,8.25,6.3,6.7,11.75,8.22,17.76,16.18,3.35,4.69,7.09,10.1,9.28,15.46l.22.4c3.84,6.54,9.12,11.81,9.68,20.58,1.24,3.07,2.95,6.89,3.18,10.14l.14.36,1.73,6.77c1.62,4.78,1.95,7.51,1.88,12.54,2.06.7,5.89,1.65,7.01,3.37,5.09,3.26,6.03,5.86,8.02,11.56-1.06,4.37-3.08,9.41-5.08,13.45-1.47,3.23-4.39,10.09-6.05,12.86-3.16,7.89-6.04,16.68-9.71,24.27-4.25,8.81-6.91,18.41-12.36,26.43-.39.58.61,4.78-.83,5.53-3.54,3.31-10.53,6.69-15.14,8.17-2.94.76-4.16.48-6.57,1.08-8.89,2.21-26.27,8.48-34.89,7.97-.98-1.07-1.66-1.26-2.98-1.86l-.38-2.22-.98-6.72c.75-2.83.75-3.21.38-6.08l.52-.52c2-1.41,2.15-1.91,3.17-4.06.26-.21,1.83-1.99,2.15-2.34-.35-.93-.45-3.12-.57-4.22-2.47,1.81-3.22,2.61-6.31,2.99h-.57c-3.03-.55-4.74-3.11-7.52-5.35-.52-5.2-.02-6.2-2.41-10.85l-2.15,1.03-4.56,4.1c-1.52,1.19-1.69,1.03-2.52,2.76.12,1.25.08,1.85.75,2.92-1.25.86-1.53,1.73-2.2,3.08-1.32.94-2.13.79-3.82.89l-2.78-1.47c-1.17,1.62-.6,3.45-.37,5.76l-3.71-.02-1.15.79-6.06,5.36,2.35,1.94-.14.9c-.76.3-1.63.67-2.39.93l.12.68c2.58,1.61,3.22,1.36,3.15,4.68l2.55.66c3.89.22,7.09-.02,10.39,2.01-2.61,2.86-9.75,3.71-11.67,5.41-15.14-1.92-21.31-1.96-37-6.28-21.26-5.63-11.79-4.77-28.05-17.26l3.04-1.07-.48-1.99c-.52-1.71-.28-2.48-.72-3.9-.93-3.05-3.28-6.76-3.47-9.87-1.58-3.47-3.15-6.95-4.69-10.44-1.02-2.93-2.02-5.75-2.83-8.75l1.21-.32.32.44c1.59,2.21,2.19,3.5,3.38,5.95l1.12-.29c2.42.72,3.02,2.21,4.41,4.21l.47,1.19,2.94,3.84,2.01,1.14,1.79-.53,1.52-.84c-1.42-.82-.88-.24-1.52-1.91-1.09-2.94-1.86-3.32-2.72-7l3.04-1.66c-.81-1.79-1.75-3.64-2.62-5.41-1.33-1.84-1.64-2.39-3.55-3.7l1.16-.57c1.93-.76,3.22-1.56,5.15-1.08.86.87.96.8,1.46,1.9l.92,1.16c2.03-.08,2.55.01,4.06-1.28,1.9-5.1-3.61-7.18-4.8-11.27l1.28-3.96-.49.05c-.32-2.11-5.63-8.59-7.81-9.48-1.1-.45-1.18-.45-2.34-1.35-.99-.39-2.44-.69-3.52-.96-4.06-1.24-2.69-4.98-6.25-6.6.03-.29.05-.57.07-.86.14-2.88-.63-3.18-2.65-5.39l.21-.41c.53-1.79.48-1.05-.12-2.95-1.97-1.4-3.22-2-4.01-4.31-.04-2.17-.1-2.41-1.25-4.24-.65-1.19-.58-1.99-.77-3.41l.41-3.41c-.18-2.43-.62-3.86-1.23-6.21l-.15.89-.38-.63c-2.62-22.74,4.09-14.94,6.49-30.71,1.67-7.99,4.94-15.21,11.56-20.12,2.49-1.2,4.98-2.15,6.32-4.53,1.4-3.74,2.96-6.64,5.02-10.03,3.98-6.26,12.13-9.98,18.58-13.23Z"/>
        <path class="cls-4" d="M213.38,91.44c1.62,4.78,1.95,7.51,1.88,12.54,2.06.7,5.89,1.65,7.01,3.37,5.09,3.26,6.03,5.86,8.02,11.56-1.06,4.37-3.08,9.41-5.08,13.45-1.47,3.23-4.39,10.09-6.05,12.86-3.16,7.89-6.04,16.68-9.71,24.27-4.25,8.81-6.91,18.41-12.36,26.43-.39.58.61,4.78-.83,5.53-3.54,3.31-10.53,6.69-15.14,8.17-2.94.76-4.16.48-6.57,1.08-8.89,2.21-26.27,8.48-34.89,7.97-.98-1.07-1.66-1.26-2.98-1.86l-.38-2.22-.98-6.72c.75-2.83.75-3.21.38-6.08l.52-.52c2-1.41,2.15-1.91,3.17-4.06.26-.21,1.83-1.99,2.15-2.34,4.19,1.11,6.47,3.48,9.03,3.96l1.65-8.49.04-.47c.13-4.1,1.68-7.2,1.24-10.8l1.41-1.82c.43-2.06,1.29-5.34,1.04-7.3l.52-.59c-1.15-.58-1.39-1.04-2.32-1.98l-.32-2.46c.45-4.55,0-7.56,4.56-9.57,3.95-1.84,4.61-5.18,7.68-5.93l.08-.26c-1.47-1.16-3-1.72-4.78-3.03l-.47.76c-.88-.81-2.11-1.33-3.19-1.88,1.97-2.95,2.91-3.24,6.23-3.85l.52-.18c2.67-.37,4.79-2.2,7.05-3.78l3.02-1.69,1.43-2.47.73.74c1.65-.98,19.87-22.41,20.68-24.28l.2-.43c.98-2.06,1.64-2.96,2.64-5.31l1.24-1.01v-.61s.68-.23.68-.23c.35-2.18.7-4.54,2.12-6.17,1.95-1.3,3.51-.98,5.91-.93l-.05-1.83c1-.36,2.27-1.05,3.25-1.55Z"/>
        <path class="cls-5" d="M213.38,91.44c1.62,4.78,1.95,7.51,1.88,12.54,2.06.7,5.89,1.65,7.01,3.37,5.09,3.26,6.03,5.86,8.02,11.56-1.06,4.37-3.08,9.41-5.08,13.45-1.57,1.23-2.99,2.35-4.92,2.17-1.95-2.53.08-3.06-2.36-5.58l-1.32-.74-2.95-1.05c-3.76,2.82-2.75,2.58-5.35,5.88-5.16,7.87-5.31,4.13-11.39,3.98-1.68.05-2.36-.45-3.94-1.17l-1.29,1.74c-2.38.36-2.63.77-4.69-.03l-1.98-2c-1.21,2.18-1.45,2.75-3.42,4.41-.28-.98-.56-1.96-.85-2.93l-1.35-.73-.88-.07c-1.83,0-2.31-.16-3.78.78l-.22-1.53,1.43-2.47.73.74c1.65-.98,19.87-22.41,20.68-24.28l.2-.43c.98-2.06,1.64-2.96,2.64-5.31l1.24-1.01v-.61s.68-.23.68-.23c.35-2.18.7-4.54,2.12-6.17,1.95-1.3,3.51-.98,5.91-.93l-.05-1.83c1-.36,2.27-1.05,3.25-1.55Z"/>
        <path class="cls-2" d="M215.26,103.98c2.06.7,5.89,1.65,7.01,3.37,5.09,3.26,6.03,5.86,8.02,11.56-1.06,4.37-3.08,9.41-5.08,13.45-1.57,1.23-2.99,2.35-4.92,2.17-1.95-2.53.08-3.06-2.36-5.58l-1.32-.74-2.95-1.05c1.22-1.2,1.82-1.68,2.66-3.15.07-2.8.11-5.3.41-8.08l-1.38.88c-2.6.62-1.71.73-3.94.11-.94-5.06.98-6.22-.08-8.72.36-2.9,1.28-3.15,3.92-4.22Z"/>
        <path class="cls-2" d="M215.26,103.98c2.06.7,5.89,1.65,7.01,3.37l-.76.61c-2.07-1.16-2.56-1.92-4.59-1.78-.62,1.97-.56,1.13-.13,3.2,1.05-.78,1.14-1.11,1.77-2.23l.58.49c-1.88,3.87-3.84,4-2.4,8.3l-1.38.88c-2.6.62-1.71.73-3.94.11-.94-5.06.98-6.22-.08-8.72.36-2.9,1.28-3.15,3.92-4.22Z"/>
        <path class="cls-5" d="M216.74,115.94l6.24,3.21-.26.52c-1.53,3.1-2.15,7.2-3.73,8.98l-1.05.3-1.32-.74-2.95-1.05c1.22-1.2,1.82-1.68,2.66-3.15.07-2.8.11-5.3.41-8.08Z"/>
        <path class="cls-9" d="M213.38,91.44c1.62,4.78,1.95,7.51,1.88,12.54-2.64,1.07-3.55,1.32-3.92,4.22l-.75.25c-1.05,1.39-1.03,1.88-1.42,3.64l-.04-4.34c-2.83-1.78-2.93-1.73-6.25-1.41l-1.43-3.6v-.61s.68-.23.68-.23c.35-2.18.7-4.54,2.12-6.17,1.95-1.3,3.51-.98,5.91-.93l-.05-1.83c1-.36,2.27-1.05,3.25-1.55Z"/>
        <path class="cls-6" d="M213.38,91.44c1.62,4.78,1.95,7.51,1.88,12.54-2.64,1.07-3.55,1.32-3.92,4.22l-.75.25c.18-3.65-.31-9.72-.42-13.64l-.05-1.83c1-.36,2.27-1.05,3.25-1.55Z"/>
        <path class="cls-5" d="M202.16,101.91c1.92-1.29,3.59-3.66,5.19-4.21.37.44,1.79,9.05,1.81,10.05-2.83-1.78-2.93-1.73-6.25-1.41l-1.43-3.6v-.61s.68-.23.68-.23Z"/>
        <path class="cls-5" d="M175.98,133.04l.73.74c1.65-.98,19.87-22.41,20.68-24.28l.03,4.72c-1.09,2.39-1.89,3.89-3.22,6.16-1.66,6.31-4.8,4.46-7.53,7.8-1.32.89-7.72,6.92-8.13,8.08-1.83,0-2.31-.16-3.78.78l-.22-1.53,1.43-2.47Z"/>
        <path class="cls-2" d="M215.36,116.82l1.38-.88c-.3,2.78-.34,5.28-.41,8.08-.84,1.46-1.45,1.94-2.66,3.15-3.76,2.82-2.75,2.58-5.35,5.88l-2.1-1.18.98-2.36c-.82-.67-1.85-1-2.84-1.41l1.53-4.07c.63-1.04.62-1.68.78-2.88l4.57-2.38.18-1.82c2.23.63,1.34.51,3.94-.11Z"/>
        <path class="cls-5" d="M207.21,129.5c.89-6.3,3.73-6.02,9.12-5.48-.84,1.46-1.45,1.94-2.66,3.15-3.76,2.82-2.75,2.58-5.35,5.88l-2.1-1.18.98-2.36Z"/>
        <path class="cls-2" d="M211.43,116.93c2.23.63,1.34.51,3.94-.11.21,1.69-.41,2.48-1.76,3.47-1.21-.18-1.49-.66-2.35-1.54l.18-1.82Z"/>
        <path class="cls-4" d="M201.47,102.74l1.43,3.6c.85,6.64,1.08,8.94-2.79,14.57-1.76,1.37-1.78,1.73-4.27,1.67l-1.64-2.21c1.32-2.27,2.12-3.77,3.22-6.16l-.03-4.72.2-.43c.98-2.06,1.64-2.96,2.64-5.31l1.24-1.01Z"/>
        <path class="cls-2" d="M197.42,114.21l2.33.36c-1.45,1.45-1.74,1.56-2.05,3.47.64,1.78.76,1.79,2.42,2.87-1.76,1.37-1.78,1.73-4.27,1.67l-1.64-2.21c1.32-2.27,2.12-3.77,3.22-6.16Z"/>
        <path class="cls-2" d="M197.59,109.06c.98-2.06,1.64-2.96,2.64-5.31-.1,3.18-.13,7.78-.48,10.83l-2.33-.36-.03-4.72.2-.43Z"/>
        <path class="cls-5" d="M200.91,128.4c1.37.14,2.12-.07,3.46-.31.99.41,2.02.74,2.84,1.41l-.98,2.36,2.1,1.18c-5.16,7.87-5.31,4.13-11.39,3.98-1.68.05-2.36-.45-3.94-1.17,1.32-1.51,2.82-2.35,4.49-3.46,1.66-2.32,2.06-.96,2.99-3.93l.43-.06Z"/>
        <path class="cls-2" d="M200.91,128.4c1.37.14,2.12-.07,3.46-.31.99.41,2.02.74,2.84,1.41l-.98,2.36c-3.87,1.2-4.54,1.25-8.74.53,1.66-2.32,2.06-.96,2.99-3.93l.43-.06Z"/>
        <path class="cls-2" d="M187.01,137.56c2.89-8.37,4.82-9.28,13.46-9.11-.93,2.97-1.33,1.62-2.99,3.93-1.67,1.12-3.16,1.95-4.49,3.46l-1.29,1.74c-2.38.36-2.63.77-4.69-.03Z"/>
        <path class="cls-9" d="M210.6,108.45l.75-.25c1.06,2.51-.86,3.67.08,8.72l-.18,1.82-4.57,2.38c.09-2.49,1.66-6.53,2.51-9.04.38-1.76.36-2.25,1.42-3.64Z"/>
        <path class="cls-5" d="M186.68,128.17c2.73-3.34,5.87-1.5,7.53-7.8l1.64,2.21c1.18,1.53.98.72.85,2.45-1.39,1.3-6.78,1.88-10.02,3.14Z"/>
        <path class="cls-2" d="M179.42,136.32c1.55-.72,3.82-.65,5.62-.75-1.21,2.18-1.45,2.75-3.42,4.41-.28-.98-.56-1.96-.85-2.93l-1.35-.73Z"/>
        <path class="cls-5" d="M200.91,128.4c.88-1.73,3.06-3.92,4.99-4.38l-1.53,4.07c-1.34.24-2.09.45-3.46.31Z"/>
        <path class="cls-4" d="M160.28,182.34c2.52,1.64,4.62,3.59,7.46,3.74l1.05-.5,1.6.87-1.92,7.83c1.56-1.03,2.44-2.02,3.74-3.33,3.07.68,2.25,2.65,2.22,5.63,5.12,5.74-.31,10.74,5.72,11.48l1,1.56c-2.94.76-4.16.48-6.57,1.08-8.89,2.21-26.27,8.48-34.89,7.97-.98-1.07-1.66-1.26-2.98-1.86l-.38-2.22-.98-6.72c.75-2.83.75-3.21.38-6.08l.52-.52c2-1.41,2.15-1.91,3.17-4.06.26-.21,1.83-1.99,2.15-2.34,4.19,1.11,6.47,3.48,9.03,3.96l1.65-8.49c1.86.45,2.06.28,3.98-.3l2.65-4.77,1.41-2.93Z"/>
        <path class="cls-4" d="M139.41,197.21c5.31,3.06,2.08,10.84,2.01,16.02l-.83,1.32c-.74.91-.74,1.01-1.71,1.65l-2.56-1.6-.98-6.72c.75-2.83.75-3.21.38-6.08l.52-.52c2-1.41,2.15-1.91,3.17-4.06Z"/>
        <path class="cls-9" d="M160.28,182.34c2.52,1.64,4.62,3.59,7.46,3.74l1.05-.5,1.6.87-1.92,7.83-.83.81c-1.72-.01-3.57-1.6-5.12-2.65l-3.55-.05c-.63-2.6,1.3-4.09-.08-7.12l1.41-2.93Z"/>
        <path class="cls-9" d="M160.28,182.34c2.52,1.64,4.62,3.59,7.46,3.74-4.19.78-3.86,2.34-5.23,6.36l-3.55-.05c-.63-2.6,1.3-4.09-.08-7.12l1.41-2.93Z"/>
        <path class="cls-4" d="M141.55,194.86c4.19,1.11,6.47,3.48,9.03,3.96l.75.47c-1.18,1.17-7.27,8.96-7.43,10.3.41.35,1.12.98,1.54,1.26-1.55.95-2.85,1.23-4.03,2.38.07-5.18,3.3-12.97-2.01-16.02.26-.21,1.83-1.99,2.15-2.34Z"/>
        <path class="cls-5" d="M158.87,185.27c1.38,3.03-.55,4.52.08,7.12-1.52,2.6-2.89,5.05-5.24,7.01l-2.38-.11-.75-.47,1.65-8.49c1.86.45,2.06.28,3.98-.3l2.65-4.77Z"/>
        <path class="cls-9" d="M158.87,185.27c1.38,3.03-.55,4.52.08,7.12-1.52,2.6-2.89,5.05-5.24,7.01.81-3.13,1.65-6.25,2.5-9.37l2.65-4.77Z"/>
        <path class="cls-4" d="M145.45,210.85c2.05-.6,2.36-1.04,4.24-.56-.95,1.48-7.28,3.8-9.1,4.26l.83-1.32c1.18-1.15,2.48-1.43,4.03-2.38Z"/>
        <path class="cls-5" d="M191.71,137.6l1.29-1.74c1.58.72,2.25,1.22,3.94,1.17-4.89,3.36-3.39,10.19-8.51,8.38-2.06-1.02-3.85-1.42-6.05-2-2.05,2.7-3.35,4.52-5.11,7.4-.74.15-8.27,1.52-8.69,1.57l-.35-1.93-2.15-1.02.08-.26c-1.47-1.16-3-1.72-4.78-3.03l-.47.76c-.88-.81-2.11-1.33-3.19-1.88,1.97-2.95,2.91-3.24,6.23-3.85l.52-.18c2.67-.37,4.79-2.2,7.05-3.78l3.02-1.69.22,1.53c1.47-.94,1.95-.78,3.78-.78l.88.07,1.35.73c.28.98.56,1.95.85,2.93,1.98-1.67,2.22-2.24,3.42-4.41l1.98,2c2.06.8,2.32.39,4.69.03Z"/>
        <path class="cls-2" d="M174.55,135.5l.22,1.53c1.47-.94,1.95-.78,3.78-.78-1.99,3.12-4.82,6.69-8.33,8.15l-.82,1.46-.9-.21c-.58,1.04-1.43,2.83-2.32,3.5-1.47-1.16-3-1.72-4.78-3.03l-.47.76c-.88-.81-2.11-1.33-3.19-1.88,1.97-2.95,2.91-3.24,6.23-3.85l.52-.18c2.67-.37,4.79-2.2,7.05-3.78l3.02-1.69Z"/>
        <path class="cls-9" d="M174.55,135.5l.22,1.53c-1.15,2.78-1.52,3.28-3.32,5.68-2.18-.5-5.34-1.33-7.48-1.56l.52-.18c2.67-.37,4.79-2.2,7.05-3.78l3.02-1.69Z"/>
        <path class="cls-5" d="M161.39,146.13c2.16-1.85,4.5-.95,7.1-.47-.58,1.04-1.43,2.83-2.32,3.5-1.47-1.16-3-1.72-4.78-3.03Z"/>
        <path class="cls-2" d="M178.54,136.25l.88.07,1.35.73c.28.98.56,1.95.85,2.93l-.08.28c-2.78,2.48-6.02,6.74-9.18,7.14l-2.96-1.53.82-1.46c3.51-1.47,6.34-5.03,8.33-8.15Z"/>
        <path class="cls-2" d="M185.04,135.57l1.98,2c2.06.8,2.32.39,4.69.03-.91,2.59-.3,1.77-2.17,3.43-2.25.66-5.36-.36-8.01-.76l.08-.28c1.98-1.67,2.22-2.24,3.42-4.41Z"/>
        <path class="cls-5" d="M168.49,145.66l.9.21,2.96,1.53c-1.75,2.11-1.45,2.39-4.12,3.04l-2.15-1.02.08-.26c.89-.67,1.74-2.46,2.32-3.5Z"/>
        <path class="cls-2" d="M174.63,168.69c2.88-.51,3.26-.55,6.12.12l3.35,2.93-.15.44c-.62,1.63-.79,2.39-1.85,3.75l.42,2.03c1.89,1.63,2.14,1.82,4.6,2.19-1.05,2.39-2.9,5.82-2.62,8.3l-.7,1.02c-.65-1.16-.95-1.53-1.95-2.41-3.77-.51-6.94,6.56-7.43,9.53.03-2.98.85-4.95-2.22-5.63-1.3,1.31-2.18,2.3-3.74,3.33l1.92-7.83-1.6-.87c-.87-2.03,1.55-7.02,2.43-10.57.87-1.25,2.62-4.8,3.42-6.31Z"/>
        <path class="cls-4" d="M174.63,168.69c2.88-.51,3.26-.55,6.12.12l3.35,2.93-.15.44c-.62,1.63-.79,2.39-1.85,3.75l.42,2.03c-2.05-.32-2.42-.44-4.32.31-4.94,2.34-2.28,6.18-7.8,8.17l-1.6-.87c-.87-2.03,1.55-7.02,2.43-10.57.87-1.25,2.62-4.8,3.42-6.31Z"/>
        <path class="cls-2" d="M182.09,175.93l-1.35-.45c.22-2.07.11-1.39,1.7-3.25l1.5-.05c-.62,1.63-.79,2.39-1.85,3.75Z"/>
        <path class="cls-6" d="M170.38,186.45c5.52-2,2.86-5.84,7.8-8.17-.62,1.82-2.74,7.6-3.02,9.3-.97,1.59-1.1,1.61-2.68,2.68l-.29.7c-1.3,1.31-2.18,2.3-3.74,3.33l1.92-7.83Z"/>
        <path class="cls-9" d="M178.18,178.27c1.91-.75,2.28-.63,4.32-.31-1.84,4.97-1.92,7.98-7.34,9.62.28-1.71,2.39-7.49,3.02-9.3Z"/>
        <path class="cls-2" d="M160.19,165.75c1.53-1.53,2.38-2.37,4.44-2.63l.92.75c-1.56,2.34-2.36,5.54-3.2,8.27,3.2.89,5.79,1.56,8.87,2.86-.88,3.54-3.3,8.54-2.43,10.57l-1.05.5c-2.83-.15-4.93-2.1-7.46-3.74l-1.41,2.93-2.65,4.77c-1.92.58-2.12.75-3.98.3l.04-.47c.13-4.1,1.68-7.2,1.24-10.8l1.41-1.82c.43-2.06,1.29-5.34,1.04-7.3l.52-.59c.98-.73,2.78-2.66,3.71-3.61Z"/>
        <path class="cls-4" d="M157.86,174.61c2.92,3.1,3.03,3.52,2.42,7.73l-1.41,2.93-2.65,4.77c-1.92.58-2.12.75-3.98.3l.04-.47c.13-4.1,1.68-7.2,1.24-10.8l1.41-1.82c.93-.64,2.08-1.82,2.94-2.63Z"/>
        <path class="cls-4" d="M157.86,174.61c1.07-1.57,1.22-1.74,3.02-2.31l.88.37c.41,2.18-.22,4.96.45,5.57,1.68-1.31,3-2.73,5-2.76,2.4,2.2.92,7.49.52,10.6-2.83-.15-4.93-2.1-7.46-3.74.62-4.2.51-4.62-2.42-7.73Z"/>
        <path class="cls-4" d="M184.57,160.14c2.21-.19,3.37-.74,4.78.31l-.22,1.88c1.48.27,3.49.5,4.79,1.1l1.51,1.39c.28-.04,1.25-.14,1.49-.22-.14,2.03-.28,2.81-.75,4.79l-.7-.85c-.57.6-.57.45-.87,1.17l-1.81,2.69c-2.82,2.68-4.06,4.12-5.67,7.75-2.46-.37-2.71-.56-4.6-2.19l-.42-2.03c1.06-1.36,1.23-2.12,1.85-3.75l.15-.44-3.35-2.93c.88-1.44,3.29-7.14,3.82-8.67Z"/>
        <path class="cls-9" d="M184.57,160.14c2.21-.19,3.37-.74,4.78.31l-.22,1.88c-1.63,2.31-2.25,3.28-3.51,5.81l-1.52,3.61-3.35-2.93c.88-1.44,3.29-7.14,3.82-8.67Z"/>
        <path class="cls-4" d="M189.12,162.33c1.48.27,3.49.5,4.79,1.1l1.51,1.39c.28-.04,1.25-.14,1.49-.22-.14,2.03-.28,2.81-.75,4.79l-.7-.85c-.57.6-.57.45-.87,1.17-.33-2-.99-3.09-2.59-4.18-3.34.5-2.35,2.18-6.38,2.61,1.25-2.53,1.88-3.5,3.51-5.81Z"/>
        <path class="cls-9" d="M175.75,162.88c-.32,2.38-.51,3.47-1.12,5.81-.8,1.51-2.55,5.06-3.42,6.31-3.09-1.3-5.67-1.97-8.87-2.86.84-2.73,1.64-5.93,3.2-8.27,4.74,4.21,6.24,3.37,10.21-.99Z"/>
        <path class="cls-4" d="M196.15,169.39c.97.33,1.93.91,2.58.46,2.69-1.9,4.35-5.93,6.99-8.42-1.92,4.05-3.89,7.79-5.98,11.72-2.98,5.63-.68,8.38-8.66,6.75,1.38-2.97,2.43-4.45,1.69-7.51l1.81-2.69c.3-.71.3-.57.87-1.17l.7.85Z"/>
        <path class="cls-6" d="M184.57,160.14c2.53-4.06,10-8.36,14.88-7.2-2.44,2.3-4.08,7.18-5.54,10.49-1.29-.6-3.31-.84-4.79-1.1l.22-1.88c-1.41-1.05-2.57-.49-4.78-.31Z"/>
        <path class="cls-6" d="M175.75,162.88c.37-1.53,1.35-3.23,2.56-4.29,1.67-.33,2-.33,3.55.34.9.39,1.82.8,2.71,1.21-.54,1.53-2.95,7.23-3.82,8.67-2.85-.66-3.24-.63-6.12-.12.62-2.35.81-3.44,1.12-5.81Z"/>
        <path class="cls-4" d="M216.62,128.21l1.32.74c2.44,2.52.41,3.05,2.36,5.58,1.92.18,3.35-.93,4.92-2.17-1.47,3.23-4.39,10.09-6.05,12.86-1.55-3.76.38-9.83-1.36-13.83-.44-1.02-.81-2.13-1.18-3.18Z"/>
        <path class="cls-9" d="M192.78,172.4c.74,3.06-.31,4.54-1.69,7.51-2.83,3.05-4.48,6.29-6.59,8.54-.28-2.49,1.56-5.91,2.62-8.3,1.61-3.63,2.85-5.06,5.67-7.75Z"/>
        <path class="cls-9" d="M200.89,152.26c.54,2.16.35,1.52-.49,3.99-1.7,2.53-2.78,5.39-3.49,8.35-.24.08-1.21.19-1.49.22l-1.51-1.39c1.46-3.31,3.1-8.19,5.54-10.49l1.45-.68Z"/>
        <path class="cls-4" d="M182.38,143.4c2.2.58,3.99.98,6.05,2-5.46,2.03-2.68,3.28-5.6,4.76l-.08-.35c-.22-1.02-.21-1.4-.99-2.09-1.5,1.34-2.59,2.62-4.49,3.08,1.76-2.88,3.05-4.7,5.11-7.4Z"/>
        <path class="cls-2" d="M200.89,152.26l.75-.22c2.26-.7,2.98-1.09,4.81-2.58l1.38-.07c-.49,3.58-3.61,7.56-7.43,6.87.85-2.47,1.03-1.83.49-3.99Z"/>
        <path class="cls-4" d="M154.16,167.38c2.68-2.45,2.72-3.31,6.02-1.63-.93.94-2.73,2.88-3.71,3.61-1.15-.58-1.39-1.04-2.32-1.98Z"/>
        <path class="cls-4" d="M25.77,160.27l1.21-.32.32.44c1.59,2.21,2.19,3.5,3.38,5.95l1.12-.29c2.42.72,3.02,2.21,4.41,4.21l.47,1.19,2.94,3.84,2.01,1.14,1.79-.53,1.52-.84c-1.42-.82-.88-.24-1.52-1.91-1.09-2.94-1.86-3.32-2.72-7l3.04-1.66c2.83-.07,2.86,1.09,5.09,1.22l5.68,6.29c1.29-.54,4.1-.94,5.59-1.2.66,3.21,4.05,6.44,5.59,9.22l3.26,4.47c2.15-.51,2.79-.52,4.19-2.18,1.01,2.29,1.25,2.73,1.35,5.31l1.22-.56,2.6-.84,1.88-.4c.62,1.63,4.72,7.29,6.05,8.4,2.14,2.35,2.73,3.66,4.24,6.48,2.42.5,2.97.55,5.15,1.92l2.35,1.94-.14.9c-.76.3-1.63.67-2.39.93l.12.68c2.58,1.61,3.22,1.36,3.15,4.68l2.55.66c3.89.22,7.09-.02,10.39,2.01-2.61,2.86-9.75,3.71-11.67,5.41-15.14-1.92-21.31-1.96-37-6.28-21.26-5.63-11.79-4.77-28.05-17.26l3.04-1.07-.48-1.99c-.52-1.71-.28-2.48-.72-3.9-.93-3.05-3.28-6.76-3.47-9.87-1.58-3.47-3.15-6.95-4.69-10.44-1.02-2.93-2.02-5.75-2.83-8.75Z"/>
        <path class="cls-9" d="M43.74,164.49c2.83-.07,2.86,1.09,5.09,1.22l5.68,6.29c1.29-.54,4.1-.94,5.59-1.2.66,3.21,4.05,6.44,5.59,9.22l3.26,4.47c2.15-.51,2.79-.52,4.19-2.18,1.01,2.29,1.25,2.73,1.35,5.31l1.22-.56,2.6-.84,1.88-.4c.62,1.63,4.72,7.29,6.05,8.4-1.28.29-2.43.67-3.72.54-1.89.98-2.27,1.5-3.74,3.08l-1.26.82c-6.08,2.81-4.46-13.41-14.91-7.93-.95,1.67-2.19,3.29-4.15,3.86-3.19-4.04-2.2-6.14-7.56-10.01l-.55-.31c-.18-3.67-1.81-6.3-1.41-9.11l.03-.54-4,.44c-1.42-.82-.88-.24-1.52-1.91-1.09-2.94-1.86-3.32-2.72-7l3.04-1.66Z"/>
        <path class="cls-4" d="M43.74,164.49c2.83-.07,2.86,1.09,5.09,1.22l5.68,6.29c1.29-.54,4.1-.94,5.59-1.2.66,3.21,4.05,6.44,5.59,9.22-2.55,1.06-6.25,2.12-8.14,2.94-2.85-.48-6.59-5.48-8.63-7.81l.03-.54-4,.44c-1.42-.82-.88-.24-1.52-1.91-1.09-2.94-1.86-3.32-2.72-7l3.04-1.66Z"/>
        <path class="cls-2" d="M54.5,172c1.29-.54,4.1-.94,5.59-1.2.66,3.21,4.05,6.44,5.59,9.22-2.55,1.06-6.25,2.12-8.14,2.94.56-3.35-1.69-7.63-3.03-10.97Z"/>
        <path class="cls-4" d="M43.41,173.15c4.07-.6,2.47-2.75,4.62-1.84.44,1.31.66,1.95.9,3.31l-4,.44c-1.42-.82-.88-.24-1.52-1.91Z"/>
        <path class="cls-6" d="M78.28,186.22l1.88-.4c.62,1.63,4.72,7.29,6.05,8.4-1.28.29-2.43.67-3.72.54-1.89.98-2.27,1.5-3.74,3.08-1.42-3.41-1.38-8.4-3.07-10.78l2.6-.84Z"/>
        <path class="cls-4" d="M73.12,182.31c1.01,2.29,1.25,2.73,1.35,5.31l-2.5.14c-1.98-.95-1.72-1.25-3.03-3.27,2.15-.51,2.79-.52,4.19-2.18Z"/>
        <path class="cls-2" d="M25.77,160.27l1.21-.32.32.44c1.59,2.21,2.19,3.5,3.38,5.95l1.12-.29c2.42.72,3.02,2.21,4.41,4.21l.47,1.19,2.94,3.84,2.01,1.14,1.79-.53,1.52-.84,4-.44-.03.54c-.4,2.81,1.22,5.44,1.41,9.11l.55.31-2.73,1.11-.32.65c.18,1.81.28,2.09,1.01,3.77-1.36,1.34-1,.64-1.16,2.77l-1.49-.28c.5,2.34.63,2.78.38,5.17l.93.68c-1.9.15-2.76.07-4.39,1.02l-.38.76c3.85,6.89,16.29,7.19,19.37,9.85.72,1.54.69,1.74.87,3.47-21.26-5.63-11.79-4.77-28.05-17.26l3.04-1.07-.48-1.99c-.52-1.71-.28-2.48-.72-3.9-.93-3.05-3.28-6.76-3.47-9.87-1.58-3.47-3.15-6.95-4.69-10.44-1.02-2.93-2.02-5.75-2.83-8.75Z"/>
        <path class="cls-4" d="M36.67,171.45l2.94,3.84,2.01,1.14,1.79-.53,1.52-.84,4-.44-.03.54c-.4,2.81,1.22,5.44,1.41,9.11l.55.31-2.73,1.11-.32.65c.18,1.81.28,2.09,1.01,3.77-1.36,1.34-1,.64-1.16,2.77l-1.49-.28c.5,2.34.63,2.78.38,5.17-.34.15-1.02.21-1.44.28-3.65-2.05-10.27-15.75-8.76-19.45l1.98-.77c-1.24-1.21-1.92-4.66-1.66-6.37Z"/>
        <path class="cls-9" d="M36.67,171.45l2.94,3.84,2.01,1.14,1.79-.53,1.52-.84,4-.44-.03.54c-.4,2.81,1.22,5.44,1.41,9.11l.55.31-2.73,1.11-.32.65-2.51,1.69c-2.51-3.44-3.65-7-6.97-10.21-1.24-1.21-1.92-4.66-1.66-6.37Z"/>
        <path class="cls-5" d="M48.93,174.62l-.03.54c-.4,2.81,1.22,5.44,1.41,9.11l.55.31-2.73,1.11c-1.28-3.19-2.52-7.94-4.72-9.79l1.52-.84,4-.44Z"/>
        <path class="cls-2" d="M45.3,188.04l2.51-1.69c.18,1.81.28,2.09,1.01,3.77-1.36,1.34-1,.64-1.16,2.77l-1.49-.28c-.3-2.47.45-2.6-.86-4.57Z"/>
        <path class="cls-9" d="M28.6,169.02l1.32-.97c2.63,1.2,5.39,8.05,4.37,10.44l-1.01.97c-1.58-3.47-3.15-6.95-4.69-10.44Z"/>
        <path class="cls-5" d="M37.47,193.23l.78-.7c.68.98,1.73,2.31,2.1,3.37l-1.18.26.85.32c-.69-.41-1.38-.83-2.06-1.26l-.48-1.99Z"/>
        <path class="cls-1" d="M62.58,190.73c10.45-5.48,8.83,10.74,14.91,7.93,1.42,2.42,2.08,3.72,4,5.78,1.27,2.58.21,3.1-1.56,5.17-2.92-.38-7.12-2.14-10.15-3.01-.52-2.36-1.02-2.81-3.27-3.67l-1.39.29c-3.26-.67-5.71-5.37-6.18-8.4l-.52-.22c1.96-.57,3.2-2.19,4.15-3.86Z"/>
        <path class="cls-4" d="M58.42,194.58c1.96-.57,3.2-2.19,4.15-3.86l3.15,5.04c.45,2.63.85,4.47.78,7.15l-1.39.29c-3.26-.67-5.71-5.37-6.18-8.4l-.52-.22Z"/>
        <path class="cls-2" d="M58.42,194.58c1.96-.57,3.2-2.19,4.15-3.86l3.15,5.04c-1.69,1.43-1.43,1.66-3.3,2l-3.49-2.96-.52-.22Z"/>
        <path class="cls-4" d="M82.49,194.76c1.29.13,2.45-.25,3.72-.54,2.14,2.35,2.73,3.66,4.24,6.48,2.42.5,2.97.55,5.15,1.92l2.35,1.94-.14.9c-.76.3-1.63.67-2.39.93l.12.68c2.58,1.61,3.22,1.36,3.15,4.68l-.86-.4c-2.72.08-4.02.17-6.72-.29-2.65,0-6.39-.78-9.11-1.26l-2.07-.2c1.77-2.06,2.83-2.59,1.56-5.17-1.92-2.06-2.59-3.36-4-5.78l1.26-.82c1.47-1.57,1.85-2.1,3.74-3.08Z"/>
        <path class="cls-4" d="M78.75,197.84c1.47-1.57,1.85-2.1,3.74-3.08,1.27,2.63,2.47,4.75,1.68,7.67-1.08,1.36-1.1,1.46-2.69,2.01-1.92-2.06-2.59-3.36-4-5.78l1.26-.82Z"/>
        <path class="cls-2" d="M82,209.81c.97-2.15.6-2.33,2.38-3.19,2.75.19,4.78,2.51,6.73,4.45-2.65,0-6.39-.78-9.11-1.26Z"/>
        <path class="cls-6" d="M90.45,200.71c2.42.5,2.97.55,5.15,1.92l2.35,1.94-.14.9c-.76.3-1.63.67-2.39.93-2.08-2.22-2.45-3.3-4.97-5.69Z"/>
        <path class="cls-2" d="M95.54,207.08c2.58,1.61,3.22,1.36,3.15,4.68l-.86-.4c-1.82-.41-3.21-.46-4.39-1.8l.3-1.4,1.8-1.08Z"/>
        <path class="cls-4" d="M50.86,184.58c5.36,3.86,4.38,5.97,7.56,10.01l.52.22c.47,3.03,2.92,7.73,6.18,8.4l1.39-.29c2.25.86,2.75,1.31,3.27,3.67-7.6-3.16-7.29.72-13.97-3.49-.22-1.14-.88-1.81-1.56-2.84-2.25-1.33-2.81-1.43-5.33-1.07l-1.44-.74-.93-.68c.25-2.39.12-2.83-.38-5.17l1.49.28c.16-2.13-.2-1.43,1.16-2.77-.72-1.68-.82-1.95-1.01-3.77l.32-.65,2.73-1.11Z"/>
        <path class="cls-2" d="M48.82,190.11c1.96,4.48,2.74,5.99,5.43,10.16-2.25-1.33-2.81-1.43-5.33-1.07l-1.44-.74-.93-.68c.25-2.39.12-2.83-.38-5.17l1.49.28c.16-2.13-.2-1.43,1.16-2.77Z"/>
        <path class="cls-2" d="M48.92,199.2c2.52-.36,3.09-.26,5.33,1.07.68,1.03,1.34,1.71,1.56,2.84-2.99-1.33-4.15-2.09-6.89-3.91Z"/>
        <path class="cls-2" d="M45.52,144.25c1.46.74,3.76,2.36,5.19,1.53,8.82-5.07,9.18,5.66,17.4,7.93l3.68-2.47,2.2-1.12,2.75.27c1.65-1.47,1.94-1.83,3.19-3.65l-.12,1.68c.81.48,2.99,1.7,3.6,2.22l.42.21c3.44,5.04,4.76.33,7.43,5.03l.83-.28c-1.02,3.03-.88,3.26-2.93,5.75l-.08,1.16c2.43,2.47,3.06,1.79,4.91,3.74.72.79,1.08,1.27,2.01,1.85l4.28-.98,2.34,1.27-.07.56c-.15,3.03-.66,3.67.5,6.04.82.25,1.68.52,2.51.74-.98-.31,12.54,7.33,11.91,6.82-1.52,1.19-1.69,1.03-2.52,2.76.12,1.25.08,1.85.75,2.92-1.25.86-1.53,1.73-2.2,3.08-1.32.94-2.13.79-3.82.89l-2.78-1.47c-1.17,1.62-.6,3.45-.37,5.76l-3.71-.02-1.15.79-6.06,5.36c-2.19-1.37-2.74-1.43-5.15-1.92-1.51-2.82-2.1-4.14-4.24-6.48-1.33-1.11-5.44-6.78-6.05-8.4l-1.88.4-2.6.84-1.22.56c-.1-2.58-.34-3.02-1.35-5.31-1.4,1.66-2.03,1.67-4.19,2.18l-3.26-4.47c-1.54-2.78-4.92-6.01-5.59-9.22-1.48.26-4.29.66-5.59,1.2l-5.68-6.29c-2.22-.13-2.25-1.29-5.09-1.22-.81-1.79-1.75-3.64-2.62-5.41-1.33-1.84-1.64-2.39-3.55-3.7l1.16-.57c1.93-.76,3.22-1.56,5.15-1.08.86.87.96.8,1.46,1.9l.92,1.16c2.03-.08,2.55.01,4.06-1.28,1.9-5.1-3.61-7.18-4.8-11.27Z"/>
        <path class="cls-9" d="M82.75,173.64c2.59,2.34,5.1,4.6,7.27,7.36,1.81-.51,4.47-1.53,6.32-2.17l.64-1.07c3.22-1.6,3.92-1.98,7.46-2.16l1.12.12c-.98-.31,12.54,7.33,11.91,6.82-1.52,1.19-1.69,1.03-2.52,2.76.12,1.25.08,1.85.75,2.92-1.25.86-1.53,1.73-2.2,3.08-1.32.94-2.13.79-3.82.89l-2.78-1.47c-1.17,1.62-.6,3.45-.37,5.76l-3.71-.02-1.15.79-6.06,5.36c-2.19-1.37-2.74-1.43-5.15-1.92-1.51-2.82-2.1-4.14-4.24-6.48-1.33-1.11-5.44-6.78-6.05-8.4l1.17-.81c-1.32-1.49-1.75-3.47-2.38-5.42l.65-.93c-.65-1.69-.63-1.63-.72-3.44,1.41-1.36,1.78-1.1,3.88-1.58Z"/>
        <path class="cls-4" d="M96.98,177.77c3.22-1.6,3.92-1.98,7.46-2.16l1.12.12c-.98-.31,12.54,7.33,11.91,6.82-1.52,1.19-1.69,1.03-2.52,2.76.12,1.25.08,1.85.75,2.92-1.25.86-1.53,1.73-2.2,3.08-1.32.94-2.13.79-3.82.89l-2.78-1.47.28-.53c-1.26-.48-3.31-2.13-4.48-3l-1.45.23-1.55-.33c-2.75-2.65-2.84-4.62-3.35-8.27l.64-1.07Z"/>
        <path class="cls-4" d="M104.43,175.61l1.12.12c-.98-.31,12.54,7.33,11.91,6.82-1.52,1.19-1.69,1.03-2.52,2.76.12,1.25.08,1.85.75,2.92-1.25.86-1.53,1.73-2.2,3.08-1.32.94-2.13.79-3.82.89l-2.78-1.47.28-.53.41-.04c2.81-.28,2.82-.4,4.4-2.32.68-3.48-4.63-8.48-7.63-9.01-.28-1.15-.07-2.04.08-3.22Z"/>
        <path class="cls-4" d="M82.75,173.64c2.59,2.34,5.1,4.6,7.27,7.36.28,2.25.52,4.42.94,6.65l-.62.81c-1.71-.53-3.17-.92-4.92-1.35-1.01-1.5-1.04-1.62-2.52-2.59l-1.57.48c-1.32-1.49-1.75-3.47-2.38-5.42l.65-.93c-.65-1.69-.63-1.63-.72-3.44,1.41-1.36,1.78-1.1,3.88-1.58Z"/>
        <path class="cls-2" d="M90.02,181c1.81-.51,4.47-1.53,6.32-2.17.52,3.64.6,5.62,3.35,8.27l1.55.33-2.12,1.59-1,.2c-2.35,1.7-5.88,2.62-8.66,3.3l-4.05-5.4c1.75.42,3.21.81,4.92,1.35l.62-.81c-.42-2.23-.66-4.4-.94-6.65Z"/>
        <path class="cls-4" d="M90.02,181c1.81-.51,4.47-1.53,6.32-2.17.52,3.64.6,5.62,3.35,8.27l1.55.33-2.12,1.59-1,.2c-1.85-1.47-2.13-6.08-5.66-5.27-1.15,1.33-1.12,1.91-1.5,3.7-.42-2.23-.66-4.4-.94-6.65Z"/>
        <path class="cls-5" d="M101.25,187.43l1.45-.23c1.17.87,3.22,2.51,4.48,3l-.28.53c-1.17,1.62-.6,3.45-.37,5.76l-3.71-.02-1.15.79c-.5-2.84-1.35-5.62-2.55-8.24l2.12-1.59Z"/>
        <path class="cls-2" d="M83.41,150.65l.42.21c3.44,5.04,4.76.33,7.43,5.03l.83-.28c-1.02,3.03-.88,3.26-2.93,5.75l-.08,1.16c2.43,2.47,3.06,1.79,4.91,3.74.72.79,1.08,1.27,2.01,1.85l4.28-.98,2.34,1.27-.07.56c-.15,3.03-.66,3.67.5,6.04.82.25,1.68.52,2.51.74l-1.12-.12c-3.53.18-4.24.55-7.46,2.16l-.64,1.07c-1.85.64-4.51,1.66-6.32,2.17-2.17-2.76-4.68-5.02-7.27-7.36-2.1.49-2.47.22-3.88,1.58.09,1.81.08,1.75.72,3.44l-.65.93c.64,1.95,1.06,3.93,2.38,5.42l-1.17.81-1.88.4-2.6.84-1.22.56c-.1-2.58-.34-3.02-1.35-5.31-1.4,1.66-2.03,1.67-4.19,2.18l-3.26-4.47c-1.54-2.78-4.92-6.01-5.59-9.22l.78-1.54c2.08.37,4.02.65,6.04,1.29-.96-2.08-1.12-2.39-1.22-4.67,4.1,2.84,5.04,2.84,9.43.28l.32-.51c3.89-1.77,10.54-.66,12.78-1.07-.16-.29-.32-.58-.49-.86-.56-.92-2.41-3.37-3.45-3.62l-.23.16c-.42-1.24-.57-1.44-1.2-2.53l-.67-2.03-.62-1.4c.55-2.74.02-1.83,1.83-3.63Z"/>
        <path class="cls-9" d="M82.75,173.64c-1.09-2.23-2.22-7.38-2.88-10,6.59,7.9,5.62,11.21,15.79,4.73l.33-.26,4.28-.98,2.34,1.27-.07.56c-.15,3.03-.66,3.67.5,6.04.82.25,1.68.52,2.51.74l-1.12-.12c-3.53.18-4.24.55-7.46,2.16l-.64,1.07c-1.85.64-4.51,1.66-6.32,2.17-2.17-2.76-4.68-5.02-7.27-7.36Z"/>
        <path class="cls-6" d="M100.28,167.13l2.34,1.27-.07.56c-.15,3.03-.66,3.67.5,6.04.82.25,1.68.52,2.51.74l-1.12-.12c-3.53.18-4.24.55-7.46,2.16.78-3.42-.29-6.13-1.31-9.4l.33-.26,4.28-.98Z"/>
        <path class="cls-4" d="M60.87,169.26c2.08.37,4.02.65,6.04,1.29l1.58,1.7c.92,1.32,2.41,3.26,3.05,4.66l-.75,2.04.61.02,1.72,3.35c-1.4,1.66-2.03,1.67-4.19,2.18l-3.26-4.47c-1.54-2.78-4.92-6.01-5.59-9.22l.78-1.54Z"/>
        <path class="cls-4" d="M68.5,172.24c.92,1.32,2.41,3.26,3.05,4.66l-.75,2.04c-2.15-2.02-3.08-1.33-3.92-3.51l1.62-3.2Z"/>
        <path class="cls-9" d="M65.7,165.87c4.1,2.84,5.04,2.84,9.43.28,1.85,3.37,2.42,5.15,3.67,8.84-2.48.49-4.98.84-7.25,1.92-.64-1.4-2.12-3.34-3.05-4.66l-1.58-1.7c-.96-2.08-1.12-2.39-1.22-4.67Z"/>
        <path class="cls-4" d="M73.29,178.26l.92-1.1c2.16.11,2.28.32,4.16,2.34l.57.09c.64,1.95,1.06,3.93,2.38,5.42l-1.17.81-1.88.4-2.6.84-1.22.56c-.1-2.58-.34-3.02-1.35-5.31l-1.72-3.35,1.89-.7Z"/>
        <path class="cls-2" d="M71.4,178.96l1.89-.7c1.75,2.5,3.49,5.93,4.99,7.96l-2.6.84-1.22.56c-.1-2.58-.34-3.02-1.35-5.31l-1.72-3.35Z"/>
        <path class="cls-5" d="M83.41,150.65l.42.21c3.44,5.04,4.76.33,7.43,5.03-3.77,2.11-5.62,1.66-9.07-.21l-.62-1.4c.55-2.74.02-1.83,1.83-3.63Z"/>
        <path class="cls-9" d="M38.73,154.82c1.93-.76,3.22-1.56,5.15-1.08.86.87.96.8,1.46,1.9l.92,1.16c1.61,2.61,2.65,4.52,4.81,6.69,2.16-.8,4.52-1.47,6.75-2.15l1.94,4.23c.62,1.35,1.21,2.22,1.12,3.69l-.78,1.54c-1.48.26-4.29.66-5.59,1.2l-5.68-6.29c-2.22-.13-2.25-1.29-5.09-1.22-.81-1.79-1.75-3.64-2.62-5.41-1.33-1.84-1.64-2.39-3.55-3.7l1.16-.57Z"/>
        <path class="cls-2" d="M38.73,154.82c1.93-.76,3.22-1.56,5.15-1.08.86.87.96.8,1.46,1.9,0,2.06.02,2.41.62,4.37l-4.84-.93c-1.33-1.84-1.64-2.39-3.55-3.7l1.16-.57Z"/>
        <path class="cls-6" d="M45.96,160.01l2.86,5.7c-2.22-.13-2.25-1.29-5.09-1.22-.81-1.79-1.75-3.64-2.62-5.41l4.84.93Z"/>
        <path class="cls-4" d="M75.45,165.64c-2.18-2.58-5.72-8.77-3.8-12,4.19-2.28,6.85,1.65,9.36,3.06l1.19.66.65.35c.63,1.1.78,1.29,1.2,2.53l.23-.16c1.04.26,2.89,2.7,3.45,3.62.17.28.33.57.49.86-2.24.41-8.89-.71-12.78,1.07Z"/>
        <path class="cls-4" d="M57.12,157.38c-1.44-2.53-4.42-6.61-3.39-9.49,3.99-1.59,15.91,10.75,15.46,15.15-1.25,1.34-.62.95-2.58,1.27-5.38-1.43-1.42-2.86-8.71-3.66l-.79-3.28Z"/>
        <path class="cls-2" d="M51.07,163.49c1.96-2.34,1.15-4.31.65-7.14l.52-.72,1.64.1c1.25.86,1.82,1.05,3.24,1.64l.79,3.28-.09.69c-2.22.68-4.59,1.34-6.75,2.15Z"/>
        <path class="cls-6" d="M59.76,165.57c1.68-.23,3.69-.61,5.35-.51l.58.81c.09,2.28.25,2.59,1.22,4.67-2.02-.64-3.95-.92-6.04-1.29.09-1.46-.49-2.34-1.12-3.69Z"/>
        <path class="cls-5" d="M79.93,146.75l-.12,1.68c.81.48,2.99,1.7,3.6,2.22-1.81,1.8-1.28.9-1.83,3.63-1.96-1.4-3.05-2.29-4.84-3.89,1.65-1.47,1.94-1.83,3.19-3.65Z"/>
        <path class="cls-2" d="M98.08,150.8c3.97,2.67,7.09,9.01,12.31,9.89.69-.33,1.44-.65,2.08-1.04,1.13-.57,3.3-1.34,4.55-1.84,2.51-1.94,4.52-3.44,7.16-5.18,5.05,4.46,7.47,6.41,14.57,5.27,2.12-1.89,4.23-3.81,6.3-5.77,2.67.2,4.8,1.87,7.17,3.22h6.16c-4.56,2.02-4.11,5.03-4.56,9.58l.32,2.46c.92.94,1.17,1.4,2.32,1.98l-.52.59c.25,1.96-.61,5.24-1.04,7.3l-1.41,1.82c.45,3.6-1.11,6.7-1.24,10.8l-.04.47-1.65,8.49c-2.56-.48-4.85-2.85-9.03-3.96-.35-.93-.45-3.12-.57-4.22-2.47,1.81-3.22,2.61-6.31,2.99h-.57c-3.03-.55-4.74-3.11-7.52-5.35-.52-5.2-.02-6.2-2.41-10.85l-2.15,1.03-4.56,4.1c.63.51-12.89-7.13-11.91-6.82-.82-.22-1.68-.49-2.51-.74-1.16-2.37-.65-3.01-.5-6.04l.07-.56-2.34-1.27-4.28.98c-.93-.58-1.28-1.05-2.01-1.85-1.85-1.95-2.48-1.27-4.91-3.74l.08-1.16c2.05-2.5,1.92-2.72,2.93-5.75,1.82-.89,2.24-1.35,3.74-2.73l2.25-2.08Z"/>
        <path class="cls-4" d="M146.45,167.3c1.22-.46,2.9.05,4.25.3,1.94,1.23,2.98,2.15,5.26,2.36.25,1.96-.61,5.24-1.04,7.3l-1.41,1.82c.45,3.6-1.11,6.7-1.24,10.8l-.04.47-1.65,8.49c-2.56-.48-4.85-2.85-9.03-3.96-.35-.93-.45-3.12-.57-4.22-2.47,1.81-3.22,2.61-6.31,2.99-.58-1.72-.45-2.06-.34-3.92.64-2.31.71-3.47.92-5.81l.82-3.16c3.79-1.49,5.34-1.01,7.76-5.62l-.48-.45c.22-2.29,1.98-5.22,3.09-7.38Z"/>
        <path class="cls-9" d="M146.45,167.3c1.22-.46,2.9.05,4.25.3,1.94,1.23,2.98,2.15,5.26,2.36.25,1.96-.61,5.24-1.04,7.3l-1.41,1.82c-3.42-1.74-5.93-3.46-9.68-3.94l-.48-.45c.22-2.29,1.98-5.22,3.09-7.38Z"/>
        <path class="cls-9" d="M140.98,190.64l2.61-3.65c3.09,1.31,5.33,2.43,8.69,2.87l-.04.47-1.65,8.49c-2.56-.48-4.85-2.85-9.03-3.96-.35-.93-.45-3.12-.57-4.22Z"/>
        <path class="cls-4" d="M145.07,152.12c2.67.2,4.8,1.87,7.17,3.22h6.16c-4.56,2.02-4.11,5.03-4.56,9.58l.32,2.46c.92.94,1.17,1.4,2.32,1.98l-.52.59c-2.28-.2-3.32-1.13-5.26-2.36-1.35-.25-3.04-.76-4.25-.3l-1.15-1.38c-2.02,1.81-2.42,2.48-3.91,4.71-4.25-2.4-4.25-3.25-3.82-7.8l1.45-4.3-.24-.64c2.12-1.89,4.23-3.81,6.3-5.77Z"/>
        <path class="cls-4" d="M139.01,158.53c2.16-1.01,2.44-1.12,4.82-1.15,3.74,1.88,3.3,4.34,2.82,8.07-.89.55-.42.5-1.35.47-2.02,1.81-2.42,2.48-3.91,4.71-4.25-2.4-4.25-3.25-3.82-7.8l1.45-4.3Z"/>
        <path class="cls-4" d="M150.7,167.59c.22-.16.71-.87.9-1.13-.15-1.83-.09-2.06.55-3.78,1.25.51.92.56,1.69,2.24l.32,2.46c.92.94,1.17,1.4,2.32,1.98l-.52.59c-2.28-.2-3.32-1.13-5.26-2.36Z"/>
        <path class="cls-4" d="M92.09,155.61c1.82-.89,2.24-1.35,3.74-2.73,1.75.61,3.09.81,4.08,2.28,2.62,3.46,8.79,10.93.37,11.97l-4.28.98c-.93-.58-1.28-1.05-2.01-1.85-1.85-1.95-2.48-1.27-4.91-3.74l.08-1.16c2.05-2.5,1.92-2.72,2.93-5.75Z"/>
        <path class="cls-4" d="M92.09,155.61c1.82-.89,2.24-1.35,3.74-2.73,1.75.61,3.09.81,4.08,2.28-3.42.16-3.87.26-6.25,2.86-.35.39-.7.78-1.05,1.18l1.38,7.06c-1.85-1.95-2.48-1.27-4.91-3.74l.08-1.16c2.05-2.5,1.92-2.72,2.93-5.75Z"/>
        <path class="cls-9" d="M102.55,168.96c1.42,1.44,2.32,2.73,4.22,3.16,2.12-.31,3.32-1.63,5.04-3.03,2.59,1.22,8,3.29,9.36,6.03.22.45.58,2.6.86,3.34l-4.56,4.1c.63.51-12.89-7.13-11.91-6.82-.82-.22-1.68-.49-2.51-.74-1.16-2.37-.65-3.01-.5-6.04Z"/>
        <path class="cls-9" d="M126.97,166.63c4.19,1.67,6.25,4.12,10.35,5.15.17.81-.56,8.07-.67,9.32-4.41-2.54-6.46-3.53-11.19-5.41-.2-3.24-.28-5.63.97-8.62l.54-.44Z"/>
        <path class="cls-4" d="M121.37,157.05c2.81-.75,2.75-1.2,5.77-.5-.75,3.82-1.11,3.33,1.95,6.25.19,1.96-.76,2.33-2.12,3.84l-.54.44-2.25.06c-.7,1.97-1.67,1.86-3.12,3.24-3.44-3.9-3.29-3.67-2.29-8.77l.88-.8c.42-1.93.35-2.53,1.73-3.75Z"/>
        <path class="cls-4" d="M121.37,157.05c2.81-.75,2.75-1.2,5.77-.5-.75,3.82-1.11,3.33,1.95,6.25.19,1.96-.76,2.33-2.12,3.84l-.54.44-2.25.06c.77-2.29,1.98-5.46,1.21-7.69-1.16-1.72-2-1.75-4.02-2.39Z"/>
        <path class="cls-4" d="M124.18,177.44l1.72-.02c.58,1.15.55,1.73.68,2.99,1.29,1.34.78,1.19,2.32,1.49,1.01-.94.95-.89,1.58-2.12.23.32.58.75.71,1.08,1.8.07,3.09.2,4.88-.09l-.82,3.16c-.21,2.33-.28,3.49-.92,5.81-.12,1.86-.24,2.2.34,3.92h-.57c-3.03-.55-4.74-3.11-7.52-5.35-.52-5.2-.02-6.2-2.41-10.85Z"/>
        <path class="cls-4" d="M131.2,180.84c1.8.07,3.09.2,4.88-.09l-.82,3.16c-.21,2.33-.28,3.49-.92,5.81l-1.12-1.59c-.55.76-.68.8-1.38,1.45l-.88-.15c-1.94-3.35-1.34-5.38.25-8.58Z"/>
        <path class="cls-2" d="M133.21,188.13c-.18-1.55-.26-2.62-.28-4.18l.67-.59,1.65.55c-.21,2.33-.28,3.49-.92,5.81l-1.12-1.59Z"/>
        <path class="cls-4" d="M127.14,156.54c5.08,7.4,4.3,1.5,10.42,6.28-.43,4.55-.43,5.4,3.82,7.8-1.92.2-2.25.4-4.07,1.15-4.1-1.03-6.16-3.48-10.35-5.15,1.35-1.51,2.31-1.88,2.12-3.84-3.05-2.92-2.69-2.43-1.95-6.25Z"/>
        <path class="cls-2" d="M102.62,168.4c2.28-1.07,2.37-1.7,2.89-4.31,2.83,1.21,3.27,3.82,6.3,5.01-1.72,1.4-2.92,2.72-5.04,3.03-1.89-.43-2.8-1.73-4.22-3.16l.07-.56Z"/>
        <path class="cls-4" d="M121.05,170.38l-2.04.08c-4.78-2.64-6.81-7.49-.25-8.85-.99,5.1-1.15,4.87,2.29,8.77Z"/>
        <path class="cls-2" d="M99.73,143.54c5.17,2.28,6.28,2.77,9.89,6.97l.73-.22c11.79-3.65,13.04-9.51,25.09.15,5.4-6.87,10.75-8.84,17.96-2.9.81.54,1.12.65,1.78,1.38.72-1.27,1.72-2.68,2.55-3.91,1.08.55,2.31,1.07,3.19,1.88l.47-.76c1.78,1.31,3.31,1.87,4.78,3.03l-.08.26c-3.07.75-3.72,4.09-7.68,5.93h-6.16c-2.37-1.36-4.5-3.03-7.17-3.23-2.07,1.95-4.18,3.88-6.3,5.77-7.1,1.14-9.52-.81-14.57-5.27-2.64,1.75-4.65,3.24-7.16,5.18-1.25.49-3.42,1.27-4.55,1.84-.65.39-1.39.71-2.08,1.04-5.22-.88-8.34-7.22-12.31-9.89l-2.25,2.08c-1.5,1.39-1.92,1.85-3.74,2.73l-.83.28c-2.67-4.7-3.99,0-7.43-5.03l-.42-.21c-.62-.52-2.79-1.74-3.6-2.22,2.64-4.38,2.1-1.25,5.83-1.8,1.25.73,1.78,1.41,3.07.95,3.88-1.41,6.92-3.04,11.02-4.04Z"/>
        <path class="cls-5" d="M157.73,145c1.08.55,2.31,1.07,3.19,1.88l.47-.76c1.78,1.31,3.31,1.87,4.78,3.03l-.08.26c-3.07.75-3.72,4.09-7.68,5.93h-6.16c-2.37-1.36-4.5-3.03-7.17-3.23-1.52-.42-2.05-1.28-3.19-2.51,1.73-1.16,2.38-1.8,4.44-2.09l1.95-.61c2.31.57,2.78.69,5.13.62.81.54,1.12.65,1.78,1.38.72-1.27,1.72-2.68,2.55-3.91Z"/>
        <path class="cls-5" d="M157.73,145c1.08.55,2.31,1.07,3.19,1.88l.47-.76c1.78,1.31,3.31,1.87,4.78,3.03l-.08.26c-3.07.75-3.72,4.09-7.68,5.93h-6.16c2.22-1.39,3.79-2.28,4.69-4.55h.71c-1.11-.55-1.56-1.07-2.45-1.9.72-1.27,1.72-2.68,2.55-3.91Z"/>
        <path class="cls-2" d="M157.73,145c1.08.55,2.31,1.07,3.19,1.88-1.02,1.24-2.2,2.76-3.28,3.92-1.11-.54-1.56-1.07-2.45-1.89.72-1.27,1.72-2.68,2.55-3.91Z"/>
        <path class="cls-2" d="M146.32,147.52l1.95-.61c2.31.57,2.78.69,5.13.62.81.54,1.12.65,1.78,1.38.89.82,1.35,1.35,2.45,1.89h-.71c-4.88-.1-7,.03-10.61-3.28Z"/>
        <path class="cls-5" d="M125.31,149.19c6.23,3.57,10.53,6.32,16.57.42,1.13,1.22,1.66,2.09,3.19,2.51-2.07,1.95-4.18,3.88-6.3,5.77-7.1,1.14-9.52-.81-14.57-5.27.22-1.59.45-1.94,1.12-3.43Z"/>
        <path class="cls-5" d="M112.63,154.02c3.29-2.13,9.08-7.05,12.69-4.83-.66,1.49-.9,1.84-1.12,3.43-2.64,1.75-4.65,3.24-7.16,5.18-1.25.49-3.42,1.27-4.55,1.84-.9-1.96-1.59-3.56-2.76-5.4l2.91-.23Z"/>
        <path class="cls-5" d="M112.63,154.02c1.88-.28,3.09-.85,4.3,0,.21,1.62.22,2.15.11,3.77-1.25.49-3.42,1.27-4.55,1.84-.9-1.96-1.59-3.56-2.76-5.4l2.91-.23Z"/>
        <path class="cls-9" d="M96.09,147.86c4.91-1.33,8.17,4.51,13.63,6.38,1.17,1.84,1.86,3.43,2.76,5.4-.65.39-1.39.71-2.08,1.04-5.22-.88-8.34-7.22-12.31-9.89-1.28-1.19-1.63-1.32-1.99-2.93Z"/>
        <path class="cls-5" d="M83.83,150.86c5.04,1.6,7.19-.62,12.26-3,.36,1.61.71,1.75,1.99,2.93l-2.25,2.08c-1.5,1.39-1.92,1.85-3.74,2.73l-.83.28c-2.67-4.7-3.99,0-7.43-5.03Z"/>
        <path class="cls-5" d="M64.46,12.37c-.51,1.38-.88,1.6-2.08,2.43-.16,1.22-.21,1.15.17,2.31,1.72.96,1.83,1.14,3.69.93-1.33.9-3.25,2.1-4.47,3.03-1.52,1.97-3.58,4.68-5.35,6.35-8.29,7.77-14.52,17.69-22.27,25.89-2.97,3.14-5.86,11.35-7.7,12.62-.6-.5-.72-.56-1.22-1.15l-1.23,2.13c-1.63-3,.64-4.02-.99-6.61,1.67-7.99,4.94-15.21,11.56-20.12,2.49-1.2,4.98-2.15,6.32-4.53,1.4-3.74,2.96-6.64,5.02-10.03,3.98-6.26,12.13-9.98,18.58-13.23Z"/>
        <path class="cls-4" d="M64.46,12.37c-.51,1.38-.88,1.6-2.08,2.43-.16,1.22-.21,1.15.17,2.31,1.72.96,1.83,1.14,3.69.93-1.33.9-3.25,2.1-4.47,3.03-1.87.84-2.72.96-4.77,1.15-3,2.88-2.62,3.88-6.68,5.55-1.15.61-1.63.86-2.83,1.33-.52-1.28-.98-2.25-1.6-3.49,3.98-6.26,12.13-9.98,18.58-13.23Z"/>
        <path class="cls-2" d="M34.55,40.17c.59,1.68.95,2.98,1.91,4.49-3.35,3.55-11.24,15.78-11.24,20.12l-1.23,2.13c-1.63-3,.64-4.02-.99-6.61,1.67-7.99,4.94-15.21,11.56-20.12Z"/>
        <path class="cls-2" d="M45.88,25.61c.62,1.24,1.08,2.21,1.6,3.49,1.2-.46,1.68-.71,2.83-1.33-2.66,3.66-5.7,8.08-8.62,11.46l-.83-3.59c1.4-3.74,2.96-6.64,5.02-10.03Z"/>
        <path class="cls-2" d="M34.55,40.17c2.49-1.2,4.98-2.15,6.32-4.53l.83,3.59-5.24,5.43c-.96-1.51-1.32-2.81-1.91-4.49Z"/>
        <path class="cls-2" d="M92.8.04c5.68-.18,7.81.3,13.26,1.94,19.28-5.42,36.52,3.54,53.87,11.34,3.23,1.45,9.02,5.73,11.47,8.25-1.16.54-3.05,1.51-4.23,1.83-8.58-9.07-9.9-7.62-20.4-11.6-16.09-6.11-22.5-9.94-39.58-4.87-.53.16-12.47-1.26-15.23-1.27,1.64-.43,3.44-.74,4.1-2.42-1.47-2.22-1.98-1.38-3.26-3.19Z"/>
        <path class="cls-6" d="M171.4,21.56c6.3,6.7,11.75,8.22,17.76,16.18,3.35,4.69,7.09,10.1,9.28,15.46l.22.4c3.84,6.54,9.12,11.81,9.68,20.58,1.24,3.07,2.95,6.89,3.18,10.14-2.55-.94-1.75-.32-3.4-2.2-1.65.77-1.88.79-3.05,2.11-1.88-5.78-.68-10.22-2.42-16.02-2.03-6.86-7.76-10.85-11.32-16.55-2.48-3.99-3.56-11.44-7.52-14.83-6.97-5.98-10.18-6.12-16.63-13.43,1.18-.32,3.07-1.28,4.23-1.83Z"/>
        <path class="cls-9" d="M198.43,53.19c-4.01-1.41-9.25-11.62-9.28-15.46,3.35,4.69,7.09,10.1,9.28,15.46Z"/>
        <path class="cls-4" d="M208.33,74.16c1.24,3.07,2.95,6.89,3.18,10.14-2.55-.94-1.75-.32-3.4-2.2.16-3.33-.89-3.7.22-7.94Z"/>
        <path class="cls-2" d="M64.46,12.37C73.75,4.49,80.29.06,92.8.04c1.28,1.82,1.79.97,3.26,3.19-.66,1.68-2.46,1.99-4.1,2.42-3.23,1.13-10.54,2.8-12.91,4.07-3.89,2.09-8.28,6.6-12.82,8.33-1.85.21-1.97.03-3.69-.93-.38-1.16-.33-1.09-.17-2.31,1.2-.83,1.58-1.05,2.08-2.43Z"/>
        <path class="cls-5" d="M18.63,103.78c1.22.49,2.99,1.25,4.3,1.5.29.06,1.72-1.08,2.12-.54,2.23,3.13,3.55,7.07,5.59,10.44,1.9,3.15,4.23,6.16,5.95,9.37.73,1.36.17,2.1,1.46,3.95l1.25.62-3.15.38c-.99-.39-2.44-.69-3.52-.96-4.06-1.24-2.69-4.98-6.25-6.6.03-.29.05-.57.07-.86.14-2.88-.63-3.18-2.65-5.39l.21-.41c.53-1.79.48-1.05-.12-2.95-1.97-1.4-3.22-2-4.01-4.31-.04-2.17-.1-2.41-1.25-4.24Z"/>
        <path class="cls-5" d="M62.79,138.53c1.28,1.42,3.12,3.61,4.42,4.9.12,1.53.27,2.85.19,4.4l3.62-.76.77,4.19-3.68,2.47c-8.22-2.28-8.58-13-17.4-7.93-1.43.82-3.73-.79-5.19-1.53l1.28-3.96c5.78,2.25,7.61-.82,11.23.44l2.12,1.92c1.68-1.67,1.87-1.89,2.64-4.13Z"/>
        <path class="cls-2" d="M62.79,138.53c1.28,1.42,3.12,3.61,4.42,4.9.12,1.53.27,2.85.19,4.4l-.56.22c-3.25-.28-4.23-2.8-6.69-5.39,1.68-1.67,1.87-1.89,2.64-4.13Z"/>
        <path class="cls-5" d="M67.4,147.82l3.62-.76.77,4.19-3.68,2.47c-.73-1.96-1.71-3.75-1.27-5.67l.56-.22Z"/>
        <path class="cls-2" d="M174.59,113.03c1.98.14,2.76.02,4.36,1.12,1.15,6.81,1.4,12.96-2.97,18.88l-1.43,2.47-3.02,1.69c-1.52-.87-1.68-.89-2.68-2.26-.13-1.98,1.29-3.57,2.46-5.35,2.71-6.81,2.78-9.37,3.28-16.54Z"/>
        <path class="cls-6" d="M67.21,143.42c1.35-.7,10.56-2.65,12.01-2.3,1.87.46,5.19,3.8,6.42,5.51-3.73.56-3.19-2.58-5.83,1.8l.12-1.68c-1.25,1.82-1.55,2.18-3.19,3.65l-2.75-.27-2.2,1.12-.77-4.19-3.62.76c.08-1.55-.07-2.87-.19-4.4Z"/>
        <path class="cls-5" d="M71.02,147.06c2.42-.96,3.39-2.96,6.64-3.25.81.96,1.65,1.86,2.27,2.94-1.25,1.82-1.55,2.18-3.19,3.65l-2.75-.27-2.2,1.12-.77-4.19Z"/>
        <path class="cls-5" d="M77.66,143.82c.81.96,1.65,1.86,2.27,2.94-1.25,1.82-1.55,2.18-3.19,3.65l-2.75-.27c.82-2.37,2.29-4.14,3.67-6.32Z"/>
        <path class="cls-2" d="M36.16,129.51l3.15-.38c2.45,1.24,5.02,4.46,6.75,6.68,3.52-1.01,14.08,1.31,16.73,2.72-.77,2.24-.95,2.46-2.64,4.13l-2.12-1.92c-3.62-1.27-5.45,1.8-11.23-.44l-.49.05c-.32-2.11-5.63-8.59-7.81-9.48-1.1-.45-1.18-.45-2.34-1.35Z"/>
        <path class="cls-6" d="M23,60.29c1.63,2.59-.64,3.61.99,6.61l-5.02,11.02c1.38,7.45.28,11.4-.69,19.03-.18-2.43-.62-3.86-1.23-6.21l-.15.89-.38-.63c-2.62-22.74,4.09-14.94,6.49-30.71Z"/>
        <path class="cls-5" d="M164.48,140.97c-1.41-1.68-1.75-1.11-3.11-3.64-.48-5.67,5.88-9.75,9.94-7.75-1.17,1.79-2.59,3.37-2.46,5.35,1,1.38,1.15,1.4,2.68,2.26-2.26,1.58-4.38,3.41-7.05,3.78Z"/>
        <path class="cls-2" d="M208.11,82.1c1.65,1.88.85,1.26,3.4,2.2l.14.36,1.73,6.77c-.98.5-2.25,1.19-3.25,1.55l-.78-2c-2.05-2.65-2.72-3.8-4.29-6.77,1.18-1.32,1.41-1.34,3.05-2.11Z"/>
        <path class="cls-6" d="M209.35,90.99c1.23-2.31.25-3.34.68-5.96l1.62-.36,1.73,6.77c-.98.5-2.25,1.19-3.25,1.55l-.78-2Z"/>
        <path class="cls-6" d="M197.59,109.06c.15-3.42-1.3-9.04-.02-11.21,1.74.64,2.59,2.51,3.89,4.29v.61s-1.23,1.01-1.23,1.01c-1,2.35-1.65,3.25-2.64,5.31Z"/>
        <path class="cls-6" d="M174.59,113.03c.06-2.49-.32-2.77.91-4.66,2.93-.17,3.2,3.6,3.45,5.78-1.6-1.1-2.38-.98-4.36-1.12Z"/>
        <path class="cls-4" d="M143.62,62.28l.75-2.3c2.82-2.41,8.69-7.75,12.09-8.5l.05.93c-1.06,1.63-3.34,5.53-4.73,6.43l-.48.7.48,1.29-.69-.57-.03,1.41,1.2-.69.78.24.78,1.9c1.55-.52,2.96-1.95,4.25-3.06l-2.31,7.19c-13.46,11.27-26.27,18.56-44.06,11.24-1.55-.49-1.82-.63-3.25-1.44l-.38-1.68c4.2-3.49,14.44.64,18.47-5.09,4.06-1.35,13.53-5.66,17.08-8.01Z"/>
        <path class="cls-6" d="M143.62,62.28l.75-2.3c2.82-2.41,8.69-7.75,12.09-8.5l.05.93c-1.06,1.63-3.34,5.53-4.73,6.43l-.47-.8c-2.05.26-5.14,2.99-7.69,4.24Z"/>
        <path class="cls-6" d="M111.7,78.5c-8.73.23-44.9-11.33-40.24-21.72,1.81.45,3.95,3.42,5.6,4.79,13.16,11.01,32.94,12.38,49.48,8.73-4.03,5.73-14.27,1.6-18.47,5.09l.38,1.68c1.42.8,1.7.95,3.25,1.44Z"/>
        <path class="cls-7" d="M62.83,106.96l3.1.85c-2.82,9.44.6,20.16,3.85,28.9-.97,1.07-.64.73-2.35,1.07-9.79-2.91-6.67-23.39-4.61-30.82Z"/>
        <path class="cls-5" d="M40.51,95.14c.02-2.59.23-2.9,1.57-5.09,5.71-3.65,15.67,8.66,10.27,12.55-3.35.48-7.52-.23-9.62-3.12-1.67-1.71-1.75-1.99-2.22-4.34Z"/>
        <path class="cls-2" d="M40.51,95.14c2.55-.16,3.85-.12,5.42,2.29l-.25,1.25c-1.22.73-1.56.67-2.95.8-1.67-1.71-1.75-1.99-2.22-4.34Z"/>
        <path class="cls-2" d="M183.88,61.08c8.99,2.4,14.58,15.92,8.19,24.02-4.15-3.15-1.93-9.64-3.59-13.65-.96-2.33-4.87-5.74-5.8-8.7l1.2-1.67Z"/>
        <path class="cls-6" d="M153.09,113.6c.35.06.35.24.71.66-1.56,2.89-4.21,5.08-5.99,7.63-2.25,3.21-2.97,8.84-3.89,12.45l-2.58.94c-7.81-8.96,3.32-18.75,11.75-21.68Z"/>
        <path class="cls-6" d="M67.43,102.5l-.5-1.66c1.45-2.65,7.07-3.55,8.69-4.92,2.72-2.29,4.49-7.01,7.81-9.39h1.01c1.69,2.85.14,6.11-1.36,8.69-3.3,5.7-7.92,5.43-13.34,7.71l-2.3-.44Z"/>
        <path class="cls-6" d="M123.91,115.04c1.15-.04,1.08-.01,2.12.48-.3,2.87-4.95,7.11-5.85,10.26-1.01,3.51,1.85,7.62-2.11,9.03-8.49-5.16-.96-16.33,5.83-19.77Z"/>
        <path class="cls-2" d="M101.92,41.88c1.22.17,1.14.25,2.06,1.1l-.08,1.52c-1.08,1.48-6.52,5.13-8.75,7.09-.65,2.73-.95,4.23-2.08,6.82-8.87-4.38.13-15.53,8.85-16.53Z"/>
        <path class="cls-2" d="M109.49,93.19c.86-3.02.75-4.37,2.97-6.15l1.29.18c4.51,6.04-4.06,14.42-10.35,15.78-1.51-1.65-1.75-1.96-2.75-3.95,3.65-1.76,5.88-3,8.83-5.86Z"/>
        <path class="cls-6" d="M94.17,17.9c.52-.07,1.03-.14,1.55-.2,2.46-.3,3.25-.43,5.11,1.02-.96,2.2-11.62,3.23-14.56,4.62-2.56,1.21-3.59,1.87-5.97,3.5l-7.12,4.92c5.26-10.5,9.79-12.06,21-13.85Z"/>
        <path class="cls-6" d="M132.61,18.24c.34.22,2.56,2.02,2.77,2.27,4.69,5.65,19.15,6.58,17.39,15.59-.89-.22-4.53-2.72-5.43-3.42-5.27-4.12-15.36-6.57-14.73-14.44Z"/>
        <path class="cls-6" d="M165.17,76.08c6.25.06,10,5.49,11.05,11.03.55,2.83-.1,4.21-.98,6.83-6.29,2.86-3.29-2.1-4.11-6.05-1.04-4.95-2.87-7.91-5.96-11.81Z"/>
        <path class="cls-2" d="M64.41,68.68c1.55.51,2.04,1.17,2.38,2.64-1.57,2.65-4.86,2.25-6.04,4.23-2.55,4.29-1.06,5.65-4.61,9.7-8.16-6.75,2.29-13.87,8.27-16.57Z"/>
        <path class="cls-5" d="M128.17,86.55c3.03-.14,2.19-.48,4.77.77,2.92,4.34-.87,8.95-5.25,9.29-2.42-.91-3.61-1.37-4.57-3.78.2-2.12,1.38-2.96,2.89-4.57l2.17-1.71Z"/>
        <path class="cls-5" d="M127.68,96.62c-2.42-.91-3.61-1.37-4.57-3.78.2-2.12,1.38-2.96,2.89-4.57.09,1.18.24,2.49.22,3.65.31,2.04.69,2.83,1.47,4.71Z"/>
        <path class="cls-5" d="M126,88.26l2.17-1.71c1.23,1.51,1.04,2.85,1.47,5.02l-.59,1.2c-1.54-.12-1.46-.12-2.83-.86.02-1.16-.12-2.48-.22-3.65Z"/>
        <path class="cls-6" d="M101.22,117.34c1.01.09.95.15,1.81.73-.64,1.62-4.43,5.54-5.99,7.58.25,2.91,1.53,8.62-1.21,10.01-1.14-1.77-2.76-5.22-3.76-7.22,1.14-7.33,2.67-8.45,9.15-11.09Z"/>
        <path class="cls-2" d="M139.31,83.93l.58.14c4.77,1.1,5.89,5.98,3.76,9.99-2.02,3.79-3.76,4.31-7.53,5.69l-1.49.89-.75-.49c-.02-2.28,4.14-6.06,5.88-7.86-.52-3.59-1.19-4.75-.45-8.35Z"/>
        <path class="cls-5" d="M167.5,61.66c3.72-.23,7.24,1.34,9.02,4.91.55,1.09-.42,2.21-.97,3.3-5.09.35-11.92-2.43-8.05-8.2Z"/>
        <path class="cls-5" d="M183.81,89.03c7.35,3.01,6.16,5.12,3.32,11.4-2.41-.05-3.07-.47-4.6-2.11-1.18-3.24.17-6.12,1.28-9.29Z"/>
        <path class="cls-6" d="M29.85,107.43c1.95-.85,2.45-1.03,4.53-1.42l.07.64c.63,5.75,4.77,8.65,3.65,12.67-4.88-.72-7.89-7.3-8.26-11.89Z"/>
        <path class="cls-5" d="M75.41,119.67c3.55,1,3.89,1.55,5.68,4.78.19.34.38.68.55,1.02.59,1.92.64,1.01-.1,2.85-2.27,1.24-2.9,1.03-5.12-.26-1.79-1.28-3.03-2.64-3.34-4.84.42-2.02.69-2.1,2.32-3.55Z"/>
        <path class="cls-6" d="M76.43,128.06c-1.79-1.28-3.03-2.64-3.34-4.84.42-2.02.69-2.1,2.32-3.55,1.75,2.2,2.32,3.73,2.4,6.6l-1.38,1.79Z"/>
        <path class="cls-5" d="M81.64,125.48c.59,1.92.64,1.01-.1,2.85-2.27,1.24-2.9,1.03-5.12-.26l1.38-1.79c1.84-.04,2.06-.18,3.83-.79Z"/>
        <path class="cls-2" d="M116,30.95c4.19-.1,8.29-.58,10.34,3.69-.24,2.49-.05,1.59-1.81,4.01-2.78-.61-2.48-1.81-4.42-2.84-1.52-.81-3.52-.31-5.54-1.49-.06-1.88.09-1.43,1.42-3.37Z"/>
        <path class="cls-6" d="M44.4,58.58l1.14,3.88c-1.35,1.03-3.21,2.86-4.51,4.06-.45,2.4-.45,4.45-2.6,5.79l-.95-.73c-1.38-5.87,2.31-10.05,6.92-13Z"/>
        <path class="cls-6" d="M168.4,40.09c6.33-.66,9.69,4.39,9.64,10.24-2.65-.53-9.26-7.76-9.64-10.24Z"/>
        <path class="cls-2" d="M65.18,44c.88-2.63,1.76-6.34,5.22-5.36,1.5,2.26.97,3.02.35,6.16l-1.23,2.09c-1.68.85-.82.72-2.66.45-1.31-1.29-1.26-1.47-1.68-3.35Z"/>
        <path class="cls-6" d="M70.75,44.8l-1.23,2.09c-1.68.85-.82.72-2.66.45-1.31-1.29-1.26-1.47-1.68-3.35,2.25.62,3.31.65,5.57.81Z"/>
        <path class="cls-6" d="M54.85,38.8c1.78.54,2.72.69,3.07,2.57-1.24,1.82-3.81,2.69-6.14,4.76l-.42.38c-.32.27-.79.31-1.26.43-.95-1.11-.61-.46-.72-2.18,1.48-3.62,2.25-4.08,5.48-5.96Z"/>
        <path class="cls-6" d="M153.05,79.64c.68-2.23.84-3.73,2.69-5.02l1.41-.16c2.05,1.99,1.5,5.06.33,7.45l-.86,1.53-1.15.22c-1.49-1.1-1.72-2.27-2.41-4.03Z"/>
        <path class="cls-2" d="M153.05,79.64l3.58-.04c1.16,1.19.83.47.85,2.32l-.86,1.53-1.15.22c-1.49-1.1-1.72-2.27-2.41-4.03Z"/>
        <path class="cls-6" d="M132.35,133.98c3.6,3.42,3.14,6.45-.85,8.87-2.25-1.92-3.3-2.82-2.75-5.87,1.01-1.92,1.62-2.05,3.61-3Z"/>
        <path class="cls-2" d="M26.22,75.23c4.39,1.58,2.4,5.33,1.28,8.8-5.3-1.26-3.21-5.56-1.28-8.8Z"/>
        <path class="cls-6" d="M100.65,99.06c1,1.99,1.24,2.3,2.75,3.95-3.27.36-5.58.99-8.3-.87l.1-.99c1.72-1.41,3.28-1.57,5.45-2.09Z"/>
        <path class="cls-6" d="M137.32,45.59l1.2.83.14.91c-1.1,1.99-4.19,3.79-6.16,5.14-4.95-2.22,2.98-5.87,4.82-6.88Z"/>
        <path class="cls-6" d="M29.85,107.43c.75-3,1.06-5.59,3.31-7.71l.93.21c.99,2.15.57,3.68.29,6.07-2.08.39-2.58.57-4.53,1.42Z"/>
        <path class="cls-6" d="M44.4,58.58c2.1-.93,3.33-1.75,5.56-1.41l.62.73c-.9,2.63-2.55,3.12-5.04,4.57l-1.14-3.88Z"/>
        <path class="cls-6" d="M117.59,53.1c.38.49.49.98.74,1.59-.47,2.52-2.43,5.05-3.89,7.25-3.11-3.96.1-6.51,3.15-8.84Z"/>
        <path class="cls-5" d="M67.43,102.5l2.3.44c-1.94,1.99-2.33,2.47-3.8,4.86l-3.1-.85c1.75-1.54,2.99-2.78,4.6-4.45Z"/>
        <path class="cls-6" d="M33.78,90.8l1.25,1.07c.52,2.18.05,3.27-.52,5.4-1.28-.68-1.23-.74-2.02-1.9-.25-1.92.42-2.8,1.28-4.57Z"/>
        <path class="cls-4" d="M15.08,107c1.65-.64,1.72-.61,3.51-.17l1.3,1.18c.79,2.32,2.04,2.92,4.01,4.31.61,1.9.65,1.16.12,2.95l-.21.41c2.02,2.21,2.79,2.52,2.65,5.39-.02.29-.04.57-.07.86,3.56,1.62,2.19,5.36,6.25,6.6,1.08.27,2.52.57,3.52.96,1.16.9,1.24.9,2.34,1.35,2.18.89,7.49,7.37,7.81,9.48l.49-.05-1.28,3.96c1.19,4.1,6.7,6.17,4.8,11.27-1.52,1.29-2.03,1.2-4.06,1.28l-.92-1.16c-.5-1.1-.6-1.03-1.46-1.9-1.94-.48-3.22.32-5.15,1.08l-1.16.57c-1.06.41-2.12.69-3.21,1.01-2.44-.85-2.39-1.51-4.35-3.75.08,2.4.28,2.95.94,5.19l-3.1.82-.88,1.29-1.21.32c.81,3.01,1.82,5.82,2.83,8.75,1.54,3.49,3.1,6.97,4.69,10.44.19,3.11,2.54,6.82,3.47,9.87.43,1.42.2,2.18.72,3.9l.48,1.99-3.04,1.07c-4.34-2.33-6.17-8.29-7.93-12.7-5.89-11.28-13.7-28.75-17.62-40.98-1.11-1.62-1.56-3.34-2.2-5.21-2.99-5.04-2.05-8.95-7.15-15.09,1.04-2.21,2.37-4.68,3.49-6.88,2.75-5.96,3.87-6.7,10.13-8.29l1.45-.15Z"/>
        <path class="cls-4" d="M4.4,116.12l1.84-1.98c2.75.14,3.12,3.39,3.99,5.87-1.92,3.78.18,4.77,1.55,8.52l1.72,2.88-.07.53c.29,1.4.32,1.7,1.11,2.93,2.32,3.65,2.62,10.63,5.74,13.31l1.19-.41,1.86,1.64.6.23c4.02.92,3.75.34,6.09,3,.08,2.4.28,2.95.94,5.19l-3.1.82-.88,1.29-1.21.32c.81,3.01,1.82,5.82,2.83,8.75,1.54,3.49,3.1,6.97,4.69,10.44.19,3.11,2.54,6.82,3.47,9.87.43,1.42.2,2.18.72,3.9l.48,1.99-3.04,1.07c-4.34-2.33-6.17-8.29-7.93-12.7-5.89-11.28-13.7-28.75-17.62-40.98-1.11-1.62-1.56-3.34-2.2-5.21-2.99-5.04-2.05-8.95-7.15-15.09,1.04-2.21,2.37-4.68,3.49-6.88l.91.68Z"/>
        <path class="cls-4" d="M9.36,142.62c2.08,1.14,4.15,6.04,4.62,8.32,1.95,9.24,17.35,23.6,12.99,32.66-5.89-11.28-13.7-28.75-17.62-40.98Z"/>
        <path class="cls-4" d="M3.49,115.44l.91.68c-1.73,11.44,6.51,17.72,6.01,23.31l-.63.46c-1.05-1.01-1.33-1.72-2.62-2.48-2.99-5.04-2.05-8.95-7.15-15.09,1.04-2.21,2.37-4.68,3.49-6.88Z"/>
        <path class="cls-2" d="M23.33,149.42l.6.23c4.02.92,3.75.34,6.09,3,.08,2.4.28,2.95.94,5.19l-3.1.82c-1.81-3.32-3.15-5.68-4.52-9.24Z"/>
        <path class="cls-9" d="M21.46,147.77l1.86,1.64c1.38,3.56,2.72,5.93,4.52,9.24l-.88,1.29-1.21.32c-2.05-3.98-3.72-7.98-5.49-12.09l1.19-.41Z"/>
        <path class="cls-4" d="M15.08,107c1.65-.64,1.72-.61,3.51-.17l1.3,1.18c.79,2.32,2.04,2.92,4.01,4.31.61,1.9.65,1.16.12,2.95l-.21.41c2.02,2.21,2.79,2.52,2.65,5.39-.02.29-.04.57-.07.86,3.56,1.62,2.19,5.36,6.25,6.6-.22,2.99.18,3.26,1.27,5.86l-1.23.43c-3.96.97-5.91-.52-7.99-3.75-1.4-2.9-1.42-3.25-4.38-3.86l-4.62.02c-1.98.29-2.31.22-3.92,1.28-1.36-3.75-3.47-4.74-1.55-8.52-.88-2.47-1.24-5.73-3.99-5.87l-1.84,1.98-.91-.68c2.75-5.96,3.87-6.7,10.13-8.29l1.45-.15Z"/>
        <path class="cls-4" d="M13.63,107.15l1.45-.15c-.65,2.59-2.01,4.27-.58,6.57-1.25,2.54-2.05,4.68-4.27,6.44-.88-2.47-1.24-5.73-3.99-5.87l-1.84,1.98-.91-.68c2.75-5.96,3.87-6.7,10.13-8.29Z"/>
        <path class="cls-5" d="M14.5,113.57c2.15,4.79,3.83,6.49.18,10.72.27,1.52.25,1.67,1.02,2.96-1.98.29-2.31.22-3.92,1.28-1.36-3.75-3.47-4.74-1.55-8.52,2.22-1.76,3.02-3.9,4.27-6.44Z"/>
        <path class="cls-4" d="M26.39,121.95c3.56,1.62,2.19,5.36,6.25,6.6-.22,2.99.18,3.26,1.27,5.86l-1.23.43c-3.96.97-5.91-.52-7.99-3.75,5.09-1.98,1.68-4.54,1.69-9.13Z"/>
        <path class="cls-4" d="M23.81,115.7c-.48,2.71.95,4.48-.62,7.02l-.79-.13c-2.38-2.08-5.13-6.86-4.42-10.06l1-.52c2.75.72,3.09,1.25,5.04,3.27l-.21.41Z"/>
        <path class="cls-4" d="M21.46,147.77c-.91-4.81-4.23-8.44-5.38-13l1.03-.69,4.34,1.21c5.65,1.6,17.76,15.16,2.47,14.34l-.6-.23-1.86-1.64Z"/>
        <path class="cls-4" d="M32.64,128.55c1.08.27,2.52.57,3.52.96,1.16.9,1.24.9,2.34,1.35,2.18.89,7.49,7.37,7.81,9.48l.49-.05-1.28,3.96c-2.35.22-2.85.15-5.2-.21l-1.28-1.59c-2.7-4.3-2.85-5.49-8.19-5.09l1.82-2.52,1.23-.43c-1.08-2.6-1.48-2.87-1.27-5.86Z"/>
        <path class="cls-5" d="M33.91,134.41c8.71.72,4.67,4.69,9.38,6.39,1.07-.1,1.99-.13,3.02-.46l.49-.05-1.28,3.96c-2.35.22-2.85.15-5.2-.21l-1.28-1.59c-2.7-4.3-2.85-5.49-8.19-5.09l1.82-2.52,1.23-.43Z"/>
        <path class="cls-4" d="M40.32,144.03c2.35.37,2.85.43,5.2.21,1.19,4.1,6.7,6.17,4.8,11.27-1.52,1.29-2.03,1.2-4.06,1.28l-.92-1.16c-.5-1.1-.6-1.03-1.46-1.9-1.94-.48-3.22.32-5.15,1.08-.42-.47-1.89-2.83-2.33-3.5,2.5.3,3.81,2.17,6.02.08-.1-2.63-1.32-4.06-2.01-6.95l-.09-.42Z"/>
        <path class="cls-4" d="M36.4,151.32c-1.37-2.42-4.3-6.3-3.25-8.82,2.05-.88,3.63-.39,5.9-.05l1.28,1.59.09.42c.68,2.89,1.91,4.32,2.01,6.95-2.22,2.09-3.52.22-6.02-.08Z"/>
        <path class="cls-5" d="M20.32,127.23c2.96.6,2.98.95,4.38,3.86,2.08,3.24,4.02,4.72,7.99,3.75l-1.82,2.52c-4.93-1.97-5.06.43-8.32-4.82-.95-1.63-2.07-2.17-3.65-3.24l1.42-2.06Z"/>
        <path class="cls-5" d="M15.7,127.25l4.62-.02-1.42,2.06c-1.78.81-3.49,1.71-5.4,2.12l-1.72-2.88c1.62-1.06,1.95-.99,3.92-1.28Z"/>
        <path class="cls-2" d="M13.49,131.41c1.91-.41,3.62-1.31,5.4-2.12,1.58,1.07,2.69,1.61,3.65,3.24-4.64.46-5.07,1.7-9.12-.59l.07-.53Z"/>
        <path class="cls-2" d="M124.18,177.44c2.39,4.65,1.89,5.65,2.41,10.85,2.78,2.24,4.49,4.8,7.52,5.35h.57c3.09-.38,3.84-1.18,6.31-2.99.12,1.1.22,3.29.57,4.22-.32.35-1.88,2.13-2.15,2.34-1.02,2.15-1.17,2.65-3.17,4.06l-.52.52c.37,2.88.37,3.25-.38,6.08l.98,6.72.38,2.22c1.32.6,1.99.79,2.98,1.86-3.16.52-9.5,1.37-12.64.84-.12-1.09-.44-1.82-.78-2.86l1.28-.95c-.79-.51-.97-1.06-1.5-1.92-.5-.61-1.32-1.25-1.94-1.79l-.48.45c-.74.71-1.12,1.3-1.68,2.13-.59-.14-3.08-.9-3.29-.92l-3.25,1.69c-1.86-.09-2.25.03-3.76-.91-3.3-2.03-6.51-1.79-10.39-2.01l-2.55-.66c.08-3.32-.57-3.07-3.15-4.68l-.12-.68c.76-.26,1.63-.63,2.39-.93l.14-.9-2.35-1.94,6.06-5.36,1.15-.79,3.71.02c-.23-2.31-.8-4.14.37-5.76l2.78,1.47c1.69-.1,2.51.04,3.82-.89.67-1.34.95-2.21,2.2-3.08-.68-1.07-.63-1.67-.75-2.92.83-1.72,1.01-1.57,2.52-2.76l4.56-4.1,2.15-1.03Z"/>
        <path class="cls-3" d="M106.52,196.5c-.23-2.31-.8-4.14.37-5.76l2.78,1.47c.64.33,3.12,1.58,3.65,1.67,2.47.44,4.48-.77,6.51,1.02.25,1.27.54,2.52.58,3.81l-1.02,1.22c-.56,3.21-1.42,10.6-.76,13.72l-3.25,1.69c-1.86-.09-2.25.03-3.76-.91-3.3-2.03-6.51-1.79-10.39-2.01l-2.55-.66c.08-3.32-.57-3.07-3.15-4.68l-.12-.68c.76-.26,1.63-.63,2.39-.93l.14-.9-2.35-1.94,6.06-5.36,1.15-.79,3.71.02Z"/>
        <path class="cls-9" d="M106.52,196.5c-.23-2.31-.8-4.14.37-5.76l2.78,1.47c.64.33,3.12,1.58,3.65,1.67,2.47.44,4.48-.77,6.51,1.02.25,1.27.54,2.52.58,3.81l-1.02,1.22c-4.53,5.01-8.02,3.5-11.99-1.04l-.88-2.38Z"/>
        <path class="cls-2" d="M107.41,198.88c3.97,4.55,7.45,6.05,11.99,1.04-.56,3.21-1.42,10.6-.76,13.72l-3.25,1.69c-.77-8.08-6.78-5.5-7.98-16.46Z"/>
        <path class="cls-2" d="M101.67,197.27l1.15-.79c-.98,2.03-1.04,6.28-.48,8.16-.54,2.38-1.12,3.01-.37,4.95l.88.74c-.55.69-1.08,1.38-1.62,2.08l-2.55-.66c.08-3.32-.57-3.07-3.15-4.68l-.12-.68c.76-.26,1.63-.63,2.39-.93l.14-.9-2.35-1.94,6.06-5.36Z"/>
        <path class="cls-2" d="M102.33,204.64c.95.9,5.67,4.85,5.69,5.3l-2.27-.85-.28.2c-.92.65-1.08.81-2.18,1.18l-.44-.13-.88-.74c-.75-1.95-.17-2.57.37-4.95Z"/>
        <path class="cls-9" d="M126.59,188.29c2.78,2.24,4.49,4.8,7.52,5.35h.57c3.09-.38,3.84-1.18,6.31-2.99.12,1.1.22,3.29.57,4.22-.32.35-1.88,2.13-2.15,2.34-1.02,2.15-1.17,2.65-3.17,4.06l-.52.52c-4.28-.24-9.19-2.41-11.14-6.41-.5-1.03.62-3.73.99-4.79l1.02-2.3Z"/>
        <path class="cls-6" d="M134.68,193.64c3.09-.39,3.84-1.18,6.31-2.99.12,1.1.22,3.29.57,4.22-.32.35-1.88,2.13-2.15,2.34-1.02,2.15-1.17,2.65-3.17,4.06-.55-2.52-1.39-5.15-2.13-7.63h.57Z"/>
        <path class="cls-4" d="M120.42,198.7l1.95-.37c1.82,1.43,5.79,5.77,5.92,8.08-.73,3.47,1.15,3.77.75,6.69l-3.03.67c-.5-.61-1.32-1.25-1.94-1.79l-.48.45c-.74.71-1.12,1.3-1.68,2.13-.59-.14-3.08-.9-3.29-.92-.65-3.12.2-10.51.76-13.72l1.02-1.22Z"/>
        <path class="cls-4" d="M124.18,177.44c2.39,4.65,1.89,5.65,2.41,10.85l-1.02,2.3c-2.07,1.27-3.8,1.77-6.2,1.2-1.28-1.73-.95-2.18-1.18-4.55l-.7-.45-1.79,1.44c-.68-1.07-.63-1.67-.75-2.92.83-1.72,1.01-1.57,2.52-2.76l4.56-4.1,2.15-1.03Z"/>
        <path class="cls-6" d="M127.52,215.7c3.16-.34,6.19-.06,9.17,1.12,1.32.6,1.99.79,2.98,1.86-3.16.52-9.5,1.37-12.64.84-.12-1.09-.44-1.82-.78-2.86l1.28-.95Z"/>
        <path class="cls-4" d="M133.87,209.54l1.46-1.67.98,6.72.38,2.22c-2.99-1.18-6.01-1.46-9.17-1.12-.79-.51-.97-1.06-1.5-1.92l3.03-.67c.51.82.52.75,1.38,1.2,1.28-2.37,1.68-2.8,3.44-4.77Z"/>
        <path class="cls-2" d="M128.3,206.42c1.38-3.54-.42-2.34.3-5.16,1.55,1.97.13,5.11,1.58,7.2,1.05-1.06.78-1.39,1.14-3.19,1.21,1.5,2.22,2.4,2.55,4.26-1.76,1.97-2.15,2.4-3.44,4.77-.86-.45-.87-.38-1.38-1.2.4-2.92-1.48-3.22-.75-6.69Z"/>
        <path class="cls-2" d="M30.01,152.64c1.95,2.25,1.91,2.91,4.35,3.75,1.08-.32,2.15-.6,3.21-1.01,1.92,1.31,2.22,1.85,3.55,3.7.86,1.77,1.81,3.62,2.62,5.41l-3.04,1.66c.85,3.67,1.62,4.06,2.72,7,.63,1.67.09,1.09,1.52,1.91l-1.52.84-1.79.53-2.01-1.14-2.94-3.84-.47-1.19c-1.39-2-1.98-3.49-4.41-4.21l-1.12.29c-1.18-2.46-1.78-3.75-3.38-5.95l-.32-.44.88-1.29,3.1-.82c-.66-2.24-.85-2.8-.94-5.19Z"/>
        <path class="cls-9" d="M30.01,152.64c1.95,2.25,1.91,2.91,4.35,3.75,1.08-.32,2.15-.6,3.21-1.01,1.92,1.31,2.22,1.85,3.55,3.7.86,1.77,1.81,3.62,2.62,5.41l-3.04,1.66-1.79-.42c-1.76-2.03-3.39-6.97-6.24-7.78l-1.72-.12c-.66-2.24-.85-2.8-.94-5.19Z"/>
        <path class="cls-4" d="M30.95,157.84l1.72.12c.42,2.05.45,2.75,1.68,4.4-1.1,1.99-2.28,2.34-2.56,3.7l-1.12.29c-1.18-2.46-1.78-3.75-3.38-5.95l-.32-.44.88-1.29,3.1-.82Z"/>
        <path class="cls-2" d="M38.91,165.73l1.79.42c.85,3.67,1.62,4.06,2.72,7,.63,1.67.09,1.09,1.52,1.91l-1.52.84-1.79.53-2.01-1.14,1.16-1.85c.19-2.29-1.11-4.5-1.74-7.2l-.12-.52Z"/>
        <path class="cls-4" d="M34.35,162.36c1.83,1.25,3.14,5.58,1.85,7.91-1.39-2-1.98-3.49-4.41-4.21.28-1.36,1.46-1.7,2.56-3.7Z"/>
        <path class="cls-4" d="M118.63,213.64c.21.02,2.69.78,3.29.92.57-.84.95-1.42,1.68-2.13l.48-.45c.62.54,1.44,1.18,1.94,1.79.53.86.71,1.42,1.5,1.92l-1.28.95c.35,1.04.66,1.78.78,2.86-3.03.15-5.39.16-8.43.07h-4.06c-3.99.19-10.98.67-14.58.25,1.92-1.69,9.06-2.54,11.67-5.41,1.51.94,1.9.83,3.76.91l3.25-1.69Z"/>
        <path class="cls-2" d="M124.08,211.98c.62.54,1.44,1.18,1.94,1.79.53.86.71,1.42,1.5,1.92l-1.28.95c.35,1.04.66,1.78.78,2.86-3.03.15-5.39.16-8.43.07.28-1.6.32-1.64.98-3.14,1.9-.23,3.94-.29,4.98-1.79-.56-1.15-.64-1.32-.47-2.68Z"/>
        <path class="cls-2" d="M114.53,219.59l.72-2.61c1.65-1.08,2.02-.66,4.32-.54-.66,1.5-.7,1.55-.98,3.14h-4.06Z"/>
        <path class="cls-2" d="M16.51,91l.38.63.15-.89c.61,2.35,1.05,3.78,1.23,6.21l-.41,3.41c.18,1.42.12,2.22.77,3.41,1.15,1.83,1.22,2.08,1.25,4.24l-1.3-1.18c-1.78-.44-1.85-.48-3.51.17l-1.45.15.05-.72c-.28-5.35-.27-10.75,2.84-15.43Z"/>
        <path class="cls-6" d="M13.67,106.43c.93-1.33.62-3.58.58-5.33,1.39-1.2,1.15-.78,3.62-.73.18,1.42.12,2.22.77,3.41,1.15,1.83,1.22,2.08,1.25,4.24l-1.3-1.18c-1.78-.44-1.85-.48-3.51.17l-1.45.15.05-.72Z"/>
      </g>
      <g>
        <path class="cls-4" d="M222.67,52.17h-44.02c-6.53,0-11.82-5.29-11.82-11.82V13.98c0-6.53,5.29-11.82,11.82-11.82h44.02c6.53,0,11.82,5.29,11.82,11.82v26.37c0,6.53-5.29,11.82-11.82,11.82Z"/>
        <text class="cls-8" transform="translate(184.93 40.79)"><tspan x="0" y="0">M</tspan></text>
      </g>
    </g>
  </g>
</svg>