<?xml version="1.0" encoding="UTF-8"?>
<svg id="Capa_2" data-name="Capa 2" xmlns="http://www.w3.org/2000/svg" viewBox="0 0 204.66 250">
  <defs>
    <style>
      .cls-1 {
        fill: #353a59;
      }

      .cls-2 {
        fill: #fff;
        font-family: PlusJakartaSans-SemiBold, 'Plus Jakarta Sans';
        font-size: 36px;
        font-weight: 600;
        letter-spacing: .02em;
      }

      .cls-3 {
        fill: #2b2d43;
      }

      .cls-4 {
        fill: #e87782;
      }

      .cls-5 {
        fill: #f0253e;
      }
    </style>
  </defs>
  <g id="ICONS">
    <g>
      <g>
        <path class="cls-1" d="M75.32,5.7c10.11-12.44,35.4-1.83,45.86,6.2,5.23,4.01,7.24,7.54,9.06,13.73,17,22.94,21.33,39.27,17.35,68.06-3.86,27.94-16.28,41.64-37.42,58.44.05,9.87,1.1,13.29-4.95,20.91l2.83,6.01c2.76,10.22-5.99,13.65-13.49,9.01-2.86-1.72-5.05-1.25-8.47-1.12-1.8,3.63-1.75,10.06-1.82,14.27,1.77,3.16,2.99,5.32,5.09,8.27,5.42,5.53,5.63,5.68,9.27,14.05,4.29,9.88-5.33,31.13-16.9,25.55-7.57-3.65,8.76-13.9,7.06-21.13-2.5-10.6-14.43-12.63-14.88-24.83-1.02-4.78.18-9.75-2.1-12.96-2.61-1.68-5.83-1.48-9.02-1.67-3.88-.38-5.91-.31-8.14-3.87-.29-3.12-.18-3.05.74-6.13,1.1-2.28,1.86-5.43,2.57-7.95-5.81-4.33-8.32-8.74-7.56-15.99-4.97-4.03-12.64-6.64-18.7-11.14-8.48-5.91-14.18-15.6-18.08-25-1.99-4.8-2.5-8.83-5.35-13.59C-6.2,89.51-.17,54.61,14.78,41.3c2.06-3.91,12.41-15.55,16.11-18.64,7.42-6.19,19.5-11.59,28.77-14.33,4.69-1.38,10.41-1.04,15.66-2.63Z"/>
        <path class="cls-1" d="M65.47,179.83c12.15,1.58,9.2-4.5,17.1-4.26l5.44,1.08-.94.37-.17,1.18c-.58,3.79-2.16,6.31-.81,8.76-1.8,3.63-1.75,10.06-1.82,14.27,1.77,3.16,2.99,5.32,5.09,8.27,5.42,5.53,5.63,5.68,9.27,14.05,4.29,9.88-5.33,31.13-16.9,25.55-7.57-3.65,8.76-13.9,7.06-21.13-2.5-10.6-14.43-12.63-14.88-24.83-1.02-4.78.18-9.75-2.1-12.96-2.61-1.68-5.83-1.48-9.02-1.67,3.77-.41,10.16.09,12.03-3.56-3.74-4.13-5.77-2.34-9.32-5.1Z"/>
        <path class="cls-3" d="M65.47,179.83c12.15,1.58,9.2-4.5,17.1-4.26-9.93,9.69-7.14,13.62-8.68,27.55-1.02-4.78.18-9.75-2.1-12.96-2.61-1.68-5.83-1.48-9.02-1.67,3.77-.41,10.16.09,12.03-3.56-3.74-4.13-5.77-2.34-9.32-5.1Z"/>
        <path class="cls-3" d="M89.35,209.48l-.89.1c-8.52-5.05-6.56-24.33-3.45-32.26l2.05-.3-.17,1.18c-.58,3.79-2.16,6.31-.81,8.76-1.8,3.63-1.75,10.06-1.82,14.27,1.77,3.16,2.99,5.32,5.09,8.27Z"/>
        <path class="cls-1" d="M63.27,158.97c1.81-.34,1.18-.48,2.77.02l1.05-.4c2.65,1.67,3.66,2.09,5.6,4.45-1.73,5.8-7.31,12.69-7.21,16.8,3.55,2.77,5.58.98,9.32,5.1-1.86,3.65-8.26,3.15-12.03,3.56-3.88-.38-5.91-.31-8.14-3.87-.29-3.12-.18-3.05.74-6.13,1.1-2.28,1.86-5.43,2.57-7.95,2.2-4.1,3.54-7.31,5.33-11.58Z"/>
        <path class="cls-3" d="M63.27,158.97c1.81-.34,1.18-.48,2.77.02-2.07,5.04-6.51,16.58-10.67,19.51,1.1-2.28,1.86-5.43,2.57-7.95,2.2-4.1,3.54-7.31,5.33-11.58Z"/>
        <path class="cls-4" d="M72.69,163.03c15.61-.67,15.57-2.68,23.13,12.82l-.54.8c-3.14.23-4.14.24-7.28-.02l-5.44-1.08c-7.9-.24-4.95,5.84-17.1,4.26-.1-4.1,5.48-10.99,7.21-16.8Z"/>
        <path class="cls-4" d="M75.32,5.7c10.11-12.44,35.4-1.83,45.86,6.2,5.23,4.01,7.24,7.54,9.06,13.73-21.81-14.58-27-19.18-54.92-19.93Z"/>
        <path class="cls-4" d="M8.25,104.83C-6.2,89.51-.17,54.61,14.78,41.3c-8.01,27.64-9.33,33.1-6.53,63.53Z"/>
        <path class="cls-4" d="M97.71,158.94l12.46-6.81c.05,9.87,1.1,13.29-4.95,20.91-1.28-1.77-6.3-11.78-7.51-14.11Z"/>
        <path class="cls-4" d="M50.38,154.56c4.26,1.63,8.45,3.42,12.89,4.41-1.79,4.27-3.13,7.48-5.33,11.58-5.81-4.33-8.32-8.74-7.56-15.99Z"/>
        <path class="cls-4" d="M94.56,188.07c7.87-4,8.31-1.24,13.49-9.01,2.76,10.22-5.99,13.65-13.49,9.01Z"/>
        <path class="cls-4" d="M134.67,101.44c-5.67,16.06-16.93,34.22-32.32,42.45-11.95,6.44-26,7.74-38.93,3.62-15.82-4.98-26.22-14.49-33.82-28.99-10.26-19.15-12.45-41.6-6.08-62.37C35.19,18.9,70.25,11.55,104.16,22.33c9.69,4.21,21.62,13.54,25.9,23.38,5.17,7.26,5.05,16.99,7.05,24.96l1.45.67c1.82,7.96.8,21.66-2.47,29.14l-1.42.95Z"/>
        <path class="cls-4" d="M104.16,22.33c9.69,4.21,21.62,13.54,25.9,23.38l-.94.54c-1.75-2.14-5.71-7.11-7.61-8.77-5.81-5.08-13.59-8.02-17.35-15.15Z"/>
        <path class="cls-3" d="M137.12,70.68l1.45.67c1.82,7.96.8,21.66-2.47,29.14l-1.42.95c2.75-13.33,2.85-17.41,2.45-30.76Z"/>
        <path class="cls-4" d="M47.84,42.59l.53,1-.03.62c2.66,1.32,8.26,4.41,10.12,6.65l1.9-.52c-.54,2.12-4.73,5.85-6.6,7.61-5.66,6.23-9.77,24.09-15.74,24.96-2.44-2.33-2.43-8.02-2.45-11.33-.09-11.88,4.17-20.79,12.27-28.99Z"/>
        <path class="cls-3" d="M47.84,42.59l.53,1-.03.62c-7.35,8.62-8.79,21.94-9.36,32.89,4.72-9.41,6.06-12.69,13.11-20.33l1.68,1.18c-5.66,6.23-9.77,24.09-15.74,24.96-2.44-2.33-2.43-8.02-2.45-11.33-.09-11.88,4.17-20.79,12.27-28.99Z"/>
        <path class="cls-1" d="M58.46,50.85l1.9-.52c-.54,2.12-4.73,5.85-6.6,7.61l-1.68-1.18c1.79-1.98,4.35-4.11,6.38-5.91Z"/>
        <path class="cls-5" d="M97.62,73.07l1.56.17c1.64,1.94,1.11.84,1.49,3.5l-1.09.63c-2.07-1.22-1.3-1.17-3.41-1.26,3.52,6.59,3.07,20.41-.96,26.74l-.6-.41.04-3.91-.71-.44c-.56.54-1.12,1.06-1.69,1.58-3.97,3.55-5.57,2.73-11.04,2.43-.36,3.09-.39,3.8-.27,6.9l2.85,2.03-.68.9-1.6-.14c-5.45-5.13.5-11.37,1.73-17.03.45-2.06-3.46-5.84-4.93-7.8-.35-2.38-.68-1.39.62-3.14,11.72-2.1,9.01-8.94,18.69-10.72Z"/>
        <path class="cls-4" d="M47.84,42.59l3.63-6.2c6.5,3.3,16.94,5.88,20.2,9.65l-.39.72c-1.34-.94-2.21-1.66-3.46-2.71-3.09.36-3.17,1.84-5.7,3.12-2.36-1.84-4.18-3.84-6.26-5.97l-7.49,2.4-.53-1Z"/>
        <path class="cls-5" d="M91.03,104.44c1.57-.02,1.41.07,2.98.47l1.19,2.01,1.18-.21-.51-1.64.51-.58,1.15.91c-.07,2.47-3.26,5.81-5,8.37-1.86,1.12-4.47,1.92-6.72,1.48l-.52-1.28c.96-4.13,3.09-6.16,5.74-9.53Z"/>
      </g>
      <g>
        <path class="cls-3" d="M190.3,176.22h-71.27c-7.93,0-14.37-6.43-14.37-14.37v-21.27c0-7.93,6.43-14.37,14.37-14.37h71.27c7.93,0,14.37,6.43,14.37,14.37v21.27c0,7.93-6.43,14.37-14.37,14.37Z"/>
        <text class="cls-2" transform="translate(113.37 164.84)"><tspan x="0" y="0">AIRE</tspan></text>
      </g>
    </g>
  </g>
</svg>