<?xml version="1.0" encoding="UTF-8"?>
<svg id="Capa_2" data-name="Capa 2" xmlns="http://www.w3.org/2000/svg" xmlns:xlink="http://www.w3.org/1999/xlink" viewBox="0 0 250 200.09">
  <defs>
    <style>
      .cls-1 {
        fill: url(#Degradado_sin_nombre_5);
      }

      .cls-2 {
        fill: #353a59;
      }

      .cls-3 {
        fill: url(#Degradado_sin_nombre_19);
      }

      .cls-4 {
        fill: #2b2d43;
      }

      .cls-5 {
        fill: #e87782;
      }

      .cls-6 {
        fill: #d9042a;
      }

      .cls-7 {
        fill: url(#Degradado_sin_nombre_5-2);
      }

      .cls-8 {
        fill: #f9f2eb;
      }
    </style>
    <linearGradient id="Degradado_sin_nombre_5" data-name="Degradado sin nombre 5" x1="2086.56" y1="610.26" x2="2128.11" y2="638.39" gradientTransform="translate(-1285.2 540.76) scale(.62 -.62)" gradientUnits="userSpaceOnUse">
      <stop offset="0" stop-color="#2b2d43"/>
      <stop offset="1" stop-color="#353a59"/>
    </linearGradient>
    <linearGradient id="Degradado_sin_nombre_19" data-name="Degradado sin nombre 19" x1="2148.75" y1="722.92" x2="2188.18" y2="710.55" gradientTransform="translate(-1285.2 540.76) scale(.62 -.62)" gradientUnits="userSpaceOnUse">
      <stop offset="0" stop-color="#353a59"/>
      <stop offset="1" stop-color="#2b2d43"/>
    </linearGradient>
    <linearGradient id="Degradado_sin_nombre_5-2" data-name="Degradado sin nombre 5" x1="2197.72" y1="1030.15" x2="2211.29" y2="1010.49" xlink:href="#Degradado_sin_nombre_5"/>
  </defs>
  <g id="ICONS">
    <g>
      <path class="cls-5" d="M131.4.27c3.42,0,12.47.4,15.13,2.4l5.74,1.71c4.02.58,7.83.78,11.21,3.09-1.54,1.37-1.24.75-1.85,2.54.42,1.62.48,1.74,1.33,3.19,2.44.91,3.35,1.13,5.38,2.79.45-2.2,1.83-2.29,3.7-3.17,3.38.89,4.71,3.39,6.52,6.24l.63-.52c3.52-4,4.42-3.49,9.54-4.41,4.41-.8,20.27,2.65,23.84,4.91,1.13,2.07,3.22,2.44,5.4,3.09,8.56,2.51,10.03,2.22,16.92,7.48,5.14,3.65,8.22,18.16,11.09,21.01.49,2.47.95,4.73,1.58,7.17l1.45-1.06c2.86,1.93-1.2,9.23-2.68,11.39-.55.81-1.15,1.58-1.8,2.31l-2.13,2.87c-4.78,7.28-8.76,12.67-14.36,19.34l-5.68,7c-1.93,2.22-4.83,5.76-6.9,7.66-2.79,3.27-9.39,10.28-12.63,13.36-.56.64-2.53,2.97-3.06,3.37-10.08,11.91-23.65,28.62-34.2,39.48-3.06,3.56-7.7,8.85-10.5,12.53-5.44,7.36-7.97,10.76-14.45,16.99-2.41,4.66-4.44,5.12-9.19,6.37-4.77-1.28-8.8-2.94-13.4-4.28l-39.86-11.36c-5.18-1.46-12.38-1.88-16.63-3.31-10.63-3.6-21.29-6.99-31.79-10.94-3.8-1.43-19.47-4.78-21.56-6.33-.82-2.9-2.1-2.81-1.7-5.43l.67-.75c-.88-2.39-.46-7.13-.36-9.83-1.08.61-1.34.88-2.6.87l-.61-1.02c.09-2.32.05-3.12-.61-5.4-.14-2.01.66-4.58,1.37-6.44l.13-9.53c3.01-4.34,5.63-7.9,9.47-11.55,3.63-4.81,13.1-14.55,17.97-18.56.78-.64,4.6-2.12,5.75-2.55,4.83-3.22,3.72-10.53,10.48-16.77,3.86-4.09,7.84-8.06,11.93-11.92,4.93-5.6,11.54-14.73,18.17-18.06.69-.35,4.24-.84,5.2-.96.17-.42,2.77-4.84,3.5-6.44,2.1-9.57,15.29-22.01,22.7-27.89,4.24.14,5.22-1.65,8.43-4.63.9.78,1.99,1.66,2.76,2.53l1.77-1.73c1.48-.16,2.22-.45,3.66-.9,1.65-.32,2.62-.56,4.23-1.06l.47-3.12.47-1.71Z"/>
      <path class="cls-4" d="M150.32,118.05c1.04.48,1.36.99,2.11,1.85l2.06.44,2.19-.75c1.32.52,2.73,1.04,4.02,1.63,1.53,1.66,1.63,1.25,1.95,3.1-.29.36-.73.96-1.06,1.24l-.12.27c-2.45.38-2.8.2-3.56,2.76l-.45-.03c-2.28-2.6-2.37-2.71-5.37-3.02-.74-.49-2.47-1.35-3.32-1.81-1.17.05-2.67-.46-3.87-.77l-7.5-1.78c3.08-.4,9.22-.77,12.26-1.33.57-.11.54-1.04.67-1.79Z"/>
      <path class="cls-8" d="M156.67,119.59c1.32.52,2.73,1.04,4.02,1.63,1.53,1.66,1.63,1.25,1.95,3.1-.29.36-.73.96-1.06,1.24-1.91-2.94-4.04-3.79-7.09-5.22l2.19-.75Z"/>
      <path class="cls-4" d="M37.64,92.94c1.74,4.32,1.48,1.61,3.04,4.11l.88.48c2.81-1.16,3.74-1,6.33.55l.33.22c7.15.96,13.04,3.89,20.41,5.02,3.67.53,6.69,1.18,10.29,1.98,2.23.47,4.75.7,6.32,2.28l3.13-2.28-5.19-1.5c.14-.76,1.26-1.74,1.89-2.42.52.15,2.75.8,3.15.83,1.87.38,2.73.46,4.4,1.49l1.02.41,1.85-1.08,1.44.42.49-.14,1.25-2.46c1.35,1.76,2.04,2.47,2.7,4.65,2.66,1.41,2.93,1.54,5.73.5.58,2.07,1.14,4.5,3.28,5.38,7.3,3.03,17.58,2.81,23.49,8.89l3.51.89,7.5,1.78c1.2.31,2.7.82,3.87.77.85.46,2.58,1.32,3.32,1.81,3,.31,3.1.42,5.37,3.02l.45.03c.75-2.56,1.1-2.38,3.56-2.76l.12-.27c.32-.28.77-.88,1.06-1.24-.32-1.85-.42-1.44-1.95-3.1.47-3.12,1.94-3.93,1.81-7.99l.06-.65.69.28c1.18,3.7.05,2.64.66,6.02.72,3.96,2.12,7.98,2.99,11.87l2.27,1.11c5.96-3.72,1.22-10.16,2.36-13.25,1.19.67,1.63.9,2.9,1.37.49-1.44.2-1.27-.38-3.1l2.21-3.94,1.74-.12,1.23-1.74c1.53.19,1.29.38,2.72,1.59,2.27,3.03,2.87,4.62,6.49,5.31l1.9-.74c1.97-.05,1.26-.31,2.7.81,1.63-.45,2.37-1.64,2.64-3.2l-2.05.11.06-.5,1.29-.96c3.53.91,3.36-.02,5.42-2.89,2.24-.96,1.23-.9,3.87.03l.02.43c-1.1,1.34-.47,2.4-1.99,4.73.05,1.43-.04,3.64.53,4.84-.56.64-2.53,2.97-3.06,3.37-10.08,11.91-23.65,28.62-34.2,39.48-3.06,3.56-7.7,8.85-10.5,12.53-5.44,7.36-7.97,10.76-14.45,16.99-2.41,4.66-4.44,5.12-9.19,6.37-4.77-1.28-8.8-2.94-13.4-4.28l-39.86-11.36c-5.18-1.46-12.38-1.88-16.63-3.31-10.63-3.6-21.29-6.99-31.79-10.94-3.8-1.43-19.47-4.78-21.56-6.33-.82-2.9-2.1-2.81-1.7-5.43l.67-.75c-.88-2.39-.46-7.13-.36-9.83-1.08.61-1.34.88-2.6.87l-.61-1.02c.09-2.32.05-3.12-.61-5.4-.14-2.01.66-4.58,1.37-6.44l.13-9.53c3.01-4.34,5.63-7.9,9.47-11.55,3.63-4.81,13.1-14.55,17.97-18.56.78-.64,4.6-2.12,5.75-2.55Z"/>
      <path class="cls-1" d="M37.64,92.94c1.74,4.32,1.48,1.61,3.04,4.11l.88.48c2.81-1.16,3.74-1,6.33.55l.33.22c7.15.96,13.04,3.89,20.41,5.02,3.67.53,6.69,1.18,10.29,1.98-2.52,3.5-3.85.68-7.04,5.09l-.03.4.9,1.06c-.39,2.63-.63,4.5-.76,7.15-1.97,1.6-4.6,3.6-6.29,5.39-3.64,3.65-7.06,7.15-10.13,11.32-1.24,1.68.28,2.98-1.23,3.75l-1.14,3.81c2.16,2.18,2.38,2.05,2.93,5.08-.27,5.93,4.03,5.89,6.76,9.09-.49.83-.73,1.37-1.5,1.98l-1.41-.4-.81.89c3.22,2.63,4.48,2.96,8.18.33,2.48-.26,4.21,1.81,5.88,3.42-2.07-.02-3.96-.01-6.03-.25l-.19-.35c-.29-.53-.17-.33-.53-.86l-1.9,1.48.39.38,1.02-.16c-2.23,2.84-.14,5.79-1.56,8.79l.39,1.52c-1.76.11-3.51.19-5.27.25-1.63-1.17-5.61-2.17-8.19-3.38-1.62-1.6-3.09-1.92-5.19-2.54-1.54-.28-4.19-1.32-5.76-1.88-2.08-.71-3.81-1.27-5.95-1.84l-3.33-.99-.56-.43-.96-.33c-1.38-1.28-3.39-1.57-5.3-2.08l-3.22-1-4.4-.86c-2.23-.89-4.03-1.46-5.89-2.97-.48-.9-1.95-1.45-3.01-2.03l-.64,2.82c-.88-2.39-.46-7.13-.36-9.83-1.08.61-1.34.88-2.6.87l-.61-1.02c.09-2.32.05-3.12-.61-5.4-.14-2.01.66-4.58,1.37-6.44l.13-9.53c3.01-4.34,5.63-7.9,9.47-11.55,3.63-4.81,13.1-14.55,17.97-18.56.78-.64,4.6-2.12,5.75-2.55Z"/>
      <path class="cls-5" d="M37.64,92.94c1.74,4.32,1.48,1.61,3.04,4.11l.88.48c2.81-1.16,3.74-1,6.33.55l.33.22c7.15.96,13.04,3.89,20.41,5.02,3.67.53,6.69,1.18,10.29,1.98-2.52,3.5-3.85.68-7.04,5.09l-.03.4.9,1.06c-.39,2.63-.63,4.5-.76,7.15-1.97,1.6-4.6,3.6-6.29,5.39-3.64,3.65-7.06,7.15-10.13,11.32-1.24,1.68.28,2.98-1.23,3.75l-.89-.02-.86-2.07c-5.23-3.6-9.74-5.97-15.93-7.42l-1.83-.58-2.54-.51c-4.04-.78-8.98-2.08-13.05-3.04l-.06-.39,1.93-.55c-1.28-1.25-2.55-2.52-3.8-3.8l-.05-.3c-1.77-.22-2.04-.3-3.66-1.04-.03-.75-.27-1.64-.42-2.39,1.02-.89,2.31-2.34,3.27-3.36l-2.52.08c3.63-4.81,13.1-14.55,17.97-18.56.78-.64,4.6-2.12,5.75-2.55Z"/>
      <path class="cls-4" d="M37.64,92.94c1.74,4.32,1.48,1.61,3.04,4.11l-1.73,1.18-3.91,4.31c-6.66,6.11-11.64,12.29-17.79,18.22-1.77-.22-2.04-.3-3.66-1.04-.03-.75-.27-1.64-.42-2.39,1.02-.89,2.31-2.34,3.27-3.36l-2.52.08c3.63-4.81,13.1-14.55,17.97-18.56.78-.64,4.6-2.12,5.75-2.55Z"/>
      <path class="cls-6" d="M37.64,92.94c1.74,4.32,1.48,1.61,3.04,4.11l-1.73,1.18-3.91,4.31c-.87-1.13-1.91-2.23-2.86-3.3-4.68,2.87-12.28,10.41-15.75,14.74l-2.52.08c3.63-4.81,13.1-14.55,17.97-18.56.78-.64,4.6-2.12,5.75-2.55Z"/>
      <path class="cls-4" d="M32.18,99.24c2.11-.64,4.85-1.76,6.77-1.01l-3.91,4.31c-.87-1.13-1.91-2.23-2.86-3.3Z"/>
      <path class="cls-8" d="M25.45,118.23c2.52.46,25.25,12.6,28.05,14.38l-.16,1.59c.27,1.88.26,1.2-.74,3.17-5.23-3.6-9.74-5.97-15.93-7.42l-1.83-.58-2.54-.51c-4.04-.78-8.98-2.08-13.05-3.04l-.06-.39,1.93-.55c1.59.5,1.35.69,2.72.35,1.45-1.97,1.13-4.07,1.62-6.99Z"/>
      <path class="cls-5" d="M38.75,128.02c5.25,1.39,10.23,2.66,14.59,6.18.27,1.88.26,1.2-.74,3.17-5.23-3.6-9.74-5.97-15.93-7.42l-1.83-.58c1.33-.25,2.64-.84,3.91-1.35Z"/>
      <path class="cls-5" d="M21.1,124.86c1.59.5,1.35.69,2.72.35,1.45-1.97,1.13-4.07,1.62-6.99.66,8.2,6.31,8.01,13.3,9.79-1.27.5-2.58,1.1-3.91,1.35l-2.54-.51c-4.04-.78-8.98-2.08-13.05-3.04l-.06-.39,1.93-.55Z"/>
      <path class="cls-8" d="M71.85,110.8l.9,1.06c-.39,2.63-.63,4.5-.76,7.15-1.97,1.6-4.6,3.6-6.29,5.39-3.64,3.65-7.06,7.15-10.13,11.32-1.24,1.68.28,2.98-1.23,3.75l-.89-.02-.86-2.07c1-1.97,1.01-1.3.74-3.17l.16-1.59c1.13-3.23,5.34-7.31,7.77-9.92,2.35-3.11,3.88-4.92,6.51-7.77l2.4-2.7,1.69-1.42Z"/>
      <path class="cls-5" d="M59.61,116.53c3.27-3.4,4.07-3.25,8.15-1.62-2.62,2.85-4.16,4.66-6.51,7.77-.68-2.07-.98-4.01-1.65-6.15Z"/>
      <path class="cls-5" d="M59.61,116.53c.4-2.29,1.84-3.73,3.9-4.68,2.19-.09,2.62.02,4.48,1.19l2.17-.82-2.4,2.7c-4.08-1.63-4.89-1.78-8.15,1.62Z"/>
      <path class="cls-8" d="M41.57,97.53c2.81-1.16,3.74-1,6.33.55l.33.22c-2.09,1.93-4.71.73-6.66-.78Z"/>
      <path class="cls-2" d="M50.09,161.1c6.76-.06,4.82-2.7,9.89-2.08l-.81.89c3.22,2.63,4.48,2.96,8.18.33,2.48-.26,4.21,1.81,5.88,3.42-2.07-.02-3.96-.01-6.03-.25l-.19-.35c-.29-.53-.17-.33-.53-.86l-1.9,1.48.39.38,1.02-.16c-2.23,2.84-.14,5.79-1.56,8.79l.39,1.52c-1.76.11-3.51.19-5.27.25-1.63-1.17-5.61-2.17-8.19-3.38-1.62-1.6-3.09-1.92-5.19-2.54-1.54-.28-4.19-1.32-5.76-1.88-2.08-.71-3.81-1.27-5.95-1.84l-3.33-.99-.56-.43.56-2.48c1.33-.68,1.26-.31,3.23.27,1.49-.61.98-.23,1.84-1.98l2.58.08c2.09.04,2.53.5,4.02,2.23l.23-.3c2.23.89,3.52,2.65,5.37,2.84.77-.6.94-.61,1.4-1.45l.3-1.52Z"/>
      <path class="cls-2" d="M51.34,171.07c1.43.11,3.17.43,4.45-.05l.03-.18c2.3,0,2.21-.39,3.81.82.05,1.23.08,1.54-.09,2.79-1.63-1.17-5.61-2.17-8.19-3.38Z"/>
      <path class="cls-2" d="M34.45,164.81l3.03-2.48.83.31.18.46c.68,1.67.85,2.1,1.9,3.54-2.08-.71-3.81-1.27-5.95-1.84Z"/>
      <path class="cls-4" d="M57.23,163.66c2.06.22,2.32.28,4.11,1.31,1.1,1.76.86.94.67,3.29-1.99.06-2.34.11-3.99-.96-1.09-2.05-.83-1.14-.78-3.64Z"/>
      <path class="cls-2" d="M51.22,165.31c.54-.32,1.24-.22,1.67.24.43.47.47,1.17.11,1.68-.32.45-.87.66-1.4.53-.53-.13-.93-.56-1.02-1.1-.08-.54.17-1.08.64-1.36Z"/>
      <path class="cls-4" d="M4.45,125.6c3.01-4.34,5.63-7.9,9.47-11.55l2.52-.08c-.96,1.01-2.25,2.47-3.27,3.36.16.75.4,1.64.42,2.39,1.62.73,1.89.81,3.66,1.04l.05.3c1.25,1.28,2.51,2.55,3.8,3.8l-1.93.55.06.39c-2.26.93-2.53,1.13-2.26,3.79-1.77.91-1.99.99-3.97.89-1.6.08-1.75.28-3.18,1.13-.09,1.15-.11,1.41-.4,2.58l.15.38c-2.31,4.86-1.83,10.1-2.81,12.55-1.08.61-1.34.88-2.6.87l-.61-1.02c.09-2.32.05-3.12-.61-5.4-.14-2.01.66-4.58,1.37-6.44l.13-9.53Z"/>
      <path class="cls-2" d="M10.4,124.27c.79-2.22,1.18-3.51,3.19-4.54,1.62.73,1.89.81,3.66,1.04l.05.3c1.25,1.28,2.51,2.55,3.8,3.8l-1.93.55.06.39c-2.26.93-2.53,1.13-2.26,3.79-1.77.91-1.99.99-3.97.89-1.6.08-1.75.28-3.18,1.13-.46-1.19-.02-2.77.2-4.09l-.46-2.37.83-.89Z"/>
      <path class="cls-8" d="M10.4,124.27c.79-2.22,1.18-3.51,3.19-4.54,1.62.73,1.89.81,3.66,1.04l.05.3c1.25,1.28,2.51,2.55,3.8,3.8l-1.93.55c-3.04.21-3.68.24-6.67-.29l-1.33.09-.78-.96Z"/>
      <path class="cls-2" d="M10.4,124.27c.79-2.22,1.18-3.51,3.19-4.54,1.62.73,1.89.81,3.66,1.04l.05.3c-1.47,1.19-3.53,2.73-4.8,4.06l-1.33.09-.78-.96Z"/>
      <path class="cls-8" d="M10.02,127.53c1.74.41,4.04.64,5.1,1.88-.82.8-1.04.76-2.13,1.09-1.6.08-1.75.28-3.18,1.13-.46-1.19-.02-2.77.2-4.09Z"/>
      <path class="cls-2" d="M4.45,125.6c3.01-4.34,5.63-7.9,9.47-11.55l2.52-.08c-.96,1.01-2.25,2.47-3.27,3.36-6.19,4.36-5.47,12.74-8.85,17.8l.13-9.53Z"/>
      <path class="cls-2" d="M29.04,150.62c.89,1.02,2.2,1.67,3.35,2.78l.98.04c.45-1.09.57-1.53,1.33-2.47,1.75.36,5.3,1.58,6.67.89l.57.38c-.53.86-1.04,1.36-1.08,2.23-1.81,1.84-1.28,2.73-2.09,4.82l-2.58-.08c-.86,1.75-.35,1.36-1.84,1.98-1.97-.58-1.9-.95-3.23-.27l-.56,2.48-.96-.33c-1.38-1.28-3.39-1.57-5.3-2.08l-.86-1.43c.55-1.55,2.25-2.57,3.63-3.8l-1.28-2.34c.44-1.54.56-1.16,2.41-2.3l.39.15.44-.65Z"/>
      <path class="cls-4" d="M33.12,158.34c-.96.37-2.05,0-2.58-.89-.53-.89-.34-2.02.44-2.69.78-.67,1.94-.68,2.73-.02.79.66,1,1.79.48,2.69-.24.42-.62.74-1.07.91Z"/>
      <path class="cls-2" d="M34.19,157.43l2,1.78c-.86,1.75-.35,1.36-1.84,1.98-1.97-.58-1.9-.95-3.23-.27l-.56,2.48-.96-.33c.9-2.64,1.03-3.66,3.52-4.72.45-.17.83-.5,1.07-.91Z"/>
      <path class="cls-2" d="M36.66,129.95c6.19,1.45,10.71,3.82,15.93,7.42l.86,2.07.89.02-1.14,3.81-.58.84c-3.02-1.48-4.97-2.57-8.3-3.24-1.2-.4-3.18-1.98-4.29-2.78h-.44c-1.44-1.14-3.07-1.27-4.93-1.66l-.68-.15-.2-1.7c1.95-.28,1.26.06,2.8-1.12.18-.96.1-2.45.08-3.49Z"/>
      <path class="cls-8" d="M40.03,138.08l.57-1.08c3.2-.15,8.32,2.25,12.86,2.44l.89.02-1.14,3.81-.58.84c-3.02-1.48-4.97-2.57-8.3-3.24-1.2-.4-3.18-1.98-4.29-2.78Z"/>
      <path class="cls-2" d="M52.62,144.1l.58-.84c2.16,2.18,2.38,2.05,2.93,5.08-.27,5.93,4.03,5.89,6.76,9.09-.49.83-.73,1.37-1.5,1.98l-1.41-.4c-5.07-.61-3.13,2.02-9.89,2.08.22-4.22-1.55-8.09.28-10.76-.75-2.6-.69-1.49.07-4.36.95-.34,1.49-1.11,2.19-1.87Z"/>
      <path class="cls-2" d="M52.62,144.1l.58-.84c2.16,2.18,2.38,2.05,2.93,5.08-3.07.09-3.38-.56-5.03,1.19-.25.26-.49.53-.73.79-.75-2.6-.69-1.49.07-4.36.95-.34,1.49-1.11,2.19-1.87Z"/>
      <path class="cls-2" d="M50.09,161.1c2.5-2.12,2.15-3.13,3.91-4.81l.7.36c.06.91.03,1.22.32,2.09,1.65-.83,2.95-1.89,4.63-1.2l.33,1.48c-5.07-.61-3.13,2.02-9.89,2.08Z"/>
      <path class="cls-4" d="M19.24,125.81c4.07.96,9.02,2.27,13.05,3.04l.97,2.96c-1.14,1.35-.69,1.22-2.13,1.63l-1.72-.78-.91.72c-3.66-.45-8.17-2.28-11.53-3.79-.27-2.66,0-2.86,2.26-3.79Z"/>
      <path class="cls-4" d="M21.94,153.14l.69-3.03c-1.1-1.8-1.44-2.99-2.14-5.01,1,.04,2.41.47,3.39.76l.3.98c1.45-1.09,1.5-1.17,3.25-1.31,1.43.64,1.6.61,1.88,2.33l-.28,2.76-.44.65-.39-.15c-1.85,1.14-1.97.76-2.41,2.3l1.28,2.34c-1.39,1.22-3.09,2.25-3.63,3.8.23-3.37.26-3.73-1.5-6.41Z"/>
      <path class="cls-4" d="M24.18,146.84c1.45-1.09,1.5-1.17,3.25-1.31,1.43.64,1.6.61,1.88,2.33-1.12,1.28-1.19,1.49-2.73,2.05-1.43-.75-1.49-1.48-2.4-3.07Z"/>
      <path class="cls-2" d="M32.29,128.85l2.54.51,1.83.58c.02,1.03.09,2.53-.08,3.49-1.54,1.18-.85.85-2.8,1.12l.2,1.7.68.15-.89,1.65-.59-.53c-2.56-.28-2.17,1.69-4.74,1.32l-.46-1.74-1.61-.41c-1.5-1.28-1.63-1.47-2.38-3.29,2,.71,2.52,1.16,4.52-.03l.91-.72,1.72.78c1.44-.41.99-.28,2.13-1.63l-.97-2.96Z"/>
      <path class="cls-4" d="M32.29,128.85l2.54.51,1.83.58c.02,1.03.09,2.53-.08,3.49-1.05-.28-2.32-1.07-3.31-1.62l-.97-2.96Z"/>
      <path class="cls-2" d="M33.26,131.82c.99.55,2.26,1.35,3.31,1.62-1.54,1.18-.85.85-2.8,1.12-1.01.38-1.18.54-2.25.43l-.39-1.54c1.44-.41.99-.28,2.13-1.63Z"/>
      <path class="cls-4" d="M21.94,153.14c1.76,2.68,1.73,3.04,1.5,6.41l.86,1.43-3.22-1-4.4-.86c.21-1.44.11-.96,1.08-2.22l.68-.58,1.14.14c1.81-.78,1.42-1.03,2.36-3.33Z"/>
      <path class="cls-2" d="M17.76,156.91c3.45,1.86,2.49-.73,4.14.59-.22.91-.33,1.71-.82,2.49l-4.4-.86c.21-1.44.11-.96,1.08-2.22Z"/>
      <path class="cls-5" d="M9.57,134.58c-1.18,4.37-1.07,14.43-1.8,19.56l-.64,2.82c-.88-2.39-.46-7.13-.36-9.83.98-2.45.49-7.69,2.81-12.55Z"/>
      <path class="cls-2" d="M44.32,140.86c3.33.67,5.29,1.76,8.3,3.24-.7.76-1.24,1.53-2.19,1.87l-2.69.26c-1.34-1.4-2.31-3.58-3.42-5.37Z"/>
      <path class="cls-4" d="M43.76,159.22c2.99-.73,4.64.9,6.03,3.39-.46.84-.63.85-1.4,1.45-1.84-.19-3.14-1.95-5.37-2.84l.74-2Z"/>
      <path class="cls-2" d="M27.97,137.11c-2.7.71-.69,1.65-2.84,3.43-1.03-1.79-1.33-2.49-3.25-3.45.69-1.48.67-2.01.68-3.65l.52-.45.9.43c.75,1.82.88,2.01,2.38,3.29l1.61.41Z"/>
      <path class="cls-2" d="M40.85,154.47c1.59,3.98,2.27,3.16,2.9,4.75l-.74,2-.23.3c-1.49-1.74-1.93-2.2-4.02-2.23.81-2.09.28-2.98,2.09-4.82Z"/>
      <path class="cls-4" d="M41.36,151.87l-1.25-.62.12-1.51c1.22-.94.7-.68,2.61-.56l1.45.95v.96c-.81.42-1.52.81-2.36,1.16l-.57-.38Z"/>
      <path class="cls-2" d="M34.65,136.42c1.86.39,3.48.52,4.93,1.67-3.03,1.46-3.2,2.02-5.82-.02l.89-1.65Z"/>
      <path class="cls-4" d="M18.55,149.47c1.34.31,1.92,1.23,2.48,2.33-.34,2.77-2.13,3.38-4.42,4.25-1.66-1.19-2.43-1.71-3.06-3.5l.96-1.18c1.82-.57,2.38-.93,4.04-1.9Z"/>
      <path class="cls-2" d="M36.51,143.49c1.08.49,1.09.41,1.81,1.32l-1.17,2.23-.71.19c-.61-1.44-.22-1.98.07-3.73Z"/>
      <path class="cls-5" d="M98.68,100.86c1.35,1.76,2.04,2.47,2.7,4.65,2.66,1.41,2.93,1.54,5.73.5.58,2.07,1.14,4.5,3.28,5.38,7.3,3.03,17.58,2.81,23.49,8.89l3.51.89,7.5,1.78c1.2.31,2.7.82,3.87.77.85.46,2.58,1.32,3.32,1.81l-3.52,3.29-.14.36-1.45,1.22c-1.33-.27-4.66-.48-6.12-.6-1.45.43-3.52.97-4.88,1.5-1.45,1.72-1.8,3.24-2.83,4.48,1.72.76,2,.77,3.09,2.21-.33,2.7-2.01,2.69-3,5.49l-1.21,1.75c-1.71,6.35-9.65,12.68-10.33,15.38l-1.19.69-2.47-.38c-3.69-1.24-7.39-2.72-11.03-4.11-2.65-1.07-4.58-1.65-7.33-2.44l-6.98.32c-2.38-2.43-15.05-2.81-17.32-4.7l-1.92-1.28c1.48,8.66-2.41,10.73-10.56,8.73-2.72-3.2-7.03-3.15-6.76-9.09-.55-3.03-.77-2.9-2.93-5.08l1.14-3.81c1.51-.77-.01-2.06,1.23-3.75,3.07-4.17,6.49-7.67,10.13-11.32,1.69-1.79,4.32-3.79,6.29-5.39.14-2.65.37-4.52.76-7.15l-.9-1.06.03-.4c3.19-4.4,4.52-1.59,7.04-5.09,2.23.47,4.75.7,6.32,2.28l3.13-2.28-5.19-1.5c.14-.76,1.26-1.74,1.89-2.42.52.15,2.75.8,3.15.83,1.87.38,2.73.46,4.4,1.49l1.02.41,1.85-1.08,1.44.42.49-.14,1.25-2.46Z"/>
      <path class="cls-4" d="M98.68,100.86c1.35,1.76,2.04,2.47,2.7,4.65l.14,1.13c-1.06,2.03-.87,2.4-2.65,3.56l-.99-.02-.39.45c.98,1.99,1.37,2.32,2.89,3.85-3.63,2.36-4.54,3.8-7.36,5.8l-.11,1.94c-.55-.33-.76-.42-1.42-.55-.28,1.47-.09,1.92.19,3.43-.61,1.23-.55,1.3-1.74,2.07-5.14,3.19-10.79,8.32-13.46,13.79-.98,1.66-1.49,2.16-1.36,4.03-1.1,1.66-1.32,1.82-1.68,3.72,1.48,8.66-2.41,10.73-10.56,8.73-2.72-3.2-7.03-3.15-6.76-9.09-.55-3.03-.77-2.9-2.93-5.08l1.14-3.81c1.51-.77-.01-2.06,1.23-3.75,3.07-4.17,6.49-7.67,10.13-11.32,1.69-1.79,4.32-3.79,6.29-5.39.14-2.65.37-4.52.76-7.15l-.9-1.06.03-.4c3.19-4.4,4.52-1.59,7.04-5.09,2.23.47,4.75.7,6.32,2.28l3.13-2.28-5.19-1.5c.14-.76,1.26-1.74,1.89-2.42.52.15,2.75.8,3.15.83,1.87.38,2.73.46,4.4,1.49l1.02.41,1.85-1.08,1.44.42.49-.14,1.25-2.46Z"/>
      <path class="cls-4" d="M65.7,124.4c1.88.33,2.25.77,3.74-.49,2.6-2.21,5.3-5.06,7.8-7.43l.28.13c-3.14,3.9-15.68,15.49-15.78,18.06,1.19.6,1.1.59,2.43.72l.07.56c-1.94,1.41-4.61,3.06-5.78,5.02-.25,1.87-.42,1.03.43,2.63,1.61,2.35,1.65,6.24,2.85,7.13,1.09.81,3.23,1.98,4.88,3.38l.36.31c2.02-.46,1.66-7.51,2.37-9.69,1.56-4.83,16.45-21.44,21.21-21.33.39,1.31-.18,2.44-.62,3.78-5.14,3.19-10.79,8.32-13.46,13.79-.98,1.66-1.49,2.16-1.36,4.03-1.1,1.66-1.32,1.82-1.68,3.72,1.48,8.66-2.41,10.73-10.56,8.73-2.72-3.2-7.03-3.15-6.76-9.09-.55-3.03-.77-2.9-2.93-5.08l1.14-3.81c1.51-.77-.01-2.06,1.23-3.75,3.07-4.17,6.49-7.67,10.13-11.32Z"/>
      <path class="cls-8" d="M78.92,105.31c2.23.47,4.75.7,6.32,2.28l-.41.45-1.9,1.49c-3.87,4.61-7.17,5.71-10.93,9.48.14-2.65.37-4.52.76-7.15l-.9-1.06.03-.4c3.19-4.4,4.52-1.59,7.04-5.09Z"/>
      <path class="cls-5" d="M78.92,105.31c2.23.47,4.75.7,6.32,2.28l-.41.45-1.9,1.49c-3.77-1.04-5.13,1.55-11.04.87,3.19-4.4,4.52-1.59,7.04-5.09Z"/>
      <path class="cls-4" d="M88.37,105.32c.91,2.02,3.53,4.6,3.74,5.94-1.14,1.88-1.31,2.23-3.04,3.54-1.2-.19-.61.04-1.63-1.14-.15-3.38.55-4.1-2.62-5.62l.41-.45,3.13-2.28Z"/>
      <path class="cls-2" d="M98.68,100.86c1.35,1.76,2.04,2.47,2.7,4.65l.14,1.13c-1.06,2.03-.87,2.4-2.65,3.56l-.99-.02-.92-1.66c-.47-1.8-.2-3.2-.04-5.06l.49-.14,1.25-2.46Z"/>
      <path class="cls-2" d="M96.93,103.46l.49-.14c1.07,1.46,1.58,1.65,1.67,3.25-1.08.65-1.58.81-2.13,1.95-.47-1.8-.2-3.2-.04-5.06Z"/>
      <path class="cls-4" d="M88.22,102.22c1.87.38,2.73.46,4.4,1.49l1.02.41,1.85-1.08,1.44.42c-.16,1.86-.43,3.26.04,5.06l.92,1.66-.39.45c.62.36-9.29-8.42-9.28-8.41Z"/>
      <path class="cls-2" d="M58.89,143.59c.33-1.9.78-3.49,2.62-4.44-.55,2.27-.61,3.07-2.62,4.44Z"/>
      <path class="cls-4" d="M93.51,113.98c1.12.42.62.08,1.36,1.28-.31,1.48-1.29,2.18-2.41,3.29l-1.22-.75c.04-1.64,1.03-2.26,2.27-3.82Z"/>
      <path class="cls-5" d="M101.38,105.51c2.66,1.41,2.93,1.54,5.73.5.58,2.07,1.14,4.5,3.28,5.38,7.3,3.03,17.58,2.81,23.49,8.89l3.51.89,7.5,1.78c1.2.31,2.7.82,3.87.77.85.46,2.58,1.32,3.32,1.81l-3.52,3.29-.14.36-1.45,1.22c-1.33-.27-4.66-.48-6.12-.6-19.41-3.72-22.41-12.38-44.44-6.16-1.52,1.55-3.13,3.14-4.6,4.72-4.35,4.02-8.46,8.31-12.29,12.83-.58.07-2.36-.15-3.04-.22,2.67-5.47,8.32-10.6,13.46-13.79,1.2-.78,1.13-.84,1.74-2.07-.28-1.51-.48-1.96-.19-3.43.65.13.87.22,1.42.55l.11-1.94c2.82-2,3.73-3.44,7.36-5.8-1.52-1.54-1.91-1.86-2.89-3.85l.39-.45.99.02c1.78-1.16,1.58-1.53,2.65-3.56l-.14-1.13Z"/>
      <path class="cls-4" d="M101.38,105.51c2.66,1.41,2.93,1.54,5.73.5.58,2.07,1.14,4.5,3.28,5.38,7.3,3.03,17.58,2.81,23.49,8.89l-4.88-1.28-4.44-1.46c-5.22-1.69-10.41-3.08-15.79-4.17-.23-.05-.99-1.26-1.15-1.57l-.27-.55c-1.14,2.79-8.41,10.34-10.94,12.38-1.52,1.55-3.13,3.14-4.6,4.72-4.35,4.02-8.46,8.31-12.29,12.83-.58.07-2.36-.15-3.04-.22,2.67-5.47,8.32-10.6,13.46-13.79,1.2-.78,1.13-.84,1.74-2.07-.28-1.51-.48-1.96-.19-3.43.65.13.87.22,1.42.55l.11-1.94c2.82-2,3.73-3.44,7.36-5.8-1.52-1.54-1.91-1.86-2.89-3.85l.39-.45.99.02c1.78-1.16,1.58-1.53,2.65-3.56l-.14-1.13Z"/>
      <path class="cls-2" d="M101.52,106.64c.56,1.75,1.28,2.28,2.63,3.49l.1,1.19c-1.41,1.34-2.34,2.04-3.87,3.17-1.52-1.54-1.91-1.86-2.89-3.85l.39-.45.99.02c1.78-1.16,1.58-1.53,2.65-3.56Z"/>
      <path class="cls-5" d="M144.89,122.96c1.2.31,2.7.82,3.87.77.85.46,2.58,1.32,3.32,1.81l-3.52,3.29-.14.36c-2.11-.94-4.14-1.27-5-2.96.48-1.33.82-2.01,1.46-3.27Z"/>
      <path class="cls-5" d="M148.76,123.73c.85.46,2.58,1.32,3.32,1.81l-3.52,3.29c-1.32-1.3-1.44-2.55-1.17-4.19l1.37-.91Z"/>
      <path class="cls-5" d="M124.56,117.54l4.44,1.46c-.57,1.53-.78,1.62-1.99,2.79-1.77.42-.99.57-2.43-.25-.84-2-.55-1.52-.02-3.99Z"/>
      <path class="cls-4" d="M76.49,140.96c.69.07,2.46.29,3.04.22l.36.2c2.87,1.19,3.72,1.15,6.86,1.3l2.75,1.01,7.13,2.13c.84-1.58.92-1.92,2.25-3.04l3.86.47c.82,1.89,1.36,2.74,1.37,4.8l.66.28c3.5,1.2,9.66,3.1,12.85,4.49,1.35.44,3.32,1.33,4.69,1.89,3.75-2.72,6.09-6.28,9.71-9.48-1.71,6.35-9.65,12.68-10.33,15.38l-1.19.69-2.47-.38c-3.69-1.24-7.39-2.72-11.03-4.11-2.65-1.07-4.58-1.65-7.33-2.44l-6.98.32c-2.38-2.43-15.05-2.81-17.32-4.7l-1.92-1.28c.36-1.9.57-2.06,1.68-3.72-.13-1.87.38-2.36,1.36-4.03Z"/>
      <path class="cls-2" d="M132.03,145.22c-1.71,6.35-9.65,12.68-10.33,15.38-1.65-1.7-8.15-3.5-10.76-4.38.95-.82,1.04-.79,1.56-1.99-1.56-2.97-5.71-2.12-7.72-5.91,3.5,1.2,9.66,3.1,12.85,4.49,1.35.44,3.32,1.33,4.69,1.89,3.75-2.72,6.09-6.28,9.71-9.48Z"/>
      <path class="cls-2" d="M75.13,144.98c2.55.82,5.89,1.79,8.33,2.74l8.8,2.49c1.5.38,3.08.74,4.56,1.15l-2.19.66,5.05,2.34-6.98.32c-2.38-2.43-15.05-2.81-17.32-4.7l-1.92-1.28c.36-1.9.57-2.06,1.68-3.72Z"/>
      <path class="cls-5" d="M75.13,144.98c2.55.82,5.89,1.79,8.33,2.74l8.8,2.49c1.5.38,3.08.74,4.56,1.15l-2.19.66c-5.38-1.11-12.74-4.33-17.95-4.94-.69,1.09-.87,1.71-1.3,2.89l-1.92-1.28c.36-1.9.57-2.06,1.68-3.72Z"/>
      <path class="cls-8" d="M94.63,152.03l2.19-.66c4.67,1.77,9.59,3.09,14.12,4.86,2.61.88,9.11,2.68,10.76,4.38l-1.19.69-2.47-.38c-3.69-1.24-7.39-2.72-11.03-4.11-2.65-1.07-4.58-1.65-7.33-2.44l-5.05-2.34Z"/>
      <path class="cls-2" d="M76.49,140.96c.69.07,2.46.29,3.04.22l.36.2c2.87,1.19,3.72,1.15,6.86,1.3l-2.63,1.09c.28.9.03.52.9,1.04-1.39,1.42-.89,1.75-1.56,2.92-2.44-.95-5.78-1.92-8.33-2.74-.13-1.87.38-2.36,1.36-4.03Z"/>
      <path class="cls-8" d="M98.88,142.78l3.86.47c.82,1.89,1.36,2.74,1.37,4.8-1.98-.74-5.35-1.61-7.48-2.23.84-1.58.92-1.92,2.25-3.04Z"/>
      <path class="cls-2" d="M85.02,144.81c2.37.92,4.72,1.58,6.47,3.39l.77,2.02-8.8-2.49c.68-1.18.17-1.5,1.56-2.92Z"/>
      <path class="cls-8" d="M133.15,135.77c1.72.76,2,.77,3.09,2.21-.33,2.7-2.01,2.69-3,5.49l-1.21,1.75c-3.62,3.2-5.96,6.77-9.71,9.48-1.37-.56-3.34-1.45-4.69-1.89,1.85-.99.97-1.01,1.92-2.01,2.8-.47,3.91-2.32,5.57-4.5.8-1.45,1.45-3.38,2.05-4.96.2-.45.41-.89.63-1.32,1.53-3.09,2.11-3.15,5.35-4.25Z"/>
      <path class="cls-8" d="M102.74,143.25c6.48,1.53,11.44,3.27,16.81,7.56-.95,1-.07,1.02-1.92,2.01-3.2-1.39-9.36-3.29-12.85-4.49l-.66-.28c0-2.07-.55-2.91-1.37-4.8Z"/>
      <path class="cls-5" d="M91.81,128.35l-.12,2.7-3.24,3.82c-1.8,1.65-1.67,2.96-2.47,5.72l-.34.04c-2.26.27-3.73-.28-5.76.75l-.36-.2c3.83-4.52,7.93-8.81,12.29-12.83Z"/>
      <path class="cls-5" d="M126.33,140.83c2.51-5.66,2.72-8.42,9.64-9.54-1.45,1.72-1.8,3.24-2.83,4.48-3.25,1.1-3.82,1.17-5.35,4.25-.22.44-.42.88-.63,1.32l-.83-.52Z"/>
      <path class="cls-5" d="M125.12,146.31c-2.01.03-3.4-.13-4.82-1.58l.38-1.11c1.64-1.73,3.37-2.06,5.65-2.78l.83.52c-.6,1.58-1.24,3.51-2.05,4.96Z"/>
      <path class="cls-5" d="M89.5,143.69c-.02-.9.05-1.39.16-2.28l1.45-.51c2.77,1.71,5.18,1.08,7.78,1.87-1.33,1.12-1.41,1.47-2.25,3.04l-7.13-2.13Z"/>
      <path class="cls-5" d="M85.98,140.59c1.86-.7,2.11-.8,4.09-.69l1.11.69-.08.31-1.45.51c-.1.89-.18,1.38-.16,2.28l-2.75-1.01c-3.14-.15-4-.11-6.86-1.3,2.03-1.02,3.5-.48,5.76-.75l.34-.04Z"/>
      <path class="cls-5" d="M91.69,131.05c1.41,1.77,1.7,1.59,2.04,3.68-1.07,1.64-.44,1.17-2.41,1.71-2.2-.53-1.6-.06-2.86-1.57l3.24-3.82Z"/>
      <path class="cls-4" d="M190.35,117.24c1.97-.05,1.26-.31,2.7.81,1.63-.45,2.37-1.64,2.64-3.2l-2.05.11.06-.5,1.29-.96c3.53.91,3.36-.02,5.42-2.89,2.24-.96,1.23-.9,3.87.03l.02.43c-1.1,1.34-.47,2.4-1.99,4.73.05,1.43-.04,3.64.53,4.84-.56.64-2.53,2.97-3.06,3.37-10.08,11.91-23.65,28.62-34.2,39.48-3.06,3.56-7.7,8.85-10.5,12.53-5.44,7.36-7.97,10.76-14.45,16.99l-2.99.03c-1.63-.92-1.05-.28-1.83-1.98.12-2.18.62-2.85,1.63-4.72l-1.87-.88c-1.51-4.01-8.06-25.81-6.69-26.93,2.76-2.26,21.6-22.93,24.2-25.26,1.74-1.62,2.28-3.03,4.4-4.7l.45.03c.75-2.56,1.1-2.38,3.56-2.76l.12-.27c.32-.28.77-.88,1.06-1.24-.32-1.85-.42-1.44-1.95-3.1.47-3.12,1.94-3.93,1.81-7.99l.06-.65.69.28c1.18,3.7.05,2.64.66,6.02.72,3.96,2.12,7.98,2.99,11.87l2.27,1.11c5.96-3.72,1.22-10.16,2.36-13.25,1.19.67,1.63.9,2.9,1.37.49-1.44.2-1.27-.38-3.1l2.21-3.94,1.74-.12,1.23-1.74c1.53.19,1.29.38,2.72,1.59,2.27,3.03,2.87,4.62,6.49,5.31l1.9-.74Z"/>
      <path class="cls-3" d="M190.35,117.24c1.97-.05,1.26-.31,2.7.81,1.63-.45,2.37-1.64,2.64-3.2l-2.05.11.06-.5,1.29-.96c3.53.91,3.36-.02,5.42-2.89,2.24-.96,1.23-.9,3.87.03l.02.43c-1.1,1.34-.47,2.4-1.99,4.73.05,1.43-.04,3.64.53,4.84-.56.64-2.53,2.97-3.06,3.37-10.08,11.91-23.65,28.62-34.2,39.48l-1.25-3c5.87-5.45,8.19-10.36,11.39-17.39l-1.06-.24c-1.45,1.37-3.48,3.39-4.98,4.56-.47-2.63.18-4.34,1.33-6.57l.31-.31c-.27-1.12-.58-1.39-1.28-2.29l-.75.05c-.99,1.16-1.32,1.76-2.68,2.33-.27-.81-.59-1.42-1.05-2.14l.23-.68,2.9-.98c.96-1.6.76-.87.64-2.74l-.77-.6c-1.26.47-1.94.84-3.29.74-.96-1.11-.94-1.03-1.16-2.47.62-.92.46-.68,1.32-1.42l1.51.4,2.27,1.11c5.96-3.72,1.22-10.16,2.36-13.25,1.19.67,1.63.9,2.9,1.37.49-1.44.2-1.27-.38-3.1l2.21-3.94,1.74-.12,1.23-1.74c1.53.19,1.29.38,2.72,1.59,2.27,3.03,2.87,4.62,6.49,5.31l1.9-.74Z"/>
      <path class="cls-6" d="M192.99,126.37c2.89-.51,3.67-2.18,6.78-2.37-10.08,11.91-23.65,28.62-34.2,39.48l-1.25-3c5.87-5.45,8.19-10.36,11.39-17.39,2.54-3.2,4.12-4.97,7.06-7.84,1.21-1.16,2.08-1.94,3.39-2.98,2.63-2.63,3.83-3.73,6.84-5.91Z"/>
      <path class="cls-2" d="M182.76,135.25l-1.11-.3c-1.08.7-1.8,1.38-3.04,1.33-.28-1.57.66-3.24,1.29-4.97-1.14-1-1.11-.92-1.6-2.34.94-1.63.36-1.13,2.07-1.87,2.08.12,2.85.62,4.73,1.46,1.33,1.8.94,1,1.06,3.71-1.31,1.05-2.18,1.82-3.39,2.98Z"/>
      <path class="cls-2" d="M202.3,115.78c.05,1.43-.04,3.64.53,4.84-.56.64-2.53,2.97-3.06,3.37-3.11.19-3.88,1.86-6.78,2.37,3.41-4.55,5.29-6.36,9.06-10.32l.25-.27Z"/>
      <path class="cls-2" d="M176.27,112.94l1.74-.12,1.23-1.74c1.53.19,1.29.38,2.72,1.59-.62,1.66-2.51,4.56-4.31,5.03-1.42-1.18-1.08-2.42-1.37-4.77Z"/>
      <path class="cls-2" d="M175.73,128.75c1.51.69,1,.36,1.99,1.96l-.34,1.12c-1.12.92-1.59,1.1-2.91,1.75l-.7,1.05-.48-.42-.08-1.2c1.58-1.61,1.81-2.15,2.52-4.26Z"/>
      <path class="cls-4" d="M140.24,183.26c5.01-3.84,5.76-9.22,10.05-10.42,2.39.49,2.64,1.32,4.76,3.17-5.44,7.36-7.97,10.76-14.45,16.99l-2.99.03c-1.63-.92-1.05-.28-1.83-1.98.12-2.18.62-2.85,1.63-4.72.61-.78,2.09-2.27,2.83-3.06Z"/>
      <path class="cls-4" d="M162.56,112.58l.69.28c1.18,3.7.05,2.64.66,6.02.72,3.96,2.12,7.98,2.99,11.87l-1.51-.4c-.86.74-.7.5-1.32,1.42.22,1.44.2,1.36,1.16,2.47,1.35.11,2.03-.27,3.29-.74l.77.6c.13,1.88.32,1.14-.64,2.74l-2.9.98-.23.68c.46.72.78,1.33,1.05,2.14,1.36-.57,1.69-1.18,2.68-2.33l.75-.05c.7.89,1.01,1.16,1.28,2.29l-.31.31c-.65-.21-.78-.49-1.25-.97-1.59.74-2.28,2.27-3.27,3.82l-1.13.15c-1.24-1.49.03-4.45-1.97-6.5-5.24-5.4,4.71-4.87-1.91-11.51l.12-.27c.32-.28.77-.88,1.06-1.24-.32-1.85-.42-1.44-1.95-3.1.47-3.12,1.94-3.93,1.81-7.99l.06-.65Z"/>
      <path class="cls-4" d="M169.66,147.42c1.5-1.17,3.53-3.19,4.98-4.56l1.06.24c-3.19,7.03-5.52,11.93-11.39,17.39-1.7,1.76-3.12,2.68-5.54,2.83l-.51-.74c1.71-4.88,10.13-12.01,11.4-15.15Z"/>
      <path class="cls-4" d="M153.06,133.25c1.74-1.62,2.28-3.03,4.4-4.7l.45.03c1.41,2.84,1.76,2.5,1.65,5.3l-.81,1.2c-1.95.32-4.36-.3-5.69-1.84Z"/>
      <path class="cls-2" d="M135.54,185.44c1.76-2.34,1.97-3.61,4.7-2.18-.74.79-2.22,2.28-2.83,3.06l-1.87-.88Z"/>
      <path class="cls-2" d="M73.45,148.71l1.92,1.28c2.27,1.89,14.95,2.27,17.32,4.7l6.98-.32c2.76.79,4.68,1.37,7.33,2.44.53,1.52,1.37,3.44,1.32,4.97l-.69.99c-.45-.31-.73-.56-1.27-.67-2.37,1.66-4.27,2.06-3.52,5.25l-1.25.86c-1.24,1.57-1.39,1.93-3.08,2.88,4.82.19,2.49,4.37,3.67,7.8.58,1.67,2.5.56,2.69,1.88-5.07.9-5.6-1.17-10.51-1.19l-1.83,1.3c-2.14-.86-11.55-3.07-13.82-3.21-6.11-1.02-8.24-1.36-13.91-3.46l-.39-1.52c1.43-2.99-.67-5.95,1.56-8.79l-1.02.16-.39-.38,1.9-1.48c.36.54.24.33.53.86l.19.35c2.07.24,3.95.23,6.03.25-1.67-1.61-3.4-3.68-5.88-3.42-3.69,2.63-4.96,2.31-8.18-.33l.81-.89,1.41.4c.77-.6,1-1.15,1.5-1.98,8.15,2,12.04-.07,10.56-8.73Z"/>
      <path class="cls-2" d="M73.45,148.71l1.92,1.28c2.27,1.89,14.95,2.27,17.32,4.7l6.98-.32c2.76.79,4.68,1.37,7.33,2.44.53,1.52,1.37,3.44,1.32,4.97l-.69.99c-.45-.31-.73-.56-1.27-.67-2.37,1.66-4.27,2.06-3.52,5.25l-1.25.86c-1.24,1.57-1.39,1.93-3.08,2.88l-1.7-3.4-.23-.52c-2.01.14-1.84-1.32-5.02-1.83-1.18.95-.8.55-1.18,2.38l-.77-.03c-.84-3.33-1.23-.93-2.27-3.04-.68-1.38.41-3.69-.88-5.44-2.11,1.96-1.8,2.39-.78,4.77-1.07,1.34-.42.94-1.91,1.43-4.48-2.22-5.16,1.52-5.96,1.41-.95-1.72,1.12-4.16-2-6.54l-.62.51c-.12,1.57,0,1.78.4,3.34-.3.69-.47,1.22-.89,1.85-.57-.72-1.01-1.53-1.49-2.32-1.67-1.61-3.4-3.68-5.88-3.42-3.69,2.63-4.96,2.31-8.18-.33l.81-.89,1.41.4c.77-.6,1-1.15,1.5-1.98,8.15,2,12.04-.07,10.56-8.73Z"/>
      <path class="cls-2" d="M99.68,154.37c2.76.79,4.68,1.37,7.33,2.44.53,1.52,1.37,3.44,1.32,4.97l-.69.99c-.45-.31-.73-.56-1.27-.67-3.19-2.67-7.01-4.07-10.49-6.4-.53-.35-1.08.7-3.18-1.01l6.98-.32Z"/>
      <path class="cls-4" d="M96.82,167.69c1.09-1.88.56-1.66,2.12-2.08,1.55.96,1.58,1.07,2.66,2.59-1.24,1.57-1.39,1.93-3.08,2.88l-1.7-3.4Z"/>
      <path class="cls-2" d="M74.7,165.97c.41-.63.59-1.16.89-1.85-.4-1.56-.52-1.77-.4-3.34l.62-.51c3.12,2.38,1.04,4.82,2,6.54.8.11,1.48-3.63,5.96-1.41,1.49-.49.83-.08,1.91-1.43l.6.99c-1.72,2.04-2.54.14-3.7,2.31.43.88.82,1.69,1.29,2.54-.37,1.24-.62,2.66-1.55,3.48-3.38-2.46-3.14-5.82-7.62-7.33Z"/>
      <path class="cls-6" d="M64.41,172.68c1.43-2.99-.67-5.95,1.56-8.79,2.8,2.13,4.19,5.15,3.04,8.76-1.36,1.24-.68.91-2.78.98l-1.82-.95Z"/>
      <path class="cls-2" d="M90.38,167.71c.38-1.83,0-1.42,1.18-2.38,3.18.51,3.01,1.97,5.02,1.83l.23.52,1.7,3.4c-1.79-.93-1.01-1.57-2.54-2.41l-3.05,2.03-.43-.33-.18-4.08-1.93,1.41Z"/>
      <path class="cls-4" d="M72.65,166.85c1.64.78,1.8.92,2.9,2.37.34,2.13.38,1.25-.48,3.51-1.4-.53-1.59-.96-2.61-2.15-.57-2.38-.61-1.4.19-3.73Z"/>
      <path class="cls-4" d="M88.49,171.69c1.72.37,1.93.43,3.25,1.58.6,2.07.54,1.19-.22,3.58-1.2-.19-1.51-.61-2.43-1.39-.9-1.64-.86-1.9-.6-3.77Z"/>
      <path class="cls-2" d="M107.01,156.81c3.64,1.4,7.34,2.88,11.03,4.11l2.47.38c0,2.06-.2,1.87,1.5,3.36l-.13.92-.25,2.34c-.65,4.58.7,8.54,2.81,12.68.11,1.52.24,2.83.44,4.34-1.04,1.04-1.25,1.02-2.7,1.47l-.4.71.48,1.61-4.13-.77c-3.93-.64-6.59-2.43-10.73-3.44l-1.96-.13c-2.15-.85-10.17-2.77-12.9-3.51l1.83-1.3c4.91.01,5.43,2.09,10.51,1.19-.19-1.32-2.11-.21-2.69-1.88-1.19-3.42,1.14-7.61-3.67-7.8,1.69-.95,1.84-1.32,3.08-2.88l1.25-.86c-.75-3.19,1.15-3.58,3.52-5.25.54.11.83.36,1.27.67l.69-.99c.05-1.54-.79-3.45-1.32-4.97Z"/>
      <path class="cls-2" d="M118.04,160.92l2.47.38c0,2.06-.2,1.87,1.5,3.36l-.13.92c-2.96-.41-3.63,1.53-7.02-.5l-.03-1.12c1.18-1.29,1.76-2.02,3.21-3.04Z"/>
      <path class="cls-2" d="M107.39,184.52l.84-.98c1.74-.55,1.93-.12,3.91.48,1.73-.19,2.22-.25,3.94-.13,1.86,1.8.92,1.31,2.04,4.07-3.93-.64-6.59-2.43-10.73-3.44Z"/>
      <path class="cls-4" d="M107.09,180.91c-1.11-2.02-1.19-1.4-.78-3.12,2.58-1.49,3.75-.54,5.01,1.86-.1,1.15-.45,1.47-1.11,2.41-.97-.44-2.1-.8-3.12-1.16Z"/>
      <path class="cls-2" d="M107.09,180.91c1.02.36,2.15.72,3.12,1.16l1.94,1.95c-1.98-.61-2.18-1.03-3.91-.48l-.84.98-1.96-.13c1.03-1.44,1.11-1.77,1.65-3.47Z"/>
      <path class="cls-2" d="M124.43,180.6c-2.11-4.14-3.46-8.1-2.81-12.68.38,2.47.11,3.39,1.47,5.18,1.42.43,1.35.39,2.84.09,2.23,5.11,3.98,10.2,6.09,15.29.78,1.16.74,1.09.86,2.48l-.59.55c-3.09.24-7.33-1.25-10.03-2.78l-.48-1.61.4-.71c1.45-.45,1.66-.43,2.7-1.47-.2-1.51-.33-2.82-.44-4.34Z"/>
      <path class="cls-6" d="M124.43,180.6l.82,1.81c2.93.88,2.08.08,3.96,2.03-.59,1.94-1.37,3.33-.69,4.94,1.88.25,1.45.07,3.5-.89.78,1.16.74,1.09.86,2.48l-.59.55c-3.09.24-7.33-1.25-10.03-2.78l-.48-1.61.4-.71c1.45-.45,1.66-.43,2.7-1.47-.2-1.51-.33-2.82-.44-4.34Z"/>
      <path class="cls-8" d="M140.85,129.8c1.46.12,4.8.34,6.12.6-3.59,3.76-9.62,10.32-13.74,13.07.99-2.81,2.68-2.79,3-5.49-1.09-1.44-1.37-1.45-3.09-2.21,1.03-1.24,1.38-2.76,2.83-4.48,1.36-.53,3.43-1.07,4.88-1.5Z"/>
      <path class="cls-4" d="M46.15,168.53c2.1.62,3.57.94,5.19,2.54,2.58,1.22,6.56,2.21,8.19,3.38,1.76-.06,3.52-.14,5.27-.25,5.67,2.1,7.8,2.44,13.91,3.46l-1.77.93c-7.19-2.29-24.56-4.41-30.32-7.61l-.47-2.46Z"/>
      <path class="cls-4" d="M31.12,163.83l3.33.99c2.13.57,3.86,1.13,5.95,1.84,1.56.56,4.22,1.6,5.76,1.88l.47,2.46c-3.56.58-13.84-4.24-15.5-7.16Z"/>
      <path class="cls-4" d="M122.01,164.66c1.85,2.06,2.95,5.82,3.92,8.54-1.48.3-1.42.34-2.84-.09-1.36-1.79-1.1-2.71-1.47-5.18l.25-2.34.13-.92Z"/>
      <path class="cls-4" d="M7.77,154.14c1.06.58,2.54,1.13,3.01,2.03-1.84,1.09-2.22,1.43-4.33,1.55l.67-.75.64-2.82Z"/>
      <path class="cls-5" d="M131.4.27c3.42,0,12.47.4,15.13,2.4l5.74,1.71c4.02.58,7.83.78,11.21,3.09-1.54,1.37-1.24.75-1.85,2.54.42,1.62.48,1.74,1.33,3.19,2.44.91,3.35,1.13,5.38,2.79.45-2.2,1.83-2.29,3.7-3.17,3.38.89,4.71,3.39,6.52,6.24-2.61,3.03-3.51,3.45-3.12,7.58-.91.95-.37.61-1.75.94-1.1.97-1.06.9-1.57,2.28.55,3.6-5.12,6.99-6.73,12.19l-2.23,2.39-2.6,2.77c-2.73,1.69-4.99,2.91-6.42,5.88-.02,1.57-.05,1.49.6,2.91-.66,1.78-.3,1.64-1.58,2.61-1.95-.56-1.35-.4-2.93-2.14-1.32-2.06-3.14-2.28-4.97-5.7l-2.12.63c-1.19,2.21-2.75,3.69-5.12,4.6l-1.04,1.49.58,2.29,1.07,1.26c.93,1.67,1.32,2.02,1.13,3.81-1.09,1.2-1.84,1-3.29.49l-.42.28c-2.31,1.48-4.46,1.78-5.57,3.23.22,1,.05.67.63,1.49-8.31,6.79-26.09,24.5-23.99,35.69-2.8,1.04-3.07.91-5.73-.5-.67-2.18-1.35-2.88-2.7-4.65l-1.25,2.46-.49.14-1.44-.42-1.85,1.08-1.02-.41c-1.67-1.03-2.53-1.11-4.4-1.49-.39-.02-2.63-.68-3.15-.83-.63.68-1.75,1.67-1.89,2.42l5.19,1.5-3.13,2.28c-1.57-1.58-4.08-1.81-6.32-2.28-3.6-.8-6.61-1.45-10.29-1.98-7.37-1.13-13.25-4.05-20.41-5.02l-.33-.22c-2.59-1.56-3.52-1.72-6.33-.55l-.88-.48c-1.57-2.5-1.31.21-3.04-4.11,4.83-3.22,3.72-10.53,10.48-16.77,3.86-4.09,7.84-8.06,11.93-11.92,4.93-5.6,11.54-14.73,18.17-18.06.69-.35,4.24-.84,5.2-.96.17-.42,2.77-4.84,3.5-6.44,2.1-9.57,15.29-22.01,22.7-27.89,4.24.14,5.22-1.65,8.43-4.63.9.78,1.99,1.66,2.76,2.53l1.77-1.73c1.48-.16,2.22-.45,3.66-.9,1.65-.32,2.62-.56,4.23-1.06l.47-3.12.47-1.71Z"/>
      <path class="cls-5" d="M131.4.27c3.42,0,12.47.4,15.13,2.4l5.74,1.71c4.02.58,7.83.78,11.21,3.09-1.54,1.37-1.24.75-1.85,2.54.42,1.62.48,1.74,1.33,3.19,2.44.91,3.35,1.13,5.38,2.79.45-2.2,1.83-2.29,3.7-3.17,3.38.89,4.71,3.39,6.52,6.24-2.61,3.03-3.51,3.45-3.12,7.58-.91.95-.37.61-1.75.94-1.1.97-1.06.9-1.57,2.28.55,3.6-5.12,6.99-6.73,12.19l-2.23,2.39-2.6,2.77c-2.73,1.69-4.99,2.91-6.42,5.88-.02,1.57-.05,1.49.6,2.91-.66,1.78-.3,1.64-1.58,2.61-1.95-.56-1.35-.4-2.93-2.14-1.32-2.06-3.14-2.28-4.97-5.7l-2.25-.39c-1.51-1.41-1.14-1.84-1.59-4.25l.07-1.92c-1.09-.31-5.17-2.65-6.3-3.28-4.98-1.5-8.9-2.7-13.99-3.69-4.91-1.7-6.04-1.83-11.11-2.54l-.64-.36c-3.14-.49-6.27-1.01-9.4-1.56l-2.73-.45c-.82.77-1.89,1.91-2.82,2.44-1.83,1.99-2.07,2.76-3.18,5.2-4.25,1.55-.44.18-3.1,3.62-1.48.57-1.17.73-2.27.3.18-1.25,1.02-2.53,1.57-3.73l-.6-1.33c2.1-9.57,15.29-22.01,22.7-27.89,4.24.14,5.22-1.65,8.43-4.63.9.78,1.99,1.66,2.76,2.53l1.77-1.73c1.48-.16,2.22-.45,3.66-.9,1.65-.32,2.62-.56,4.23-1.06l.47-3.12.47-1.71Z"/>
      <path class="cls-4" d="M172.04,12.81c3.38.89,4.71,3.39,6.52,6.24-2.61,3.03-3.51,3.45-3.12,7.58-.91.95-.37.61-1.75.94-1.1.97-1.06.9-1.57,2.28.55,3.6-5.12,6.99-6.73,12.19l-2.23,2.39-2.6,2.77c-2.73,1.69-4.99,2.91-6.42,5.88-.02,1.57-.05,1.49.6,2.91-.66,1.78-.3,1.64-1.58,2.61-1.95-.56-1.35-.4-2.93-2.14-1.32-2.06-3.14-2.28-4.97-5.7l-2.25-.39c-1.51-1.41-1.14-1.84-1.59-4.25l.07-1.92c5.63-9.31,10.2-12.8,17.86-20.11,1.88-1.67,3.79-3.31,5.72-4.92l.72-.78c1.14-.69,1.67-1.4,2.55-2.38.45-2.2,1.83-2.29,3.7-3.17Z"/>
      <path class="cls-4" d="M172.12,29.84c.55,3.6-5.12,6.99-6.73,12.19l-2.23,2.39-2.6,2.77c-2.73,1.69-4.99,2.91-6.42,5.88-.02,1.57-.05,1.49.6,2.91-.66,1.78-.3,1.64-1.58,2.61-1.95-.56-1.35-.4-2.93-2.14.5-1.91,1.18-9.11,1.23-9.23,1.81-4.34,12.31-12.77,16.14-16.4.5-.48.86,1.22,4.51-.97Z"/>
      <path class="cls-4" d="M172.04,12.81c3.38.89,4.71,3.39,6.52,6.24-2.61,3.03-3.51,3.45-3.12,7.58-.91.95-.37.61-1.75.94.56-1.47.47-3.4-.14-4.88-2.02-1.35-4.39-1.13-7.07-1.38-1.1-.83-.79-.69-1.42-2.15l.72-.78c1.14-.69,1.67-1.4,2.55-2.38.45-2.2,1.83-2.29,3.7-3.17Z"/>
      <path class="cls-4" d="M118.04,6.26c.9.78,1.99,1.66,2.76,2.53-6.49,6.21-15.16,15.67-21.08,21.03l-2.41,2.47c-.82.77-1.89,1.91-2.82,2.44-1.83,1.99-2.07,2.76-3.18,5.2-4.25,1.55-.44.18-3.1,3.62-1.48.57-1.17.73-2.27.3.18-1.25,1.02-2.53,1.57-3.73l-.6-1.33c2.1-9.57,15.29-22.01,22.7-27.89,4.24.14,5.22-1.65,8.43-4.63Z"/>
      <path class="cls-7" d="M131.4.27c3.42,0,12.47.4,15.13,2.4l5.74,1.71c4.02.58,7.83.78,11.21,3.09-1.54,1.37-1.24.75-1.85,2.54.42,1.62.48,1.74,1.33,3.19-3.49-.73-5.45-1.18-8.8-2.33-8.88-1.92-13.96-4.41-23.7-5.77l.47-3.12.47-1.71Z"/>
      <path class="cls-6" d="M152.27,4.38c4.02.58,7.83.78,11.21,3.09-1.54,1.37-1.24.75-1.85,2.54.42,1.62.48,1.74,1.33,3.19-3.49-.73-5.45-1.18-8.8-2.33l.52-.25c.26-.76-.31-1.48-.75-2.39-1.46-1.19-2.41-1.48-2.7-2.99l1.03-.86Z"/>
      <path class="cls-2" d="M131.4.27c3.42,0,12.47.4,15.13,2.4-1.03,1.36-.73.61-.9,2.33-4.88-.89-9.54-2.11-14.69-3.01l.47-1.71Z"/>
      <path class="cls-2" d="M145.63,4.99c.18-1.71-.12-.97.9-2.33l5.74,1.71-1.03.86c.29,1.51,1.23,1.8,2.7,2.99-4.35-.68-4.59-.83-8.31-3.24Z"/>
      <path class="cls-8" d="M153.78,19.44c1.43,1.04,4.74,3.24,5.57,4.64-7.65,7.31-12.23,10.8-17.86,20.11-1.09-.31-5.17-2.65-6.3-3.28,4.18-2.79,7.87-10.29,11.39-14.12.8-.87,4.12-2.72,4.09-2.63.77-3.24.51-2.41,3.1-4.71Z"/>
      <path class="cls-8" d="M130.46,5.1c9.75,1.35,14.82,3.85,23.7,5.77,3.35,1.15,5.31,1.61,8.8,2.33,2.44.91,3.35,1.13,5.38,2.79-.89.98-1.42,1.69-2.55,2.38l-.72.78c-1.93,1.61-3.84,3.25-5.72,4.92-.83-1.4-4.13-3.6-5.57-4.64-.22-2.12-.23-4.14-.28-6.26-5.31-3.25-20.78-6.76-27.26-7.01,1.65-.32,2.62-.56,4.23-1.06Z"/>
      <path class="cls-8" d="M153.5,13.17c3.74,2.7,8.13,3.38,12.28,5.19l-.72.78c-1.93,1.61-3.84,3.25-5.72,4.92-.83-1.4-4.13-3.6-5.57-4.64-.22-2.12-.23-4.14-.28-6.26Z"/>
      <path class="cls-8" d="M99.72,29.82c3.14,1.91,9.2.66,9.72,4.48-3.14-.49-6.27-1.01-9.4-1.56l-2.73-.45,2.41-2.47Z"/>
      <path class="cls-4" d="M97.31,32.29l2.73.45c3.13.54,6.26,1.06,9.4,1.56l.64.36c5.07.72,6.2.84,11.11,2.54,5.09.99,9.01,2.19,13.99,3.69,1.13.64,5.21,2.97,6.3,3.28l-.07,1.92c.45,2.41.09,2.84,1.59,4.25l2.25.39-2.12.63c-1.19,2.21-2.75,3.69-5.12,4.6l-1.04,1.49.58,2.29,1.07,1.26c.93,1.67,1.32,2.02,1.13,3.81-1.09,1.2-1.84,1-3.29.49-.12-1.13-.23-1.11-.86-2.08-4.66-.28-1.25-2.76-4.45-5.89-1.66-.01-1.05-.09-2.61.81h-.58c-3.24.08-17.58-3.72-23.12-4.48-.03-.26-.07-.53-.12-.79-.42-2.41-2.15-3.12-4.25-4.64l.07-1.32c-1.75-.84-3.14-.97-5.04-1.31l-.24-.34-.08-.77c-.7-.72-1.24-1.45-1.87-2.24-.26-1.93-.38-1.16.46-2.91,1.51-2.23,1.84-2.32.73-4.64.93-.53,2-1.67,2.82-2.44Z"/>
      <path class="cls-4" d="M101.16,46.69c2.37-1.49,5.22-.35,7.83.24,5.31,1.21,24.88,7.1,28,10.54l.58,2.29,1.07,1.26c.93,1.67,1.32,2.02,1.13,3.81-1.09,1.2-1.84,1-3.29.49-.12-1.13-.23-1.11-.86-2.08-4.66-.28-1.25-2.76-4.45-5.89-1.66-.01-1.05-.09-2.61.81h-.58c-3.24.08-17.58-3.72-23.12-4.48-.03-.26-.07-.53-.12-.79-.42-2.41-2.15-3.12-4.25-4.64l.07-1.32.62-.24Z"/>
      <path class="cls-4" d="M97.31,32.29l2.73.45c3.13.54,6.26,1.06,9.4,1.56l.64.36c5.07.72,6.2.84,11.11,2.54,1.45,1.69,2.34,2.1,2.53,3.98-1.1.61-1.28.5-2.52.53l-1.26,1.34c-1.34-.2-10.48-2.69-11.8-3.34-5.2-1.43-9.37-3.03-14.38-.34,1.51-2.23,1.84-2.32.73-4.64.93-.53,2-1.67,2.82-2.44Z"/>
      <path class="cls-2" d="M110.09,34.66c5.07.72,6.2.84,11.11,2.54,1.45,1.69,2.34,2.1,2.53,3.98-1.1.61-1.28.5-2.52.53-3.4-3.48-8.26-2.23-11.12-7.04Z"/>
      <path class="cls-2" d="M97.31,32.29l2.73.45-1.92,1.33c.37,3.55,7.97,2.72,10.55,5l-.53.64c-5.2-1.43-9.37-3.03-14.38-.34,1.51-2.23,1.84-2.32.73-4.64.93-.53,2-1.67,2.82-2.44Z"/>
      <path class="cls-2" d="M121.2,37.2c5.09.99,9.01,2.19,13.99,3.69,1.13.64,5.21,2.97,6.3,3.28l-.07,1.92-1.31,2.38c-3.65-.61-7.49-3.02-9.55-2.48-1.77-.22-7.58-2.3-10.62-2.96l1.26-1.34c1.24-.02,1.42.08,2.52-.53-.2-1.88-1.08-2.29-2.53-3.98Z"/>
      <path class="cls-4" d="M130.56,46.01c2.06-.53,5.9,1.87,9.55,2.48.8.59.46.23.85,1.26l-.57.65c-4.16.87-7.4-1.24-9.83-4.39Z"/>
      <path class="cls-2" d="M95.17,44.51c2.02.27,3.61.32,5.39,1.35l.59.83-.62.24c-1.75-.84-3.14-.97-5.04-1.31l-.24-.34-.08-.77Z"/>
      <path class="cls-2" d="M131.94,50.3c1.06.18,1.16.38,2.01,1.03-.05,1.55-.24,1.29-1.35,2.82-1.44-.51-1.56-.55-2.86-1.36l.04-.85,2.15-1.64Z"/>
      <path class="cls-4" d="M48.11,76.16c.05-.35-1.34,9.01-.82,7.8l2,1.06,2.17-3.16c1.7.49,4.29,1.02,5.53,2.1l.13-.49c1.12.28,1.96.62,3.09.4l1.39,1.03,2.82,1.27,1.3-.2c1.55.45,3.7,1.16,5.24,1.44l7.11,1.87c-.68.8-1.5,1.56-1.73,2.54.15,1.05.36,1.75.19,2.76.66,1.42.08,2.83-.28,4.46l1.85.13c2.58.7,4.49,1.21,6.97,2.2-.63.68-1.75,1.67-1.89,2.42l5.19,1.5-3.13,2.28c-1.57-1.58-4.08-1.81-6.32-2.28-3.6-.8-6.61-1.45-10.29-1.98-7.37-1.13-13.25-4.05-20.41-5.02l-.33-.22c-2.59-1.56-3.52-1.72-6.33-.55l-.88-.48c-1.57-2.5-1.31.21-3.04-4.11,4.83-3.22,3.72-10.53,10.48-16.77Z"/>
      <path class="cls-2" d="M51.46,81.87c1.7.49,4.29,1.02,5.53,2.1l.13-.49c1.12.28,1.96.62,3.09.4l1.39,1.03,2.82,1.27,1.3-.2c1.55.45,3.7,1.16,5.24,1.44l7.11,1.87c-.68.8-1.5,1.56-1.73,2.54.15,1.05.36,1.75.19,2.76.66,1.42.08,2.83-.28,4.46-1.22-.54-2.77-.98-4.06-1.39-6.17-2.07-12.14-3.94-18.55-5.15l.53-1.21.79-1.02c0-1.66,0-1.12-1.45-2.74l-1.3-.59c-1.72.67-2.06.94-3.54,2.05l.73-3.62-.1-.35,2.17-3.16Z"/>
      <path class="cls-2" d="M51.46,81.87c1.7.49,4.29,1.02,5.53,2.1l.13-.49c1.12.28,1.96.62,3.09.4l1.39,1.03.18,4.9c-3.85-.18-1.59-2.36-5.81-3.43-.98.54-1.45.74-2.46,1.16l-1.3-.59c-1.72.67-2.06.94-3.54,2.05l.73-3.62-.1-.35,2.17-3.16Z"/>
      <path class="cls-8" d="M51.46,81.87c1.7.49,4.29,1.02,5.53,2.1-1.53.37-6.43,1.8-7.6,1.41l-.1-.35,2.17-3.16Z"/>
      <path class="cls-2" d="M70.96,87.43l7.11,1.87c-.68.8-1.5,1.56-1.73,2.54-2.77-1.03-3.26,1.18-5.84-2.17l.46-2.24Z"/>
      <path class="cls-2" d="M72.2,97.67l.66-2.1c1.52-1.22,1.47-.86,3.68-.97.66,1.42.08,2.83-.28,4.46-1.22-.54-2.77-.98-4.06-1.39Z"/>
      <path class="cls-2" d="M61.6,84.92l2.82,1.27c-.45,1.3-.78,2.87-1.82,3.66l-.81-.03-.18-4.9Z"/>
      <path class="cls-2" d="M48.11,76.16c.05-.35-1.34,9.01-.82,7.8-2.23,2.05-3.68,4.22-5.33,6.76-.59,2.18-.77,1.6-.19,3.44,2.75,1.67,3.4-.07,5.98,1.82.17.99.25,1.12.14,2.1-2.59-1.56-3.52-1.72-6.33-.55l-.88-.48c-1.57-2.5-1.31.21-3.04-4.11,4.83-3.22,3.72-10.53,10.48-16.77Z"/>
      <path class="cls-4" d="M68.63,103.33c1.99-1.71,1.86-2.28,4.4-2.08,3.7.29,6.43,1.84,10.15,2.57l5.19,1.5-3.13,2.28c-1.57-1.58-4.08-1.81-6.32-2.28-3.6-.8-6.61-1.45-10.29-1.98Z"/>
      <path class="cls-4" d="M47.29,83.97l2,1.06.1.35-.73,3.62c-.55,1.5-.59,1.54-1.77,2.67-1.29,1.26-1.65,1.86-3.32,2.29-1.49-1.24-1.03-.92-1.61-3.24,1.65-2.54,3.1-4.71,5.33-6.76Z"/>
      <path class="cls-2" d="M48.66,89.01c1.49-1.11,1.82-1.39,3.54-2.05l1.3.59c1.46,1.62,1.45,1.09,1.45,2.74l-.79,1.02-.53,1.21c-1.84-.12-4.15-.11-6.04-.15l-.71-.71c1.17-1.13,1.22-1.16,1.77-2.67Z"/>
      <path class="cls-2" d="M47.61,92.38c1.6-2.62,4.14-2,6.56-1.07l-.53,1.21c-1.84-.12-4.15-.11-6.04-.15Z"/>
      <path class="cls-4" d="M128.54,58.16c1.56-.9.95-.82,2.61-.81,3.21,3.13-.2,5.61,4.45,5.89.63.97.74.95.86,2.08l-.42.28c-2.31,1.48-4.46,1.78-5.57,3.23.22,1,.05.67.63,1.49-8.31,6.79-26.09,24.5-23.99,35.69-2.8,1.04-3.07.91-5.73-.5-.67-2.18-1.35-2.88-2.7-4.65-.96-2.47-1.48-2.62-2.2-5.57l-.18-1.46c1.03-1.24,2.06-2.11,3.25-3.18l.62.15-.07,1.46c1.11-.58,2.16-2.98,2.94-4.3,5.33-8.69,14.12-15.51,20.93-23.08,2.47-2.75,3.31-1.45,4.28-5.47l.17-.68.11-.56Z"/>
      <path class="cls-2" d="M120.28,65.72c2.68-2.79,4.7-4.34,7.99-6.32-.97,4.03-1.81,2.72-4.28,5.47-6.82,7.57-15.6,14.39-20.93,23.08-.79,1.31-1.83,3.72-2.94,4.3l.07-1.46-.62-.15c-1.19,1.08-2.21,1.94-3.25,3.18l.18,1.46c.72,2.94,1.24,3.1,2.2,5.57l-1.25,2.46-.49.14-1.44-.42-1.85,1.08-1.02-.41c-1.67-1.03-2.53-1.11-4.4-1.49-.39-.02-2.63-.68-3.15-.83-2.48-.99-4.39-1.5-6.97-2.2l-1.85-.13c.36-1.64.94-3.04.28-4.46.18-1-.04-1.71-.19-2.76.22-.99,1.04-1.74,1.73-2.54l-7.11-1.87c-1.53-.28-3.68-.98-5.24-1.44l-1.3.2-2.82-1.27-1.39-1.03c-1.12.22-1.96-.12-3.09-.4l.44-.9c1.85-.45,2.15-.49,3.51-1.78,2.38.12,10.96,1.36,13.25,1.96,7.7,2.28,15.21,5.14,22.48,8.54l.62-.7c.54-3.07,16.54-18.28,19.78-21.6l3.06-3.29Z"/>
      <path class="cls-2" d="M78.07,89.3c2.02.68,3.96,1.38,6.03,1.88l1.96.65c5.78.33,3.31-1.95,6.83-1.19.81,1.06.68,1.44.68,2.77,1.17.68,1.39.57,2.72.43l.18,1.46c.72,2.94,1.24,3.1,2.2,5.57l-1.25,2.46-.49.14-1.44-.42-1.85,1.08-1.02-.41c-1.67-1.03-2.53-1.11-4.4-1.49-.39-.02-2.63-.68-3.15-.83-2.48-.99-4.39-1.5-6.97-2.2l-1.85-.13c.36-1.64.94-3.04.28-4.46.18-1-.04-1.71-.19-2.76.22-.99,1.04-1.74,1.73-2.54Z"/>
      <path class="cls-2" d="M96.48,95.3c.72,2.94,1.24,3.1,2.2,5.57l-1.25,2.46-.49.14-1.44-.42-1.85,1.08-1.02-.41.34-.99-1.06-1.84c.46-4.07,3.04-1.25,4.59-5.58Z"/>
      <path class="cls-2" d="M78.1,99.2l.92-1.83c1.64-.32,10.77,2.76,12.87,3.51l1.06,1.84-.34.99c-1.67-1.03-2.53-1.11-4.4-1.49-.39-.02-2.63-.68-3.15-.83-2.48-.99-4.39-1.5-6.97-2.2Z"/>
      <path class="cls-2" d="M86.06,91.83c.83.85.73.86,1.01,2.04l-.51.78c-2.39.76-3,.35-5.54-.2,2.19-2.47,1.13.36,4.25-1l-.38-1.28,1.17-.35Z"/>
      <path class="cls-4" d="M68.59,84.87c3.71.82,13.4,2.69,16.29,4.68l.23.9-1,.73c-2.07-.5-4.02-1.2-6.03-1.88l-7.11-1.87c-1.53-.28-3.68-.98-5.24-1.44l2.86-1.12Z"/>
      <path class="cls-4" d="M60.21,83.89c1.97-.93,6.15.42,8.38.98l-2.86,1.12-1.3.2-2.82-1.27-1.39-1.03Z"/>
      <path class="cls-4" d="M60.04,64.24c4.93-5.6,11.54-14.73,18.17-18.06.69-.35,4.24-.84,5.2-.96l-.05,1.38c-1.19.83-1.84,1.35-3.16,1.93l-.03,1.98c-5.95,8.19-16.9,18.44-23.77,26.39l3.57.46,1.12,3.44c-1.37,1.29-1.67,1.33-3.51,1.78l-.44.9-.13.49c-1.24-1.09-3.83-1.61-5.53-2.1l-2.17,3.16-2-1.06c-.52,1.21.87-8.15.82-7.8,3.86-4.09,7.84-8.06,11.93-11.92Z"/>
      <path class="cls-6" d="M60.04,64.24c4.93-5.6,11.54-14.73,18.17-18.06.69-.35,4.24-.84,5.2-.96l-.05,1.38c-1.19.83-1.84,1.35-3.16,1.93-7.02,4.04-14.58,14.19-20.15,15.7Z"/>
      <path class="cls-6" d="M56.39,76.91l3.57.46,1.12,3.44c-1.37,1.29-1.67,1.33-3.51,1.78l-.44.9-.13.49c-1.24-1.09-3.83-1.61-5.53-2.1.6-.77,1.38-1.39,2.12-2.05l2.81-2.9Z"/>
      <path class="cls-8" d="M56.39,76.91l3.57.46,1.12,3.44c-2.85-.17-4.77-.18-7.5-.99l2.81-2.9Z"/>
      <path class="cls-2" d="M94.49,34.72c1.11,2.32.78,2.41-.73,4.64-.84,1.75-.71.98-.46,2.91.63.79,1.17,1.52,1.87,2.24l.08.77.24.34c1.9.34,3.29.48,5.04,1.31l-.07,1.32c2.11,1.52,3.83,2.23,4.25,4.64.04.26.08.53.12.79l-7.18-1.79c-3.78-1.07-8.06-1.56-11.98-1.73.01-1.92.33-2.05-.5-3.41l-1.81-.16.05-1.38c.17-.42,2.77-4.84,3.5-6.44l.6,1.33c-.55,1.2-1.39,2.48-1.57,3.73,1.1.43.79.27,2.27-.3,2.66-3.44-1.16-2.07,3.1-3.62,1.11-2.44,1.36-3.21,3.18-5.2Z"/>
      <path class="cls-4" d="M95.5,45.61c1.9.34,3.29.48,5.04,1.31l-.07,1.32c2.11,1.52,3.83,2.23,4.25,4.64.04.26.08.53.12.79l-7.18-1.79c-2.17-2.68-3.86-2.64-4.85-4.72,1.02-1.39.67-.95,2.69-1.55Z"/>
      <path class="cls-8" d="M94.49,34.72c1.11,2.32.78,2.41-.73,4.64-.84,1.75-.71.98-.46,2.91.63.79,1.17,1.52,1.87,2.24l.08.77c-1.77.06-3.7.36-5.21-.38-.39-1.73.52-3.02,1.26-4.97,1.11-2.44,1.36-3.21,3.18-5.2Z"/>
      <path class="cls-8" d="M117.24,61.47c1.64,1.23,2.12,2.4,3.03,4.25l-3.06,3.29c-7.02-.16-14.4,14.48-19.03,15.99-.83-1.49-.26-2.47.31-4.15.86-.57,11.91-15.04,12.1-15.62,2.24-1.39,4.32-2.51,6.65-3.75Z"/>
      <path class="cls-5" d="M98.5,80.84c-3.61-2.73-21.14-7.81-25.56-6.85l-.66-.52c.45-1.94,1.92-3.14,3.74-3.79,1.76.67.89,1.2,1.65,2.61.2.36,1.52-1.07,3.07-.19-1.39.24-1.53,0-2.28.83,2.82,3.39,5.76,1.48,8.69,2.57,10.64,3.95,12.21,5.99,17.97-5.25-.66-.84-.65-.81-1.02-1.8,2.34-1.79,2.5,0,3.17-.42.67-.41,1.62-2.4,3.34-2.81-.18.58-11.24,15.05-12.1,15.62Z"/>
      <path class="cls-8" d="M76.6,82.09c4.27,1.11,17.64,4.29,20.44,6.95l.4,1.56-.62.7c-7.27-3.41-14.78-6.26-22.48-8.54l2.26-.67Z"/>
      <path class="cls-8" d="M59.97,77.37l7.95,1.29c4.51.73,3.91,2.82,7.46,2.62l.49-.02.73.84-2.26.67c-2.29-.6-10.86-1.84-13.25-1.96l-1.12-3.44Z"/>
      <path class="cls-8" d="M117.24,61.47c3.63-.59,7.13-3.12,11.19-2.75l-.17.68c-3.28,1.97-5.3,3.53-7.99,6.32-.91-1.85-1.4-3.02-3.03-4.25Z"/>
      <path class="cls-5" d="M67.92,78.66c3.94.03,8.91.15,12.62,1.55l.58.66-.58.45-3.99-.75c-.22.2-.57.45-.68.68l-.49.02c-3.55.2-2.94-1.89-7.46-2.62Z"/>
      <path class="cls-4" d="M83.36,46.6l1.81.16c.84,1.35.52,1.49.5,3.41-1.56.09-4.05.15-5.52.35l.03-1.98c1.32-.58,1.97-1.1,3.16-1.93Z"/>
      <path class="cls-4" d="M179.18,18.53c3.52-4,4.42-3.49,9.54-4.41,4.41-.8,20.27,2.65,23.84,4.91,1.13,2.07,3.22,2.44,5.4,3.09,8.56,2.51,10.03,2.22,16.92,7.48,5.14,3.65,8.22,18.16,11.09,21.01.49,2.47.95,4.73,1.58,7.17l1.45-1.06c2.86,1.93-1.2,9.23-2.68,11.39-.55.81-1.15,1.58-1.8,2.31l-2.13,2.87c-4.78,7.28-8.76,12.67-14.36,19.34l-5.68,7c-1.93,2.22-4.83,5.76-6.9,7.66-2.79,3.27-9.39,10.28-12.63,13.36-.58-1.2-.49-3.41-.53-4.84,1.52-2.33.89-3.39,1.99-4.73l-.02-.43c-2.64-.93-1.62-.99-3.87-.03-2.06,2.88-1.89,3.8-5.42,2.89l-1.29.96-.06.5,2.05-.11c-.28,1.56-1.01,2.75-2.64,3.2-1.43-1.13-.73-.87-2.7-.81l-1.7-1.18c-1.38.04-2.05.19-3.28-.45-.52-7.37-8.04-2.52,1.23-17.37.79-1.03.53-.45.69-1.84.71-3.76,5.14-5.02,5.55-8.65,3.25-2.03,6.14-6.6,6.72-10.35l1.2-.69c1.32,1.5,2.59,2.04,4.61,1.97l1.7-3.42c-1.96-.78-2.95-6.44-4.31-7.64.77-1.16,1.59-2.19,2.44-3.28-1.16.15-1.92-.06-3.06-.27-.87-.82-.97-.74-2.13-.97-1.86-1.49-3.09-1.27-5.6-1.9l-.35-.39-1.42.3-.22-1.02c.14-.35.33-1.51.41-1.95l-1.04-.29c-.91-1.31-2.7-3.38-3.74-4.66-10.89-3.62-14.66-4.38-26.16-5.64l-1.33-.34,2.6-2.77,2.23-2.39c1.61-5.2,7.28-8.59,6.73-12.19.5-1.38.46-1.31,1.57-2.28,1.38-.33.83,0,1.75-.94-.4-4.12.51-4.55,3.12-7.58l.63-.52Z"/>
      <path class="cls-5" d="M179.18,18.53c3.52-4,4.42-3.49,9.54-4.41,4.41-.8,20.27,2.65,23.84,4.91,1.13,2.07,3.22,2.44,5.4,3.09,8.56,2.51,10.03,2.22,16.92,7.48l-3.98,1.59-3.94-1.27c-.78.59-2.55,1.83-3.19,2.44,1.82.9,1.3.33,2.16,2.02-.31,1.92-.63,2.24-1.8,3.83-4.79,4.24-9.8,9.78-14.59,14.31l-.43,4.49c-1.05,1.53-1.9,2.85-3.14,4.25l1.6,1.07-.11.95c-.93.53-1.23.78-2.27,1.08-1.16.15-1.92-.06-3.06-.27-.87-.82-.97-.74-2.13-.97-1.86-1.49-3.09-1.27-5.6-1.9l-.35-.39-1.42.3-.22-1.02c.14-.35.33-1.51.41-1.95l-1.04-.29c-.91-1.31-2.7-3.38-3.74-4.66-10.89-3.62-14.66-4.38-26.16-5.64l-1.33-.34,2.6-2.77,2.23-2.39c1.61-5.2,7.28-8.59,6.73-12.19.5-1.38.46-1.31,1.57-2.28,1.38-.33.83,0,1.75-.94-.4-4.12.51-4.55,3.12-7.58l.63-.52Z"/>
      <path class="cls-4" d="M179.18,18.53c3.52-4,4.42-3.49,9.54-4.41,4.41-.8,20.27,2.65,23.84,4.91,1.13,2.07,3.22,2.44,5.4,3.09,8.56,2.51,10.03,2.22,16.92,7.48l-3.98,1.59-3.94-1.27c-3.39.14-14.5-4.18-18.98-5.27-1.79-.71-5.1-1.56-7.08-2.11-4.56-1.61-11.55-3.83-15.79-1.14-2.45-2.02-2.92-2.28-5.94-2.87Z"/>
      <path class="cls-6" d="M205.29,53.03l4.25-.53-.43,4.49c-1.05,1.53-1.9,2.85-3.14,4.25l1.6,1.07-.11.95c-.93.53-1.23.78-2.27,1.08-1.16.15-1.92-.06-3.06-.27-.87-.82-.97-.74-2.13-.97-1.86-1.49-3.09-1.27-5.6-1.9l-.35-.39-1.42.3-.22-1.02c.14-.35.33-1.51.41-1.95l-1.04-.29c-.91-1.31-2.7-3.38-3.74-4.66l7.39,2.46-.06-1.2c2.27.54,4.55,1.06,6.84,1.55l3.06-2.95Z"/>
      <path class="cls-5" d="M205.29,53.03l4.25-.53-.43,4.49c-1.05,1.53-1.9,2.85-3.14,4.25-3.67-2.99-6.21-3.83-10.52-5.61l-.06-1.2c2.27.54,4.55,1.06,6.84,1.55l3.06-2.95Z"/>
      <path class="cls-2" d="M195.85,59.08c2.36.87,5.18.5,6.8,1.98.32,1.79.31,1.12-.52,3.01-.87-.82-.97-.74-2.13-.97-1.86-1.49-3.09-1.27-5.6-1.9l1.43-2.12Z"/>
      <path class="cls-2" d="M192.84,58.13c1.1.26,2.02.41,3.01.95l-1.43,2.12-.35-.39-1.42.3-.22-1.02c.14-.35.33-1.51.41-1.95Z"/>
      <path class="cls-8" d="M223.77,32.35c1.82.9,1.3.33,2.16,2.02-.31,1.92-.63,2.24-1.8,3.83-4.79,4.24-9.8,9.78-14.59,14.31l-4.25.53c2.45-6.4,13.15-15.92,18.49-20.68Z"/>
      <path class="cls-8" d="M163.17,44.42c7.46,3.95,10.35,2.68,17.96,4.41,2.41.55,11.43,4.43,14.27,5.6l.06,1.2-7.39-2.46c-10.89-3.62-14.66-4.38-26.16-5.64l-1.33-.34,2.6-2.77Z"/>
      <path class="cls-4" d="M179.18,18.53c3.02.59,3.49.85,5.94,2.87-1.68,1.97-2.73,3.13-4.62,4.9-2.1.45-2.89.74-5.06.33-.4-4.12.51-4.55,3.12-7.58l.63-.52Z"/>
      <path class="cls-4" d="M175.44,26.62c2.17.41,2.96.12,5.06-.33-5.01,5.23-10.04,10.57-15.11,15.74,1.61-5.2,7.28-8.59,6.73-12.19.5-1.38.46-1.31,1.57-2.28,1.38-.33.83,0,1.75-.94Z"/>
      <path class="cls-8" d="M200.91,22.53c1.97.56,5.28,1.4,7.08,2.11-1.58,1.03-5.85.47-7.22-.93l.15-1.19Z"/>
      <path class="cls-2" d="M214.93,102.81l.26-.11c.27,1.89.45,2.62.26,4.56-2.79,3.27-9.39,10.28-12.63,13.36-.58-1.2-.49-3.41-.53-4.84,1.52-2.33.89-3.39,1.99-4.73l-.02-.43c1.98-2.87,6.94-8.51,10.66-7.82Z"/>
      <path class="cls-2" d="M204.27,110.63c1.98-2.87,6.94-8.51,10.66-7.82-.39,1.35-.19,2.32-1.79,2.96-1.93.77-5.3,3.21-7.05,4.42-1.01.7.86,1.77-1.8.86l-.02-.43Z"/>
      <path class="cls-5" d="M224.13,38.2l3.45.61c-6.93,9.18-11.83,10.93-18.47,18.19l.43-4.49c4.8-4.53,9.81-10.07,14.59-14.31Z"/>
      <path class="cls-4" d="M239.86,70.75c-1.46,1.69-2.6,3.4-4.6,4.23l-.42-.61c.65-3.18,4.12-9.72,7.57-10.2l.65,2-.68,1.45c.61.88,1.37,2.07,2.13,2.79l-2.13,2.87-2.54-2.52Z"/>
      <path class="cls-4" d="M242.39,67.61c.61.88,1.37,2.07,2.13,2.79l-2.13,2.87-2.54-2.52,2.53-3.14Z"/>
      <path class="cls-2" d="M247.56,57.77l1.45-1.06c2.86,1.93-1.2,9.23-2.68,11.39-.55.81-1.15,1.58-1.8,2.31-.76-.71-1.52-1.91-2.13-2.79l.68-1.45c.44-2.26,3.08-5.16,4.49-8.4Z"/>
      <path class="cls-2" d="M215.2,102.71c2-2.9,3.77-5.68,6.27-8.18.26,1.82.45,3.27.89,5.08-1.93,2.22-4.83,5.76-6.9,7.66.19-1.94.01-2.67-.26-4.56Z"/>
      <path class="cls-8" d="M226.96,29.91l3.94,1.27c-1.05,3.54-1.34,4.32-3.18,7.38l-.15.24-3.45-.61c1.17-1.59,1.49-1.9,1.8-3.83-.85-1.69-.33-1.12-2.16-2.02.63-.6,2.4-1.85,3.19-2.44Z"/>
      <path class="cls-6" d="M221.47,94.52c1.66-1.74,2.7-3.49,5.19-3.44l1.38,1.53-5.68,7c-.44-1.81-.63-3.26-.89-5.08Z"/>
      <path class="cls-8" d="M207.06,75.26c3.73,2.79,2.82,4.29,2.97,8.66-1.5-2.06-2.56-3.81-4.67-5.24l1.7-3.42Z"/>
      <path class="cls-4" d="M214.73,69.53c1.54,1.26,2.99,2.41,4.41,3.81.33,3.49-2.91,4.02-3.34,7.3-.09.66-.88,1.43-1.36,1.91-1.29,1.16-.95,1.22-2.38,1.43-.25-1.29.54-2.7,1.07-3.99l-.23-1.02c-.05-2.13,0-2.68-.79-4.71.69-.9,1.79-2.75,2.44-3.78l.17-.95Z"/>
      <path class="cls-2" d="M214.56,70.48c-.32,3.69,1.02,4.33.91,6.8-1.14,1.55-.64,1.36-2.16,1.83l-.41-.14c-.05-2.13,0-2.68-.79-4.71.69-.9,1.79-2.75,2.44-3.78Z"/>
      <path class="cls-2" d="M213.14,79.99c.34.64,1.09,1.94,1.31,2.56-1.29,1.16-.95,1.22-2.38,1.43-.25-1.29.54-2.7,1.07-3.99Z"/>
      <path class="cls-8" d="M212.12,74.26c-.29-2.34-1.72-9.17-1.21-10.51,1.57-1.27.85-1.04,2.73-1.17,1.83,1.56,1.67,4.74,1.1,6.95l-.17.95c-.66,1.03-1.75,2.87-2.44,3.78Z"/>
      <path class="cls-4" d="M219.58,82.99c1.83.33,2.74.46,4.53,1.09-.11,1.38-1.01,1.88-2.16,3.1-1.01,1.24-.4.9-1.68,1.37-.87-1.46-.62-3.61-.69-5.56Z"/>
      <path class="cls-2" d="M230.47,73.05l2.49.79.19.87-2.84,2.74c-.67.81-.25.62-1.21.75.04-2.06.64-3.27,1.38-5.16Z"/>
      <path class="cls-2" d="M219.87,55.89l.3.16c.12.91-2.54,3.55-3.56,4.93l-.56-.54.16-1.26c1.32-1.79,1.89-2.09,3.67-3.28Z"/>
      <path class="cls-4" d="M154.74,55.99c-.65-1.42-.62-1.34-.6-2.91,1.44-2.97,3.7-4.19,6.42-5.88l1.33.34c11.5,1.27,15.27,2.02,26.16,5.64,1.05,1.28,2.84,3.35,3.74,4.66l1.04.29c-.08.44-.27,1.6-.41,1.95l.22,1.02,1.42-.3.35.39c2.5.63,3.73.41,5.6,1.9,1.15.23,1.26.15,2.13.97,1.14.2,1.9.41,3.06.27-.85,1.1-1.67,2.12-2.44,3.28,1.36,1.21,2.35,6.86,4.31,7.64l-1.7,3.42c-2.01.08-3.29-.46-4.61-1.97l-1.2.69c-.59,3.75-3.47,8.32-6.72,10.35-.41,3.63-4.84,4.89-5.55,8.65-.16,1.38.1.81-.69,1.84-9.27,14.85-1.75,10-1.23,17.37,1.23.64,1.9.49,3.28.45l1.7,1.18-1.9.74c-3.62-.69-4.22-2.28-6.49-5.31-1.43-1.21-1.18-1.41-2.72-1.59l-1.23,1.74-1.74.12-2.21,3.94c.58,1.83.87,1.66.38,3.1-1.27-.48-1.71-.71-2.9-1.37-1.15,3.09,3.6,9.53-2.36,13.25l-2.27-1.11c-.87-3.89-2.27-7.91-2.99-11.87-.61-3.38.51-2.32-.66-6.02.79-.79.73-.74,1-1.84l-.92-1.2c-1.25-.26-1.89-1.2-2.95-2.19l1.01-2.58.08.78.59.21c1.22-1.75,2.25-3.84,3.26-5.74,1.81.89,2.95.92,4.91,1.16l1.16-.47,14.89-15.41,4.01-4.34c1.34-1.38,4.26-3.44,5.91-4.68-3.73-2.53-11.93-3.55-16.53-4.35-4.74-1.4-10.08-2.59-14.93-3.76-3.01-.78-5.04-1.12-8.12-1.57l-4.65-.88c-.18-1.72-2.32-5.58-3.25-7.69l-4.44,1.03c-1.24.4-2.32.91-3.55.8l1.02,1.18c-.22.27-.5.69-.76.86l-2.37-1.17-1.07-1.26-.58-2.29,1.04-1.49c2.38-.91,3.93-2.39,5.12-4.6l2.12-.63c1.83,3.42,3.65,3.64,4.97,5.7,1.58,1.75.98,1.58,2.93,2.14,1.28-.97.91-.83,1.58-2.61Z"/>
      <path class="cls-4" d="M154.74,55.99c-.65-1.42-.62-1.34-.6-2.91,1.44-2.97,3.7-4.19,6.42-5.88l1.33.34c11.5,1.27,15.27,2.02,26.16,5.64,1.05,1.28,2.84,3.35,3.74,4.66l1.04.29c-.08.44-.27,1.6-.41,1.95l.22,1.02,1.42-.3.35.39c2.5.63,3.73.41,5.6,1.9,1.15.23,1.26.15,2.13.97,1.14.2,1.9.41,3.06.27-.85,1.1-1.67,2.12-2.44,3.28,1.36,1.21,2.35,6.86,4.31,7.64l-1.7,3.42c-2.01.08-3.29-.46-4.61-1.97l.38-.71c-.02-.58-.12-2.22-.45-2.52-6.97-6.41-34.2-10.9-41.42-13.47l-.67-.25c-1.87.03-2.92-.33-3.97.71l.28.74c-1.2-.14-3.65-2.25-4.82-3.12l-1.37.22-4.44,1.03c-1.24.4-2.32.91-3.55.8l1.02,1.18c-.22.27-.5.69-.76.86l-2.37-1.17-1.07-1.26-.58-2.29,1.04-1.49c2.38-.91,3.93-2.39,5.12-4.6l2.12-.63c1.83,3.42,3.65,3.64,4.97,5.7,1.58,1.75.98,1.58,2.93,2.14,1.28-.97.91-.83,1.58-2.61Z"/>
      <path class="cls-2" d="M161.89,47.53c11.5,1.27,15.27,2.02,26.16,5.64,1.05,1.28,2.84,3.35,3.74,4.66-2.28-.42-6.51-2.05-8.85-2.88l.02,2.55-1.14.87c-2.1-.52-5.1-1.15-6.96-2.02-3.08-2.27-7.65-1.07-11.17-3.46.18-1.14.39-1.85.7-2.94-.82-1.56-.9-1.57-2.52-2.42Z"/>
      <path class="cls-2" d="M174.88,56.36l.36-.7c-.2-.99-.24-1.02-.16-2.01,2.08-1.39,6.36-.44,7.87,1.32l.02,2.55-1.14.87c-2.1-.52-5.1-1.15-6.96-2.02Z"/>
      <path class="cls-4" d="M145.27,50.75c1.83,3.42,3.65,3.64,4.97,5.7,1.58,1.75.98,1.58,2.93,2.14,1.28-.97.91-.83,1.58-2.61.49-1.62.66-3.05,1.96-3.96l2.76-.06.28.44c-1.68,1.37-3.66,2.67-4.59,4.54l.02,1.39c.98.33,2.8.78,3.43,1.43-1.87.03-2.92-.33-3.97.71l.28.74c-1.2-.14-3.65-2.25-4.82-3.12l-1.37.22-4.44,1.03c-1.24.4-2.32.91-3.55.8l1.02,1.18c-.22.27-.5.69-.76.86l-2.37-1.17-1.07-1.26-.58-2.29,1.04-1.49c2.38-.91,3.93-2.39,5.12-4.6l2.12-.63Z"/>
      <path class="cls-5" d="M137.56,59.76c.91.1,2.32.22,3.17.39l1.02,1.18c-.22.27-.5.69-.76.86l-2.37-1.17-1.07-1.26Z"/>
      <path class="cls-2" d="M182.95,54.96c2.34.83,6.57,2.46,8.85,2.88l1.04.29c-.08.44-.27,1.6-.41,1.95l.22,1.02,1.42-.3.35.39c2.5.63,3.73.41,5.6,1.9-2.24.31-2.03.22-3.7-.74-5.43-1-9.7-1.3-14.48-3.98l1.14-.87-.02-2.55Z"/>
      <path class="cls-4" d="M182.95,54.96c2.34.83,6.57,2.46,8.85,2.88l1.04.29c-.08.44-.27,1.6-.41,1.95-3.77-1.08-5.24-1.21-9.46-2.57l-.02-2.55Z"/>
      <path class="cls-4" d="M196.31,62.36c1.67.96,1.46,1.05,3.7.74,1.15.23,1.26.15,2.13.97,1.14.2,1.9.41,3.06.27-.85,1.1-1.67,2.12-2.44,3.28-1.89-.11-2.34.13-3.88-1.14-2.52-2.09-3.96-1.26-6.75-2.41,1.88-.4,2.64-.55,4.19-1.71Z"/>
      <path class="cls-4" d="M192.83,87.75c-.41,3.63-4.84,4.89-5.55,8.65-.16,1.38.1.81-.69,1.84-9.27,14.85-1.75,10-1.23,17.37,1.23.64,1.9.49,3.28.45l1.7,1.18-1.9.74c-3.62-.69-4.22-2.28-6.49-5.31-1.43-1.21-1.18-1.41-2.72-1.59l-1.23,1.74-1.74.12-2.21,3.94c.58,1.83.87,1.66.38,3.1-1.27-.48-1.71-.71-2.9-1.37-1.15,3.09,3.6,9.53-2.36,13.25.15-1.25.99-3.19,1.03-4.26.13-3.23.26-10.89-1.71-13.44-.11-2.15.04-1.87,1.46-3.26,7.81-8.95,14.2-15.05,22.87-23.15Z"/>
      <path class="cls-4" d="M174.07,116.88l-1.14-.23c-3.71-3.67,3.3-12.92,6.76-13.39,2.83,3.66-1.3,7.33-3.41,9.67l-2.21,3.94Z"/>
      <path class="cls-8" d="M169.96,110.9l.8.98c-.52,1.23-.84,1.63-2.26,2.28-.11-2.15.04-1.87,1.46-3.26Z"/>
      <path class="cls-2" d="M186.6,98.24l-.73-.78c.23-1.58-.07-1.23.89-2.04l.53.99c-.16,1.38.1.81-.69,1.84Z"/>
      <path class="cls-4" d="M148.72,58.31l1.37-.22c1.18.87,3.63,2.98,4.82,3.12,3.03.88,6.04,1.86,9.02,2.92.22,1.25.5,3.14.81,4.31-3.01-.78-5.04-1.12-8.12-1.57l-4.65-.88c-.18-1.72-2.32-5.58-3.25-7.69Z"/>
      <path class="cls-4" d="M163.93,64.13c1.43.46,4.23,1.48,5.59,1.65,3.04.99,3.77,2.01,5.89,1.04,1.44.24,2.4.32,3.73.87-.07,2.14-.09,2.48.53,4.51-4.74-1.4-10.08-2.59-14.93-3.76-.31-1.17-.59-3.06-.81-4.31Z"/>
      <path class="cls-4" d="M169.52,65.78c3.04.99,3.77,2.01,5.89,1.04.67,2.09.7.08,2.38,2.37l-.26.69c-3.48.63-6.22-1.33-8-4.1Z"/>
      <path class="cls-4" d="M179.13,67.69l1.11,1.04-.29,1.46c1.02.87,1.41,1.18,2.89.92,3.75-.66,7.98-.83,11.05,1.85,1.03.9,1.56,1.73,2.75,2.51l-.44,1.09c-3.73-2.53-11.93-3.55-16.53-4.35-.62-2.04-.61-2.37-.53-4.51Z"/>
      <path class="cls-5" d="M165.31,100.29c1.81.89,2.95.92,4.91,1.16l1.16-.47c-2.73,2.33-6.87,5.48-8.04,8.84-1.25-.26-1.89-1.2-2.95-2.19l1.01-2.58.08.78.59.21c1.22-1.75,2.25-3.84,3.26-5.74Z"/>
      <path class="cls-2" d="M148.72,58.31c.92,2.11,3.06,5.97,3.25,7.69-3.8-.58-4.44-1.12-7.24,1.76l-.5-.04c-3.64,4.51-13.39,14.19-17.9,18.53-2.29,2.26-4.59,4.59-6.98,6.74l-1.3,1.81.41.32c14.88,3.07,28.12,5.67,41.94,12.53,1.07.99,1.71,1.93,2.95,2.19l.92,1.2c-.27,1.1-.21,1.04-1,1.84l-.69-.28-.06.65c.13,4.05-1.34,4.87-1.81,7.99-1.29-.59-2.69-1.11-4.02-1.63l-2.19.75-2.06-.44c-.75-.86-1.07-1.37-2.11-1.85-.13.76-.1,1.69-.67,1.79-3.04.57-9.18.94-12.26,1.33l-3.51-.89c-5.91-6.07-16.18-5.86-23.49-8.89-2.14-.89-2.7-3.32-3.28-5.38-2.1-11.2,15.68-28.9,23.99-35.69-.58-.82-.41-.49-.63-1.49,1.11-1.46,3.26-1.75,5.57-3.23l.42-.28c1.44.51,2.2.71,3.29-.49.19-1.79-.2-2.13-1.13-3.81l2.37,1.17c.26-.17.54-.59.76-.86l-1.02-1.18c1.23.1,2.31-.41,3.55-.8l4.44-1.03Z"/>
      <path class="cls-4" d="M148.72,58.31c.92,2.11,3.06,5.97,3.25,7.69-3.8-.58-4.44-1.12-7.24,1.76l-.5-.04c-3.64,4.51-13.39,14.19-17.9,18.53-2.29,2.26-4.59,4.59-6.98,6.74l-1.3,1.81.41.32,1.49,1.54-.05,1.03c-1.69,1.04-3.28,1.26-5.21,1.72l-.69-.12-1.1,1.29-1.59,6.86c8.03,1.66,15.63,4.5,23.3,6.11,5.22,1.24,10.56,2.95,15.71,4.52-.13.76-.1,1.69-.67,1.79-3.04.57-9.18.94-12.26,1.33l-3.51-.89c-5.91-6.07-16.18-5.86-23.49-8.89-2.14-.89-2.7-3.32-3.28-5.38-2.1-11.2,15.68-28.9,23.99-35.69-.58-.82-.41-.49-.63-1.49,1.11-1.46,3.26-1.75,5.57-3.23l.42-.28c1.44.51,2.2.71,3.29-.49.19-1.79-.2-2.13-1.13-3.81l2.37,1.17c.26-.17.54-.59.76-.86l-1.02-1.18c1.23.1,2.31-.41,3.55-.8l4.44-1.03Z"/>
      <path class="cls-4" d="M148.72,58.31c.92,2.11,3.06,5.97,3.25,7.69-3.8-.58-4.44-1.12-7.24,1.76l-.5-.04c-3.64,4.51-13.39,14.19-17.9,18.53-2.29,2.26-4.59,4.59-6.98,6.74l-1.3,1.81.41.32,1.49,1.54-.05,1.03c-1.69,1.04-3.28,1.26-5.21,1.72l-.69-.12-1.1,1.29c1.93-10.08,20.42-23.14,24.44-30.14-.28-1.15-.29-1.07-1.18-1.88-1.87-.26-3.28.82-5.04,1.76-.58-.82-.41-.49-.63-1.49,1.11-1.46,3.26-1.75,5.57-3.23l.42-.28c1.44.51,2.2.71,3.29-.49.19-1.79-.2-2.13-1.13-3.81l2.37,1.17c.26-.17.54-.59.76-.86l-1.02-1.18c1.23.1,2.31-.41,3.55-.8l4.44-1.03Z"/>
      <path class="cls-2" d="M148.72,58.31c.92,2.11,3.06,5.97,3.25,7.69-3.8-.58-4.44-1.12-7.24,1.76l-.5-.04c1.63-4.93,2.23-2.33.06-8.37l4.44-1.03Z"/>
      <path class="cls-4" d="M138.63,61.02l2.37,1.17c-.17,2.64-.32,3.05-2.22,4.92-2.31,2.27.58.69-1.45,3.33-.28-1.15-.29-1.07-1.18-1.88-1.87-.26-3.28.82-5.04,1.76-.58-.82-.41-.49-.63-1.49,1.11-1.46,3.26-1.75,5.57-3.23l.42-.28c1.44.51,2.2.71,3.29-.49.19-1.79-.2-2.13-1.13-3.81Z"/>
      <path class="cls-2" d="M112.89,100.56l1.1-1.29.69.12c1.92,2.12,2.8,2.07,5.6,1.86,2.9,1.03,13.65,4.03,14.99,5.29l.26.21c1.64,1.34,2.72,1.89,4.71,2.54-.42.04-1.35-.2-1.81-.3l-.11.31c-2.76,1.3-2.18.97-3.7,4.21-7.67-1.61-15.27-4.45-23.3-6.11l1.59-6.86Z"/>
      <path class="cls-2" d="M135.27,106.55c6.73,1.58,12.07,3.36,18.59,5.7,1.91.34,7.13,1.5,8.64.99.13,4.05-1.34,4.87-1.81,7.99-1.29-.59-2.69-1.11-4.02-1.63l-2.19.75-2.06-.44c-.75-.86-1.07-1.37-2.11-1.85-5.15-1.57-10.49-3.27-15.71-4.52,1.52-3.24.94-2.91,3.7-4.21l.11-.31c.47.1,1.39.33,1.81.3-1.99-.65-3.07-1.2-4.71-2.54l-.26-.21Z"/>
      <path class="cls-6" d="M153.86,112.25c1.91.34,7.13,1.5,8.64.99.13,4.05-1.34,4.87-1.81,7.99-1.29-.59-2.69-1.11-4.02-1.63.96-.8.54-.3.91-1.84-1.08-3.61-2.69.08-3.73-5.51Z"/>
      <path class="cls-8" d="M120.28,101.26c3.56-1,22.46,5.71,27.26,6.85,3.39,1.33,10.15,4.24,13.56,3.78l.76-.5.71,1.19-.06.65c-1.51.51-6.73-.65-8.64-.99-6.52-2.34-11.86-4.12-18.59-5.7-1.34-1.27-12.09-4.27-14.99-5.29Z"/>
      <path class="cls-2" d="M147.54,108.11c3.62-4.71,10.67.51,13.56,3.78-3.4.45-10.17-2.45-13.56-3.78Z"/>
      <path class="cls-8" d="M119.34,92.97c5.06,1.45,8.15.15,12.77.74,7.29.94,25.57,4.33,29.15,11.07l.14.26-1.01,2.58c-13.83-6.85-27.06-9.46-41.94-12.53l-.41-.32,1.3-1.81Z"/>
      <path class="cls-8" d="M180.54,83.26c1.93.98,4.9,1.81,5.74,2.31l-14.89,15.41-1.16.47c-1.97-.24-3.1-.27-4.91-1.16,4.48-6.18,9.58-11.89,15.22-17.03Z"/>
      <path class="cls-5" d="M144.23,67.71l.5.04c.13,1.35.11,2.39.75,3.58-1.05,1.82-14.9,16.04-17.28,17.26-1.12-.83-1.21-1.17-1.87-2.36,4.52-4.34,14.26-14.01,17.9-18.53Z"/>
      <path class="cls-8" d="M144.73,67.75c2.81-2.88,3.44-2.34,7.24-1.76l4.65.88.09.62c-3.58,1.46-8.65,2.09-11.23,3.85-.64-1.19-.61-2.23-.75-3.58Z"/>
      <path class="cls-8" d="M180.54,83.26c2.46-2.05,2.44-2.7,5.18-3.19,1.8.73,2.2.87,4.13,1.1l.44.05-4.01,4.34c-.84-.5-3.81-1.33-5.74-2.31Z"/>
      <path class="cls-5" d="M156.04,91.08l.96,1.19c2.24-.65,4.53-4.56,4.58-6.85-.85-.57-1.3-.77-1.97-1.53,4.5-2.35,5.37-1.12,8.58,1.8l.38,1.2c-1.25.48-8.01,8.56-9.14,10.12-1.05-.67-2.79-1.63-3.48-2.58l.08-3.35Z"/>
      <path class="cls-5" d="M171.54,82.96c-.96.7-.92.65-2.08.98-3.02-.58-4.38-2.12-4.06-5.22l.96-.74c2.37.75,2.95.9,5.45.97h.58c1.88-.32,2.21-.43,3.95.28l.6,1.05c-1.38,2.88-2.35,2.44-5.4,2.69Z"/>
      <path class="cls-5" d="M172.38,78.96c1.88-.33,2.21-.45,3.95.27l.6,1.05c-1.38,2.88-2.35,2.44-5.4,2.69.93-.68,1.61-1.37,2.44-2.16l-.05-.88-1.54-.96Z"/>
      <path class="cls-5" d="M155.96,94.43c-2.6-.61-3.18-.51-3.61-3.07.95-1.32.34-.82,1.96-1.44l1.73,1.17-.08,3.35Z"/>
      <path class="cls-6" d="M175.4,200.03c-2.82.31-9.58-.57-10.95-3.33-2.65-5.35,6.85-11.27,11.49-9.53,2.01.75,2.69,2.37,3.62,4.16.4,1.4.79,2.84,1.24,4.23-1.9,1.85-3.08,3.17-5.4,4.47ZM175.41,195.57l.03-4.15-.69-2.12c-2.43-.13-7.22,3.57-9.69,5.03,3.79,2.04,6.38,4.04,10.36,1.25Z"/>
      <path class="cls-2" d="M175.43,191.41l4.13-.07c.4,1.4.79,2.84,1.24,4.23-1.9,1.85-3.08,3.17-5.4,4.47v-4.47s.04-4.15.04-4.15Z"/>
      <path class="cls-2" d="M212.56,19.03c4.35-.08,14.42,2.23,18.26,4.86,1.03.7,5.61,4.06,6.92,5.22.18-.14.36-.28.54-.42.55-.47,1.09-.75,1.73-1.09,2.21,1.53,5.73,19.53,5.96,23-2.87-2.84-5.95-17.35-11.09-21.01-6.89-5.26-8.35-4.97-16.92-7.48-2.19-.64-4.27-1.01-5.4-3.09Z"/>
      <path class="cls-2" d="M2.94,141.57c.67,2.28.7,3.08.61,5.4l.61,1.02c1.26,0,1.52-.26,2.6-.87-.09,2.7-.51,7.44.36,9.83l-.67.75c-.4,2.62.89,2.53,1.7,5.43-1.08-.34-2.14-.67-3.23-.97-8.47-2.3-3.87-15.15-1.99-20.6Z"/>
      <path class="cls-2" d="M109.62,10.89c6.31-6.43,11.96-12.21,21.79-10.62l-.47,1.71-.47,3.12c-1.6.5-2.58.74-4.23,1.06-1.44.45-2.17.74-3.66.9l-1.77,1.73c-.77-.87-1.86-1.75-2.76-2.53-3.21,2.98-4.18,4.76-8.43,4.63Z"/>
      <path class="cls-2" d="M118.04,6.26l-.03-.53c1.05-.92,5.26-2.68,6.71-2.54l.31,1.06-2.45,2.8-1.77,1.73c-.77-.87-1.86-1.75-2.76-2.53Z"/>
      <path class="cls-8" d="M125.03,4.25c2.1-.32,3.42.25,5.43.85-1.6.5-2.58.74-4.23,1.06-1.44.45-2.17.74-3.66.9l2.45-2.8Z"/>
      <path class="cls-2" d="M163.48,7.47c1.48.94,7.5,5.01,8.56,5.34-1.87.88-3.25.97-3.7,3.17-2.03-1.66-2.94-1.88-5.38-2.79-.85-1.45-.92-1.57-1.33-3.19.6-1.79.31-1.18,1.85-2.54Z"/>
      <path class="cls-2" d="M201.81,162.38c3.07,1.27.15,1.6,2.21,4.86,4.76,1.88,4.56-2.29,6.69-3.65l1.77,1.39c-1.3,2.96-3.18,5.36-6.9,4.71-1.38-.24-2.6-1.06-3.32-2.27-1.11-1.8-.83-3.05-.45-5.04Z"/>
      <path class="cls-2" d="M183.77,171.34c2.67.22,4.96.32,6.98,2.23.56,1.93.59,1.14-.05,3-2.68.21-4.91-.22-6.81-2.27-.7-1.94-.72-1.16-.11-2.96Z"/>
    </g>
  </g>
</svg>