<?xml version="1.0" encoding="UTF-8"?>
<svg id="Capa_2" data-name="Capa 2" xmlns="http://www.w3.org/2000/svg" xmlns:xlink="http://www.w3.org/1999/xlink" viewBox="0 0 263.09 230.69">
  <defs>
    <style>
      .cls-1 {
        fill: url(#Degradado_sin_nombre_5);
      }

      .cls-2 {
        fill: #353a59;
      }

      .cls-3 {
        fill: #fdf9ef;
      }

      .cls-4 {
        fill: #2b2d43;
      }

      .cls-5 {
        fill: #e87782;
      }

      .cls-6 {
        fill: #d9042a;
      }

      .cls-7 {
        fill: #fff;
        font-family: PlusJakartaSans-SemiBold, 'Plus Jakarta Sans';
        font-size: 36px;
        font-weight: 600;
      }

      .cls-8 {
        fill: url(#Degradado_sin_nombre_23);
      }

      .cls-9 {
        fill: #31375d;
      }

      .cls-10 {
        fill: #f9f2eb;
      }
    </style>
    <linearGradient id="Degradado_sin_nombre_5" data-name="Degradado sin nombre 5" x1="1791.63" y1="-1079.29" x2="1842.37" y2="-1101.81" gradientTransform="translate(-1133.28 -600.2) scale(.62 -.62)" gradientUnits="userSpaceOnUse">
      <stop offset="0" stop-color="#2b2d43"/>
      <stop offset="1" stop-color="#353a59"/>
    </linearGradient>
    <linearGradient id="Degradado_sin_nombre_23" data-name="Degradado sin nombre 23" x1="2085.13" y1="-1245.18" x2="2091.21" y2="-1237.89" gradientTransform="translate(-1133.28 -600.2) scale(.62 -.62)" gradientUnits="userSpaceOnUse">
      <stop offset="0" stop-color="#d9042a"/>
      <stop offset="1" stop-color="#353a59"/>
    </linearGradient>
  </defs>
  <g id="ICONS">
    <g>
      <g>
        <g>
          <path class="cls-4" d="M134.15,84.49c5.13,2.63,3.59,4.78,7.85,9.12.04,2.75.2,6.49-.02,9.16.47.71,1.26,1.8,1.49,2.55,6.65,11.39,11.35,21.04,21.36,30.89l1.68,1.91c2.75,2.57,20.79,20.27,22.22,22.44,6.76,6.93,13.2,17.47,8.37,27.32-.32.95-.53,1.8-1.11,2.61-4.77,6.61-14.82,12.54-22.9,13.78-4.34,1.35-8.71,1.86-13.21,2.55-12.66,2.47-23.07.95-35.36.1-.97-.2-1.93-.39-2.9-.57-3.03-.07-7.09-.75-10.12-1.26-3.45.73-2.77,2.45-6.41,4.81-4.1,2.66-8.04,4.78-12.85,5.86-1.86.58-4.27.85-6.26,1.13-6.89,1.44-14.98,3.09-22.06,3.01l-1.22-.03-5.07.04-4.5.07-2.56-.04c-3.46-.11-8.15-.71-11.69-1.07-16.46-2.57-40.52-6.82-38.75-28.49l-.12-4.57c1.19-10.44,10.36-18.54,17.03-25.79,2.45-2.66,4.66-5.48,7.09-8.17,1.7-2.57,6.49-7.28,7.94-9.81,3.36-5.88,6.79-13.13,9.77-19.26.91-3.46,1.46-7.19,4.02-9.62l2.31-.85.93-2.31.74-1.6,2.22-3.42,4.52-.21c1.87,1.26,2.28,1.62,3.83,3.26l1.68,2.82c1.14,1.85,1.26,2.97,1.59,5.11,3.53,5.89,2.99,11.71,7.02,19.51l2.85,4.3c4.35,6.53,7.8,11.74,13.23,17.41,1.48-1.96,3.24-4.43,4.77-6.29,1.51-2.06,4.77-5.05,6.7-6.87,12.16-12.1,14.84-15.84,22.38-30.9,1.82-3.53,7.73-22.37,8.5-26.34,1.68-1.62,2.89-1.86,5.03-2.32Z"/>
          <path class="cls-10" d="M52.06,105.01l4.52-.21c1.87,1.26,2.28,1.62,3.83,3.26l1.68,2.82c1.14,1.85,1.26,2.97,1.59,5.11,3.53,5.89,2.99,11.71,7.02,19.51l2.85,4.3c4.35,6.53,7.8,11.74,13.23,17.41,1.48-1.96,3.24-4.43,4.77-6.29.07,1.35-.06,3.4.75,4.32l.67.15c-1.24,1.32-2.71,2.69-3.38,4.34,1.11,1.11,1.7,1.96,3.21,2.23l.45,1.41-.07.53.08.1c-.28,1.5-.68,3.31-.73,4.81,4.42,4.75,5.23,5.58,8.75,11.4.31,0,.7.04.97-.03,2.13,1.69,2.42,5.74,2.66,8.37.37,4.09.79,5.77,1.92,9.66-.87,4.4-.32,2.27.49,5.71-1.71.35-3.48.74-5.2,1.02-2.42,1.45-4.6,2.76-7.12,4.04-1.9.61-4.82,1.46-6.59,2.26,1.54,1.95,1.87,2.05,4.24,2.78l.4.79c-.78.42-.51.11-.8.97-1.86.58-4.27.85-6.26,1.13-6.89,1.44-14.98,3.09-22.06,3.01l-1.22-.03-5.07.04-4.5.07-2.56-.04c-3.46-.11-8.15-.71-11.69-1.07-16.46-2.57-40.52-6.82-38.75-28.49l-.12-4.57c1.19-10.44,10.36-18.54,17.03-25.79,2.45-2.66,4.66-5.48,7.09-8.17,1.7-2.57,6.49-7.28,7.94-9.81,3.36-5.88,6.79-13.13,9.77-19.26.91-3.46,1.46-7.19,4.02-9.62l2.31-.85.93-2.31.74-1.6,2.22-3.42Z"/>
          <path class="cls-4" d="M41.83,122.8c.91-3.46,1.46-7.19,4.02-9.62,1.81,1.06,1.95,1.4,2.91,3.18l-1.31,1.94c-3.92,14.54-8.25,17.25-14.79,29.38-.87.99-2.15,3.32-2.96,4.56-5.31,4.78-18.61,23.86-21.58,30.36l-1.2-.12c-.48,1.29-.95,2.11-.7,3.44-.07.99,0,1.62-.4,2.47-1.83-.35-1.32-.52-2.8.1-1.87-.17-2.15-1.25-3.02-2.66,1.19-10.44,10.36-18.54,17.03-25.79,2.45-2.66,4.66-5.48,7.09-8.17,1.7-2.57,6.49-7.28,7.94-9.81,3.36-5.88,6.79-13.13,9.77-19.26Z"/>
          <path class="cls-6" d="M24.12,151.87c-.02,2.95-4.48,7.98-6.29,10.7-4.5,6.71-8.42,12.1-10.9,19.91-.48,1.29-.95,2.11-.7,3.44-.07.99,0,1.62-.4,2.47-1.83-.35-1.32-.52-2.8.1-1.87-.17-2.15-1.25-3.02-2.66,1.19-10.44,10.36-18.54,17.03-25.79,2.45-2.66,4.66-5.48,7.09-8.17Z"/>
          <path class="cls-6" d="M41.83,122.8c.91-3.46,1.46-7.19,4.02-9.62,1.81,1.06,1.95,1.4,2.91,3.18l-1.31,1.94c-4.66-.11-1.9,2.4-5.62,4.5Z"/>
          <path class="cls-6" d="M97.34,200.32c.19.27.78.79,1.04,1.05,1.88-.39,1.46-1.35,3.12-2.48l.68.97c1.02-.26,2.04-.53,3.06-.81l1.58-.86c-.87,4.4-.32,2.27.49,5.71-1.71.35-3.48.74-5.2,1.02-2.42,1.45-4.6,2.76-7.12,4.04-1.9.61-4.82,1.46-6.59,2.26,1.54,1.95,1.87,2.05,4.24,2.78l.4.79c-.78.42-.51.11-.8.97-1.86.58-4.27.85-6.26,1.13-6.89,1.44-14.98,3.09-22.06,3.01l-1.22-.03-5.07.04-4.5.07-2.56-.04,1.14-2.15.18-.83c-.51-1.02-1.41-1.15-2.67-1.73-.79-.1-.43.02-1.04-.46,1.55-.27,3.11-.53,4.67-.76l2.82-.07c9-2.76,22.38-3.37,31.52-6.43.98-.33,4.67-3.48,6.6-4.47l3.24-1.69.32-1.03Z"/>
          <path class="cls-4" d="M81.67,212.29c1.95.2,4.99-.16,6.73-1.06,1.54,1.95,1.87,2.05,4.24,2.78l.4.79c-.78.42-.51.11-.8.97-1.86.58-4.27.85-6.26,1.13-6.89,1.44-14.98,3.09-22.06,3.01l-1.22-.03-5.07.04-4.5.07-2.56-.04,1.14-2.15.18-.83c-.51-1.02-1.41-1.15-2.67-1.73,2.94.15,7.77.57,10.54.2,2.02-.14,6.87-.16,8.24-1.04,4.21-.48,9.83-.77,13.67-2.11Z"/>
          <path class="cls-2" d="M49.22,215.24c2.94.15,7.77.57,10.54.2,1.66.12,5.41.31,6.96.59-1.68.43-1.99.37-3.05,1.62-.15,1.14-.26,1.21.26,2.27l-1.22-.03-5.07.04-4.5.07-2.56-.04,1.14-2.15.18-.83c-.51-1.02-1.41-1.15-2.67-1.73Z"/>
          <path class="cls-2" d="M53.93,217.6c.94.09,3.68.67,4.3.54l-.61,1.79-4.5.07.81-2.4Z"/>
          <path class="cls-6" d="M58.23,218.14c2-.56,1.26-.63,2.95-.04l1.51,1.79-5.07.04.61-1.79Z"/>
          <path class="cls-2" d="M51.7,217.81l1.54-.75.69.54-.81,2.4-2.56-.04,1.14-2.15Z"/>
          <path class="cls-6" d="M66.72,216.03c3.7.31,17.39-.32,19.27.88-6.89,1.44-14.98,3.09-22.06,3.01-.51-1.06-.4-1.13-.26-2.27,1.06-1.24,1.38-1.19,3.05-1.62Z"/>
          <path class="cls-4" d="M55.66,213.95c3.07.1,9.55.11,12.33.45-1.37.88-6.22.9-8.24,1.04-2.77.36-7.6-.05-10.54-.2-.79-.1-.43.02-1.04-.46,1.55-.27,3.11-.53,4.67-.76l2.82-.07Z"/>
          <path class="cls-2" d="M81.67,212.29c2.88-3.24,9.27-4.35,13.32-3.32-1.9.61-4.82,1.46-6.59,2.26-1.73.89-4.77,1.25-6.73,1.06Z"/>
          <path class="cls-4" d="M105.24,199.05l1.58-.86c-.87,4.4-.32,2.27.49,5.71-1.71.35-3.48.74-5.2,1.02,1.84-2.38,2.07-3.02,3.13-5.87Z"/>
          <path class="cls-6" d="M0,185.83c.87,1.4,1.15,2.49,3.02,2.66,1.48-.62.97-.45,2.8-.1.12,5.21.69,11.52,5.44,14.77,3.42,2.72,6.03,4.95,10.17,6.56.98,1.85,1.45,1.93,1.14,3.64,3.56,1.15,4.79,2.2,6.69-1.35,4.61.95,7.04,1.37,11.67,1.81-.69,2.14-1.06,3.04-2.06,5.06-16.46-2.57-40.52-6.82-38.75-28.49l-.12-4.57Z"/>
          <path class="cls-2" d="M0,185.83c.87,1.4,1.15,2.49,3.02,2.66,1.48-.62.97-.45,2.8-.1.12,5.21.69,11.52,5.44,14.77l-2.43.99c-2.91-1.79-4.83-6.7-6.08-9.76-1.34-2.89-.37-2.35-2.63-3.99l-.12-4.57Z"/>
          <path class="cls-2" d="M0,185.83c.87,1.4,1.15,2.49,3.02,2.66-.1,1.77-.04,2.02.48,3.72l-.75,2.19c-1.34-2.89-.37-2.35-2.63-3.99l-.12-4.57Z"/>
          <path class="cls-4" d="M11.26,203.16c3.42,2.72,6.03,4.95,10.17,6.56.98,1.85,1.45,1.93,1.14,3.64-5.48-2.07-9.49-5.31-13.74-9.21l2.43-.99Z"/>
          <path class="cls-2" d="M73.55,139.79c4.35,6.53,7.8,11.74,13.23,17.41,1.48-1.96,3.24-4.43,4.77-6.29.07,1.35-.06,3.4.75,4.32l.67.15c-1.24,1.32-2.71,2.69-3.38,4.34-.65.87-2.17,3.03-2.92,3.61-3.68-3.27-9.11-9.47-11.89-13.48l-.96-2.18c.12-5.37-3.01-2.61-.26-7.88Z"/>
          <path class="cls-10" d="M70.71,135.5l2.85,4.3c-2.74,5.27.39,2.52.26,7.88l.96,2.18-.58,2.21-.81,3.97c-.21.07-.99.11-1.24.14-1.15-.64-1.16-.69-1.73-1.93l-.15,1.24c-1.66-2.3-4.72-7.43-4.88-10.18l.81-1.99c.84-1.17,1.16-2.33,1.65-3.69l-1.2-1.6c2.65,0,2.54-.56,4.05-2.53Z"/>
          <path class="cls-6" d="M70.71,135.5l2.85,4.3c-2.74,5.27.39,2.52.26,7.88-2.02-2.35-4.11-6.84-5.96-8.05l-1.2-1.6c2.65,0,2.54-.56,4.05-2.53Z"/>
          <path class="cls-2" d="M70.43,154.24c.1-.35.21-.69.33-1.04.45-1.35.97-3.1,2.25-3.74,1.1.94.77.86,1.19,2.61l-.81,3.97c-.21.07-.99.11-1.24.14-1.15-.64-1.16-.69-1.73-1.93Z"/>
          <path class="cls-6" d="M63.69,115.99c3.53,5.89,2.99,11.71,7.02,19.51-1.51,1.97-1.4,2.54-4.05,2.53-.04-.22-.57-.73-.76-.95l.09-.31c-2.23-1.86-2.75-5.62-3.45-8.49-1.22,1.18-.88.81-2.94,1.1l-.75-4.3c.47-1.3.62-1.07,1.94-2.08l1.44-1.43,1.24-1.19c.48-1.43.26-1.69-.21-3.22l.42-1.17Z"/>
          <path class="cls-10" d="M62.23,121.57c.78,2.51,4.17,13.41,3.76,15.2-2.23-1.86-2.75-5.62-3.45-8.49-1.22,1.18-.88.81-2.94,1.1l-.75-4.3c.47-1.3.62-1.07,1.94-2.08l1.44-1.43Z"/>
          <path class="cls-6" d="M60.79,122.99c.56,1.69,1.25,3.61,1.75,5.29-1.22,1.18-.88.81-2.94,1.1l-.75-4.3c.47-1.3.62-1.07,1.94-2.08Z"/>
          <path class="cls-2" d="M60.57,116.69c1.1.29,1.54.46,2.7.46.47,1.53.69,1.8.21,3.22l-1.24,1.19-1.44,1.43c-1.32,1.01-1.48.79-1.94,2.08-2.06,3.34-8.96,10.1-12.69,11.16l-.45-.44c.53-3.28,7.83-8.34,10.03-11.25,1.84-2.43,2.87-5.69,4.84-7.85Z"/>
          <path class="cls-6" d="M40.93,213.83c3.97.09,7.94.15,11.92.19-1.56.24-3.12.49-4.67.76.61.48.25.36,1.04.46,1.26.59,2.16.71,2.67,1.73l-.18.83-1.14,2.15c-3.46-.11-8.15-.71-11.69-1.07,1-2.02,1.37-2.92,2.06-5.06Z"/>
          <path class="cls-6" d="M62.54,128.28c.7,2.87,1.22,6.63,3.45,8.49l-.09.31c.19.22.72.73.76.95l1.2,1.6c-.5,1.36-.81,2.52-1.65,3.69l-.81,1.99c-1.91-5.11-4.53-10.77-5.8-15.93,2.06-.29,1.71.08,2.94-1.1Z"/>
          <path class="cls-2" d="M65.9,137.07c.19.22.72.73.76.95l1.2,1.6c-.5,1.36-.81,2.52-1.65,3.69-1.56-2.25-.92-3.75-.31-6.24Z"/>
          <path class="cls-2" d="M52.06,105.01l4.52-.21c1.87,1.26,2.28,1.62,3.83,3.26-.91.5-2.66,1.38-3.36,2.01l-.49-.2-1.39-1.69-3.26,4.63c-1.22-1.3-1.98-1.42-2.81-2.79l.74-1.6,2.22-3.42Z"/>
          <path class="cls-2" d="M52.06,105.01l4.52-.21c1.87,1.26,2.28,1.62,3.83,3.26-.91.5-2.66,1.38-3.36,2.01l-.49-.2-1.39-1.69c.59-.19.32-.08.81-.7-.56-1.7-2.3-2.34-3.92-2.48Z"/>
          <path class="cls-6" d="M70.28,155.48l.15-1.24c.56,1.24.58,1.29,1.73,1.93.25-.02,1.03-.07,1.24-.14-1.16,3.67-4.18,8.92-7.36,11.17l-.81-.35.42.47c-.98-2.88,3.35-8.51,4.65-11.85Z"/>
          <path class="cls-2" d="M32.67,147.68c2.58-1.22,7.36-6.36,9.53-6.2-.95,3.83-8.7,9.62-12.49,10.76.8-1.24,2.09-3.57,2.96-4.56Z"/>
          <path class="cls-6" d="M60.41,108.06l1.68,2.82c1.14,1.85,1.26,2.97,1.59,5.11l-.42,1.17c-1.16,0-1.6-.18-2.7-.46-.12-1.56-.99-2.45-1.91-3.77l-.62.12c.45-1.64-.07-1.76-.99-2.98.7-.64,2.45-1.52,3.36-2.01Z"/>
          <path class="cls-6" d="M60.41,108.06l1.68,2.82c-1.87,2.32-1.35.66-3.43,2.05l-.62.12c.45-1.64-.07-1.76-.99-2.98.7-.64,2.45-1.52,3.36-2.01Z"/>
          <path class="cls-6" d="M89.59,159.73c1.11,1.11,1.7,1.96,3.21,2.23l.45,1.41-.07.53.08.1c-.28,1.5-.68,3.31-.73,4.81l-5.85-5.46c.75-.58,2.27-2.74,2.92-3.61Z"/>
          <path class="cls-6" d="M97.34,200.32c1.4-2.6,2.11-6.14,3.46-7.57l.72.23c1.32,2.64.88,3.26-.02,5.91-1.66,1.13-1.24,2.09-3.12,2.48-.26-.26-.85-.78-1.04-1.05Z"/>
          <path class="cls-2" d="M56.56,109.87l.49.2c.92,1.22,1.43,1.34.99,2.98-2.72,1.44-1.97,2.6-5.89,3.42l-.26-.61c1.6-2.59,2.62-3.69,4.68-5.99Z"/>
          <path class="cls-2" d="M21.43,209.72c2.35.73,5.5,1.81,7.83,2.29-1.9,3.55-3.13,2.5-6.69,1.35.31-1.71-.17-1.79-1.14-3.64Z"/>
          <path class="cls-6" d="M49.1,110.03c.83,1.37,1.59,1.49,2.81,2.79l-3.15,3.54c-.96-1.78-1.1-2.12-2.91-3.18l2.31-.85.93-2.31Z"/>
          <path class="cls-2" d="M6.93,182.47l1.2.12c-.51,1.01-1.17,2.53-1.9,3.32-.24-1.34.23-2.15.7-3.44Z"/>
          <path class="cls-2" d="M53.84,145.59l2.23-2.37c-2.15,8.73-7.93,15.09-16.62,17.76-8.89,6.28-27.77,21.06-23.6,33.91.61,1.87,3.1,6.27,2.95,7.64l-.82.02c-4.9-3-6.72-9.16-5.99-14.69,1.56-11.84,12.43-19.03,20.7-26.32,2.12-1.86,4.27-3.56,6.48-5.23,3.8-3.39,7.34-7.11,10.89-10.75,1.54-.27,2.37-.59,3.77.03Z"/>
          <path class="cls-10" d="M53.84,145.59l2.23-2.37c-2.15,8.73-7.93,15.09-16.62,17.76,2.46-3.08,5.33-4.98,8.07-7.9,2.22-2.48,4.2-4.91,6.31-7.48Z"/>
          <path class="cls-2" d="M50.07,145.55c1.54-.27,2.37-.59,3.77.03-2.11,2.57-4.09,5-6.31,7.48-4.15-2.35-4.15,1.97-7.9,3.48l-.46-.25c3.8-3.39,7.34-7.11,10.89-10.75Z"/>
          <path class="cls-2" d="M55.86,194.78c2.43-5.93,6.48-10.1,9.99-15.38,2-3,2.14-7.5,5.45-9.28l1.06.11c3.31,5.98-9.9,20.65-12.97,26.8-2.2-.94-2.26-.58-3.53-2.26Z"/>
          <path class="cls-2" d="M29.44,186.43c1.62,1.63,1.69,1.97,2.31,4.12-1.68,5.91-1.1,9.18,1.55,14.87.93,1.72,2,3.41,2.45,5.28-2.15-1.6-3.63-2.68-5.55-4.53-5.5-6.49-4.52-12.79-.77-19.74Z"/>
          <path class="cls-6" d="M33.3,205.43c.93,1.72,2,3.41,2.45,5.28-2.15-1.6-3.63-2.68-5.55-4.53,1.7-.1,1.93.17,3.1-.75Z"/>
          <path class="cls-6" d="M29.44,186.43c2.04-2.91,10.55-13.49,14-13.53,1.16,3.15-9.72,13.63-11.69,17.65-.62-2.15-.7-2.49-2.31-4.12Z"/>
          <path class="cls-6" d="M87.16,185.49c4.95.77,3.56,9.68,2.97,12.97-1.44,1.61-3.23,2.9-4.94,4.23-1.3-.25-1.27-.19-2.28-1.03.08-2.23,3.86-5.11,4.56-7.53.81-2.79-.97-5.58-.31-8.65Z"/>
          <path class="cls-6" d="M59.39,197.03c-1.13,2.49-1.57,9.35-3.85,9.89-2.63-3.06-1.11-8.85.32-12.15,1.26,1.68,1.32,1.31,3.53,2.26Z"/>
          <path class="cls-6" d="M59.94,152.67l1.13,1.18c.83-.06.73.02,1.48-.25-2.25,4.4-3.51,6.18-6.92,9.83l-1.44-2.2c1.98-2.54,3.97-5.81,5.75-8.56Z"/>
          <path class="cls-6" d="M54.26,140.28l.32-.42c1.9-2.54,2.69-5.3,4.52-6.99l.72-.06c.7,1.97.24,2.61-.7,4.62l-1.98,4.11c-1.17-.58-1.21-.14-2.88-1.26Z"/>
          <path class="cls-6" d="M54.26,140.28c1.67,1.12,1.71.68,2.88,1.26l-1.06,1.68-2.23,2.37c-1.4-.62-2.23-.3-3.77-.03l4.19-5.28Z"/>
          <path class="cls-2" d="M85.5,164.08c3.17,2.11,2.27,4.13,1.49,7.5-1.17-.16-.59.03-1.65-.92-1-2.32-.55-4.27.15-6.57Z"/>
          <path class="cls-6" d="M59.94,152.67c1-1.64,1.74-3.3,3.37-4.14l.83.17c.43,1.55-.24,2.58-1.04,3.98-.18.31-.36.62-.54.93-.75.27-.65.19-1.48.25l-1.13-1.18Z"/>
          <path class="cls-2" d="M72.84,193.21c.85.15.58.1,1.36.56.43,2.28-.52,3.56-1.93,5.27-.47-.19-1.08-.54-1.55-.79l-.29-1.14c.42-1.66,1.33-2.56,2.41-3.91Z"/>
          <path class="cls-6" d="M54.19,161.23l1.44,2.2c-1.33,1.38-2.44,2.84-4.22,3.22l-.45-.55c.37-1.9,1.92-3.32,3.23-4.87Z"/>
          <path class="cls-6" d="M54.54,177.73c1.51.88,1.22.44,1.97,1.8-.21,1.32-1.12,1.96-2.11,2.96-1.44-.58-.91-.11-1.68-1.39.2-1.59.81-2.1,1.82-3.37Z"/>
          <path class="cls-6" d="M44.89,190.1c.82.03,1.49.69,1.53,1.51.04.82-.55,1.55-1.36,1.67-.6.09-1.2-.17-1.55-.67-.34-.5-.38-1.15-.09-1.68.29-.53.86-.85,1.47-.83Z"/>
          <path class="cls-1" d="M134.15,84.49c5.13,2.63,3.59,4.78,7.85,9.12.04,2.75.2,6.49-.02,9.16.47.71,1.26,1.8,1.49,2.55-.12,2.91,1.25,4.27,1.18,5.9l-.78.56c.5,1.27.59.76.24,1.7l-.64.04-1.09-1.14c-1.68,2.61-3.78,5.76-4.02,8.93l.13.37c2.1,5.7,6.49,11.24,6.14,17.46-.69,2.28-1.4,3.57-2.25,5.74-.51,1.34-.54,2.77-.89,4.01l.07.71c.32,6.33-1.84,17.01-4.71,22.74-.44.88-2.51,3.4-3.25,4.35l-1.82.03c-2.56,2.89-3.89,4.66-5.51,8.15l-1.43.03c-1.59.34-1.79-.24-2.99-1.15-2.52-1.39-4.73-2.56-7.34-3.8l-1.65-1.13-.65.18c-.48.94-.69,1.47-1.05,2.47-1.51-1.54-.84-2.26-.39-4.17l-1.55-1.51c-1.22,1.3-.85.78-.84,3.13-1.75-4.3-6.87-8.61-10.55-12.04-.31-.38-.63-.75-.96-1.12-1.48-1.67-1.73-1.64-3.62-1.76l-.08-.1.07-.53-.45-1.41c-1.51-.26-2.09-1.12-3.21-2.23.68-1.65,2.15-3.02,3.38-4.34l-.67-.15c-.81-.92-.69-2.97-.75-4.32,1.51-2.06,4.77-5.05,6.7-6.87,12.16-12.1,14.84-15.84,22.38-30.9,1.82-3.53,7.73-22.37,8.5-26.34,1.68-1.62,2.89-1.86,5.03-2.32Z"/>
          <path class="cls-4" d="M134.15,84.49c5.13,2.63,3.59,4.78,7.85,9.12.04,2.75.2,6.49-.02,9.16.47.71,1.26,1.8,1.49,2.55-.12,2.91,1.25,4.27,1.18,5.9l-.78.56c.5,1.27.59.76.24,1.7l-.64.04-1.09-1.14c-1.68,2.61-3.78,5.76-4.02,8.93-1.12-3.11-2.26-7.24-3.34-10.51l-.56-2.34-.94-.35c-.5-1.29-1.36-2.82-2.67-3.25-.74.92-1.16,1.43-2,2.25-.89-.49-.54-.13-.91-1.27,2.26-1.19,2.47-4.75,2.97-7.13l.1-2.95-.62.2c-1.13-1.14.68-4.86-1.27-9.15,1.68-1.62,2.89-1.86,5.03-2.32Z"/>
          <path class="cls-2" d="M134.15,84.49c5.13,2.63,3.59,4.78,7.85,9.12.04,2.75.2,6.49-.02,9.16-1.81-1.81-.85-3.84-2.55-6.51-1.1-.38-1.3-.44-2.28-1.05-.48-1.77-.56-2.14-1.52-3.68l-1.06,4.82c-.91-.09-1.98-.72-2.83-1.14l-.71.57-.62.2c-1.13-1.14.68-4.86-1.27-9.15,1.68-1.62,2.89-1.86,5.03-2.32Z"/>
          <path class="cls-6" d="M129.13,86.81c1.68-1.62,2.89-1.86,5.03-2.32-.51,1.7-.96,2.68-.7,4.42l.48.25,1.45-1.67.65.11c.26,1.52-.58,2.52-.41,3.92l-1.06,4.82c-.91-.09-1.98-.72-2.83-1.14l-.71.57-.62.2c-1.13-1.14.68-4.86-1.27-9.15Z"/>
          <path class="cls-4" d="M127.95,105.84c2.26-1.19,2.47-4.75,2.97-7.13.88,1,1.73,1.95,2.57,2.98.31,2.1.78,4.71.98,6.77l-.94-.35c-.5-1.29-1.36-2.82-2.67-3.25-.74.92-1.16,1.43-2,2.25-.89-.49-.54-.13-.91-1.27Z"/>
          <path class="cls-4" d="M131.02,95.76l.71-.57c.86.42,1.93,1.05,2.83,1.14-.83,2.26-.84,2.95-1.07,5.36-.84-1.03-1.7-1.99-2.57-2.98l.1-2.95Z"/>
          <path class="cls-2" d="M98.25,144.05c2.03.09,2.69-1.06,4.29-.67,1.17.29-.71.55,1.27,1.16,1.61-1.14,3.34-3.71,4.59-5.38.03.53.07,1.19.12,1.99-2.77,3.46-5.1,7.35-7.83,10.83-.4.51-1.32,1.11-1.7,1.33-.32,1.96-.35,3.52-1.71,4.97l-1.19.3c-.94,2.45-.91,3.36-2.86,4.76l-.45-1.41c-1.51-.26-2.09-1.12-3.21-2.23.68-1.65,2.15-3.02,3.38-4.34l-.67-.15c-.81-.92-.69-2.97-.75-4.32,1.51-2.06,4.77-5.05,6.7-6.87Z"/>
          <path class="cls-2" d="M94.53,154.44c.84.45,1.86,1.3,2.65,1.92-.04-1.54.6-2.24,1.82-3.03-.32,1.96-.35,3.52-1.71,4.97l-1.19.3c-.94,2.45-.91,3.36-2.86,4.76l-.45-1.41c-1.51-.26-2.09-1.12-3.21-2.23.68-1.65,2.15-3.02,3.38-4.34.68-.25.96-.53,1.55-.95Z"/>
          <path class="cls-10" d="M89.59,159.73c.68-1.65,2.15-3.02,3.38-4.34-.1,1.97-.26,4.63-.18,6.56-1.51-.26-2.09-1.12-3.21-2.23Z"/>
          <path class="cls-6" d="M94.53,154.44c.13-.75.48-1.45.98-2.02.83-.95,4.46-4.45,5.77-4.55-.92,3.57-1.97,1.11-2.27,5.45-1.22.79-1.86,1.49-1.82,3.03-.79-.62-1.81-1.47-2.65-1.92Z"/>
          <path class="cls-6" d="M120.63,113.15l.28,2.83c-.86,2.07-2.42,5.29-1.79,7.4.75-.35.5-.07.91-.71.39,1.33.37,2.06-.62,3.53-2.45,3.62-6.38,10.75-10.36,12.52-.53.24-.27.07-.65.46-1.25,1.67-2.98,4.23-4.59,5.38-1.98-.61-.1-.88-1.27-1.16-1.6-.39-2.26.75-4.29.67,12.16-12.1,14.84-15.84,22.38-30.9Z"/>
          <path class="cls-4" d="M129.13,86.81c1.95,4.29.14,8.01,1.27,9.15l.62-.2-.1,2.95c-.5,2.38-.71,5.94-2.97,7.13l-.39-1.79c-.08.79-.3,2.39-.3,3.1-2.34,3.41-.71,2.95-1.57,4.52-1.13,2.54-1.81,4.18-2.64,6.81-1.06,1.4-2.07,2.7-3.03,4.18-.4.64-.15.36-.91.71-.63-2.11.93-5.33,1.79-7.4l-.28-2.83c1.82-3.53,7.73-22.37,8.5-26.34Z"/>
          <path class="cls-2" d="M129.13,86.81c1.95,4.29.14,8.01,1.27,9.15l.62-.2-.1,2.95c-.5,2.38-.71,5.94-2.97,7.13l-.39-1.79c.94-2.15,2.22-4.5,2.13-6.79l-.51-.95c-2.85,1.74-5.45,14.77-8.28,19.67l-.28-2.83c1.82-3.53,7.73-22.37,8.5-26.34Z"/>
          <path class="cls-4" d="M93.24,163.36c1.96-1.4,1.92-2.31,2.86-4.76l1.19-.3c-1.18,2.64.54,6.06,2.57,7.91l1.19.32c1.09-.86,1.08-1.22,1.29-2.88l.67,2.56c.39,1.45,2.55,4.71,3.43,6.27l.56.59,2.23,2.73c-1.22,1.3-.85.78-.84,3.13-1.75-4.3-6.87-8.61-10.55-12.04-.31-.38-.63-.75-.96-1.12-1.48-1.67-1.73-1.64-3.62-1.76l-.08-.1.07-.53Z"/>
          <path class="cls-4" d="M135.03,110.8c1.08,3.28,2.22,7.4,3.34,10.51l.13.37c2.1,5.7,6.49,11.24,6.14,17.46-.77-.19-1.22-.52-1.91-.92-1.1-1.41-1.08-2.4-1.38-4.17.24-1.65.22-1.87-.12-3.51l-.32-.45c-1.07-2.98-1.43-3.4-3.62-5.72-.44-2.35-2.65-11.92-2.26-13.58Z"/>
          <path class="cls-2" d="M119.07,171.46c.71-1.38.93-1.88,1.38-3.37l.74-.4c.87.29,1.62.54,2.51.78,1.88,2.59-6.08,12.95-9.82,6.22.07-.93.18-1.01-.07-1.88l.56-.2c.29,1,.34,1.33.21,2.36l.89.35c.44-1.68.54-2.05,1.38-3.56,1.26-.76.65-.65,2.22-.31Z"/>
          <path class="cls-4" d="M115.47,175.32c.44-1.68.54-2.05,1.38-3.56,1.26-.76.65-.65,2.22-.31,1.06,2.09,1.21,1.58.88,3.53-1.52,1.4-2.61,1.03-4.47.33Z"/>
          <path class="cls-4" d="M141.57,149.61c.32,6.33-1.84,17.01-4.71,22.74-.44.88-2.51,3.4-3.25,4.35l-1.82.03.23-.81,1.05-.43c.55-1.4,1.71-3.93,1.25-5.34-.13.95.34,2.35.61,3.34l.62-.26c1.5-1.7,3.81-10.58,3.77-12.49-1.24-.74-1.48-.78-2.26-1.94-.1-2.42.53-2.6,2.01-4.94l.36.83-1.3,2.31.32.64c3.32-2.56.93-3.36,3.12-8.02Z"/>
          <path class="cls-2" d="M107,173.07c1.81.86,8.73,7.72,11.99,8.4,1.84.39,3.15-1.43,5.22-.84l-.26.64-.86.31c-.34.77-.62,1.64-1.23,2.18-2.52-1.39-4.73-2.56-7.34-3.8l-1.65-1.13-.65.18c-.48.94-.69,1.47-1.05,2.47-1.51-1.54-.84-2.26-.39-4.17l-1.55-1.51-2.23-2.73Z"/>
          <path class="cls-2" d="M127.26,107.15c.35.49.71.87.87,1.42l.73.51.03.27.75.64-.31-.93,1.09-.69,1.01.31c.49,1.57.2,1.63-.18,3.36l-.65.21-1.57-.97-.56.46c.02,1.23.43,2.62-.99,3.15.02-1.62-.72-2.03-1.79-3.23.86-1.57-.77-1.1,1.57-4.52Z"/>
          <path class="cls-2" d="M125.69,111.67c1.07,1.21,1.82,1.61,1.79,3.23-1.58,2-1.43,4.37-2.77,5.4-1.06-.53-1.1-.79-1.66-1.83.83-2.63,1.51-4.27,2.64-6.81Z"/>
          <path class="cls-4" d="M141.35,134.05c.3,1.77.28,2.76,1.38,4.17.69.4,1.14.73,1.91.92-.69,2.28-1.4,3.57-2.25,5.74-.51,1.34-.54,2.77-.89,4.01-.32-2.6.45-7.48.07-10.46-.26-2.09-.99-2.32-.22-4.39Z"/>
          <path class="cls-4" d="M106.26,169.38c.5-1.74.12-1.17,1.37-2.28,1.7.04,1.05-.11,2.57.98.29.59.58,1.1.77,1.73-1.29,1.84-.67,1.43-2.41,2.21l-1.53-1.37-.77-1.27Z"/>
          <path class="cls-2" d="M102.34,163.66l.36-.55c2.94,1.61,2.39,4.02,3.56,6.27l.77,1.27-.59,1.84c-.88-1.55-3.04-4.82-3.43-6.27l-.67-2.56Z"/>
          <path class="cls-2" d="M141.23,130.55c-.19,1.6-.26,1.81-1.28,2.7l-1.11-.25c-1.36-1.26-2.14-1.96-1.36-3.73,1.57-.32,1.75.1,3.43.83l.32.45Z"/>
          <path class="cls-2" d="M110.97,169.81l.89-.26c.96.99,1.89,1.84,2.51,3.07l-.56.2-.7-.59c-1.62,0-2.78.01-4.42.17l-.13-.37c1.74-.78,1.12-.38,2.41-2.21Z"/>
          <path class="cls-2" d="M121.86,183.76c.61-.54.89-1.41,1.23-2.18l.86-.31c.22,1.35.3,2.42.91,3.64-1.59.34-1.79-.24-2.99-1.15Z"/>
          <path class="cls-2" d="M127.3,136.38c-.63.69-1.24,1.39-1.84,2.1l-.62-.22-.34-1.56c-.92.62-.53.21-1,1.45l1.08.93c-1.02.88-1.23.95-1.66,2.17l.69,1.08-.19.6-.75-.44-.59.39c.5,1.33.77,1.37.59,2.57h-.64c-3.15-8.06-1.67-3.24,1.99-10l-.95-1.34.23-.59c5.45.76,5.4-2.59,8.05-1.84.64,1.42.42,3.2.38,4.83.45.69.61.73.56,1.52l-.87-.1c-1.32-1.78-.78-4.18-1.13-4.76l.04.58-.54.18-.23,1.14c.27.4.3.92.07,1.35-.23.43-.68.69-1.16.68-.49,0-.92-.29-1.14-.72Z"/>
          <path class="cls-6" d="M127.3,136.38c-.31-.61-.08-1.35.51-1.7.59-.34,1.35-.17,1.73.39.27.4.3.92.07,1.35-.23.43-.68.69-1.16.68-.49,0-.92-.29-1.14-.72Z"/>
          <path class="cls-4" d="M114.65,159.48c1.93.04,2.39.02,3.67,1.12.46,1.52.18,1.92-.28,3.52-1.69-.44-1.95-.49-3.22-1.67-.67-1.79-.6-1.01-.17-2.98Z"/>
          <path class="cls-4" d="M103.01,158.41c.78-.31,1.68-.09,2.23.54.56.63.65,1.55.25,2.29-.41.74-1.24,1.14-2.07,1-.89-.15-1.57-.87-1.66-1.76-.09-.89.42-1.74,1.25-2.07Z"/>
          <path class="cls-4" d="M111.04,153.09c.69.41,1.06,1.1,1.53,1.77.09,1.85.12,1.18-.95,3.16-1.13-.82-1.28-.9-2.11-1.99.11-1.53.5-1.56,1.54-2.93Z"/>
          <path class="cls-2" d="M189.11,180.15c.94,1.2,2.32,3.28,3.21,4.29l-1.92,4.33c.82-.15,1.03-.37,1.74-.82l.39.07c1.46.26,1.77.32,3.1.96l.55-.48-.23-1.09,1.14.47c-.32.95-.53,1.8-1.11,2.61-4.77,6.61-14.82,12.54-22.9,13.78l.37-1.07c-1.32-.58-1.3-.92-2.24-2.16l2.36-.99-.9-.99c-1.65-.79-3.91-.09-6.29-.02l.45-.08c3.04-.54,6.51-1.19,8.34-3.83.2-1.46.34-1-.25-2.13-.91.13-1.71,1.19-2.5,1.96l.2-.85c1.21-1.11,1.41-1.35,2.99-1.75,1.51-1.88,1.76-2.28,3.84-3.47,1.66-.77,2.25-.68,4-.57l.56.03c2.25-1.46,4.96-5.37,5.09-8.21Z"/>
          <path class="cls-4" d="M189.11,180.15c.94,1.2,2.32,3.28,3.21,4.29l-1.92,4.33-1.12,1.25-.61-.1c-.63-1.48-.21-.97-1.95-1.79-1.19,1.6-.61,2.32.28,4.03-1.81,2.05-4.28,2.19-5.88,3.68.07-.04-5.56,1.52-6.34,1.75-.06-3.18,1.38-.73.83-5.22,1.51-1.88,1.76-2.28,3.84-3.47,1.66-.77,2.25-.68,4-.57l.56.03c2.25-1.46,4.96-5.37,5.09-8.21Z"/>
          <path class="cls-6" d="M192.15,187.95l.39.07c1.46.26,1.77.32,3.1.96l.55-.48-.23-1.09,1.14.47c-.32.95-.53,1.8-1.11,2.61-1.66-.49-.99-.51-2.56,0-.25.32-2.19,3.12-1.93,2.98-1.87.97-8.42,2.53-10.37,2.36,1.6-1.49,4.07-1.62,5.88-3.68-.88-1.71-1.47-2.43-.28-4.03,1.74.82,1.32.31,1.95,1.79l.61.1,1.12-1.25c.82-.15,1.03-.37,1.74-.82Z"/>
          <path class="cls-2" d="M173.57,200.06l.89.13.31.76c-.51,1.09-.6,1.31-1.32,2.25-1.32-.58-1.3-.92-2.24-2.16l2.36-.99Z"/>
          <path class="cls-6" d="M188.73,160.56c6.76,6.93,13.2,17.47,8.37,27.32l-1.14-.47.23,1.09-.55.48c-1.32-.64-1.64-.7-3.1-.96l-.39-.07c-.71.45-.92.67-1.74.82l1.92-4.33c-.89-1.01-2.27-3.08-3.21-4.29-1.24-.98-1.41-1.39-2.31-2.74,0,.02-1.65-7.91-1.79-8.2-.18-.85.09-3.5.15-4.51l1.37,1.86c.28-1.12-.4-2.81-.6-4.1,1.2.37,2.02,1.31,2.97,2.18l.58-1.12c-.44-1.14-.62-1.74-.75-2.96Z"/>
          <path class="cls-2" d="M186.54,166.57c.28-1.12-.4-2.81-.6-4.1,1.2.37,2.02,1.31,2.97,2.18l.18.37c1.94,3.86,3.03,3.91,4.09,9.27.11.82.31,1.47,0,2.22l-.12.33c-1.29.31-3.45.76-4.63,1.13l-.55-.82-1.08.27s-1.65-7.91-1.79-8.2c-.18-.85.09-3.5.15-4.51l1.37,1.86Z"/>
          <path class="cls-2" d="M186.54,166.57c.28-1.12-.4-2.81-.6-4.1,1.2.37,2.02,1.31,2.97,2.18l.18.37c1.94,3.86,3.03,3.91,4.09,9.27-1.85-1.53-4.39-1.52-5.94-4.36-.1-1.59-.55-2.05-.71-3.36Z"/>
          <path class="cls-10" d="M193.19,176.51c1.38,1.26,1.6,2.75,2.14,4.6-.97,3.01-1.59,4.06-3.18,6.85-.71.45-.92.67-1.74.82l1.92-4.33c-.89-1.01-2.27-3.08-3.21-4.29-1.24-.98-1.41-1.39-2.31-2.74l1.08-.27.55.82c1.19-.37,3.35-.82,4.63-1.13l.12-.33Z"/>
          <path class="cls-2" d="M188.43,177.97c1.19-.37,3.35-.82,4.63-1.13l-.24,1.48c-.15,1.86-.27,4.32-.5,6.12-.89-1.01-2.27-3.08-3.21-4.29-1.24-.98-1.41-1.39-2.31-2.74l1.08-.27.55.82Z"/>
          <path class="cls-2" d="M188.43,177.97c1.19-.37,3.35-.82,4.63-1.13l-.24,1.48c-1.53.27-2.2,1.15-3.68.96l-.71-1.31Z"/>
          <path class="cls-8" d="M164.83,136.21l1.68,1.91c2.75,2.57,20.79,20.27,22.22,22.44.13,1.22.31,1.82.75,2.96l-.58,1.12c-.95-.87-1.77-1.81-2.97-2.18.2,1.29.88,2.98.6,4.1l-1.37-1.86c-4.28-5.46-2.33-6.23-8.72-11.63-1.02-1.18-2.31-2.45-3.42-3.59l-2.25.84c-.62-1.35-4.35-4.96-5.61-6.26l-.17-2.77c-1.19-1.04-2.17-2.19-3.23-3.36l-1.1-1.92c1.21.12,2.91.13,4.16.18Z"/>
          <path class="cls-4" d="M165.17,144.08l-.17-2.77c3.04,2.36,5.44,5.34,8.03,8.19l-2.25.84c-.62-1.35-4.35-4.96-5.61-6.26Z"/>
          <path class="cls-6" d="M164.83,136.21l1.68,1.91c-1.65.03-3.11-.07-4.74-.17l-1.1-1.92c1.21.12,2.91.13,4.16.18Z"/>
          <path class="cls-2" d="M124.52,206.93c9-1.56,18.51-2.19,27.63-2.42,2.63-.07,5.18,1.03,8.15,1l-.64,1.02.22.3c-12.66,2.47-23.07.95-35.36.1Z"/>
          <path class="cls-2" d="M144.65,111.22c.07-1.63-1.3-2.99-1.18-5.9,6.65,11.39,11.35,21.04,21.36,30.89-1.25-.05-2.95-.06-4.16-.18-.23-.83-1.35-2.22-1.9-2.98-1.29-1.76-2.89-3.55-4.32-5.22l-2.56-3.3c-1.64-2.83-6.23-10.79-7.25-13.31Z"/>
          <path class="cls-4" d="M151.9,124.53l2.56,3.3c1.43,1.67,3.02,3.46,4.32,5.22.54.76,1.66,2.15,1.9,2.98l1.1,1.92c1.06,1.17,2.04,2.32,3.23,3.36l.17,2.77c-4.87-2.21-4.71-5.8-7.67-9.65-.67-.88-4.68-1.68-5.17-3.32-.59-2-1.13-4.56-.43-6.57Z"/>
          <path class="cls-4" d="M154.46,127.83c1.43,1.67,3.02,3.46,4.32,5.22-1.32-.01-1.34-.01-2.61-.37-1.27-1.29-1.34-2.99-1.7-4.85Z"/>
          <path class="cls-4" d="M185.02,169.22c.13.29,1.79,8.22,1.79,8.2.89,1.35,1.06,1.75,2.31,2.74-.13,2.84-2.85,6.75-5.09,8.21l-.56-.03c-1.76-.1-2.34-.19-4,.57,7.63-6.94,4.21-10.51,5.48-19.19l.07-.49Z"/>
          <path class="cls-4" d="M102.23,180.17l1.24-.04c4.87,4.66,2.82,12.99,5.36,18.07,1.4,2.78,1.17,3.87-1.52,5.7-.81-3.44-1.36-1.31-.49-5.71-1.13-3.89-1.55-5.56-1.92-9.66-.24-2.63-.53-6.68-2.66-8.37Z"/>
          <path class="cls-4" d="M109.22,175.79l1.55,1.51c-.45,1.91-1.13,2.64.39,4.17.37-.99.58-1.52,1.05-2.47l.65-.18,1.65,1.13c-.16.55-.35,1.23-.6,2.06.54,2.04,2.05,2.98-.15,4.39-2.09.11-2.77-1.59-3.87-3.22-.77-1.72-1.1-2.38-1.51-4.27,0-2.35-.37-1.82.84-3.13Z"/>
          <path class="cls-2" d="M171.21,201.05c.94,1.23.92,1.58,2.24,2.16l-.37,1.07c-4.34,1.35-8.71,1.86-13.21,2.55l-.22-.3.64-1.02c2.91-.87,7.85-3.16,10.91-4.47Z"/>
          <path class="cls-4" d="M97.83,166.88c3.67,3.44,8.8,7.74,10.55,12.04.42,1.9.74,2.55,1.51,4.27-2.15-1.71-4.25-6.65-6.51-9.02-1.06-1.1-5.39-6.38-5.55-7.3Z"/>
          <path class="cls-4" d="M133.61,176.7c-1.89,3.71-2.98,6.77-7.33,8.18,1.62-3.49,2.94-5.26,5.51-8.15l1.82-.03Z"/>
          <path class="cls-4" d="M111.5,205.1l.29-1.42c2.13-1.17,8.21.77,9.83,2.68-3.03-.07-7.09-.75-10.12-1.26Z"/>
          <path class="cls-4" d="M173.03,149.5c1.1,1.13,2.4,2.41,3.42,3.59-1.98-.03-4.81-.88-5.67-2.75l2.25-.84Z"/>
          <path class="cls-4" d="M172.85,175.2c.56-1.4.92-2.77,2-3.75,2.34.27,1.4,1.48,2.22,2.79.3,1.87.3,3.55-.42,5.35-2.32,1.87-3.02,6.31-6.41,6.82l-.68-.76c2.36-4.45,2.28-5.45,3.29-10.45Z"/>
          <path class="cls-4" d="M172.85,175.2c.56-1.4.92-2.77,2-3.75,2.34.27,1.4,1.48,2.22,2.79.3,1.87.3,3.55-.42,5.35l-3.13-2.34-.68-2.05Z"/>
          <path class="cls-4" d="M173.53,177.25c1.24-1.76,1.71-1.95,3.54-3.01.3,1.87.3,3.55-.42,5.35l-3.13-2.34Z"/>
          <path class="cls-4" d="M159.87,178.21l.73.28c1.46,2.37,1.1,4.66-.54,6.76-1.7.85-1,.62-3.2.53-1.25-.62-1.02-.28-1.63-1.32.62-1.77,3.36-4.24,4.65-6.24Z"/>
          <path class="cls-4" d="M166.51,162.31c2,2.85,3.9,4.28,1.27,7.06-.62-.82-1.31-3.57-1.6-4.67.29-1.01.28-1.37.32-2.39Z"/>
          <path class="cls-4" d="M153.12,190.54c1.16-.17,1.49.03,2.59.37l.24.65c-1.2,1.09-2.37.96-4.05,1.12l-3.04.2c2.99-.65,2.88-.29,4.25-2.34Z"/>
          <path class="cls-4" d="M150.15,171.45l.64.7c-.06,1.48-.53,1.68-1.48,3.04-.4-.14-.61-.39-.97-.69.24-1.58.7-1.69,1.81-3.05Z"/>
          <path class="cls-4" d="M172.18,164.54c1.66.81,1.75,2.41,2.2,4.09l-1.35-.43c-1.05-1.41-.74-1.68-.86-3.66Z"/>
          <path class="cls-5" d="M110.27,3.22c2.37-1.6,4.69-3.64,7.5-3.14,2.43,3.02-1.63,8.51,4.39,10.01,2.21-.59,4.53-1.39,6.78-1.09l.7.55c-.95,2.15-6.07,4.67-8.97,8.04-4.18,7.89-4.27,11.35-6.57,19.68-2.23,8.14-7.77,18.21-14,23.92-.71.65-4.6,4.28-5.23,4.6-10.25,9.11-20.87,7.7-30.05,15.65-.84-.37-.81-.32-1.43-.99-.9.8-1.95,1.68-2.79,2.52-.39,5.33-6.44,14.55-4.03,21.84l-4.52.21-2.22,3.42-.74,1.6-.93,2.31-2.63-6.55c-.31-.63-.59-1.28-.86-1.93-1.74-4.27-2.28-15.02-.58-19.64.56-1.51,3.44-2.15,5.15-2.73,1.96-2.93,3.12-2.93,6.52-3.9,1.03-4.28,1.91-6.87,3.42-11.02-1.71.62-5.36,3.42-7.44,4.67,9.22-10.77,13.51-10.46,25.54-16.71,4.22-2.2,9.18-7.04,12.51-10.58.23-.86,1.98-4.19,2.55-5.38,1.9-3.98,2.34-6.37,3.28-10.59.59-3.64,1.34-7.21,2.97-10.54,1.92-4.37,7.73-11.5,11.67-14.2Z"/>
          <path class="cls-10" d="M110.27,3.22c2.37-1.6,4.69-3.64,7.5-3.14,2.43,3.02-1.63,8.51,4.39,10.01,2.21-.59,4.53-1.39,6.78-1.09l.7.55c-.95,2.15-6.07,4.67-8.97,8.04l-1.3-.31c-7.38,11.94-6.56,20.68-11.91,31.2-.72-2.21,1.04-3.17,1.81-5.32,2.46-6.89-2-6.29-3.16-9.42,1.45-4.49-3.32-3.8-5.45-7.84.17-3.72,1.05-6.13-2.05-8.48,1.92-4.37,7.73-11.5,11.67-14.2Z"/>
          <path class="cls-5" d="M110.27,3.22c2.37-1.6,4.69-3.64,7.5-3.14,2.43,3.02-1.63,8.51,4.39,10.01l-.13.34c-3.68.81-1.37,1.97-3.7,2.41-2.14-2.09-1.14-6.67-2.26-9.88-2.15.22-3.64.26-5.8.26Z"/>
          <path class="cls-5" d="M122.17,10.08c2.21-.59,4.53-1.39,6.78-1.09l.7.55c-.95,2.15-6.07,4.67-8.97,8.04l-1.3-.31c1.19-1.78,3.45-4.03,3.59-5.89l-.92-.95.13-.34Z"/>
          <path class="cls-5" d="M119.37,17.27l1.3.31c-4.18,7.89-4.27,11.35-6.57,19.68-2.23,8.14-7.77,18.21-14,23.92-.71.65-4.6,4.28-5.23,4.6-.28-2.43,7.71-7.79,9.04-10.38.37-.14-8.86,7.09-10.34,8.08l-.47-.2c3.54-4.82,10.89-5.61,14.35-14.81,5.36-10.52,4.53-19.26,11.91-31.2Z"/>
          <path class="cls-5" d="M89.8,43.93c-2.08,12.97-29.12,19.87-30.58,22.45l-.02.17c-1.71.62-5.36,3.42-7.44,4.67,9.22-10.77,13.51-10.46,25.54-16.71,4.22-2.2,9.18-7.04,12.51-10.58Z"/>
          <path class="cls-10" d="M45.54,105.78c-.31-.63-.59-1.28-.86-1.93-1.74-4.27-2.28-15.02-.58-19.64.56-1.51,3.44-2.15,5.15-2.73-1.71,5.39-1.82,7.7-2.06,13.38-3.82,1.38-1.21,6.92-1.65,10.92Z"/>
          <path class="cls-10" d="M45.54,105.78c.44-4-2.17-9.54,1.65-10.92.32,5.37,0,8.94,2.65,13.56l-.74,1.6-.93,2.31-2.63-6.55Z"/>
          <path class="cls-5" d="M98.6,17.42c3.1,2.35,2.22,4.76,2.05,8.48l-1.4,2.45-.18-.17c.53-3.73.81-4.89.73-8.66-.67,2.46-1.67,7.02-3.2,8.91l-.65.07-.32-.54c.59-3.64,1.34-7.21,2.97-10.54Z"/>
          <path class="cls-10" d="M60.61,82.95c-.54-2.48-1.06-3.19.55-5.31l1.09.27c.65,1.06.73,1.34,1.15,2.53-.9.8-1.95,1.68-2.79,2.52Z"/>
        </g>
        <g>
          <path class="cls-9" d="M223.91,135.6c5.42.14,7.05,6.02,7.16,10.58.12,4.6,1.5,7.49,2.21,11.71,1.22,7.25.32,15.51-1.81,22.51-1.43,5.14-3.81,4.35-4.7,7.89,1.22,2.35.92,2.22.09,4.62-7.02,20.11-27.15,39.34-49.66,37.68-3.19-.23-6.57-1.7-9.87-2.09l-.38-.04c-7.77-.61-11.55-6.65-13.45-13.62-3.68-13.55,1.71-27.94,8.11-39.79,1.98-3.67,5.36-7.08,8.02-10.27,10.97-12.57,24.3-22.28,40.33-27.18,5.19-1.58,9.73-.77,13.96-2.01Z"/>
          <path class="cls-5" d="M217.11,142.05c9.82-.25,7.68,5.68,9.25,11.97,4.62,17.11-3.31,36.91-12.03,51.34-4.82,7.97-21.46,20-31.29,18.55-3.86-.57-7.72-2.41-11.57-1.74l-.39.07c-2.13.55-4.63,1.09-6.45-.66-10.27-9.88-6.26-23.93-2.72-35.81.76-2.56,3.34-7.03,4.84-9.17,11.73-16.62,29.82-31.55,50.36-34.57Z"/>
          <path class="cls-9" d="M210.44,147.39c1.34.01,1.63-.07,2.44.68-.09,1.57-2.16,2.69-3.4,3.66-13.14,10.26-18.21,26.61-27.05,40.08-2.09,3.19-4.31,6.32-6.21,9.62-2.46,4.25-4.14,9.26-7.05,13.2-1.47-.22-1.67-.45-2.36-1.66-.56-5.39,10.29-21.14,13.24-26.11,8.26-13.9,15.51-31.46,30.4-39.48Z"/>
          <path class="cls-9" d="M217.13,152.23c1.25.08,1.6.02,2.51.85,1.67,2.89.98,9.49-.36,12.43-3.4,7.52-10.11,15.97-15.97,21.55-1.07.12-1.46.12-2.22-.57-.5-2.7,10.13-13.32,11.82-16.64,1.6-3.15,4.01-6.17,4.22-10.17.15-2.88-1.69-4.92-.02-7.45Z"/>
          <path class="cls-9" d="M219.84,177.55c.58.08.83.19,1.39.36.37.69.65,1.22.39,2.08-2.5,8.36-10.13,20.1-17.1,24.95-1.25-.27-1.69-.4-1.99-1.62.78-2.46,7.69-9.02,9.99-12.17,3.13-4.29,4.8-10.09,7.32-13.61Z"/>
          <path class="cls-9" d="M191.29,197.12c.67-.04.93.08,1.57.26,1.19,3.4-12.8,15.04-16.45,16.84-1.23-.22-1.85-.31-2.11-1.61.3-.79,2.87-2.44,3.78-3.08,5.09-3.61,8.94-7.89,13.22-12.41Z"/>
          <path class="cls-9" d="M177.16,172.41c.2.1.68.44.86.56-.24,3.47-3.49,8.05-4.69,11.59-.93,2.77-1.31,7.38-2.7,9.58l-1.12-.8c-2.33-5.46,4.23-16.93,7.65-20.93Z"/>
          <path class="cls-3" d="M161.11,211.69c.3-4.69-1.59-7.05.04-11.64.98-2.75.44-5.2,2.52-7.76l.73-.06c3.46,2.67.45,3.93.22,6.52-.24,2.64,1.33,6.28-.59,8.83-.31.42-1.29.29-1.82.32-.59.42-.78,1.22-.44,1.86l.14,1.58-.78.35Z"/>
          <path class="cls-9" d="M191.58,211.07c.83-.11,1.64.03,2.15.69-.55,3.04-11.42,6.2-14.46,6.98-1.18-.12-1.49-.04-2.11-.76l.11-.69c1.69-1.76,10.77-4.4,14.31-6.23Z"/>
          <path class="cls-9" d="M189.96,159.05c.86.07.84.11,1.56.53.51,2.46-4.84,5.85-6.05,8.13-1.08,2.05-1.42,3.94-2.67,6.02-.91-.06-.86-.03-1.6-.56-1.75-3.76,5.66-11.96,8.77-14.13Z"/>
          <path class="cls-3" d="M161.89,211.34c.71.91,3.84,7.62,4.02,8.71l-.37.29c-2.43-1.46-4.48-5.81-4.43-8.64l.78-.35Z"/>
          <path class="cls-9" d="M198.76,205.9l1.28.61c.65.95.54.45.4,1.52-.7,1.18-1.88,1.78-3.04,2.51-1.27-.47-1.62-.67-1.51-2.05.78-1.3,1.61-1.74,2.86-2.59Z"/>
          <path class="cls-9" d="M162.19,207.9c.49-.35,1.15-.35,1.65-.02.5.34.74.95.6,1.54-.14.59-.63,1.02-1.22,1.1-.6.08-1.18-.23-1.46-.76-.34-.64-.15-1.44.44-1.86Z"/>
          <path class="cls-3" d="M157.71,192.75c.43,1.28-1.31,7.13-1.45,9.55-.15,2.49-.32,4.8-.36,7.42-1.9-4.43.36-12.45,1.81-16.97Z"/>
          <path class="cls-3" d="M161.97,181.68c.14,1.71-1.5,4.73-2.4,6.19-.22-2.19,1.23-4.48,2.4-6.19Z"/>
        </g>
      </g>
      <g>
        <path class="cls-4" d="M244.31,64.53h-103.33c-8.75,0-15.83-7.09-15.83-15.83v-13.33c0-8.75,7.09-15.83,15.83-15.83h103.33c8.75,0,15.83,7.09,15.83,15.83v13.33c0,8.75-7.09,15.83-15.83,15.83Z"/>
        <text class="cls-7" transform="translate(134.27 55.66)"><tspan x="0" y="0">123 GR</tspan></text>
      </g>
    </g>
  </g>
</svg>