<?xml version="1.0" encoding="UTF-8"?>
<svg id="Capa_2" data-name="Capa 2" xmlns="http://www.w3.org/2000/svg" xmlns:xlink="http://www.w3.org/1999/xlink" viewBox="0 0 276.16 156.82">
  <defs>
    <style>
      .cls-1 {
        fill: #353a59;
      }

      .cls-2 {
        letter-spacing: 0em;
      }

      .cls-3 {
        fill: #2b2d43;
      }

      .cls-4 {
        fill: #e87782;
      }

      .cls-5 {
        fill: #d9042a;
      }

      .cls-6 {
        fill: #fff;
        font-family: PlusJakartaSans-SemiBold, 'Plus Jakarta Sans';
        font-size: 36px;
        font-weight: 600;
      }

      .cls-7 {
        fill: url(#Degradado_sin_nombre_17);
      }

      .cls-8 {
        fill: #f9f2eb;
      }

      .cls-9 {
        letter-spacing: .02em;
      }
    </style>
    <linearGradient id="Degradado_sin_nombre_17" data-name="Degradado sin nombre 17" x1="2036.68" y1="702.99" x2="2023.07" y2="741.26" gradientTransform="translate(-1130.79 505.73) scale(.62 -.62)" gradientUnits="userSpaceOnUse">
      <stop offset="0" stop-color="#353a59"/>
      <stop offset="1" stop-color="#d9042a"/>
    </linearGradient>
  </defs>
  <g id="ICONS">
    <g>
      <g>
        <path class="cls-8" d="M53.58,69.76s-16.75-4.26-20.17-7.39c-3.42-3.13-32.71-3.65-26.48,4.72,6.23,8.38,7.09,9.05-.87,13.63-7.96,4.57-1.66,10.43,3.73,11.42s20.48,2.89,15.93,8.99-26.88,15.35-8.46,25.31c0,0,2.83,1.31,5.35,0v8.74l-.8,5.23s15.59,7.82,19.79-13.39l1.8,14.95,5.63,7.97s4.06-2.36,5.91-10.25,9.42-10.77,10.96-20.69c1.54-9.92,7.42-14.22-12.32-49.22Z"/>
        <g>
          <path class="cls-4" d="M82.25,25.3c3.11-2.77,6.51-5.2,10.13-7.25,16.51-9.32,37.5-12.35,55.8-7.21,2.97,1.06,5.98,2.1,8.89,3.32,3.17,1.42,6.32,2.78,9.39,4.41,5.92,2.48,8.08,3.62,13.53,7.46,1.31.51,2.59,1.04,3.94,1.42-3.2,4.31-3.05,3.8-1.37,8.73.22.2.78.75,1.01.87,1.81,1.46,4.31,6.97,5.58,9.4,2.6,5.74,3.37,8.87,4.61,15.03.37,1.85,1.42,7.03,2.13,8.5,1.73,1.89.69,4.16.17,6.52-.29,1.33-.14,3.45-.33,4.21l-1.01,2.8,1.5,1.1c1.93-1.68-.1-.08,3.19-.37l3.75.65c-1.06,3.49-2.05,9.28-3.05,11.96-4.55,13.95-11.42,20.86-21.64,30.7-17.85,17.19-39.89,20.4-63.45,19.87-8.3-.03-12.3-2.13-19.72-5.5-5.51-2.46-18.03-9.32-22.39-13.09l-4.27-4.59c-.95,1.43-2.23,3.26-3.09,4.7l-1.15,1.87-1.47,1.64c-2.54,3.77-4.64,7.19-7.99,10.32-.42,1.78-.49,3.03-1.79,4.23l-.73-.1c-1.91-3.13.68-11.9,2.6-14.43,1.26-8.29,5.71-15.92,5.34-24.5q1.23-.99,2.67-1.62c-1.39-1.91-1.75-2.13-3.62-3.45l-1.12,1.86-1.26-.72.99-2.21c0-2.39-1.33-4.55-2.4-6.75-1.89-.15-2.18.15-3.97,1,0-.97.23-3.04.32-4.1l1.52-1.17c-2.75-2.4-4.89-5.67-7.63-8.41l-.32-.02c-.35-1.11-1.58-3.39-2.15-4.79l3.68.33c-2.44-2.2-1.85-1.86-1.73-5.02l-.93-.33v-.71s.57-.15.57-.15l-.51-.53-.45-1.08,1.29.22c3.41-3.95,6.76.38,8.26-3.92l-.53-2.35c.5-12.96,16.16-26.33,24.99-34.97,1.26-1.26,2.85-2.6,4.2-3.8Z"/>
          <path class="cls-3" d="M53.58,66.43l.56-1.27c2.97,2,.72,5.88,3.3,8.51l1.83.92c1.18,1.08,1.31,1.28,2.21,2.62,2.95,4.48,4.17,8.09,6.55,12.61,0,2.66-.33,1.75.97,3.7l.36-.59.49.93c1.36.81,3.1,1.61,3.81,2.94-1.36.84-2.49,1.29-3.12,2.69l.19,3.05c-.93,3.6-1.48,4.8.2,7.99-.92,2.85-2.26,5.16-.59,7.83-.49,2.56-.78,3.44-1.71,5.89-.95,1.43-2.23,3.26-3.09,4.7l-1.15,1.87-1.47,1.64c-2.54,3.77-4.64,7.19-7.99,10.32-.42,1.78-.49,3.03-1.79,4.23l-.73-.1c-1.91-3.13.68-11.9,2.6-14.43,1.26-8.29,5.71-15.92,5.34-24.5q1.23-.99,2.67-1.62c-1.39-1.91-1.75-2.13-3.62-3.45l-1.12,1.86-1.26-.72.99-2.21c0-2.39-1.33-4.55-2.4-6.75-1.89-.15-2.18.15-3.97,1,0-.97.23-3.04.32-4.1l1.52-1.17c-2.75-2.4-4.89-5.67-7.63-8.41l-.32-.02c-.35-1.11-1.58-3.39-2.15-4.79l3.68.33c-2.44-2.2-1.85-1.86-1.73-5.02l-.93-.33v-.71s.57-.15.57-.15l-.51-.53-.45-1.08,1.29.22c3.41-3.95,6.76.38,8.26-3.92Z"/>
          <path class="cls-1" d="M58.14,130.55c3.06-1.45,3.08-1.2,6.26.28l-1.47,1.64c-2.54,3.77-4.64,7.19-7.99,10.32-.42,1.78-.49,3.03-1.79,4.23l-.73-.1c-1.91-3.13.68-11.9,2.6-14.43l.95-.03.26.45c.88-1.6.58-1.68,1.91-2.35Z"/>
          <path class="cls-3" d="M55.97,132.45l.26.45c.88-1.6.58-1.68,1.91-2.35-.52,2.4-.85,2.94-1.97,5.1l.32.42c-1.1,2.55-1.63,3.84-1.56,6.72-.42,1.78-.49,3.03-1.79,4.23l-.73-.1c-1.91-3.13.68-11.9,2.6-14.43l.95-.03Z"/>
          <path class="cls-3" d="M58.14,130.55c3.06-1.45,3.08-1.2,6.26.28l-1.47,1.64c-2.61.01-3.15.24-4.97,2.07-.5.5-.98,1.01-1.46,1.53l-.32-.42c1.11-2.16,1.45-2.7,1.97-5.1Z"/>
          <path class="cls-1" d="M63.03,106.37l1.55-1.43c1.81,4.69-3.73,15.98-5.65,20.71l-2.96,6.8-.95.03c1.26-8.29,5.71-15.92,5.34-24.5q1.23-.99,2.67-1.62Z"/>
          <path class="cls-1" d="M45.87,82.44c3.87-.08,14.49,1.2,16.37,4.93-.94,2.56-6.18,3.04-8.75,3.48-2.75-2.4-4.89-5.67-7.63-8.41Z"/>
          <path class="cls-1" d="M55.63,95.11c3.03-.36,6.08-2.76,8.13-1.97,2.59,4.65-1.11,6.88-4.34,9.78l-1.12,1.86-1.26-.72.99-2.21c0-2.39-1.33-4.55-2.4-6.75Z"/>
          <path class="cls-5" d="M45,71.74c2.27.8,6.77,2.55,9.03,2.21,1.35,2.12,2.55,3.71,4.08,5.71-3.64-.58-7.39-1.23-11.03-1.71-2.44-2.2-1.85-1.86-1.73-5.02l-.93-.33v-.71s.57-.15.57-.15Z"/>
          <path class="cls-3" d="M55.97,132.45l2.96-6.8c3.47,1.8,3.63.73,6.61,3.3l-1.15,1.87c-3.18-1.47-3.2-1.72-6.26-.28-1.33.67-1.03.76-1.91,2.35l-.26-.45Z"/>
          <path class="cls-1" d="M69,93.52l.36-.59.49.93c1.36.81,3.1,1.61,3.81,2.94-1.36.84-2.49,1.29-3.12,2.69-.53-.89-1.27-4.72-1.55-5.97Z"/>
          <path class="cls-4" d="M44.03,70.13l1.29.22c2.04.74,7.24,2.36,8.71,3.6-2.26.35-6.76-1.4-9.03-2.21l-.51-.53-.45-1.08Z"/>
          <path class="cls-7" d="M194.72,94.02l.57.25c2.06.89,3.51.42,4.82,2.6-4.55,13.95-11.42,20.86-21.64,30.7-17.85,17.19-39.89,20.4-63.45,19.87-8.3-.03-12.3-2.13-19.72-5.5.89-1.15,1.19-.94,2.85-1.54l1.26.63c3.1.6,3.43,1.78,6.31-.06,11.69,2.61,19.48,2.31,31.24.48,3.67-.82,6.39-1.06,9.84-2.64,9.82-2.3,19.32-7.93,26.79-14.6,5.37-4.41,7.08-6.36,11.19-11.96.25-.99,6.05-8.98,7.03-10.38.4-2.14,2.03-5.71,2.92-7.85Z"/>
          <path class="cls-1" d="M98.15,140.4l1.26.63c3.1.6,3.43,1.78,6.31-.06,11.69,2.61,19.48,2.31,31.24.48l1.05.6-2.08.63c-7.5,2.34-16.39,2.4-24.16,2.22l3.24,2.55c-8.3-.03-12.3-2.13-19.72-5.5.89-1.15,1.19-.94,2.85-1.54Z"/>
          <path class="cls-5" d="M98.15,140.4l1.26.63c5.07,3.06,6.39,3.14,12.36,3.86l3.24,2.55c-8.3-.03-12.3-2.13-19.72-5.5.89-1.15,1.19-.94,2.85-1.54Z"/>
          <path class="cls-1" d="M191.8,101.87c.85,3.87-4.45,8.03-6.63,10.54l-.4-.16c.25-.99,6.05-8.98,7.03-10.38Z"/>
          <path class="cls-8" d="M140.81,21.62c2.59,1.33,4.99,1.82,7.6,2.91,4.71,1.96,9.43,4.06,14.11,6.12l-.57.94c-1.35.22-2.53.25-3.54,1.15l.67.42-.33-.72.29-.12c1.31,1.6,6.71,2.4,9.42,3.77-1.55,2.63-2.13,3.75-3.27,6.57-2.36-.21-3.01-.28-5.33-.95-1.49-.96-3.25-2.09-4.84-2.87-2.13-1.05-7.9-2.05-9.27-3.91l.92-2.03-.61-.69c-1.7.41-2.23,1.47-3.64,2.92-4.91.06-6.97-1.45-9.82,1.06-1.2,0-3.55-.19-4.46.36l1.63,1.44c.12,2.13-2.34,3.67-3.6,3.3-13.43-3.92-7.5-13.86-25.03-2.84l-1.12-.82c4.95-4.51,6.02-6.75,12.28-8.69.25.02,2.13.16,2.32.09,7.11-2.7,17.42-.62,22.68-6.23l.21-.22c1.53-.24,1.89-.36,3.32-.94Z"/>
          <path class="cls-5" d="M82.25,25.3c3.11-2.77,6.51-5.2,10.13-7.25,16.51-9.32,37.5-12.35,55.8-7.21,2.97,1.06,5.98,2.1,8.89,3.32,3.17,1.42,6.32,2.78,9.39,4.41.04,2.27.65,4.09-.26,5.46-8.85-4.55-16.39-8.31-26.24-9.81-17.43-2.66-34.65,1.67-49.06,11.68-1.89,1.32-3.43,3.12-5.38,4.34l-1.71,1.61c-2.14-1.36-3.41-1.82-5.75-2.77,1.26-1.26,2.85-2.6,4.2-3.8Z"/>
          <path class="cls-1" d="M82.25,25.3l.26.46c1.07,1.88,1.21,2.28,1.67,4.45l1.16-.74-.55.08.55-.23.17.93-1.71,1.61c-2.14-1.36-3.41-1.82-5.75-2.77,1.26-1.26,2.85-2.6,4.2-3.8Z"/>
          <path class="cls-5" d="M157.06,14.16c-2.12,1.59-7.86,0-9.79-1.64.16-1.22-.05-.64.9-1.69,2.97,1.06,5.98,2.1,8.89,3.32Z"/>
          <path class="cls-3" d="M53.05,64.07c.5-12.96,16.16-26.33,24.99-34.97,2.34.95,3.61,1.41,5.75,2.77-2.81,2.92-16.05,16.36-17.83,19.09-.37,2.3-1.33,3.17-2.14,5.38-1.17,3.23-1.69,5.95-2.25,9.31l-.09,11.56c-.9-1.34-1.03-1.54-2.21-2.62l-1.83-.92c-2.58-2.63-.33-6.52-3.3-8.51l-.56,1.27-.53-2.35Z"/>
          <path class="cls-8" d="M57.94,67.1c1.1-.5,2.49-1,3.64-1.45l-.09,11.56c-.9-1.34-1.03-1.54-2.21-2.62-2.77-3.55-2.93-3.31-1.34-7.5Z"/>
          <path class="cls-8" d="M65.96,50.96c-.37,2.3-1.33,3.17-2.14,5.38-1.17,3.23-1.69,5.95-2.25,9.31-1.15.45-2.54.94-3.64,1.45.78-4.47,5.08-12.66,8.02-16.14Z"/>
          <path class="cls-4" d="M166.45,18.58c5.92,2.48,8.08,3.62,13.53,7.46,1.31.51,2.59,1.04,3.94,1.42-3.2,4.31-3.05,3.8-1.37,8.73.22.2.78.75,1.01.87,1.81,1.46,4.31,6.97,5.58,9.4-.86.53-1.91.95-2.84,1.37l-.02-.42,1.43-.97c.39-3.01-6.52-10.19-8.6-12.57-1.36-1.55-2.42,2.17-3.12,2.07-1.71-.25-6.21.62-7.53.15-2.72-1.37-8.11-2.16-9.42-3.77l-.29.12.33.72-.67-.42c1.02-.9,2.19-.92,3.54-1.15l.57-.94.54.14c2.9.8,3.84,2.03,6.52,1.74,2.13-1.22,2.39-1.82,3.5-3.89l-1.75-1.72c-.83-.32-4.19-2.32-5.15-2.88.91-1.37.3-3.19.26-5.46Z"/>
          <path class="cls-5" d="M166.45,18.58c5.92,2.48,8.08,3.62,13.53,7.46-5.51,4.45-3.87-.91-8.64.89-.83-.32-4.19-2.32-5.15-2.88.91-1.37.3-3.19.26-5.46Z"/>
          <path class="cls-1" d="M179.97,26.03c1.31.51,2.59,1.04,3.94,1.42-3.2,4.31-3.05,3.8-1.37,8.73-4.03-3.62-4.88-4.55-9.47-7.55l-1.75-1.72c4.77-1.79,3.13,3.56,8.64-.89Z"/>
          <path class="cls-5" d="M169.58,32.53c2.3-.16,4.47-.58,6.5.3.82,1.36.64.62.38,2.32-2.19.11-7.52.96-7.42-2.04l.53-.58Z"/>
          <path class="cls-1" d="M70.35,118.36c2.9,3.56,5.12,6.48,8.97,9.09,10.08,5.71,15.64,9.44,26.4,13.52-2.88,1.84-3.21.66-6.31.06l-1.26-.63c-1.66.6-1.96.38-2.85,1.54-5.51-2.46-18.03-9.32-22.39-13.09l-4.27-4.59c.93-2.45,1.23-3.33,1.71-5.89Z"/>
          <path class="cls-5" d="M72.9,128.84c2.9-.51,3.61-.82,6.41.55,4.15,2.03,14.58,11.07,18.84,11.01-1.66.6-1.96.38-2.85,1.54-5.51-2.46-18.03-9.32-22.39-13.09Z"/>
          <path class="cls-8" d="M169.22,82.5c3.16.47,3.94,1.74,5.86,4.16-2.43,4.38-4.59,6.66-6.58,10.05-4.16,3.73-12.73,7.7-18.12,4.96l-.11-.73c1.55-1.33,3.03-1.44,5.06-1.88,5.86-5.9,10.74-9.37,13.88-16.56Z"/>
          <path class="cls-4" d="M186.4,58.74l1.92-1.52.09.41-.94,1.28c2.45,5.19,3.3,7.55,7.43,11.68l.99-.62c1.73,1.89.69,4.16.17,6.52-.29,1.33-.14,3.45-.33,4.21-1.61-1.95-2.31-4.42-4.05-6.75l-1.09.17c-3.62-4.32-7.39-3.22-9.86-8.79-.38-.86-1.02-1.72-1.61-2.47l-.24-.3,1.34-2.46.18.12c.75,1.29,2.57,1.7,3.97,1.61,1.77-1.01,1.17-.48,2.04-3.11Z"/>
          <path class="cls-4" d="M178.86,62.58l.24.3c.59.75,1.23,1.6,1.61,2.47,2.46,5.57,6.24,4.47,9.86,8.79l-.8.67c-1.22-1.1-2.13-1.99-3.26-3.18-2.59.93-1.86,4.16-3.9,5.07l-1.59-.95-.41.68c1.42,2,1.41,1.32,1.17,3.18-1.17,1.38-1.98,2.5-3.01,3.96-1.23-2.92.22-2.86-1.97-4.85.78-.89,1.05-1.09,1.42-2.24-2.59-4.72-3-9.42.64-13.89Z"/>
          <path class="cls-8" d="M142.42,35.12c1.41-1.45,1.94-2.51,3.64-2.92l.61.69-.92,2.03c1.37,1.86,7.14,2.86,9.27,3.91,1.6.79,3.35,1.92,4.84,2.87l-1.36,2.13c.43,1.03.11.62.96,1.3-1.6-.17-2.3-.19-3.8-.71l-.35-.94.98-1.91c-.94-.9-.84-.63-2.4-.9-4.87,1.07-5.21,8.65-13.54-.86,1.03-1.66,1.95-2.76,2.06-4.68Z"/>
          <path class="cls-1" d="M93.59,121.19c4.97,2.37,10.36,6.79,14.97,8.3-.9,1.92-.99,2.17-1.08,4.28-6.31-2.94-14.46-6.99-19.97-11.13,2.61-1.68,2.88-.13,6.07-1.45Z"/>
          <path class="cls-4" d="M70.94,110.53c3.64,1.36,6.54,4.37,9.31,7.05-.73.67-.98.73-1.36,1.59-.99,1.97-1.04,2.31-.55,4.47.07,1.87.03,2.23.99,3.81-3.85-2.61-6.07-5.54-8.97-9.09-1.68-2.67-.33-4.97.59-7.83Z"/>
          <path class="cls-5" d="M69.86,93.86c3.96-.31,11.25-1.93,14.88-1.15l.21.64c-1.24,1.25-1.72,1.24-1.72,2.49,2.32,1.51,3.87,1.36,6.52,1.22l-2.85.93-.15.53c1.46.42,5.47,1.31,6.03,2.48.27.56.72.84,1.31,1.13-.25.29-1.56,1.63-1.95,1.48-7.63-3.03-9.87-7.99-18.47-6.79-.71-1.33-2.45-2.14-3.81-2.94Z"/>
          <path class="cls-8" d="M112.28,28.93c5.97-4.35,14.92-2.87,18.08-5.43l-1.4-1.9c.32-1.52.2-1.03,1.86-2.23,2.57-.42,7.61,1.13,10,2.26-1.44.58-1.79.7-3.32.94l-.21.22c-5.26,5.61-15.57,3.54-22.68,6.23-.19.07-2.06-.07-2.32-.09Z"/>
          <path class="cls-8" d="M169.22,82.5c2.24-2.48,4.27-3.82,7.58-3.79,2.19,1.98.73,1.93,1.97,4.85l-.2.43c-2.47,5.39-3.15,10.29-10.06,12.72,1.99-3.38,4.15-5.67,6.58-10.05-1.92-2.41-2.71-3.68-5.86-4.16Z"/>
          <path class="cls-8" d="M146.79,138.81l.11-.67c1.04-1.43,8.57-4.84,10.77-6.11,3.64-2.12,11.95-8.84,15.91-7.82-7.46,6.67-16.97,12.3-26.79,14.6Z"/>
          <path class="cls-1" d="M108.56,129.48c5.12,1.59,9.13,2.47,14.5,2.9l.86,3.22c-6.26,1.67-10.42-.07-16.43-1.84.09-2.11.18-2.36,1.08-4.28Z"/>
          <path class="cls-1" d="M196.21,84.63c1.93-1.68-.1-.08,3.19-.37l3.75.65c-1.06,3.49-2.05,9.28-3.05,11.96-1.3-2.18-2.75-1.71-4.82-2.6l-.57-.25c.73-2.69,1.37-4.89,1.06-7.67.43-.39.34-.96.43-1.73Z"/>
          <path class="cls-5" d="M82.96,113.83c1.63.62,2.36.98,4.14,1.21,3.7,3.27.66,2.87,6.49,6.15-3.19,1.32-3.46-.23-6.07,1.45-1.64-.86-4.68-3.25-6.08-4.5.43-1.94.51-2.56,1.53-4.31Z"/>
          <path class="cls-1" d="M70.74,102.54c0,1.7-.38,3.64.83,4.62,3.47,2.82,7.84,4.1,11.39,6.67-1.02,1.75-1.09,2.37-1.53,4.31l-1.18-.56c-2.77-2.68-5.68-5.69-9.31-7.05-1.68-3.19-1.13-4.38-.2-7.99Z"/>
          <path class="cls-1" d="M89.74,97.05c2.94-1.33,9.25.75,11.24,3.41-.16,2.68-3.91,2.17-5.83,1.85-.36-.06-.71-.13-1.07-.2-.59-.29-1.05-.57-1.31-1.13-.56-1.17-4.57-2.06-6.03-2.48l.15-.53,2.85-.93Z"/>
          <path class="cls-1" d="M75.56,70.94c1.68-3.4,3.74-7.8,7.46-9.46l.54.57c-.26,2.24-.48,3.02-1.1,5.16l1.08-.19c-.28,1.53-2.3,2.06-3.66,5.54l-4.32-1.61Z"/>
          <path class="cls-8" d="M181.81,49.63c2.95,1.55,3.94,5.84,4.59,9.12-.88,2.63-.27,2.1-2.04,3.11-1.4.08-3.22-.32-3.97-1.61.54-.18,1.34-.47,1.82-.68,2.37-1.06-.88-4.8-1.02-6.48-.07-.83.38-2.5.63-3.45Z"/>
          <path class="cls-8" d="M178.13,50.49c1.53-.97,1.79-1.62,3.68-.86-.24.94-.69,2.62-.63,3.45.14,1.69,3.39,5.42,1.02,6.48-.48.21-1.29.51-1.82.68l-.18-.12c-.84-1.49-1.43-2.45-2.94-3.08,1.35-1.22,1.42-1.48,2.01-3.22-.11-1.83-.05-1.97-1.14-3.33Z"/>
          <path class="cls-1" d="M72.52,84.53l3.72.05c-1.57,4.35-2.73,5.93-6.88,8.34l-.36.59c-1.3-1.94-.97-1.04-.97-3.7,2.8-1.52,3.15-2.52,4.49-5.29Z"/>
          <path class="cls-8" d="M177.26,57.04c-2.6-1.91-4.35-4.8-2.31-7.78l1.5-.23,1.68,1.46c1.1,1.36,1.03,1.5,1.14,3.33-.59,1.74-.66,2-2.01,3.22Z"/>
          <path class="cls-4" d="M132.6,36.18c2.85-2.51,4.91-1.01,9.82-1.06-.11,1.92-1.03,3.01-2.06,4.68-2.17-.74-4.37-1.42-6.59-2.03,1.59-.74,2.03-.58,2.57-1.78l-1.04-.33c-.96.39-1.65.78-2.71.53Z"/>
          <path class="cls-1" d="M74.69,76.86l3.67.65c-.66,2.18-1.58,4.91-2.11,7.08l-3.72-.05c1.67-2.52,1.71-4.68,2.17-7.67Z"/>
          <path class="cls-1" d="M75.56,70.94l4.32,1.61c-.43,1.26-1.36,3.74-1.52,4.96l-3.67-.65.87-5.92Z"/>
          <path class="cls-1" d="M195.78,86.35c-.44,1.18-.9,2.35-1.39,3.52-.6,1.4-1.13,2.47-2.57,3.04l-.43-.89c.09-2.68,1.96-6.15,3.31-8.49l1.5,1.1c-.09.77,0,1.34-.43,1.73Z"/>
          <path class="cls-1" d="M123.06,132.38c2.38-.02,4.28-.27,6.33.93l.5.86c-1.8,1.66-3.45,1.39-5.97,1.43l-.86-3.22Z"/>
          <path class="cls-8" d="M159.86,41.7c2.32.67,2.97.74,5.33.95-1.55,2.6-2.7,2.84-5.72,2.48-.85-.68-.53-.27-.96-1.3l1.36-2.13Z"/>
          <path class="cls-4" d="M100,37.62l1.12.82c-2.04,1.54-5.06,4.27-7.28,4.93.58-1.77,4.45-4.41,6.15-5.75Z"/>
          <path class="cls-8" d="M78.89,119.17c1.38,1.6,1.96,2.1,2.52,4.21l-.37.83c-1.29.22-1.54-.01-2.71-.57-.49-2.16-.44-2.5.55-4.47Z"/>
          <path class="cls-1" d="M129.84,122.45c4.63-1.79,12.65-3.57,15.83-6.06-1.46,4.43-2.25,1.99-5.44,4.07-.59,2.28-.82,1.89-.3,3.96-7.17,2.3-17.08,5.72-23.73.52l.19-.64c4.02-1.32,7.81.06,12.89-1.65l.56-.19Z"/>
          <path class="cls-5" d="M129.84,122.45c4.63-1.79,12.65-3.57,15.83-6.06-1.46,4.43-2.25,1.99-5.44,4.07l-.46.21c-3.83,1.81-4.51,3.31-9.94,1.78Z"/>
          <path class="cls-4" d="M127.82,96.56c2.39-2.08,4.98-3.71,7.83-1.43,1.26,2.91-1.45,10.54-2.96,13.01-2.22-.57-4.44-.81-6.03-2.36-.63-1.9-.62-1.09,0-3.06.59-3.25-1.23-2.48,1.17-6.16Z"/>
          <path class="cls-8" d="M126.65,102.72c.78-.03,1.8-.16,2.51.02,1.41,1.67,3.16,3.31,3.52,5.4-2.22-.57-4.44-.81-6.03-2.36-.63-1.9-.62-1.09,0-3.06Z"/>
          <path class="cls-4" d="M127.82,96.56c.7,1.35.65,1.47.7,3.03,2.34,1.08,1.91-.45,3.72,1.33-1.38,1.58-1.38.53-3.08,1.82-.71-.18-1.73-.06-2.51-.02.59-3.25-1.23-2.48,1.17-6.16Z"/>
          <path class="cls-1" d="M145.67,116.39c3.75-2.75,13.1-6.43,16.88-1.97l-.27.88c-2.71.96-7.92.96-9.86,1.85-4.33,1.98-7.75,5.23-12.5,7.26-.52-2.07-.29-1.68.3-3.96,3.19-2.08,3.98.36,5.44-4.07Z"/>
          <path class="cls-1" d="M182.62,97.53c.6.49,1.6,1.25,2.12,1.76-2.5,4.43-13.95,13.52-19.28,10.49-.02-.2-.03-.41-.05-.61,3.5-1.61,8.63-3.94,11.65-6.04,2.88-2,3.81-3.29,5.55-5.6Z"/>
          <path class="cls-1" d="M86.9,36.07l.74.65c-.66,1.75-4.96,4.51-6.83,6.97-3.16,4.18-5.26,8.1-7.78,12.61l-.99-.49c-1.55-4.89,9.77-17.75,14.85-19.75Z"/>
          <path class="cls-1" d="M154.61,125.14c-1.28-.31-1.64-.3-2.65-1.18l-.03-1.07c2.07-2.45,4.52-2.25,6.72-.28l2.12-.48c1.02.83.95.87,1.32,2.08-.82,3.6-4.66,5.18-8.01,4.24l-.79-.88c.26-1.63.09-1.06,1.33-2.44Z"/>
          <path class="cls-8" d="M154.61,125.14c-1.28-.31-1.64-.3-2.65-1.18l-.03-1.07c2.07-2.45,4.52-2.25,6.72-.28l-4.04,2.53Z"/>
          <path class="cls-4" d="M119.94,113.49c-1.25-.9-1.23-.57-1.51-1.72,1.81-2.1,4.75-1.86,6.91-.35,1.36,1.21,2.19,1.68,2.56,3.42-2.21,3.22-5.96-.06-7.97-1.35Z"/>
          <path class="cls-4" d="M119.94,113.49c-1.25-.9-1.23-.57-1.51-1.72,1.81-2.1,4.75-1.86,6.91-.35-2.23,1.84-2.48,1.96-5.41,2.07Z"/>
          <path class="cls-8" d="M68.68,66.86c.81-2.66.82-4.36,2.73-6.14l.79.05c.83,3.15-.5,9.52-3.57,11.05-.6-.78-.81-1.44-1.19-2.34l1.23-2.62Z"/>
          <path class="cls-8" d="M100.14,79.06c.83.28,5.37,4.33,8.65,5.72l.35,1.57c.54,2.37.78,2.7.15,5.21l-1.06-.86c-.25-1.62-.27-2.44-.3-4.09-3.91-1.92-7.23-2.8-7.79-7.54Z"/>
          <path class="cls-4" d="M91.75,45.56c.66.88,1.29,1.78,1.91,2.69l-.27,1.34c-1.6,1.5-2.07,2.24-3.29,3.98-1.02.28-.49.21-1.7-.18-.44-2.93,1.65-5.27,3.35-7.84Z"/>
          <path class="cls-4" d="M166.92,57.28c1.78.26,2.48.54,3.32,2.01-.19,1.68-.74,1.96-2.01,3.26-1.81-.85-1.16-.39-2.47-2.22-.01-2.05-.26-1.24,1.15-3.05Z"/>
          <path class="cls-8" d="M98.48,66.08c2.01.14,2.25.1,3.39,1.31-.16,1.98-.35,1.7-1.58,3.43-1.49.23-1.86.21-2.82-.86-.2-1.76.21-2.2,1.01-3.88Z"/>
          <path class="cls-1" d="M187.46,89.65c-.62,4.35-.62,5.77-2.72,9.64-.52-.51-1.52-1.27-2.12-1.76,1.61-2.81,2.97-5.22,4.85-7.88Z"/>
          <path class="cls-1" d="M67.44,69.48l-.75.82-.69-.02c-.43-2.21.54-7.12,2.28-8.64l.41,1.07c-.35,1.76-.48,2.4-.02,4.14l-1.23,2.62Z"/>
          <path class="cls-5" d="M82.19,104.74c2.86,1.04,4.32,2.55,5.32,5.36-2.08-.13-2.6-.11-4.23-1.37-1.08-1.59-1.01-2.03-1.1-3.99Z"/>
          <path class="cls-4" d="M114.64,89.6l.58.21c.35,1.97-.21,3.55-1.61,4.86l-1.59-1.55v-1.01s2.62-2.51,2.62-2.51Z"/>
          <path class="cls-5" d="M91.66,108.41c2.98-.21,4.02.06,5.29,2.74-.84.23-1.48.14-2.34.1-1.74-.82-1.89-1.2-2.95-2.84Z"/>
          <path class="cls-8" d="M206.52,4.43c1.36-2.36,8.65-5.86,11.69-3.8-.11,1.71-.06,1.16-1.56,2.75-.88,4.33-.37,9.65-.31,14.2l.09,2.66c4.23-.52,13.19-3.91,15.25,1.01l1.92,1.69c1.25.07,1.52.06,2.64-.47,3.56,5.17-1.73,10.99-5.21,14.7l-1.89,2.18c.95.73,1.11.96,2.32,1.08,7.98,2.67,11.24,4.62,15.03,11.75.73,3.5,1.34,5.46-2.13,7.65-2.99.74-3.7,1.03-6.47,2.38,2.38,1.29,4.75,3.94,6.42,6.09,2.53,3.09,3.81,4.55,5.52,8.11.17,1.99.36,2.86-.34,4.78-2.81,3.04-11.2.9-16.07,1.7l.45,3.21c.31,1.74.73,3.81.97,5.53l.68,2.26c.34.93.28.98.29,1.98l-1.14.57c-3.61-.08-14.55-6.52-18.22-8.59-3.58-1.77-8.59-3.71-12.62-3.52l-.69.57-3.75-.65c-3.29.29-1.26-1.31-3.19.37l-1.5-1.1,1.01-2.8c.19-.76.04-2.89.33-4.21.52-2.36,1.56-4.63-.17-6.52-.71-1.46-1.75-6.65-2.13-8.5-1.24-6.16-2.01-9.29-4.61-15.03-1.27-2.44-3.77-7.94-5.58-9.4-.23-.12-.79-.67-1.01-.87-1.68-4.92-1.83-4.42,1.37-8.73,6.61-5.49,11.83-13.18,18.25-18.93,1.56-1.4,2.93-2.56,4.36-4.1Z"/>
          <path class="cls-3" d="M183.91,27.45c6.61-5.49,11.83-13.18,18.25-18.93,1.56-1.4,2.93-2.56,4.36-4.1,2.39.96,1.79.36,3.02,2.12.08,1.34.14,2.49.14,3.83l-2.28,2.45c-4.1,5.28-8.35,10.94-12.79,15.92-1.61,1.81-4.21,3.6-5.99,5.23,1.53,2.12,7.04,8.75,7.71,10.25-.12.65-.47,2.56-.18,3.14,3.23,6.62,5.22,14.84,8.29,21.33l3.56.85-.17.48c-1.14-.02-2.66.1-3.61-.4.36.89,1.56,3.33,1.37,4.01-.49,1.97-.89,3.02-.51,5.06l.58.86c-.93,1.79-1.62,2.77-1.83,4.79l-.69.57-3.75-.65c-3.29.29-1.26-1.31-3.19.37l-1.5-1.1,1.01-2.8c.19-.76.04-2.89.33-4.21.52-2.36,1.56-4.63-.17-6.52-.71-1.46-1.75-6.65-2.13-8.5-1.24-6.16-2.01-9.29-4.61-15.03-1.27-2.44-3.77-7.94-5.58-9.4-.23-.12-.79-.67-1.01-.87-1.68-4.92-1.83-4.42,1.37-8.73Z"/>
          <path class="cls-3" d="M183.56,37.05l.93-.94c3.88,2.57,1.67,6.42,7.43,7.97,6.24,6.32,4.87,25.63,7.21,33.85.71,2.5.1,3.79.27,6.31-3.29.29-1.26-1.31-3.19.37l-1.5-1.1,1.01-2.8c.19-.76.04-2.89.33-4.21.52-2.36,1.56-4.63-.17-6.52-.71-1.46-1.75-6.65-2.13-8.5-1.24-6.16-2.01-9.29-4.61-15.03-1.27-2.44-3.77-7.94-5.58-9.4Z"/>
          <path class="cls-3" d="M188.61,33.97c-2.69-3.33,3.5-8.18,5.87-9.92,4.22-3.1,8.09-9.76,12.92-11.23-4.1,5.28-8.35,10.94-12.79,15.92-1.61,1.81-4.21,3.6-5.99,5.23Z"/>
          <path class="cls-4" d="M205.58,73.63c1.41.43,3.3,1.11,4.71,1.24,6.85.29,9.6.33,14.57,5.78.19.21.38.42.56.64l-.03.98c2.28,2.05,5.51,3.16,8.48,3.83.31,1.74.73,3.81.97,5.53l.68,2.26c.34.93.28.98.29,1.98l-1.14.57c-3.61-.08-14.55-6.52-18.22-8.59-3.58-1.77-8.59-3.71-12.62-3.52.21-2.01.89-3,1.83-4.79l-.58-.86c-.39-2.04.01-3.08.51-5.06Z"/>
          <path class="cls-5" d="M216.25,81.36l4.2,1.76.7-.78c1.36.55,3.24,1.38,4.58,1.83l-.34-1.9c2.28,2.05,5.51,3.16,8.48,3.83.31,1.74.73,3.81.97,5.53l.68,2.26c.34.93.28.98.29,1.98l-1.14.57c-3.61-.08-14.55-6.52-18.22-8.59,1.07-3.04.78-3.52-.2-6.5Z"/>
          <path class="cls-8" d="M221.16,82.34c1.36.55,3.24,1.38,4.58,1.83l-.34-1.9c2.28,2.05,5.51,3.16,8.48,3.83.31,1.74.73,3.81.97,5.53l.68,2.26-.86.22c-.86-.19-11.47-9.25-14.21-10.99l.7-.78Z"/>
          <path class="cls-4" d="M225.4,82.26c2.28,2.05,5.51,3.16,8.48,3.83.31,1.74.73,3.81.97,5.53-2.81-1.91-6.09-5.2-9.11-7.46l-.34-1.9Z"/>
          <path class="cls-1" d="M205.66,79.54c4.6-.52,6.19.18,10.59,1.81.99,2.98,1.27,3.46.2,6.5-3.58-1.77-8.59-3.71-12.62-3.52.21-2.01.89-3,1.83-4.79Z"/>
          <path class="cls-8" d="M205.58,73.63c1.41.43,3.3,1.11,4.71,1.24,4.21,3.98,7.88,5,10.86,7.48l-.7.78-4.2-1.76c-4.4-1.64-5.99-2.33-10.59-1.81l-.58-.86c-.39-2.04.01-3.08.51-5.06Z"/>
          <path class="cls-1" d="M233.6,22.92c1.25.07,1.52.06,2.64-.47,3.56,5.17-1.73,10.99-5.21,14.7l-1.89,2.18c-2.51,1.48-3.55,2.1-5.74,3.98l-1.92,1.8c-.96-.42-1.73-1.58-2.43-2.44-1.48-4.73-.86-5.29.97-10.08,4.1-2.49,10.46-6.17,13.58-9.67Z"/>
          <path class="cls-3" d="M223.78,36.18c2.94.22,3.97.46,5.36,3.16-2.51,1.48-3.55,2.1-5.74,3.98l-1.92,1.8c-.96-.42-1.73-1.58-2.43-2.44,1.23-3.84,1.67-4.09,4.73-6.5Z"/>
          <path class="cls-3" d="M223.78,36.18c2.02-2,4.98-4.95,8.03-3.59.64,2.89-.87,2.12-.78,4.56l-1.89,2.18c-1.39-2.7-2.42-2.94-5.36-3.16Z"/>
          <path class="cls-1" d="M229.15,39.33c.95.73,1.11.96,2.32,1.08,7.98,2.67,11.24,4.62,15.03,11.75-3.82,1.97-1.78,2.71-4.05,3.83-1.53-.57-.92-.08-1.77-1.65l.2-1.03c-6.51-6.53-9.73-7.61-19.4-8.19l1.92-1.8c2.19-1.88,3.23-2.5,5.74-3.98Z"/>
          <path class="cls-3" d="M229.15,39.33c.95.73,1.11.96,2.32,1.08l-.17.68c-.23.98-.23,1.31-.27,2.31-2.17,2.18-4.79.69-7.63-.09,2.19-1.88,3.23-2.5,5.74-3.98Z"/>
          <path class="cls-3" d="M207.99,69.54c6.65-2.16,22.94,4.5,21.84,12.17l-.78,1.22c-1.75-.11-2.21-.48-3.62-1.64-.18-.22-.37-.43-.56-.64-4.97-5.45-7.72-5.5-14.57-5.78-1.42-.13-3.31-.8-4.71-1.24.19-.67-1.01-3.12-1.37-4.01.95.49,2.47.38,3.61.4l.17-.48Z"/>
          <path class="cls-3" d="M188.61,33.97c2.54,1.22,4.62,2.5,6.59,4.57.95,2.05,2.46,2.54,3.01,3.91,1.54,1.81,2.44,2.32,2.28,4.52l.07,1.51c.09,1.63,3.01,12.36,3.9,14.42.06.15.71.47.94.59l-.21,1.44c.13,1.12.13,1.43.8,2.4l-1.57,1.36c-3.07-6.49-5.06-14.71-8.29-21.33-.28-.58.06-2.49.18-3.14-.67-1.5-6.17-8.13-7.71-10.25Z"/>
          <path class="cls-1" d="M205.19,64.93c9.34,3.15,24.94,4.96,27.85,16.88l.38,1.07.45,3.21c-2.97-.68-6.2-1.79-8.48-3.83l.03-.98c1.41,1.16,1.87,1.53,3.62,1.64l.78-1.22c1.1-7.67-15.19-14.33-21.84-12.17l-3.56-.85,1.57-1.36c-.67-.97-.68-1.28-.8-2.4Z"/>
          <path class="cls-5" d="M240.68,54.34c.85,1.57.24,1.08,1.77,1.65,2.26-1.11.23-1.85,4.05-3.83.73,3.5,1.34,5.46-2.13,7.65-2.99.74-3.7,1.03-6.47,2.38-1.54-.24-2.77-.87-4.21-1.47.18-1.26.16-.88,1.57-1.94l-4.03-.38c3.14-.63,6.54-2.58,9.45-4.06Z"/>
          <path class="cls-1" d="M235.26,58.79c3.88-.45,5.52-.66,9.11,1.03-2.99.74-3.7,1.03-6.47,2.38-1.54-.24-2.77-.87-4.21-1.47.18-1.26.16-.88,1.57-1.94Z"/>
          <path class="cls-1" d="M195.2,38.54c4.71-2.46,9.44-7.44,14.99-5.44-.9,1.93-1.26,2.1-3.05,3.31-1.95,1.23-7.6,4.61-8.92,6.04-.55-1.36-2.06-1.86-3.01-3.91Z"/>
          <path class="cls-1" d="M206.52,4.43c1.36-2.36,8.65-5.86,11.69-3.8-.11,1.71-.06,1.16-1.56,2.75l-1.67.2c-.64.84-.68.6-.8,1.43.01,2.12-.19,2.94-1.21,4.85l-1.98-.24-1.31.77c0-1.34-.06-2.5-.14-3.83-1.23-1.76-.63-1.16-3.02-2.12Z"/>
          <path class="cls-8" d="M214.19,5.01c.01,2.12-.19,2.94-1.21,4.85l-1.98-.24c.76-1.61,2.09-3.17,3.19-4.61Z"/>
          <path class="cls-5" d="M216.34,17.57l.09,2.66c4.23-.52,13.19-3.91,15.25,1.01-8.04.6-9.44.51-17.32,3.27-1.07-1.02-.26.41-2.17-.84-.35-1.35-.37-.69.2-2.05l2.18-2.41,1.77-1.62Z"/>
          <path class="cls-8" d="M216.34,17.57l.09,2.66c-1.39.67-2.55,1.44-4.03,1.38l2.18-2.41,1.77-1.62Z"/>
          <path class="cls-4" d="M198.21,42.45c1.32-1.43,6.98-4.81,8.92-6.04.79,2.68.22,3.53,1.29,5.77-2.59,1.68-5.23,3.28-7.93,4.8.15-2.2-.75-2.71-2.28-4.52Z"/>
          <path class="cls-5" d="M214.19,5.01c.12-.84.16-.59.8-1.43l1.67-.2c-.88,4.33-.37,9.65-.31,14.2l-1.77,1.62c-.91-.67-2.33-1.52-3.32-2.16,1.83-3.39,1.89-3.48,1.72-7.18,1.02-1.91,1.23-2.72,1.21-4.85Z"/>
          <path class="cls-5" d="M246.85,79.53l.59-.91,1.02.54.71-.34.67-2.41c.17,1.99.36,2.86-.34,4.78-2.81,3.04-11.2.9-16.07,1.7l-.38-1.07c4.45-3.28,9.52-.29,13.8-2.28Z"/>
          <path class="cls-5" d="M233.69,60.73c1.44.61,2.67,1.23,4.21,1.47,2.38,1.29,4.75,3.94,6.42,6.09l-3.11,1.47c-2.48-2.81-5.08-4.24-8.28-6.12.71-.94.65-1.73.76-2.91Z"/>
          <path class="cls-5" d="M244.32,68.29c2.53,3.09,3.81,4.55,5.52,8.11l-.67,2.41-.71.34-1.02-.54-.59.91c-1.59-4.54-2.59-6.02-5.64-9.77l3.11-1.47Z"/>
          <path class="cls-4" d="M210.19,33.1l.54.76c2.12-.09,1.33-.32,3.04.74,1.06,3.36-2.6,6.23-5.34,7.57-1.07-2.24-.5-3.09-1.29-5.77,1.79-1.2,2.16-1.38,3.05-3.31Z"/>
          <path class="cls-1" d="M200.57,48.49c1.23,2.36,1.16,3.17,3.1,4.42,1.81-.13,2.15-.39,3.86-1.14,1.01,1.59,1.37,1.88.77,3.89-2.27.54-3.02.27-4.24,1.77.29,2.6,1.05,3.16,1.35,6.07-.23-.12-.87-.45-.94-.59-.89-2.06-3.81-12.78-3.9-14.42Z"/>
          <path class="cls-1" d="M232.92,63.64c-2.8-1-2.9-.94-3.92-3.54.41-1.7.04-1.35,1.17-2.08l1.06.38,4.03.38c-1.41,1.06-1.39.68-1.57,1.94-.12,1.19-.06,1.97-.76,2.91Z"/>
          <path class="cls-5" d="M207.52,51.76c2.83-.18,4.16-.32,6.94.1-.11,1.02-.13,2.27-.59,3.1-2.17.16-3.44.27-5.59.69.6-2.01.24-2.29-.77-3.89Z"/>
          <path class="cls-5" d="M211.25,17.03c.99.64,2.41,1.49,3.32,2.16l-2.18,2.41c-.58,1.37-.55.7-.2,2.05,1.91,1.25,1.1-.18,2.17.84-.92.48-1.69.93-2.68,1.26-.99-2.13-.14-4.32-.3-7.02l-.13-1.71Z"/>
          <path class="cls-5" d="M211.38,18.74c.16,2.7-.69,4.89.3,7.02-1.6.33-2.16.47-3.01-.99.25-2.27,1.54-4,2.71-6.03Z"/>
          <path class="cls-5" d="M214.47,51.86c2.05.83,2.2.47,3.09,2.11l-.31,1.19c-1.48.81-1.92.84-3.37-.2.46-.84.48-2.08.59-3.1Z"/>
          <path class="cls-1" d="M25.87,58.04c-1.16-1.77-1.8-2.08-1.79-3.91,2.51-.18,4.16,2.02,5.78,3.72l.66.4c.54,2.12,1.05,4.31,1.78,6.37-5.24-1.92-19.29-4.21-23.94-.63-.91,2.87,2.45,5.17,4.46,7.19,2.26,1.71,2.97,1.5,2.88,4.5-2.5,3.92-8.34,7.77-9.34,11.84,1.62,3.02,8.54,1.91,11.72,1.47.94.45,2.93,1.32,3.74,1.8-.46,2.23-.66,4.28-1.92,6.12l-.49.3c-1-.51-3.2-1.33-4.33-1.79-3.22-.75-6.28-.4-9.46-1.8-12.3-5.42-1.43-13.82,4.6-18.66-2.59-2.15-6.39-5.41-6.75-9.01-.14-1.34.29-2.68,1.18-3.69,3.81-4.31,15.14-3.54,21.22-4.21Z"/>
          <path class="cls-1" d="M18.08,88.99c.94.45,2.93,1.32,3.74,1.8-.46,2.23-.66,4.28-1.92,6.12l-.49.3c-1-.51-3.2-1.33-4.33-1.79,1.66-4.19,2.89-1.56,3.01-6.43Z"/>
          <path class="cls-5" d="M25.87,58.04c-1.16-1.77-1.8-2.08-1.79-3.91,2.51-.18,4.16,2.02,5.78,3.72-1.96.86-2.2.64-3.99.19Z"/>
          <path class="cls-1" d="M12.83,71.19c2.26,1.71,2.97,1.5,2.88,4.5-1.91-.07-2.19-.01-3.94-.67-.33-1.59.28-2.09,1.06-3.82Z"/>
          <path class="cls-3" d="M21.82,90.79c7.42,4.6,7.13,5.87,6.29,14.4-3.8,4.96-10.99,10.77-15.85,15.05-.91.56-1.71.96-2.46,1.7-1.55.95-.97.87-2.63.92-1.86-2.15-.98-7.07-.77-10.11,4.34-6.14,10-9.42,13.01-15.53l.49-.3c1.26-1.84,1.46-3.89,1.92-6.12Z"/>
          <path class="cls-5" d="M9.8,121.95c.75-.74,1.55-1.14,2.46-1.7,6.33,12.69,13.74,1.57,22.65,2.89-1.81,1.86-8.46,3.79-11.24,4.7l1.21,6.21c-1.03,1.91-2.06,3.26-1.91,5.34,3.03,5.28,13.69.34,14.01-3.45l.7,1.6c.33.06.89.19,1.2.16-2.25,2.03-4.04,3.73-7.08,4.35-3.05.63-8.2,2.19-11.01.58-1.08-2.25.34-4.4.64-6.97.3-2.54.57-4.97.77-7.51-1.94.03-4.17-.06-6.14-.09-3.51-1.97-4.4-2.6-6.25-6.12Z"/>
          <path class="cls-5" d="M36.98,135.95c1.72-4.15,4.21-7.85,2.88-12.25,5.21,2.75,3.75,10.1,5.02,14.89.41,1.55.87,3.1,1.35,4.62-.6.91-1.52,2.43-2.18,3.22-1.96-2.74-2.85-5.59-5.18-8.73-.3.03-.86-.1-1.2-.16l-.7-1.6Z"/>
          <path class="cls-1" d="M30.52,58.26c3.53,2.96,18.11,10.08,21.9,7.43l.63-1.61.53,2.35c-1.5,4.3-4.85-.03-8.26,3.92l-1.29-.22c-2.76-.34-9.27-3.97-11.73-5.5-.73-2.06-1.24-4.25-1.78-6.37Z"/>
          <path class="cls-1" d="M51.98,92.02c-.09,1.06-.33,3.13-.32,4.1-.97,2.21-16.31,12.45-19.3,14.12,5.15-8.55,11.1-13.51,19.62-18.22Z"/>
          <path class="cls-5" d="M22.62,71.73c9.12-1.45,12.81-.81,21.87-.53l.51.53-.56.15v.71s.91.33.91.33c-.12,3.16-.71,2.82,1.73,5.02l-3.68-.33-1.17-.11c-4.56-2.75-14.34-4.86-19.61-5.77Z"/>
          <path class="cls-1" d="M59.42,102.92c1.87,1.31,2.23,1.54,3.62,3.45q-1.44.63-2.67,1.62l-4.42,4.04c-1.18,1.89-6.66,6.44-8.87,8.63,2.67-7.81,4.87-10.16,9.95-16.59l1.26.72,1.12-1.86Z"/>
          <path class="cls-3" d="M59.42,102.92c1.87,1.31,2.23,1.54,3.62,3.45q-1.44.63-2.67,1.62l-4.42,4.04c-.97-2.6,1.03-4.85,2.35-7.24l1.12-1.86Z"/>
          <path class="cls-1" d="M42.23,77.51l1.17.11c.56,1.4,1.8,3.68,2.15,4.79-6.17-1.36-9.05-.04-14.45-.18l-.31-.87c2.2-3.45,6.05-1.15,10.91-3.59l.52-.27Z"/>
          <path class="cls-5" d="M46.23,143.21c1.88,2.45,3.78,4.34,4.25,7.35l-1.14.66c-2.77-1.33-3.57-2.05-5.29-4.79.66-.79,1.58-2.31,2.18-3.22Z"/>
        </g>
      </g>
      <g>
        <path class="cls-3" d="M261.09,156.82h-79.87c-8.32,0-15.07-6.75-15.07-15.07v-19.87c0-8.32,6.75-15.07,15.07-15.07h79.87c8.32,0,15.07,6.75,15.07,15.07v19.87c0,8.32-6.75,15.07-15.07,15.07Z"/>
        <text class="cls-6" transform="translate(174.25 145.45)"><tspan class="cls-9" x="0" y="0">CA</tspan><tspan class="cls-2" x="54.68" y="0">J</tspan><tspan class="cls-9" x="68.9" y="0">A</tspan></text>
      </g>
    </g>
  </g>
</svg>