<?xml version="1.0" encoding="UTF-8"?>
<svg id="Capa_2" data-name="Capa 2" xmlns="http://www.w3.org/2000/svg" xmlns:xlink="http://www.w3.org/1999/xlink" viewBox="0 0 185.07 220">
  <defs>
    <style>
      .cls-1 {
        fill: url(#Degradado_sin_nombre_5);
      }

      .cls-2 {
        fill: #353a59;
      }

      .cls-3 {
        fill: #2b2d43;
      }

      .cls-4 {
        fill: #e87782;
      }

      .cls-5 {
        fill: #d9042a;
      }

      .cls-6 {
        fill: url(#Degradado_sin_nombre_5-3);
      }

      .cls-7 {
        fill: url(#Degradado_sin_nombre_5-2);
      }

      .cls-8 {
        fill: #f9f2eb;
      }
    </style>
    <linearGradient id="Degradado_sin_nombre_5" data-name="Degradado sin nombre 5" x1="1489.75" y1="753.15" x2="1486.25" y2="765.79" gradientTransform="translate(-873.96 556.87) scale(.62 -.62)" gradientUnits="userSpaceOnUse">
      <stop offset="0" stop-color="#2b2d43"/>
      <stop offset="1" stop-color="#353a59"/>
    </linearGradient>
    <linearGradient id="Degradado_sin_nombre_5-2" data-name="Degradado sin nombre 5" x1="1578.55" y1="702.64" x2="1588.88" y2="726.68" xlink:href="#Degradado_sin_nombre_5"/>
    <linearGradient id="Degradado_sin_nombre_5-3" data-name="Degradado sin nombre 5" x1="1600.41" y1="827.75" x2="1588.61" y2="826.16" xlink:href="#Degradado_sin_nombre_5"/>
  </defs>
  <g id="ICONS">
    <g>
      <path class="cls-8" d="M87.94.81c9.77-.14,15.7-1.71,25.45-.06,5.69,1.39,25.27,5.45,28.88,7.36.18,1.17.38,3.09.97,4.09,7.37,1.29,11.74,2.43,18.35,6.36,2,1.62,1.47,1.53,4.3,1.67-2.23,10.23-4.6,16.98-1.94,27.52-2.72,2.33-3.68,3.28-5.94,6.05l1.73.81,1.98-1.98c2.46-.2,1.94-.5,3.91.4,1.13,1.51,1.29,2.12,1.94,3.91,6.28,7.18,9.62,15.14,10.77,24.62,3.34,12.92,5.99,15.78,4.59,30.24,1.58,5.67.64,21.08.97,27.83.21,4.36,1.34,13.02,1.13,16.7-.31,5.36-1.2,10.93-1.43,16.77l.13,4.27c-4.71,2.38-2.8,2.34-4.99,5.9l-.55,1.11c-1.26,2.81-1.75,3.92-3.51,6.41l.36.98c-.36,1.52-.39,2.01-1.15,3.35-.12,2.63-.21,3.13.67,5.66-1.73,1.61-3.3,3.31-5.46,4.22-3.23,3.05-10.32,6.96-14.57,8.08-4.31,1.33-8.63,2.61-12.97,3.86-1.97.5-4.96,1.36-6.87,1.59-5.39,1.06-13.14.83-18.82.87l-2.11-.05c-11.75,1.38-31.18.18-43.98.4-19.85.28-26.61-2.2-44.88-11.31-3.76-1.9-10.47-4.82-12.9-7.86-2.62-1.81-5.27-4.6-7.29-7.06-1.33-3.35-3.77-8.91-3.77-12.29-.28-2.95-.22-3.42,1.23-6.02l-.08-2.56c-.09-3-.06-6.17-.08-9.19-4-14.28-.86-15.98-.79-29.72.05-9.45-.41-21.08-.63-30.73-.16-3.61-.45-7.67-.31-11.18.57-14.32,8.62-25.74,17.14-36.58-.05-.45-.1-.9-.16-1.36-7.72-2.36-7.77-5.96-7.41-13.35.22-4.44.45-8.59.32-13.04.29-5.53,2.5-10.07,5.44-14.65,1.22.11,3.71.32,4.8-.05C38.19,6.72,55.82,2.61,74.75,3.14c2.32-.12,6.13-.17,8.2-.82,1.44-.52,3.48-1.06,5-1.51Z"/>
      <path class="cls-8" d="M87.94.81c9.77-.14,15.7-1.71,25.45-.06,5.69,1.39,25.27,5.45,28.88,7.36.18,1.17.38,3.09.97,4.09,7.37,1.29,11.74,2.43,18.35,6.36,2,1.62,1.47,1.53,4.3,1.67-2.23,10.23-4.6,16.98-1.94,27.52-2.72,2.33-3.68,3.28-5.94,6.05-2.09-2.06-3.42-1.9-6.29-2.08-1.99,3.92-4.39,2.93-7.2,5.74-3.26.49-12.43,2.58-14.41,2.69-4.38,1.14-10.91-.87-13.05,2.96-2.49,4.47-3.69,4.8-9.53,4.02-10.96-.36-6.07-.13-15.89,1.36-2.23.08-5.05.26-7.22.22-1.1-.72-3.32-3-4.38-4.03-2.04-.48-3.78-1.55-5.64-2.54-2.63-.47-5.43-.81-8.09-1.17-3.44,1-6.84,2.09-10.42,2.27-2.89-1.45-2.64-1.28-4.62-3.89-12.36-2.44-20.48-3.08-32.1-8.7-1.58,1-2.03,1.08-1.9,3.26-7.72-2.36-7.77-5.96-7.41-13.35.22-4.44.45-8.59.32-13.04.29-5.53,2.5-10.07,5.44-14.65,1.22.11,3.71.32,4.8-.05C38.19,6.72,55.82,2.61,74.75,3.14c2.32-.12,6.13-.17,8.2-.82,1.44-.52,3.48-1.06,5-1.51Z"/>
      <path class="cls-8" d="M87.94.81c9.77-.14,15.7-1.71,25.45-.06,5.69,1.39,25.27,5.45,28.88,7.36.18,1.17.38,3.09.97,4.09,7.37,1.29,11.74,2.43,18.35,6.36,2,1.62,1.47,1.53,4.3,1.67-2.6.94-6.26,4.14-7.48,4.42-11.36,2.62-26.14,6.64-37.68,7.25-4.36.63-24.5,1.53-29.51,1.37-6.2,0-9.54.9-15.46,1.43-5.05.45-12.89-.34-18.03-.78-4.65-.41-9.67-1.21-14.32-1.87-3.18-.67-5.94-1.31-9.21-1.55-7.83-1.15-12.19-4.77-16.3-5.42l-.1,1.07c1.43,7.51-3.48,19.05,1.37,24.49-1.58,1-2.03,1.08-1.9,3.26-7.72-2.36-7.77-5.96-7.41-13.35.22-4.44.45-8.59.32-13.04.29-5.53,2.5-10.07,5.44-14.65,1.22.11,3.71.32,4.8-.05C38.19,6.72,55.82,2.61,74.75,3.14c2.32-.12,6.13-.17,8.2-.82,1.44-.52,3.48-1.06,5-1.51Z"/>
      <path class="cls-3" d="M15.64,12.85c1.22.11,3.71.32,4.8-.05C38.19,6.72,55.82,2.61,74.75,3.14l-1.36,1.77c-5.4,1.05-11.37.82-17.13,2.02-3.19.55-16.91,3.23-18.65,5.26l-.31,1.19c-4.88,1.51-8.57,2.74-13.3,4.63,1.59,4.47,13.49,7.07,17.98,7.83-2.13.51-6.3,3-7.76,4.64-7.83-1.15-12.19-4.77-16.3-5.42l-.1,1.07c1.43,7.51-3.48,19.05,1.37,24.49-1.58,1-2.03,1.08-1.9,3.26-7.72-2.36-7.77-5.96-7.41-13.35.22-4.44.45-8.59.32-13.04.29-5.53,2.5-10.07,5.44-14.65Z"/>
      <path class="cls-2" d="M13.66,41.99c2.66-6.29,1.54-13.79,4.15-15.86,1.43,7.51-3.48,19.05,1.37,24.49-1.58,1-2.03,1.08-1.9,3.26-7.72-2.36-7.77-5.96-7.41-13.35.22-4.44.45-8.59.32-13.04.09.78.36,1.67.82,2.28,1.62,2.16.29,5.12,1.43,6.88.84-.83.63-1.1.89-2.53.3,2.22.28,5.54.33,7.87Z"/>
      <path class="cls-8" d="M14.51,44.28c1.55,1.38,1.22,3.94,1.38,6.24-2.48-2.19-1.95-3.22-1.38-6.24Z"/>
      <path class="cls-3" d="M54.52,23.76l2.52.27c2.45.79,3.42,2.09,5.22,3.95h.26c3.06-.09,5.5-.67,8.34-1.73,3.68,0,6.56.52,10.16,1.18-.49.04-.85.15-1.19,0l-.47,1.01-.98-.21-.12.25c2.35.88,4.66.33,5.39,1.2-1.37.87-1.64.84-3.28,1.14l.58-.02c2.59-.06,7.54,1.64,10.3,2.46-6.2,0-9.54.9-15.46,1.43-5.05.45-12.89-.34-18.03-.78-4.65-.41-9.67-1.21-14.32-1.87-3.18-.67-5.94-1.31-9.21-1.55,1.46-1.65,5.63-4.13,7.76-4.64,2.97.5,6.74,1.25,9.66,1.6l2.64-.08c-.36-1.14-.98-1.4-.98-2.85l1.24-.74Z"/>
      <path class="cls-2" d="M70.85,26.25c3.68,0,6.56.52,10.16,1.18-.49.04-.85.15-1.19,0l-.47,1.01-.98-.21-.12.25c2.35.88,4.66.33,5.39,1.2-1.37.87-1.64.84-3.28,1.14l.58-.02c2.59-.06,7.54,1.64,10.3,2.46-6.2,0-9.54.9-15.46,1.43-5.05.45-12.89-.34-18.03-.78-.26-.99-.47-1.65-.79-2.6l.99-.78,1.25.26c-.01,1.13-.13.73.32,1.71l1.66.09c.28-.57.44-1.09.6-1.7,4.64-.81,8.74.97,15.9-.42l.1-.49c-5.02-1.54-10.54-.64-15.24-2.02,3.06-.08,5.5-.66,8.34-1.72Z"/>
      <path class="cls-2" d="M43.42,32.03c.73-.57,2.08-2.3,2.87-2.57,3.49-1.22,8.39-.22,11.66,1.07l-.99.78c.33.95.54,1.61.79,2.6-4.65-.41-9.67-1.21-14.32-1.87Z"/>
      <path class="cls-2" d="M54.52,23.76l2.52.27c2.45.79,3.42,2.09,5.22,3.95-2.87-.12-5.14-.29-7.99-.62-.36-1.14-.98-1.4-.98-2.85l1.24-.74Z"/>
      <path class="cls-2" d="M87.94.81c9.77-.14,15.7-1.71,25.45-.06-2.04-.06-3.84-.34-5.61.55.92,1.37,3.66,1.18,5.33,1.25l.21.93c-1.1,1.17-1.35,1.4-2.65,2.33l-1.67,1.44c-5.14-.92-20.07-.41-26.11-.33l-.82-1.1c-2.48-.69-4.99.2-8.7-.91l1.36-1.77c2.32-.12,6.13-.17,8.2-.82,1.44-.52,3.48-1.06,5-1.51Z"/>
      <path class="cls-8" d="M87.94.81c3,.08,12.36.13,14.65.74-5.17.73-14.99,2.25-19.65.77,1.44-.52,3.48-1.06,5-1.51Z"/>
      <path class="cls-2" d="M113.12,2.54l.21.93c-1.1,1.17-1.35,1.4-2.65,2.33-1.3-1.21-1.05-.66-1.54-2.23,1.31-1.03,2.12-.81,3.98-1.03Z"/>
      <path class="cls-2" d="M113.12,2.54c-1.67-.08-4.41.12-5.33-1.25,1.76-.89,3.57-.6,5.61-.55,5.69,1.39,25.27,5.45,28.88,7.36.18,1.17.38,3.09.97,4.09-12.25-1.86-21.68-3.45-34.24-4.95l1.67-1.44c1.3-.93,1.55-1.17,2.65-2.33l-.21-.93Z"/>
      <path class="cls-2" d="M81.01,27.43c12.45.92,22.34,1.25,34.86,1.47,4.37.46,7.87.19,12.16.29-1.79.68-6.94,1.93-7.29,2.7-4.36.63-24.5,1.53-29.51,1.37-2.76-.83-7.7-2.52-10.3-2.46l-.58.02c1.64-.3,1.91-.27,3.28-1.14-.73-.87-3.04-.32-5.39-1.2l.12-.25.98.21.47-1.01c.34.16.7.05,1.19,0Z"/>
      <path class="cls-5" d="M161.61,18.56c2,1.62,1.47,1.53,4.3,1.67-2.6.94-6.26,4.14-7.48,4.42-11.36,2.62-26.14,6.64-37.68,7.25.35-.77,5.51-2.02,7.29-2.7-4.29-.11-7.79.16-12.16-.29,12.76-3.06,34.06-.64,45.73-10.35Z"/>
      <path class="cls-2" d="M41.97,25.84c-4.5-.77-16.39-3.36-17.98-7.83,4.13,1.83,18.37,4.33,23.47,5.24,1.57,1.79,2.37,2.61,4.16,4.19-2.92-.35-6.69-1.1-9.66-1.6Z"/>
      <path class="cls-5" d="M56.25,6.93c5.77-1.2,11.73-.97,17.13-2.02,3.71,1.11,6.22.22,8.7.91l.82,1.1c-8.27,1.3-15.93,1.18-23.98,1.92l-2.67-1.91Z"/>
      <path class="cls-5" d="M37.29,13.37l.31-1.19c1.73-2.03,15.46-4.71,18.65-5.26l2.67,1.91c-7.46,1.39-14.25,2.68-21.63,4.53Z"/>
      <path class="cls-5" d="M57.04,24.03c5,.62,8.89,1.22,13.82,2.22-2.84,1.06-5.28,1.64-8.34,1.72h-.26c-1.79-1.85-2.76-3.15-5.22-3.94Z"/>
      <path class="cls-5" d="M47.46,23.25c2.34.14,4.73.25,7.05.51l-1.24.74c0,1.45.62,1.71.98,2.85l-2.64.08c-1.79-1.58-2.6-2.4-4.16-4.19Z"/>
      <path class="cls-2" d="M74.42,62.12c9.8,1.11,16.95.84,26.56-.71,1.28,1.05,1.47,1.82,2.37,2.62l-.62.53c2.35,1.64,3.03.89,4.83,2.56-10.96-.36-6.07-.13-15.89,1.36-2.23.08-5.05.26-7.22.22-1.1-.72-3.32-3-4.38-4.03-2.04-.48-3.78-1.55-5.64-2.54Z"/>
      <path class="cls-3" d="M88.98,65.93c2.12-.6,11.52-1.67,13.74-1.37,2.35,1.64,3.03.89,4.83,2.56-10.96-.36-6.07-.13-15.89,1.36-.83-1.38-1.33-1.58-2.68-2.54Z"/>
      <path class="cls-3" d="M80.06,64.66c2.97.46,5.94.89,8.92,1.27,1.35.96,1.85,1.17,2.68,2.54-2.23.08-5.05.26-7.22.22-1.1-.72-3.32-3-4.38-4.03Z"/>
      <path class="cls-3" d="M115.38,60.12c2.38.07,5.99-.79,8.44-1.28,2.14,1.27,3.82,1.16,6.31,1.31-4.38,1.14-10.91-.87-13.05,2.96-2.49,4.47-3.69,4.8-9.53,4.02-1.79-1.67-2.47-.92-4.83-2.56l.62-.53c1.94-.2,2.68-.33,4.57-.85l3.66-2.59,3.81-.47Z"/>
      <path class="cls-2" d="M111.57,60.59l3.81-.47c-2.08,4.31-2.85,3.65-7.47,3.06l3.66-2.59Z"/>
      <path class="cls-2" d="M123.82,58.84c1.54-.25,5.43-.36,6.76-.79,7.66-2.49,13.03-5.1,21.16-6.33-1.99,3.92-4.39,2.93-7.2,5.74-3.26.49-12.43,2.58-14.41,2.69-2.49-.15-4.16-.04-6.31-1.31Z"/>
      <path class="cls-3" d="M51.29,59.32c5.3.87,9.67,1.21,15.04,1.62-3.44,1-6.84,2.09-10.42,2.27-2.89-1.45-2.64-1.28-4.62-3.89Z"/>
      <path class="cls-2" d="M100.98,61.41c2.01-.56,8.55-.85,10.59-.83l-3.66,2.59c-1.88.52-2.62.65-4.57.85-.9-.79-1.08-1.57-2.37-2.62Z"/>
      <path class="cls-2" d="M41.63,38.77c1.07-1.74.93-2.15,2.58-2.98,1.88.66,3.18,2.47,4.59,4.02l-2.71,5.74c.04,2.76.54,4.44-1.62,6.38-2.93-.44-3.09-3.65-2.89-6.16l.04-4.41v-2.59Z"/>
      <path class="cls-5" d="M41.58,45.78c1.75.49,2.98,1.26,4.52-.23.04,2.76.54,4.44-1.62,6.38-2.93-.44-3.09-3.65-2.89-6.16Z"/>
      <path class="cls-2" d="M43.35,37.67c1.76.76,2.4,1.09,3.06,2.8l-.74,1.17-2.69-.38-.49-.67.86-2.92Z"/>
      <path class="cls-5" d="M21.51,37.61c.56-2.25.72-6.14,3.34-6.31,1.48,1.43,1.68,3.3,2.22,5.38-.24,3.14-.57,9.55-3.46,11.17-2.91-1.21-2.14-7.44-2.09-10.24Z"/>
      <path class="cls-2" d="M21.51,37.61c.56-2.25.72-6.14,3.34-6.31,1.48,1.43,1.68,3.3,2.22,5.38l-.75,1.8c-2.48.75-1.44.73-3.93.05l-.88-.92Z"/>
      <path class="cls-2" d="M53.24,43.27c.59-2.03.79-3.8,2.41-4.98,3.18.47,4.08,6.74,3.13,9.4-.37,1.31-.88,2.91-1.11,4.23-.24,1.38-.15,1.44-1.11,2.52l-.9-.08c-1.53-1.5-1.53-1.91-1.88-4.05l-.55-7.04Z"/>
      <path class="cls-2" d="M53.24,43.27c1.78,2.38,2.33,4.22,5.54,4.42-.37,1.31-.88,2.91-1.11,4.23-.24,1.38-.15,1.44-1.11,2.52l-.9-.08c-1.53-1.5-1.53-1.91-1.88-4.05l-.55-7.04Z"/>
      <path class="cls-5" d="M53.79,50.31c1.29.49,2.67.98,3.89,1.61-.24,1.38-.15,1.44-1.11,2.52l-.9-.08c-1.53-1.5-1.53-1.91-1.88-4.05Z"/>
      <path class="cls-5" d="M32,38.27c.63-2.34.36-2.83,1.89-4.39,2.09.71,1.92,3.2,1.96,5.14.07.78.02,1.27.33,1.96.05,2.57-.03,3.07-.6,5.56-.12,2.04,0,2.43-1.06,4.07l-.67.04c-3.08-2.8-2.28-8.39-1.92-12.06l.05-.33Z"/>
      <path class="cls-5" d="M35.59,46.54c-.12,2.04,0,2.43-1.06,4.07l-.67.04c-3.08-2.8-2.28-8.39-1.92-12.06.31,2.51.06,6.16.91,7.83,1.51.71.85.59,2.73.11Z"/>
      <path class="cls-5" d="M32,38.27c.63-2.34.36-2.83,1.89-4.39,2.09.71,1.92,3.2,1.96,5.14-.25-.53-.64-1.12-.95-1.64-1.18.6-1.26.63-2.59.84l-.31.05Z"/>
      <path class="cls-5" d="M154.51,33.55c.95.28,1.51.7,2.34,1.21,2.11,3.35,2.17,10.35,1.43,14.11-6.3-1.61-3-9.69-3.68-14.72l-.09-.6Z"/>
      <path class="cls-5" d="M143.24,35.67c2.53,2.28,3.18,13.33,1.42,16.03-.8-.3-1.48-.62-2.25-.97-1.61-2.91-1.02-12.42.83-15.07Z"/>
      <path class="cls-5" d="M127.82,38.39c4.83.92,4.11,13.65,2.48,16.55-5.47-5.08-.58-9.03-2.48-16.55Z"/>
      <path class="cls-5" d="M114.05,39.28c.85.29,1.79.56,2.05,1.42,1.09,3.57,1.55,11.01.15,14.48l-1.77-.83c-1.24-2.22-.64-11.99-.43-15.07Z"/>
      <path class="cls-2" d="M66.16,46.66c-.09-2.42-.46-4.71.58-6.79,1.55-1.14.71-.93,2.59-.7,2.52,2.11,2.88,5.07,2.12,8.16-1.8.38-3.45-.22-5.29-.66Z"/>
      <path class="cls-5" d="M71.45,47.32c-.72,3.02-.15,6.37-3.21,7.83l-1-.82c-1.2-2.15-1.01-5.13-1.08-7.68,1.84.44,3.49,1.05,5.29.66Z"/>
      <path class="cls-4" d="M35.85,39.01c1.38-.01,4.67.16,5.78-.24v2.59s-5.45-.39-5.45-.39c-.31-.69-.27-1.18-.33-1.96Z"/>
      <path class="cls-3" d="M17.28,53.88c-.13-2.17.32-2.26,1.9-3.26,11.62,5.62,19.74,6.26,32.1,8.7,1.98,2.61,1.73,2.44,4.62,3.89,3.58-.18,6.98-1.27,10.42-2.27,2.66.36,5.46.7,8.09,1.17,1.87.99,3.61,2.06,5.64,2.54,1.06,1.03,3.28,3.32,4.38,4.03,2.17.04,4.99-.14,7.22-.22,9.82-1.49,4.93-1.71,15.89-1.36,5.83.79,7.04.46,9.53-4.02,2.13-3.83,8.67-1.82,13.05-2.96,1.98-.11,11.15-2.2,14.41-2.69,2.81-2.81,5.21-1.82,7.2-5.74,2.87.18,4.21.02,6.29,2.08l1.73.81,1.98-1.98c2.46-.2,1.94-.5,3.91.4,1.13,1.51,1.29,2.12,1.94,3.91,6.28,7.18,9.62,15.14,10.77,24.62-.1,1.87.07,2.89-1.1,4.3l-.72-.2c-.77-1.52-1.1-2.18-1.63-3.79l-2.11,1.83-.62.94c2.35,3.28.7,5.62-1.58,8.13l-7.56.87c-8.74,1.73-7.07,2.83-13.45,7.42-12.26,3.47-14.29.3-23.11,1.68-1.99,1.27-19.79,1.07-23.3,1.51-2.9.37-6.09,1.83-9.03,2.33-22.22,3.83-37.09.32-57.9-5.8-15.7-4.61-12.78-.61-28.53-10.37-1.3-.79-1.67-1.23-2.77-2.3l-1.26,4.39c-1.48,3.42-3.19,6.72-3.07,10.5-.16-3.61-.45-7.67-.31-11.18.57-14.32,8.62-25.74,17.14-36.58-.05-.45-.1-.9-.16-1.36Z"/>
      <path class="cls-3" d="M36.55,67.59c14.39,3.73,28.64,4.12,43.16,7.57,2.42.57,5.37.4,7.78,1.04-1.06,4.29-9.36,9.58-8.31,12.89,1.72.18,2.16,0,3.88-.36l.36.46c-3.62,6.58-21.98.13-27.96.02-3.28-.06-14.55,1.07-16.98,2.26.22-1.14,1.47-2.71,2.16-3.73-.25-1.32-.18-1.29-1.18-2.29-.11,2.05.04,1.32-1.65,3.19-4.72,1.02-9.55-5.68-13.18,2.31-.78-1.57-.86-1.61-2.23-2.76,1.58-.21,2.93-1.44,4.29-2.41.35-1.35.44-1.71.53-3.1-.51-.98-.72-1.34-.8-2.48.88-4.42,2.51-2.86,4.07-7.45l.31-.42c3.1-.53.22-1.28,4.19-2.06,1.31-1.1.92-.83,1.56-2.72Z"/>
      <path class="cls-2" d="M30.81,72.37c3.1-.53.22-1.28,4.19-2.06l1.13,1.63c-.53.63-.27.56-.89.77-1.18,1.52-1.51,1.78-3.34,2.41l-.26.95c.98,1.67.45,1.23,2.03,2.18l1.12-.48c-.42-.95-.73-1.12-1.48-1.85l.68-.71c1,.74,1.09.71,1.73,1.83-.74,2.51.8,5.81,2.45,7.75l1.31.69c-.11,2.05.04,1.32-1.65,3.19-4.72,1.02-9.55-5.68-13.18,2.31-.78-1.57-.86-1.61-2.23-2.76,1.58-.21,2.93-1.44,4.29-2.41.35-1.35.44-1.71.53-3.1-.51-.98-.72-1.34-.8-2.48.88-4.42,2.51-2.86,4.07-7.45l.31-.42Z"/>
      <path class="cls-2" d="M26.43,80.23c.88-4.42,2.51-2.86,4.07-7.45l.12,1.6c.03.2.38,2.52.38,2.52.92,1.61,2.37,1.58,1.43,2.87l-2.04-.93-.61.38c-.27,1.99-.26,2.41-.04,4.41-1.02,1.62-.91,1.36-3.05,2.17.35-1.35.44-1.71.53-3.1-.51-.98-.72-1.34-.8-2.48Z"/>
      <path class="cls-2" d="M30.81,72.37c3.1-.53.22-1.28,4.19-2.06l1.13,1.63c-.53.63-.27.56-.89.77-1.79.89-2.61,1.45-4.61,1.68l-.12-1.6.31-.42Z"/>
      <path class="cls-2" d="M37.82,88.67c-1.07-1.07-1.46-2.71-.94-4.11l1.28.23,1.31.69c-.11,2.05.04,1.32-1.65,3.19Z"/>
      <path class="cls-2" d="M10.68,82.8c2.12,1.72,2.97,2.63,5.78,2.79l.49-.09,4.92,2.53.54.2c1.37,1.15,1.45,1.19,2.23,2.76,3.63-7.99,8.46-1.28,13.18-2.31,1.69-1.88,1.54-1.14,1.65-3.19,1,1,.94.97,1.18,2.29-.7,1.02-1.94,2.59-2.16,3.73l.87,1.98c.5,1.74,1.6,5,1.53,6.62,1.09.26,4.69,1.18,5.68,1.29,7.05,1.18,25.15,3.34,31.74,2.28l.88-.06,2.91-.66c4.76-5.67,18.72-3.58,26.24-3.7,2.95.51,4.3,1.43,6.95,2.88,1.98-1.95,4.18-3.97,5.78-6.23,1.18,1.53,1.49,3.42,2,5.33-.46.8-.25.56-.96,1.1,2.24,1.07,1.88-.13,4.37.38-1.99,1.27-19.79,1.07-23.3,1.51-2.9.37-6.09,1.83-9.03,2.33-22.22,3.83-37.09.32-57.9-5.8-15.7-4.61-12.78-.61-28.53-10.37-1.3-.79-1.67-1.23-2.77-2.3l.24-1.45.15-.45c4.07-.28,2.68-.9,5.35-3.41Z"/>
      <path class="cls-3" d="M10.68,82.8c2.12,1.72,2.97,2.63,5.78,2.79l.49-.09,4.92,2.53.54.2c1.37,1.15,1.45,1.19,2.23,2.76,3.63-7.99,8.46-1.28,13.18-2.31,1.69-1.88,1.54-1.14,1.65-3.19,1,1,.94.97,1.18,2.29-.7,1.02-1.94,2.59-2.16,3.73l.87,1.98c.5,1.74,1.6,5,1.53,6.62l-.86-.46-.2-1.55-.38.6c-1.22.61-2.64-.3-4.05-.54-1.06-.18-1.23-1.18-1.85-2.38l-.92-.16-1.63,1.18c-1,.64-1.05.79-2.24.74-5.21-.8-15.79-3.44-18.29-8.41l.49-1.38c-2.8-.79-2.74-1.64-5.76-1.09l.15-.45c4.07-.28,2.68-.9,5.35-3.41Z"/>
      <path class="cls-3" d="M39.46,85.48c1,1,.94.97,1.18,2.29-.7,1.02-1.94,2.59-2.16,3.73l.87,1.98c.5,1.74,1.6,5,1.53,6.62l-.86-.46-.2-1.55-.38.6c-1.22.61-2.64-.3-4.05-.54-1.06-.18-1.23-1.18-1.85-2.38l-.92-.16-1.63,1.18c-.58-1.36-.53-.66,0-2.17l.69.13c1.98-2.48-.97-.53,1.49-4.75-.68-1.78-.19-1.27-1.69-2.08-3.75.73-4.02,2.32-5.67,3.67l-1.17-.61c3.63-7.99,8.46-1.28,13.18-2.31,1.69-1.88,1.54-1.14,1.65-3.19Z"/>
      <path class="cls-2" d="M10.68,82.8c2.12,1.72,2.97,2.63,5.78,2.79l-1.32.72-.74,2.71-3.44-1.28c-2.8-.79-2.74-1.64-5.76-1.09l.15-.45c4.07-.28,2.68-.9,5.35-3.41Z"/>
      <path class="cls-2" d="M16.95,85.49l4.92,2.53c-2.44.6-5.17,1.6-7.48,1l.74-2.71,1.32-.72.49-.09Z"/>
      <path class="cls-2" d="M28.74,97.53c-.17-1.55-.06-2.57.03-4.12.36-.52.38-.74.85-.97l1.37,2.19c-.53,1.51-.58.81,0,2.17-1,.64-1.05.79-2.24.74Z"/>
      <path class="cls-3" d="M79.18,103.61l2.91-.66c4.76-5.67,18.72-3.58,26.24-3.7-1.91,1.13-2.84,1.68-3.21,4.18-10.23.57-15.89.36-25.94.18Z"/>
      <path class="cls-5" d="M26.96,66.1c1.17.64,2.22,1.28,3.5,1.63,1.13.03,2.27.13,3.38-.05l-.15-.68,2.86.59c-.64,1.89-.24,1.62-1.56,2.72-3.97.78-1.09,1.53-4.19,2.06l-.31.42c-1.56,4.59-3.19,3.02-4.07,7.45.08,1.14.29,1.5.8,2.48-.09,1.38-.18,1.74-.53,3.1-1.36.97-2.71,2.2-4.29,2.41l-.54-.2-4.92-2.53c1.02-1.01.97-.96,1.49-2.32-.41-1.13-.59-1.43-.52-2.66l1.84-.76c2.81-4.24,1.68-10.55,7.2-13.65Z"/>
      <path class="cls-2" d="M33.69,67.01l2.86.59c-.64,1.89-.24,1.62-1.56,2.72-3.97.78-1.09,1.53-4.19,2.06l-.31.42c-1.56,4.59-3.19,3.02-4.07,7.45-2.65-3.82.93-3.72,1.38-5.03-1.06-.73-1.54-1.12-2.5-1.97l.26-.8,2.09-.23.51-.75-.63-1.42c.49-1.46,1.17-1.38,2.92-2.28,1.13.03,2.27.13,3.38-.05l-.15-.68Z"/>
      <path class="cls-2" d="M33.69,67.01l2.86.59c-.64,1.89-.24,1.62-1.56,2.72-3.97.78-1.09,1.53-4.19,2.06l.47-1.9c.87-1.04,1.23-1.26,2.46-1.83l.11-.95-.15-.68Z"/>
      <path class="cls-8" d="M19,67.58c.23-2.53.38-3.4,2.58-4.44,2.21.05,3.69,1.1,5.69,2.15l-.31.82c-5.52,3.1-4.38,9.42-7.2,13.65l-1.84.76c-.07,1.23.12,1.53.52,2.66-.53,1.35-.47,1.3-1.49,2.32l-.49.09c-2.81-.16-3.66-1.07-5.78-2.79l-.81-.81c.62-.08,2.3-.26,2.5-.96,1.7-5.84,2.82-8.7,6.63-13.44Z"/>
      <path class="cls-3" d="M66.33,60.95c2.66.36,5.46.7,8.09,1.17,1.87.99,3.61,2.06,5.64,2.54,1.06,1.03,3.28,3.32,4.38,4.03-3.81-.01-9.65.19-13.13-.95-2.97-.33-5.71-.58-8.65-1.23-1.29-.12-7.76-.55-8.27-1.07,1.7-.3,3.49-.3,4.63-1.26-.9-.94-1.45-.7-3.1-.96,3.58-.18,6.98-1.27,10.42-2.27Z"/>
      <path class="cls-3" d="M62.66,66.51c2.71-1.39,6.43-.97,8.65,1.23-2.97-.33-5.71-.58-8.65-1.23Z"/>
      <path class="cls-3" d="M167.76,76.74c.52,2.11,1.2,3.17,2.22,5.05,1.86.82,1.98.49,2.82,1.89l-.62.94c2.35,3.28.7,5.62-1.58,8.13l-7.56.87c1.89-.84,7.26-2.87,8.32-4.14-.73-.88-5.95-2.41-7.59-3.03-1.24-2.54-2.57-3.77-3.38-6.52l2.4,1.08c1.57-.43,1.59-1,2.77-2.48l1.14-.22,1.08-1.57Z"/>
      <path class="cls-3" d="M167.76,76.74c.52,2.11,1.2,3.17,2.22,5.05-1.76-.79-2.35.19-3.75-.84l.46-2.64,1.08-1.57Z"/>
      <path class="cls-3" d="M47.12,98.4c2.88,1.03,17.67-1.16,20.25,1.67,3.85,4.23,5.14,3.41,10.92,3.6-6.59,1.06-24.68-1.1-31.74-2.28.21-.93.39-2.04.56-2.99Z"/>
      <path class="cls-3" d="M157.9,69.72c-2.38.16-3.96,2.05-6.18,1.09-.51-5.78,5.75-7.66,10.37-10.5l3.16,6.13c-1.24.81-3.55,2.42-4.81,2.95l-2.54.32Z"/>
      <path class="cls-5" d="M14.29,68.94c1.31-.47,3.33-.97,4.72-1.36-3.81,4.75-4.93,7.61-6.63,13.44-.2.7-1.89.88-2.5.96l.81.81c-2.67,2.52-1.28,3.14-5.35,3.41,3.64-8.54,3.13-9.8,8.95-17.26Z"/>
      <path class="cls-3" d="M151.74,51.71c2.87.18,4.21.02,6.29,2.08l1.73.81c-3.54,2.13-11.02,2.9-15.23,2.85,2.81-2.81,5.21-1.82,7.2-5.74Z"/>
      <path class="cls-2" d="M169.74,71.97c1.93,3,4.52,6.42,5.17,9.88l-2.11,1.83c-.84-1.4-.96-1.08-2.82-1.89-1.02-1.88-1.69-2.94-2.22-5.05,1.09-1.43.93-2.31,1.03-4.13l.95-.64Z"/>
      <path class="cls-3" d="M165.25,66.45l1.37,1.25c1.04,1.37,2.2,2.83,3.12,4.27l-.95.64c-.09,1.81.06,2.7-1.03,4.13-1.31-4.5-2.5-6.01-7.32-7.34,1.26-.53,3.56-2.14,4.81-2.95Z"/>
      <path class="cls-3" d="M166.62,67.7c1.04,1.37,2.2,2.83,3.12,4.27l-.95.64c-.87-.57-1.54-1.33-2.27-2.08-.5-1.87-.58-1.13.1-2.84Z"/>
      <path class="cls-3" d="M39.35,93.47c3.12,2.91,3.65,3.64,7.77,4.92-.18.95-.36,2.06-.56,2.99-.99-.11-4.59-1.03-5.68-1.29.07-1.62-1.03-4.89-1.53-6.62Z"/>
      <path class="cls-3" d="M160.44,69.4c4.82,1.33,6.02,2.83,7.32,7.34l-1.08,1.57-1.14.22c.44-1.16,1.21-5.08-.48-5.29-4.28-.54-4.18-.66-7.17-3.52l2.54-.32Z"/>
      <path class="cls-8" d="M27.27,65.29l6.42,1.72.15.68c-1.11.18-2.24.08-3.38.05-1.29-.35-2.33-1-3.5-1.63l.31-.82Z"/>
      <path class="cls-3" d="M130.95,72.61c.41.6-1.49,13.65-2.76,14.97l-.73-.2c1.06-.38.98-.39,1.69-1.28.64-2.42.39-3.2,0-5.66l-1.06-.54c-2.33-.4-2.82-.33-4.97.65-1.33-.29-2.13-1.36-3.11-2.37.7-.94,1.87-.87,3.31-1.15l.49-.79c-1.15-.07-1.47-.06-2.62-.34,5.19-.25,5.42-.82,9.75-3.27Z"/>
      <path class="cls-3" d="M111.63,74.13l.72.17.24.83c-3.47,6.43-8.97.27-14.01,2.88l-.72-.33-.25-1.12c2.99-1.39,8.67-.34,14.02-2.44Z"/>
      <path class="cls-3" d="M110.4,87.81c3.9.81,7.87-.84,12.25.27l-.32.08c-1.3.32-12.88,1.52-13.28,1.28l1.35-1.63Z"/>
      <path class="cls-3" d="M12.46,177.7c.64-1.33.37-.89,1.98-1.69,2.46-.14,4.63.87,6.97,1.71l7.01.06.9.82c8.02,4.09,11.69,2.6,17.7,4.65l.53,2.71c8.1,1.12,16.17,2.64,24.14,4.53.04,0,.08,0,.12,0,.91.76,1.92,1.54,2.71,2.4-.6.7-.56.64-1.46.89l.39.37c3.37,2.55,9.06,1.39,14.17,2.58,2.14-.5,6.16.47,8.51.89,3.53-1.17,5.24-.34,8.8-.17,1.91.09,6.04-.74,7.48-.33l4.14-.11c1.52-.66,4.62-.84,6.25-.47,1.17.27.94,2.4.9,3.38,1.4,2.2,1.99,1.85,4.59,1.96,6.08,3.79,4.84,5.69,11.16,4.71,1.32.47,3.11,1.73,3.38,3.16-2.82,1.45-4.94,2.61-8.21,2.62,1.62,2.79,3.83,1.15,6.94,4.5-1.97.5-4.96,1.36-6.87,1.59-5.39,1.06-13.14.83-18.82.87l-2.11-.05c-11.75,1.38-31.18.18-43.98.4-19.85.28-26.61-2.2-44.88-11.31-3.76-1.9-10.47-4.82-12.9-7.86,2.44-3.2-.91-3.07.09-6.55l1.33-.35.3-.74c-.97-1.16-1.36-1.44-1.73-2.86,1.24-1.93,4.18-1.64,6.87-4.84l.41-.49-2.23-.67-3.02-2.01-1.58-4.36Z"/>
      <path class="cls-2" d="M25.31,206.41c10.02,4.72,21.97,6.02,32.62,8.73,4.38,1.12,8.61,1.34,11.87,4.59-19.85.28-26.61-2.2-44.88-11.31l.39-2.01Z"/>
      <path class="cls-3" d="M19.29,184.74c1.12,1.5.83.8,1.1,2.65,2.52-.1,8.51,4.23,10.63,5.89l-.33.2c-3.79-1.53-11.72-5.4-15.18-4.41-4.71,7.27,13.63,11.54,17.9,13.16.38.14,1.14,1.42,1.37,1.8-3.49,1.06-16.31-5.05-19.43-5.04.91,2.68,7.35,5.99,9.97,7.4l-.39,2.01c-3.76-1.9-10.47-4.82-12.9-7.86,2.44-3.2-.91-3.07.09-6.55l1.33-.35.3-.74c-.97-1.16-1.36-1.44-1.73-2.86,1.24-1.93,4.18-1.64,6.87-4.84l.41-.49Z"/>
      <path class="cls-2" d="M115.35,214.91c-.52-1.03-.46-.51-.24-1.59,2.61-.84,11.91-1.23,14.75-.9,1.53.14,3.75-.18,4.76-.01,1.62,2.79,3.83,1.15,6.94,4.5-1.97.5-4.96,1.36-6.87,1.59-5.39,1.06-13.14.83-18.82.87v-3.09s2.19-.92,2.19-.92l.18-.76c-1.75-.42-1.06-.39-2.91.3Z"/>
      <path class="cls-2" d="M115.88,216.29l.74.03c6.83.19,13.73-4.38,18.1,2.19-5.39,1.06-13.14.83-18.82.87v-3.09Z"/>
      <path class="cls-3" d="M52.93,197.94c3.73.69,14.84,1.59,18.57,1.38l.56-.76c-.43-1.07-.75-1.71-1.28-2.73.86-1.47.53-.99,2.67-1.65,3.37,2.55,9.06,1.39,14.17,2.58l.61.21c.93.31,1.36.34,2.32.46-2.01,1.41-10.42-2.21-13.43.37l-.03,1.24.92.55,2.26-1.12c2.29,1.26,3.79,2.61,5.99,2.16.74-.68,1.64-1.68,2.51-1.98l.25.98c-1.19,1.52-2,1.72-3.74,2.54l-.25-.45c-3.4-2.03-25.63-.54-32.91-2.68l.8-1.1Z"/>
      <path class="cls-3" d="M29.32,178.61c8.02,4.09,11.69,2.6,17.7,4.65l.53,2.71c-3.77-.42-11.53-1.98-15.18-2.97-1.91-1.68-2.25-1.92-3.05-4.39Z"/>
      <path class="cls-2" d="M115.35,214.91c1.86-.69,1.16-.72,2.91-.3l-.18.76-2.21.92v3.09s-2.09-.05-2.09-.05c-1.79.05-6.83.31-8.12-.74,2.99-2.26,8.28-2.25,9.69-3.68Z"/>
      <path class="cls-3" d="M28.42,177.79l.9.82c.8,2.47,1.14,2.71,3.05,4.39-5.56-.58-6.96-1.63-10.95-5.28l7.01.06Z"/>
      <path class="cls-3" d="M112.88,200.47c-.71,1.18-3.5,2.03-4.85,2.15-1.81-.94-1.5-.45-2.38-1.98,1.15-1.04.61-.76,2.51-.77,1.16-1.19,1.48-1.78,3.02-2.03.44,1.54.46,1.58,1.71,2.64Z"/>
      <path class="cls-3" d="M82.92,207.56c2.87-2.51,2.7-2.99,6.56-2.26.89.65,1.24.88,2.35,1.17-3.05,1.72-1.77-.14-4.53,2.56-2.66-.18-2.33-1.15-4.38-1.46Z"/>
      <path class="cls-4" d="M129.87,212.42c4.41-1.37,8.44-3.1,12.97-2.63-2.82,1.45-4.94,2.61-8.21,2.62-1.01-.17-3.24.15-4.76.01Z"/>
      <path class="cls-3" d="M85.04,201.72l.25.45c2.44,3.45,1.98,1.02,4.19,3.13-3.86-.73-3.69-.25-6.56,2.26.02-3.4.93-2.77,2.12-5.84Z"/>
      <path class="cls-2" d="M112.41,197.15l4.14-.11.17.92c-1.58,1.42-1.91,1.59-3.84,2.51-1.25-1.05-1.27-1.1-1.71-2.64l1.23-.68Z"/>
      <path class="cls-3" d="M52.13,199.04c-1.91-.18-3.69-.1-5.17-1.18l.58-.48c2.4-.31,3.12-.02,5.39.56l-.8,1.1Z"/>
      <path class="cls-3" d="M161.95,177.28c3.2,4.03,6.28-2.91,11.25-.53l-.08,1.74,2.59,2.85,1.21.62,1.84,1.29-.55,1.11c-1.26,2.81-1.75,3.92-3.51,6.41l.36.98c-.36,1.52-.39,2.01-1.15,3.35-.12,2.63-.21,3.13.67,5.66-1.73,1.61-3.3,3.31-5.46,4.22-3.23,3.05-10.32,6.96-14.57,8.08-4.31,1.33-8.63,2.61-12.97,3.86-3.11-3.35-5.32-1.71-6.94-4.5,3.27-.01,5.39-1.17,8.21-2.62-.27-1.43-2.06-2.69-3.38-3.16-6.32.98-5.08-.92-11.16-4.71-2.6-.11-3.19.24-4.59-1.96.03-.98.27-3.12-.9-3.38-1.64-.37-4.73-.2-6.25.47l-4.14.11c-1.44-.41-5.57.43-7.48.33-3.56-.17-5.27-1-8.8.17-2.34-.43-6.37-1.39-8.51-.89-5.11-1.19-10.8-.03-14.17-2.58l-.39-.37c.9-.25.86-.19,1.46-.89-.79-.86-1.8-1.64-2.71-2.4l1.72-.51.66.48-.33,1.2c8.79,3.36,43.09-1.1,52.01-4.42,8.76.18,27.39-7.19,36.08-9.98Z"/>
      <path class="cls-3" d="M175.7,181.34l1.21.62,1.84,1.29-.55,1.11c-1.26,2.81-1.75,3.92-3.51,6.41l.36.98-.94-.66c-1.28.64-2.74,1.75-3.44,3-1.23,1.58-3.36,3.29-5.39,3.56-1.58-.92-1.29-1.67-2.42-3.27-2.78-3.95-3.51.24-7.03-.49-1.12-2.39.73-3.2,2.33-4.51,6.69-2.53,11.52-4.16,17.54-8.03Z"/>
      <path class="cls-3" d="M174.69,190.77c-.17-2.06-.25-4.56.55-6.44,1.51-.79.85-.64,2.96.03-1.26,2.81-1.75,3.92-3.51,6.41Z"/>
      <path class="cls-3" d="M170.68,194.08c-.37,1.27-.57,1.57-1.19,2.69-1.97,1.03-4.73,2.6-6.91,2.35-1.22-1.64-.26-2.05-.53-4.95-2.37-1.16-6.12,2.83-10.37,2.86l-.34-.66c1-2.64,3.67-7.2,6.84-7-1.6,1.3-3.45,2.11-2.33,4.51,3.52.73,4.25-3.46,7.03.49,1.13,1.6.84,2.35,2.42,3.27,2.04-.27,4.16-1.98,5.39-3.56Z"/>
      <path class="cls-2" d="M154.54,213.06c-.44-1.77,12.78-10.28,15.03-12.09-.75,1.34-1.33,2.34-2.2,3.6l.52.47,1.22-.07c-3.23,3.05-10.32,6.96-14.57,8.08Z"/>
      <path class="cls-2" d="M169.57,200.97c1.54-2.67,2.29-3.53,4.33-5.88-.12,2.63-.21,3.13.67,5.66-1.73,1.61-3.3,3.31-5.46,4.22l-1.22.07-.52-.47c.86-1.27,1.45-2.27,2.2-3.6Z"/>
      <path class="cls-2" d="M3.68,92.49c.85,1.72,1.08,2.4,3.15,2.94.53,10.53-.37,21.24-.06,31.65.43,14,1.73,29.2,1.91,43.16l1.53.29c.57,1.97,1.31,2.78.16,4.65.27,1.33.78,1.36,2.07,2.51l1.58,4.36,3.02,2.01,2.23.67-.41.49c-2.69,3.19-5.63,2.9-6.87,4.84.37,1.41.76,1.7,1.73,2.86l-.3.74-1.33.35c-1,3.48,2.35,3.34-.09,6.55-2.62-1.81-5.27-4.6-7.29-7.06-1.33-3.35-3.77-8.91-3.77-12.29-.28-2.95-.22-3.42,1.23-6.02l-.08-2.56c-.09-3-.06-6.17-.08-9.19-4-14.28-.86-15.98-.79-29.72.05-9.45-.41-21.08-.63-30.73-.11-3.78,1.59-7.08,3.07-10.5Z"/>
      <path class="cls-8" d="M9.25,179.84c1.59.71,3.24,1.42,4.78,2.22l3.02,2.01c-1.43,1.34-2.54,2.78-4.36,2.96-2.02-.94-1.6-1.02-2.97-3.22l-.47-3.96Z"/>
      <path class="cls-2" d="M4.73,193.5c1.41.07,6.14.2,7.37.51-1,3.48,2.35,3.34-.09,6.55-2.62-1.81-5.27-4.6-7.29-7.06Z"/>
      <path class="cls-8" d="M9.72,183.8c-1.05,1.84.1,5.09-1.02,7.75-1.61-1.8-.93-8.84-.51-11.19l1.06-.53.47,3.96Z"/>
      <path class="cls-8" d="M2.19,175.19c1.08,3.22.98,6,1.08,9.38l-.52.62.19.36.29-.31-.36.3c-.4-.93-1.36-3.76-1.91-4.33-.28-2.95-.22-3.42,1.23-6.02Z"/>
      <path class="cls-2" d="M2.03,163.45c1.6.45,2.5.43,3.58,1.49-3.4,3.66-3.08,2.9-3.5,7.69-.09-3-.06-6.17-.08-9.19Z"/>
      <path class="cls-8" d="M8.69,170.24l1.53.29c.57,1.97,1.31,2.78.16,4.65-1.48-2.17-1.5-2.39-1.69-4.95Z"/>
      <path class="cls-2" d="M180.7,107.98l1.88,3.39.36.41c1.58,5.67.64,21.08.97,27.83.21,4.36,1.34,13.02,1.13,16.7-.31,5.36-1.2,10.93-1.43,16.77-.23-.75-.49-2.1-.66-2.92-.24.77-.47,2.12-.98,2.4l-.67-3.34c-.91-6.44.34-13.47.21-20.03-.13-6.47-1.56-12.28-2.29-18.64-.21-1.65-.38-3.3-.52-4.95-.37-4.58-.92-14.15,2.01-17.62Z"/>
      <path class="cls-2" d="M178.35,81.54c3.34,12.92,5.99,15.78,4.59,30.24l-.36-.41-1.88-3.39c-2.94,3.47-2.38,13.04-2.01,17.62.14,1.65.31,3.3.52,4.95l-.23.07c-1.04,1.16-.76,2.22-.91,4.1l-.52.4c-.72-2.83-.25-6.92-.44-9.57-.43-6.11.05-29.03-1.65-33.27-3.25.81-1.11,2.98-7.3,3.89.54-1.1,1.65-2.4,2.43-3.41,2.29-2.52,3.94-4.85,1.58-8.13l.62-.94,2.11-1.83c.52,1.61.86,2.27,1.63,3.79l.72.2c1.17-1.41,1-2.43,1.1-4.3Z"/>
      <path class="cls-8" d="M180.7,107.98c-.95-2.72-2.81-7.9-2.49-10.65l.82-.5c3.6,1.66,2.57,10.16,3.54,14.53l-1.88-3.39Z"/>
      <path class="cls-3" d="M91.78,186.58c-.39.16,31.84.34,34.09.68-8.92,3.32-43.22,7.78-52.01,4.42,1.43-.42,1.39-.29,2.31-1.7l.34-.54,1.03.04c1.96,2.12,2.59,1.45,5.27,1.23.07-1.05.15-1.48.35-2.49,2.28-.61,5.11,4.02,8.61-1.66Z"/>
      <path class="cls-2" d="M47.02,183.26c3.12-1.15,18.39,1.5,22.88,1.89,6.06.53,16.64.04,21.88,1.42-3.5,5.68-6.34,1.06-8.61,1.66-.19,1-.27,1.44-.35,2.49-2.69.22-3.32.88-5.27-1.23l-1.03-.04-.34.54c-.92,1.41-.88,1.28-2.31,1.7l.33-1.2-.66-.48-1.72.51s-.08,0-.12,0c-7.97-1.89-16.05-3.41-24.14-4.53l-.53-2.71Z"/>
      <path class="cls-3" d="M181.3,169.22l.67,3.34c.51-.27.74-1.63.98-2.4.18.82.43,2.17.66,2.92l.13,4.27c-4.71,2.38-2.8,2.34-4.99,5.9l-1.84-1.29-1.21-.62-2.59-2.85.08-1.74c-4.97-2.37-8.05,4.56-11.25.53,4.04-.99,6.73-1.97,10.5-3.72,3.58-1.66,2.85-.23,5.97-3.1.87-1.03.48-.71,2.14-.98l.74-.27Z"/>
      <path class="cls-5" d="M181.3,169.22l.67,3.34c.51-.27.74-1.63.98-2.4.18.82.43,2.17.66,2.92l.13,4.27c-4.71,2.38-2.8,2.34-4.99,5.9l-1.84-1.29c1.75-1.59,2.61-2.86,2.81-5.22l-.66-.47c1.37-2.28,1.26-4.1,1.5-6.78l.74-.27Z"/>
      <path class="cls-8" d="M178.42,170.46c.87-1.03.48-.71,2.14-.98-.24,2.69-.13,4.5-1.5,6.78l-1.82-1.31c-.43-1.74.33-2.5,1.18-4.49Z"/>
      <path class="cls-3" d="M163.03,93.62l7.56-.87c-.78,1.01-1.89,2.31-2.43,3.41-2.13,2.19-14.43,3.83-18.59,4.87,6.38-4.58,4.71-5.69,13.45-7.42Z"/>
      <path class="cls-3" d="M10.23,170.53c2.49.21,3.25,1.6,5.52,2.68,4.41,2.09,8.5,2.09,12.67,4.58l-7.01-.06c-2.34-.84-4.51-1.85-6.97-1.71-1.62.8-1.35.36-1.98,1.69-1.29-1.15-1.8-1.18-2.07-2.51,1.15-1.87.41-2.68-.16-4.65Z"/>
      <path class="cls-5" d="M4.95,88.1c1.1,1.07,1.47,1.51,2.77,2.3-1.26,1.45-.87,2.74-.88,5.03-2.08-.55-2.3-1.22-3.15-2.94l1.26-4.39Z"/>
      <path class="cls-8" d="M73.44,131.66c3.26,2.1,3.47,4.31,2.82,8.08l.52.02c2.33-3.08,3.95-4.35,7.44-5.74.81,1.82.33,1.48,1.78,2.27l2.54,2.24,1.42,2c2.45-1.46,3.33-1.89,5.24-3.97,1.53,2.16,1.23,1.2,1.41,3.64,1.49,1.35,3.33,1.86,5.23,2.6-1.91,1.46-1.73.84-1.98,2.61l1.22,2.3,4,4.08-1.3,2.74c1.2.38,2.77.79,3.86,1.34l2.85.95-.37,2.17c.8.93,1.13,1.43,2.18,2.11l-.21,2.36-1.28.72c-4.36,2.13-14.16,6.76-18.69,6.93-15.47.53-21.63.12-36.55-4.72l-5.32-2.09c-1.35-.88-2.88-2.1-4.19-3.08-.67-.34-2.48-2.05-3.15-2.65,1.84-2.13,9.05-4.61,11.99-5.8,3.89-2.31,6.49-3.95,10.15-6.63.87-3.26,2.82-7.47.84-10.32,1.58-.88,3.34-.96,5.16-1.21l.27-.18c-2.16-.2-1.94.18-3.1-1l-.12.12c1.87-1.67,3.82-.48,5.31-1.89Z"/>
      <path class="cls-3" d="M73.44,131.66c3.26,2.1,3.47,4.31,2.82,8.08-2.7.68-2.77,1.36-3.66,4.12,1.33.42,2.49,1.27,3.27,2.42.22.32.22.45.3.78l1.33.3c.65,1.3.57,1.38.64,2.78,2.05.85,3.29.23,4.78,1.6,0,.81-2.45,4.47-3.29,6.55-2.34.03-6.21-.03-8.4.25-3.4-.02-6.07-.16-9.42.59-2.81.07-4.64.13-7.41.53l-2.57-.23c-1.38,2.26-.78,2.96-1.58,4.86-1.35-.88-2.88-2.1-4.19-3.08-.67-.34-2.48-2.05-3.15-2.65,1.84-2.13,9.05-4.61,11.99-5.8,3.89-2.31,6.49-3.95,10.15-6.63.87-3.26,2.82-7.47.84-10.32,1.58-.88,3.34-.96,5.16-1.21l.27-.18c-2.16-.2-1.94.18-3.1-1l-.12.12c1.87-1.67,3.82-.48,5.31-1.89Z"/>
      <path class="cls-2" d="M73.44,131.66c3.26,2.1,3.47,4.31,2.82,8.08-2.7.68-2.77,1.36-3.66,4.12-1.5,1.75-3.06,3.13-3.43,5.31l-1.67,1.15c-1.27-.52-1.71-.87-2.85-1.65,1.05-3.04,4.28-1.66,5.36-7.32-1.85,2.22-2.54,3.21-4.93,4.79.87-3.26,2.82-7.47.84-10.32,1.58-.88,3.34-.96,5.16-1.21l.27-.18c-2.16-.2-1.94.18-3.1-1l-.12.12c1.87-1.67,3.82-.48,5.31-1.89Z"/>
      <path class="cls-8" d="M71.07,134.61c2.81,4.76-.74,3.41-1.07,6.74-1.85,2.22-2.54,3.21-4.93,4.79.87-3.26,2.82-7.47.84-10.32,1.58-.88,3.34-.96,5.16-1.21Z"/>
      <path class="cls-2" d="M70,141.35c-1.08,5.66-4.3,4.28-5.36,7.32,1.14.78,1.58,1.13,2.85,1.65-2.52,1.11-10.07,3.48-12.57,2.44,3.89-2.31,6.49-3.95,10.15-6.63,2.39-1.58,3.08-2.57,4.93-4.79Z"/>
      <path class="cls-8" d="M72.59,143.87c1.33.42,2.49,1.27,3.27,2.42.22.32.22.45.3.78-2.14.64-4.95,1.39-7.01,2.11.37-2.18,1.93-3.56,3.43-5.31Z"/>
      <path class="cls-3" d="M84.22,134.02c.81,1.82.33,1.48,1.78,2.27l2.54,2.24,1.42,2c2.45-1.46,3.33-1.89,5.24-3.97,1.53,2.16,1.23,1.2,1.41,3.64,1.49,1.35,3.33,1.86,5.23,2.6-1.91,1.46-1.73.84-1.98,2.61l1.22,2.3c-2.42.59-3.74,1.37-5.32,1.78-.81,1.97-1.28,4.09-3.36,4.91l1.09,1.18c-.75,3.09-3.43,3.58-6.26,3.52-3.29.16-12.92-.17-15.99-.55,2.19-.28,6.06-.22,8.4-.25.83-2.08,3.28-5.74,3.29-6.55-1.49-1.36-2.73-.75-4.78-1.6-.07-1.41.01-1.49-.64-2.78l-1.33-.3c-.08-.33-.09-.47-.3-.78-.79-1.15-1.94-2.01-3.27-2.42.89-2.76.96-3.44,3.66-4.12l.52.02c2.33-3.08,3.95-4.35,7.44-5.74Z"/>
      <path class="cls-8" d="M84.22,134.02c.81,1.82.33,1.48,1.78,2.27l2.54,2.24,1.42,2c-2.66,1.48-7.64,5.17-9.24,5.82l-2.92.43-.3.58-1.33-.3c-.08-.33-.09-.47-.3-.78-.79-1.15-1.94-2.01-3.27-2.42.89-2.76.96-3.44,3.66-4.12l.52.02c2.33-3.08,3.95-4.35,7.44-5.74Z"/>
      <path class="cls-2" d="M84.22,134.02c.81,1.82.33,1.48,1.78,2.27-2.03,1.22-4.45,2.6-6.38,3.9-.24.95-1.75,6.09-1.82,6.59l-.3.58-1.33-.3c-.08-.33-.09-.47-.3-.78-.79-1.15-1.94-2.01-3.27-2.42.89-2.76.96-3.44,3.66-4.12l.52.02c2.33-3.08,3.95-4.35,7.44-5.74Z"/>
      <path class="cls-3" d="M89.97,140.53c2.45-1.46,3.33-1.89,5.24-3.97,1.53,2.16,1.23,1.2,1.41,3.64,1.49,1.35,3.33,1.86,5.23,2.6-1.91,1.46-1.73.84-1.98,2.61l1.22,2.3c-2.42.59-3.74,1.37-5.32,1.78-.29-2.09-.5-2.76-2.12-4.07-2.13-.19-1.27-.33-3.49,1.09l-.48.82-1.56-1.07c-3.2-.39-3.78.56-6.59,1.97l-.8-1.87c1.61-.65,6.58-4.35,9.24-5.82Z"/>
      <path class="cls-2" d="M96.62,140.2c1.49,1.35,3.33,1.86,5.23,2.6-1.91,1.46-1.73.84-1.98,2.61l1.22,2.3c-2.42.59-3.74,1.37-5.32,1.78-.29-2.09-.5-2.76-2.12-4.07-2.13-.19-1.27-.33-3.49,1.09.16-5.42,3.39-3.09,6.46-6.31Z"/>
      <path class="cls-8" d="M90.17,146.51c2.22-1.42,1.35-1.28,3.49-1.09,1.63,1.31,1.83,1.97,2.12,4.07-.81,1.97-1.28,4.09-3.36,4.91-3.43-.83-3.61.94-6.48-.35l-.29-.85c.82-2.09,2.61-4.07,4.04-5.87l.48-.82Z"/>
      <path class="cls-5" d="M51.85,159.44l2.57.23c6.03,9.25,31.96,8.3,41.73,5.97,1.59,1.1,1.21.49,1.54,2.17-1.31,2.27-3.19,1.93-5.55,3.29-15.47.53-21.63.12-36.55-4.72l-5.32-2.09c.8-1.9.2-2.6,1.58-4.86Z"/>
      <path class="cls-5" d="M50.28,164.3c.8-1.9.2-2.6,1.58-4.86,1.67,2.9,3.38,4.24,3.74,6.95l-5.32-2.09Z"/>
      <path class="cls-2" d="M101.09,147.71l4,4.08-1.3,2.74c1.2.38,2.77.79,3.86,1.34-3.27,2.34-3.86,6.22-7.55,6.14l-.84-.5-3.66-1.04c-2.78-.5-5.56-.96-8.36-1.37,2.83.06,5.51-.43,6.26-3.52l-1.09-1.18c2.08-.82,2.55-2.94,3.36-4.91,1.58-.41,2.9-1.19,5.32-1.78Z"/>
      <path class="cls-4" d="M95.6,160.47c2.83-.85,2.98-3.64,4.76-6.16,1.74-.68,1.2-.46,3.44.22,1.2.38,2.77.79,3.86,1.34-3.27,2.34-3.86,6.22-7.55,6.14l-.84-.5-3.66-1.04Z"/>
      <path class="cls-4" d="M61.83,159.14c3.35-.75,6.02-.61,9.42-.59,3.07.39,12.7.71,15.99.55,2.79.41,5.58.86,8.36,1.37l3.66,1.04c-5.13.02-4.61,1.64-9.4,2.23-4.02,1.17-9.16-1.8-12.17-1.92-7.3-.29-8.81-.03-15.86-2.68Z"/>
      <path class="cls-5" d="M108.23,160.49c.57-.52,1.28-1.03,1.9-1.5.8.93,1.13,1.43,2.18,2.11l-.21,2.36-1.28.72c-4.36,2.13-14.16,6.76-18.69,6.93,2.36-1.36,4.24-1.02,5.55-3.29-.33-1.68.05-1.07-1.54-2.17,5.96-.96,7.81-1.04,12.09-5.15Z"/>
      <path class="cls-2" d="M108.23,160.49c.57-.52,1.28-1.03,1.9-1.5.8.93,1.13,1.43,2.18,2.11l-.21,2.36-1.28.72c-.83-1.02-1.82-2.56-2.59-3.68Z"/>
      <path class="cls-4" d="M126.54,142.23c1.82-.34,3.89-.37,5.75-.47l2.38.06c4.7.96,6.23,1.52,9.27,5.53,5.55-2.68,9.22-3.8,15.35-1.69,6.86,2.37,11.79,7.74,11.33,15.32-.53,11.41-16.12,16.74-23.9,7.97-.37-.41-.72-.84-1.06-1.28l3.2.8c.22-.98.97-2.74,1.36-3.75-.41-.65-2.13-1.92-2.82-2.48l-1.09.81c-.9-.62-2.36-2.11-3.2-2.92-.46.12-1.45.41-1.87.46l-1.95,2.17,2.78,3.09c-3.08,2.38-9.7,6.74-13.55,4.74l.03.78-.72.6-1.44-1.01c-6.8,1.75-9.96-2.69-14.27-7.51l.21-2.36c-1.04-.68-1.38-1.18-2.18-2.11l.37-2.17-2.85-.95c-1.09-.55-2.66-.96-3.86-1.34l1.3-2.74-4-4.08-1.22-2.3c.25-1.77.07-1.15,1.98-2.61,1.58.79,3.72,1.89,5.46,2.16,2.59-.13,5.21-.49,7.65.31.69,1,.61,1,1.69,1.51,3.75-.92,5.76-5.19,9.88-4.54Z"/>
      <path class="cls-4" d="M134.67,141.82c4.7.96,6.23,1.52,9.27,5.53,5.55-2.68,9.22-3.8,15.35-1.69,6.86,2.37,11.79,7.74,11.33,15.32-.53,11.41-16.12,16.74-23.9,7.97-.37-.41-.72-.84-1.06-1.28l3.2.8c.22-.98.97-2.74,1.36-3.75-.41-.65-2.13-1.92-2.82-2.48,2.6-2.65,4.7-7.28,1.99-10.53-3.14.21-2.4-1.63-7.23-1.14-1.02-1.05-2.05-2.09-3.09-3.13l-2.62-1.02c-1-.47-3.06-.8-4.23-1.05l.06-3.61,2.38.06Z"/>
      <path class="cls-2" d="M166.72,157.63c1.3-1.32.71-1.12,2.22-1.15,1.31,1.69,1.16,2.39,1.06,4.61l.62-.1c-.53,11.41-16.12,16.74-23.9,7.97-.37-.41-.72-.84-1.06-1.28l3.2.8c.22-.98.97-2.74,1.36-3.75,7.44.56,12.74.26,16.5-7.1Z"/>
      <path class="cls-4" d="M170,161.09l.62-.1c-.53,11.41-16.12,16.74-23.9,7.97-.37-.41-.72-.84-1.06-1.28l3.2.8c7.49,3.61,17.09-.41,21.14-7.38Z"/>
      <path class="cls-5" d="M134.67,141.82c4.7.96,6.23,1.52,9.27,5.53,5.55-2.68,9.22-3.8,15.35-1.69,6.86,2.37,11.79,7.74,11.33,15.32l-.62.1c.09-2.22.25-2.91-1.06-4.61-1.51.03-.92-.18-2.22,1.15-.22-1.56-.18-1.75-.96-3.06-7.24-3.38-9.34-6.72-17.46-3.94l1.1,1.09c-3.14.21-2.4-1.63-7.23-1.14-1.02-1.05-2.05-2.09-3.09-3.13l-2.62-1.02c-1-.47-3.06-.8-4.23-1.05l.06-3.61,2.38.06Z"/>
      <path class="cls-8" d="M148.3,150.62l-.95-.12c4.03-4.65,15.26-1.69,18.41,4.07-7.24-3.38-9.34-6.72-17.46-3.94Z"/>
      <path class="cls-2" d="M132.29,141.77l2.38.06c1.37,2.22,1.75,2.39,3.99,3.63.18.73.34,1.24.42,2l-2.62-1.02c-1-.47-3.06-.8-4.23-1.05l.06-3.61Z"/>
      <path class="cls-3" d="M126.54,142.23c1.82-.34,3.89-.37,5.75-.47l-.06,3.61c-.57.07-1.73-.11-2.36-.18l-1.02.94c-2.79,8.07-9.26,4.71-9.66,10.74l.46.9c-.41.88-1.49,3.34-1.95,4.03l-1.29.29.08-.69-.35-.1c-2.57.55-1.58.67-3.84-.21-1.04-.68-1.38-1.18-2.18-2.11l.37-2.17-2.85-.95c-1.09-.55-2.66-.96-3.86-1.34l1.3-2.74-4-4.08-1.22-2.3c.25-1.77.07-1.15,1.98-2.61,1.58.79,3.72,1.89,5.46,2.16,2.59-.13,5.21-.49,7.65.31.69,1,.61,1,1.69,1.51,3.75-.92,5.76-5.19,9.88-4.54Z"/>
      <path class="cls-4" d="M101.86,142.8c1.58.79,3.72,1.89,5.46,2.16,2.8,2.29,3.87,2.81,5.4,6.05-.72,2.28-.82,2.6-3.15,3.61l1.17,1.8-.24.39-2.85-.95c-1.09-.55-2.66-.96-3.86-1.34l1.3-2.74-4-4.08-1.22-2.3c.25-1.77.07-1.15,1.98-2.61Z"/>
      <path class="cls-2" d="M107.99,151.41c1.1-.36,3.47-.35,4.73-.4-.72,2.28-.82,2.6-3.15,3.61l1.17,1.8-.24.39-2.85-.95c-1.09-.55-2.66-.96-3.86-1.34l1.3-2.74,2.9-.38Z"/>
      <path class="cls-2" d="M107.99,151.41c1.1-.36,3.47-.35,4.73-.4-.72,2.28-.82,2.6-3.15,3.61-1.3-.65-1.26.36-2.51-.92l.93-2.29Z"/>
      <path class="cls-4" d="M118.05,153.36c3.49-3.44,6.56-5.01,10.8-7.22-2.79,8.07-9.26,4.71-9.66,10.74l.46.9c-.41.88-1.49,3.34-1.95,4.03l-1.29.29.08-.69c.47-2.78.89-5.31,1.55-8.05Z"/>
      <path class="cls-2" d="M114.8,154.32c.6-.54,2.31-.75,3.26-.96-.67,2.74-1.09,5.27-1.55,8.05l-.35-.1c-2.57.55-1.58.67-3.84-.21-1.04-.68-1.38-1.18-2.18-2.11l.37-2.17.24-.39,1.86.73,2.2-2.84Z"/>
      <path class="cls-3" d="M110.74,156.42l1.86.73c.82,1.12,1.79,2.58,2.84,3.43l.72.73c-2.57.55-1.58.67-3.84-.21-1.04-.68-1.38-1.18-2.18-2.11l.37-2.17.24-.39Z"/>
      <path class="cls-2" d="M114.8,154.32c.43,2.4.78,3.82.64,6.27-1.05-.85-2.01-2.31-2.84-3.43l2.2-2.84Z"/>
      <path class="cls-2" d="M126.54,142.23c1.82-.34,3.89-.37,5.75-.47l-.06,3.61c-.57.07-1.73-.11-2.36-.18-.49-.6-2.62-2.35-3.33-2.96Z"/>
      <path class="cls-3" d="M142.16,150.58c4.83-.49,4.09,1.35,7.23,1.14,2.71,3.25.61,7.88-1.99,10.53l-1.09.81c-.9-.62-2.36-2.11-3.2-2.92-2.08-2.58-4.47-3.2-5.4-5.42.68-1.6.73-1.19,2.71-2.25l1.74-1.89Z"/>
      <path class="cls-2" d="M112.31,161.1c2.26.88,1.26.77,3.84.21l.35.1-.08.69,1.29-.29,1.67,2.22c.6,1.16.87,1.61,1.24,2.9,3.39,2.3,6.11.86,10.03.69-.53,1.58-1.3,1.77-2.14,2.98l.03.78-.72.6-1.44-1.01c-6.8,1.75-9.96-2.69-14.27-7.51l.21-2.36Z"/>
      <path class="cls-8" d="M116.42,162.1l1.29-.29,1.67,2.22c.6,1.16.87,1.61,1.24,2.9-2.14-1.46-3.06-2.56-4.21-4.83Z"/>
      <path class="cls-5" d="M130.73,167.14c4.27-.28,5.31-1.63,8.56-4.38l2.78,3.09c-3.08,2.38-9.7,6.74-13.55,4.74.84-1.21,1.62-1.4,2.14-2.98l.08-.47Z"/>
      <path class="cls-8" d="M130.73,167.14c.64-2.14,9.16-6.68,10.51-6.55l-1.95,2.17c-3.24,2.75-4.29,4.1-8.56,4.38Z"/>
      <path class="cls-2" d="M119.66,157.78c2.13.94,1.83.4,2.62,2.04-.26,1.89-1.3,3.15-2.89,4.21l-1.67-2.22c.46-.69,1.53-3.15,1.95-4.03Z"/>
      <path class="cls-8" d="M136.46,146.42l2.62,1.02c1.04,1.03,2.07,2.08,3.09,3.13l-1.74,1.89c-1.24-1.85-2.7-3.57-4.11-5.29l.15-.75Z"/>
      <path class="cls-4" d="M56.89,114.82c2.98.22,4.65,1.53,7.36,2.76,1.42,1.11,3.12,2.32,4.29,3.65.09,1.5.15,3.32.38,4.78,2.34-.76,3.67-1.31,6.13-1.36h.43c1-.04,3.24-.18,4.11,0l1.13,1.47c-.74,1.12-1.51,2.37-2.31,3.42,2.51,2.64,2.68,2.76,5.8,4.48-3.49,1.39-5.11,2.67-7.44,5.74l-.52-.02c.65-3.77.44-5.98-2.82-8.08-1.49,1.41-3.44.21-5.31,1.89l.12-.12c1.16,1.18.94.8,3.1,1l-.27.18c-1.83.26-3.58.34-5.16,1.21l-.5-.19c-4.57,2.15-9.68,4.4-13.82,7.24-4.19.68-3.92,1.34-6.28-2.55-1.38.58-1.71,1.47-2.57,2.81-2.52,1.86-2.68,1.13-4.61,2-1.5.59-2.22,1.06-3.76.85l-.8-1.21-1.18-1.47-.58-3.87c.47-1.66.61-3.28.83-5,1.94-13.21,11.67-19.18,24.26-19.62Z"/>
      <path class="cls-1" d="M75.49,124.64c1-.03,3.24-.17,4.11,0l1.13,1.47c-.74,1.12-1.51,2.37-2.31,3.42,2.51,2.64,2.68,2.76,5.8,4.48-3.49,1.39-5.11,2.67-7.44,5.74l-.52-.02c.65-3.77.44-5.98-2.82-8.08-1.49,1.41-3.44.21-5.31,1.89l.12-.12c1.16,1.18.94.8,3.1,1l-.27.18c-1.83.26-3.58.34-5.16,1.21l-.5-.19c-4.57,2.15-9.68,4.4-13.82,7.24-4.19.68-3.92,1.34-6.28-2.55-1.38.58-1.71,1.47-2.57,2.81-1.32.42-2.32.82-3.44-.08.62-1.67,2.14-2.44,3.41-3.89l.27-.32c2.76-2.84,9.07-5.45,12.73-7.01,3.2-1.05,8.26-3.84,11.8-5.35l1.42-.48c2.34-.76,3.67-1.31,6.13-1.36h.43Z"/>
      <path class="cls-5" d="M72.24,129.48c2.63-.26,3.58-.46,6.18.06,2.51,2.64,2.68,2.76,5.8,4.48-3.49,1.39-5.11,2.67-7.44,5.74l-.52-.02c.65-3.77.44-5.98-2.82-8.08-1.54-.39-1.44-.09-2.12-1.07l.92-1.11Z"/>
      <path class="cls-3" d="M75.49,124.64c1-.03,3.24-.17,4.11,0l1.13,1.47c-.74,1.12-1.51,2.37-2.31,3.42-2.6-.52-3.55-.33-6.18-.06l-.34-.35c2.48-1.74,1.07-2.12,3.16-4.47h.43Z"/>
      <path class="cls-2" d="M65.41,135.63c.12-1.07.34-1.84.58-2.89,1.37-1.72,3.87-2.65,5.91-3.62l.34.35-.92,1.11c.69.99.58.68,2.12,1.07-1.49,1.41-3.44.21-5.31,1.89l.12-.12c1.16,1.18.94.8,3.1,1l-.27.18c-1.83.26-3.58.34-5.16,1.21l-.5-.19Z"/>
      <path class="cls-8" d="M56.89,114.82c2.98.22,4.65,1.53,7.36,2.76,1.42,1.11,3.12,2.32,4.29,3.65.09,1.5.15,3.32.38,4.78l-1.42.48c-3.55,1.5-8.6,4.3-11.8,5.35l-.07-1.11.95-.43c1.62-3.37,3.62-6.05,1.2-9.27-3.84-1.99-9.84,1.36-13.41,3.05-3.34,1.59-4.91,3.91-6.87,6.93l-.85,2.21-.76.29v1.73s-3.26-.81-3.26-.81c1.94-13.21,11.67-19.18,24.26-19.62Z"/>
      <path class="cls-5" d="M32.64,134.45c1.94-13.21,11.67-19.18,24.26-19.62-2.01,1.01-2.56.81-2.81,3.32-8.41,1.82-17.3,5.63-18.18,15.37v1.73s-3.26-.81-3.26-.81Z"/>
      <path class="cls-5" d="M56.89,114.82c2.98.22,4.65,1.53,7.36,2.76-.12,1.72.02,2.89-1.03,4.18-3.57-2.65-4.73-2.99-9.14-3.61.25-2.51.8-2.32,2.81-3.32Z"/>
      <path class="cls-5" d="M64.25,117.58c1.42,1.11,3.12,2.32,4.29,3.65l-3.64,2.05-1.68-1.53c1.05-1.29.91-2.46,1.03-4.18Z"/>
      <path class="cls-5" d="M68.54,121.23c.09,1.5.15,3.32.38,4.78l-1.42.48c-.82-1.06-1.75-2.16-2.61-3.21l3.64-2.05Z"/>
      <path class="cls-3" d="M32.64,134.45l3.26.81.35,3.07.26.82-.23.57c.34.66.48.72.97,1.29,2.16.03,3.74-1.1,5.71-2.15l-.27.32c-1.27,1.44-2.78,2.22-3.41,3.89,1.13.9,2.13.5,3.44.08-2.52,1.86-2.68,1.13-4.61,2-1.5.59-2.22,1.06-3.76.85l-.8-1.21-1.18-1.47-.58-3.87c.47-1.66.61-3.28.83-5Z"/>
      <path class="cls-2" d="M32.64,134.45l3.26.81.35,3.07.26.82-.23.57c-1.39-.88-1.63-1.17-3.21-1.32l-1.26,1.04c.47-1.66.61-3.28.83-5Z"/>
      <path class="cls-8" d="M35.9,133.52l.76-.29.85-2.21c-.03,1.95-.16,3.99.14,5.91l-1.39,1.4-.35-3.07v-1.73Z"/>
      <path class="cls-5" d="M37.65,136.93l1.83-2.07h.72c-.44,2.28-1.71,3.2-3.68,4.3l-.26-.82,1.39-1.4Z"/>
      <path class="cls-7" d="M80.42,119.44c8.54-1.16,10.23-.69,15.94,5.9,2.51-.66,5.17-2.03,7.55-3.14,3.51-.54,7.34-1.26,9.83,1.9,1.19.73,1.93,1.15,2.99,2.06,1.9,1.35,4.73,3.05,5.77,4.99-.07,1.8.02,1.18-1.28,2.87,3.31,4.75,1.76,7.22-3.64,8.76-.75.73-1.85,1.87-2.62,2.49-2.44-.81-5.06-.45-7.65-.31-1.74-.26-3.89-1.37-5.46-2.16-1.91-.74-3.75-1.25-5.23-2.6-.18-2.44.12-1.48-1.41-3.64-1.91,2.08-2.8,2.52-5.24,3.97l-1.42-2-2.54-2.24c-1.45-.79-.97-.45-1.78-2.27-3.12-1.72-3.29-1.84-5.8-4.48.8-1.06,1.58-2.3,2.31-3.42l-1.13-1.47c-.87-.17-3.11-.03-4.11,0,1.15-1.54,3.5-3.77,4.93-5.21Z"/>
      <path class="cls-4" d="M80.42,119.44c8.54-1.16,10.23-.69,15.94,5.9,2.51-.66,5.17-2.03,7.55-3.14,3.51-.54,7.34-1.26,9.83,1.9l-1,.23-.6.73c-3.08.24-4.11.77-6.99,1.94l-5.33,1.92-1.84,5.58c-1.01.64-2.09,1.16-2.76,2.08-1.91,2.08-2.8,2.52-5.24,3.97l-1.42-2-2.54-2.24c-1.45-.79-.97-.45-1.78-2.27-3.12-1.72-3.29-1.84-5.8-4.48.8-1.06,1.58-2.3,2.31-3.42l-1.13-1.47c-.87-.17-3.11-.03-4.11,0,1.15-1.54,3.5-3.77,4.93-5.21Z"/>
      <path class="cls-5" d="M80.42,119.44c8.54-1.16,10.23-.69,15.94,5.9,2.51-.66,5.17-2.03,7.55-3.14,3.51-.54,7.34-1.26,9.83,1.9l-1,.23-.6.73c-3.08.24-4.11.77-6.99,1.94l-5.33,1.92c-6.22.52-8.96-3.6-15.47-6.7l-.74-1.08c-2.53.56-3.23,1.03-4,3.53-.87-.17-3.11-.03-4.11,0,1.15-1.54,3.5-3.77,4.93-5.21Z"/>
      <path class="cls-8" d="M83.6,121.12c6.32.87,7.97,2.37,12.58,6.93,3.84-1.05,5.54-1.65,9.18-3.27-.31-.89-.93-1.77-1.44-2.59,3.51-.54,7.34-1.26,9.83,1.9l-1,.23-.6.73c-3.08.24-4.11.77-6.99,1.94l-5.33,1.92c-6.22.52-8.96-3.6-15.47-6.7l-.74-1.08Z"/>
      <path class="cls-5" d="M103.92,122.19c3.51-.54,7.34-1.26,9.83,1.9l-1,.23c-2.02-1.26-5.24-.15-7.39.46-.31-.89-.93-1.77-1.44-2.59Z"/>
      <path class="cls-2" d="M78.42,129.54c.8-1.06,1.58-2.3,2.31-3.42,1.4,1.41,2.09,2.26,3.86,3.22,2.02,1.44,5.11,2.98,6.09,4.91-.08,2.14-.4,2.54-2.13,4.29l-2.54-2.24c-1.45-.79-.97-.45-1.78-2.27-3.12-1.72-3.29-1.84-5.8-4.48Z"/>
      <path class="cls-4" d="M79.6,124.65c.77-2.5,1.47-2.97,4-3.53l.74,1.08c-3.22,3.91.26,3.1.24,7.14-1.77-.96-2.45-1.81-3.86-3.22l-1.13-1.47Z"/>
      <path class="cls-4" d="M116.74,126.16c1.9,1.35,4.73,3.05,5.77,4.99-.07,1.8.02,1.18-1.28,2.87,3.31,4.75,1.76,7.22-3.64,8.76.01-1.88.16-2.39-.61-4.03-.69.27-1.39.53-2.09.76-6.04,1.98-9.69.25-14.96-2.45,3.79-1.72,14.52-4.27,16.2-7.44l.62-3.48Z"/>
      <path class="cls-2" d="M119.8,133.48l1.43.53c3.31,4.75,1.76,7.22-3.64,8.76.01-1.88.16-2.39-.61-4.03,1.42-.87,1.76-.93,2.49-2.35-.01-1.08-.02-1.87.34-2.92Z"/>
      <path class="cls-4" d="M116.74,126.16c1.9,1.35,4.73,3.05,5.77,4.99-.07,1.8.02,1.18-1.28,2.87l-1.43-.53c-1.8-.43-3.3-2.05-3.68-3.85l.62-3.48Z"/>
      <path class="cls-4" d="M105.15,126.99c2.89-1.17,3.92-1.7,6.99-1.94-.24,5.93-2.5,5.57-7.82,7.32-.02-2.44.21-3.11.82-5.38Z"/>
      <path class="cls-4" d="M105.15,126.99c-.61,2.27-.84,2.94-.82,5.38-2.49.68-3.99,1.06-6.35,2.12l1.84-5.58,5.33-1.92Z"/>
      <path class="cls-5" d="M19.26,139.56c2.38-.65,4-.65,6.39.15,2.7,1.26,4.24,2.01,6.74,3.6l1.18,1.47.8,1.21c1.54.21,2.26-.26,3.76-.85,1.94-.87,2.09-.14,4.61-2,.87-1.34,1.19-2.23,2.57-2.81,2.36,3.89,2.09,3.23,6.28,2.55-2.34,1.82-11.03,10.03-12.86,10.39-1.83.36-5.06,1.47-6.96,2.06-6.29-1.1-24.15-9.6-12.52-15.77Z"/>
      <path class="cls-3" d="M42.74,143.13c.87-1.34,1.19-2.23,2.57-2.81,2.36,3.89,2.09,3.23,6.28,2.55-2.34,1.82-11.03,10.03-12.86,10.39l-3.01-.07c-2.15-.17-4.08.26-4.65-1.97l.85-1.27c.6-1.78.48-1.25,2.42-2.56l1.92.78c1.04-.23,1.97-.87,2.91-1.4l-1.06-1.64c1.94-.87,2.09-.14,4.61-2Z"/>
      <path class="cls-3" d="M34.36,147.4l1.92.78c1.62.85,1.08.35,1.88,2.27-.44,1.64-.45,2.35-2.43,2.75-2.15-.17-4.08.26-4.65-1.97l.85-1.27c.6-1.78.48-1.25,2.42-2.56Z"/>
      <path class="cls-2" d="M42.74,143.13l1.67.41.06.93c-1.36,1.51-1.73,1.62-3.63,2.43l-1.66-.12-1.06-1.64c1.94-.87,2.09-.14,4.61-2Z"/>
      <path class="cls-2" d="M25.64,139.71c2.7,1.26,4.24,2.01,6.74,3.6l1.18,1.47.8,1.21c1.54.21,2.26-.26,3.76-.85l1.06,1.64c-.94.54-1.87,1.18-2.91,1.4l-1.92-.78c-1.94,1.31-1.83.79-2.42,2.56-2.42-2.38-3.63-4.4-7.14-5.35l-.58-.5,1.24-.28c.77-1.28.35-2.36.2-4.13Z"/>
      <path class="cls-5" d="M34.36,147.4c-1.96-.64-3.23-1.98-4.83-3.34l.7-.08c1.38.84,1.73.95,3.34.8l.8,1.21c1.54.21,2.26-.26,3.76-.85l1.06,1.64c-.94.54-1.87,1.18-2.91,1.4l-1.92-.78Z"/>
      <path class="cls-4" d="M24.79,144.61c3.51.94,4.72,2.97,7.14,5.35l-.85,1.27c-4.54-1.51-5.96-2.59-9.84-5.24,2.6-.4,1.93.05,3.55-1.38Z"/>
      <path class="cls-2" d="M19.26,139.56c2.38-.65,4-.65,6.39.15.15,1.77.58,2.85-.2,4.13l-1.24.28c-1.41-.31-3.89-1.31-5.34-1.84l.39-2.72Z"/>
      <path class="cls-8" d="M18.87,142.28c1.44.53,3.92,1.53,5.34,1.84l.58.5c-1.62,1.43-.95.98-3.55,1.38-1.77-.52-3.28-.78-3.49-2.72l1.12-.99Z"/>
      <path class="cls-3" d="M163.3,125.26c7.96-1.14,9.34,7.36,1.44,10.57-5.89,2.25-7.01.61-10.9,1.68-1.61.9-.96.84-2.55.54-1.2-1.46-1.09-1.86-1.32-3.85-.24-1.81-1.08-2.72-2.11-4.24.64-.76,1.56-2.13,2.17-2.98.72.93,1.25,1.62,2.08,2.47.97-.12,1.5-.25,2.47-.15l.36-.19c2.8-1.25,5.59-2.54,8.37-3.85Z"/>
      <path class="cls-2" d="M163.3,125.26c7.96-1.14,9.34,7.36,1.44,10.57-5.89,2.25-7.01.61-10.9,1.68l.53-1.89c1.14-1.17,2.72-1.38,4.36-1.83l2.22-2.03c.82-1.21,2.59-2.74,3.71-3.79l-1.37-2.72Z"/>
      <path class="cls-5" d="M163.3,125.26c7.96-1.14,9.34,7.36,1.44,10.57l1.8-3.42-.67-1.2c-.17-2.23.13-1.38-1.2-3.24l-1.37-2.72Z"/>
      <path class="cls-8" d="M164.67,127.98c1.33,1.86,1.03,1,1.2,3.24-2.85,1.46-3.96,2.03-7.13,2.58l2.22-2.03c.82-1.21,2.59-2.74,3.71-3.79Z"/>
      <path class="cls-2" d="M154.93,129.11c2.8-1.25,5.59-2.54,8.37-3.85l1.37,2.72c-1.12,1.05-2.89,2.57-3.71,3.79-.7-.73-.74-.65-1.72-.96-1.43.75-1.49.81-3.07.82-.52-.78-1.05-1.56-1.6-2.32l.36-.19Z"/>
      <path class="cls-2" d="M146.08,122.74c.1-1.68.66-3.3,1.79-4.52l1.14.13c1.49,1.22,1.48,2.18,1.92,4.09.4,2.96-2.1,3.1-.9,4.54-.61.85-1.53,2.22-2.17,2.98,1.03,1.52,1.87,2.43,2.11,4.24-8.35,3.48-5.11-7.91-3.89-11.46Z"/>
      <path class="cls-2" d="M149.97,134.2c-8.35,3.48-5.11-7.91-3.89-11.46l.07.52c.3,2.2-.07,5.85.56,6.92l1.14-.23c1.03,1.52,1.87,2.43,2.11,4.24Z"/>
      <path class="cls-2" d="M150.93,122.44c1.74-2.7,2.89-3.01,1.22-6.01,1.56-.51,1.02-.38,2.87.18,3.26,2.91,1.33,9.02-.09,12.5l-.36.19c-.97-.11-1.5.03-2.47.15-.83-.85-1.35-1.54-2.08-2.47-1.2-1.44,1.3-1.58.9-4.54Z"/>
      <path class="cls-5" d="M39.94,159.76c1.63-.24,1.74-.21,2.99-1.19.67.6,2.48,2.3,3.15,2.65-2.07,1.5-2.43,1.77-4.88,2.67-2.55.56-3.06.83-4.92-.93l.13-1.18c1.38-1.38,1.64-1.45,3.52-2.02Z"/>
      <path class="cls-5" d="M41.2,163.89c-2.55.56-3.06.83-4.92-.93l.13-1.18c1.38-1.38,1.64-1.45,3.52-2.02.2,1.81.1,2.75,1.27,4.13Z"/>
      <path class="cls-2" d="M143.11,160.14c.85.81,2.3,2.3,3.2,2.92-.25,2.98-1.21,1.63-1.63,3.68l-1.17-1.01-1.45.14-2.78-3.09,1.95-2.17c.42-.04,1.41-.34,1.87-.46Z"/>
      <path class="cls-2" d="M147.4,162.25c.69.56,2.41,1.83,2.82,2.48-.39,1.01-1.14,2.76-1.36,3.75l-3.2-.8-.99-.94c.42-2.04,1.38-.69,1.63-3.68l1.09-.81Z"/>
      <path class="cls-5" d="M137.08,131.22c2.69.62,5.03,4.52,5.77,7.03-4.43-.53-6.12-2.7-5.77-7.03Z"/>
      <path class="cls-2" d="M142.28,8.1c8.69.8,18.61,2.85,23.83,9.37.85,1.07,1.44-.49,3.22.68,1.56,7.89,3.7,13.31,3.61,21.54-.11,9.3-.27,10.18-5.34,17.23-.65-1.79-.8-2.4-1.94-3.91-1.97-.9-1.45-.6-3.91-.4l-1.98,1.98-1.73-.81c2.26-2.77,3.22-3.72,5.94-6.05-2.65-10.54-.29-17.29,1.94-27.52-2.83-.14-2.3-.05-4.3-1.67-6.61-3.93-10.99-5.07-18.35-6.36-.59-1-.8-2.92-.97-4.09Z"/>
      <path class="cls-6" d="M169.32,18.15c1.56,7.89,3.7,13.31,3.61,21.54-.11,9.3-.27,10.18-5.34,17.23-.65-1.79-.8-2.4-1.94-3.91-1.97-.9-1.45-.6-3.91-.4l1.89-1.91c1.74-2.94,4.9-5.81,4.39-8.56-.3-1.58-.41-3.59.37-4.97,1.26-8.05,1.16-10.98.94-19.02Z"/>
      <path class="cls-2" d="M163.63,50.7c1.74-2.94,4.9-5.81,4.39-8.56-.3-1.58-.41-3.59.37-4.97,1.01,7.06,3.16,10.33-4.76,13.53Z"/>
      <path class="cls-2" d="M178.75,183.24c2.19-3.56.28-3.52,4.99-5.9.17,7.87-1.33,15.44-6.96,21.26-.72.73-1.45,1.45-2.21,2.14-.88-2.53-.8-3.03-.67-5.66.76-1.34.8-1.82,1.15-3.35l-.36-.98c1.77-2.49,2.25-3.6,3.51-6.41l.55-1.11Z"/>
    </g>
  </g>
</svg>