<?xml version="1.0" encoding="UTF-8"?>
<svg id="Capa_2" data-name="Capa 2" xmlns="http://www.w3.org/2000/svg" viewBox="0 0 225.8 220">
  <defs>
    <style>
      .cls-1 {
        fill: #353a59;
      }

      .cls-2, .cls-3 {
        fill: #fff;
      }

      .cls-4 {
        fill: #2b2d43;
      }

      .cls-5 {
        fill: #e87782;
      }

      .cls-3 {
        font-family: PlusJakartaSans-SemiBold, 'Plus Jakarta Sans';
        font-size: 48px;
        font-weight: 600;
        letter-spacing: .05em;
      }
    </style>
  </defs>
  <g id="ICONS">
    <g>
      <g>
        <path class="cls-1" d="M85.64,73.76c-.1-6.37-.55-18.88.31-25.38,0,.06,2-2.35,2.16-2.59.98-1.53-2.83-5.56-3.97-8.54-4.44-10.28,2.47-18.7,7.15-27.32,1.74-3.2,2.32-8.81,5.7-9.93,4.6,2.65,12.79,26.39,12.2,32.52-.34,3.47-3.85,7.6-4.04,11.66,4.83,8.76,2.85,18.94,2.73,29.11,5.74-.03,15.76-.42,21.02.81,1.42-1.14.79-.6,1.5-2.84l-.31-.97c-1.75-5.96-.94-13.94.77-19.88.49-2.16,1.01-2.62,2.32-4.37-.93-4.67-7.91-9.21-5.55-16.93,1.56-5.07,9.16-20.46,13.65-21.7,5.15,3.28,9.99,16.16,11.7,22.18,1.68,5.92-1.2,9.83-4.73,14.54.82,2.14,2.11,3.08,3.76,4.69l.29,24.61c33.43.02,40.06,3.64,36.3,38.12.05,3.2-.75,9.69-.6,11.54,4.43,4.28,4.39,9.9-.09,14.23-.56.53-1.13,1.05-1.71,1.55l-1.35,2.41c2.4,10.42,9.4,8.29,10.88,17.85,1.74,8.96-8.28,16.53-16.34,17.35-21.82,2.21-45.89.73-67.82,1.46,3.9,8.78,9.03,19.51,18.92,22.72,4.79,1.56,12.21,3.22,12.94,9.12-2.1,7.49-21.88,8.54-28.62,9.35-16.02,1.91-32.12.41-47.98-1.98-6.72-1.01-15.73-.64-12.72-10.39,3.73-4.14,12.09-5.25,16.97-7.95,8.21-4.55,11.63-12.89,14.23-21.22-14.21-.45-28.39.06-42.64-.03-10.56-.07-22.29,1.11-32.65-1.22-5.24-1.18-7.57-4.97-9.98-9.44-.13-6.39.08-7.43,2.14-13.21,2.88-2.97,5.03-3.78,8.69-5.37-.76-22.15-5.66-38.69-4.7-62.01,7.21-12.2,21.56-11.39,33.94-11.74-.13-7.67-.44-16.65.03-24.32.14-2.29,2.34-1.81,2.78-4.85l-4.39-4.56c-2.48-11.58,1.88-19.47,8.3-29,1.17-1.74,2.83-2.14,4.75-2.33,5.14,3.56,10.27,18.96,11.74,25.26-2.12,8.82-6.21,5.9-2.81,13.63,1.68,3.82.95,20.12.95,25.39,8.07-.18,16.14-.19,24.2-.03Z"/>
        <path class="cls-2" d="M137.67,73.58c-.15-2.93-.85-19.08.51-20.9,2.89-.31,3.21-.37,6.03.06,1.04,2.42,1.02,18.45.24,20.83-2.6.75-3.51.5-6.28.29l-.5-.28Z"/>
        <path class="cls-4" d="M184.84,141.29c-1.3-3.33,1.88-25.89,3.74-29.73.05,3.2-.75,9.69-.6,11.54,4.43,4.28,4.39,9.9-.09,14.23-.56.53-1.13,1.05-1.71,1.55l-1.35,2.41Z"/>
        <path class="cls-5" d="M187.99,123.1c4.43,4.28,4.39,9.9-.09,14.23-.56.53-1.13,1.05-1.71,1.55l1.8-15.78Z"/>
        <path class="cls-4" d="M130.85,50.42c.05,5.24.47,15.18-.77,19.88-1.75-5.96-.94-13.94.77-19.88Z"/>
        <path class="cls-1" d="M130.39,71.26c2.66,2.68,3.72,2.49,7.28,2.32l.5.28.2,1.09c-2.21,1.55-6.14.9-8.66.42l-.81-1.27c1.42-1.14.79-.6,1.5-2.84Z"/>
        <path class="cls-2" d="M25.53,114.23c-1.04,2.85-2.86,5.23-6.08,5.05-5.56-3.29-7.03-22.84-5.25-28.78,1.73-5.78,8.62-8.97,14.07-7.15l-.96.8c29.06-1.28,61.46.07,90.91-.54,10.6-.22,47.13-.49,55.17,1.03,3.46,2.55,3.92,3.12,6.58,6.44-.05,5.83-.39,9.49-1.07,15.31-7.02,1.89-8.26,4.04-12.87,9.77-.99,1.46-2.01,3.09-3.48,4.09-1.96,1.33-4.41,1.75-6.7,1.14-3.86-1.03-5.49-3.45-7.37-6.65-7.67-13.09-17.69-13.59-26.94-1.59-1.45,3.02-4.3,7.97-7.39,9.45-8.8,4.21-13.12-4.87-16.59-11.08-11.26-12.65-19.47-5.86-27.2,5.65-4.48,7.41-10.99,9.96-17.07,2.46-2.5-4.37-3.23-9.54-8.16-12.12-7.38-3.86-15.86-.35-19.59,6.72Z"/>
        <path class="cls-5" d="M97.55,111.53c6.08-1.62,18.6-1.69,23.98,1.64-1.45,3.02-4.3,7.97-7.39,9.45-8.8,4.21-13.12-4.87-16.59-11.08Z"/>
        <path class="cls-5" d="M148.47,114.75c7.46-2.68,10.88-3.2,17.55,1.42-.99,1.46-2.01,3.09-3.48,4.09-1.96,1.33-4.41,1.75-6.7,1.14-3.86-1.03-5.49-3.45-7.37-6.65Z"/>
        <path class="cls-5" d="M53.28,119.63c5.31-5.38,10.29-3.81,17.07-2.46-4.48,7.41-10.99,9.96-17.07,2.46Z"/>
        <path class="cls-4" d="M25.53,114.23c-1.04,2.85-2.86,5.23-6.08,5.05-5.56-3.29-7.03-22.84-5.25-28.78,1.73-5.78,8.62-8.97,14.07-7.15l-.96.8c-12.79.93-13.11,7.26-11.88,18.98.29,2.77,1.92,12.68,3.67,14.44,2.5-.2,2.89-.9,4.91-2.31l1.52-1.04Z"/>
        <path class="cls-5" d="M45.77,122.22c7.01,14.22,17.13,16.21,28.29,4.8,2.14-2.19,10.3-14.64,12.95-12.36,9.63,8.25,7.59,16.33,22.18,19.29,4.81,5.03,5.3,6.89,11.16,11.87-5.36.31-10.9.56-16.24,1.07-5.01.41-17.4-.01-23.03,0-14.81.03-30.27.17-45-.77-4.43.18-8.86.97-12.73-.52-1.81-2.03-1.26-1.73-1.8-4.91-.6-3.92-1.58-8.4-2.36-12.34,7.32-2.7,7.98-3.14,12.88-8.87,6.12-6.74,9.91-4.3,13.69,2.75Z"/>
        <path class="cls-2" d="M32.08,119.47c6.12-6.74,9.91-4.3,13.69,2.75-1.28.35-11.8-2.21-13.69-2.75Z"/>
        <path class="cls-2" d="M21.55,140.68c3.84.56,11.73,2.9,14.53,5.43-4.43.18-8.86.97-12.73-.52-1.81-2.03-1.26-1.73-1.8-4.91Z"/>
        <path class="cls-2" d="M17.43,156.3c8.98-.65,21.74-.1,31,.05l49.32.64c25.77.28,51.68-.66,77.46-.42,4.1.04,9.26.47,11.2,4.46-1.01,5.04-2.85,5.19-7.57,5.73-16.18,1.15-163.81,1.63-166.14.44-1.84-.94-2.87-2.62-3.37-4.56-.29-1.09-.24-2.39.45-3.32,1.77-2.38,4.96-2.59,7.66-3.02Z"/>
        <path class="cls-5" d="M109.19,133.94c16.29-.3,15.55-15.91,25.48-18.81,2,.34,3.43.74,4.61,2.77,6.47,11.17,15.81,19.29,28.46,10.48,3.09-2.15,5.66-4.97,9.14-7.3-.52,8.67-1.44,16.99-2.36,25.62l-43.44.19c-7.52.1-20.14.77-26.96-.02,5.34-.52,10.87-.76,16.24-1.07-5.86-4.97-6.35-6.83-11.16-11.87Z"/>
        <path class="cls-2" d="M95.44,177.79c5.63-.01,7.08,1.03,9.08,6.82,4.61,13.36,10.44,19.24,23.01,25.17-8.67,1.2-15.75,2.14-24.48,2.69-13.68.31-20.5-.2-33.74-2.55,16.38-8.34,21.35-14.66,26.13-32.13Z"/>
        <path class="cls-2" d="M96.77,13.72c4.31,3.22,8.05,21.73,1.22,24.87l-1.52-2.12c-1.79-.34-.87-.3-3.08,1.07l-1.35-.53c-5.18-6.02,1.42-17.4,4.73-23.28Z"/>
        <path class="cls-2" d="M140.43,18.34c3.76,3.6,8.26,15.01,4.11,19.39-2.41.41-1.59.33-4.3-1.44-1.21,1.28-1.44,1.46-2.87,2.51l-1.42-.37c-3.31-5.24,1.61-15.45,4.48-20.08Z"/>
        <path class="cls-2" d="M49.24,53.45c2.28.07,4.43-.17,5.9,1.09.31,3.44,1.11,18-1.36,19.96-2.29-.02-2.93-.04-5.18-.39-1.49-2.52-1.71-16.82-.96-19.98l1.59-.69Z"/>
        <path class="cls-2" d="M92.99,52.58c3.05-.17,4.04-.37,6.96.28,1.27,3.23.4,16.8.26,21.05-3.36.01-3.41.56-5.83-.9-2.67-4.62-1.4-14.75-1.39-20.43Z"/>
        <path class="cls-2" d="M50.12,20.47c3.33,3.59,8.62,19.47,1.57,20.14l-2-2.05-.89-.99c-1.43.62-1.39.63-2.93.82l-.84-1.28c-.65-7.08,1.28-10.85,5.09-16.65Z"/>
      </g>
      <g>
        <path class="cls-4" d="M212.82,96.4h-27.75c-6.15,0-11.13-4.98-11.13-11.13v-37.75c0-6.15,4.98-11.13,11.13-11.13h27.75c6.15,0,11.13,4.98,11.13,11.13v37.75c0,6.15-4.98,11.13-11.13,11.13Z"/>
        <text class="cls-3" transform="translate(189.54 84.57)"><tspan x="0" y="0">1</tspan></text>
      </g>
    </g>
  </g>
</svg>