<?xml version="1.0" encoding="UTF-8"?>
<svg id="Capa_2" data-name="Capa 2" xmlns="http://www.w3.org/2000/svg" xmlns:xlink="http://www.w3.org/1999/xlink" viewBox="0 0 251.56 220">
  <defs>
    <style>
      .cls-1 {
        fill: url(#Degradado_sin_nombre_5);
      }

      .cls-2 {
        fill: #353a59;
      }

      .cls-3 {
        fill: #8e9aae;
      }

      .cls-4, .cls-5 {
        fill: #fff;
      }

      .cls-6 {
        fill: #2b2d43;
      }

      .cls-7 {
        fill: #e87782;
      }

      .cls-5 {
        font-family: PlusJakartaSans-SemiBold, 'Plus Jakarta Sans';
        font-size: 36px;
        font-weight: 600;
        letter-spacing: .05em;
      }
    </style>
    <linearGradient id="Degradado_sin_nombre_5" data-name="Degradado sin nombre 5" x1="33.68" y1="908.29" x2="38.15" y2="904.72" gradientTransform="translate(0 942) scale(1 -1)" gradientUnits="userSpaceOnUse">
      <stop offset="0" stop-color="#2b2d43"/>
      <stop offset="1" stop-color="#353a59"/>
    </linearGradient>
  </defs>
  <g id="ICONS">
    <g>
      <g>
        <path class="cls-2" d="M143.28,0c3.41,0,6.92-.1,10.24.76,8.91,2.29,16.48,8.16,20.91,16.22,4.86,8.67,6.35,21.59,1.86,31.15-1.13,2.39-7.31,7.34-8.26,10.52,4.57,16.75.13,27.59-10.12,40.75l.56.24c15.89,7.06,31.64,17.55,38.16,34.19,6.33,16.14-3.28,24.4-16.9,28.97,3.98,9.77,5.65,15.75,3.19,26.55-5.18,22.77-34.27,39.15-53.92,22.81-1.74-1.45-3.65-5.37-4.75-7.45-21.41,6.16-26.07,4.99-47.74,1.92-4.48,12.13-14.15,13.59-25.61,13.34-4.24-.43-9.64-2.57-13.36-4.6-10.42-5.65-18.12-15.26-21.36-26.67-2.27-8.19-.99-13.33,2.9-20.4-14.26-5.26-22.63-13.96-17.62-30.44,4.84-15.92,21.32-26.59,35.33-34.07-.82-.73-1.62-1.48-2.41-2.25-12.71-12.3-12.68-22.28-12.79-38.51C-1.19,42.22,7.06,10.18,38.01,3.9c9.94-2.02,17.22,2.18,24.98,7.94,1.45-.72,2.93-1.38,4.44-1.97,18.76-7.22,36.26-7.56,54.68.55C128.94,4.63,134.14,1.13,143.28,0Z"/>
        <path class="cls-4" d="M132.93,13.31c20.05-9.73,36.72,2.98,36.71,24.37l.88.57c.31,6.17-7.15,14.6-12.77,16.47.16.66.7,3.14.9,3.62,8.67,12.13.42,32.32-11.21,39.71-2.49,1.58-5.7,3.82-8.71,3.71-5.88,1.76-12.64,2.1-16.13,6.49-.46,2.28-.61,1.21.58,3.31,7.09,4.55,20.16-1.64,26.94-5.12,16.05,4.71,34.23,17.8,38.98,34.55-3.46,15.93-10.32,12.29-23.19,9.56-9.71-1.49-9.36-18.29-14.07-22.46-2.47-.56-1.32-.68-3.57.22-.81,1.23-1.53,2.04-1.04,3.72,1.38,4.78,7,24.03,5.51,27.87l-.36.14c-2.69.88-6.16,1.87-8.35,3.66-1.06,2.74-10.37,9.34-13.09,13.91-3.32,5.59-3.99,13.74-8.46,17.58l-1.54.45-.51-.34c-16.74,5.53-23.1,4.94-40.59,2.87-2.08.27-2.74-.62-3.36-2.25-5.73-15.3-12.08-28.01-28.94-33.11-5.41-1.63-14.19-3.48-15.49,3.99l-.99-.09c-1.25-1.42-2.06-2.8-.94-4.54,5.73-1.73,6.94-1.78,12.98-2.01,1.97-4.67,3.11-7.45,4.06-12.44-2.18,2.48-.6,3.29-4.2,4.1-.91-2.09-.51-6.97-.36-9.34-1.14,3.28-1.77,5.82-4.14,8.46-6.73,7.47-16.03,12.05-25.17,5.34l.2-.58c-1.2-1.55-2.61-3.01-3.94-4.46l-.68.15c-3.85-10.55,3.84-20.41,11.13-27.42,3.55-3.41,13.44-11.16,18.39-11,.77-.25,5.54-2.94,6.56-3.49,3.99,1.72,8.13,3.08,12.36,4.09,5.09,1.23,12.66,2.98,17.25.19,1.39-2.32,1.02-1.07.98-3.94-2.44-4.5-9.37-2.89-13.55-4.27-5.02-1.66-10.17-4.1-15.05-6.22-11.05,1-22.5-27.82-15.07-38.96l.45-1.01c-.47-3.41-6.25-5.66-10.18-8.86l-.73-.6c-.38.33-.1.16-.98.16-.8-1.3-1.56-2.62-2.27-3.96-2.64-5.17-3.05-11.2-1.15-16.69,2.12-6.16,6.56-11.24,12.37-14.18l.93.51c12.57-4.46,20.85-4.95,28.76,7.17,20.02-7.72,34.48-11.76,55.69-5.24,2.24.69,9.99,3.13,11.95,2.81l.18-.51-.39-.9c.82-3.14,2.81-4.57,5.38-6.23l1.06.43Z"/>
        <path class="cls-6" d="M13.48,155.73c25.04,11.66,25.79-20.51,33.88-27.25,2.45-.56,1.23-.54,3.81.18,2.88,3.09,1.89,5.62.9,9.47-1.96,7.66-4.24,14.7-7.13,22.07,13.31,4.66,21.27,10.51,28.03,23.54,2.39,4.61,3.48,11.9,6.86,14.44-2.08.27-2.74-.62-3.36-2.25-5.73-15.3-12.08-28.01-28.94-33.11-5.41-1.63-14.19-3.48-15.49,3.99l-.99-.09c-1.25-1.42-2.06-2.8-.94-4.54,5.73-1.73,6.94-1.78,12.98-2.01,1.97-4.67,3.11-7.45,4.06-12.44-2.18,2.48-.6,3.29-4.2,4.1-.91-2.09-.51-6.97-.36-9.34-1.14,3.28-1.77,5.82-4.14,8.46-6.73,7.47-16.03,12.05-25.17,5.34l.2-.58Z"/>
        <path class="cls-3" d="M42.6,142.5c.98-3.92,2.17-11.08,6.29-12.56,3.49,1.79,1.55,7.24.6,10.21-.81,2.52-1.59,5.05-2.34,7.59-2.18,2.48-.6,3.29-4.2,4.1-.91-2.09-.51-6.97-.36-9.34Z"/>
        <path class="cls-6" d="M152.37,160.05c-.39-1.14-6.72-31.68-6.8-30.92,1.74-1.77,1.59-1.68,3.93-2.53,7.77,1.14,8.31,16.9,16.42,23.97-9.71-1.49-9.36-18.29-14.07-22.46-2.47-.56-1.32-.68-3.57.22-.81,1.23-1.53,2.04-1.04,3.72,1.38,4.78,7,24.03,5.51,27.87l-.36.14Z"/>
        <path class="cls-6" d="M158.64,58.35c8.67,12.13.42,32.32-11.21,39.71-2.49,1.58-5.7,3.82-8.71,3.71,18.67-11.91,25.07-20.74,19.92-43.42Z"/>
        <path class="cls-6" d="M9.54,151.27l-.68.15c-3.85-10.55,3.84-20.41,11.13-27.42,3.55-3.41,13.44-11.16,18.39-11-14.79,9.03-30.39,18.43-28.85,38.26Z"/>
        <path class="cls-6" d="M46.93,99.36c-11.05,1-22.5-27.82-15.07-38.96-1.55,16.82-.56,28.44,15.07,38.96Z"/>
        <path class="cls-6" d="M21.41,49.94c-.38.33-.1.16-.98.16-.8-1.3-1.56-2.62-2.27-3.96-2.64-5.17-3.05-11.2-1.15-16.69,2.12-6.16,6.56-11.24,12.37-14.18l.93.51c-13.15,10-16.09,18.91-8.9,34.16Z"/>
        <path class="cls-6" d="M144.02,163.71c-1.06,2.74-10.37,9.34-13.09,13.91-3.32,5.59-3.99,13.74-8.46,17.58l-1.54.45-.51-.34c8.1-5.51,3.82-20.28,23.6-31.61Z"/>
        <path class="cls-6" d="M169.63,37.68l.88.57c.31,6.17-7.15,14.6-12.77,16.47,2.01-5.3,9.05-3.97,11.89-17.05Z"/>
        <path class="cls-6" d="M126.88,20.01l-.39-.9c.82-3.14,2.81-4.57,5.38-6.23l1.06.43c-2.03,2.22-4.04,4.46-6.04,6.7Z"/>
        <path class="cls-7" d="M79.68,125.62c4.97-4.77,8.96-5.05,15.62-4.97,11.99.14,23.14-2.71,32.22,7.53,7.02,7.92,7.88,14.46,7.06,24.53-.52,13.21-2.8,17.28-12.88,26.23-1.23,1.09-3.97,3.47-5.4,4.19-4.37,2.82-11.19,3.87-16.46,5.13-4.97-3.09-8.97-4.5-14.29-6.87-24.16-10.75-22.1-39.46-5.88-55.77Z"/>
        <path class="cls-7" d="M79.68,125.62c-.14,3.61-3.9,7.87-5.81,11.23-5.95,10.46-6.59,27.14,3.18,35.77,12.01,10.62,21.31,15.02,36.9,9.21,1.58.32,1.09.11,2.36,1.28-4.37,2.82-11.19,3.87-16.46,5.13-4.97-3.09-8.97-4.5-14.29-6.87-24.16-10.75-22.1-39.46-5.88-55.77Z"/>
        <path class="cls-2" d="M90.86,65.64c5.87-1.16,17.38-.19,22.91,2.93,5.03,2.89,8.67,7.68,10.11,13.3,2.62,10.36-4.85,20.49-10.93,28.3-2.41,3.09-4.72,3.63-8.41,4.56-27.1,2.62-53.71-38.94-13.68-49.09Z"/>
        <path class="cls-4" d="M106.84,76.99c12.12,2.05,12.4,13.83,2.26,20.82-8.21,1.92-8.03-3.13-9.33-9.55l5.6-4.05c.62-2.1,1.07-5.02,1.47-7.22Z"/>
        <path class="cls-4" d="M84.55,77.28c2.26,2.65,3.39,8.97,8.33,12.43,3.2,2.23,2.07,8.29-2.83,10.63-9.65-3.48-15.86-16.31-5.5-23.06Z"/>
        <path class="cls-2" d="M140.23,20.79c5.61.64,10.78,3.87,14.42,8,4.26,4.83,6.26,8.39.75,12.46-5.43-.92-17.44-10.92-18.41-16.59.95-2.74.54-1.83,3.23-3.87Z"/>
        <path class="cls-2" d="M40.78,27.31c3.74-2.23,6.2-3.06,9.73.2,1.75,4.32-1.04,6.28-4.46,8.55-3.49,2.31-9.3,8.64-12.57,9.91-1.89-.77-1.74-.91-2.89-2.66-.92-7.45,4.6-12.26,10.19-16Z"/>
        <path class="cls-6" d="M40.78,27.31c3.74-2.23,6.2-3.06,9.73.2,1.75,4.32-1.04,6.28-4.46,8.55-3.49,2.31-9.3,8.64-12.57,9.91-1.89-.77-1.74-.91-2.89-2.66.79-.02.32-.04,1.53.2l1.05.21c4.25-1.76,5.09-4.58,7.26-8.62,4.38-.98,7.01-1.55,8.69-5.65-.54-2.13.03-1.26-1.96-2.56-2.76-.35-3.26.16-5.92,1.41l-.45-.99Z"/>
        <path class="cls-1" d="M30.6,43.31c-.92-7.45,4.6-12.26,10.19-16l.45.99c-2.62,2.33-5.36,4.45-7.26,7.35l.46,1.03c2.81.28,3.35-.82,6-1.58-2.17,4.03-3.01,6.86-7.26,8.62l-1.05-.21c-1.21-.24-.74-.22-1.53-.2Z"/>
        <path class="cls-2" d="M123.76,52.55c3.47-.82,6.94,1.34,7.73,4.81.79,3.47-1.4,6.93-4.88,7.69-3.44.75-6.84-1.41-7.63-4.84-.78-3.43,1.35-6.86,4.77-7.67Z"/>
        <path class="cls-6" d="M64.75,55.07c2.12-.71,4.45-.23,6.11,1.27,1.66,1.49,2.38,3.76,1.9,5.94-.48,2.18-2.1,3.93-4.24,4.58-3.24.99-6.66-.81-7.69-4.03-1.03-3.22.72-6.67,3.92-7.75Z"/>
        <path class="cls-2" d="M66.25,55.61c7.28,1.27,6.04,6.14,1.52,10.01-3.09-.22-2.38.26-4.62-1.29-1.84-4.16-.22-6.2,3.1-8.72Z"/>
        <path class="cls-4" d="M152.23,168.82c1.63.16,5.15-1.77,7.32-1.93,3.41-.25,6.54.69,9.98,1.2,4.39.42,4.91,2.75,7.23,6.29.27,6.66.41,10.62-2.28,17-2.3,5.46-8.42,14.85-14.86,15.2-7.48,2.9-12.6,3.81-20.52,2.02-4.19-.34-5.92-3.93-7.91-7.1-.03-11.51,7.95-31.98,21.03-32.68Z"/>
        <path class="cls-6" d="M131.2,201.49c-.03-11.51,7.95-31.98,21.03-32.68-9.2,6.66-17.13,13.77-19.35,25.51-1.34,7.11,1.25,10.19,6.23,14.26-4.19-.34-5.92-3.93-7.91-7.1Z"/>
        <path class="cls-6" d="M169.54,168.09c4.39.42,4.91,2.75,7.23,6.29.27,6.66.41,10.62-2.28,17-2.3,5.46-8.42,14.85-14.86,15.2,11.57-8.42,24.32-26.82,9.9-38.48Z"/>
        <path class="cls-4" d="M28.72,172.39c10.9-19.7,51.42,18.27,39.19,33.63l-.46-.35c-4.63,4.35-6.36,6.1-13.04,5.86l-3.25-.14.09.64c-15.02-1.03-28.3-16.79-27.3-32.04l.89-.44c.89-2.13,2.69-5.07,3.87-7.15Z"/>
        <path class="cls-6" d="M28.72,172.39c10.9-19.7,51.42,18.27,39.19,33.63l-.46-.35c4.28-19.21-19.31-44.89-38.73-33.28Z"/>
        <path class="cls-6" d="M24.85,179.54c1.04,15.56,10.55,28.45,26.32,31.84l.09.64c-15.02-1.03-28.3-16.79-27.3-32.04l.89-.44Z"/>
      </g>
      <g>
        <path class="cls-6" d="M227.17,115h-44.02c-6.53,0-11.82-5.29-11.82-11.82v-26.37c0-6.53,5.29-11.82,11.82-11.82h44.02c6.53,0,11.82,5.29,11.82,11.82v26.37c0,6.53-5.29,11.82-11.82,11.82Z"/>
        <text class="cls-5" transform="translate(190.52 103.63)"><tspan x="0" y="0">G</tspan></text>
      </g>
    </g>
  </g>
</svg>