<?xml version="1.0" encoding="UTF-8"?>
<svg id="Capa_2" data-name="Capa 2" xmlns="http://www.w3.org/2000/svg" viewBox="0 0 200 224.16">
  <defs>
    <style>
      .cls-1 {
        fill: #353a59;
      }

      .cls-2 {
        fill: #fff;
      }

      .cls-3 {
        fill: #2b2d43;
      }

      .cls-4 {
        fill: #e87782;
      }
    </style>
  </defs>
  <g id="ICONS">
    <g>
      <path class="cls-1" d="M113.03,7.17c.64-1.86.87-3.98,3.05-4.71,4.52-1.51,9.23-1.84,13.91-2.22,11.41-.94,15.69.41,20.76,11.32,6.68,1.33,18.91,1.98,23.08,7.94,7.82,11.17-2.7,64.61-3.9,80.43-.14,9.55,3.66,34.18,8.58,41.79,7.39.33,7.1,3.46,8.72,9.76,21.93,9.51,8.91,4.77,9.16,20.62.07,4.34-3.41,5.37-6.94,7.3,1.59,5.31,3.22,8.88,1.01,13.99-2.65,4.5-3.59,6.06-8.26,8.25-6.6,2.25-14.24,3.99-21.24,3.94l-4.12.14-.44,1.76c-1.44,5.57-3.41,13.3-9.02,16.09-8.3,4.12-131.85-15.2-144.97-20.01-.87-.32-1.13-.71-1.44-1.64-2.81-8.54,1.35-27.6,1.91-36.96.5-8.34.4-16.73.81-25.08,1.18-23.87,2.92-48.14,5.62-71.88,1.2-10.61,3.61-21.1,5.22-31.66,1.44-9.41,1.63-21.74,6.34-30.05,4.64-3.88,53.73-1.24,62.84-1.3,7.52-.05,21.1,3.26,29.32,2.14Z"/>
      <path class="cls-1" d="M164.58,149.54c-1.75-6.74,1.51-44.44,5.35-49.6-.14,9.55,3.66,34.18,8.58,41.79,7.39.33,7.1,3.46,8.72,9.76,21.93,9.51,8.91,4.77,9.16,20.62.07,4.34-3.41,5.37-6.94,7.3,1.59,5.31,3.22,8.88,1.01,13.99-2.65,4.5-3.59,6.06-8.26,8.25-6.6,2.25-14.24,3.99-21.24,3.94l-4.12.14.08-4.34c-1.33-3.63.4-8.91,3.1-11.63.59-7.97,5.12-33.6,4.56-40.24Z"/>
      <path class="cls-4" d="M164.58,149.54c.31-1.63.79-4.76,1.41-6.12,3.47,8.15,10.04,33.7,12.42,42.99-5.81,1.11-12.59,2.59-18.38,3.37.59-7.97,5.12-33.6,4.56-40.24Z"/>
      <path class="cls-4" d="M178.5,141.73c7.39.33,7.1,3.46,8.72,9.76,21.93,9.51,8.91,4.77,9.16,20.62.07,4.34-3.41,5.37-6.94,7.3-4.38-12.97-6.88-25.26-10.95-37.68Z"/>
      <path class="cls-4" d="M162.36,200.44c7.66,1.05,11.33-1.85,16.67-.66l3.16,1.88c-6.6,2.25-14.24,3.99-21.24,3.94l-4.12.14.08-4.34c1.83-.41,3.6-.66,5.44-.97Z"/>
      <path class="cls-4" d="M160.96,205.61c3.05-2.24,14.05-4.74,18.08-5.82l3.16,1.88c-6.6,2.25-14.24,3.99-21.24,3.94Z"/>
      <path class="cls-4" d="M162.36,200.44c10-2.78,17.49-2.87,28.09-7.03-2.65,4.5-3.59,6.06-8.26,8.25l-3.16-1.88c-5.34-1.19-9.01,1.71-16.67.66Z"/>
      <path class="cls-4" d="M113.03,7.17c.64-1.86.87-3.98,3.05-4.71,4.52-1.51,9.23-1.84,13.91-2.22,11.41-.94,15.69.41,20.76,11.32-11.49-2.06-26.09-3.34-37.72-4.39Z"/>
      <path class="cls-2" d="M27.68,20.28c.37-1.86.48-2.39,1.14-4.16,4.57-1.96,87.33,2.97,95.42,3.76,13.01,1.28,25.97,3.11,38.83,5.49-.73,49.36-7.4,102.13-14.55,151-1.18,8.09-3.72,28.84-6.47,35.73-6.35.08-11.97-.48-18.24-1.46-37.27-5.79-75-9.7-112.19-15.8-.31-.22-.62-.43-.93-.65-.34-5.87,2.27-44.17,3.44-51.55l.98.19c.69-1.68,1.15-7.86,1.46-10.07,3.27-23.1,3.42-46.66,6.32-69.8-.3-.56-.73-1.3-.83-1.76-1.05-5.2,3.52-39.34,4.87-42.21l.75,1.28Z"/>
      <path class="cls-3" d="M11.61,194.84c-.31-.22-.62-.43-.93-.65-.34-5.87,2.27-44.17,3.44-51.55l.98.19c-.77,15.26-1.12,37.43-3.49,52Z"/>
      <path class="cls-3" d="M22.89,62.96c-.3-.56-.73-1.3-.83-1.76-1.05-5.2,3.52-39.34,4.87-42.21l.75,1.28c-1.3,12.03-4.28,31.39-4.79,42.68Z"/>
      <path class="cls-1" d="M39.53,28.7c25.2-1.55,57.37,3.17,82.7,6.18,7.04.84,15.43,2.1,22.36,3.66,1.33.3,4.02,1.37,4.19,2.68,2.9,21.89-10.51,141.6-17.08,155.3-7.41,2.96-23.5,1.87-31.25.37-12.4-2.4-69.14-5.74-75.68-13.14-3.16-8.87-1.17-30.75-.85-41.18.82-26.08,4.59-53,6.94-79.03.81-8.97,1.94-29.06,8.65-34.85Z"/>
      <path class="cls-2" d="M43.64,41.08l1.18-3.16c7.58-2.91,84.33,5.74,95.76,8.24-.21,24.52-3.63,49.02-5.85,73.41-.28,3.07-1,7.37-.97,10.36,1.84,6.74-3.9,46.84-7.73,52.4-.53,1.04-1.5,6.02-1.81,7.48-24.53-.89-50.21-5.11-74.55-8.41-5.88-.8-11.72-1.92-17.65-2.32l-.54.52c-2.11-2.73.08-28.37,1.3-31.97l-.33.24c1.36,1.37.86,2.05.93,4.67.86-4.94,1.11-16.65,1.48-22.4.69-10.43,1.64-20.38,2.58-30.77-.63-.13-.21.01-.98-.9,1.81-10.13,3.11-50.54,6.39-57.5l.8.12Z"/>
      <path class="cls-3" d="M37.43,99.37c-.63-.13-.21.01-.98-.9,1.81-10.13,3.11-50.54,6.39-57.5l.8.12c-1.32,18.07-4.06,40.09-6.21,58.28Z"/>
      <path class="cls-3" d="M133.75,129.94c1.84,6.74-3.9,46.84-7.73,52.4l7.73-52.4Z"/>
      <path class="cls-3" d="M32.01,179.09l-.54.52c-2.11-2.73.08-28.37,1.3-31.97l-.33.24c1.36,1.37.86,2.05.93,4.67-.13,8.02-.64,18.52-1.36,26.55Z"/>
    </g>
  </g>
</svg>