<?xml version="1.0" encoding="UTF-8"?>
<svg id="Capa_2" data-name="Capa 2" xmlns="http://www.w3.org/2000/svg" xmlns:xlink="http://www.w3.org/1999/xlink" viewBox="0 0 236.36 220">
  <defs>
    <style>
      .cls-1 {
        fill: url(#Degradado_sin_nombre_5);
      }

      .cls-2 {
        fill: #353a59;
      }

      .cls-3 {
        fill: url(#Degradado_sin_nombre_16);
      }

      .cls-4 {
        fill: url(#Degradado_sin_nombre_15-2);
      }

      .cls-5 {
        fill: #8e9aae;
      }

      .cls-6 {
        fill: url(#Degradado_sin_nombre_15-5);
      }

      .cls-7, .cls-8 {
        fill: #fff;
      }

      .cls-9 {
        fill: url(#Degradado_sin_nombre_15-6);
      }

      .cls-10 {
        fill: url(#Degradado_sin_nombre_15-4);
      }

      .cls-11 {
        fill: #2b2d43;
      }

      .cls-12 {
        fill: #e87782;
      }

      .cls-13 {
        fill: url(#Degradado_sin_nombre_15-3);
      }

      .cls-14 {
        fill: url(#Degradado_sin_nombre_10);
      }

      .cls-8 {
        font-family: PlusJakartaSans-SemiBold, 'Plus Jakarta Sans';
        font-size: 36px;
        font-weight: 600;
        letter-spacing: .05em;
      }

      .cls-15 {
        fill: url(#Degradado_sin_nombre_15);
      }

      .cls-16 {
        fill: url(#Degradado_sin_nombre_5-2);
      }
    </style>
    <linearGradient id="Degradado_sin_nombre_5" data-name="Degradado sin nombre 5" x1="106.49" y1="-636.81" x2="39.6" y2="-593.7" gradientTransform="translate(0 -498) scale(1 -1)" gradientUnits="userSpaceOnUse">
      <stop offset="0" stop-color="#2b2d43"/>
      <stop offset="1" stop-color="#353a59"/>
    </linearGradient>
    <linearGradient id="Degradado_sin_nombre_15" data-name="Degradado sin nombre 15" x1="74.87" y1="-636.53" x2="68.28" y2="-595.21" gradientTransform="translate(0 -498) scale(1 -1)" gradientUnits="userSpaceOnUse">
      <stop offset="0" stop-color="#8e9aae"/>
      <stop offset="1" stop-color="#e87782"/>
    </linearGradient>
    <linearGradient id="Degradado_sin_nombre_15-2" data-name="Degradado sin nombre 15" x1="68.89" y1="-629.81" x2="47.89" y2="-613.45" xlink:href="#Degradado_sin_nombre_15"/>
    <linearGradient id="Degradado_sin_nombre_15-3" data-name="Degradado sin nombre 15" x1="92.15" y1="-633.09" x2="97.73" y2="-599.13" xlink:href="#Degradado_sin_nombre_15"/>
    <linearGradient id="Degradado_sin_nombre_5-2" data-name="Degradado sin nombre 5" x1="80.29" y1="-637.55" x2="47.73" y2="-672.89" xlink:href="#Degradado_sin_nombre_5"/>
    <linearGradient id="Degradado_sin_nombre_10" data-name="Degradado sin nombre 10" x1="109.32" y1="-678.48" x2="93.16" y2="-721.19" gradientTransform="translate(0 -498) scale(1 -1)" gradientUnits="userSpaceOnUse">
      <stop offset="0" stop-color="#353a59"/>
      <stop offset="1" stop-color="#8e9aae"/>
    </linearGradient>
    <linearGradient id="Degradado_sin_nombre_15-4" data-name="Degradado sin nombre 15" x1="110.17" y1="-639.83" x2="120.63" y2="-606.75" xlink:href="#Degradado_sin_nombre_15"/>
    <linearGradient id="Degradado_sin_nombre_16" data-name="Degradado sin nombre 16" x1="112.3" y1="-612.86" x2="103.86" y2="-611.23" gradientTransform="translate(0 -498) scale(1 -1)" gradientUnits="userSpaceOnUse">
      <stop offset="0" stop-color="#8e9aae"/>
      <stop offset="1" stop-color="#2b2d43"/>
    </linearGradient>
    <linearGradient id="Degradado_sin_nombre_15-5" data-name="Degradado sin nombre 15" x1="124.38" y1="-677.18" x2="127.51" y2="-697.1" xlink:href="#Degradado_sin_nombre_15"/>
    <linearGradient id="Degradado_sin_nombre_15-6" data-name="Degradado sin nombre 15" x1="107.06" y1="-676.23" x2="112.2" y2="-702.23" xlink:href="#Degradado_sin_nombre_15"/>
  </defs>
  <g id="ICONS">
    <g>
      <g>
        <path class="cls-11" d="M64.09,14.69c6.31-3.92,13.06-3.48,16.29-5.65,7.75-5.22,1.61-10.05,16.41-8.86,4.91,2.86,6.25,4.54,9.79,8.91,13.75-2.33,30.24,2.03,18.96,18.29l3.1,4.31c2.07-3.37,6.72-4.93,10.29-5.93l.71-2.42c2.86-13.43,18.04,4.17,23.49,7.18,9.51,5.25,15.37,2.2,20.74,12.33-.13,1.78-.8,7.9-.34,8.98,2.71,6.44,9.18,14.09,2.07,20.35-4.79,4.22-9.98,3.14-14.2,5.54,8.89,1.81,12.54,1.94,20.94,6.19,10.06,5.09,10.39,14.01-1.05,16.98-3.88,1.09-4.93,1.25-8.92,1.57-1.22,1.19-2.47,2.38-3.68,3.58-6.12,5.35-12.1,12.48-17.93,18.37-4.26,4.31-10,9.21-13.91,13.51,14.27,9.08,15.52,17.89,10.77,33.36l-5.09,4.33-8.07.13c-3.93,3.51-6.56,5.15-6.34,10.82l1.81,3.46c8.35,18.67,3.97,25.85-16.97,25.39-10.17,6.35-14.27,4.68-25.75,3.25-1.97-.25-10.15.19-11.03-.43-7.56-5.32-13.94-1.77-21.48-3.69-12.93-5.15-6.33-18.14-1.52-27.14-4.17-4.27-4.01-5.73-6.23-11.19-8.57.84-10.6.77-14.92-7.2-.49-1.24-1.69-3.54-2.31-4.82-2.71-3.55-4.45-4.98-4.16-9.39,1.03-11.17,3.92-13.69,10.52-22.32,2.81,1.51,5.7,3.59,8.36,5.39h.59s3.8,0,3.8,0l2.96-.44c2.1-1.81-.37-.03.55-3.51-.38-.67-12.77-10.13-14.19-11.26.34-4.66-2.42-10.07,1.35-13.25-1.36-2.34-5.02-10.52-5.73-13.07l-1.67-2.29c-.6-1.47-1.29-2.12-2.28-3.39,1.57-.23,1.07-.08,2.47-.73,2.3-1.72,2.91-2.29,5.5-3.39-1.07-2.09-1.06-3.08-2.73-3.89l-1.59,1.04c-.71-1.08-.98-2.03-1.45-3.24,2.97-4.58,1.88-7.57,7.96-9.07.38-.14.76-.28,1.14-.43,4.39-1.81,6.17-7.63,7.94-11.87-4.45-4.68-5.7-6.83-6.05-13.27,1.04-3.71,2.03-4.4,5.32-6.17l-3.05-2.99c.04-2.42.45-5.24.73-7.68l5.96.11c-.77-2.89-.84-5.46-1.06-8.43,1.17-2.76,1.51-3.51,3.21-5.96Z"/>
        <path class="cls-2" d="M64.09,14.69c6.31-3.92,13.06-3.48,16.29-5.65,7.75-5.22,1.61-10.05,16.41-8.86,4.91,2.86,6.25,4.54,9.79,8.91,13.75-2.33,30.24,2.03,18.96,18.29l3.1,4.31c2.07-3.37,6.72-4.93,10.29-5.93l.71-2.42c2.86-13.43,18.04,4.17,23.49,7.18,9.51,5.25,15.37,2.2,20.74,12.33-.13,1.78-.8,7.9-.34,8.98,2.71,6.44,9.18,14.09,2.07,20.35-4.79,4.22-9.98,3.14-14.2,5.54,8.89,1.81,12.54,1.94,20.94,6.19,10.06,5.09,10.39,14.01-1.05,16.98-3.88,1.09-4.93,1.25-8.92,1.57-1.22,1.19-2.47,2.38-3.68,3.58.57-2.86.91-2.5-.08-4.43-1.4-.3-1.54-.27-2.9.03l-1.14.26-.9-.98c-1.12-1.35-6.41-3.32-8.09-2.88.38,9.75-6.25,11.02-14.23,12.35-2.22,2.02-4.87,4.82-7.76,5.47-1.6-2.34-7.44-1.95-10.07-1.92l-.55.57c-2.7-.47-7.42-4.25-9.82-5.96l-1.11-.84-2.64-2.69c-.24-.11-1.17-.92-1.41-1.12l-.42-1.83-.75-.1c-.93,1.7-1.79,3.62-3.21,4.89,1.09-2.73,2.13-3.86.07-6.12l-2.28-.34c-2.77,3.51-4.35,6.87-6.21,10.92-7.65-2.9.22-13.81-16.58-10.26l-.98-3.2c-2.12.07-5.08,0-6.63,1.24l-3.82.63c-4.18-.1-8.06-2.22-11.76-4.04-3.24-.13-4.39-.79-7.61,0,.1,1.35-.03.88.6,2.07-.21,2.12-1.5,3.42-3.3,4.44-2.76-5.76-4.56-9.07-5.47-15.37l-.67.25-1.2-.56c-1.07-2.09-1.06-3.08-2.73-3.89l-1.59,1.04c-.71-1.08-.98-2.03-1.45-3.24,2.97-4.58,1.88-7.57,7.96-9.07.38-.14.76-.28,1.14-.43,4.39-1.81,6.17-7.63,7.94-11.87-4.45-4.68-5.7-6.83-6.05-13.27,1.04-3.71,2.03-4.4,5.32-6.17l-3.05-2.99c.04-2.42.45-5.24.73-7.68l5.96.11c-.77-2.89-.84-5.46-1.06-8.43,1.17-2.76,1.51-3.51,3.21-5.96Z"/>
        <path class="cls-12" d="M119.77,73.96l.94-.33c1.76-2.75,1.39-3.79,3.69-4.88,4.44.65,6.08,2.48,9.95,4.61,2.19-1.61,4.52-3.26,6.58-5.01,3.62,2.32,3.9,3.74,6.83,6.41,2.94,2.67,6.26,5.2,9.27,7.86-.24,2.44-1.88,3.88-3.54,5.74,4.52,9.67,8.62,17.55-7.39,14.05-1.4,1.96-2.82,3.91-4.25,5.85-11.29.97-8.52-5.33-20.14-11.04l-.37-.37.51-1.36c-.79-3.93-1.18-7.16-1.4-11.17-.18-3.25.71-7.72-.69-10.36Z"/>
        <path class="cls-2" d="M132.88,82.39c4.15.55,12.89,4.47,7.93,8.96l-1.27-.14-1.11-2.33-2.63-1.76-.9.26-.3,1.14,1.39,2.18c-.42.22-1.19.17-1.74.2-2.91-2.07-3.07-5.58-1.37-8.51Z"/>
        <path class="cls-12" d="M101.2,15.28c2.04,1.52,9.07.61,12.04.43,5.5,6.2,2.96,5.01,4.99,9.8-1.69,2.39-1.54,1.51-1.78,4.13.89,2.31,1.51,3.09,2.89,5.18-11.17,7.01-15.07,5.2-27.55,4.54-2.69-.14-5.01.37-8.32.13-.73-.05-1.45-.1-2.18-.16-.82-.61-1.57-1.32-2.34-2-.98-2.14-.49-3.49-.16-5.95-4.69-3.77-8.71-2.66-9.29-8.72.43-.43.58-.48.69-1.05,1.46-7.67,11.15-2.46,14.98-5.32,6.08-.45,9.64-.91,16.01-1.01Z"/>
        <path class="cls-2" d="M90.27,24.52l-.19-1.14c2.65-2.38,7.6-4.07,9.6-.01,1.69,2.04,1.41.97,1.56,3.12-3.01,4.33-9.94,2.83-10.96-1.97Z"/>
        <path class="cls-7" d="M90.27,24.52l-.19-1.14c2.65-2.38,7.6-4.07,9.6-.01-4.2.04-5.3.26-9.41,1.15Z"/>
        <path class="cls-2" d="M165.18,85.61l-.25-.52c-1.66-.53-1.6-.44-2.87-1.59-.54-2.64-.73-1.82.05-4.12,2.82-2.25,5.46-1.02,8.78-.85l.51-.8c8.89,1.81,12.54,1.94,20.94,6.19,10.06,5.09,10.39,14.01-1.05,16.98-3.88,1.09-4.93,1.25-8.92,1.57-1.22,1.19-2.47,2.38-3.68,3.58.57-2.86.91-2.5-.08-4.43-1.4-.3-1.54-.27-2.9.03l-1.14.26-.9-.98c-1.12-1.35-6.41-3.32-8.09-2.88-.06-3.33-.46-6.64-1.22-9.88l.82-2.56Z"/>
        <path class="cls-2" d="M164.36,88.17c7.34,3.34,16.86,7.47,24.9,5.9-1.68,2.57-3.83,2.49-6.37,5.15l-.12,1.06c2.38.96,5.83.64,8.52.62-3.88,1.09-4.93,1.25-8.92,1.57-1.22,1.19-2.47,2.38-3.68,3.58.57-2.86.91-2.5-.08-4.43-1.4-.3-1.54-.27-2.9.03l-1.14.26-.9-.98c-1.12-1.35-6.41-3.32-8.09-2.88-.06-3.33-.46-6.64-1.22-9.88Z"/>
        <path class="cls-7" d="M165.18,85.61c6.53.84,20.32,1.05,24.78,6.5-.13,1.42.1.77-.71,1.96-8.03,1.57-17.56-2.56-24.9-5.9l.82-2.56Z"/>
        <path class="cls-12" d="M55.24,36.65c.04-2.42.45-5.24.73-7.68l5.96.11.22,1.88c2.5-1.46,1.34-1.19,4.37-.75,3.68,2.28,3.63,6.86,8.25,8.97,1.68,1.23,1.85,1.27,3.96,1.79l1.7.43.27.64-1.6.87.94,1.7c-1.09,2.2-.36,1.84-1.92,2.43l-.46-1.3-1.25,2.86c-1.95.47-9.25,3.52-10.84,4.62-.81-4.16-4.22-10.44-7.29-13.58l-3.05-2.99Z"/>
        <path class="cls-2" d="M62.16,30.96c2.5-1.46,1.34-1.19,4.37-.75,3.68,2.28,3.63,6.86,8.25,8.97,1.68,1.23,1.85,1.27,3.96,1.79l1.7.43.27.64-1.6.87.94,1.7c-1.09,2.2-.36,1.84-1.92,2.43l-.46-1.3c-2.06-4.58-11.45-4.02-15.51-14.79Z"/>
        <path class="cls-7" d="M52.54,77.82c4.3.23,6.35,2.77,9.82,3.48,1.46,2.85-1.88,5.85,1.24,11.85.54.77,1.24,1.85,1.82,2.55-3.24-.13-4.39-.79-7.61,0,.1,1.35-.03.88.6,2.07-.21,2.12-1.5,3.42-3.3,4.44-2.76-5.76-4.56-9.07-5.47-15.37,1.76-3.64,1.92-5.2,2.91-9.03Z"/>
        <path class="cls-7" d="M87.62,97.88c4.03-1.3,24.12-4.61,25.28.16-.54.9-.9,1.53-1.51,2.38-2.77,3.51-4.35,6.87-6.21,10.92-7.65-2.9.22-13.81-16.58-10.26l-.98-3.2Z"/>
        <path class="cls-12" d="M138.93,25.76c.09,3.12-.72,7.22-1.33,10.33-2.37,3.19-6.78,5.08-10.24,7.99-.68-1.78-.61-3.45-.71-5.37,1.72-2.84,2.09-3.78,2-7.02,2.07-3.37,6.72-4.93,10.29-5.93Z"/>
        <path class="cls-7" d="M119.77,73.96c1.39,2.64.51,7.11.69,10.36.22,4.01.61,7.24,1.4,11.17l-.51,1.36c-2.03-2.44-1.79-4.45-3-6.29-4.79-7.27-9.48-11.62,1.43-16.59Z"/>
        <path class="cls-2" d="M64.09,14.69c-1.05,3.67-2.37,10.65-.5,14.07l.98.31c1.54-.88,2.54-1.98,4.15-2.27.09-1.64.19-3.28.32-4.91l.37-.23.12.98c.58,6.06,4.6,4.95,9.29,8.72-.33,2.46-.81,3.82.16,5.95.76.68,1.52,1.39,2.34,2-4.8-.49-4.59-5.88-11.58-8.97l-.2.73c1.68,3.84,3.52,4.87,5.26,8.1-4.63-2.11-4.57-6.69-8.25-8.97-3.03-.44-1.87-.71-4.37.75l-.22-1.88c-.77-2.89-.84-5.46-1.06-8.43,1.17-2.76,1.51-3.51,3.21-5.96Z"/>
        <path class="cls-7" d="M85.2,16.29c6.33-10.5,9.15-12.65,16.01-1.01-6.37.1-9.93.57-16.01,1.01Z"/>
        <path class="cls-11" d="M118.92,99.65c1.18-1.37,1.29-1.39,2.79-2.44,11.63,5.71,8.85,12,20.14,11.04l.18.68c-.83.27-1.67.53-2.51.77-4.93,1.39-6.8-.27-11.22-2.72l-9.39-7.33Z"/>
        <path class="cls-2" d="M41.99,80.45c2.97-4.58,1.88-7.57,7.96-9.07l.25.72c-2.11,1.51-6.59,2.06-4.02,6.35,2.4.72,3.69.13,6.36-.63-1,3.84-1.15,5.4-2.91,9.03l-.67.25-1.2-.56c-1.07-2.09-1.06-3.08-2.73-3.89l-1.59,1.04c-.71-1.08-.98-2.03-1.45-3.24Z"/>
        <path class="cls-12" d="M126.65,38.72c.1,1.92.03,3.59.71,5.37-1.11,3.93-.82,7.15.84,10.93l-3.43-.02-1.75-3.64c.39-1.15-.44-7.3-.53-9.34,1.39-.88,2.87-2.22,4.15-3.3Z"/>
        <path class="cls-2" d="M113.68,100.76l1.46-.65.18-2.25c1.7.08,1.93.66,3.6,1.8l9.39,7.33c-3.61,4.64-4.9-1.38-8.92-1.95-.24-.11-1.17-.92-1.41-1.12l-.42-1.83-.75-.1c-.93,1.7-1.79,3.62-3.21,4.89,1.09-2.73,2.13-3.86.07-6.12Z"/>
        <path class="cls-7" d="M122.5,42.02c.08,2.05.92,8.2.53,9.34-6.17-5.47-6.78-2.81-12.61-4.83,4.65-1.23,7.64-2.6,12.08-4.51Z"/>
        <path class="cls-12" d="M124.77,55l3.43.02c1.46,1.86,3.46,3.69,3.67,6.03l-1.33,1.18c-5-.81-5.68-3.11-5.77-7.23Z"/>
        <path class="cls-7" d="M113.25,15.7c7.41-.1,9.63,4.16,4.99,9.8-2.04-4.79.51-3.61-4.99-9.8Z"/>
        <path class="cls-2" d="M139.64,23.34c1.54,4.64-1.89,6.72,1.57,8.96,3.14-.4,3.47-5.18,6.08-3.42-2.17,2.65-6.33,6.73-9.69,7.21.61-3.11,1.42-7.21,1.33-10.33l.71-2.42Z"/>
        <path class="cls-7" d="M65.58,53.22c1.59-1.1,8.89-4.15,10.84-4.62-1.72,4.13-6.85,8.62-10.84,4.62Z"/>
        <path class="cls-2" d="M62.36,81.3l1.43-.22.8.65c.06,1.26-.75,10.1-.99,11.42-3.12-6,.23-9-1.24-11.85Z"/>
        <path class="cls-7" d="M88.66,47.61c3.2-.25,6.69-.8,8.37,2.45,3.91,8.81,12.65,2.07,17.16,5.1,7.68,5.16-7.65,14.72-7.91,20.41-.13,2.8-.64,11.12-1.9,12.15-4.77,3.92-9.39-1.17-15.36.34-4.11,2.31-9.24,5.32-14.07,3.84-6.82-2.1-3.79-9.89-2.42-14.2-3.4-1.93-6.75-3.62-9.64-6.24,1.8-3.43,2.82-5.1,5.48-7.87,3.94-.97,6.75-1.54,10.45-3.22,4.45-5.86,3.16-9.48,9.84-12.74Z"/>
        <path class="cls-2" d="M92.59,64.69c9.22,2.58,1.34,8.92-3.52,10.92-1.15-.25-2.94-1.01-3.63-1.96-3.39-4.6,4.69-7.94,7.16-8.97Z"/>
        <path class="cls-7" d="M149.07,31.86c7.67.15,9.9,4.39,14.18,10.02,3-.6,8.36-2.09,10.86-.29,7.42,4.68-1.68,8.65.86,13.43,1.89,3.57,8.83,6.49,5.46,12.15-3.88,3.15-6.93.59-11.68,1.26-1.69,1.71-3.4,3.4-5.14,5.06-11.77-3.52-10.79-6.14-19.26-13.39-8.57-7.33-14.64-11.21.45-16.61.87-5.37.76-7.47,4.27-11.63Z"/>
        <path class="cls-2" d="M154.97,48.95c5.23.43,8.91,3.45,7.33,8.99-6.33.3-10-2.47-7.33-8.99Z"/>
        <path class="cls-1" d="M47.76,86.54l1.2.56.67-.25c.9,6.29,2.71,9.61,5.47,15.37,1.81-1.01,3.09-2.32,3.3-4.44-.62-1.19-.5-.72-.6-2.07,3.22-.79,4.38-.14,7.61,0,3.7,1.82,7.58,3.94,11.76,4.04l3.82-.63c1.55-1.24,4.51-1.17,6.63-1.24l.98,3.2c16.8-3.55,8.93,7.36,16.58,10.26-.94,2.59-2.92,7.64-3.34,10.16-1.72,5.71-2.07,11.34-3.55,16.77l.24.7c-.75,1.3-1.16,2.07-1.86,3.48l.3-1.38c-1.81,5-.3,6,3.19,9.64-2.93.9-3.11.66-4.9,3.9-1.3-2.33-1.44-2.93-4.24-3.32-2.04.88-1.34.19-2.32,1.98-4.09-2.5-9-4.74-13.35-6.71-4.04-1.12-6.14-1.65-10.28-2.24-1.61-6.44-5.08-3.58-10.07-6.44h3.8s2.96-.45,2.96-.45c2.1-1.81-.37-.03.55-3.51-.38-.67-12.77-10.13-14.19-11.26.34-4.66-2.42-10.07,1.35-13.25-1.36-2.34-5.02-10.52-5.73-13.07l-1.67-2.29c-.6-1.47-1.29-2.12-2.28-3.39,1.57-.23,1.07-.08,2.47-.73,2.3-1.72,2.91-2.29,5.5-3.39Z"/>
        <path class="cls-15" d="M55.09,102.22c1.81-1.01,3.09-2.32,3.3-4.44-.62-1.19-.5-.72-.6-2.07,3.22-.79,4.38-.14,7.61,0,3.7,1.82,7.58,3.94,11.76,4.04l3.82-.63.44,6.53c2.64,16.31,1.18,17.74,7.69,34.54-14.44-11.65-25.56-21.32-34.03-37.98Z"/>
        <path class="cls-12" d="M77.17,99.75l3.82-.63.44,6.53c-.18,1.1-.27,1.59-.54,2.69l-.46-.24-.05-2.86-.43-.74.34-.89.1-.03-.67,1.61.67.27-1.16.42c-.75-2.18-1.89-4.04-2.07-6.14Z"/>
        <path class="cls-11" d="M49.47,109.42c1.7,2.56,5.42,9.2,7.67,10.65.43.07,1.76.26,2.11.59,6.59,6.35,12.67,13.09,20.1,18.57-2.56,2-5.14,2.12-6.35,3.96,1.11,3.25,3.01,1.89,2.36,3.37-4.04-1.12-6.14-1.65-10.28-2.24-1.61-6.44-5.08-3.58-10.07-6.44h3.8s2.96-.45,2.96-.45c2.1-1.81-.37-.03.55-3.51-.38-.67-12.77-10.13-14.19-11.26.34-4.66-2.42-10.07,1.35-13.25Z"/>
        <path class="cls-4" d="M49.47,109.42c1.7,2.56,5.42,9.2,7.67,10.65,3.56,5.29,11.16,13.03,13.38,16.75-2.84-.84-5.6-1.51-8.21-2.89-.38-.67-12.77-10.13-14.19-11.26.34-4.66-2.42-10.07,1.35-13.25Z"/>
        <path class="cls-13" d="M88.6,101.08c16.8-3.55,8.93,7.36,16.58,10.26-.94,2.59-2.92,7.64-3.34,10.16-1.72,5.71-2.07,11.34-3.55,16.77-3.59-4.13-8.49-30.68-9.69-37.19Z"/>
        <path class="cls-2" d="M39.79,90.67c1.57-.23,1.07-.08,2.47-.73,1.4,2.5,2.48,3.56,1.48,6.41l-1.67-2.29c-.6-1.47-1.29-2.12-2.28-3.39Z"/>
        <path class="cls-16" d="M46.05,132.49c2.81,1.51,5.7,3.59,8.36,5.39h.59c4.98,2.87,8.46,0,10.07,6.44,4.14.59,6.24,1.13,10.28,2.24,4.35,1.98,9.26,4.22,13.35,6.71.99-1.79.29-1.1,2.32-1.98,2.81.39,2.94.99,4.24,3.32,1.79-3.24,1.98-3,4.9-3.9,2.38,2.34,3.01,2.84,3.5,6.24,1.06-1.94.84-.91.48-3.25h.68c.5,1.69.63,1.63.14,3.28-3.86,2.49-12.81-.44-17.9,2.41-6.54,3.66-1.68,5.59-10.21,10.23-4.85,4.97-7.73,8.38-11.64,14.16l-2.08,3.64c-4.17-4.27-4.01-5.73-6.23-11.19-8.57.84-10.6.77-14.92-7.2-.49-1.24-1.69-3.54-2.31-4.82-2.71-3.55-4.45-4.98-4.16-9.39,1.03-11.17,3.92-13.69,10.52-22.32Z"/>
        <path class="cls-12" d="M88.69,153.28l.2,1.3c-3.07,3.65-32.1,14.7-37.24,13.5-1.59-1.24-2.27-2.74-2.66-4.7-2.96-14.74,3.51-16.98,16.07-19.05,4.14.59,6.24,1.13,10.28,2.24,4.35,1.98,9.26,4.22,13.35,6.71Z"/>
        <path class="cls-12" d="M46.05,132.49c2.81,1.51,5.7,3.59,8.36,5.39-4.23,2.15-8.63,3.8-10.87,8.12-2.16,3.18-2.92,5.31-3.65,9.11l-4.36-.3c1.03-11.17,3.92-13.69,10.52-22.32Z"/>
        <path class="cls-12" d="M56.92,176.23c-.46.55,19.72-6.58,19.95-6.61-4.85,4.97-7.73,8.38-11.64,14.16l-2.08,3.64c-4.17-4.27-4.01-5.73-6.23-11.19Z"/>
        <path class="cls-2" d="M43.54,146c-.02,1.59-.1,1.96-.8,3.36-3.08,6.17-.08,13.12-.74,19.67-.49-1.24-1.69-3.54-2.31-4.82-2.71-3.55-4.45-4.98-4.16-9.39l4.36.3c.73-3.79,1.49-5.93,3.65-9.11Z"/>
        <path class="cls-12" d="M35.53,154.81l4.36.3c-.09,2.91-.28,6.21-.2,9.09-2.71-3.55-4.45-4.98-4.16-9.39Z"/>
        <path class="cls-2" d="M95.26,154.62c1.79-3.24,1.98-3,4.9-3.9,2.38,2.34,3.01,2.84,3.5,6.24-3.94-1.45-4.29-1-8.06-1.55l-.34-.79Z"/>
        <path class="cls-14" d="M65.23,183.78c3.7,1.67,5.44,1.78,9.52,1.49-2.84,4.39-4.56,7.31-6.93,11.96l-.68,1.8-1.12,2.67c.21,4.23.1,4.47,3.86,6.46l-.49.19c2.48.82,1.61.89,3.93.36,3.32-2.87,3.97-9.05,5-13.56,2.61-1.05,2.74-1.14,5.5-1.23-.79,4.44-4.7,18.42,3.75,17.09,1.9-.25,3.68-.26,5.6-.31,2.91-1.42,2.95-1.12,2.92-4.32.01-2.84.03-4.21.46-7,.75-.25,1.62-.64,2.37-.95.88-1.52.91-2.68,1.17-4.41.04,1.79.01,5.37.21,7.01,2.25.27,1.54-.21,3.04.92-.13,3.68-.27,5.65,1.09,9.25l.38-1.36c.08-2.3.39-5.04.59-7.37,5.66,1.45,5.79,6.84,12.79-.42-.73-4.84-3.42-12.61-5.12-17.22l1.48-.21,1.24,2.22c2.2.2,2.94.74,4.89,1.72,1.72,2.79,2.76,5.06,3.39,8.33,2.08,4.63.5,10.22,4,13,2.24.29,4.94-1.07,6.72-2.36,6.68-5.41-1.05-9.44.92-15.71,1.8-1.71,1.38-1.19,4.2-1.8,8.35,18.67,3.97,25.85-16.97,25.39-10.17,6.35-14.27,4.68-25.75,3.25-1.97-.25-10.15.19-11.03-.43-7.56-5.32-13.94-1.77-21.48-3.69-12.93-5.15-6.33-18.14-1.52-27.14l2.08-3.64Z"/>
        <path class="cls-2" d="M65.23,183.78c3.7,1.67,5.44,1.78,9.52,1.49-2.84,4.39-4.56,7.31-6.93,11.96l-.68,1.8-1.12,2.67c-.1-1.32-.08-2.9-.11-4.24-2.38-1.46-2.68-1.4-5.51-1.86-1.88,5.36-2.19,7.55-2.01,13.08,2.5,2.64,4.16,3.75,6.28,5.88-12.93-5.15-6.33-18.14-1.52-27.14l2.08-3.64Z"/>
        <path class="cls-2" d="M60.4,195.6c1.21-1.9,1.34-2.47,3.45-3.28l1.74.1c1.78,2.04,1.41,2.69.32,5.05-2.38-1.46-2.68-1.4-5.51-1.86Z"/>
        <path class="cls-7" d="M118.19,202.07c.22,3.43.54,5.01-1.77,7.84-2.94,3.58-8.44,2.96-11.61-.04.08-2.3.39-5.04.59-7.37,5.66,1.45,5.79,6.84,12.79-.42Z"/>
        <path class="cls-11" d="M113.08,184.85l1.48-.21,1.24,2.22c1.37,4.06,2.24,8.41,3.47,12,.64,5.02,1.26,7.54-1.93,12-2.97,4.13-9.34,3.02-12.9.38l.38-1.36c3.17,3.01,8.67,3.63,11.61.04,2.31-2.83,2-4.41,1.77-7.84-.73-4.84-3.42-12.61-5.12-17.22Z"/>
        <path class="cls-2" d="M100.09,194.04c.04,1.79.01,5.37.21,7.01-.24,3.29-.02,6.92-1.87,9.47-1.76,1.11-2.82.82-4.92.74l-.38-.49.03-.05c2.91-1.42,2.95-1.12,2.92-4.32.01-2.84.03-4.21.46-7,.75-.25,1.62-.64,2.37-.95.88-1.52.91-2.68,1.17-4.41Z"/>
        <path class="cls-2" d="M115.8,186.85c2.2.2,2.94.74,4.89,1.72,1.72,2.79,2.76,5.06,3.39,8.33l-.68-.88c-1.25-1.65-1.3-3-3.14-3.94-1.74,1.79-.62,4.36-.98,6.77-1.23-3.59-2.1-7.94-3.47-12Z"/>
        <path class="cls-2" d="M146.48,137.75l.36.18c14.27,9.08,15.52,17.89,10.77,33.36l-5.09,4.33-8.07.13c-12.26-2.59-13.57-6.06-21.6-8.87-3.82-2.69-4.58-4.75-2.74-8.73,1.83.65,8.74,3.32,10.13,3.27-1.25-1.48-4.99-3.37-4.36-7.16.47-2.8,3.32-5.32,5.48-7.06.69-.32,1.96-.67,2.73-.91-.88-1.23-.78-1.49-1.25-3.04,5.65-1.78,10.49-1.66,13.64-5.49Z"/>
        <path class="cls-12" d="M134.09,146.28c4.16-1.25,7.17-1.76,11.26.32,3.06,1.54,5.34,4.29,6.28,7.58.98,3.44.79,12.43-3.72,13.27-4.49.84-10.41-1.25-13.94-4.04-.21-1.39-.2-1.58-.23-2.98l-1.05-1.06-.9.09-1.54,1.95c-1.25-1.48-4.99-3.37-4.36-7.16.47-2.8,3.32-5.32,5.48-7.06.69-.32,1.96-.67,2.73-.91Z"/>
        <path class="cls-10" d="M105.19,111.34c1.85-4.05,3.44-7.41,6.21-10.92l2.28.34c2.06,2.25,1.02,3.38-.07,6.12,1.41-1.28,2.28-3.19,3.21-4.89l.75.1.42,1.83c.24.2,1.18,1.01,1.41,1.12l2.64,2.69,1.11.84c2.4,1.71,7.11,5.49,9.82,5.96.36,2.84-.21,3.23-2.28,5.91-2.63,3.41-6.59,7.34-9.81,10.23-4.05,4.66-8.94,8.99-13.82,12.74l-.59-.22c.13-1.39.24-2.73.42-4.11-1.71-9.05.71-8.21.69-15.62-4.41-.26-2.64.95-4.58,3.96-1.05-2.83-.35-4.05-1.15-5.92.43-2.52,2.4-7.57,3.34-10.16Z"/>
        <path class="cls-3" d="M105.19,111.34c1.85-4.05,3.44-7.41,6.21-10.92l2.28.34c2.06,2.25,1.02,3.38-.07,6.12-2.2,4.31-3.69,11.07-6.1,16.32l.06.26c-4.41-.26-2.64.95-4.58,3.96-1.05-2.83-.35-4.05-1.15-5.92.43-2.52,2.4-7.57,3.34-10.16Z"/>
        <path class="cls-7" d="M123.14,108.56c2.4,1.71,7.11,5.49,9.82,5.96.36,2.84-.21,3.23-2.28,5.91-2.63,3.41-6.59,7.34-9.81,10.23-.2-3.21,1.19-19.01,2.26-22.1Z"/>
        <path class="cls-11" d="M113.61,106.88c1.41-1.28,2.28-3.19,3.21-4.89l.75.1.42,1.83c-1.21,1.88-2.42,3.61-3.35,5.64-4.27,8.17-5.97,20.31-7.75,29.53-1.71-9.05.71-8.21.69-15.62l-.06-.26c2.41-5.25,3.9-12.01,6.1-16.32Z"/>
        <path class="cls-7" d="M117.98,103.91c.24.2,1.18,1.01,1.41,1.12l2.64,2.69c-2.33,1.67-4.42,3.06-7.4,1.83.93-2.03,2.14-3.76,3.35-5.64Z"/>
        <path class="cls-2" d="M165.57,98.05c1.68-.44,6.97,1.53,8.09,2.88l.9.98,1.14-.26c1.36-.29,1.51-.33,2.9-.03.98,1.93.65,1.57.08,4.43-6.12,5.35-12.1,12.48-17.93,18.37-4.26,4.31-10,9.21-13.91,13.51l-.36-.18c-2.67.3-8.24,1.25-10.35-.01l.48-1.24-.18-1.37c4.86-3.17,11.33-8.07,15.12-12.44-2.66-5.34-5.66-1.76-9.99-4.14l2.03-2.69c2.89-.65,5.54-3.46,7.76-5.47,7.98-1.33,14.62-2.61,14.23-12.35Z"/>
        <path class="cls-7" d="M165.57,98.05c1.68-.44,6.97,1.53,8.09,2.88-3.99,2.93-17.47,16.26-20.27,20.12l-1.84,1.65c-2.66-5.34-5.66-1.76-9.99-4.14l2.03-2.69c2.89-.65,5.54-3.46,7.76-5.47,7.98-1.33,14.62-2.61,14.23-12.35Z"/>
        <path class="cls-2" d="M153.39,121.05l1.12-.08.35.96c-1.68,3.15-14.81,13.13-18.25,14.57l-.18-1.37c4.86-3.17,11.33-8.07,15.12-12.44l1.84-1.65Z"/>
        <path class="cls-7" d="M88.71,184.43l.07.41c.98.87,1.23,1.11,1.77,2.3.98-.08,2.39-.22,3.34,0l.34,1.94c1.6-.34,1.11-.23,2.6-1.07l-.05,5.4-.23,5.99c-.44,2.79-.45,4.16-.46,7,.03,3.2-.01,2.89-2.92,4.32-1.91.05-3.69.06-5.6.31-8.45,1.33-4.54-12.65-3.75-17.09.88-2.49.54-3.16-.38-5.57.69-.67.58-.48,1.53-.88.3,1.67-.03,1.7.55,3.59.36-1.89,1.53-5.61,3.19-6.65Z"/>
        <path class="cls-5" d="M88.78,184.83c.98.87,1.23,1.11,1.77,2.3.98-.08,2.39-.22,3.34,0l.34,1.94c1.6-.34,1.11-.23,2.6-1.07l-.05,5.4-.23,5.99c-.44,2.79-.45,4.16-.46,7l-.98-3.21c-1.12,1.31-1.44,1.64-2.74,2.76-.89-1.38-.52-3.98-.45-5.78-3.01-2.86-5.49-7.06-2.61-11.05l-.88-3.01.36-1.26Z"/>
        <path class="cls-5" d="M88.78,184.83c.98.87,1.23,1.11,1.77,2.3.98-.08,2.39-.22,3.34,0l.34,1.94c1.6-.34,1.11-.23,2.6-1.07l-.05,5.4c-1.41,0-1.93.39-3.16,1.05l-.74-.33c0-1.61,0-3.21.04-4.82l-.72-.73-1.78.97-1.12-.44-.88-3.01.36-1.26Z"/>
        <path class="cls-2" d="M88.71,184.43l.07.41-.36,1.26c-2.24,6.26-8.91,21-.86,24.93-8.45,1.33-4.54-12.65-3.75-17.09.88-2.49.54-3.16-.38-5.57.69-.67.58-.48,1.53-.88.3,1.67-.03,1.7.55,3.59.36-1.89,1.53-5.61,3.19-6.65Z"/>
        <path class="cls-6" d="M120.68,188.57c-1.32-5.42-6.11-10.09-3.78-14.72l.97.51c.53,1.42.65,2.09,1.82,3.13l.53-.2,4.49,4.73c4.94,6.26,11.27,14.09,11.17,22.48l-1.7,2.32.6.73c-1.77,1.29-4.48,2.65-6.72,2.36-3.5-2.78-1.92-8.37-4-13-.63-3.27-1.66-5.54-3.39-8.33Z"/>
        <path class="cls-11" d="M120.68,188.57c-1.32-5.42-6.11-10.09-3.78-14.72l.97.51c.53,1.42.65,2.09,1.82,3.13,3.16,7.78,4.38,13.24,6.69,21.03l.72-.67c4.42,4.15,4.46,3.51,8.79,6.65l-1.7,2.32.6.73c-1.77,1.29-4.48,2.65-6.72,2.36-3.5-2.78-1.92-8.37-4-13-.63-3.27-1.66-5.54-3.39-8.33Z"/>
        <path class="cls-7" d="M126.38,198.52l.72-.67c4.42,4.15,4.46,3.51,8.79,6.65l-1.7,2.32c-2.48,1.16-3.61,1.85-6.08.99-1.46-2.19-1.41-6.32-1.72-9.28Z"/>
        <path class="cls-9" d="M106.08,188.19c2.14-2.35-1.39-7.06,2.45-9.73l1.74.49c.93,1.97,1.86,3.93,2.81,5.89,1.69,4.61,4.39,12.38,5.12,17.22-7,7.26-7.13,1.87-12.79.42-.12-1.39.61-12.02.68-14.3Z"/>
        <path class="cls-5" d="M126.78,137.16c5.77-6.61,9.73-11.57,14.77-18.6,4.33,2.38,7.33-1.21,9.99,4.14-3.79,4.37-10.26,9.27-15.12,12.44-3.2,1.09-6.32,1.49-9.64,2.03Z"/>
        <path class="cls-12" d="M83.61,174.01c-3.24,8.89-5.65,15.36-7.69,24.64-.22-.33-.98-.99-1.3-1.3-3.14-1.11-3.27.95-6.8-.12,2.38-4.65,4.09-7.57,6.93-11.96,2.96-4.2,5.2-7.58,8.86-11.26Z"/>
        <path class="cls-12" d="M122.85,166.88c8.03,2.81,9.34,6.28,21.6,8.87-3.93,3.51-6.56,5.15-6.34,10.82-4.96-7.41-9.61-12.81-15.26-19.69Z"/>
        <path class="cls-12" d="M112.76,151.8c5.51.77,12.9-2.82,18.61-4.61-2.16,1.75-5.01,4.26-5.48,7.06-.63,3.79,3.11,5.68,4.36,7.16-1.39.05-8.3-2.62-10.13-3.27-2.65-1.28-7.19-3.08-8.54-5.45l1.18-.9Z"/>
        <path class="cls-7" d="M67.82,197.23c3.53,1.06,3.66-.99,6.8.12.32.31,1.08.97,1.3,1.3l-.79,4.1c-.57,2.24-.57,3.31-2.37,4.72-.95.25-1.92.53-2.88.7-3.76-1.99-3.64-2.23-3.86-6.46l1.12-2.67.68-1.8Z"/>
        <path class="cls-12" d="M67.82,197.23c3.53,1.06,3.66-.99,6.8.12.32.31,1.08.97,1.3,1.3l-.79,4.1c-2.87-2.25-4.45-2.97-7.99-3.72l.68-1.8Z"/>
        <path class="cls-2" d="M100.06,189.37c-.23-3.86.11-16.55.57-20.38l.81-.83c1.1,2.65,3.59,25.72,2.65,27.52-1.6-2.86-.43-4.62-1.91-6.55l-2.12.24Z"/>
        <path class="cls-5" d="M132.84,143.25c.47,1.55.37,1.81,1.25,3.04-.77.24-2.04.59-2.73.91-5.71,1.79-13.1,5.38-18.61,4.61,4.59-2.53,10.86-5.89,15.91-7.35l4.17-1.21Z"/>
        <path class="cls-5" d="M95.4,171.32c.7,2.13-.59,13.83-1.51,15.81-.95-.22-2.36-.08-3.34,0-.53-1.2-.79-1.43-1.77-2.3l-.07-.41c1.96-2.8,4.08-8.89,6.69-13.11Z"/>
        <path class="cls-2" d="M100.06,189.37l2.12-.24c1.48,1.93.31,3.69,1.91,6.55-.08,2.13.12,4.53-.74,6.3-1.5-1.14-.79-.65-3.04-.92-.2-1.63-.17-5.22-.21-7.01l-.03-4.68Z"/>
        <path class="cls-2" d="M95.4,171.32l.52-1.09c1.28,1.91.91,14.6.91,17.77-1.49.84-1,.73-2.6,1.07l-.34-1.94c.92-1.98,2.21-13.68,1.51-15.81Z"/>
        <path class="cls-2" d="M78.32,195.17c1.5-2.82,1.03-6.01,3.22-8.22l1.9,1.42c.92,2.41,1.27,3.08.38,5.57-2.76.09-2.89.17-5.5,1.23Z"/>
        <path class="cls-5" d="M105.94,170.62c1.55,2.6,2.96,5.61,4.32,8.34l-1.74-.49c-3.84,2.67-.31,7.38-2.45,9.73l-.14-17.57Z"/>
        <path class="cls-11" d="M120.23,177.3l-.29-1.18c2.97-.52,4.83,2.45,5.64,4.95l-.85.95-4.49-4.73Z"/>
        <path class="cls-7" d="M52.76,16.87c2.67.6,2.79.61,4.95,2.2l3.17,1.58c.23,2.98.29,5.54,1.06,8.43l-5.96-.11c-.28,2.44-.69,5.26-.73,7.68l3.05,2.99c-3.29,1.77-4.28,2.46-5.32,6.17.35,6.44,1.61,8.59,6.05,13.27-1.77,4.25-3.56,10.07-7.94,11.87-.38.15-.75.3-1.14.43-6.07,1.49-4.99,4.49-7.96,9.07.47,1.21.74,2.16,1.45,3.24l1.59-1.04c1.67.8,1.66,1.79,2.73,3.89-2.59,1.1-3.2,1.67-5.5,3.39-1.39.65-.89.5-2.47.73.99,1.28,1.68,1.92,2.28,3.39l1.67,2.29c.71,2.55,4.37,10.73,5.73,13.07-3.77,3.18-1.01,8.59-1.35,13.25,1.42,1.14,13.81,10.6,14.19,11.26-.92,3.48,1.55,1.7-.55,3.51l-2.96.44h-3.8s-.59,0-.59,0c-2.67-1.81-5.55-3.88-8.36-5.39-2.66-2.89-4.92-5.37-7.35-8.45-1.78-1.07-15.52-16.38-18.21-19.34-5.01-.37-22.89-1.71-20.22-12.02,1.18-4.58,9.73-8.09,14.24-9.72-4-2.15-7.79-3.36-9.55-7.23-.14-2.54-.09-5.32-.11-7.88,2.89-4.01,4.5-4.78,8.65-7.24-.46-5.83-.66-6.89.31-12.46,1.68-2.03,3.57-3.84,5.42-5.72-.27-2.6-.8-6.53.48-8.64,1.91-3.14,30.65-16.37,33.05-16.91Z"/>
        <path class="cls-2" d="M4.95,75.73l1.75-.06c-1.24-10.12,3.57-14.02,13.25-13.61-.9.85-.95.93-1.64,1.95l3.22.4c-3.73,1.79-7.18,3.25-9.62,6.79l.09,2.15c6.04,3.83,13.36.18,14.26,6.14.32,2.12.5,3.27,1.88,4.75,6.65.24,8.33.22,13.86-3.78.47,1.21.74,2.16,1.45,3.24l1.59-1.04c1.67.8,1.66,1.79,2.73,3.89-2.59,1.1-3.2,1.67-5.5,3.39-1.39.65-.89.5-2.47.73.99,1.28,1.68,1.92,2.28,3.39l1.67,2.29c.71,2.55,4.37,10.73,5.73,13.07-3.77,3.18-1.01,8.59-1.35,13.25,1.42,1.14,13.81,10.6,14.19,11.26-.92,3.48,1.55,1.7-.55,3.51l-2.96.44h-3.8s-.59,0-.59,0c-2.67-1.81-5.55-3.88-8.36-5.39-2.66-2.89-4.92-5.37-7.35-8.45-1.78-1.07-15.52-16.38-18.21-19.34-5.01-.37-22.89-1.71-20.22-12.02,1.18-4.58,9.73-8.09,14.24-9.72-4-2.15-7.79-3.36-9.55-7.23Z"/>
        <path class="cls-7" d="M42.08,94.06l1.67,2.29c.71,2.55,4.37,10.73,5.73,13.07-3.77,3.18-1.01,8.59-1.35,13.25-6.4-5.76-13.23-14.23-19.01-20.92,4.88-2.44,8.57-4.5,12.97-7.69Z"/>
        <path class="cls-2" d="M41.99,80.45c.47,1.21.74,2.16,1.45,3.24l1.59-1.04c1.67.8,1.66,1.79,2.73,3.89-2.59,1.1-3.2,1.67-5.5,3.39-1.39.65-.89.5-2.47.73-5.12-.61-6.2,3.17-10.09,2.59l1.35-.92.2-.67c-1.3-3.02-1.18-4.5-3.12-7.43,6.65.24,8.33.22,13.86-3.78Z"/>
        <path class="cls-11" d="M43.44,83.69l1.59-1.04c1.67.8,1.66,1.79,2.73,3.89-2.59,1.1-3.2,1.67-5.5,3.39-1.39.65-.89.5-2.47.73-5.12-.61-6.2,3.17-10.09,2.59l1.35-.92c4.87-2.73,8.54-4.52,12.39-8.64Z"/>
        <path class="cls-7" d="M20.94,88.61c4.22,2.41,5.48,2.85,10.32,3.06l-.2.67-1.35.92c-3.68,1.57-17.15,5.83-19.04.95,2.05-3.19,6.65-4.29,10.28-5.6Z"/>
        <path class="cls-11" d="M38.7,124.04c4.8,2.83,16.11,12.72,20.09,13.84h-3.8s-.59,0-.59,0c-2.67-1.81-5.55-3.88-8.36-5.39-2.66-2.89-4.92-5.37-7.35-8.45Z"/>
        <path class="cls-2" d="M52.76,16.87c2.67.6,2.79.61,4.95,2.2l3.17,1.58c.23,2.98.29,5.54,1.06,8.43l-5.96-.11c-.28,2.44-.69,5.26-.73,7.68l3.05,2.99c-3.29,1.77-4.28,2.46-5.32,6.17-7.06-6.97-12.89.48-19.17,4.8-20.47-5.31-10.02,3.93-11.95,13.42l-.33.38-3.22-.4c.69-1.02.75-1.1,1.64-1.95-9.68-.41-14.48,3.49-13.25,13.61l-1.75.06c-.14-2.54-.09-5.32-.11-7.88,2.89-4.01,4.5-4.78,8.65-7.24-.46-5.83-.66-6.89.31-12.46,1.68-2.03,3.57-3.84,5.42-5.72-.27-2.6-.8-6.53.48-8.64,1.91-3.14,30.65-16.37,33.05-16.91Z"/>
        <path class="cls-2" d="M52.76,16.87c2.67.6,2.79.61,4.95,2.2l3.17,1.58c.23,2.98.29,5.54,1.06,8.43l-5.96-.11c-.28,2.44-.69,5.26-.73,7.68-3.24-.7-5.4-.53-7.68-2.54-.13-1.97.29-4.5.52-6.52,2.1-.89,2.95-1.06,3.67-2.74-.14-.58-.27-1.17-.39-1.76-.64-3.18-.4-3.54,1.4-6.22Z"/>
        <path class="cls-7" d="M57.71,19.07l3.17,1.58c.23,2.98.29,5.54,1.06,8.43l-5.96-.11c1.31-4.3,1.74-5.39,1.73-9.9Z"/>
        <path class="cls-7" d="M48.07,27.59c-.23,2.02-.64,4.55-.52,6.52-3.15,2.24-16.25,9.06-19.5,5.71l.23-1.44c2.73-3.51,15.16-8.89,19.79-10.78Z"/>
        <path class="cls-2" d="M37.83,57.74c.84.07,1.8.29,2.64.44,1.71,1.55,1.2.62,1.65,2.83-1.01,3.88-2.31,4.88-5.45,7.39-1.71,0-1.67-.09-3.31-.67-3.61-3.94,1.37-7.72,4.46-9.99Z"/>
      </g>
      <g>
        <path class="cls-11" d="M211.97,174.81h-44.02c-6.53,0-11.82-5.29-11.82-11.82v-26.37c0-6.53,5.29-11.82,11.82-11.82h44.02c6.53,0,11.82,5.29,11.82,11.82v26.37c0,6.53-5.29,11.82-11.82,11.82Z"/>
        <text class="cls-8" transform="translate(175.33 163.43)"><tspan x="0" y="0">G</tspan></text>
      </g>
    </g>
  </g>
</svg>