<?xml version="1.0" encoding="UTF-8"?>
<svg id="Capa_2" data-name="Capa 2" xmlns="http://www.w3.org/2000/svg" xmlns:xlink="http://www.w3.org/1999/xlink" viewBox="0 0 240.23 220">
  <defs>
    <style>
      .cls-1 {
        fill: url(#Degradado_sin_nombre_5);
      }

      .cls-2 {
        fill: #353a59;
      }

      .cls-3 {
        fill: #8e9aae;
      }

      .cls-4, .cls-5 {
        fill: #fff;
      }

      .cls-6 {
        fill: #2b2d43;
      }

      .cls-7 {
        fill: #e87782;
      }

      .cls-8 {
        fill: url(#Degradado_sin_nombre_5-3);
      }

      .cls-9 {
        fill: url(#Degradado_sin_nombre_10);
      }

      .cls-5 {
        font-family: PlusJakartaSans-SemiBold, 'Plus Jakarta Sans';
        font-size: 36px;
        font-weight: 600;
        letter-spacing: .05em;
      }

      .cls-10 {
        fill: url(#Degradado_sin_nombre_5-2);
      }
    </style>
    <linearGradient id="Degradado_sin_nombre_5" data-name="Degradado sin nombre 5" x1="79.68" y1="-596.94" x2="81.83" y2="-586.36" gradientTransform="translate(0 -498) scale(1 -1)" gradientUnits="userSpaceOnUse">
      <stop offset="0" stop-color="#2b2d43"/>
      <stop offset="1" stop-color="#353a59"/>
    </linearGradient>
    <linearGradient id="Degradado_sin_nombre_10" data-name="Degradado sin nombre 10" x1="95.69" y1="-642.19" x2="87.39" y2="-645.09" gradientTransform="translate(0 -498) scale(1 -1)" gradientUnits="userSpaceOnUse">
      <stop offset="0" stop-color="#353a59"/>
      <stop offset="1" stop-color="#8e9aae"/>
    </linearGradient>
    <linearGradient id="Degradado_sin_nombre_5-2" data-name="Degradado sin nombre 5" x1="91.97" y1="-679.86" x2="133.92" y2="-700.16" xlink:href="#Degradado_sin_nombre_5"/>
    <linearGradient id="Degradado_sin_nombre_5-3" data-name="Degradado sin nombre 5" x1="123.38" y1="-679.56" x2="143.69" y2="-666.13" xlink:href="#Degradado_sin_nombre_5"/>
  </defs>
  <g id="ICONS">
    <g>
      <g>
        <path class="cls-4" d="M147.64,28.56c-.78-4.35-1.48-12.96,3.22-14.88,6.28.33,13.23,10.88,14.73,16.47,3.29,5.68,6.25,10.59,8.93,16.6,6.43,1.79,12.65,3.29,15.98,9.7,3.41,6.58.34,11.38-3.7,16.2,2.03,1.04,5.46,2.6,7.05,4.04-.01,6.05-1.17,7.33-5.42,11.89-1.67,1.79-7.39,6.21-9.41,7.4-3.29,2.07-6.38,3.48-9.46,5.38-6.73,12.66-12.31,25.34-21.79,36.29-1.49,1.72-5.19,5.27-5.82,7.19l.42,1.04-1.01.31-.66-1.45c-2.2,1.29-6.22,3.84-7.77.85.05-3.19,1.18-3.97,2.42-6.83-.78.69-3.39,3.09-4.08,3.56-2.43,1.7-5.37,3.53-7.33,5.68-.07-.51-.05-1.71-.05-2.27-1.8,1.19-5.72,4.14-7.58,4.29-.1-1.53-.05-.87.82-2.57-.81.21-1.78-.07-2.68-.2-1.43-1.11-2.08-3.76-2.8-5.66-.48.81-1.94,3.15-2.16,3.89-1.26,1.76-4.09,5.52-5.11,7.22l-2-.14c-.13,2.68.29,2.18-1.04,4.01l-2.79,1.02-.4,1.03c-2-1.91-3.89-3.43-6.02-5.17l-1.15-1.27-1.58-1.27c-2.85-.19-6.31-2.64-8.92-4.14-.35.96-.54,1.9-.69,2.91-4.08.93-12.46-3.56-16.61-5.02l-.88-.3c-5.51-2.95-12.59-13.5-16.3-18.38-2.9-3.82-10.23-18.78-13.54-21.07-6.98-4.28-20.38-4.49-27.11-9.01-16.05-10.77,8.43-19.8,17.5-21.7l-.02.9,1.12-.11.67-.97c-.07-2.09-.31-3.16.65-5.01,5.11,1.96,2.97,2.36,5.68,4.97,8.59,7.77,11.52,1.84,17.57-4.27,2.05-2.07,4.34-1.57,7.05-1.27.78-1.08,1.16-1.86,1.8-3.01,2.26-5.9,3.3-9.23,8.89-12.94l4.07-2.75,1.16,1.23,2-1.02c.92-2.27,1.36-3.31,2.56-5.42h.71c.72-1.22.92-1.5,1.82-2.58l1.6-.09,3.12.71c-1.1.95-3.01,2.52-3.93,3.51,3.75,3.69,6.69-.34,11.68,1.5.98,1.23,1.09,1.31,1.74,2.72l-.38.27c1.03,1.53,1.05,1.46,2.51,2.62,4.1,1.03,7.1-1.95,10.9-3.7l.88-.4,3.63-.02,1.04-.39c1.19.67,1.45.86,2.52,1.71,1.91-.74,1.92-.89,3.38-2.24,2.72-.22,3,.7,4.38,2.88.56,1.33.51,1.39,1.45,2.46,1.85-.35,2.76-2.07,4.27-3.81,2-1.48,4.99-2.34,7.56-3.64l1.13.48c2.3-.42,4.05-.44,6.37-.54,1.03-2.12,1.86-3.37,3.15-5.36.71-1.62,1.17-2.29,1.08-4.07l-.86-.39-1.78.73c-.5.43-.15.16-1.13.69l-.59-1.93c1.13-1.31,1.14-1.23,1.74-2.83.95-1.29,2.54-3,3.63-4.25Z"/>
        <path class="cls-4" d="M147.64,28.56c-.78-4.35-1.48-12.96,3.22-14.88,6.28.33,13.23,10.88,14.73,16.47,3.29,5.68,6.25,10.59,8.93,16.6,6.43,1.79,12.65,3.29,15.98,9.7,3.41,6.58.34,11.38-3.7,16.2,2.03,1.04,5.46,2.6,7.05,4.04-.01,6.05-1.17,7.33-5.42,11.89-1.67,1.79-7.39,6.21-9.41,7.4-3.29,2.07-6.38,3.48-9.46,5.38-6.73,12.66-12.31,25.34-21.79,36.29-1.49,1.72-5.19,5.27-5.82,7.19l.42,1.04-1.01.31-.66-1.45c-2.2,1.29-6.22,3.84-7.77.85.05-3.19,1.18-3.97,2.42-6.83-.78.69-3.39,3.09-4.08,3.56-2.43,1.7-5.37,3.53-7.33,5.68-.07-.51-.05-1.71-.05-2.27,4.85-3.39,7.67-5.5,11.71-9.78,10.88-9.76,17.91-24.15,25.03-36.91-2.05-.41-10.09-.16-12.72-.22-5-.11-7.43-.46-12.48-1.31l-.02-.79c2.44.25,5.17.86,7.49.83l.41-.83-.62-1.12c-2.31-1.07-5.34-1.03-7.97-1.22-1.31-1.58-.82-.66-1.04-3.08-.22-.76-.35-.91-.72-1.61-1.47-.21-1.8-.17-3.14-.76-2.86-5.91,4.8-8.22.3-13.38l-.55.46-1.11.13c0-2.78-.23-2.99-1.62-5.48-1.59-1.08-2.88-1.98-4.4-3.17-.4-4.8-3.86-5.17-1.35-11.66-.21-1.53.25-3.25.53-4.82.56,1.33.51,1.39,1.45,2.46,1.85-.35,2.76-2.07,4.27-3.81,2-1.48,4.99-2.34,7.56-3.64l1.13.48c2.3-.42,4.05-.44,6.37-.54,1.03-2.12,1.86-3.37,3.15-5.36.71-1.62,1.17-2.29,1.08-4.07l-.86-.39-1.78.73c-.5.43-.15.16-1.13.69l-.59-1.93c1.13-1.31,1.14-1.23,1.74-2.83.95-1.29,2.54-3,3.63-4.25Z"/>
        <path class="cls-2" d="M147.64,28.56c-.78-4.35-1.48-12.96,3.22-14.88,6.28.33,13.23,10.88,14.73,16.47,3.29,5.68,6.25,10.59,8.93,16.6,6.43,1.79,12.65,3.29,15.98,9.7,3.41,6.58.34,11.38-3.7,16.2,2.03,1.04,5.46,2.6,7.05,4.04-.01,6.05-1.17,7.33-5.42,11.89-1.67,1.79-7.39,6.21-9.41,7.4-3.29,2.07-6.38,3.48-9.46,5.38-6.73,12.66-12.31,25.34-21.79,36.29-1.49,1.72-5.19,5.27-5.82,7.19l.42,1.04-1.01.31-.66-1.45c-2.2,1.29-6.22,3.84-7.77.85.05-3.19,1.18-3.97,2.42-6.83-.78.69-3.39,3.09-4.08,3.56-2.43,1.7-5.37,3.53-7.33,5.68-.07-.51-.05-1.71-.05-2.27,4.85-3.39,7.67-5.5,11.71-9.78,10.88-9.76,17.91-24.15,25.03-36.91-2.05-.41-10.09-.16-12.72-.22-5-.11-7.43-.46-12.48-1.31l-.02-.79c2.44.25,5.17.86,7.49.83l.41-.83-.62-1.12c-2.31-1.07-5.34-1.03-7.97-1.22-1.31-1.58-.82-.66-1.04-3.08l.46-.66c.59-3.79,5.55-6.79,9.49-6.42,4.95,1.69,5.21,1.67,10.13-.16,4.91-1.28,6.38,3.18,10.85,5.66,3.79,1.17,4.48,1.4,8.53,1.55,7.89-4.7,4.84-12.84,3.39-20.35,2.49-2.44,4.58-4,7.17-6.74l.21-3.44.95-1.09c-4.14-6.8-7.7-6.6-15.09-7.43l-.87-2.44c-3.75-10.77-13.36-17.42-23.33-9.17.71-1.62,1.17-2.29,1.08-4.07l-.86-.39-1.78.73c-.5.43-.15.16-1.13.69l-.59-1.93c1.13-1.31,1.14-1.23,1.74-2.83.95-1.29,2.54-3,3.63-4.25Z"/>
        <path class="cls-2" d="M147.64,28.56c-.78-4.35-1.48-12.96,3.22-14.88,6.28.33,13.23,10.88,14.73,16.47-2.12.6-2.65.93-4.46,2.21-4.39-.74-4.9-6.61-9.07-2.53-1.17,1.14-2.54,1.81-4.13,2.22.31-1.84.3-1.71-.29-3.49Z"/>
        <path class="cls-6" d="M161.86,97.74c.72,3.09-9.75,19.17-12.08,22.91-2.77,4.56-5.96,8.86-9.52,12.83-.7.78-4.65,4.83-4.94,5.27-.78.69-3.39,3.09-4.08,3.56-2.43,1.7-5.37,3.53-7.33,5.68-.07-.51-.05-1.71-.05-2.27,4.85-3.39,7.67-5.5,11.71-9.78,10.88-9.76,17.91-24.15,25.03-36.91l1.27-1.3Z"/>
        <path class="cls-6" d="M134.13,90.64c3.08-.17,8.68-1.07,11.17-.56l.68.8c-.94,2.36-1.81,3.36-1.31,5.51,2.83,2.36,13.39,1.65,17.2,1.36l-1.27,1.3c-2.05-.41-10.09-.16-12.72-.22-5-.11-7.43-.46-12.48-1.31l-.02-.79c2.44.25,5.17.86,7.49.83l.41-.83-.62-1.12c-2.31-1.07-5.34-1.03-7.97-1.22-1.31-1.58-.82-.66-1.04-3.08l.46-.66Z"/>
        <path class="cls-6" d="M193.83,76.69c-.01,6.05-1.17,7.33-5.42,11.89-1.67,1.79-7.39,6.21-9.41,7.4,3.69-5.04,5.8-3.61,4.05-10.41,1.53-2.4,9.64-3.07,10.77-8.88Z"/>
        <path class="cls-6" d="M183.69,64.17l.76.54c-1.92,2.24-3.78,4.14-5.84,6.24.52,5.9,4.4,23.72-7.5,21.25,1.15-.73.76-.56,2.01-.94,7.89-4.7,4.84-12.84,3.39-20.35,2.49-2.44,4.58-4,7.17-6.74Z"/>
        <path class="cls-6" d="M153.74,84.06c4.91-1.28,6.38,3.18,10.85,5.66l-.29.61-1.02.15c-3.95-1.82-6.13-3.74-9.55-6.41Z"/>
        <path class="cls-6" d="M144.01,32.8c.95-1.29,2.54-3,3.63-4.25.59,1.78.6,1.65.29,3.49-1.65,1.64-2.55,2.95-3.94,4.83-.5.43-.15.16-1.13.69l-.59-1.93c1.13-1.31,1.14-1.23,1.74-2.83Z"/>
        <path class="cls-2" d="M184.84,59.64c.23,2.01.47,3.17-.39,5.06l-.76-.54.21-3.44.95-1.09Z"/>
        <path class="cls-2" d="M127.34,49.67c1.4,2.75,1.64,2.72.38,5.99,2.39-.05,2.67-1.04,3.89-1.23l1.44.7c-4.88,7.47.86,10.73,5.68,16.15.26,6.29-.26,8.82,4.89,12.95-3.94-.37-8.9,2.63-9.49,6.42l-.46.66c-.22-.76-.35-.91-.72-1.61-1.47-.21-1.8-.17-3.14-.76-2.86-5.91,4.8-8.22.3-13.38l-.55.46-1.11.13c0-2.78-.23-2.99-1.62-5.48-1.59-1.08-2.88-1.98-4.4-3.17-.4-4.8-3.86-5.17-1.35-11.66-.21-1.53.25-3.25.53-4.82.56,1.33.51,1.39,1.45,2.46,1.85-.35,2.76-2.07,4.27-3.81Z"/>
        <path class="cls-2" d="M121.09,55.84c2.4,1.29,5.16,11.9,5.75,14.83-1.59-1.08-2.88-1.98-4.4-3.17-.4-4.8-3.86-5.17-1.35-11.66Z"/>
        <path class="cls-6" d="M145.55,40.6c9.97-8.26,19.58-1.6,23.33,9.17l.87,2.44c7.38.84,10.94.63,15.09,7.43l-.95,1.09c-3.36-7.06-7.99-6.51-15.15-7.47-2.29-6.7-4.85-13.04-12.57-14.7-8.96-1.92-11.48,6.54-12.81,12.97-3.61,1.01-7.04,1.78-10.32,3.59l-1.44-.7c-1.22.2-1.5,1.18-3.89,1.23,1.26-3.28,1.03-3.24-.38-5.99,2-1.48,4.99-2.34,7.56-3.64l1.13.48c2.3-.42,4.05-.44,6.37-.54,1.03-2.12,1.86-3.37,3.15-5.36Z"/>
        <path class="cls-2" d="M134.9,46.03l1.13.48.15.43c-1.55,1.53-2.3,1.97-4.21,3.05l-.45,1c.63,1.2.57,1.18,1.54,2.11l-1.46,1.34c-1.22.2-1.5,1.18-3.89,1.23,1.26-3.28,1.03-3.24-.38-5.99,2-1.48,4.99-2.34,7.56-3.64Z"/>
        <path class="cls-2" d="M136.18,46.93l.76,2.51c.55.94.55,1.14,1.3,1.88-2.13.59-3.18.85-5.17,1.76-.97-.93-.92-.91-1.54-2.11l.45-1c1.91-1.08,2.66-1.52,4.21-3.05Z"/>
        <path class="cls-3" d="M136.94,49.45c1.4-1.62,1.37-1.85,3.45-2.5l1.36.44.35,1.22c-1.15,1.93-1.28,1.91-3.87,2.72-.75-.74-.75-.94-1.3-1.88Z"/>
        <path class="cls-2" d="M156.16,68.91c-4.94-4.47-5.53-11.36,2.72-9.62,3.53,1.82,6.26,6.85,2.33,9.91-2.15.67-2.76.29-5.05-.29Z"/>
        <path class="cls-6" d="M156.16,68.91c-4.94-4.47-5.53-11.36,2.72-9.62-2.3.4-2.61.32-4.28,1.79-1.57,3.71.84,5.5,3.53,7.77,2.63-.26,1.56.22,3.49-1.08,1.12-3.34-.74-5.83-2.74-8.48,3.53,1.82,6.26,6.85,2.33,9.91-2.15.67-2.76.29-5.05-.29Z"/>
        <path class="cls-7" d="M76.03,44.53h.71c.72-1.22.92-1.5,1.82-2.58l1.6-.09,3.12.71c-1.1.95-3.01,2.52-3.93,3.51,3.75,3.69,6.69-.34,11.68,1.5.98,1.23,1.09,1.31,1.74,2.72l-.38.27c1.03,1.53,1.05,1.46,2.51,2.62,4.1,1.03,7.1-1.95,10.9-3.7l.88-.4,3.63-.02,1.04-.39c1.19.67,1.45.86,2.52,1.71,1.91-.74,1.92-.89,3.38-2.24,2.72-.22,3,.7,4.38,2.88-.29,1.56-.74,3.28-.53,4.82-2.51,6.49.95,6.86,1.35,11.66,1.51,1.19,2.81,2.09,4.4,3.17,1.38,2.48,1.62,2.7,1.62,5.48l-4.18,5.06.56,1.25c-.88,1.6-1.23,1.66-2.72,2.71-4.15,4.29-9.44,5.63-13.62,10.17-2.65-.43-3.26,1.08-6.98.37-1.03-.01-2.06-.04-3.09-.07-5.25-.1-8.23-.59-12.32-4.27l-2.07-1.84c-2.87-.82-3.01-2.59-7.48-3.38l-1.14.98c.19,1.83,2.26,3.92,3.51,5.47-1.26-.31-1.3-.39-2.45-1.03l-.58.04c-.94.25-1.41.48-2.34.47-4.03-2.6-4.3-4.21-9.38-4.98-1.49,1.37-1.1.57-1.52,2.27l-.52.12c-5.42-4.71-6.45-6.46-8.3-13.11l.93-.91c.08-2.88-.01-4.22.77-7.02.78-1.08,1.16-1.86,1.8-3.01,2.26-5.9,3.3-9.23,8.89-12.94l4.07-2.75,1.16,1.23,2-1.02c.92-2.27,1.36-3.31,2.56-5.42Z"/>
        <path class="cls-2" d="M76.03,44.53h.71c.72-1.22.92-1.5,1.82-2.58l1.6-.09,3.12.71c-1.1.95-3.01,2.52-3.93,3.51,3.75,3.69,6.69-.34,11.68,1.5.98,1.23,1.09,1.31,1.74,2.72l-.38.27c-4.49-1.47-9.51-2.37-11.89,2.64-4.24.66-6.52,3.14-8.89,6.57-1.69,1.91-7.88,12.17-7.22,14.78.22.86.78,2.31,1.21,3.19-.13,2.53,0,3.04,1.19,5.28-.25,2.08-.7,1.84-2.59,3.75l-.03.29c-1.49,1.37-1.1.57-1.52,2.27l-.52.12c-5.42-4.71-6.45-6.46-8.3-13.11l.93-.91c.08-2.88-.01-4.22.77-7.02.78-1.08,1.16-1.86,1.8-3.01,2.26-5.9,3.3-9.23,8.89-12.94l4.07-2.75,1.16,1.23,2-1.02c.92-2.27,1.36-3.31,2.56-5.42Z"/>
        <path class="cls-6" d="M57.34,65.43c.26,2.15.66,2.4,2.01,4.05l.23,1.09-.22.61c-1.74,5.02-.86,13.8,4.83,15.62l-.03.29c-1.49,1.37-1.1.57-1.52,2.27l-.52.12c-5.42-4.71-6.45-6.46-8.3-13.11l.93-.91c.08-2.88-.01-4.22.77-7.02.78-1.08,1.16-1.86,1.8-3.01Z"/>
        <path class="cls-6" d="M70.31,49.74l1.16,1.23-1.06,1.01c-4.22,3.26-6.21,4.48-8.75,9.26-3.12,4.87-2.04,3.31-2.3,8.24-1.35-1.66-1.75-1.91-2.01-4.05,2.26-5.9,3.3-9.23,8.89-12.94l4.07-2.75Z"/>
        <path class="cls-6" d="M76.03,44.53h.71c.72-1.22.92-1.5,1.82-2.58l1.6-.09,3.12.71c-1.1.95-3.01,2.52-3.93,3.51-1.04,2.06-3.16,6.89-5.14,7.61l-.98-.72c-.01-1.02.28-2.31.25-3.02.92-2.27,1.36-3.31,2.56-5.42Z"/>
        <path class="cls-2" d="M70.41,51.98l.75.83c-.88,3.13-5.93,8.63-9.5,8.43,2.54-4.79,4.53-6,8.75-9.26Z"/>
        <path class="cls-2" d="M65.6,77.76c7.52,7.9,9.01,3.37,17.21,7.95.58.32,1.02,2.84,1.21,3.81-2.87-.82-3.01-2.59-7.48-3.38l-1.14.98c.19,1.83,2.26,3.92,3.51,5.47-1.26-.31-1.3-.39-2.45-1.03l-.58.04c-.94.25-1.41.48-2.34.47-4.03-2.6-4.3-4.21-9.38-4.98l.03-.29c1.89-1.91,2.34-1.68,2.59-3.75-1.18-2.24-1.32-2.75-1.19-5.28Z"/>
        <path class="cls-2" d="M70.02,85.32l6.53.81-1.14.98c.19,1.83,2.26,3.92,3.51,5.47-1.26-.31-1.3-.39-2.45-1.03l-.58.04c-2.7-2.08-3.82-3.65-5.87-6.27Z"/>
        <path class="cls-2" d="M110.3,49.06l1.04-.39c1.19.67,1.45.86,2.52,1.71,1.91-.74,1.92-.89,3.38-2.24,2.72-.22,3,.7,4.38,2.88-.29,1.56-.74,3.28-.53,4.82-2.51,6.49.95,6.86,1.35,11.66-2.45-1.51-4.7-2.76-7.21-4.14.18-7.38,1.14-9.63-4.93-14.3Z"/>
        <path class="cls-2" d="M111.85,86.7l.65.65c1.96-.96,7.18-1.75,9.61-2.2-4.15,4.29-9.44,5.63-13.62,10.17-2.65-.43-3.26,1.08-6.98.37,6.45-1.77,8.43-2.45,10.35-8.99Z"/>
        <path class="cls-6" d="M124.27,81.2l.56,1.25c-.88,1.6-1.23,1.66-2.72,2.71-2.43.45-7.66,1.24-9.61,2.2l-.65-.65c1.33-3.74,6.15-1.34,12.42-5.51Z"/>
        <path class="cls-2" d="M71.61,59.78c2.36-3.43,4.64-5.91,8.89-6.57-2.32,5.61-2.22,6.57-8.89,6.57Z"/>
        <path class="cls-2" d="M102.63,76.54c-10.83,9.16-25.02-13.21-3.17-11.15,5.88,2.08,8.84,6.17,3.17,11.15Z"/>
        <path class="cls-7" d="M99.48,67.49c1.84.95,2.53,1.14,3.81,2.81.15,2.11.15,1.85-1.52,3.53l-1.26-.83-2.11,1.76c-2.02.5-1.87.51-3.88-.08-1.61-1.43-1.19-.58-1.5-2.53,1.01-2.11.8-1.49,3.23-2.91.56-.2,2.59-1.4,3.23-1.76Z"/>
        <path class="cls-2" d="M99.48,67.49c1.84.95,2.53,1.14,3.81,2.81.15,2.11.15,1.85-1.52,3.53l-1.26-.83c-.64-3.18-1.47-2.86-4.26-3.75.56-.2,2.59-1.4,3.23-1.76Z"/>
        <path class="cls-2" d="M30.93,73.98c8.59,7.77,11.52,1.84,17.57-4.27,2.05-2.07,4.34-1.57,7.05-1.27-.78,2.8-.69,4.15-.77,7.02l-.93.91c1.85,6.64,2.88,8.4,8.3,13.11l.52-.12c.41-1.7.03-.9,1.52-2.27,5.08.77,5.35,2.38,9.38,4.98-6.38-1.91-5.48,2.4-13.28,1.58-3.67.7-5.13.85-8.86,1.93l.09.26c3.3-.31,10-1.38,12.51-.01l.13,1.05c-1.27,1.07-1.53.92-3.22,1.4.96.7.43.54,1.56.56-5.04,1.04-13.79,3.01-18.75,4.71,5.14,11.62,16.96,27.83,26.45,36.14,2.46,2.16,8.56,5.51,10.26,7.11-.35.96-.54,1.9-.69,2.91-4.08.93-12.46-3.56-16.61-5.02l-.88-.3c-5.51-2.95-12.59-13.5-16.3-18.38-2.9-3.82-10.23-18.78-13.54-21.07-6.98-4.28-20.38-4.49-27.11-9.01-16.05-10.77,8.43-19.8,17.5-21.7l-.02.9,1.12-.11.67-.97c-.07-2.09-.31-3.16.65-5.01,5.11,1.96,2.97,2.36,5.68,4.97Z"/>
        <path class="cls-2" d="M30.93,73.98c8.59,7.77,11.52,1.84,17.57-4.27,2.05-2.07,4.34-1.57,7.05-1.27-.78,2.8-.69,4.15-.77,7.02l-.93.91c-1.99,1.83-4.53,4.84-6.3,6.27l-.72-.49c-1.16.05-.54-.05-1.84.39l1.58,1.29c-5.8-.45-7.35-2.2-12.41-3.14-.99-.18-.89.15-3.09-.46-3.94-4.04.67-6.58-5.31-10.84l-.52-.36c5.11,1.96,2.97,2.36,5.68,4.97Z"/>
        <path class="cls-2" d="M50.31,69.05c1.89,2.04,4.14,3.81,4.46,6.41l-.93.91c-1.99,1.83-4.53,4.84-6.3,6.27l-.72-.49c-1.84-.39-2.82-.5-4.51-1.38.15-1.42,6.68-9.54,8.01-11.71Z"/>
        <path class="cls-4" d="M47.54,82.63c1.77-1.43,4.31-4.43,6.3-6.27,1.85,6.64,2.88,8.4,8.3,13.11-4.44.92-11.33-3.98-14.6-6.84Z"/>
        <path class="cls-6" d="M64.17,87.08c5.08.77,5.35,2.38,9.38,4.98-6.38-1.91-5.48,2.4-13.28,1.58l.17-.25-.29-.65c-2.81.47-5.15,1.07-7.95.66,3.15-2.25,6.99,1.06,10.44-4.05.41-1.7.03-.9,1.52-2.27Z"/>
        <path class="cls-4" d="M20.41,84.03c10.46-.26,19.61,3.7,28.45,8.94-4.04.81-6.38,1.17-10.48,1.53-4.92.84-28.32-1.4-27.24-7.56,2.48-2.11,6.1-2.48,9.27-2.91Z"/>
        <path class="cls-6" d="M122.26,113.77c.75-2.68,1.2-5.3,2.9-7.43,2.46-1.22,5.13-.36,6.13,2.19-.07,3.74-2.18,9.82-3.25,13.73,2.14-.09,2.8-.32,4.63.8,3.11,3.87.61,8.11,2.9,12.89-4.04,4.28-6.86,6.39-11.71,9.78-1.8,1.19-5.72,4.14-7.58,4.29-.1-1.53-.05-.87.82-2.57-.81.21-1.78-.07-2.68-.2-1.43-1.11-2.08-3.76-2.8-5.66,2.15-5.73,5.39-10.41,7.92-17.83,1.15-3.27,1.9-6.62,2.72-9.99Z"/>
        <path class="cls-7" d="M128.03,122.26c2.14-.09,2.8-.32,4.63.8,3.11,3.87.61,8.11,2.9,12.89-4.04,4.28-6.86,6.39-11.71,9.78-1.8,1.19-5.72,4.14-7.58,4.29-.1-1.53-.05-.87.82-2.57,3.7-4.98,9.53-19.13,10.93-25.19Z"/>
        <path class="cls-3" d="M121.82,122.32l.35-1.08c1.14-3.59,1.96-11.53,4.44-13.72l1.66-.04c3.14,3-2.4,17.53-4.07,21.3-1.85-2.42-2.16-3.5-2.38-6.45Z"/>
        <path class="cls-2" d="M121.82,122.32c.22,2.95.53,4.03,2.38,6.45-1.16,3.2-2.06,7.43-4.93,8.91-2.05-.08-1.3.33-2.52-.87.47-2.61,3.98-11.44,5.07-14.5Z"/>
        <path class="cls-2" d="M128.46,76.14l1.11-.13.55-.46c4.5,5.16-3.16,7.48-.3,13.38,1.34.59,1.67.55,3.14.76.37.7.5.85.72,1.61.22,2.42-.27,1.5,1.04,3.08,2.63.19,5.66.14,7.97,1.22l.62,1.12-.41.83c-2.33.03-5.05-.58-7.49-.83l.02.79c-4.8-.69-11.92-1.68-16.39-3.43l-.85.63c-3.77,3.3-5.54,5.05-10.13,7.16l-1.23-1.39c-1.41.33-2.01.65-3.36.22.38-1.49,3.52-3.88,5.03-5.37,4.19-4.54,9.47-5.88,13.62-10.17,1.49-1.05,1.84-1.11,2.72-2.71l-.56-1.25,4.18-5.06Z"/>
        <path class="cls-2" d="M119.02,94.08c3.42-.9,5.96,1.37,7.38-.8l-1.39-2.19c1.12-1.89,1.27-1.89,2.88-3.29l.61.17c-.85,1.1-1.53,1.97-2.44,3.02,1.71.35,4.94.89,6.48,1.38l.28,1.24-1.23,1.19c.31.89.05.44.92,1.27,1.09.21,1.83.3,2.88.64l.02.79c-4.8-.69-11.92-1.68-16.39-3.43Z"/>
        <path class="cls-2" d="M106.81,100.48s8.93-6.2,9.48-6.57l1.87.8c-3.77,3.3-5.54,5.05-10.13,7.16l-1.23-1.39Z"/>
        <path class="cls-1" d="M76.55,86.14c4.47.79,4.61,2.56,7.48,3.38l2.07,1.84c4.08,3.68,7.06,4.18,12.32,4.27,1.03.03,2.06.05,3.09.07,3.73.71,4.34-.8,6.98-.37-1.52,1.5-4.65,3.88-5.03,5.37,1.35.43,1.95.11,3.36-.22l1.23,1.39c-17.31,5.51-20.02-3.73-33.22-8.66-4.51,2.45-7.33,4.33-12.33,5.6-1.13-.02-.6.15-1.56-.56,1.69-.48,1.95-.33,3.22-1.4l-.13-1.05c-2.51-1.37-9.21-.29-12.51.01l-.09-.26c3.73-1.08,5.19-1.23,8.86-1.93,7.79.82,6.9-3.49,13.28-1.58.93.02,1.4-.21,2.34-.47l.58-.04c1.15.65,1.18.72,2.45,1.03-1.25-1.55-3.32-3.64-3.51-5.47l1.14-.98Z"/>
        <path class="cls-7" d="M111.66,127.09c4.22-2.32,2.03-3.43,7.88-3.33-2.52,7.42-5.76,12.1-7.92,17.83-.48.81-1.94,3.15-2.16,3.89-1.26,1.76-4.09,5.52-5.11,7.22l-2-.14-1.85-.96c2.52-7.19,5.19-15.1,9.29-21.5.74-1.15.47-.46.44-2.02l1.43-.99Z"/>
        <path class="cls-9" d="M83.74,136.59c.53-1.69.71-2.5,1.6-4.07,1.15.54,2.25,3.38,3.36,5.09l.64-.19,1.66.08c3.18,4.83,5.54,10.13,9.49,14.11l1.85.96c-.13,2.68.29,2.18-1.04,4.01l-2.79,1.02-.4,1.03c-2-1.91-3.89-3.43-6.02-5.17l-1.15-1.27-.17-2.37c-1.01-1.29-3.21-5.46-3.96-7.02l-3.07-6.21Z"/>
        <path class="cls-2" d="M90.78,149.82c5.17,2.6,3.69.32,7.52,1.57,1.88,2.82.55,3.63.22,6.21l-.4,1.03c-2-1.91-3.89-3.43-6.02-5.17l-1.15-1.27-.17-2.37Z"/>
        <path class="cls-3" d="M71.62,108.39c.83.34,3.23,1.33,3.75,2.1,5.3,7.81,8.74,17.48,13.58,25.76.15.26.32.88.41,1.17l-.64.19c-1.11-1.71-2.21-4.55-3.36-5.09-.89,1.57-1.08,2.38-1.6,4.07l3.07,6.21c-4.11-3.23-14.22-27.76-15.93-33.63l.74-.77Z"/>
        <path class="cls-4" d="M111.66,127.09c.54-2.81,1.31-3.41-1.07-5.17l.06-.76c1.56-.09,1.49,0,2.75-.9,1.83-4.13-3.58-10.63,8.87-6.5-.83,3.37-1.57,6.72-2.72,9.99-5.85-.1-3.66,1.01-7.88,3.33Z"/>
        <path class="cls-6" d="M70.88,109.16c1.71,5.87,11.82,30.41,15.93,33.63.75,1.56,2.95,5.73,3.96,7.02l.17,2.37-1.58-1.27c-5.64-6.51-15.21-29.6-19.26-38.49-.65-1.43.05-1.98.77-3.27Z"/>
        <path class="cls-6" d="M71.62,108.39c2.41-.51,1.85-.75,3.85-.04,2.87,3.31,11.73,22.79,15.54,29.14l-1.66-.08c-.09-.29-.25-.9-.41-1.17-4.84-8.27-8.28-17.95-13.58-25.76-.52-.77-2.92-1.75-3.75-2.1Z"/>
        <path class="cls-6" d="M131.25,142.32c.69-.47,3.3-2.88,4.08-3.56-1.25,2.86-2.37,3.64-2.42,6.83,1.55,2.98,5.58.43,7.77-.85l.66,1.45,1.01-.31c6.62,2.65,13.93,4.77,16.52,12.07,3.24,9.14,3.41,22.22-6.9,26.48-2.62.45-4.19.84-6.87.66,5.56,8.29,21.57,6.49,22.15,14.02-6.65,9.56-31.97-11.26-38.99-11,7.09,14.07,9.05,26.34-10.09,30.55-5.47,1.09-9.19-.11-14.37-1.57l.82-1.85c-1.49-.99-3.45-3.02-4.79-4.31l-1.01.11c-2.47-5.18-2.93-17.12-2.17-22.82-.04-2.66.37-8.22-.68-10.25.79-3.47-.22-7.97-.28-12.1-.04-2.56-.41-1.51.66-3.43,1.13-1.53,1.59-1.89,1.75-3.8l.4-1.03,2.79-1.02c1.34-1.84.91-1.33,1.04-4.01l2,.14c1.01-1.7,3.85-5.46,5.11-7.22.22-.74,1.69-3.08,2.16-3.89.72,1.89,1.37,4.55,2.8,5.66.9.13,1.87.41,2.68.2-.87,1.69-.92,1.04-.82,2.57,1.86-.15,5.78-3.1,7.58-4.29,0,.56-.01,1.76.05,2.27,1.96-2.14,4.9-3.98,7.33-5.68Z"/>
        <path class="cls-10" d="M108.57,161.39l.85-.56c.5.24,1.59.8,2.07,1l.4,1.64c2.55,1.42,3.5,1.78,6.28,2.72l-.34.67c-1.4-.47-2.12-.74-3.58-1.01-.78,3.17,8.03,16.65,10.86,17.53l2.47,1.72c.14,1.46.32.78-.39,2.12.79.86.37.64,1.09.89,7.09,14.07,9.05,26.34-10.09,30.55-5.47,1.09-9.19-.11-14.37-1.57l.82-1.85c-1.49-.99-3.45-3.02-4.79-4.31l-1.01.11c-2.47-5.18-2.93-17.12-2.17-22.82-.04-2.66.37-8.22-.68-10.25.79-3.47-.22-7.97-.28-12.1-.04-2.56-.41-1.51.66-3.43l1.79-.42c2.46.8,1.93.24,3.26,2l.09.87c.25-.03,5.74-2.97,7.07-3.5Z"/>
        <path class="cls-2" d="M98.15,162.01c2.46.8,1.93.24,3.26,2l.09.87c-2.57.98-2.41.45-3.66,2.31.43,3.04,3.15,5.32,5.91,6.45l.27.62c.84.49,1.73,1.04,2.6,1.46-.92,8.52-2.98,28.3,3.45,34.85l.1,1.24,4.09.97c1.89.41,2.5.39,4,1.65-.08,1.57-.18,2.63-.07,4.2-5.47,1.09-9.19-.11-14.37-1.57l.82-1.85c-1.49-.99-3.45-3.02-4.79-4.31l-1.01.11c-2.47-5.18-2.93-17.12-2.17-22.82-.04-2.66.37-8.22-.68-10.25.79-3.47-.22-7.97-.28-12.1-.04-2.56-.41-1.51.66-3.43l1.79-.42Z"/>
        <path class="cls-6" d="M104.01,174.26c.84.49,1.73,1.04,2.6,1.46-.92,8.52-2.98,28.3,3.45,34.85l.1,1.24c-8.18-5.48-6.24-28.2-6.15-37.56Z"/>
        <path class="cls-2" d="M114.25,212.79c1.89.41,2.5.39,4,1.65-.08,1.57-.18,2.63-.07,4.2-5.47,1.09-9.19-.11-14.37-1.57l.82-1.85,2.72,1.22c3.78-.62,4.64-.64,6.9-3.65Z"/>
        <path class="cls-2" d="M114.25,212.79c1.89.41,2.5.39,4,1.65-2.16,3.45-7.3,2.97-10.9,2,3.78-.62,4.64-.64,6.9-3.65Z"/>
        <path class="cls-2" d="M95.7,165.86c1.21,3.86,2.04,5.66,4.24,9.14.02,1.96.08,2.36-.99,3.74l-1,.2c-1.16,3.12.27,5.22-1.28,9.26-.04-2.66.37-8.22-.68-10.25.79-3.47-.22-7.97-.28-12.1Z"/>
        <path class="cls-3" d="M106.61,175.73c3.57,4.11,6.4,8.66,9.71,12.78,8.6,10.69,13,22.5-6.27,22.07-6.43-6.56-4.37-26.33-3.45-34.85Z"/>
        <path class="cls-6" d="M108.57,161.39l.85-.56c.5.24,1.59.8,2.07,1l.4,1.64c-1.26-.15-3.36-.62-4.11.45-2.03,2.93-6.77,2.94-8.39,3.83,1.2,1.61,3.73,4.44,4.36,5.9-2.76-1.13-5.49-3.41-5.91-6.45,1.25-1.86,1.09-1.33,3.66-2.31.25-.03,5.74-2.97,7.07-3.5Z"/>
        <path class="cls-2" d="M125.09,183.36c-2.83-.88-11.64-14.36-10.86-17.53,1.46.27,2.18.55,3.58,1.01l.34-.67,2.3.37c3.04,1.22,5.33,2.1,8.47,3.09,7,3.12,9.67,5.52,17.35,7.89,1.66-.21,2.2-.49,3.77-1.02l-.4,2.47c-3.85.54-7.15-.49-10.92-1.46l4.78,4.51c1.25.34,7.8,2.29,8.46,2.4-2.62.45-4.19.84-6.87.66,5.56,8.29,21.57,6.49,22.15,14.02-6.65,9.56-31.97-11.26-38.99-11-.72-.26-.31-.04-1.09-.89.71-1.34.53-.66.39-2.12l-2.47-1.72Z"/>
        <path class="cls-8" d="M125.09,183.36c-2.83-.88-11.64-14.36-10.86-17.53,1.46.27,2.18.55,3.58,1.01l.34-.67,2.3.37c3.04,1.22,5.33,2.1,8.47,3.09,7,3.12,9.67,5.52,17.35,7.89,1.66-.21,2.2-.49,3.77-1.02l-.4,2.47c-3.85.54-7.15-.49-10.92-1.46l4.78,4.51c1.25.34,7.8,2.29,8.46,2.4-2.62.45-4.19.84-6.87.66l-1.1-.62c.2,1.37.24.9,0,2.23-3.46-.38-19.7-9.41-24.55-11.69,1.89,2.94,3.59,5.53,5.64,8.36Z"/>
        <path class="cls-7" d="M120.35,158.36c6.57-3.46,11.98-3.9,19.21-4.05,3.55.7,4.88.89,8.29,2.39,5.82,5.25,6.75,13.42,2.21,19.81-1.57.53-2.12.81-3.77,1.02-7.68-2.37-10.35-4.77-17.35-7.89-3.15-.99-5.43-1.87-8.47-3.09l-2.3-.37c-2.78-.95-3.72-1.3-6.28-2.72l-.4-1.64c1.16-1.39,1.88-1.59,3.49-2.38,1.56-.35,2.98-.63,4.56-.91l.82-.17Z"/>
        <path class="cls-2" d="M119.53,158.53l.82-.17c1.32,1.01,6.71,4.9,7.56,5.77.3,2.03.5,3.53,1.02,5.51-3.15-.99-5.43-1.87-8.47-3.09l-2.3-.37c-2.78-.95-3.72-1.3-6.28-2.72l-.4-1.64c1.16-1.39,1.88-1.59,3.49-2.38,1.56-.35,2.98-.63,4.56-.91Z"/>
        <path class="cls-2" d="M111.48,161.82c1.16-1.39,1.88-1.59,3.49-2.38l.63.58c3.17,2.88,4.54,2.18,4.85,6.52l-2.3-.37c-2.78-.95-3.72-1.3-6.28-2.72l-.4-1.64Z"/>
        <path class="cls-7" d="M127.91,164.12c8.72,3.4,14.14,4.47,18.37,13.41-7.68-2.37-10.35-4.77-17.35-7.89-.52-1.98-.72-3.48-1.02-5.51Z"/>
        <path class="cls-7" d="M139.56,154.31c3.55.7,4.88.89,8.29,2.39l-3.9,2.78-1.1-.23c-1.1-2.25-1.57-3.13-3.28-4.94Z"/>
        <path class="cls-2" d="M131.25,142.32c.69-.47,3.3-2.88,4.08-3.56-1.25,2.86-2.37,3.64-2.42,6.83,1.55,2.98,5.58.43,7.77-.85l.66,1.45,1.01-.31c6.62,2.65,13.93,4.77,16.52,12.07,3.24,9.14,3.41,22.22-6.9,26.48-.66-.11-7.2-2.06-8.46-2.4l-4.78-4.51c3.77.97,7.06,2,10.92,1.46,7.51-7.22,6.19-19.62-2.94-25.17-1.41-1.44-10.91-3.25-15.96-7.24-.83-1.92-.43-1.57.49-4.24Z"/>
        <path class="cls-6" d="M100.22,161.01c2.74-2.62,4.58-6.34,9.05-5.09,3.31.92,6.89,1.9,10.26,2.6-1.58.28-3,.55-4.56.91-1.61.79-2.33.99-3.49,2.38-.48-.19-1.57-.75-2.07-1l-.85.56c-1.33.53-6.82,3.47-7.07,3.5l-.09-.87c-1.32-1.76-.79-1.2-3.26-2,.84-.29,1.28-.58,2.07-1Z"/>
        <path class="cls-2" d="M100.22,161.01c2.24-.47,5.67-1.76,7.41-1.53.92,1.14.68.48.94,1.9-1.33.53-6.82,3.47-7.07,3.5l-.09-.87c-1.32-1.76-.79-1.2-3.26-2,.84-.29,1.28-.58,2.07-1Z"/>
        <path class="cls-2" d="M123.92,148c1.96-2.14,4.9-3.98,7.33-5.68-.92,2.68-1.32,2.32-.49,4.24,5.05,3.99,14.54,5.8,15.96,7.24-6.7-.52-12.52-4.46-18.36-3.52-1.99.32-3.68,1.56-5.24-.63l.8-1.66Z"/>
        <path class="cls-6" d="M109.46,145.48c-.34,1.88-.56,1.23-.05,2.73,1.21.93,2.45,1.71,3.39,2.86-2.43.96-3.6,1.78-6.08.52-.84.78-.99,1.01-2.02,1.5l-.35-.39c1.01-1.7,3.85-5.46,5.11-7.22Z"/>
        <path class="cls-2" d="M71.36,23.34c-.4-4.1-.34-9.63,2.26-13.01,3.21-4.17,12.98-1.31,17.3-5.48,7.03-6.78,10.27-6.26,17.61.38,7.63-4.09,16.52-5.27,20.98,3.18,2.54,4.82,1.92,8.98,3.95,13.54,2.53,1.35,4.65,1.63,7.59,4.41.43,1.87.81,4.59,1.93,6.03l1.04.41c-.6,1.6-.61,1.51-1.74,2.83l.59,1.93c.98-.53.63-.26,1.13-.69l1.78-.73.86.39c.09,1.77-.38,2.45-1.08,4.07-1.29,1.99-2.12,3.24-3.15,5.36-2.32.1-4.08.12-6.37.54l-1.13-.48c-2.57,1.3-5.56,2.17-7.56,3.64-1.51,1.73-2.41,3.46-4.27,3.81-.94-1.07-.89-1.13-1.45-2.46-1.38-2.18-1.66-3.1-4.38-2.88-1.46,1.35-1.47,1.5-3.38,2.24-1.07-.85-1.33-1.04-2.52-1.71l-1.04.39-3.63.02-.88.4c-3.8,1.75-6.8,4.73-10.9,3.7-1.46-1.15-1.49-1.09-2.51-2.62l.38-.27c-.65-1.41-.76-1.49-1.74-2.72-4.99-1.84-7.93,2.19-11.68-1.5.92-.99,2.84-2.56,3.93-3.51l-3.12-.71c.15-3.62-.83-6.65-3.03-9.48-2.39-.3-4.77-.58-7.16-.84-.77-1.85-1.39-3.47-2.06-5.36l3.45-2.84Z"/>
        <path class="cls-4" d="M113.62,9.98c12.17-1.26,12.14,4.53,10.33,14.21,8.02,4.31,15.62,6.34,8.33,16.19-11.6,3-11.94,2.21-22.9-.86-4.98.01-7,1.53-11.52,3.71-3.5-2.07-4.87-3.34-7.43-6.46-2.08-5.33,1.51-4.5-4.81-9.41-2.5-1.94-5.71-5.14-5.93-8.65,2.14-5.05,9.65-3.65,14.24-5.16,1.83-.6,4.89-2.22,6.69-3.13.94-.14,1.64-.05,2.51.34,3.03,1.34,6.03-.18,8.82-.15l1.67-.64Z"/>
        <path class="cls-6" d="M100.62,10.42c.94-.14,1.64-.05,2.51.34,3.03,1.34,6.03-.18,8.82-.15-1.59.89-3.64,2.29-5.23,3.29-2.21-1.15-3.98-2.18-6.1-3.48Z"/>
        <path class="cls-2" d="M105.09,22.7c4.06-.32,8,.79,9.13,5.12-.8,2.44-.15,1.36-2.3,3.16-3.69.5-7.28-.84-8.62-4.54.19-2.41.02-1.57,1.79-3.74Z"/>
        <path class="cls-4" d="M71.36,23.34c1.79,3.72,3.43,5.71,6.45,8.54,2.92,3.05,4.58,4.7,5.88,8.83-.11.64-.17,1.29-.41,1.87l-3.12-.71c.15-3.62-.83-6.65-3.03-9.48-2.39-.3-4.77-.58-7.16-.84-.77-1.85-1.39-3.47-2.06-5.36l3.45-2.84Z"/>
        <path class="cls-2" d="M92.76,50.3l1.45-.5c4.03-6.03-4.07-6.15-3.79-13.03,2.55,3.13,3.93,4.39,7.43,6.46,4.53-2.18,6.55-3.69,11.52-3.71-6.51,2.49-12.12,4.82-14.74,11.92l1,1.38c3.62.12,5.91-3.63,10.55-4.3l.48.57-.88.4c-3.8,1.75-6.8,4.73-10.9,3.7-1.46-1.15-1.49-1.09-2.51-2.62l.38-.27Z"/>
        <path class="cls-6" d="M113.62,9.98l-.08-.64c6.66-2.45,10.64.83,13.22,6.61l-.95,7.6c3.36,1.85,9.99,4.62,10.97,8.5.78,3.06-1.21,6.56-3.8,8.26l-.71.08c7.29-9.85-.31-11.88-8.33-16.19,1.81-9.68,1.84-15.48-10.33-14.21Z"/>
        <path class="cls-2" d="M140.32,41.48c1.65-2.41,1.66-2.96,1.96-5.85l.59,1.93c.98-.53.63-.26,1.13-.69l1.78-.73.86.39c.09,1.77-.38,2.45-1.08,4.07-1.29,1.99-2.12,3.24-3.15,5.36-.71-3.16-.09-2.34-2.09-4.48Z"/>
        <path class="cls-2" d="M134.9,46.03l-.05-.79c1.72-1.14,3.97-2.44,5.47-3.75,1.99,2.14,1.37,1.32,2.09,4.48-2.32.1-4.08.12-6.37.54l-1.13-.48Z"/>
        <path class="cls-4" d="M39.86,22.78c5.67-6.05,25.48-21.34,24.36-2.69l3.69,6.09c.68,1.89,1.29,3.51,2.06,5.36,2.39.26,4.78.54,7.16.84,2.2,2.83,3.18,5.87,3.03,9.48l-1.6.09c-.9,1.07-1.1,1.36-1.82,2.57h-.71c-1.2,2.13-1.64,3.17-2.56,5.44l-2,1.02-1.16-1.23-4.07,2.75c-5.59,3.71-6.63,7.04-8.89,12.94-.64,1.15-1.02,1.93-1.8,3.01-2.71-.3-5-.8-7.05,1.27-6.05,6.11-8.97,12.05-17.57,4.27-2.72-2.61-.57-3.01-5.68-4.97-.96,1.85-.72,2.92-.65,5.01l-.67.97-1.12.11.02-.9c1.02-1.87,1.09-2.93.38-4.89-1.6-1.8-3.65-2.36-5.93-3.31-.8-1.29-1.12-2.16-1.68-3.25-4.35-5.12,5.58-12.4,4.74-15.06-2.4-7.61-1.79-13.12,9.67-16.53l4.6-1.37c2.03-3.21,2.74-4.18,5.26-7Z"/>
        <path class="cls-2" d="M39.86,22.78c5.67-6.05,25.48-21.34,24.36-2.69l3.69,6.09c.68,1.89,1.29,3.51,2.06,5.36,2.39.26,4.78.54,7.16.84,2.2,2.83,3.18,5.87,3.03,9.48l-1.6.09c-.9,1.07-1.1,1.36-1.82,2.57h-.71c-.4-2.33-.87-3.83-3.13-5.14-1.12-.64-2.46-.75-3.67-.3-1.56.24-5.35-.2-7.12-.34-.45-11.7-2.79-15.97-14.64-11.29-6.28,5.43-4.38,11.56-14.06,9.46.91-3.17,1.13-3.85,1.18-7.12,2.03-3.21,2.74-4.18,5.26-7Z"/>
        <path class="cls-2" d="M39.86,22.78c.65,4.67-3.78,11.14-2.97,13.67,7.07-2.22,3.76-7.97,10.58-9-6.28,5.43-4.38,11.56-14.06,9.46.91-3.17,1.13-3.85,1.18-7.12,2.03-3.21,2.74-4.18,5.26-7Z"/>
        <path class="cls-2" d="M17.27,66c-.8-1.29-1.12-2.16-1.68-3.25-4.35-5.12,5.58-12.4,4.74-15.06-2.4-7.61-1.79-13.12,9.67-16.53l4.6-1.37c-.05,3.27-.27,3.95-1.18,7.12-3.6.98-5.31,3.74-6.88,6.91l-.37-.91c-.74,2.47,1.43,5.24,1.36,7.73-.04,1.52-1.06,2.14-1.2,3.97-1.56,2.29-1.78,1.86-1.96,4.24,1.59,2.34,5.51,1.77,6.85,5.74,1.1,3.24.19,6.21-.28,9.41-2.72-2.61-.57-3.01-5.68-4.97-.96,1.85-.72,2.92-.65,5.01l-.67.97-1.12.11.02-.9c1.02-1.87,1.09-2.93.38-4.89-1.6-1.8-3.65-2.36-5.93-3.31Z"/>
        <path class="cls-6" d="M69.24,39.07c1.21-.45,2.55-.34,3.67.3,2.26,1.31,2.73,2.81,3.13,5.15-1.2,2.12-1.64,3.16-2.56,5.42l-2,1.02-1.16-1.23c2.73-4.97,4.55-7.53-1.07-10.67Z"/>
        <path class="cls-6" d="M26.32,54.59c.14-1.82,1.16-2.45,1.2-3.97.07-2.49-2.1-5.26-1.36-7.73l.37.91c1.18,2.87,2.13,4.22,3.78,6.77-1.28,1.31-2.67,2.79-4,4.01Z"/>
        <path class="cls-2" d="M48.45,45.58c1.67.1,1.55.1,2.99.97,2.42,4.37-1.94,8.35-5.36,10.56-1.94-.03-1.82-.12-3.43-1.27-2.14-4.74,2.13-8.1,5.8-10.26Z"/>
        <path class="cls-7" d="M62.28,144.36l.88.3c4.15,1.46,12.53,5.95,16.61,5.02.15-1.01.33-1.95.69-2.91,2.61,1.51,6.07,3.95,8.92,4.14l1.58,1.27,1.15,1.27c2.13,1.74,4.02,3.26,6.02,5.17-.17,1.91-.63,2.27-1.75,3.8-1.07,1.93-.7.88-.66,3.43.06,4.12,1.07,8.63.28,12.1-1.99,2.89-4.61,6.91-6.78,9.52-1.95.82-3.02,3.13-3.89,4.97-.29-3.35-.58-4.49.95-7.68l-.5-.55c-1.41,1.21-2.2,1.58-3.79,2.46-1.06-.43-.52-.27-1.6-.5l-1.68-.18c-1.32,2.41-1.93,2.7-4.11,4.52-.83-9.8,3.12-8.33,3.39-11.49-.92-.18-1.74-.44-2.62-.75-1.58.55-3.1.86-4.21,2.04l2,.55-.13.61-.75.19c-10.36,1.29-9.03,3.6-22.53,2.93-8.52-3.72-7.74-20.79-4.19-27.96,3.2-6.46,11.02-8.2,17.42-10.44l-.7-1.83Z"/>
        <path class="cls-6" d="M62.28,144.36l.88.3c4.15,1.46,12.53,5.95,16.61,5.02.15-1.01.33-1.95.69-2.91,2.61,1.51,6.07,3.95,8.92,4.14l1.58,1.27,1.15,1.27c2.13,1.74,4.02,3.26,6.02,5.17-.17,1.91-.63,2.27-1.75,3.8-1.07,1.93-.7.88-.66,3.43.06,4.12,1.07,8.63.28,12.1-1.99,2.89-4.61,6.91-6.78,9.52-1.95.82-3.02,3.13-3.89,4.97-.29-3.35-.58-4.49.95-7.68l-.5-.55c-1.41,1.21-2.2,1.58-3.79,2.46-1.06-.43-.52-.27-1.6-.5l-1.68-.18c-1.32,2.41-1.93,2.7-4.11,4.52-.83-9.8,3.12-8.33,3.39-11.49-.92-.18-1.74-.44-2.62-.75,3.16-2.4,6.31-4.82,9.45-7.25,1.15-1.1,2-2.26,1.9-3.83-1.82-1.21-1.82-.75-4.51-.7,1.55-.98,2.23-1.33,3.56-2.65-.6-1.61-.95-1.31-2.98-2.39-2.35-.72-6.8-4.65-9.57-6.32l-1.56-.91-1.59-2.14c-2.32-2.55-3.94-4.54-7.09-5.9l-.7-1.83Z"/>
        <path class="cls-6" d="M62.28,144.36l.88.3c4.15,1.46,12.53,5.95,16.61,5.02.15-1.01.33-1.95.69-2.91,2.61,1.51,6.07,3.95,8.92,4.14l1.58,1.27,1.15,1.27-.57.2c-2.06.7-2.26.84-4.36.85l-1.03.73c1.68,2.16,3.65,2.39,3.69,3.75-1.56.1-2.57.15-4.15.12l1.14.86-.28-.18-.1,1.35c-1.69.36-1.91.32-3.67.31-2.35-.72-6.8-4.65-9.57-6.32l-1.56-.91-1.59-2.14c-2.32-2.55-3.94-4.54-7.09-5.9l-.7-1.83Z"/>
        <path class="cls-6" d="M84.81,171.02c-.72,4.31-6.62,11.89-6.11,14.98-1.32,2.41-1.93,2.7-4.11,4.52-.83-9.8,3.12-8.33,3.39-11.49-.92-.18-1.74-.44-2.62-.75,3.16-2.4,6.31-4.82,9.45-7.25Z"/>
        <path class="cls-2" d="M82.2,166.49c2.69-.05,2.69-.51,4.51.7.11,1.57-.75,2.72-1.9,3.83-3.14,2.43-6.29,4.85-9.45,7.25-1.58.55-3.1.86-4.21,2.04l2,.55-.13.61-.75.19c-10.36,1.29-9.03,3.6-22.53,2.93,2.05-1.64-2.56-9.51-1.04-14.81.96,4.11,1.79,12.04,7.61,9.2,1.3-.64,1.5-.39,2.45-1.69.43-.22,2.11-.54,2.68-.67,9.22-3.04,12.45-5.75,20.76-10.12Z"/>
        <path class="cls-2" d="M62.97,146.19c3.15,1.36,4.76,3.35,7.09,5.9-12.45,1.11-22.53,1.48-21.35,17.68-1.52,5.3,3.09,13.17,1.04,14.81-8.52-3.72-7.74-20.79-4.19-27.96,3.2-6.46,11.02-8.2,17.42-10.44Z"/>
        <path class="cls-7" d="M48.71,169.78c-1.17-16.21,8.91-16.57,21.35-17.68l1.59,2.14,1.56.91c-7.8.11-11.45,1.76-17.64,7.04.11,5.56-1.02,13.15,5.87,14.43-.57.13-2.25.45-2.68.67-.94,1.3-1.14,1.06-2.45,1.69-5.82,2.84-6.64-5.09-7.61-9.2Z"/>
        <path class="cls-2" d="M48.71,169.78c-1.17-16.21,8.91-16.57,21.35-17.68l1.59,2.14c-12.44.51-22.34.78-21.01,16.43.26,3.05,1.05,5,3.36,6.94,1.96.01,2.8-.06,4.76-.32-.94,1.3-1.14,1.06-2.45,1.69-5.82,2.84-6.64-5.09-7.61-9.2Z"/>
        <path class="cls-2" d="M80.38,186.17c1.08.24.54.07,1.6.5,1.6-.88,2.38-1.25,3.79-2.46l.5.55c-1.53,3.19-1.24,4.33-.95,7.68.86-1.85,1.93-4.15,3.89-4.97-2.28,4.79-7.18,11.87-5.37,17.32,1.57,4.74,10.43,9.28,15,6.23l1.01-.11c1.34,1.29,3.3,3.32,4.79,4.31l-.82,1.85c-5.53,5.36-17.91,2.39-23.68-1.25-3.4-2.14-4.26-3.22-6.19-6.66-.65-12.37,4.53-13.4,6.45-23Z"/>
        <path class="cls-2" d="M72.27,181.65l.75-.19.13-.61-2-.55c1.1-1.18,2.63-1.49,4.21-2.04.88.31,1.7.57,2.62.75-.27,3.17-4.22,1.69-3.39,11.49-5.21,3.63-24.8,21.31-31.33,13.62.2-6.2,23.07-11.81,29.01-22.49Z"/>
      </g>
      <g>
        <path class="cls-6" d="M220.67,174.81h-53.67c-7.06,0-12.79-5.73-12.79-12.79v-24.43c0-7.06,5.73-12.79,12.79-12.79h53.67c7.06,0,12.79,5.73,12.79,12.79v24.43c0,7.06-5.73,12.79-12.79,12.79Z"/>
        <text class="cls-5" transform="translate(165.73 163.43)"><tspan x="0" y="0">CH</tspan></text>
      </g>
    </g>
  </g>
</svg>