<?xml version="1.0" encoding="UTF-8"?>
<svg id="Capa_2" data-name="Capa 2" xmlns="http://www.w3.org/2000/svg" xmlns:xlink="http://www.w3.org/1999/xlink" viewBox="0 0 161.9 250">
  <defs>
    <style>
      .cls-1 {
        fill: url(#Degradado_sin_nombre_5);
      }

      .cls-2 {
        fill: #353a59;
      }

      .cls-3 {
        fill: #8e9aae;
      }

      .cls-4 {
        fill: #2b2d43;
      }

      .cls-5 {
        fill: #e87782;
      }

      .cls-6 {
        fill: #f0253e;
      }
    </style>
    <linearGradient id="Degradado_sin_nombre_5" data-name="Degradado sin nombre 5" x1="55.09" y1="160.38" x2="142.45" y2="186.58" gradientTransform="translate(0 252) scale(1 -1)" gradientUnits="userSpaceOnUse">
      <stop offset="0" stop-color="#2b2d43"/>
      <stop offset="1" stop-color="#353a59"/>
    </linearGradient>
  </defs>
  <g id="ICONS">
    <g>
      <path class="cls-1" d="M60.25,7.01c8.79-4.92,26.63-9.01,36.42-5.97,6.82,2.12,14.07,7.16,19.27,12.08.31.3,2.09,1.93,2.3,2.06,6.6-3.87,7.75-3.6,14.59-.24,6.09,4,6.13,9.29.64,13.96l-1.1,2c1.25,13.84,1.03,35.39-4.82,47.94-2.02,4.32-4.12,6.88-1.29,9.48,4.15,1.1,9.29,1.03,12.14,2.76,1.7,4.09-2.6,9.34-7.03,11.49-10.55,5.14-22.21,3.74-33.33,1.63-5.37-1.02-4.1,9.75-4.95,12.95-.92,9.67-1.43,19.35-1.97,29.06-.34-.08-1.41-.91-1.76-1.15-2.17-1.29-2.27-1.59-4.82-1.57-2.04,1.63-2.11,2.06-2.47,5.12-.13,1.23-.25,2.47-.35,3.7-.03,3.66.48,13.63-1.68,15.93-1.91-.86-1.02-.34-2.37-2.65l.37-1.48c-2.58-2.01-2.55-1.84-3.81-4.8.76-16.39.47-32.81-.87-49.16l-2.35-5.24c-14.78-4.53-24.39-8.37-32.24-23.02-6.74-12.94-5.44-27.95-3.52-41.9.86-6.24,1.36-19.79,7.35-22.7,10.9,1.36,8.23-5.01,17.64-10.29Z"/>
      <path class="cls-5" d="M47.13,29.39l1.35-.6c10.77,6.03,25.64,11.19,33.62,16.06-7.89,19.5-11.08,29.61-.18,49.72l-8.86-.5c-8.35-.69-12.01-2.97-18.45-7.72-10.25-9.26-10.58-20.88-10.14-33.63-.16-7.63,1.39-15.78,2.66-23.34Z"/>
      <path class="cls-6" d="M44.47,52.73c3.45,25.64,19.76,25.47,28.59,41.35-8.35-.69-12.01-2.97-18.45-7.72-10.25-9.26-10.58-20.88-10.14-33.63Z"/>
      <path class="cls-2" d="M71.02,104.92c-14.78-4.53-24.39-8.37-32.24-23.02-6.74-12.94-5.44-27.95-3.52-41.9.86-6.24,1.36-19.79,7.35-22.7,10.9,1.36,8.23-5.01,17.64-10.29-1.03,5.22-12.71,8.88-15.24,22.26l2.12.12c-1.27,7.55-2.82,15.71-2.66,23.34-.44,12.75-.11,24.37,10.14,33.63l-.57,1.93c9.23,8.94,25.61,5.41,25.25,15.45l-.62,4.01c-3.17-.81-3.16-.45-5.3,2.41l-2.35-5.24Z"/>
      <path class="cls-4" d="M45.01,29.27l2.12.12c-1.27,7.55-2.82,15.71-2.66,23.34-.44,12.75-.11,24.37,10.14,33.63l-.57,1.93c-17.61-12.7-12.01-41.03-9.02-59.02Z"/>
      <path class="cls-2" d="M79.28,103.74l2.24,1.53c4.59,15.72-.87,34.63.21,47.07-.03,3.66.48,13.63-1.68,15.93-1.91-.86-1.02-.34-2.37-2.65l.37-1.48c-2.58-2.01-2.55-1.84-3.81-4.8.76-16.39.47-32.81-.87-49.16,2.14-2.85,2.12-3.22,5.3-2.41l.62-4.01Z"/>
      <path class="cls-4" d="M79.28,103.74l2.24,1.53c4.59,15.72-.87,34.63.21,47.07-.03,3.66.48,13.63-1.68,15.93-1.91-.86-1.02-.34-2.37-2.65l.37-1.48.17-1.53c1.78-14.97,1.31-39.46.46-54.84l.62-4.01Z"/>
      <path class="cls-2" d="M81.52,105.27l.82-4.99c3.18.89,5.83,4.62,7.99,7.19.64,2.46-2.3,12.37-2.55,16.15-.45,6.78,2.03,15.59,1.59,21.45-2.17-1.29-2.27-1.59-4.82-1.57-2.04,1.63-2.11,2.06-2.47,5.12-.13,1.23-.25,2.47-.35,3.7-1.08-12.43,4.38-31.35-.21-47.07Z"/>
      <path class="cls-6" d="M118.24,15.19c6.6-3.87,7.75-3.6,14.59-.24,6.09,4,6.13,9.29.64,13.96l.29-6.17c-1.82-4.1-2.64-4.14-6.65-6.24-3.86.16-5.47.28-8.88-1.32Z"/>
      <path class="cls-2" d="M127.12,16.51c4,2.1,4.82,2.14,6.65,6.24l-.29,6.17-1.1,2c-.79-2.22-.63-8.32-3.14-10.8-1.09-1.07-1.17-1.58-1.85-3.01l-.27-.59Z"/>
      <path class="cls-5" d="M121.23,28.63c.79.42.64.56,1.26,1.54,1.09,18.06,1.84,37.66-9.92,52.71-5.11,6.54-12.23,12.17-20,5.87-3.52-4.19-4.32-6.16-6.27-11.01l.31-.48c8.9-13.58,12.68-29.3,24.55-41.55,4.04-4.17,4.92-4.38,10.09-7.08Z"/>
      <path class="cls-5" d="M66.12,16.02c7.86,6.43,12.44,5.56,22.3,5.23l-1.69-1.01c1.36-1.07.68-.6,3.19-.45,1.61,1.08,1.58,1.56,2.5,3.35,3.97,2.36,4.36-.36,7.29,1.79l-.55.66-.47.04c-3.48,4.08-6.57,7.93-10.6,11.49-4.12-2.86-6.06-4.1-10.53-6.37-7.04-2.77-13.81-4.21-20.74-7.91,2.51-2.3,4.54-4.24,6.89-6.7l2.42-.11Z"/>
      <path class="cls-5" d="M88.41,21.25l-1.69-1.01c1.36-1.07.68-.6,3.19-.45,1.61,1.08,1.58,1.56,2.5,3.35,3.97,2.36,4.36-.36,7.29,1.79l-.55.66-.47.04c-3.48,4.08-6.57,7.93-10.6,11.49-4.12-2.86-6.06-4.1-10.53-6.37l1.49-.95.49-2.68c3.7-2.68,7.21-2.49,10.26-5.16l-1.38-.71Z"/>
      <path class="cls-4" d="M88.41,21.25l-1.69-1.01c1.36-1.07.68-.6,3.19-.45,1.61,1.08,1.58,1.56,2.5,3.35,3.97,2.36,4.36-.36,7.29,1.79l-.55.66-.47.04c-10.18-1.28-16.14,5.27-19.16,1.49,3.7-2.68,7.21-2.49,10.26-5.16l-1.38-.71Z"/>
      <path class="cls-5" d="M63.7,16.13l-.15-.94c1.16-.96.87-1.03,1.53-1.71,5.49-5.67,22.35-7.27,28.12-2.12,4.84,2.08,14.48,6.31,16.88,11.07l-.47,1.06-3.12-.07c-2.82-5.24-1.72-5.09-8.05-7.19-11.16-3.7-21.36-.91-31.34-.91l-.99.69-2.42.11Z"/>
      <path class="cls-2" d="M63.7,16.13l-.15-.94c1.16-.96.87-1.03,1.53-1.71,5.49-5.67,22.35-7.27,28.12-2.12-10.76-1.59-16.26-1.65-26.09,3.96l-.99.69-2.42.11Z"/>
      <path class="cls-5" d="M105.71,37.65c-.37,1.19-9.07,9.47-10.36,12.1-2.44,4.98-5.04,10.37-7.66,15.2-.37-1.22-.35-.94,0-2.42,2.91-12.05,7.93-18.36,18.02-24.88Z"/>
      <path class="cls-2" d="M65.93,242.39c3.47-8.99,5.87-21.29,7.87-30.21,6.33-28.16,6.22-46.55-27.92-47.57-15.62-.47-34.59-13.17-40-27.75-2.97-6.58-7.7-20.02-5.18-26.98,1.5-1.53,1.65-1.69,4.54-1.7,17.41-.03,37.13,4.81,49.82,17.19,10.11,9.86,12.29,23.84,19.16,33.96,1.26,2.96,1.23,2.79,3.81,4.8l-.37,1.48c1.35,2.31.46,1.79,2.37,2.65,2.16-2.29,1.65-12.27,1.68-15.93.1-1.24.22-2.47.35-3.7.36-3.06.43-3.5,2.47-5.12,2.55-.03,2.66.28,4.82,1.57.34.24,1.42,1.07,1.76,1.15.01,5.94-1.77,22.35.03,26.17l1.06-.1c2.59-3.46,3.83-10.34,6.2-14.91,9.83-19,28.67-28.06,49.08-31.15,5.58-.85,10.08-.83,14.37,3.13.33,3.49-2.43,10.02-3.53,13.57-7.73,24.91-29.98,39.05-55.69,36.77-7.61,5.02-9.08,6.39-14.81,13.52-1.19,8.55-4.77,58.06-17.19,56.75-3.08-1.98-3.32-4.03-4.71-7.59Z"/>
      <path class="cls-5" d="M23.27,143.3c-5.81-2.27-16.15-19.59-13.27-25.83,2.26-.87,2.44-.6,4.78-.03v.69s-4.5.55-4.5.55c21.12,2.43,27.25,3.91,42.89,20.43.04.03.07.05.11.08l1.87,3.39-1.41.9c3.68,4.01,11.13,10.22,5.8,15.41-2.94.08-4.96-2-7.47-4.02l-.56,1.4-.77.67-.91-.2-12.93-4.1c-.84-.71-10.95-7.34-13.63-9.34Z"/>
      <path class="cls-2" d="M49.83,156.75c-3.75-4.95-15.44-12.43-14.4-19.74l1.51-.9c6.39-.34,11.49,3.77,16.79,7.38,3.68,4.01,11.13,10.22,5.8,15.41-2.94.08-4.96-2-7.47-4.02l-.56,1.4-.77.67-.91-.2Z"/>
      <path class="cls-4" d="M23.27,143.3c-5.81-2.27-16.15-19.59-13.27-25.83,2.26-.87,2.44-.6,4.78-.03v.69s-4.5.55-4.5.55c3.62,11.32,5.85,15.07,12.99,24.61Z"/>
      <path class="cls-5" d="M148.94,137.22l.91-.71c2.21,3.67-5.2,15.87-8.09,18.77l-1.55.37c-7.18,7.46-12.14,10.8-22.04,13.93l-2.4-.05-1.16-1.28-.91-1.07c-4.27-.96-3.61-1.74-4.3-5.51l-.09-.86c-.26-2.14,1.53-4.06,2.79-5.88,11.88-14.71,20.03-14.89,36.82-17.71Z"/>
      <path class="cls-2" d="M115.48,155.39c3.41-2.73,11.66-9.9,15.56-4.54-.7,5.08-12.16,13.83-16.41,17.39l-.91-1.07c-4.27-.96-3.61-1.74-4.3-5.51l-.09-.86c-.26-2.14,1.53-4.06,2.79-5.88l3.36.47Z"/>
      <path class="cls-3" d="M112.12,154.92l3.36.47c-1.87,1.79-4.03,4.04-6.15,5.41-.26-2.14,1.53-4.06,2.79-5.88Z"/>
      <path class="cls-4" d="M148.94,137.22l.91-.71c2.21,3.67-5.2,15.87-8.09,18.77l-1.55.37c3.59-5.33,7.36-12.15,8.73-18.43Z"/>
      <path class="cls-4" d="M109.41,161.66c.7,3.77.03,4.55,4.3,5.51l.91,1.07,1.16,1.28,2.4.05,1.28.95-.49.89c-5.01,1.62-11.87,2.4-17.23,3.18,1.43-5.71,2-10.29,7.67-12.93Z"/>
      <path class="cls-4" d="M36.91,152.65l12.93,4.1.91.2.77-.67c2.74,2.64,4.88,2.89,8.56,4.03l.09.67c-4.09.88-20.71-4.46-23.26-8.32Z"/>
      <path class="cls-4" d="M53.28,139.19c4.81,1.47,6.91,6.49,9.08,10.73-3.53-2.55-5-3.59-7.21-7.34l-1.87-3.39Z"/>
    </g>
  </g>
</svg>