<?xml version="1.0" encoding="UTF-8"?>
<svg id="Capa_2" data-name="Capa 2" xmlns="http://www.w3.org/2000/svg" viewBox="0 0 150 243.26">
  <defs>
    <style>
      .cls-1 {
        fill: #353a59;
      }

      .cls-2 {
        fill: #fff;
      }

      .cls-3 {
        fill: #2b2d43;
      }

      .cls-4 {
        fill: #e87782;
      }

      .cls-5 {
        fill: #d9042a;
      }

      .cls-6 {
        fill: #f0253e;
      }
    </style>
  </defs>
  <g id="ICONS">
    <g>
      <path class="cls-1" d="M6.77,18.72c20.51-24.51,127.91-26.16,136.09,2.25,1.91,5.85,2.9,42.52,1.31,46.3l.03.47c2.46,1.26,4.43,2.3,5.31,5.12.75,2.42.44,6.29.38,8.82-.17,8.57-1.26,17.75-3.56,26.02-2.14,7.7-5,15.01-6.03,22.98-2.85,21.97-1.55,76-12.29,92.79-4.79,7.49-23.22,11.81-31.83,13.39-1.1.2-2.22.28-3.34.34-2.9.74-5.87.69-8.88.81-2.67,2.47-4.49,3.4-7.58,5.24-11.93-1.03-14.61-2.75-25.24-7.61-30.46-8.72-28.23-19.98-31.02-48.06-2.04-21.84-3.68-43.71-4.91-65.6-7.14-6.27-7.07-7.35-8.63-16.92-10.18-5.78-6.75-8.99-1.68-17.47-1.52-5.62-1.75-12.82,2.34-17.34l.32-1.72c-.79-1.54-1.29-1.62-1.84-2.65-4.65-8.74-2.57-25.67-1.43-34l2.05-.49c1.61,1.59,1.76,3.33,2.34,5.56.04-1.86.12-2.68.39-4.52,1.67-1.11,1.64-.65,4.22-.37-.85-4.56-.68-4.83-3.05-9.15-1.74-.46-2.18-2.15-3.48-4.22Z"/>
      <path class="cls-2" d="M6.77,18.72c20.51-24.51,127.91-26.16,136.09,2.25,1.91,5.85,2.9,42.52,1.31,46.3l.03.47c-4.96.23-10.03,1.98-14.33,4.43-.63,1.6-1.09,1.88-2.43,2.94-.46,2.3-.58,1.22.31,3.34,4.77,3.2,11.17,1.21,12.27,3.02-1.53.87-.75.61-2.33.87-3.86-.79-13.43,3.72-18.14,5.18-3.3-.49-24.82,2.24-28.67,3.16-17.48,1.09-52.02.16-68.17-5.84-2.5-.82-4.38-1.61-6.75-.61-.24-.72-.84-1.13-1.46-1.77-5.61,2.36-6.52,2.03-7.48,8.07-.69-1.96-.48-1.29-2.13-2.92-1.52-5.62-1.75-12.82,2.34-17.34l.32-1.72c-.79-1.54-1.29-1.62-1.84-2.65-4.65-8.74-2.57-25.67-1.43-34l2.05-.49c1.61,1.59,1.76,3.33,2.34,5.56.04-1.86.12-2.68.39-4.52,1.67-1.11,1.64-.65,4.22-.37-.85-4.56-.68-4.83-3.05-9.15-1.74-.46-2.18-2.15-3.48-4.22Z"/>
      <path class="cls-2" d="M6.77,18.72c20.51-24.51,127.91-26.16,136.09,2.25l-1.67.36c-.38,2.37.27,3.31,1.2,5.53l-.36,1.65c-1.66.89-2.43.68-4.23,1.21l-.72-.35-.08-2.7-.91-.65c-1.72-2.85-3.48-5.64-6.75-6.76l-.52.75.44,1.7c-.61.98-1.04,1.7-1.73,2.63-27.35,10.38-61.72,9.54-90.32,4.88-3.74-1.05-13.65-3.58-16.54-6.12-.71-.62-.34-1.17-.17-2.31,1.95-2.33,4.28-2.83,7.19-3.95l-.35-.91c-6.22.24-12.39,3.03-17.1,7.01-1.74-.46-2.18-2.15-3.48-4.22Z"/>
      <path class="cls-1" d="M6.77,18.72c20.51-24.51,127.91-26.16,136.09,2.25l-1.67.36c-.38,2.37.27,3.31,1.2,5.53l-.36,1.65c-1.66.89-2.43.68-4.23,1.21l-.72-.35-.08-2.7-.91-.65c-1.72-2.85-3.48-5.64-6.75-6.76l-.52.75c-29.98-10.96-70.4-11.94-101.13-3.16l-.35-.91c-6.22.24-12.39,3.03-17.1,7.01-1.74-.46-2.18-2.15-3.48-4.22Z"/>
      <path class="cls-1" d="M10.24,22.95c4.71-3.99,10.88-6.78,17.1-7.01l.35.91c-2.92,1.12-5.24,1.62-7.19,3.95-.17,1.13-.54,1.68.17,2.31,2.89,2.54,12.8,5.06,16.54,6.12,28.6,4.66,62.97,5.5,90.32-4.88.69-.93,1.12-1.65,1.73-2.63l-.44-1.7.52-.75c3.27,1.13,5.03,3.91,6.75,6.76-.06,3.74.04,6.42-.82,10.12l-.4.37c-.78-2-.1-1.26-1.7-2.51l-3.27.92c-4.31,2.53-8.09,3.41-12.93,4.54.33,7.33,4.06,29.05-3.07,31.27-5.89-3.23-5.15-23.39-5.4-30.09-21.3,4.39-50.44,4.35-72,.24-6.59-1.63-14.15-4.3-20.64-6.5l-2.25-.1-.32-2.18c-.85-4.56-.68-4.83-3.05-9.15Z"/>
      <path class="cls-3" d="M10.24,22.95c4.71-3.99,10.88-6.78,17.1-7.01l.35.91c-2.92,1.12-5.24,1.62-7.19,3.95-.17,1.13-.54,1.68.17,2.31,2.89,2.54,12.8,5.06,16.54,6.12-4.25,2.91-13.95-4.99-18.1-4.83-.97,2.62-2.24,6.23-1.32,8.9,7.08,4.42,16.61,4.61,21.53,7l-2.82.6c-6.59-1.63-14.15-4.3-20.64-6.5l-2.25-.1-.32-2.18c-.85-4.56-.68-4.83-3.05-9.15Z"/>
      <path class="cls-1" d="M128.82,20l.52-.75c3.27,1.13,5.03,3.91,6.75,6.76-.06,3.74.04,6.42-.82,10.12l-.4.37c-.78-2-.1-1.26-1.7-2.51l-3.27.92-.03-.77c3.12-1.96,6.27-5.04,3.61-8.8-3.33-1.64-2.01-1.22-5.95-1.02.69-.93,1.12-1.65,1.73-2.63l-.44-1.7Z"/>
      <path class="cls-3" d="M7.24,70.28c5.23-1.55,8.69-.72,13.46,2.08,6.26,2.24,11.05,3.39,17.52,4.57,1.38.25,8.05,1.38,9.01,1.77,27.86,2.42,55.68,2.43,82.63-6.52-.63,1.6-1.09,1.88-2.43,2.94-.46,2.3-.58,1.22.31,3.34,4.77,3.2,11.17,1.21,12.27,3.02-1.53.87-.75.61-2.33.87-3.86-.79-13.43,3.72-18.14,5.18-3.3-.49-24.82,2.24-28.67,3.16-17.48,1.09-52.02.16-68.17-5.84-2.5-.82-4.38-1.61-6.75-.61-.24-.72-.84-1.13-1.46-1.77-5.61,2.36-6.52,2.03-7.48,8.07-.69-1.96-.48-1.29-2.13-2.92-1.52-5.62-1.75-12.82,2.34-17.34Z"/>
      <path class="cls-1" d="M7.24,70.28c5.23-1.55,8.69-.72,13.46,2.08,1.7,3.17,3.61,1.57,2.82,6.05-2.18,1.86-6.2,3.03-9.02,4.06-5.61,2.36-6.52,2.03-7.48,8.07-.69-1.96-.48-1.29-2.13-2.92-1.52-5.62-1.75-12.82,2.34-17.34Z"/>
      <path class="cls-1" d="M20.7,72.35c6.26,2.24,11.05,3.39,17.52,4.57,1.38.25,8.05,1.38,9.01,1.77,1.32,1.43,2.03,1.72,3.72,2.58l-.09.72c-10.8,1.25-21.05-5.14-28.16,2.86-2.5-.82-4.38-1.61-6.75-.61-.24-.72-.84-1.13-1.46-1.77,2.82-1.03,6.84-2.2,9.02-4.06.79-4.48-1.12-2.88-2.82-6.05Z"/>
      <path class="cls-3" d="M4.29,31.9l2.05-.49c1.61,1.59,1.76,3.33,2.34,5.56.04-1.86.12-2.68.39-4.52,1.67-1.11,1.64-.65,4.22-.37l.32,2.18,2.25.1c-.38,3.72-.78,7.31-.93,11.06-.1,3.76-.77,12.56-.02,15.67-.08,2.66.14,2.86-1.46,5.03-1.52.8-5.19,2-5.89,2.41-.79-1.54-1.29-1.62-1.84-2.65-4.65-8.74-2.57-25.67-1.43-34Z"/>
      <path class="cls-1" d="M8.68,36.98c.04-1.86.12-2.68.39-4.52,1.67-1.11,1.64-.65,4.22-.37l.32,2.18,2.25.1c-.38,3.72-.78,7.31-.93,11.06-.1,3.76-.77,12.56-.02,15.67l-3.76,2.63-.99-.86c-1.97-5.59-1.02-18.84-1.47-25.9Z"/>
      <path class="cls-1" d="M13.61,34.28l2.25.1c-.38,3.72-.78,7.31-.93,11.06-2.55-3.15-1.73-7.35-1.32-11.16Z"/>
      <path class="cls-1" d="M136.09,26.01l.91.65.08,2.7.72.35c1.8-.52,2.56-.32,4.23-1.21l.36-1.65c-.93-2.22-1.59-3.16-1.2-5.53l1.67-.36c1.91,5.85,2.9,42.52,1.31,46.3-10.62.33-9.67-10.25-9.9-18.07-.12-4.02-.09-8.77.62-12.69l.4-.37c.85-3.69.76-6.38.82-10.12Z"/>
      <path class="cls-2" d="M116.3,130.4c4.01-.95,7.92-1.84,11.87-3.01-.23,5.63-.58,11.26-1.05,16.88-1.8,12.46-3.13,39.48-4.1,52.81-18.87,8.37-39.19,10.71-59.62,8.45-9.77-1.08-19.86-4.83-29.4-7.44-.05-3.98-.48-8.73-.97-12.72-2.33-18.96-2.7-38.49-4.94-57.38l12.18,2.46c6.72,1.27,14.25,2.76,21.05,2.99,3.12,1.26,7.93.1,10.81.83,8.93,2.24,16.22,5.04,25.65,5.55l2.12-.56c.64-2.65,1.73-5.22,2.71-7.77l8.24-1.19,5.45.09Z"/>
      <path class="cls-4" d="M110.86,130.31l5.45.09c-5.48,4.59-9.09,8-16.4,8.87.64-2.65,1.73-5.22,2.71-7.77l8.24-1.19Z"/>
      <path class="cls-6" d="M15.97,84.24c2.37-1,4.24-.21,6.75.61,16.15,6,50.69,6.93,68.17,5.84,3.84-.93,25.37-3.66,28.67-3.16,1.97,5.53,1.61,8.07-1.03,13.47-2.64,7.12-2.94,9.42-2.89,17.11l-.47.19c2.99.63,1.83-.09,3.76,1.96.18,2.19-1.05,3.75-2.17,5.76l.4.91,2.57.43,1.05.58c-3.93,1.37-5.74.73-9.9,2.38l-8.24,1.19c-.98,2.55-2.06,5.12-2.71,7.77l-2.12.56c-9.44-.51-16.72-3.31-25.65-5.55-2.87-.72-7.69.43-10.81-.83-6.8-.23-14.33-1.72-21.05-2.99l.09-.76c1.44-.3.77-.06,2.03-.69-3.33-3.85-13.72-6.45-16.23-13.32-3.95-2.75-4.53-3-5.58-7.64l1.86-2.57,2.33-1.85c-6.27-8.2-6.26-9.27-8.81-19.36Z"/>
      <path class="cls-3" d="M26.17,115.67l1.54.23c7.31,3.11,12.66,4.38,20.48,5.45,27.95,2.33,30.74,2.57,59.02-.93l7.94-2.12c2.99.63,1.83-.09,3.76,1.96.18,2.19-1.05,3.75-2.17,5.76l.4.91,2.57.43,1.05.58c-3.93,1.37-5.74.73-9.9,2.38l-8.24,1.19c-.98,2.55-2.06,5.12-2.71,7.77l-2.12.56c-9.44-.51-16.72-3.31-25.65-5.55-2.87-.72-7.69.43-10.81-.83-6.8-.23-14.33-1.72-21.05-2.99l.09-.76c1.44-.3.77-.06,2.03-.69-3.33-3.85-13.72-6.45-16.23-13.32Z"/>
      <path class="cls-4" d="M61.32,133.44c9.9.18,20.79-.68,30.86-.97,2.19,5.64,3.51-.16,5.6,7.35-9.44-.51-16.72-3.31-25.65-5.55-2.87-.72-7.69.43-10.81-.83Z"/>
      <path class="cls-4" d="M92.19,132.47c3.24-.44,7.12-.68,10.43-.97-.98,2.55-2.06,5.12-2.71,7.77l-2.12.56c-2.09-7.51-3.42-1.71-5.6-7.35Z"/>
      <path class="cls-5" d="M24.77,103.6c.85,1.07,2.68,3.49,3.08,4.69,2.23,6.77,11.51,6.04,15.54,8.68,17.6.31,32.79,5.55,52.14-.95,6.63.15,6.16,3.4,11.68,4.39-28.28,3.51-31.07,3.27-59.02.93-7.82-1.07-13.17-2.34-20.48-5.45l-1.54-.23c-3.95-2.75-4.53-3-5.58-7.64l1.86-2.57,2.33-1.85Z"/>
      <path class="cls-4" d="M22.45,105.45c.93,1.64,5.54,9.16,5.26,10.45l-1.54-.23c-3.95-2.75-4.53-3-5.58-7.64l1.86-2.57Z"/>
      <path class="cls-5" d="M90.88,90.69c3.84-.93,25.37-3.66,28.67-3.16,1.97,5.53,1.61,8.07-1.03,13.47-2.64,7.12-2.94,9.42-2.89,17.11l-.47.19-7.94,2.12c-5.52-.99-5.05-4.25-11.68-4.39,2.18-3.12,2.02-3.82,5.22-4.53,2.61.67,4.87,3.02,7,4.83,1.75-1.3,2.63-2.11,4.19-3.56,2.47-5.34-2.31-7.27,3.32-13.23l.56-.58c-.17-2.69.42-4.64-1.07-6.56-4.23-2.38-17.77-1.59-23.87-1.71Z"/>
      <path class="cls-4" d="M119.55,87.52c4.71-1.46,14.28-5.97,18.14-5.18-1.55,9.29-2.04,19.08-3.6,28.26-5.75,3.84-11.35,6.94-18.47,7.5-.05-7.69.25-9.98,2.89-17.11,2.64-5.4,3-7.94,1.03-13.47Z"/>
      <path class="cls-3" d="M14.51,82.46c.62.64,1.22,1.06,1.46,1.77,2.55,10.09,2.54,11.16,8.81,19.36l-2.33,1.85-1.86,2.57-.42,2.79c.04-4.26,1.18-10.44-1.65-13.47-9.74-.99-13.2,16.09-3.95,21.77l.48-.1c.93,1.6.65.7.16,2.99-7.14-6.27-7.07-7.35-8.63-16.92-10.18-5.78-6.75-8.99-1.68-17.47,1.65,1.63,1.43.97,2.13,2.92.96-6.04,1.88-5.71,7.48-8.07Z"/>
      <path class="cls-5" d="M4.9,87.61c1.65,1.63,1.43.97,2.13,2.92-.11,4.13-.07,10.61-.45,14.54-10.18-5.78-6.75-8.99-1.68-17.47Z"/>
      <path class="cls-3" d="M51.14,235.66c6.13-2.81,35.93-1.92,41.7,1.55-2.9.74-5.87.69-8.88.81-2.67,2.47-4.49,3.4-7.58,5.24-11.93-1.03-14.61-2.75-25.24-7.61Z"/>
      <path class="cls-1" d="M119.71,127.34l.82-.19c3.57-.84,4.48-1.22,7.78-2.8,1.72,4.25,1.38,20.62-.15,25.12l-.47.27-.56-5.49c.47-5.62.82-11.25,1.05-16.88-3.95,1.17-7.87,2.06-11.87,3.01l-5.45-.09c4.17-1.66,5.98-1.01,9.9-2.38l-1.05-.58Z"/>
      <path class="cls-2" d="M35.47,209.75c5.81,1.16,13.06,4.19,19.99,5.47,23.2,4.29,41.46.94,63.59-4.43l.71.47c-.19,2.13-1.31,3.14-2.64,4.88-15.59,12.15-56.51,13.04-74.09,3.45-4.26-2.32-5.86-5.47-7.56-9.84Z"/>
      <path class="cls-1" d="M6.77,18.72c1.3,2.07,1.73,3.76,3.48,4.22,2.37,4.32,2.2,4.6,3.05,9.15-2.58-.28-2.55-.75-4.22.37-.27,1.84-.34,2.66-.39,4.52-.58-2.24-.74-3.98-2.34-5.56l-2.05.49c1.99-5.45.05-7.47,2.47-13.18Z"/>
    </g>
  </g>
</svg>