<?xml version="1.0" encoding="UTF-8"?>
<svg id="Capa_2" data-name="Capa 2" xmlns="http://www.w3.org/2000/svg" viewBox="0 0 100 275.99">
  <defs>
    <style>
      .cls-1 {
        fill: #fdf9ef;
      }

      .cls-2 {
        fill: #e87782;
      }

      .cls-3 {
        fill: #31375d;
      }

      .cls-4 {
        fill: #f0253e;
      }
    </style>
  </defs>
  <g id="ICONS">
    <g>
      <path class="cls-3" d="M43.73.3c5.23-.83,14.76.16,19.66,1.81,12.08,4.07,12.99,13.4,9.77,23.67-.16,31.9.88,53.51,3.95,70.16,3.07,10.65,7.3,19.42,13.01,28.65,1.52,2.46,4.23,7.66,5.17,9.48,1.93,3.75,2.05,7.26,2.51,12.14.6,6.36.76,12.97,1,19.36.13,10.13,1.17,20.5,1.18,30.61.02,10.25-.76,20.44-.06,30.74.31,4.61-.44,10.01-.49,14.73-.05,4.27.28,10.05-.34,14.18-.56,3.5-1.93,6.82-4.02,9.66-8.35,11.22-24.31,8.51-37.09,10.42-3.73.18-7.69.02-11.45-.25-13.68-.99-41.31.91-44.04-18.07-3.93-27.35-2.2-57.15-1.6-84.82.27-12.46-1.78-25.86,2.02-38.09,3.22-9.85,19.65-28.73,20.35-38.13.41-11.26,1.87-55.88.79-66.96C21.8,6.49,19.75,4.21,43.73.3Z"/>
      <path class="cls-1" d="M12.44,160.46c1.7.63,4.46,2.44,6.18,3.03,21.52,7.46,47.73,4.49,68.18-3.39.45,11.41,2.29,42.64.91,52.34-17.68,7.39-32.67,6.98-51.22,5.19-9.17-.88-14.95-.92-23.69-4.38-1.29-9.36-1.75-44.15-.36-52.8Z"/>
      <path class="cls-4" d="M21.33,169.72c2.11.06,3.49.83,5.47,1.39,13.07,3.74,26.39,2.54,39.65.66,15.01-2.13,15.9,9.93,16,21.57.05,5.05-.27,7.62-3.87,11.36-8.79,2.23-19.98,3.46-28.84,4.44-13.96,1.55-30.26-3.18-30-20.24.09-5.54-1.08-11.5-.31-17.02,0,0,1.74-1.98,1.9-2.16Z"/>
      <path class="cls-4" d="M36.21,74.35c-2.05-2.33-3.74-41.61-2.66-44.57,2.54-1.28,6.56,1.12,10.03,1.02,6.02-.17,11.68-1.21,17.65-1.84,3.52,2.07,2.99,41.04,1.28,44.15-3.17,3.12-12.43,3.13-16.96,3.03-1.39-.02-2.77-.13-4.14-.34.08,1.27-.66,2.44-1.82,2.9-1.16.46-2.48.09-3.26-.91-.78-1-.83-2.39-.13-3.44Z"/>
      <path class="cls-1" d="M36.21,74.35c.69-1.03,1.94-1.5,3.11-1.17,1.18.33,2.02,1.38,2.1,2.62.08,1.27-.66,2.44-1.82,2.9-1.16.46-2.48.09-3.26-.91-.78-1-.83-2.39-.13-3.44Z"/>
      <path class="cls-1" d="M36.21,42.21c.69-4.61,1.22-5.22,3.11-5.25,2.41.45,2.02,6.18,2.1,11.74.08,5.68-.66,10.93-1.82,12.97-1.16,2.04-2.48.4-3.26-4.06-.78-4.45-.83-10.69-.13-15.4Z"/>
      <path class="cls-4" d="M46.87,10c4.75.23,13.33-.13,15.3,4.86l-.73,1.69c-3.26,2.87-7.07,2.99-11.32,3.63-4.88.6-15.43.2-16.54-6.02,2.16-4.7,8.87-4.02,13.28-4.16Z"/>
      <path class="cls-2" d="M41.96,88.83c.85.4,1.02.64,1.77,1.23,2.31,11.44,2.36,23.9-6.24,32.92-1.86,1.95-6.37,5.28-8.88,5.91l-1.56-1.64c-1.15-5.31,7.45-4.31,11.46-12.24,4.24-8.39,1.31-21.79,3.45-26.19Z"/>
      <path class="cls-1" d="M13.34,222.95c1.03.78,1.98,1.34,2.08,2.93.36,5.59,2.41,26.56-.07,30.3l-1.9.31c-.17-.35-5.04-15.31-5.04-15.31,1.47-2.73,2.9-2.47,2.98-5.98.13-5.18-1.11-7.72,1.95-12.25Z"/>
      <path class="cls-2" d="M21.12,128.28c3.09-.03,5.48-.27,6.88,2.76-.69,5.56-5.08,4.74-5.81,10.41-.31.68-.15.37-1.04.84l-.99-.6c-.69-6.91-2.27-8.17.96-13.42Z"/>
    </g>
  </g>
</svg>